<svg xmlns="http://www.w3.org/2000/svg" xmlns:xlink="http://www.w3.org/1999/xlink" width="60" height="61" viewBox="0 0 60 61">
    <defs>
        <path id="a" d="M0 .24h59.92v60.137H0z"/>
    </defs>
    <g fill="none" fill-rule="evenodd">
        <g>
            <mask id="b" fill="#fff">
                <use xlink:href="#a"/>
            </mask>
            <path fill="#3C3F43" d="M17.111 48.677c1.068.025 1.344-.342 1.322-1.364-.06-2.89.023-5.782-.043-8.672-.026-1.112.185-1.622 1.456-1.583 2.94.09 5.884.077 8.825.005 1.16-.028 1.425.413 1.406 1.486-.05 2.833.084 5.67-.014 8.5-.048 1.37.462 1.57 1.663 1.497 8.283-.503 15.753-7.97 16.478-16.539.8-9.454-4.985-17.544-13.982-19.556-9.247-2.067-18.267 2.834-21.521 11.692a16.382 16.382 0 0 0-.992 4.808c-.057 1.097-.411 1.43-1.503 1.404-2.94-.072-5.885-.079-8.825.002-1.167.032-1.427-.393-1.375-1.463.347-6.988 2.836-13.108 7.382-18.39 7.955-9.244 20.804-12.606 32.755-8.6C51.29 5.64 58.993 15.814 59.84 27.92c1.186 16.954-11.045 31.112-27.98 32.435-1.473.115-2.093-.169-2-1.845.156-2.825.005-5.666.062-8.5.02-.965-.28-1.255-1.238-1.237a214.56 214.56 0 0 1-8.826-.002c-1.058-.023-1.36.334-1.326 1.357.068 2.038-.021 4.082.037 6.12.03 1.029-.152 1.537-1.37 1.475-2.144-.11-4.3-.075-6.448-.01-.95.029-1.272-.236-1.243-1.222.073-2.549.038-5.1.046-7.651a.27.27 0 0 0 .262-.128c2.432-.02 4.865-.092 7.295-.035z" mask="url(#b)"/>
        </g>
        <path fill="#3C3F43" d="M9.398 48.68a.25.25 0 0 1-.243.12c-1.933-.008-3.867-.051-5.8-.006-.85.02-1.221-.188-1.184-1.125.067-1.676.049-3.357.006-5.034-.019-.75.237-1.023.988-1.006 1.67.038 3.345.047 5.015-.004.84-.026 1.052.306 1.069 1.102.043 1.984-.222 3.978.149 5.953"/>
    </g>
</svg>
