<svg xmlns="http://www.w3.org/2000/svg" xmlns:xlink="http://www.w3.org/1999/xlink" width="60" height="66" viewBox="0 0 60 66">
    <defs>
        <path id="a" d="M0 0h60v66H0z"/>
    </defs>
    <g fill="none" fill-rule="evenodd">
        <mask id="b" fill="#fff">
            <use xlink:href="#a"/>
        </mask>
        <path fill="#3C3F43" d="M33.26 20.625h6.684c3.009-3.465 4.513-6.93 5.014-10.725h-6.685c-.668 3.795-2.34 7.26-5.014 10.725zm8.857 8.745c-1.337-1.32-3.844-2.97-8.022-2.97-4.513 0-9.193 1.155-12.535 2.31V9.9h-6.518v28.545l4.68-2.145s7.687-3.465 14.373-3.465c3.342 0 4.178 1.815 4.178 3.465v19.8h6.685V36.3c0-.495 0-4.125-2.841-6.93zM15.042 56.1l7.52-6.6-7.52-6.6v13.2zm41.616 3.96c0 1.485-1.17 2.64-2.675 2.64H6.017c-1.504 0-2.674-1.155-2.674-2.64V5.94c0-1.485 1.17-2.64 2.674-2.64h47.966c1.504 0 2.675 1.155 2.675 2.64v54.12zM53.983 0H6.017C2.674 0 0 2.64 0 5.94v54.12C0 63.36 2.674 66 6.017 66h47.966C57.326 66 60 63.36 60 60.06V5.94C60 2.64 57.326 0 53.983 0z" mask="url(#b)"/>
    </g>
</svg>
