<svg xmlns="http://www.w3.org/2000/svg" xmlns:xlink="http://www.w3.org/1999/xlink" width="60" height="70" viewBox="0 0 60 70">
    <defs>
        <path id="a" d="M0 0h60v70H0z"/>
    </defs>
    <g fill="none" fill-rule="evenodd">
        <mask id="b" fill="#fff">
            <use xlink:href="#a"/>
        </mask>
        <path fill="#3C3F43" d="M14.404 35.39c-.537-.064.157-.465.451-.968.324-.555.26-1.248.601-1.146.34.103.15.49-.082 1.126-.199.542-.772 1.012-.97.989M28.14 16.168c1.137-.523 1.535.287 1.142.417-.4.134-.403-.608-1.142-.417m4.667-2.816c.317.093.623.638.69 1.227.006.055.414-.085.416-.214.027-.947-.79-1.393-1.002-1.373-.491.044-.352.286-.104.36m-9.104.41c.148-.033.358.217.293.568-.091.486-.052.79.288.792.056 0 .116-.011.138-.137.163-.969-.345-1.68-.552-1.732-.478-.122-.42.562-.167.508m2.145 2.291c-1.25-.092-1.336.805-.922.79.422-.015.163-.71.922-.79m12.541 4.815c.283-.294.428.507 1.188.983.602.377 1.187.097 1.338.86.109.548-.235 1.141-.698 1.064-.803-.135-2.661-2.037-1.828-2.907m-4.646-15.6c-.144.427-.737.783-.36 1.083.375.299.592-.419 1.35-.688.196-.07 1.107.03 1.275-.4.072-.188-.47-.401-.794-.708-.323-.307-.64-.58-.944-.56-.785.05-.4.894-.527 1.273M19.864 59.494c.969 1.514 4.384 7.887-1.602 8.714-2.003.276-5.226-1.156-8.35-1.914-2.806-.68-5.656-1.084-7.251-1.53-.96-.266-1.362-.608-1.446-1.008-.22-1.057 1.167-2.54 1.237-3.793.07-1.252-.46-1.904-.895-2.924-.436-1.025-.549-1.792-.2-2.231.27-.342.821-.485 1.717-.398 1.136.112 2.507-.12 3.244-.565 1.241-.752 1.825-2.29 1.267-4.145 0 1.815-.6 2.502-2.104 3.332-1.417.782-3.604.149-4.61 1.015-1.21 1.04.432 3.73.298 5.703-.103 1.517-1.698 3.224-.987 4.745.716 1.53 4.053 1.698 7.533 2.42 4.946 1.026 7.83 2.813 10.115 2.897 3.333.123 3.844-3.272 9.079-3.318 1.526-.08 3.02-.127 4.511-.145 1.69-.021 3.379-.008 5.112.034 3.484.083 2.286 1.887 4.546 3.039 1.907.971 5.335.588 6.155-.189 1.111-1.05 4.09-3.576 6.374-4.718 2.845-1.422 9.528-3.871 4.677-6.858-1.13-.696-3.805-1.432-4.03-6.523-1.011.892-.894 5.636 1.93 6.577 3.155 1.052 5.127 2.812-.739 4.803-3.884 1.317-4.543 1.723-7.618 4.261-3.111 2.57-7.727 1.55-6.922-3.86.42-2.818.663-5.146-.044-7.596-.346-1.195-.518-2.731-.281-3.807.458-2.093 1.6-2.723 2.72-.714.702 1.261.95 2.735 3.465 2.856 3.952.187 4.734-3.789 5.997-3.97.843-.12 1.685-2.486 1.043-6.313-.687-4.096-3.116-10.565-6.233-13.845-2.59-2.726-4.221-5.117-5.249-8.529-.862-2.866-1.343-5.656-1.166-8.323.23-3.456-1.701-8.265-4.778-10.528C34.454.73 31.435-.029 28.703.001c-1.533.016-2.975.238-4.084.835-4.561 2.457-5.198 5.966-5.13 9.971.065 3.762.194 8.055.624 12.14-.51 1.874-3.165 5.43-4.866 7.593-2.286 2.24-3.441 6.57-4.92 10.354-.79 2.017-2.119 2.928-2.23 5.521-.032.726-.006 2.601.692 2.065 2.674-2.052 6.02 3.121 11.075 11.014m.966.105c2.525-.258 2.858-2.908 1.669-4.066-.98-.953-6.384-4.933-7.794-6.498-.655-.726-1.542-1.083-1.918-1.899-.864-1.878-1.47-4.558-.374-6.481.199-.349.326-.193.175.532-.861 4.106 1.834 7.46 2.427 5.74.41-1.189.03-3.315.249-5.003.387-2.987 3.129-8.724 4.333-9.052-1.857-3.413 2.178-6.083 2.128-9.078-.032-1.948 1.724 2.394 3.49 3.315 1.972 1.028 4.139-1.938 7.215-3.443.87-.426 1.987-.915 1.912-1.278-.362-1.751-4.04 2.16-7.327 2.293-1.5.059-2.056-.293-2.636-.848-1.75-1.68.18-.278 2.782-.745 1.158-.207 1.547-.4 2.775-.891 1.228-.493 2.632-1.222 4.021-1.596.967-.26.887-.982.51-1.199-.217-.124-.537-.112-.792.324-.596 1.023-3.4 1.614-4.274 1.88-1.124.34-2.368.659-4.018.592-2.508-.1-1.924-1.241-3.718-2.262-.526-.3-.384-1.085.315-1.779.366-.363 1.37-.568 1.868-1.395.07-.117.71-.782 1.214-1.127.174-.12.189-3.157-1.383-3.22-1.335-.054-1.714.973-1.658 1.997.055 1.022.602 1.865.966 1.862.7-.008.044.76-.34.884-.583.188-1.382-2.277-1.29-3.46.096-1.233.743-3.416 2.316-3.374 1.417.038 2.443 1.8 2.391 4.838-.01.516 2.297-.245 3.067.561.55.577-1.885-5.383 3.537-5.794 1.429.271 2.801.743 3.371 4.002-.21.339.356 2.612-.526 2.881-1.076.33-1.741-.047-1.119-1.064.426-1.021.01-3.619-2.168-3.463-2.178.156-1.89 3.99-1.293 4.066.598.076 2.102 1.135 3.152 1.338 3.445.665.914 2.625 1.361 4.997.505 2.678 2.284 1.971 3.882 9.065.334.432 1.658.841 2.948 6.292 1.161 4.902-.483 8.468 2.308 8.176.629-.066 1.547-.24 1.947-1.63 1.045-3.63-.524-7.959-2.106-10.879-.921-1.702-1.79-2.861-2.248-3.26 1.813 1.064 4.132 4.46 4.667 6.983.704 3.313 1.204 4.715.142 8.218.613.304 2.14.948 2.14 1.67-1.59-1.297-6.46-1.527-6.585 1.574-.83.017-1.458.084-1.992.714-1.958 2.304-.14 6.933-.339 9.414-.175 2.184-.785 4.348-1.13 6.542-1.165-.044-1.051-.89-.677-2.077.33-1.047.862-2.36.896-3.619.032-1.139-.094-1.85-.383-2.027-.29-.177-.743.181-1.37 1.182-1.337 2.136-4.233 3.075-6.938 3.412-2.704.336-5.219.07-6.55-1.41-.455-.506-1.21.138-1.3.272-.12.18.441.53.864 1.3.618 1.123 1.204 2.828-.258 3.606.019-3.956-1.243-4.188-2.534-6.605" mask="url(#b)"/>
    </g>
</svg>
