<svg xmlns="http://www.w3.org/2000/svg" xmlns:xlink="http://www.w3.org/1999/xlink" width="65" height="70" viewBox="0 0 65 70">
    <defs>
        <path id="a" d="M0 0h64.848v69.322H0z"/>
        <path id="c" d="M0 69.322h64.848V0H0z"/>
    </defs>
    <g fill="none" fill-rule="evenodd">
        <mask id="b" fill="#fff">
            <use xlink:href="#a"/>
        </mask>
        <path fill="#3C3F43" d="M38.025 50.754c6.423-.585 12.519-2.16 16.823-4.721l-1.673-2.365c-4.949 2.486-8.484 3.34-15.152 4.157.005-.575.029-1.142.063-1.705a62.421 62.421 0 0 1 1.295-7.4c.037-.153.073-.307.107-.46l-.095-.02c.123-.486.25-.97.384-1.453H27.885c.978-11.078 5.285-20.344 9.745-27.309h26.061v50.587H39.399a39.948 39.948 0 0 1-1.374-9.311zM1.153 60.065V9.478h33.02c-4.863 8.048-9.105 18.51-9.363 30.263h11.28c-.62 2.53-.984 5.345-1.053 8.312-10.252.383-17.343-1.344-23.34-4.359l-1.675 2.365c6.13 3.65 15.738 5.331 25.044 4.943.128 2.958.55 6.018 1.305 9.063H1.153zM64.848 8.332H38.38a83.097 83.097 0 0 1 4.809-6.488L40.964 0a74.043 74.043 0 0 0-6.083 8.332H.574v.572H0v52.311h36.674a42.189 42.189 0 0 0 3.153 8.107l2.669-1.28a42.24 42.24 0 0 1-2.766-6.827h24.537v-.573h.581V8.332z" mask="url(#b)"/>
        <mask id="d" fill="#fff">
            <use xlink:href="#c"/>
        </mask>
        <path fill="#3C3F43" d="M43.354 24.217h3.289v-7.655h-3.29zM16.111 24.22h3.29v-7.656h-3.29z" mask="url(#d)"/>
    </g>
</svg>
