<?xml version="1.0" encoding="UTF-8"?>
<svg width="177px" height="52px" viewBox="0 0 177 52" version="1.1" xmlns="http://www.w3.org/2000/svg" xmlns:xlink="http://www.w3.org/1999/xlink">
    <!-- Generator: sketchtool 48.2 (47327) - http://www.bohemiancoding.com/sketch -->
    <title>76F0167E-D99B-4477-99AF-EEF676C8112D</title>
    <desc>Created with sketchtool.</desc>
    <defs>
        <linearGradient x1="-3.23625393%" y1="3.85344%" x2="71.2621902%" y2="68.0401089%" id="linearGradient-1">
            <stop stop-color="#5A9FD4" offset="0%"></stop>
            <stop stop-color="#306998" offset="100%"></stop>
        </linearGradient>
        <linearGradient x1="64.9414908%" y1="71.7673776%" x2="38.3865661%" y2="34.3579124%" id="linearGradient-2">
            <stop stop-color="#FFD43B" offset="0%"></stop>
            <stop stop-color="#FFE873" offset="100%"></stop>
        </linearGradient>
        <radialGradient cx="49.9757043%" cy="50.120292%" fx="49.9757043%" fy="50.120292%" r="40.4413649%" gradientTransform="translate(0.499757,0.501203),scale(0.185185,1.000000),translate(-0.499757,-0.501203)" id="radialGradient-3">
            <stop stop-color="#B8B8B8" stop-opacity="0.498" offset="0%"></stop>
            <stop stop-color="#7F7F7F" stop-opacity="0" offset="100%"></stop>
        </radialGradient>
    </defs>
    <g id="Python-developers-survey-2017" stroke="none" stroke-width="1" fill="none" fill-rule="evenodd" transform="translate(-115.000000, -99.000000)">
        <g id="python-logo-inkscape" transform="translate(115.000000, 99.000000)" fill-rule="nonzero">
            <path d="M67.262931,22.6831923 C67.262931,17.210399 65.7241379,14.4365175 62.6831897,14.286578 C61.4741379,14.2116082 60.3017241,14.4365175 59.1293103,14.8863362 C58.2133621,15.2237001 57.5905172,15.5610641 57.2607759,15.8984281 L57.2607759,28.9431681 C59.2025862,30.1801693 60.924569,30.7799274 62.4267241,30.6674728 C65.6508621,30.4425635 67.262931,27.7811366 67.262931,22.6831923 Z M71,22.9081016 C71,25.6819831 70.3771552,27.9685611 69.0948276,29.8053204 C67.6659483,31.8669891 65.6875,32.9540508 63.1594828,32.9915357 C61.2543103,33.0665054 59.3125,32.4292624 57.2607759,31.1547763 L57.2607759,43 L54,41.8004837 L54,15.5235792 C54.549569,14.8488513 55.2090517,14.286578 56.0517241,13.7992745 C57.9935345,12.637243 60.3383621,12.0374849 63.1228448,12 L63.1594828,12.0374849 C65.6875,12 67.6659483,13.0870617 69.0215517,15.2237001 C70.3771552,17.2853688 71,19.834341 71,22.9081016 Z" id="path46" fill="#646464"></path>
            <path d="M91,30.750303 C91,34.470303 90.6222222,37.0630303 89.8666667,38.4909091 C89.1111111,39.9187879 87.6755556,41.0836364 85.56,41.910303 C83.8222222,42.5866667 81.9711111,42.9624242 79.9688889,43 L79.4022222,40.8957576 C81.4422222,40.6327273 82.8777778,40.3321212 83.6711111,40.0690909 C85.2955556,39.5054545 86.4288889,38.6787879 87.0333333,37.5515152 C87.5244444,36.649697 87.7511111,34.8836364 87.7511111,32.2909091 L87.7511111,31.4266667 C85.4466667,32.4787879 83.0288889,32.9672727 80.4977778,32.9672727 C78.8355556,32.9672727 77.3622222,32.4412121 76.1155556,31.4266667 C74.7177778,30.2993939 74,28.8715152 74,27.1054545 L74,13.1648485 L77.3622222,12 L77.3622222,26.0157576 C77.3622222,27.5187879 77.8533333,28.6836364 78.8355556,29.4727273 C79.8177778,30.2993939 81.0644444,30.6751515 82.6133333,30.6375758 C84.1622222,30.6 85.8244444,29.9987879 87.5622222,28.8339394 L87.5622222,12.4884848 L90.9244444,12.4884848 L90.9244444,30.750303 L91,30.750303 Z" id="path48" fill="#646464"></path>
            <path d="M104,31.9626556 C103.604,32 103.28,32 102.956,32 C101.156,32 99.716,31.5518672 98.708,30.6556017 C97.7,29.7593361 97.196,28.526971 97.196,26.9211618 L97.196,13.8506224 L95,13.8506224 L95,11.7593361 L97.196,11.7593361 L97.196,6.19502075 L100.4,5 L100.4,11.7593361 L104,11.7593361 L104,13.8506224 L100.4,13.8506224 L100.4,26.846473 C100.4,28.0788382 100.724,28.9751037 101.372,29.4979253 C101.912,29.9087137 102.812,30.1701245 104,30.2448133 L104,31.9626556 Z" id="path50" fill="#646464"></path>
            <path d="M123.926437,32 L120.652874,32 L120.652874,19.0494118 C120.652874,17.7317647 120.358621,16.6023529 119.770115,15.6611765 C119.071264,14.6070588 118.114943,14.0423529 116.901149,14.0423529 C115.393103,14.0423529 113.517241,14.8705882 111.273563,16.4894118 L111.273563,32 L108,32 L108,1.05411765 L111.273563,0 L111.273563,14.08 C113.370115,12.5364706 115.650575,11.7458824 118.151724,11.7458824 C119.88046,11.7458824 121.278161,12.3482353 122.381609,13.5529412 C123.448276,14.7576471 124,16.2258824 124,17.9952941 L124,32 L123.926437,32 Z" id="path52" fill="#646464"></path>
            <path d="M141.392638,22.1431127 C141.392638,20.039356 140.98773,18.3112701 140.214724,16.921288 C139.294479,15.2307692 137.858896,14.3667263 135.907975,14.2915921 C132.300613,14.5169946 130.533742,17.1466905 130.533742,22.1806798 C130.533742,24.509839 130.90184,26.4257603 131.674847,27.9660107 C132.631902,29.9570662 134.067485,30.8962433 136.018405,30.8962433 C139.588957,30.8586762 141.392638,27.9284436 141.392638,22.1431127 Z M145,22.1806798 C145,25.1860465 144.263804,27.6654741 142.754601,29.6565295 C141.09816,31.8729875 138.815951,33 135.944785,33 C133.07362,33 130.828221,31.8729875 129.208589,29.6565295 C127.736196,27.6654741 127,25.1860465 127,22.1806798 C127,19.3631485 127.809816,16.9964222 129.392638,15.0805009 C131.08589,13.0518784 133.257669,12 135.981595,12 C138.705521,12 140.91411,13.0143113 142.644172,15.0805009 C144.190184,16.9964222 145,19.3631485 145,22.1806798 Z" id="path54" fill="#646464"></path>
            <path d="M164,32.9616788 L160.696056,32.9616788 L160.696056,19.0510949 C160.696056,17.5182482 160.25058,16.330292 159.359629,15.4872263 C158.468677,14.6441606 157.280742,14.2226277 155.795824,14.2609489 C154.236659,14.2992701 152.714617,14.8357664 151.303944,15.8321168 L151.303944,33 L148,33 L148,15.4105839 C149.893271,13.9927007 151.638051,13.0346715 153.271462,12.6131387 C154.793503,12.1916058 156.12993,12 157.243619,12 C158.023202,12 158.765661,12.0766423 159.470998,12.229927 C160.770302,12.5364964 161.809745,13.1113139 162.62645,13.9543796 C163.517401,14.8740876 164,16.0237226 164,17.3266423 L164,32.9616788 Z" id="path56" fill="#646464"></path>
            <path d="M20.718474,1 C18.9860557,1 17.3289599,1.14939759 15.8978317,1.41084337 C11.6421085,2.15783133 10.8512219,3.72650602 10.8512219,6.60240964 L10.8512219,10.4120482 L20.9444416,10.4120482 L20.9444416,11.6819277 L10.8512219,11.6819277 L7.04743389,11.6819277 C4.10985503,11.6819277 1.54888884,13.4373494 0.720340957,16.7614458 C-0.221190729,20.5710843 -0.258851997,22.9614458 0.720340957,26.9204819 C1.43590504,29.8710843 3.16832334,32 6.06824094,32 L9.53307754,32 L9.53307754,27.4433735 C9.53307754,24.1566265 12.4329951,21.2060241 15.8601705,21.2060241 L25.9533902,21.2060241 C28.7779852,21.2060241 31,18.9277108 31,16.126506 L31,6.60240964 C31,3.87590361 28.7026627,1.85903614 25.9533902,1.41084337 C24.2209719,1.11204819 22.4508923,1 20.718474,1 Z M15.2575902,4.0626506 C16.3121057,4.0626506 17.1406536,4.92168675 17.1406536,5.96746988 C17.1406536,7.01325301 16.2744444,7.87228916 15.2575902,7.87228916 C14.2030747,7.87228916 13.3745268,7.01325301 13.3745268,5.96746988 C13.3368656,4.92168675 14.2030747,4.0626506 15.2575902,4.0626506 Z" id="path1948" fill="url(#linearGradient-1)"></path>
            <path d="M32.3902847,12 L32.3902847,16.4112141 C32.3902847,19.8215645 29.4580489,22.7129486 26.0746998,22.7129486 L16.0374309,22.7129486 C13.2931588,22.7129486 11,25.0482972 11,27.7543361 L11,37.2069378 C11,39.9129767 13.3683444,41.4698758 16.0374309,42.2483253 C19.2328161,43.175051 22.2778303,43.3233271 26.1122926,42.2483253 C28.6686007,41.5069448 31.1497234,40.0612528 31.1497234,37.2069378 L31.1497234,33.4258971 L21.0748617,33.4258971 L21.0748617,32.1655502 L31.1497234,32.1655502 L36.1871543,32.1655502 C39.1193901,32.1655502 40.2095804,30.1638228 41.2245851,27.1241627 C42.2771826,24.0103645 42.2395898,21.0077734 41.2245851,17.0413876 C40.5103225,14.1500035 39.1193901,12 36.1871543,12 L32.3902847,12 Z M26.7137768,35.9465909 C27.7663743,35.9465909 28.5934152,36.7991785 28.5934152,37.8371112 C28.5934152,38.875044 27.7287816,39.7276316 26.7137768,39.7276316 C25.6611793,39.7276316 24.8341385,38.875044 24.8341385,37.8371112 C24.8341385,36.7991785 25.6987721,35.9465909 26.7137768,35.9465909 Z" id="path1950" fill="url(#linearGradient-2)"></path>
            <path d="M170.436893,9 L171.058252,9 L171.058252,5.43636364 L172.495146,5.43636364 L172.495146,5 L169,5 L169,5.43636364 L170.436893,5.43636364 L170.436893,9 M173.038835,9 L173.543689,9 L173.543689,5.76363636 L174.669903,9 L175.252427,9 L176.417476,5.76363636 L176.417476,9 L177,9 L177,5 L176.262136,5 L174.980583,8.41818182 L173.893204,5 L173.038835,5 L173.038835,9" id="text3004" fill="#646464"></path>
            <path d="M35,49.5 C35,50.8571429 28.9456825,52 21.5,52 C14.0543175,52 8,50.8928571 8,49.5 C8,48.1428571 14.0543175,47 21.5,47 C28.9456825,47 35,48.1428571 35,49.5 Z" id="path1894" fill="url(#radialGradient-3)" opacity="0.4438"></path>
        </g>
    </g>
</svg>