<?xml version="1.0" encoding="utf-8"?>
<!-- Generator: Adobe Illustrator 18.1.1, SVG Export Plug-In . SVG Version: 6.00 Build 0)  -->
<svg version="1.1" id="Layer_1" xmlns="http://www.w3.org/2000/svg" xmlns:xlink="http://www.w3.org/1999/xlink" x="0px" y="0px"
	 viewBox="0 0 160 160" enable-background="new 0 0 160 160" xml:space="preserve">
<g>
	<path fill="#E0E0E0" d="M158.8,79.8c0-43.6-35.4-79-79-79s-79,35.4-79,79c0,12.3,2.8,23.9,7.8,34.3c4.3-2.4,11.9-3.4,32.2-6
		c0,0,6-2,7.2-5.8c0,0,2.2-5.1,6.4-4.2c0,0,4,0.6,4.3-0.9c1.7-7.9,2.3-18.1-0.1-21.9c0,0-1.6,1.5-2.8-0.1c-1.3-1.7-0.2-4.1-1.3-7.6
		c-1.7-5.2-4.4-8-2.4-9.7c1.6-1.3,3,0.2,3,0.2s-0.4-3.3-0.7-4.8C53,45.5,53.8,39.6,55.2,32c1.7-9,6-12.5,9.5-14.7
		c5.1-3.2,11.3-5.2,23.7-4.5c5.6,0.3,16.5,2.8,20,11.2c0,0,3.8-1,6.8,0.8c0,0-4.8,0.3-1.6,2.4c3.2,2.1,5.9,5.6,5.2,11
		c-1,7.1-5.4,18.8-6.9,22.7l-1.4,3.7c0,0,3.8-1.4,3.2,1.5c-1.2,5.5-4.6,7.4-6.6,14.7c-0.5,1.9-2.6-0.1-2.6-0.1s-4.2,10.1-6.2,12.4
		c-4.9,5.7-10.5,9.2-10.5,9.2s6.1-0.1,5.9,2.8c0,0-1.4,5,1.5,5.4c2.9,0.5,19.8,2.3,26.4,7.6c5.5,4.3,9.7,16.4,11,20.4
		C148.6,124,158.8,103.1,158.8,79.8z"/>
	<path fill="#BCBCBC" d="M121.5,118.1c-6.6-5.2-23.5-7.1-26.4-7.6c-2.9-0.5-1.5-5.4-1.5-5.4c0.3-2.9-5.9-2.8-5.9-2.8
		s5.6-3.5,10.5-9.2c2-2.3,6.2-12.4,6.2-12.4s2.1,2.1,2.6,0.1c2-7.3,5.4-9.2,6.6-14.7c0.6-2.9-3.2-1.5-3.2-1.5l1.4-3.7
		c1.6-3.9,6-15.5,6.9-22.7c0.7-5.4-2.1-8.9-5.2-11c-3.2-2.1,1.6-2.4,1.6-2.4c-3.1-1.7-6.8-0.8-6.8-0.8c-3.5-8.3-14.4-10.8-20-11.2
		c-12.4-0.8-18.6,1.3-23.7,4.5c-3.5,2.1-7.9,5.7-9.5,14.7c-1.4,7.6-2.2,13.5-0.9,21.2C54.6,54.7,55,58,55,58s-1.4-1.6-3-0.2
		c-2,1.7,0.7,4.5,2.4,9.7c1.1,3.4,0,5.8,1.3,7.6c1.2,1.7,2.8,0.1,2.8,0.1c2.4,3.8,1.9,14,0.1,21.9c-0.3,1.5-4.3,0.9-4.3,0.9
		c-4.2-0.9-6.4,4.2-6.4,4.2c-1.2,3.9-7.2,5.8-7.2,5.8c-20.3,2.6-27.9,3.6-32.2,6c12.8,26.4,39.8,44.7,71.2,44.7
		c20.3,0,38.8-7.7,52.8-20.3C131.3,134.5,127,122.4,121.5,118.1z"/>
</g>
</svg>
