<?xml version="1.0" encoding="utf-8"?>
<!-- Generator: Adobe Illustrator 15.1.0, SVG Export Plug-In . SVG Version: 6.00 Build 0)  -->
<!DOCTYPE svg PUBLIC "-//W3C//DTD SVG 1.1 Tiny//EN" "http://www.w3.org/Graphics/SVG/1.1/DTD/svg11-tiny.dtd">
<svg version="1.1" baseProfile="tiny" xmlns="http://www.w3.org/2000/svg" xmlns:xlink="http://www.w3.org/1999/xlink" x="0px"
	 y="0px" width="72px" height="270px" viewBox="0 0 72 270" overflow="inherit" xml:space="preserve">
<g>
	<path fill="#4C4C4C" d="M33,141l2,4l-2.584,1l1.449,5c0,0,1,0.691,1,1c-0.93,1.857-5.416,3-5.416,3c-2,0-1-2-1-2L27,148
		c0,0-0.072-0.69-1-1c-0.605-0.202,0.168-4.071-2-5h8.416L33,141 M33,140c-0.355,0-0.684,0.188-0.864,0.496L31.842,141H24
		c-0.475,0-0.884,0.334-0.979,0.799c-0.096,0.465,0.149,0.933,0.586,1.12c0.865,0.371,0.992,1.838,1.084,2.91
		c0.085,0.988,0.16,1.842,0.993,2.12c0.252,0.084,0.317,0.192,0.331,0.224c0.006,0.036,0.014,0.071,0.024,0.106l1.352,4.665
		c-0.18,0.511-0.364,1.386,0.094,2.128c0.262,0.424,0.815,0.929,1.963,0.929c0.083,0,0.166-0.01,0.247-0.031
		c0.823-0.21,4.984-1.365,6.063-3.521c0.07-0.139,0.106-0.292,0.106-0.448c0-0.251,0-0.751-1.135-1.609l-1.098-3.789l1.729-0.669
		c0.263-0.102,0.47-0.309,0.572-0.572c0.101-0.263,0.088-0.556-0.038-0.808l-2-4c-0.164-0.328-0.495-0.54-0.862-0.552
		C33.021,140,33.011,140,33,140L33,140z"/>
	<path fill="#4C4C4C" d="M53.5,131c-0.172,0-0.335,0.03-0.5,0.056v2.066c0.157-0.074,0.324-0.122,0.5-0.122c0.828,0,1.5,0.895,1.5,2
		s-0.672,2-1.5,2c-0.176,0-0.343-0.048-0.5-0.122v2.066c0.165,0.026,0.328,0.056,0.5,0.056c1.962,0,3.5-1.757,3.5-4
		S55.462,131,53.5,131z"/>
	<path fill="#4C4C4C" d="M23.665,140H20.48c-0.853,0-2-2-2-5.095c0-2.905,1.147-4.905,2-4.905h3.18c0.312-0.617,0.652-1,0.955-1
		H20.48c-1.654,0-3,2.649-3,5.905c0,3.418,1.318,6.095,3,6.095h4.135C24.313,141,23.976,140.62,23.665,140z"/>
	<path fill="#4C4C4C" d="M53.782,119.159C53.53,119.052,53.264,119,53,119c-0.508,0-1.008,0.193-1.388,0.56
		c-0.336,0.324-0.704,0.706-1.111,1.13C47.707,123.601,43.484,128,35,128h-9.25c-1.031,0-1.871,0.784-1.979,1.787
		c0.28-0.493,0.576-0.787,0.844-0.787h7.135c-0.303,0-0.641,0.381-0.953,1H35c10.615,0,15.348-6.444,18-9v28
		c-2.652-2.555-7.385-9-18-9h-4.203c0.312,0.619,0.65,1,0.953,1h-7.135c-0.268,0-0.564-0.295-0.845-0.794
		c0.104,1.006,0.945,1.794,1.979,1.794H35c8.483,0,12.706,4.399,15.5,7.309c0.407,0.424,0.775,0.807,1.112,1.131
		c0.38,0.366,0.88,0.56,1.388,0.56c0.264,0,0.53-0.052,0.782-0.16C54.521,150.527,55,149.802,55,149v-28
		C55,120.198,54.521,119.473,53.782,119.159z"/>
	<path fill="#4C4C4C" d="M31.75,129h0.005 M31.75,129c-0.854,0-2,3-2,6s1.146,6,2,6h-7.135c-0.854,0-2-3-2-6.095
		c0-2.905,1.146-5.905,2-5.905H31.75 M31.755,128H31.75h-7.135c-2.094,0-3,4.572-3,6.905c0,1.533,0.268,3.186,0.734,4.535
		c0.587,1.699,1.35,2.56,2.266,2.56h7.135c0.552,0,1-0.448,1-1c0-0.473-0.328-0.869-0.77-0.973c-0.398-0.432-1.23-2.501-1.23-5.027
		s0.833-4.594,1.23-5.027c0.442-0.104,0.772-0.5,0.772-0.973C32.752,128.448,32.307,128,31.755,128L31.755,128z"/>
	<path fill="#4C4C4C" d="M60.883,128.559C62.188,130.193,63,132.474,63,135s-0.812,4.807-2.117,6.441l0.9,0.45
		C63.152,140.096,64,137.671,64,135s-0.848-5.096-2.217-6.891L60.883,128.559z"/>
	<path fill="#4C4C4C" d="M60,135c0,2.135-0.746,4.004-1.865,5.067l0.947,0.474C60.255,139.271,61,137.282,61,135
		s-0.745-4.271-1.918-5.541l-0.947,0.474C59.254,130.996,60,132.865,60,135z"/>
</g>
<g>
	<path fill="#4C4C4C" d="M33.057,187v10h-8v-10H33.057 M33.057,186h-8c-0.552,0-1,0.448-1,1v10c0,0.552,0.448,1,1,1h8
		c0.552,0,1-0.448,1-1v-10C34.057,186.448,33.609,186,33.057,186L33.057,186z"/>
	<ellipse fill="#4C4C4C" cx="29.057" cy="191.5" rx="2" ry="2.5"/>
	<polygon fill="#4C4C4C" points="29.059,193 28.059,195 25.057,196 25.057,197 33.057,197 33.057,196 30.059,195 	"/>
	<rect x="38" y="188" fill="#4C4C4C" width="13" height="1"/>
	<rect x="38" y="192" fill="#4C4C4C" width="10" height="1"/>
	<path fill="#4C4C4C" d="M54,175H39v2h15v25H20v-25h15v-2H20c-1.104,0-2,0.895-2,2v25c0,1.105,0.896,2,2,2h34c1.104,0,2-0.895,2-2
		v-25C56,175.895,55.104,175,54,175z"/>
	<path fill="#4C4C4C" d="M39,173v7h3v1H32v-1h3v-7H39 M39,172h-4c-0.552,0-1,0.448-1,1v6h-2c-0.552,0-1,0.448-1,1v1
		c0,0.552,0.448,1,1,1h10c0.552,0,1-0.448,1-1v-1c0-0.552-0.448-1-1-1h-2v-6C40,172.448,39.552,172,39,172L39,172z"/>
</g>
<g>
	<rect x="26.057" y="23" fill="#4C4C4C" width="18" height="1"/>
	<rect x="26.057" y="27" fill="#4C4C4C" width="12" height="1"/>
	<rect x="26.057" y="19" fill="#4C4C4C" width="10" height="1"/>
	<path fill="#4C4C4C" d="M50,8.001H23c-1.104,0-2,0.895-2,2V44c0,1.105,0.896,2,2,2h14v-2H23V10.001h27V44h-5v2h5
		c1.104,0,2-0.895,2-2V10.001C52,8.896,51.104,8.001,50,8.001z"/>
	<path fill="#4C4C4C" d="M44.071,41.893l0.659,0.661l-0.195,0.982l-0.52,0.058L44,50.479l-2.497-1.374
		C41.362,49.035,41.209,49,41.056,49c-0.153,0-0.307,0.035-0.447,0.106L38.004,50.5L38,43.417l-0.535,0.119l-0.197-0.982
		l0.661-0.661c-0.169-0.274-0.294-0.576-0.385-0.893H37v11l4.056-2L45,52V41h-0.543C44.365,41.316,44.24,41.618,44.071,41.893z"/>
	<path fill="#4C4C4C" d="M41,45.5c-0.097,0-0.193-0.028-0.277-0.084l-0.834-0.556c-0.139-0.093-0.223-0.249-0.223-0.416v-0.559
		c-0.161-0.055-0.318-0.12-0.471-0.195L38.8,44.085c-0.117,0.118-0.286,0.172-0.451,0.137l-0.981-0.196
		c-0.198-0.039-0.353-0.194-0.393-0.392l-0.197-0.982c-0.033-0.164,0.019-0.334,0.137-0.452l0.396-0.395
		c-0.075-0.153-0.141-0.311-0.195-0.471h-0.559c-0.167,0-0.323-0.084-0.416-0.223l-0.556-0.834c-0.112-0.168-0.112-0.387,0-0.555
		l0.556-0.833c0.093-0.139,0.249-0.223,0.416-0.223h0.559c0.055-0.16,0.12-0.318,0.195-0.472l-0.396-0.395
		c-0.118-0.118-0.17-0.288-0.137-0.452l0.197-0.982c0.04-0.197,0.194-0.353,0.393-0.392l0.981-0.196
		c0.16-0.036,0.333,0.019,0.451,0.137l0.396,0.395c0.152-0.075,0.31-0.141,0.471-0.195v-0.559c0-0.167,0.084-0.323,0.223-0.416
		l0.834-0.556c0.168-0.111,0.387-0.111,0.555,0l0.833,0.556c0.139,0.093,0.223,0.249,0.223,0.416v0.559
		c0.16,0.055,0.317,0.12,0.472,0.195l0.395-0.395c0.119-0.118,0.291-0.171,0.451-0.137l0.982,0.196
		c0.198,0.039,0.354,0.194,0.393,0.393l0.195,0.982c0.032,0.164-0.019,0.333-0.137,0.451l-0.394,0.395
		c0.074,0.153,0.14,0.311,0.195,0.472h0.559c0.167,0,0.323,0.084,0.416,0.223l0.556,0.834c0.112,0.168,0.112,0.387,0,0.555
		l-0.556,0.833c-0.093,0.139-0.249,0.223-0.416,0.223h-0.559c-0.056,0.161-0.121,0.318-0.195,0.471l0.394,0.395
		c0.118,0.118,0.169,0.287,0.137,0.451l-0.195,0.982c-0.039,0.198-0.194,0.354-0.393,0.393l-0.982,0.196
		c-0.165,0.033-0.333-0.019-0.451-0.137l-0.395-0.395c-0.154,0.075-0.312,0.141-0.472,0.195v0.559c0,0.167-0.084,0.323-0.223,0.416
		l-0.833,0.556C41.193,45.472,41.097,45.5,41,45.5z M40.666,44.177L41,44.399l0.333-0.223v-0.666c0-0.231,0.159-0.434,0.385-0.486
		c0.319-0.076,0.627-0.203,0.913-0.379c0.196-0.122,0.45-0.093,0.615,0.072l0.471,0.471l0.393-0.078l0.079-0.394l-0.471-0.471
		c-0.164-0.164-0.193-0.419-0.072-0.616c0.174-0.282,0.302-0.589,0.379-0.912c0.054-0.225,0.255-0.384,0.486-0.384h0.666
		l0.223-0.333l-0.223-0.334h-0.666c-0.231,0-0.433-0.159-0.486-0.384c-0.077-0.323-0.204-0.631-0.379-0.913
		c-0.121-0.197-0.092-0.452,0.072-0.616l0.471-0.471l-0.079-0.394l-0.393-0.078l-0.471,0.471c-0.165,0.163-0.419,0.193-0.615,0.072
		c-0.286-0.176-0.594-0.303-0.913-0.379c-0.226-0.053-0.385-0.255-0.385-0.486v-0.666L41,35.601l-0.334,0.223v0.666
		c0,0.231-0.159,0.434-0.385,0.486c-0.321,0.076-0.627,0.203-0.911,0.379c-0.195,0.121-0.451,0.094-0.616-0.072l-0.472-0.471
		L37.89,36.89l-0.079,0.394l0.472,0.471c0.164,0.163,0.193,0.419,0.072,0.616c-0.176,0.284-0.303,0.592-0.379,0.912
		c-0.053,0.226-0.255,0.385-0.486,0.385h-0.666L36.601,40l0.223,0.334h0.666c0.231,0,0.434,0.159,0.486,0.385
		c0.076,0.32,0.203,0.627,0.379,0.911c0.121,0.197,0.092,0.453-0.072,0.616l-0.472,0.471l0.079,0.394l0.393,0.078l0.472-0.471
		c0.165-0.165,0.421-0.192,0.616-0.072c0.284,0.176,0.59,0.303,0.911,0.379c0.226,0.053,0.385,0.255,0.385,0.486V44.177z"/>
</g>
<g>
	<path fill="#4C4C4C" d="M37,100c-0.193,0-0.387-0.056-0.555-0.168l-3-2C33.167,97.646,33,97.334,33,97v-2.595
		c-0.919-0.274-1.806-0.642-2.65-1.1l-1.835,1.836c-0.237,0.236-0.577,0.337-0.903,0.273l-3.537-0.707
		c-0.396-0.079-0.705-0.389-0.784-0.784l-0.707-3.536c-0.065-0.328,0.037-0.667,0.274-0.903l1.836-1.836
		c-0.458-0.844-0.825-1.73-1.1-2.648H21c-0.334,0-0.646-0.167-0.832-0.445l-2-3c-0.224-0.336-0.224-0.773,0-1.109l2-3
		C20.353,77.167,20.666,77,21,77h2.594c0.274-0.919,0.642-1.806,1.1-2.649l-1.836-1.836c-0.236-0.236-0.339-0.575-0.274-0.903
		l0.708-3.537c0.079-0.396,0.389-0.705,0.784-0.784l3.536-0.706c0.327-0.063,0.666,0.037,0.903,0.273l1.835,1.836
		c0.847-0.459,1.733-0.826,2.65-1.1V65c0-0.334,0.167-0.646,0.445-0.832l3-2c0.336-0.225,0.773-0.225,1.109,0l3,2
		C40.833,64.354,41,64.666,41,65v2.594c0.916,0.273,1.803,0.641,2.649,1.1l1.835-1.836c0.236-0.236,0.574-0.337,0.903-0.273
		l3.536,0.707c0.396,0.079,0.705,0.389,0.784,0.784l0.707,3.536c0.065,0.328-0.037,0.667-0.273,0.903l-1.835,1.836
		c0.458,0.847,0.826,1.733,1.1,2.649H53c0.334,0,0.646,0.167,0.832,0.445l2,3c0.224,0.336,0.224,0.774,0,1.109l-2,3
		C53.646,84.833,53.334,85,53,85h-2.594c-0.274,0.917-0.642,1.803-1.1,2.649l1.835,1.835c0.236,0.236,0.339,0.575,0.273,0.903
		l-0.707,3.536c-0.079,0.396-0.389,0.705-0.784,0.784l-3.536,0.707c-0.328,0.064-0.666-0.036-0.903-0.273l-1.835-1.836
		c-0.844,0.458-1.73,0.825-2.649,1.1V97c0,0.334-0.167,0.646-0.445,0.832l-3,2C37.387,99.944,37.193,100,37,100z M35,96.465l2,1.333
		l2-1.333v-2.827c0-0.464,0.318-0.866,0.769-0.973c1.244-0.295,2.428-0.786,3.519-1.46c0.394-0.242,0.905-0.186,1.233,0.144l2,2
		l2.357-0.471l0.471-2.357l-1.999-2c-0.328-0.327-0.388-0.837-0.145-1.231c0.676-1.096,1.167-2.28,1.461-3.52
		c0.106-0.451,0.509-0.77,0.973-0.77h2.826l1.333-2l-1.333-2h-2.826c-0.464,0-0.866-0.318-0.973-0.77
		c-0.294-1.238-0.785-2.423-1.461-3.521c-0.243-0.395-0.183-0.904,0.145-1.231l1.999-2l-0.471-2.357L46.52,68.65l-2,2
		c-0.328,0.329-0.84,0.387-1.233,0.144c-1.096-0.676-2.279-1.167-3.517-1.459C39.319,69.228,39,68.825,39,68.361v-2.826l-2-1.333
		l-2,1.333v2.826c0,0.464-0.319,0.866-0.771,0.974c-1.238,0.292-2.422,0.783-3.517,1.459c-0.395,0.243-0.906,0.186-1.233-0.144
		l-2-2.001l-2.357,0.471l-0.472,2.359l2,2c0.328,0.328,0.388,0.838,0.144,1.232c-0.674,1.091-1.165,2.274-1.46,3.519
		C25.227,78.682,24.825,79,24.361,79h-2.826l-1.333,2l1.333,2h2.826c0.464,0,0.866,0.318,0.973,0.77
		c0.295,1.243,0.786,2.427,1.46,3.518c0.244,0.395,0.185,0.904-0.144,1.232l-2,2.001l0.471,2.357l2.358,0.471l2-2
		c0.328-0.329,0.842-0.386,1.233-0.144c1.091,0.674,2.274,1.165,3.519,1.46c0.451,0.106,0.77,0.509,0.77,0.973V96.465z"/>
	<path fill="#4C4C4C" d="M56.056,75.186c2.206,0,4,1.794,4,4c0,2.206-1.794,4-4,4c-0.036,0-0.072-0.001-0.109-0.002l0.717-1.075
		c0.448-0.674,0.448-1.544,0-2.218l-2-3c-0.267-0.4-0.662-0.684-1.111-0.813C54.247,75.508,55.123,75.186,56.056,75.186
		 M56.056,74.186c-1.973,0-3.664,1.154-4.477,2.814H53c0.334,0,0.646,0.167,0.832,0.445l2,3c0.224,0.336,0.224,0.774,0,1.109
		L54.3,83.852c0.548,0.207,1.136,0.334,1.756,0.334c2.76,0,5-2.239,5-5C61.056,76.424,58.816,74.186,56.056,74.186L56.056,74.186z"
		/>
	<path fill="#4C4C4C" d="M56.056,68.186l1.692,0.846v1.862c1.08,0.219,2.083,0.646,2.972,1.234l1.318-1.319l1.796,0.599l0.597,1.794
		l-1.318,1.319c0.588,0.888,1.016,1.892,1.234,2.972h1.863l0.846,1.693l-0.846,1.692h-1.863c-0.219,1.081-0.646,2.084-1.234,2.972
		l1.32,1.319l-0.599,1.795l-1.796,0.598l-1.318-1.319c-0.888,0.588-1.892,1.015-2.972,1.234v1.862l-1.692,0.846l-1.692-0.846v-1.862
		c-1.081-0.219-2.084-0.647-2.972-1.235l-1.319,1.319l-0.549-0.183c0.351-0.709,0.656-1.437,0.882-2.193H53
		c0.334,0,0.646-0.167,0.832-0.445l2-3c0.224-0.336,0.224-0.773,0-1.109l-2-3c-0.186-0.278-0.498-0.445-0.832-0.445h-2.594
		c-0.273-0.916-0.642-1.803-1.1-2.649l1.835-1.836c0.161-0.16,0.254-0.369,0.28-0.589c0.88-0.578,1.874-1,2.942-1.217v-1.862
		L56.056,68.186 M56.056,67.067l-0.447,0.224l-1.692,0.846l-0.553,0.276v0.618v1.082c-0.877,0.26-1.712,0.65-2.491,1.161
		l-0.389,0.255l-0.055,0.461l-1.83,1.837l-0.527,0.527l0.355,0.656c0.424,0.785,0.768,1.612,1.021,2.46l0.213,0.714h0.745H53l2,3
		l-2,3h-2.594h-0.745l-0.213,0.714c-0.193,0.646-0.461,1.312-0.82,2.036l-0.51,1.03l1.09,0.363l0.549,0.183l0.586,0.195l0.437-0.437
		l0.767-0.767c0.58,0.316,1.188,0.569,1.817,0.756v1.082v0.618l0.553,0.276l1.692,0.846l0.447,0.224l0.447-0.224l1.692-0.846
		l0.553-0.276v-0.618v-1.082c0.629-0.187,1.237-0.439,1.817-0.755l0.766,0.767l0.437,0.437l0.586-0.195l1.796-0.598l0.475-0.158
		l0.158-0.474l0.599-1.795l0.195-0.587l-0.437-0.437l-0.768-0.767c0.316-0.58,0.569-1.188,0.755-1.817h1.083h0.618l0.276-0.553
		l0.846-1.692l0.223-0.447l-0.223-0.447l-0.846-1.693l-0.276-0.553h-0.618h-1.083c-0.186-0.63-0.439-1.237-0.756-1.817l0.767-0.767
		l0.436-0.437l-0.195-0.586l-0.597-1.794l-0.158-0.475l-0.475-0.158l-1.796-0.599l-0.587-0.196l-0.437,0.437l-0.766,0.767
		c-0.581-0.316-1.188-0.568-1.816-0.755v-1.082v-0.618l-0.553-0.276l-1.692-0.846L56.056,67.067L56.056,67.067z"/>
	<path fill="#4C4C4C" d="M37,74.999c3.312,0,6,2.687,6,6c0,3.313-2.688,6-6,6c-3.312,0-6-2.687-6-6
		C31,77.686,33.688,74.999,37,74.999 M37,73.999c-3.86,0-7,3.14-7,7c0,3.86,3.14,7,7,7c3.86,0,7-3.14,7-7
		C44,77.14,40.86,73.999,37,73.999L37,73.999z"/>
</g>
<g>
	<rect x="20" y="235" fill="#4C4C4C" width="32" height="1"/>
	<rect x="32" y="243" fill="#4C4C4C" width="17" height="1"/>
	<rect x="32" y="247" fill="#4C4C4C" width="17" height="1"/>
	<rect x="32" y="251" fill="#4C4C4C" width="17" height="1"/>
	<path fill="#4C4C4C" d="M26,227v4h-1v-4H26 M26,226h-1c-0.552,0-1,0.448-1,1v4c0,0.552,0.448,1,1,1h1c0.552,0,1-0.448,1-1v-4
		C27,226.448,26.552,226,26,226L26,226z"/>
	<g>
		<path fill="#4C4C4C" d="M52,229h-5v2h5v25H20v-25h5v-2h-5c-1.104,0-2,0.895-2,2v25c0,1.105,0.896,2,2,2h32c1.104,0,2-0.895,2-2
			v-25C54,229.895,53.104,229,52,229z"/>
		<rect x="26" y="229" fill="#4C4C4C" width="20" height="2"/>
	</g>
	<path fill="#4C4C4C" d="M47,227v4h-1v-4H47 M47,226h-1c-0.552,0-1,0.448-1,1v4c0,0.552,0.448,1,1,1h1c0.552,0,1-0.448,1-1v-4
		C48,226.448,47.552,226,47,226L47,226z"/>
	<path fill="#4C4C4C" d="M26,245.5c-0.128,0-0.256-0.049-0.354-0.146l-3-3c-0.195-0.195-0.195-0.512,0-0.707
		c0.195-0.195,0.512-0.195,0.707,0L26,244.293l5.646-5.646c0.195-0.195,0.512-0.195,0.707,0s0.195,0.512,0,0.707l-6,6
		C26.256,245.451,26.128,245.5,26,245.5z"/>
</g>
</svg>
