<!DOCTYPE svg PUBLIC "-//W3C//DTD SVG 1.1 Tiny//EN" "http://www.w3.org/Graphics/SVG/1.1/DTD/svg11-tiny.dtd">
<svg version="1.1" baseProfile="tiny" xmlns="http://www.w3.org/2000/svg" xmlns:xlink="http://www.w3.org/1999/xlink" x="0px"
	 y="0px" width="110px" height="770px" viewBox="0 0 110 770" overflow="inherit" xml:space="preserve">
<g>
	<path fill="#4C4C4C" d="M92,345H49c-0.552,0-1,0.448-1,1v4h1v-4h43v55h-4v1h4c0.552,0,1-0.448,1-1v-55
		C93,345.448,92.552,345,92,345z"/>
	<path fill="#4C4C4C" d="M88,349H45c-0.552,0-1,0.448-1,1v4h1v-4h43v55h-4v1h4c0.552,0,1-0.448,1-1v-55
		C89,349.448,88.552,349,88,349z"/>
	<path fill="#4C4C4C" d="M84,353H41c-0.552,0-1,0.448-1,1v4h1v-4h43v55h-4v1h4c0.552,0,1-0.448,1-1v-55
		C85,353.448,84.552,353,84,353z"/>
	<path fill="#4C4C4C" d="M80,357H37c-0.552,0-1,0.448-1,1v7h1v-7h43v55h-6v1h6c0.552,0,1-0.448,1-1v-55
		C81,357.448,80.552,357,80,357z"/>
	<path fill="#4C4C4C" d="M67,375.5c-0.223,0-0.423-0.148-0.482-0.368l-3-11c-0.059-0.215,0.031-0.442,0.222-0.559
		c0.188-0.115,0.434-0.094,0.597,0.057l11,10c0.145,0.132,0.199,0.335,0.141,0.521c-0.059,0.186-0.221,0.32-0.414,0.345l-8,1
		C67.041,375.499,67.021,375.5,67,375.5z M64.935,365.525l2.434,8.925l6.491-0.811L64.935,365.525z"/>
	<rect x="35" y="383" fill="#4C4C4C" width="27" height="1"/>
	<rect x="35" y="387" fill="#4C4C4C" width="32" height="1"/>
	<rect x="35" y="391" fill="#4C4C4C" width="15" height="1"/>
	<path fill="#4C4C4C" d="M75.345,373.52l-11-10C63.977,363.185,63.498,363,63,363H31c-1.104,0-2,0.895-2,2v55c0,1.105,0.896,2,2,2
		h28.8l0.267-2H31v-55h32l1.692,1.539L64,364l11,10l-1.846,0.231L74,375v45h-8.066l0.267,2H74c1.104,0,2-0.895,2-2v-45
		C76,374.436,75.762,373.899,75.345,373.52z"/>
	<path fill="#4C4C4C" d="M65.284,415.129L67,428l-4-3l-4,3l1.716-12.87l-1.167,1.184l-1.541,11.554
		c-0.053,0.399,0.138,0.791,0.486,0.995C58.651,428.955,58.826,429,59,429c0.212,0,0.423-0.067,0.6-0.2l3.4-2.55l3.4,2.55
		c0.177,0.133,0.388,0.2,0.6,0.2c0.174,0,0.349-0.045,0.505-0.137c0.348-0.204,0.539-0.596,0.486-0.995l-1.541-11.555
		L65.284,415.129z"/>
	<path fill="#4C4C4C" d="M64.531,419c-0.534,0-1.009-0.32-1.21-0.815l-0.32-0.788l-0.318,0.788c-0.234,0.579-0.843,0.918-1.466,0.79
		c-0.615-0.121-1.057-0.665-1.051-1.292l0.005-0.851l-0.598,0.608c-0.44,0.446-1.138,0.516-1.655,0.17
		c-0.522-0.35-0.723-1.021-0.478-1.597l0.33-0.782l-0.782,0.331c-0.58,0.244-1.249,0.041-1.596-0.477
		c-0.347-0.52-0.275-1.217,0.17-1.657l0.605-0.598l-0.852,0.007c-0.629,0-1.168-0.441-1.291-1.051
		c-0.121-0.618,0.212-1.233,0.792-1.467L55.604,410l-0.789-0.32c-0.578-0.233-0.91-0.85-0.791-1.463
		c0.124-0.611,0.663-1.053,1.283-1.053l0.861,0.006l-0.606-0.597c-0.445-0.439-0.517-1.137-0.17-1.657
		c0.349-0.521,1.021-0.721,1.596-0.476l0.782,0.33l-0.331-0.783c-0.244-0.575-0.043-1.246,0.478-1.595
		c0.519-0.348,1.215-0.277,1.655,0.168l0.599,0.608l-0.005-0.853c-0.006-0.623,0.436-1.166,1.051-1.289
		c0.604-0.12,1.229,0.211,1.465,0.788l0.319,0.79l0.321-0.789c0.231-0.577,0.842-0.905,1.462-0.79
		c0.618,0.125,1.06,0.668,1.054,1.293l-0.007,0.848l0.596-0.605c0.44-0.444,1.138-0.514,1.656-0.171
		c0.521,0.35,0.723,1.021,0.479,1.597l-0.331,0.784l0.782-0.332c0.575-0.241,1.247-0.043,1.596,0.477
		c0.347,0.52,0.275,1.218-0.169,1.657l-0.606,0.598l0.851-0.006c0.628,0.003,1.168,0.444,1.291,1.049
		c0.12,0.617-0.212,1.232-0.79,1.467L70.397,410l0.788,0.32c0.578,0.232,0.911,0.849,0.79,1.463
		c-0.12,0.591-0.624,1.013-1.255,1.053l-0.887-0.006l0.606,0.599c0.444,0.438,0.516,1.135,0.169,1.655
		c-0.347,0.519-1.018,0.72-1.594,0.478l-0.784-0.332l0.331,0.784c0.243,0.575,0.042,1.246-0.478,1.594
		c-0.522,0.348-1.217,0.273-1.656-0.167l-0.598-0.606l0.007,0.849c0.006,0.625-0.437,1.169-1.052,1.291
		C64.693,418.991,64.614,419,64.531,419z M63,415.567c0.203,0,0.387,0.123,0.463,0.311l0.785,1.93
		c0.056,0.137,0.201,0.217,0.351,0.184c0.137-0.027,0.241-0.153,0.239-0.3l-0.016-2.083c-0.002-0.204,0.12-0.388,0.309-0.466
		c0.184-0.078,0.404-0.035,0.548,0.111l1.461,1.483c0.103,0.104,0.268,0.121,0.391,0.038c0.12-0.08,0.168-0.237,0.11-0.373
		l-0.811-1.919c-0.079-0.188-0.036-0.404,0.107-0.548c0.144-0.143,0.359-0.186,0.549-0.107l1.918,0.811
		c0.132,0.059,0.291,0.009,0.374-0.112c0.081-0.121,0.064-0.285-0.04-0.388l-1.483-1.464c-0.145-0.143-0.188-0.359-0.11-0.547
		c0.077-0.187,0.26-0.309,0.462-0.309c0.001,0,0.003,0,0.004,0l2.082,0.016c0.032-0.003,0.259-0.034,0.303-0.249
		c0.028-0.142-0.05-0.286-0.185-0.341l-1.931-0.784c-0.188-0.076-0.312-0.26-0.312-0.463s0.123-0.387,0.312-0.463l1.929-0.783
		c0.137-0.056,0.214-0.201,0.187-0.346c-0.03-0.148-0.185-0.243-0.31-0.244l-2.075,0.015c-0.002,0-0.003,0-0.004,0
		c-0.202,0-0.385-0.122-0.462-0.309c-0.078-0.188-0.034-0.404,0.11-0.548l1.482-1.462c0.104-0.103,0.122-0.268,0.04-0.39
		c-0.08-0.122-0.239-0.166-0.373-0.111l-1.918,0.812c-0.19,0.078-0.405,0.036-0.549-0.107c-0.144-0.144-0.187-0.36-0.107-0.548
		l0.811-1.919c0.058-0.136,0.01-0.294-0.112-0.376c-0.122-0.079-0.287-0.062-0.391,0.042l-1.459,1.481
		c-0.144,0.147-0.362,0.189-0.548,0.111c-0.188-0.078-0.311-0.262-0.309-0.466l0.016-2.082c0.002-0.146-0.103-0.273-0.248-0.303
		c-0.142-0.028-0.288,0.052-0.341,0.184l-0.786,1.933c-0.076,0.188-0.26,0.311-0.463,0.311l0,0c-0.204,0-0.387-0.124-0.464-0.312
		l-0.781-1.931c-0.056-0.137-0.193-0.212-0.345-0.185c-0.142,0.029-0.246,0.155-0.244,0.301l0.012,2.086
		c0.001,0.203-0.121,0.388-0.31,0.465c-0.186,0.078-0.403,0.035-0.547-0.111l-1.461-1.484c-0.101-0.102-0.264-0.119-0.388-0.039
		c-0.122,0.082-0.169,0.239-0.112,0.374l0.81,1.919c0.079,0.188,0.036,0.404-0.107,0.548c-0.145,0.145-0.36,0.185-0.548,0.107
		l-1.917-0.81c-0.136-0.057-0.293-0.011-0.374,0.111c-0.082,0.121-0.064,0.285,0.04,0.389l1.483,1.462
		c0.145,0.143,0.188,0.359,0.11,0.548c-0.077,0.187-0.26,0.309-0.462,0.309c0,0-0.002,0-0.004,0l-2.084-0.015
		c-0.146,0-0.273,0.104-0.303,0.247c-0.028,0.143,0.05,0.287,0.185,0.342l1.931,0.784c0.188,0.076,0.312,0.26,0.312,0.463
		s-0.123,0.387-0.312,0.463l-1.93,0.783c-0.137,0.056-0.215,0.2-0.187,0.346c0.029,0.143,0.153,0.245,0.302,0.245l2.085-0.016
		c0.001,0,0.003,0,0.003,0c0.203,0,0.386,0.122,0.463,0.309c0.078,0.188,0.034,0.404-0.11,0.548l-1.482,1.462
		c-0.105,0.104-0.122,0.268-0.041,0.39c0.08,0.121,0.237,0.166,0.376,0.111l1.914-0.81c0.188-0.083,0.404-0.037,0.549,0.106
		c0.144,0.144,0.187,0.36,0.107,0.548l-0.81,1.919c-0.058,0.136-0.011,0.292,0.112,0.375c0.119,0.08,0.284,0.062,0.388-0.041
		l1.46-1.483c0.144-0.146,0.36-0.188,0.547-0.111c0.188,0.077,0.311,0.262,0.31,0.465l-0.012,2.083
		c-0.002,0.148,0.102,0.275,0.245,0.304c0.153,0.029,0.289-0.049,0.344-0.184l0.781-1.931C62.613,415.691,62.796,415.567,63,415.567
		L63,415.567z M63.701,414.022c-0.178,0-0.345-0.095-0.435-0.253c-0.051-0.09-0.175-0.121-0.266-0.121l0,0
		c-0.092,0-0.217,0.032-0.268,0.122c-0.108,0.188-0.326,0.286-0.534,0.242c-0.211-0.043-0.371-0.217-0.396-0.431
		c-0.014-0.106-0.084-0.199-0.185-0.241c-0.108-0.045-0.22-0.028-0.311,0.043c-0.172,0.13-0.407,0.137-0.583,0.017
		c-0.179-0.12-0.26-0.34-0.203-0.547c0.029-0.106,0-0.221-0.078-0.3c-0.076-0.075-0.193-0.104-0.3-0.076
		c-0.21,0.056-0.429-0.027-0.547-0.207c-0.119-0.179-0.109-0.415,0.023-0.584c0.067-0.086,0.083-0.202,0.041-0.304
		c-0.042-0.1-0.136-0.172-0.244-0.186c-0.214-0.026-0.387-0.187-0.429-0.398c-0.042-0.212,0.056-0.427,0.244-0.533
		c0.095-0.054,0.154-0.155,0.154-0.266c0-0.109-0.06-0.211-0.154-0.266c-0.188-0.105-0.286-0.32-0.244-0.532
		c0.042-0.212,0.215-0.372,0.429-0.398c0.107-0.014,0.201-0.086,0.245-0.189c0.041-0.099,0.025-0.215-0.042-0.301
		c-0.133-0.169-0.143-0.405-0.023-0.584c0.118-0.18,0.338-0.264,0.547-0.207c0.11,0.028,0.224-0.002,0.305-0.081
		c0.072-0.074,0.103-0.189,0.073-0.295c-0.057-0.208,0.025-0.429,0.204-0.548c0.181-0.121,0.415-0.111,0.585,0.02
		c0.088,0.069,0.204,0.083,0.31,0.041c0.098-0.041,0.169-0.134,0.183-0.241c0.025-0.214,0.186-0.388,0.396-0.431
		c0.209-0.044,0.426,0.054,0.533,0.242c0.111,0.191,0.425,0.19,0.534,0.001c0.106-0.187,0.329-0.286,0.53-0.243
		c0.211,0.041,0.372,0.212,0.4,0.426c0.014,0.11,0.086,0.205,0.188,0.247c0.1,0.041,0.217,0.025,0.306-0.042
		c0.17-0.131,0.404-0.138,0.584-0.021c0.178,0.12,0.261,0.34,0.204,0.547c-0.029,0.107,0.002,0.222,0.081,0.301
		c0.075,0.075,0.188,0.105,0.295,0.078c0.204-0.06,0.428,0.023,0.549,0.203c0.12,0.179,0.112,0.414-0.02,0.585
		c-0.068,0.087-0.084,0.203-0.042,0.303c0.043,0.104,0.137,0.176,0.246,0.189c0.213,0.028,0.385,0.188,0.426,0.399
		c0.042,0.211-0.056,0.425-0.242,0.531c-0.097,0.055-0.156,0.156-0.156,0.266c0,0.108,0.062,0.213,0.156,0.267
		c0.187,0.107,0.284,0.321,0.242,0.532c-0.042,0.211-0.214,0.371-0.427,0.398c-0.109,0.014-0.202,0.085-0.244,0.186
		c-0.043,0.103-0.027,0.219,0.041,0.306c0.132,0.17,0.14,0.406,0.02,0.585c-0.118,0.179-0.339,0.264-0.548,0.203
		c-0.104-0.025-0.217,0.002-0.297,0.079c-0.078,0.078-0.109,0.193-0.08,0.3c0.057,0.207-0.026,0.427-0.204,0.547
		c-0.18,0.118-0.414,0.11-0.584-0.021c-0.087-0.067-0.206-0.083-0.305-0.041c-0.102,0.042-0.175,0.136-0.188,0.246
		c-0.028,0.214-0.19,0.385-0.4,0.426C63.765,414.02,63.732,414.022,63.701,414.022z M63.001,412.648c0.001,0,0.001,0,0.002,0
		c0.186,0,0.364,0.036,0.527,0.103c0.129-0.144,0.289-0.259,0.473-0.334c0.176-0.074,0.354-0.11,0.548-0.099
		c0.064-0.174,0.166-0.335,0.301-0.47c0.135-0.135,0.295-0.236,0.468-0.301c-0.006-0.186,0.026-0.373,0.101-0.549
		c0.072-0.175,0.181-0.328,0.315-0.454c-0.078-0.168-0.12-0.353-0.12-0.545s0.042-0.377,0.12-0.545
		c-0.135-0.126-0.244-0.281-0.316-0.457c-0.074-0.175-0.106-0.361-0.1-0.546c-0.173-0.064-0.333-0.166-0.468-0.301
		c-0.135-0.136-0.236-0.296-0.301-0.47c-0.188,0.007-0.374-0.025-0.55-0.098c-0.176-0.073-0.33-0.183-0.456-0.318
		c-0.335,0.154-0.751,0.154-1.088,0c-0.126,0.136-0.28,0.245-0.456,0.318c-0.179,0.071-0.368,0.103-0.55,0.097
		c-0.063,0.173-0.163,0.333-0.296,0.468c-0.138,0.135-0.299,0.236-0.473,0.301c0.008,0.185-0.024,0.372-0.098,0.549
		c-0.074,0.177-0.184,0.331-0.318,0.457c0.078,0.168,0.12,0.353,0.12,0.545s-0.042,0.377-0.119,0.545
		c0.134,0.125,0.243,0.279,0.316,0.454c0.073,0.178,0.105,0.365,0.099,0.551c0.172,0.064,0.332,0.163,0.467,0.296
		c0.135,0.137,0.236,0.298,0.301,0.472c0.189-0.009,0.373,0.026,0.55,0.1c0.184,0.076,0.344,0.191,0.472,0.334
		C62.635,412.685,62.814,412.648,63.001,412.648z"/>
</g>
<g>
	<path fill="#4C4C4C" d="M35,603.838V590c0-12.682,10.318-23,23-23s23,10.318,23,23v3.153l-4,0.667v-0.202l1.447-0.724
		c0.288-0.144,0.488-0.417,0.54-0.734c0.051-0.317-0.053-0.64-0.28-0.867l-1.711-1.712C76.772,579.297,68.336,571,58,571
		c-10.477,0-19,8.523-19,19v12.5c0.311-0.078,0.649-0.151,1-0.223V590c0-9.941,8.059-18,18-18s18,8.059,18,18l2,2l-2,1v2l6-1v-4
		c0-13.255-10.745-24-24-24c-13.256,0-24,10.745-24,24v14.329C34.302,604.165,34.634,604.001,35,603.838z"/>
	<path fill="#4C4C4C" d="M58,601c7.5,0,15,0.5,19,1.5c8,2,8,5,8,5V636l-3,3H34l-3-3v-28.5c0,0,0-3,8-5C43,601.5,50.5,601,58,601
		 M58,599c-8.294,0-15.579,0.583-19.485,1.56c-3.675,0.919-6.342,2.189-7.929,3.776C29.114,605.807,29,607.13,29,607.5V636
		c0,0.53,0.211,1.039,0.586,1.414l3,3C32.961,640.789,33.47,641,34,641h48c0.53,0,1.039-0.211,1.414-0.586l3-3
		C86.789,637.039,87,636.53,87,636v-28.5c0-0.37-0.114-1.693-1.586-3.164c-1.587-1.587-4.254-2.858-7.929-3.776
		C73.579,599.583,66.294,599,58,599L58,599z"/>
	<g>
		<path fill="#4C4C4C" d="M58.5,608c6.902,0,12.5,5.597,12.5,12.5c0,6.904-5.598,12.5-12.5,12.5c-6.904,0-12.5-5.596-12.5-12.5
			C46,613.597,51.596,608,58.5,608 M58.5,607c-7.444,0-13.5,6.056-13.5,13.5S51.056,634,58.5,634S72,627.944,72,620.5
			S65.944,607,58.5,607L58.5,607z"/>
	</g>
	<path fill="#4C4C4C" d="M58.5,614c3.591,0,6.5,2.91,6.5,6.5c0,3.59-2.909,6.5-6.5,6.5c-3.59,0-6.5-2.91-6.5-6.5
		C52,616.91,54.91,614,58.5,614 M57,625h3l-1-5c0.729-0.298,1.5-1.226,1.5-2.062c0-1.104-0.896-2-2-2c-1.105,0-2,0.896-2,2
		c0,0.837,0.77,1.765,1.5,2.062L57,625 M58.5,613c-4.136,0-7.5,3.365-7.5,7.5s3.364,7.5,7.5,7.5s7.5-3.365,7.5-7.5
		S62.636,613,58.5,613L58.5,613z M58.5,619.124l-0.122-0.05c-0.418-0.171-0.878-0.765-0.878-1.137c0-0.551,0.449-1,1-1s1,0.449,1,1
		c0,0.371-0.46,0.966-0.878,1.137L58.5,619.124L58.5,619.124z M58.22,624l0.28-1.401L58.78,624H58.22L58.22,624z"/>
</g>
<g>
	<path fill="#4C4C4C" d="M92,37.025v15.949c2.789-0.26,5-3.726,5-7.975C97,40.751,94.789,37.285,92,37.025z"/>
	<path fill-rule="evenodd" fill="#4C4C4C" d="M106,45c0,5.81-2.36,11.068-6.174,14.87l0.807,0.606C104.568,56.501,107,51.035,107,45
		s-2.432-11.501-6.367-15.476l-0.807,0.606C103.64,33.933,106,39.19,106,45z"/>
	<path fill-rule="evenodd" fill="#4C4C4C" d="M101,45c0,4.684-2.15,8.864-5.514,11.615l0.82,0.614C99.785,54.295,102,49.908,102,45
		s-2.215-9.295-5.693-12.229l-0.82,0.614C98.85,36.136,101,40.316,101,45z"/>
	<g>
		<path fill="#4C4C4C" d="M42.794,84.219L39.054,73l0.895-2.684c0.078-0.232,0.067-0.485-0.03-0.71l-0.458-1.068L38.7,69.3L39,70
			l-1,3l4,12c0,0,3,1,3,2c-3,6-9,7-9,7c-2,0-1-3-1-3l-4.998-10c0,0-1-3-4-4c-1.954-0.651,2-14-5.002-17h15v-1H21
			c-0.475,0-0.884,0.334-0.979,0.799c-0.096,0.465,0.149,0.933,0.586,1.12c3.965,1.699,3.865,7.533,3.791,11.792
			c-0.052,2.981-0.082,4.78,1.289,5.237c2.497,0.832,3.359,3.342,3.367,3.368c0.015,0.045,0.033,0.089,0.054,0.131l4.824,9.652
			c-0.181,0.724-0.396,2.111,0.28,3.049C34.491,94.537,35.029,95,36,95c0.055,0,0.11-0.005,0.165-0.013
			c0.265-0.044,6.539-1.157,9.73-7.539C45.964,87.308,46,87.155,46,87C46,85.711,44.354,84.796,42.794,84.219z"/>
		<path fill="#4C4C4C" d="M37.701,61.061l0.227-0.681c0.048-0.117,0.075-0.245,0.075-0.38c0-0.552-0.445-1-0.997-1H37h-0.444
			L37.701,61.061z"/>
	</g>
	<path fill="#4C4C4C" d="M13.435,57H11c-2.76,0-5-5.373-5-12s2.24-12,5-12h2.435c0.229-0.384,0.467-0.721,0.717-1H11
		c-3.42,0-6,5.589-6,13s2.58,13,6,13h3.152C13.902,57.721,13.664,57.384,13.435,57z"/>
	<path fill="#4C4C4C" d="M41.874,66.514L37.699,59h-1.144L41,67l-3,3l-2-6v-5h-1v5c0,0.107,0.017,0.214,0.051,0.316l2,6
		c0.11,0.329,0.382,0.577,0.719,0.657C37.846,70.991,37.923,71,38,71c0.262,0,0.518-0.103,0.707-0.293l3-3
		C42.023,67.391,42.091,66.905,41.874,66.514z"/>
	<path fill="#4C4C4C" d="M92.783,11.159C92.53,11.052,92.264,11,92.001,11c-0.508,0-1.008,0.193-1.388,0.56
		c-0.581,0.56-1.17,1.137-1.77,1.725C80.788,21.177,70.764,31,46,31h-5c-0.938,0-1.814,0.739-2.565,2H46c27.43,0,37.43-11.742,46-20
		v64c-8.57-8.254-18.57-20-46-20h-7.565c0.751,1.262,1.626,2,2.565,2h5c24.757,0,34.781,9.82,42.836,17.71
		c0.602,0.59,1.193,1.168,1.777,1.731c0.38,0.366,0.88,0.559,1.388,0.559c0.264,0,0.53-0.052,0.782-0.16
		C93.521,78.527,94,77.802,94,77V13C94,12.198,93.521,11.473,92.783,11.159z"/>
	<path fill="#4C4C4C" d="M41,31h0.005 M41,31c-2.76,0-5,6.268-5,14s2.24,14,5,14H16c-2.76,0-5-6.268-5-14s2.24-14,5-14H41
		 M41.005,30H41H16c-3.897,0-6,7.728-6,15s2.103,15,6,15h25c0.552,0,1-0.448,1-1s-0.448-1-1-1c-1.631,0-4-5.064-4-13s2.369-13,4-13
		c0.552,0,1.002-0.448,1.002-1S41.557,30,41.005,30L41.005,30z"/>
	<path fill="#4C4C4C" d="M33,37h0.005 M33,37c-0.37,1.483-0.64,3.174-0.783,5H15c0.143-1.826,0.412-3.517,0.782-5H33 M33.005,36H33
		H15.782c-0.459,0-0.859,0.312-0.97,0.758c-0.392,1.57-0.664,3.307-0.809,5.164c-0.022,0.278,0.074,0.552,0.263,0.757
		C14.455,42.884,14.721,43,15,43h17.217c0.522,0,0.956-0.401,0.997-0.922c0.135-1.722,0.384-3.327,0.74-4.77
		c0.031-0.097,0.048-0.201,0.048-0.308C34.002,36.448,33.557,36,33.005,36L33.005,36z"/>
	<path fill="#4C4C4C" d="M20,49c1.104,0,2,0.896,2,2s-0.896,2-2,2s-2-0.896-2-2S18.896,49,20,49 M20,47c-2.206,0-4,1.794-4,4
		s1.794,4,4,4s4-1.794,4-4S22.206,47,20,47L20,47z"/>
</g>
<g>
	<rect x="57" y="249" fill="#4C4C4C" width="18" height="1"/>
	<rect x="57" y="253" fill="#4C4C4C" width="12" height="1"/>
	<rect x="57" y="245" fill="#4C4C4C" width="10" height="1"/>
	<path fill="#4C4C4C" d="M81,234.001H54c-1.104,0-2,0.895-2,2V270c0,1.105,0.896,2,2,2h14v-2H54v-34h27v34h-5v2h5
		c1.104,0,2-0.895,2-2v-33.999C83,234.896,82.104,234.001,81,234.001z"/>
	<path fill="#4C4C4C" d="M75.071,267.893l0.659,0.661l-0.195,0.982l-0.52,0.058L75,276.479l-2.497-1.374
		c-0.141-0.07-0.294-0.106-0.447-0.106c-0.153,0-0.307,0.035-0.447,0.106l-2.605,1.395L69,269.417l-0.535,0.119l-0.197-0.982
		l0.661-0.661c-0.169-0.274-0.294-0.577-0.385-0.893H68v11l4.056-2L76,278v-11h-0.544C75.365,267.316,75.24,267.618,75.071,267.893z
		"/>
	<path fill="#4C4C4C" d="M72.101,271.499c-0.097,0-0.193-0.028-0.277-0.084l-0.834-0.556c-0.139-0.093-0.223-0.249-0.223-0.416
		v-0.559c-0.161-0.055-0.318-0.12-0.471-0.195l-0.396,0.395c-0.117,0.118-0.286,0.172-0.451,0.137l-0.981-0.196
		c-0.198-0.039-0.353-0.194-0.393-0.392l-0.197-0.982c-0.033-0.164,0.019-0.334,0.137-0.452l0.396-0.395
		c-0.075-0.153-0.141-0.311-0.195-0.471h-0.558c-0.167,0-0.323-0.084-0.416-0.223l-0.556-0.834c-0.112-0.168-0.112-0.387,0-0.555
		l0.556-0.833c0.093-0.139,0.249-0.223,0.416-0.223h0.558c0.055-0.16,0.12-0.318,0.195-0.472l-0.396-0.395
		c-0.118-0.118-0.17-0.288-0.137-0.452l0.197-0.982c0.04-0.197,0.194-0.353,0.393-0.392l0.981-0.196
		c0.16-0.036,0.333,0.019,0.451,0.137l0.396,0.395c0.152-0.075,0.31-0.141,0.471-0.195v-0.559c0-0.167,0.084-0.323,0.223-0.416
		l0.834-0.556c0.168-0.111,0.387-0.111,0.555,0l0.833,0.556c0.139,0.093,0.223,0.249,0.223,0.416v0.559
		c0.16,0.055,0.317,0.12,0.472,0.195l0.395-0.395c0.119-0.118,0.291-0.171,0.451-0.137l0.982,0.196
		c0.198,0.039,0.354,0.194,0.393,0.393l0.195,0.982c0.032,0.164-0.019,0.333-0.137,0.451l-0.394,0.395
		c0.074,0.153,0.14,0.311,0.195,0.472h0.559c0.167,0,0.323,0.084,0.416,0.223l0.556,0.834c0.112,0.168,0.112,0.387,0,0.555
		l-0.556,0.833c-0.093,0.139-0.249,0.223-0.416,0.223h-0.559c-0.056,0.161-0.121,0.318-0.195,0.471l0.394,0.395
		c0.118,0.118,0.169,0.287,0.137,0.451l-0.195,0.982c-0.039,0.198-0.194,0.354-0.393,0.393l-0.982,0.196
		c-0.165,0.033-0.333-0.019-0.451-0.137l-0.395-0.395c-0.154,0.075-0.311,0.141-0.472,0.195v0.559c0,0.167-0.084,0.323-0.223,0.416
		l-0.833,0.556C72.294,271.471,72.197,271.499,72.101,271.499z M71.767,270.176l0.334,0.223l0.333-0.223v-0.666
		c0-0.232,0.159-0.434,0.385-0.486c0.319-0.076,0.627-0.203,0.913-0.379c0.196-0.122,0.45-0.093,0.615,0.072l0.471,0.471
		l0.393-0.078l0.079-0.394l-0.471-0.471c-0.164-0.164-0.193-0.419-0.072-0.616c0.174-0.282,0.302-0.589,0.379-0.912
		c0.054-0.225,0.255-0.384,0.486-0.384h0.666L76.5,266l-0.223-0.334h-0.666c-0.231,0-0.433-0.159-0.486-0.384
		c-0.077-0.323-0.204-0.631-0.379-0.913c-0.121-0.197-0.092-0.452,0.072-0.616l0.471-0.471l-0.079-0.393l-0.393-0.078l-0.471,0.471
		c-0.165,0.163-0.419,0.193-0.615,0.072c-0.286-0.176-0.594-0.303-0.913-0.379c-0.226-0.053-0.385-0.255-0.385-0.486v-0.666
		l-0.333-0.223l-0.334,0.223v0.666c0,0.231-0.159,0.434-0.385,0.486c-0.321,0.076-0.627,0.203-0.911,0.379
		c-0.195,0.121-0.451,0.094-0.616-0.072l-0.472-0.471l-0.393,0.078l-0.079,0.393l0.472,0.471c0.164,0.163,0.193,0.419,0.072,0.616
		c-0.176,0.284-0.303,0.592-0.379,0.912c-0.053,0.225-0.255,0.385-0.486,0.385h-0.666l-0.223,0.333l0.223,0.334h0.666
		c0.231,0,0.434,0.159,0.486,0.385c0.076,0.32,0.203,0.627,0.379,0.911c0.121,0.197,0.092,0.453-0.072,0.616l-0.472,0.471
		l0.079,0.394l0.393,0.078l0.472-0.471c0.165-0.165,0.421-0.192,0.616-0.072c0.284,0.176,0.59,0.303,0.911,0.379
		c0.226,0.053,0.385,0.255,0.385,0.486V270.176z"/>
	<g>
		<polygon fill="#4C4C4C" points="42,310 28,310 28,308 42,308 42,307 27,307 27,311 42,311 		"/>
		<polygon fill="#4C4C4C" points="68,307 68,308 82,308 82,310 68,310 68,311 83,311 83,307 		"/>
	</g>
	<path fill="#4C4C4C" d="M68,306v6H42v-6H68 M68,305H42c-0.552,0-1,0.448-1,1v6c0,0.552,0.448,1,1,1h26c0.552,0,1-0.448,1-1v-6
		C69,305.448,68.552,305,68,305L68,305z"/>
	<g>
		<polygon fill="#4C4C4C" points="49.78,294 47.38,306 48.4,306 50.8,294 		"/>
		<polygon fill="#4C4C4C" points="59.2,294 61.6,306 62.62,306 60.22,294 		"/>
	</g>
	<polygon fill="#4C4C4C" points="81,243 81,245 91,245 91,282 19,282 19,245 54,245 54,243 17,243 17,284 93,284 93,243 	"/>
	<path fill="#4C4C4C" d="M92,243H81v1h11v50H18v-50h36v-1H18c-0.552,0-1,0.448-1,1v50c0,0.552,0.448,1,1,1h74c0.552,0,1-0.448,1-1
		v-50C93,243.448,92.552,243,92,243z"/>
</g>
<g>
	<path fill="#4C4C4C" d="M72,475.5c-0.215,0-0.412-0.139-0.478-0.353l-4-13c-0.066-0.216,0.02-0.449,0.21-0.57
		c0.192-0.12,0.438-0.099,0.605,0.055l12,11c0.136,0.124,0.192,0.312,0.146,0.491c-0.045,0.179-0.185,0.317-0.363,0.362l-8,2
		C72.081,475.495,72.04,475.5,72,475.5z M69.02,463.612l3.319,10.788l6.638-1.66L69.02,463.612z"/>
	<rect x="36.002" y="474" fill="#4C4C4C" width="27" height="1"/>
	<rect x="36" y="478" fill="#4C4C4C" width="22" height="1"/>
	<rect x="36" y="482" fill="#4C4C4C" width="32" height="1"/>
	<rect x="36" y="486" fill="#4C4C4C" width="32" height="1"/>
	<rect x="36" y="490" fill="#4C4C4C" width="17" height="1"/>
	<path fill="#4C4C4C" d="M80.352,472.526l-12-11C67.982,461.188,67.501,461,67,461H31c-1.104,0-2,0.895-2,2v64c0,1.105,0.896,2,2,2
		h31.059l0.235-2H31v-64h36l1.821,1.67L68,462l12,11l-1.643,0.411L79,474v53h-9.294l0.235,2H79c1.104,0,2-0.895,2-2v-53
		C81,473.439,80.765,472.905,80.352,472.526z"/>
	<path fill="#4C4C4C" d="M69.315,523.679L71,538l-5-3l-5,3l1.549-13.169l-0.501,0.508c-0.165,0.167-0.378,0.258-0.598,0.276
		l-1.443,12.267c-0.044,0.379,0.13,0.75,0.45,0.957C60.622,538.946,60.811,539,61,539c0.178,0,0.356-0.047,0.515-0.143L66,536.166
		l4.485,2.691C70.644,538.953,70.822,539,71,539c0.189,0,0.378-0.054,0.543-0.16c0.32-0.207,0.495-0.578,0.45-0.957l-1.535-13.043
		L69.315,523.679z"/>
	<path fill="#4C4C4C" d="M68.3,527.5c-0.594,0-1.121-0.356-1.343-0.905l-0.457-1.127l-0.457,1.128
		c-0.26,0.644-0.942,1.018-1.626,0.876c-0.68-0.134-1.171-0.735-1.166-1.43l0.008-1.22l-0.854,0.868
		c-0.488,0.494-1.26,0.573-1.836,0.188c-0.579-0.387-0.801-1.131-0.529-1.77l0.474-1.122l-1.122,0.475
		c-0.636,0.271-1.382,0.048-1.768-0.529c-0.388-0.576-0.309-1.35,0.188-1.838l0.866-0.854l-1.219,0.009
		c-0.697,0-1.297-0.49-1.432-1.167c-0.134-0.681,0.234-1.364,0.876-1.625L58.032,517l-1.128-0.458
		c-0.642-0.26-1.012-0.943-0.877-1.624c0.135-0.677,0.733-1.167,1.422-1.167l1.229,0.009l-0.866-0.855
		c-0.495-0.488-0.574-1.261-0.188-1.838c0.386-0.576,1.129-0.798,1.769-0.529l1.121,0.475l-0.475-1.122
		c-0.271-0.64-0.048-1.384,0.529-1.768c0.578-0.385,1.35-0.306,1.836,0.186l0.855,0.869l-0.008-1.22
		c-0.005-0.694,0.486-1.296,1.167-1.43c0.682-0.133,1.362,0.234,1.624,0.874l0.458,1.13l0.458-1.129
		c0.261-0.642,0.952-1.009,1.623-0.875c0.683,0.134,1.174,0.736,1.168,1.432l-0.009,1.216l0.854-0.866
		c0.489-0.494,1.26-0.573,1.838-0.187c0.575,0.382,0.799,1.125,0.53,1.767l-0.475,1.122l1.12-0.474
		c0.636-0.268,1.384-0.047,1.77,0.529c0.386,0.579,0.306,1.351-0.188,1.837l-0.867,0.856l1.218-0.009
		c0.687,0.005,1.299,0.506,1.432,1.165c0.135,0.683-0.234,1.366-0.877,1.627L74.968,517l1.128,0.458
		c0.642,0.261,1.01,0.944,0.876,1.624c-0.132,0.654-0.692,1.123-1.396,1.167l-1.253-0.009l0.868,0.857
		c0.493,0.485,0.572,1.258,0.188,1.835c-0.387,0.577-1.135,0.796-1.771,0.53l-1.121-0.475l0.476,1.123
		c0.269,0.641,0.045,1.384-0.531,1.768c-0.575,0.385-1.349,0.306-1.836-0.188l-0.854-0.867l0.009,1.216
		c0.006,0.695-0.485,1.298-1.167,1.432C68.494,527.49,68.398,527.5,68.3,527.5z M66.5,523.638c0.203,0,0.387,0.123,0.463,0.312
		l0.922,2.271c0.079,0.196,0.31,0.306,0.501,0.272c0.215-0.043,0.366-0.229,0.364-0.444l-0.018-2.448
		c-0.001-0.204,0.121-0.388,0.309-0.466c0.185-0.077,0.405-0.035,0.548,0.111l1.719,1.744c0.151,0.152,0.39,0.178,0.569,0.058
		c0.179-0.119,0.247-0.35,0.164-0.549l-0.955-2.257c-0.079-0.188-0.036-0.404,0.107-0.548c0.144-0.144,0.362-0.186,0.548-0.108
		l2.256,0.954c0.199,0.086,0.431,0.014,0.551-0.164c0.118-0.178,0.094-0.417-0.059-0.567l-1.745-1.722
		c-0.145-0.143-0.188-0.359-0.11-0.547c0.077-0.186,0.26-0.309,0.462-0.309c0.001,0,0.003,0,0.004,0l2.449,0.019
		c0.163-0.012,0.394-0.113,0.443-0.363c0.041-0.209-0.073-0.422-0.272-0.503l-2.27-0.921c-0.188-0.076-0.312-0.26-0.312-0.463
		s0.123-0.387,0.312-0.463l2.27-0.921c0.199-0.081,0.313-0.293,0.272-0.505c-0.04-0.196-0.242-0.359-0.45-0.36l-2.442,0.018
		c-0.002,0-0.003,0-0.004,0c-0.202,0-0.385-0.122-0.462-0.309c-0.078-0.188-0.034-0.404,0.11-0.547l1.744-1.721
		c0.153-0.151,0.178-0.391,0.059-0.569c-0.119-0.179-0.351-0.25-0.55-0.163l-2.256,0.954c-0.188,0.078-0.404,0.036-0.548-0.108
		c-0.144-0.143-0.187-0.361-0.107-0.549l0.955-2.257c0.083-0.197,0.015-0.428-0.164-0.547c-0.178-0.118-0.419-0.096-0.57,0.058
		l-1.718,1.744c-0.143,0.146-0.359,0.188-0.548,0.111c-0.188-0.078-0.31-0.262-0.309-0.466l0.018-2.449
		c0.002-0.216-0.149-0.401-0.36-0.443c-0.201-0.037-0.423,0.072-0.505,0.273l-0.922,2.27c-0.076,0.188-0.26,0.311-0.463,0.311l0,0
		c-0.204,0-0.387-0.124-0.464-0.312l-0.92-2.271c-0.081-0.2-0.289-0.31-0.504-0.271c-0.21,0.042-0.361,0.228-0.36,0.443l0.017,2.451
		c0.001,0.203-0.121,0.387-0.309,0.465c-0.191,0.076-0.405,0.033-0.548-0.111l-1.72-1.746c-0.148-0.15-0.389-0.177-0.569-0.057
		c-0.178,0.119-0.246,0.349-0.162,0.547l0.953,2.257c0.079,0.188,0.036,0.404-0.107,0.548c-0.145,0.143-0.361,0.185-0.548,0.107
		l-2.256-0.953c-0.199-0.086-0.429-0.015-0.549,0.164c-0.119,0.179-0.095,0.417,0.059,0.568l1.744,1.72
		c0.146,0.144,0.189,0.359,0.111,0.548c-0.077,0.186-0.26,0.309-0.462,0.309c-0.001,0-0.002,0-0.004,0l-2.451-0.018
		c-0.216,0-0.401,0.152-0.443,0.361c-0.041,0.211,0.073,0.423,0.271,0.503l2.271,0.922c0.189,0.076,0.312,0.26,0.312,0.463
		s-0.123,0.387-0.312,0.463l-2.271,0.921c-0.198,0.081-0.312,0.294-0.271,0.505c0.042,0.209,0.229,0.361,0.443,0.361l2.451-0.019
		c0.001,0,0.003,0,0.004,0c0.202,0,0.385,0.122,0.462,0.309c0.078,0.189,0.034,0.404-0.111,0.548l-1.744,1.72
		c-0.153,0.151-0.178,0.39-0.059,0.567c0.12,0.18,0.35,0.251,0.548,0.165l2.257-0.953c0.186-0.08,0.403-0.037,0.548,0.107
		c0.144,0.144,0.187,0.36,0.107,0.548l-0.953,2.257c-0.085,0.198-0.016,0.429,0.163,0.548c0.178,0.12,0.419,0.094,0.569-0.059
		l1.719-1.745c0.143-0.147,0.357-0.189,0.548-0.111c0.188,0.078,0.31,0.262,0.309,0.465l-0.017,2.451
		c-0.001,0.216,0.15,0.401,0.36,0.443c0.215,0.042,0.425-0.072,0.504-0.27l0.92-2.271C66.113,523.762,66.296,523.638,66.5,523.638z
		 M65.675,521.644c-0.032,0-0.064-0.003-0.097-0.01c-0.211-0.041-0.372-0.213-0.399-0.427c-0.021-0.16-0.126-0.299-0.275-0.361
		c-0.135-0.054-0.319-0.036-0.446,0.062c-0.17,0.131-0.404,0.139-0.584,0.021c-0.179-0.12-0.261-0.341-0.204-0.548
		c0.043-0.155-0.002-0.322-0.116-0.438c-0.114-0.112-0.276-0.159-0.438-0.113c-0.201,0.052-0.428-0.029-0.546-0.207
		c-0.118-0.18-0.109-0.415,0.022-0.584c0.1-0.127,0.122-0.298,0.061-0.446c-0.062-0.148-0.199-0.254-0.358-0.273
		c-0.214-0.026-0.386-0.188-0.428-0.398c-0.042-0.212,0.056-0.426,0.243-0.532c0.14-0.079,0.227-0.229,0.227-0.39
		s-0.087-0.31-0.227-0.39c-0.188-0.107-0.285-0.32-0.243-0.532c0.042-0.211,0.214-0.372,0.428-0.398
		c0.159-0.019,0.297-0.125,0.358-0.273c0.062-0.148,0.039-0.319-0.061-0.446c-0.132-0.169-0.141-0.404-0.022-0.584
		c0.118-0.179,0.346-0.258,0.546-0.207c0.164,0.047,0.325,0,0.44-0.115c0.112-0.113,0.157-0.28,0.114-0.435
		c-0.057-0.208,0.026-0.429,0.205-0.548c0.178-0.12,0.415-0.111,0.585,0.021c0.126,0.099,0.3,0.123,0.448,0.06
		c0.146-0.061,0.251-0.199,0.271-0.359c0.027-0.214,0.188-0.386,0.399-0.427c0.215-0.042,0.426,0.057,0.531,0.244
		c0.158,0.277,0.621,0.277,0.779,0c0.106-0.188,0.323-0.286,0.531-0.244c0.211,0.041,0.372,0.213,0.399,0.427
		c0.021,0.16,0.126,0.299,0.275,0.361c0.146,0.061,0.317,0.039,0.444-0.062c0.17-0.133,0.405-0.142,0.584-0.021
		c0.18,0.118,0.263,0.339,0.206,0.547c-0.042,0.156,0.003,0.323,0.116,0.438c0.113,0.113,0.284,0.16,0.436,0.116
		c0.204-0.06,0.428,0.023,0.549,0.203c0.12,0.179,0.112,0.415-0.021,0.585c-0.099,0.128-0.122,0.298-0.061,0.445
		c0.062,0.151,0.199,0.256,0.358,0.275c0.214,0.026,0.386,0.188,0.428,0.398c0.042,0.211-0.056,0.426-0.242,0.532
		c-0.14,0.079-0.227,0.229-0.227,0.39s0.087,0.31,0.227,0.39c0.186,0.107,0.284,0.32,0.242,0.531
		c-0.041,0.211-0.213,0.372-0.427,0.399c-0.159,0.021-0.296,0.125-0.357,0.272c-0.062,0.149-0.039,0.321,0.06,0.448
		c0.133,0.17,0.141,0.405,0.021,0.584c-0.12,0.18-0.341,0.261-0.548,0.205c-0.156-0.041-0.324,0-0.437,0.114
		c-0.114,0.115-0.159,0.282-0.117,0.439c0.057,0.208-0.026,0.428-0.205,0.547c-0.178,0.118-0.413,0.11-0.583-0.021
		c-0.128-0.099-0.301-0.125-0.449-0.061c-0.146,0.061-0.252,0.199-0.272,0.359c-0.027,0.214-0.188,0.386-0.399,0.427
		c-0.208,0.045-0.425-0.056-0.531-0.244c-0.079-0.138-0.252-0.187-0.389-0.188c0,0,0,0-0.001,0c-0.137,0-0.311,0.05-0.39,0.188
		C66.02,521.55,65.853,521.644,65.675,521.644z M64.734,519.815c0.188,0,0.374,0.036,0.551,0.107
		c0.225,0.095,0.418,0.241,0.567,0.422c0.196-0.091,0.417-0.141,0.647-0.141c0.001,0,0.001,0,0.001,0
		c0.23,0.001,0.45,0.05,0.646,0.141c0.148-0.181,0.34-0.326,0.562-0.419c0.216-0.089,0.445-0.128,0.676-0.104
		c0.069-0.217,0.189-0.417,0.354-0.582c0.165-0.166,0.365-0.286,0.582-0.355c-0.019-0.226,0.016-0.457,0.105-0.673
		c0.089-0.215,0.228-0.401,0.399-0.548c-0.104-0.202-0.16-0.428-0.16-0.662c0-0.233,0.057-0.46,0.16-0.662
		c-0.172-0.146-0.31-0.334-0.399-0.55c-0.09-0.215-0.125-0.445-0.106-0.671c-0.216-0.069-0.416-0.19-0.582-0.357
		c-0.164-0.164-0.284-0.364-0.354-0.58c-0.229,0.023-0.458-0.015-0.674-0.105c-0.215-0.091-0.402-0.229-0.548-0.402
		c-0.404,0.209-0.923,0.208-1.325,0.001c-0.146,0.172-0.333,0.311-0.547,0.4c-0.217,0.089-0.448,0.129-0.675,0.104
		c-0.069,0.216-0.189,0.416-0.354,0.581c-0.166,0.165-0.365,0.284-0.581,0.354c0.019,0.227-0.016,0.458-0.105,0.675
		c-0.09,0.216-0.229,0.402-0.4,0.549c0.104,0.202,0.16,0.428,0.16,0.662s-0.057,0.46-0.16,0.662c0.172,0.146,0.311,0.333,0.4,0.549
		c0.09,0.217,0.124,0.448,0.104,0.675c0.216,0.069,0.415,0.188,0.58,0.352c0.165,0.166,0.285,0.366,0.354,0.582
		C64.655,519.816,64.694,519.815,64.734,519.815z"/>
</g>
<g>
	<path fill="#4C4C4C" d="M29,169.914l-1.586,1.586l3.293,3.293c0.391,0.391,0.391,1.024,0,1.414l-3,3
		c-0.195,0.195-0.451,0.293-0.707,0.293s-0.512-0.098-0.707-0.293L23,175.914l-1.586,1.586l3.293,3.293
		c0.391,0.391,0.391,1.024,0,1.414l-3,3c-0.195,0.195-0.451,0.293-0.707,0.293s-0.512-0.098-0.707-0.293L17,181.914l-1.586,1.586
		l3.783,3.783l1.355-0.678c0.142-0.071,0.295-0.106,0.447-0.106c0.26,0,0.516,0.101,0.708,0.293l2,2
		c0.391,0.391,0.391,1.024,0,1.414l-1.137,1.137l1.303,0.869l4.42-4.421c0.189-0.189,0.444-0.293,0.707-0.293
		c0.067,0,0.134,0.007,0.201,0.02c0.329,0.068,0.602,0.296,0.727,0.608l1.437,3.592l5.855-5.855l-3.592-1.437
		c-0.312-0.125-0.541-0.398-0.608-0.727c-0.068-0.329,0.035-0.67,0.272-0.908l4.42-4.42l-0.869-1.303l-1.138,1.137
		c-0.195,0.195-0.451,0.293-0.707,0.293s-0.512-0.098-0.707-0.293l-2-2c-0.304-0.305-0.38-0.77-0.188-1.154l0.678-1.355L29,169.914
		 M29,168.5l5,5l-1,2l2,2l2-2l2,3l-5,5l5,2l-8,8l-2-5l-5,5l-3-2l2-2l-2-2l-2,1l-5-5l3-3l4,4l3-3l-4-4l3-3l4,4l3-3l-4-4L29,168.5
		L29,168.5z"/>
	<path fill="#4C4C4C" d="M72,147.5l-2,4l4,4l4-2L72,147.5 M72,146.5c0.263,0,0.518,0.104,0.707,0.293l6,6
		c0.228,0.227,0.332,0.55,0.28,0.867c-0.052,0.317-0.252,0.59-0.54,0.734l-4,2c-0.142,0.071-0.295,0.106-0.447,0.106
		c-0.26,0-0.516-0.101-0.708-0.293l-4-4c-0.304-0.305-0.38-0.77-0.188-1.154l2-4c0.144-0.287,0.417-0.488,0.734-0.54
		C71.893,146.504,71.947,146.5,72,146.5L72,146.5z"/>
	<circle fill="#4C4C4C" cx="79.28" cy="146.5" r="3"/>
	<path fill="#4C4C4C" d="M91.304,154.403c2.077,0,3.936-0.73,5.306-2.1c1.568-1.568,2.298-3.778,2.054-6.222
		c-0.237-2.369-1.368-4.673-3.184-6.488l-0.141-0.141l-6.574-2.719l-2.718-6.574l-0.141-0.141c-3.816-3.816-9.518-4.323-12.711-1.13
		c-3.193,3.193-2.687,8.896,1.13,12.711l9.574,9.573c1.815,1.816,4.119,2.946,6.488,3.184
		C90.698,154.388,91.003,154.403,91.304,154.403z M94.203,141.146c1.41,1.467,2.285,3.283,2.471,5.135
		c0.184,1.836-0.342,3.472-1.478,4.608c-1.137,1.136-2.77,1.656-4.608,1.478c-1.911-0.191-3.783-1.117-5.273-2.607l-9.574-9.573
		c-3.036-3.036-3.543-7.47-1.13-9.883c2.377-2.377,6.712-1.919,9.744,0.993l2.88,6.969L94.203,141.146z"/>
	<g>
		<path fill="#4C4C4C" d="M83.71,169.914l1.586,1.586l-3.293,3.293c-0.391,0.391-0.391,1.024,0,1.414l3,3
			c0.195,0.195,0.451,0.293,0.707,0.293c0.256,0,0.512-0.098,0.707-0.293l3.293-3.293l1.586,1.586l-3.293,3.293
			c-0.391,0.391-0.391,1.024,0,1.414l3,3c0.195,0.195,0.451,0.293,0.707,0.293c0.256,0,0.512-0.098,0.707-0.293l3.293-3.293
			l1.586,1.586l-3.783,3.783l-1.355-0.678c-0.142-0.071-0.295-0.106-0.447-0.106c-0.26,0-0.516,0.101-0.707,0.293l-2,2
			c-0.391,0.391-0.391,1.024,0,1.414l1.137,1.137l-1.303,0.869l-4.42-4.421c-0.189-0.189-0.444-0.293-0.707-0.293
			c-0.067,0-0.134,0.007-0.201,0.02c-0.329,0.068-0.603,0.296-0.728,0.608l-1.437,3.592l-5.855-5.855l3.592-1.437
			c0.312-0.125,0.541-0.398,0.608-0.727c0.068-0.329-0.035-0.67-0.272-0.908l-4.42-4.42l0.869-1.303l1.138,1.137
			c0.195,0.195,0.451,0.293,0.707,0.293c0.256,0,0.512-0.098,0.707-0.293l2-2c0.304-0.305,0.38-0.77,0.188-1.154l-0.678-1.355
			L83.71,169.914 M83.71,168.5l-5,5l1,2l-2,2l-2-2l-2,3l5,5l-5,2l8,8l2-5l5,5l3-2l-2-2l2-2l2,1l5-5l-3-3l-4,4l-3-3l4-4l-3-3l-4,4
			l-3-3l4-4L83.71,168.5L83.71,168.5z"/>
		<g>
			<polygon fill="#4C4C4C" points="41.857,152.353 74.634,185.13 75.644,184.726 42.564,151.646 			"/>
			<path fill="#4C4C4C" d="M36.564,151.646l-2.354-2.353V147h2.293l2.354,2.353l0.707-0.707l-2.5-2.5
				C36.97,146.053,36.843,146,36.71,146h-3c-0.276,0-0.5,0.224-0.5,0.5v3c0,0.133,0.053,0.26,0.146,0.354l2.5,2.5L36.564,151.646z"
				/>
			<path fill="#4C4C4C" d="M86.064,195.146l-3.581-3.58l-0.404,1.01l2.924,2.924l-2.293,2.293l-43.146-43.147l-0.707,0.707
				l43.5,43.5c0.098,0.098,0.226,0.146,0.354,0.146c0.128,0,0.256-0.049,0.354-0.146l3-3
				C86.259,195.658,86.259,195.342,86.064,195.146z"/>
		</g>
		<path fill="#4C4C4C" d="M40.71,147.5l2,4l-4,4l-4-2L40.71,147.5 M40.71,146.5c-0.263,0-0.518,0.104-0.707,0.293l-6,6
			c-0.228,0.227-0.332,0.55-0.28,0.867c0.052,0.317,0.252,0.59,0.54,0.734l4,2c0.142,0.071,0.295,0.106,0.447,0.106
			c0.26,0,0.516-0.101,0.708-0.293l4-4c0.304-0.305,0.38-0.77,0.188-1.154l-2-4c-0.144-0.287-0.417-0.488-0.734-0.54
			C40.817,146.504,40.763,146.5,40.71,146.5L40.71,146.5z"/>
		<circle fill="#4C4C4C" cx="33.429" cy="146.5" r="3"/>
		<path fill="#4C4C4C" d="M21.406,154.403c-2.077,0-3.936-0.73-5.306-2.1c-1.568-1.568-2.298-3.778-2.054-6.222
			c0.237-2.369,1.368-4.673,3.184-6.488l0.141-0.141l6.574-2.719l2.718-6.574l0.141-0.141c3.816-3.816,9.518-4.323,12.711-1.13
			c3.193,3.193,2.687,8.896-1.13,12.711l-9.574,9.573c-1.816,1.816-4.119,2.946-6.488,3.184
			C22.012,154.388,21.706,154.403,21.406,154.403z M18.507,141.146c-1.41,1.467-2.285,3.283-2.471,5.135
			c-0.184,1.836,0.342,3.472,1.478,4.608c1.137,1.136,2.77,1.656,4.608,1.478c1.911-0.191,3.783-1.117,5.273-2.607l9.574-9.573
			c3.036-3.036,3.543-7.47,1.13-9.883c-2.377-2.377-6.712-1.919-9.744,0.993l-2.88,6.969L18.507,141.146z"/>
	</g>
	<g>
		
			<rect x="63" y="149.1" transform="matrix(0.7071 0.7072 -0.7072 0.7071 131.0393 1.6735)" fill="#4C4C4C" width="1" height="19.798"/>
		<polygon fill="#4C4C4C" points="37.066,184.726 38.076,185.13 53.854,169.352 53.147,168.645 		"/>
		<path fill="#4C4C4C" d="M78.999,146h-3c-0.133,0-0.26,0.053-0.354,0.146l-2.5,2.5l0.707,0.707L76.206,147h2.293v2.293
			l-2.354,2.353l0.707,0.707l2.5-2.5c0.094-0.094,0.146-0.221,0.146-0.354v-3C79.499,146.224,79.276,146,78.999,146z"/>
		<path fill="#4C4C4C" d="M29.999,197.793l-2.293-2.293l2.924-2.924l-0.404-1.01l-3.581,3.58c-0.195,0.195-0.195,0.512,0,0.707l3,3
			c0.098,0.098,0.226,0.146,0.354,0.146s0.256-0.049,0.354-0.146l26.501-26.501l-0.707-0.707L29.999,197.793z"/>
		
			<rect x="56.601" y="161.499" transform="matrix(0.7071 -0.7071 0.7071 0.7071 -95.0742 94.4727)" fill="#4C4C4C" width="19.798" height="1"/>
	</g>
</g>
<g>
	<rect x="40.5" y="681" fill="#4C4C4C" width="43" height="2"/>
	<path fill="#4C4C4C" d="M93,681h-7.5v2H93v50H31v-50h7.5v-2H31c-1.104,0-2,0.896-2,2v50c0,1.105,0.896,2,2,2h62
		c1.104,0,2-0.895,2-2v-50C95,681.896,94.104,681,93,681z"/>
</g>
<path fill="#4C4C4C" d="M40,675v9h-1v-9H40 M40,674h-1c-0.552,0-1,0.448-1,1v9c0,0.552,0.448,1,1,1h1c0.552,0,1-0.448,1-1v-9
	C41,674.448,40.552,674,40,674L40,674z"/>
<path fill="#4C4C4C" d="M85,675v9h-1v-9H85 M85,674h-1c-0.552,0-1,0.448-1,1v9c0,0.552,0.448,1,1,1h1c0.552,0,1-0.448,1-1v-9
	C86,674.448,85.552,674,85,674L85,674z"/>
<path fill="#4C4C4C" d="M93,693H31c-0.552,0-1,0.448-1,1v36c0,0.552,0.448,1,1,1h51c0.248,0,0.489-0.093,0.673-0.26l0.279-0.253
	c-0.071-0.007-0.144-0.019-0.208-0.057c-0.196-0.118-0.288-0.354-0.222-0.573l0.136-0.454L82,730H31v-36h62v25.5
	c0.202,0,0.385,0.122,0.462,0.309c0.077,0.187,0.034,0.402-0.108,0.545l-7.444,7.444l7.764-7.058C93.881,720.55,94,720.282,94,720
	v-26C94,693.448,93.552,693,93,693z"/>
<path fill="#4C4C4C" d="M93,720l-10,10l3-10H93 M93,719h-7c-0.441,0-0.831,0.29-0.958,0.713l-3,10
	c-0.131,0.439,0.052,0.911,0.445,1.146c0.159,0.095,0.336,0.141,0.512,0.141c0.259,0,0.515-0.1,0.708-0.293l10-10
	c0.286-0.286,0.372-0.716,0.217-1.09C93.769,719.244,93.404,719,93,719L93,719z"/>
<rect x="55" y="705" fill="#4C4C4C" width="32" height="1"/>
<rect x="55" y="709" fill="#4C4C4C" width="32" height="1"/>
<rect x="55" y="713" fill="#4C4C4C" width="32" height="1"/>
<polygon fill="#4C4C4C" points="43,711.414 36.293,704.707 37.707,703.293 43,708.586 54.293,697.293 55.707,698.707 "/>
</svg>
