<?xml version="1.0" encoding="utf-8"?>
<!-- Generator: Adobe Illustrator 23.0.1, SVG Export Plug-In . SVG Version: 6.00 Build 0)  -->
<svg version="1.1" id="Layer_1" xmlns="http://www.w3.org/2000/svg" xmlns:xlink="http://www.w3.org/1999/xlink" x="0px" y="0px"
	 viewBox="0 0 19 19" style="enable-background:new 0 0 19 19;" xml:space="preserve">
<style type="text/css">
	.st0{fill:#999999;}
</style>
<path class="st0" d="M9.5,1C14.2,1,18,4.8,18,9.5S14.2,18,9.5,18S1,14.2,1,9.5S4.8,1,9.5,1 M9.5,0C4.3,0,0,4.2,0,9.5S4.3,19,9.5,19
	S19,14.7,19,9.5S14.7,0,9.5,0L9.5,0z"/>
<path class="st0" d="M14.5,5.5C15.3,5.4,16,5.2,16.7,5c-0.2-0.3-0.4-0.6-0.6-0.9c-0.6,0.2-1.2,0.3-1.9,0.4c-0.4-1.2-1-2.2-1.7-3
	C11.6,1.2,10.6,1,9.5,1S7.4,1.2,6.4,1.5c-0.7,0.8-1.2,1.8-1.7,3C4.1,4.4,3.5,4.3,2.9,4.1C2.7,4.4,2.5,4.7,2.3,5
	C3,5.2,3.7,5.4,4.5,5.5C4.2,6.6,4,7.7,4,9H1c0,0.2,0,0.3,0,0.5S1,9.8,1,10h3c0,1.2,0.2,2.4,0.5,3.5C3.7,13.6,3,13.8,2.3,14
	c0.2,0.3,0.4,0.6,0.6,0.9c0.6-0.2,1.2-0.3,1.9-0.4c0.4,1.2,1,2.2,1.7,3c0.9,0.4,2,0.6,3.1,0.6s2.1-0.2,3.1-0.6
	c0.7-0.8,1.2-1.8,1.7-3c0.6,0.1,1.3,0.3,1.9,0.4c0.2-0.3,0.4-0.6,0.6-0.9c-0.7-0.2-1.4-0.4-2.2-0.5c0.3-1.1,0.4-2.2,0.5-3.5h3
	c0-0.2,0-0.3,0-0.5s0-0.3,0-0.5h-3C15,7.7,14.8,6.6,14.5,5.5z M9,17.9c-1.3-0.3-2.5-1.7-3.2-3.7C6.8,14.1,7.9,14,9,14V17.9z M9,13
	c-1.2,0-2.4,0.1-3.5,0.3C5.2,12.3,5,11.2,5,10h4V13z M9,9H5c0-1.2,0.2-2.3,0.5-3.3C6.6,5.8,7.8,5.9,9,6V9z M9,5
	c-1.1,0-2.2-0.1-3.2-0.3C6.5,2.7,7.7,1.3,9,1V5z M10,1c1.3,0.3,2.5,1.7,3.2,3.7c-1,0.2-2.1,0.2-3.2,0.3V1z M10,17.9V14
	c1.1,0,2.2,0.1,3.2,0.3C12.5,16.3,11.3,17.6,10,17.9z M13.5,13.3C12.4,13.1,11.2,13,10,13v-3h4C14,11.2,13.8,12.3,13.5,13.3z M10,9
	V6c1.2,0,2.4-0.1,3.5-0.3C13.8,6.7,14,7.8,14,9H10z"/>
</svg>
