<?xml version="1.0" encoding="utf-8"?>
<!-- Generator: Adobe Illustrator 15.1.0, SVG Export Plug-In . SVG Version: 6.00 Build 0)  -->
<!DOCTYPE svg PUBLIC "-//W3C//DTD SVG 1.1//EN" "http://www.w3.org/Graphics/SVG/1.1/DTD/svg11.dtd">
<svg version="1.1" xmlns="http://www.w3.org/2000/svg" xmlns:xlink="http://www.w3.org/1999/xlink" x="0px" y="0px" width="26px"
	 height="26px" viewBox="0 0 26 26" enable-background="new 0 0 26 26" xml:space="preserve">
<g id="ok" display="none">
	<path display="inline" fill-rule="evenodd" clip-rule="evenodd" fill="#269C2F" d="M13.028,26c-7.18,0-13-5.82-13-12.999
		c0-7.18,5.82-13,13-13c7.18,0,13.001,5.82,13.001,13C26.029,20.18,20.208,26,13.028,26z M13.028,3c-5.523,0-10,4.477-10,10
		c0,5.522,4.478,9.999,10,9.999c5.523,0,10-4.477,10-9.999C23.028,7.478,18.552,3,13.028,3z M12.495,18.054
		c-0.185,0.184-0.484,0.184-0.669,0l-0.148-0.148l-0.854-0.854c-0.002-0.002-3.191-3.22-3.191-3.22
		c-0.185-0.185-0.185-0.483,0-0.668l1.003-1.002c0.185-0.185,0.484-0.185,0.668,0l2.861,2.88L18,9.139
		c0.185-0.185,0.483-0.185,0.668,0l1.002,1.003c0.186,0.185,0.186,0.484,0,0.669L12.495,18.054z"/>
</g>
<g id="error" display="none">
	<path display="inline" fill-rule="evenodd" clip-rule="evenodd" fill="#E05351" d="M13.001,26c-7.179,0-13-5.82-13-12.999
		c0-7.18,5.821-13,13-13c7.18,0,12.999,5.82,12.999,13C26,20.18,20.181,26,13.001,26z M13.001,3c-5.523,0-10,4.478-10,10
		c0,5.522,4.477,9.999,10,9.999c5.523,0,10-4.477,10-9.999C23.001,7.478,18.524,3,13.001,3z M17.537,16.536l-1.014,1.014
		c-0.186,0.187-0.488,0.187-0.675,0l-2.869-2.871l-2.87,2.871c-0.187,0.187-0.489,0.187-0.675,0l-1.013-1.014
		c-0.187-0.186-0.187-0.488,0-0.675l2.87-2.87l-2.87-2.87c-0.187-0.187-0.187-0.489,0-0.675l1.013-1.013
		c0.187-0.187,0.489-0.187,0.675,0l2.87,2.87l2.869-2.87c0.187-0.187,0.489-0.187,0.675,0l1.014,1.013
		c0.187,0.187,0.187,0.489,0,0.675l-2.87,2.87l2.87,2.87C17.724,16.048,17.724,16.351,17.537,16.536z"/>
</g>
<g id="info" display="none">
	<path display="inline" fill-rule="evenodd" clip-rule="evenodd" fill="#0082AD" d="M13.001,26c-7.179,0-13-5.82-13-12.999
		c0-7.18,5.821-13,13-13c7.18,0,12.999,5.82,12.999,13C26,20.18,20.181,26,13.001,26z M13.001,3c-5.523,0-10,4.478-10,10
		c0,5.522,4.477,9.999,10,9.999c5.523,0,10-4.477,10-9.999C23.001,7.478,18.524,3,13.001,3z"/>
	<g display="inline">
		<path fill="#0082AD" d="M10.242,10.743l4.75-0.202l-2.131,7.892c-0.099,0.344-0.148,0.596-0.148,0.754
			c0,0.125,0.026,0.219,0.075,0.285c0.05,0.062,0.118,0.096,0.205,0.096c0.195,0,0.445-0.15,0.749-0.453
			c0.504-0.502,0.999-1.213,1.483-2.131L16,17.428C14.71,19.809,13.292,21,11.747,21c-0.524,0-0.938-0.16-1.242-0.477
			c-0.304-0.318-0.455-0.752-0.455-1.303c0-0.381,0.046-0.742,0.138-1.08l1.464-5.49c0.035-0.098,0.053-0.199,0.053-0.304
			c0-0.195-0.081-0.351-0.244-0.466s-0.441-0.173-0.837-0.173H9.946L10.242,10.743z M14.066,5c0.48,0,0.893,0.17,1.231,0.51
			c0.339,0.34,0.511,0.751,0.511,1.233s-0.172,0.893-0.511,1.232c-0.339,0.34-0.751,0.511-1.231,0.511
			c-0.483,0-0.895-0.17-1.234-0.511c-0.34-0.339-0.511-0.751-0.511-1.232s0.17-0.893,0.511-1.233C13.171,5.17,13.583,5,14.066,5z"/>
	</g>
</g>
<g id="info2">
	<path fill-rule="evenodd" clip-rule="evenodd" fill="#999999" d="M13.001,26c-7.179,0-13-5.82-13-12.999c0-7.18,5.821-13,13-13
		c7.18,0,12.999,5.82,12.999,13C26,20.18,20.181,26,13.001,26z M13.001,3c-5.523,0-10,4.478-10,10c0,5.522,4.477,9.999,10,9.999
		c5.523,0,10-4.477,10-9.999C23.001,7.478,18.524,3,13.001,3z"/>
	<text transform="matrix(1.0137 0 0 1 7.0396 20.2383)" fill="#999999" font-family="'CenturyGothic-Bold'" font-size="19.6248">?</text>
</g>
<g id="warning" display="none">
	<path display="inline" fill-rule="evenodd" clip-rule="evenodd" fill="#C06A2A" d="M13.001,26c-7.179,0-13-5.82-13-12.999
		c0-7.18,5.821-13,13-13c7.18,0,12.999,5.82,12.999,13C26,20.18,20.181,26,13.001,26z M13.001,3c-5.523,0-10,4.478-10,10
		c0,5.522,4.477,9.999,10,9.999c5.523,0,10-4.477,10-9.999C23.001,7.478,18.524,3,13.001,3z"/>
	<g display="inline">
		<path fill="#C06A2A" d="M13,16L13,16c0-0.838-1-1-0.996-3c0.001-0.64,0.008-2.095-0.448-3.621C11.185,8.124,11,7.286,11,6.864
			c0-0.579,0.187-1.034,0.562-1.366C11.936,5.166,12.418,5,13.005,5c0.58,0,1.056,0.167,1.431,0.502C14.812,5.837,15,6.282,15,6.837
			c0,0.355-0.193,1.209-0.58,2.56c-0.448,1.568-0.415,2.988-0.416,3.603C14,15,13,15.168,13,16z"/>
	</g>
	<circle display="inline" fill="#C06A2A" cx="13" cy="19" r="2"/>
</g>
<g id="error2" display="none">
	<path display="inline" fill-rule="evenodd" clip-rule="evenodd" fill="#E05351" d="M13.001,26c-7.179,0-13-5.82-13-12.999
		c0-7.18,5.821-13,13-13c7.18,0,12.999,5.82,12.999,13C26,20.18,20.181,26,13.001,26z M13.001,3c-5.523,0-10,4.478-10,10
		c0,5.522,4.477,9.999,10,9.999c5.523,0,10-4.477,10-9.999C23.001,7.478,18.524,3,13.001,3z"/>
	<g display="inline">
		<path fill="#E05351" d="M13,16L13,16c0-0.838-1-1-0.996-3c0.001-0.64,0.008-2.095-0.448-3.621C11.185,8.124,11,7.286,11,6.864
			c0-0.579,0.187-1.034,0.562-1.366C11.936,5.166,12.418,5,13.005,5c0.58,0,1.056,0.167,1.431,0.502C14.812,5.837,15,6.282,15,6.837
			c0,0.355-0.193,1.209-0.58,2.56c-0.448,1.568-0.415,2.988-0.416,3.603C14,15,13,15.168,13,16z"/>
	</g>
	<circle display="inline" fill="#E05351" cx="13" cy="19" r="2"/>
</g>
</svg>
