<?xml version="1.0" encoding="utf-8"?>
<!-- Generator: Adobe Illustrator 23.0.1, SVG Export Plug-In . SVG Version: 6.00 Build 0)  -->
<svg xmlns:xlink="http://www.w3.org/1999/xlink" version="1.1" id="Layer_2" xmlns="http://www.w3.org/2000/svg" x="0px" y="0px"
	 viewBox="0 0 990.095 725.447" enable-background="new 0 0 990.095 725.447" xml:space="preserve">
<g>
	
		<linearGradient id="SVGID_1_" gradientUnits="userSpaceOnUse" x1="621.2135" y1="-204.7281" x2="742.1367" y2="-204.7418" gradientTransform="matrix(-0.0271 -0.9996 0.9996 -0.0271 528.0905 902.7325)">
		<stop  offset="0" style="stop-color:#F47D20"/>
		<stop  offset="1" style="stop-color:#FFCB37"/>
	</linearGradient>
	<path fill="url(#SVGID_1_)" d="M18.689,64.184l527.302,348.706c7.718,5.938,18.904,4.123,24.379-3.935l23.545-34.747
		c5.426-8.007,3.065-18.926-5.235-23.992L37.834,36.257c-7.377-4.486-16.952-2.715-22.258,4.13l0,0
		C9.882,47.796,11.28,58.489,18.689,64.184z"/>
	
		<linearGradient id="SVGID_2_" gradientUnits="userSpaceOnUse" x1="563.6713" y1="-62.4025" x2="789.3865" y2="36.2708" gradientTransform="matrix(-0.0271 -0.9996 0.9996 -0.0271 528.0905 902.7325)">
		<stop  offset="0" style="stop-color:#F37021"/>
		<stop  offset="1" style="stop-color:#F26322"/>
	</linearGradient>
	<path fill="url(#SVGID_2_)" d="M575.404,377.178L500.649,66.98c-5.788-23.977-30.411-38.324-54.107-31.485l0,0
		c-23.696,6.839-36.919,32.036-29.082,55.403l101.553,302.519c5.041,14.978,20.985,23.263,36.13,18.822l0,0
		C570.189,407.851,579.091,392.394,575.404,377.178z"/>
	
		<linearGradient id="SVGID_3_" gradientUnits="userSpaceOnUse" x1="283.2084" y1="-276.3462" x2="773.9806" y2="-61.801" gradientTransform="matrix(-0.0271 -0.9996 0.9996 -0.0271 528.0905 902.7325)">
		<stop  offset="0" style="stop-color:#E9366B"/>
		<stop  offset="1" style="stop-color:#F0522C"/>
	</linearGradient>
	<path fill="url(#SVGID_3_)" d="M291.673,657.118L500.223,90.319c6.337-22.743-6.496-46.378-28.957-53.478l0,0
		c-22.867-7.19-47.268,5.26-54.763,28.035l-231.41,559.861c-9.872,29.892,7.021,62.033,37.238,70.888l0,0
		C252.144,704.389,283.315,687.07,291.673,657.118z"/>
	
		<linearGradient id="SVGID_4_" gradientUnits="userSpaceOnUse" x1="333.9142" y1="-280.5942" x2="720.4603" y2="400.2943" gradientTransform="matrix(-0.0271 -0.9996 0.9996 -0.0271 528.0905 902.7325)">
		<stop  offset="0" style="stop-color:#E12382"/>
		<stop  offset="1" style="stop-color:#BF2386"/>
	</linearGradient>
	<path fill="url(#SVGID_4_)" d="M264.422,690.806l661.855-489.905c35.085-19.793,47.33-64.361,27.338-99.34l0,0
		c-21.049-36.814-69.06-47.807-104.032-23.885L206.271,597.46c-24.436,16.734-31.3,49.769-15.456,74.834l0,0
		C206.5,697.06,238.865,705.202,264.422,690.806z"/>
</g>
</svg>
