<?xml version="1.0" encoding="utf-8"?>
<!-- Generator: Adobe Illustrator 20.0.0, SVG Export Plug-In . SVG Version: 6.00 Build 0)  -->
<svg version="1.1" xmlns="http://www.w3.org/2000/svg" xmlns:xlink="http://www.w3.org/1999/xlink" x="0px" y="0px"
	 viewBox="0 0 815 425" enable-background="new 0 0 815 425" xml:space="preserve">
<g id="Layer_1" display="none">
	<g id="jrJRuO.tif" display="inline">
		
			<image overflow="visible" width="1848" height="1108" id="Layer_0_3_" xlink:href="17638813241388D7.png"  transform="matrix(0.5 0 0 0.5 -70.5 -62.8965)">
		</image>
	</g>
</g>
<g id="Layer_2">
	<g>
		<g>
			<g>
				
					<linearGradient id="SVGID_1_" gradientUnits="userSpaceOnUse" x1="12.0563" y1="1964.1298" x2="63.7813" y2="1940.5547" gradientTransform="matrix(1 0 0 1 0 -1823.6901)">
					<stop  offset="0" style="stop-color:#905CFB"/>
					<stop  offset="0.16" style="stop-color:#6677F8"/>
					<stop  offset="0.38" style="stop-color:#3596F5"/>
					<stop  offset="0.54" style="stop-color:#17A9F3"/>
					<stop  offset="0.63" style="stop-color:#0CB0F2"/>
				</linearGradient>
				<path fill="url(#SVGID_1_)" d="M66.282,134.051c-0.2-0.15-12-11.5-12-11.5s9-9.55,11.35-11.9c0.725-0.711,1.347-1.518,1.85-2.4
					c3.239-5.604,1.323-12.773-4.281-16.012c-4.035-2.332-9.068-2.053-12.819,0.712c-0.602,0.459-1.17,0.96-1.7,1.5
					c-0.35,0.35-12.75,11.7-23.55,21.55l20.25,12.8l-24.55,25.74c0,0,40.25-6.89,41.95-7.19c2.186-0.39,4.099-1.701,5.25-3.6
					C69.953,140.535,69.206,136.393,66.282,134.051z"/>
				
					<linearGradient id="SVGID_2_" gradientUnits="userSpaceOnUse" x1="32.79" y1="1940.0177" x2="6.055" y2="1916.4027" gradientTransform="matrix(1 0 0 1 0 -1823.6901)">
					<stop  offset="0" style="stop-color:#905CFB"/>
					<stop  offset="0.07" style="stop-color:#A554E6"/>
					<stop  offset="0.25" style="stop-color:#D641B5"/>
					<stop  offset="0.39" style="stop-color:#F43597"/>
					<stop  offset="0.47" style="stop-color:#FF318C"/>
				</linearGradient>
				<path fill="url(#SVGID_2_)" d="M47.032,118.501c-0.342-2.339-1.583-4.453-3.46-5.89l-18.39-18.61
					c-4.574-4.58-11.994-4.585-16.575-0.012c-4.58,4.574-4.585,11.994-0.012,16.575c0.431,0.431,0.894,0.828,1.386,1.187l22.2,15.5
					c4.041,3.143,9.865,2.415,13.009-1.626C46.761,123.606,47.427,121.028,47.032,118.501z"/>
			</g>
			
				<linearGradient id="SVGID_3_" gradientUnits="userSpaceOnUse" x1="9.6347" y1="1967.9556" x2="72.7647" y2="1928.1805" gradientTransform="matrix(1 0 0 1 0 -1823.6901)">
				<stop  offset="0" style="stop-color:#905CFB"/>
				<stop  offset="0.16" style="stop-color:#6677F8"/>
				<stop  offset="0.38" style="stop-color:#3596F5"/>
				<stop  offset="0.54" style="stop-color:#17A9F3"/>
				<stop  offset="0.63" style="stop-color:#0CB0F2"/>
			</linearGradient>
			<path fill="url(#SVGID_3_)" d="M26.132,152.611c0.05,0,21.3-23.85,21.3-23.85l-21.45-13.55c-7.6,6.95-14.6,13.3-16.25,14.8
				c-5.78,5.227-6.228,14.15-1,19.929c0.971,1.073,2.101,1.991,3.35,2.721C14.882,154.201,21.072,156.151,26.132,152.611z"/>
		</g>
		<g>
			<rect x="17.082" y="102.601" width="40" height="40"/>
			<rect x="21.132" y="134.501" fill="#FFFFFF" width="14.65" height="2.65"/>
			<path fill="#FFFFFF" d="M26.482,118.451l-6.75-10.6h4.5l4.2,7.05l4.25-7.05h4.39l-6.75,10.55v7h-3.85v-6.95H26.482z"/>
			<path fill="#FFFFFF" d="M42.982,111.401h-5.35v-3.55h14.5v3.55h-5.3v13.95h-3.85V111.401z"/>
		</g>
	</g>
	<g>
		<g>
			
				<linearGradient id="SVGID_4_" gradientUnits="userSpaceOnUse" x1="64.4317" y1="2035.5254" x2="21.0967" y2="2042.0254" gradientTransform="matrix(1 0 0 1 0 -1823.61)">
				<stop  offset="0" style="stop-color:#FF8200"/>
				<stop  offset="0.97" style="stop-color:#905CFB"/>
			</linearGradient>
			<polygon fill="url(#SVGID_4_)" points="60.427,223.759 13.877,226.459 13.577,208.659 55.527,202.009 			"/>
			
				<linearGradient id="SVGID_5_" gradientUnits="userSpaceOnUse" x1="19.4135" y1="2057.283" x2="23.4535" y2="2034.7129" gradientTransform="matrix(1 0 0 1 0 -1823.61)">
				<stop  offset="0" style="stop-color:#0CB0F2"/>
				<stop  offset="0.97" style="stop-color:#905CFB"/>
			</linearGradient>
			<path fill="url(#SVGID_5_)" d="M23.677,241.349l14.95-19.05l-16.25-11.1l0,0c-2.8-2.6-7.1-3.65-11.5-1.8
				c-2.181,0.931-3.919,2.669-4.85,4.85c-1.95,4.55-0.7,9.05,2.2,11.8l0,0L23.677,241.349z"/>
			
				<linearGradient id="SVGID_6_" gradientUnits="userSpaceOnUse" x1="58.4182" y1="2074.5315" x2="29.7532" y2="2060.5315" gradientTransform="matrix(1 0 0 1 0 -1823.61)">
				<stop  offset="0" style="stop-color:#0CB0F2"/>
				<stop  offset="0.97" style="stop-color:#905CFB"/>
			</linearGradient>
			<polygon fill="url(#SVGID_6_)" points="23.677,241.359 46.727,264.109 61.027,237.359 38.627,222.359 			"/>
			
				<linearGradient id="SVGID_7_" gradientUnits="userSpaceOnUse" x1="60.5599" y1="2076.7161" x2="11.8099" y2="2059.186" gradientTransform="matrix(1 0 0 1 0 -1823.61)">
				<stop  offset="0" style="stop-color:#0CB0F2"/>
				<stop  offset="0.97" style="stop-color:#905CFB"/>
			</linearGradient>
			<path fill="url(#SVGID_7_)" d="M54.327,235.309L54.327,235.309l-38.35-1.85l0,0c-1.619-0.307-3.293-0.115-4.8,0.55
				c-1.601,0.676-2.874,1.949-3.55,3.55c-1.778,3.762-0.17,8.254,3.592,10.032c0.167,0.079,0.336,0.151,0.508,0.218l0,0l34.36,16.25
				c0.45,0.25,2.7,0.95,2.7,0.95c1.85,0.551,3.769,0.837,5.7,0.85c2.603-0.049,5.157-0.718,7.45-1.95c2.35-1.2,3.85-3.15,5.15-5.45
				c1.389-2.378,2.082-5.098,2-7.85C68.927,242.509,62.327,235.849,54.327,235.309z"/>
			
				<linearGradient id="SVGID_8_" gradientUnits="userSpaceOnUse" x1="63.7704" y1="2030.8802" x2="22.0104" y2="2064.5352" gradientTransform="matrix(1 0 0 1 0 -1823.61)">
				<stop  offset="0" style="stop-color:#FF8200"/>
				<stop  offset="0.97" style="stop-color:#905CFB"/>
			</linearGradient>
			<path fill="url(#SVGID_8_)" d="M52.727,202.849c-0.649,0.29-1.268,0.642-1.85,1.05l0,0l-21.2,15.95l10.5,15.35l23.05-12.85
				c1.707-0.857,3.093-2.243,3.95-3.95C72.277,208.509,62.727,198.609,52.727,202.849z"/>
			<polygon fill="#905CFB" points="18.327,247.409 40.177,235.209 29.677,219.859 9.577,234.959 			"/>
			
				<linearGradient id="SVGID_9_" gradientUnits="userSpaceOnUse" x1="33.6383" y1="2070.7402" x2="7.8733" y2="2061.5852" gradientTransform="matrix(1 0 0 1 0 -1823.61)">
				<stop  offset="0" style="stop-color:#0CB0F2"/>
				<stop  offset="0.97" style="stop-color:#905CFB"/>
			</linearGradient>
			<path fill="url(#SVGID_9_)" d="M23.727,253.409v-19.6l-7.64-0.35h-0.05c-1.635-0.304-3.324-0.113-4.85,0.55
				c-1.604,0.688-2.889,1.956-3.6,3.55c-1.778,3.762-0.17,8.254,3.592,10.032c0.167,0.079,0.336,0.151,0.508,0.218h0.1
				L23.727,253.409z"/>
		</g>
		<g>
			
				<linearGradient id="SVGID_10_" gradientUnits="userSpaceOnUse" x1="37.0771" y1="2037.9586" x2="37.0771" y2="2077.9585" gradientTransform="matrix(1 0 0 1 0 -1823.61)">
				<stop  offset="0" style="stop-color:#000000"/>
				<stop  offset="1" style="stop-color:#000000"/>
			</linearGradient>
			<rect x="17.077" y="213.859" fill="url(#SVGID_10_)" width="40" height="40"/>
			<g>
				<path fill="#FFFFFF" d="M21.087,229.059v-9.9h3.7v9.8c0,2.8,1.35,4.25,3.65,4.25s3.65-1.4,3.65-4.15v-9.9h3.7v9.75
					c0,5.25-2.85,7.8-7.4,7.8S21.087,234.159,21.087,229.059z"/>
				<path fill="#FFFFFF" d="M38.127,219.159h7.05c4.1,0,6.6,2.45,6.6,6v0.05c0,4-3.1,6.1-6.95,6.1h-2.9v5.2h-3.8L38.127,219.159z
					 M44.927,227.909c1.9,0,3-1.15,3-2.6v-0.1c0-1.7-1.2-2.6-3.05-2.6h-2.9v5.3H44.927z"/>
			</g>
			<rect x="21.077" y="245.859" fill="#FFFFFF" width="14.65" height="2.65"/>
		</g>
	</g>
	<g>
		<g>
			
				<linearGradient id="SVGID_11_" gradientUnits="userSpaceOnUse" x1="38.4521" y1="2440.1555" x2="18.2871" y2="2415.2405" gradientTransform="matrix(1 0 0 1 0 -2085.01)">
				<stop  offset="0.06" style="stop-color:#0CB0F2"/>
				<stop  offset="0.21" style="stop-color:#10ADF2"/>
				<stop  offset="0.37" style="stop-color:#1EA5F3"/>
				<stop  offset="0.54" style="stop-color:#3497F5"/>
				<stop  offset="0.71" style="stop-color:#5283F7"/>
				<stop  offset="0.88" style="stop-color:#796AF9"/>
				<stop  offset="0.97" style="stop-color:#905CFB"/>
			</linearGradient>
			<path fill="url(#SVGID_11_)" d="M28.045,317.693c-0.879-0.441-1.807-0.777-2.765-1c-12.85-3.05-22.4,9.55-17.15,21
				c0.05,0.05,9.35,20.45,10.85,23.7c0,0,17.1-7.85,20.6-15.9c3.24-7.5-2.225-21.19-3.225-23.245L28.045,317.693z"/>
			<path fill="#0CB0F2" d="M66.68,340.448c-1.086-1.664-2.562-3.037-4.3-4c-0.05,0-12.05-6.6-12.05-6.6s-41.2,23.885-41.245,23.95
				c-4.65,5.3-5.7,13.7-0.35,21c1.613,2.195,3.893,3.809,6.5,4.6c4.85,1.5,9.15,0.9,12.75-1c0.1-0.05,33.85-17.95,33.95-18.05
				C68.53,356.897,71.585,348.098,66.68,340.448z"/>
			
				<linearGradient id="SVGID_12_" gradientUnits="userSpaceOnUse" x1="15.538" y1="2461.9041" x2="25.643" y2="2438.5339" gradientTransform="matrix(1 0 0 1 0 -2085.01)">
				<stop  offset="0.06" style="stop-color:#0CB0F2"/>
				<stop  offset="0.2" style="stop-color:#0DB2EE"/>
				<stop  offset="0.35" style="stop-color:#12B7E0"/>
				<stop  offset="0.51" style="stop-color:#19C0CA"/>
				<stop  offset="0.68" style="stop-color:#23CCAC"/>
				<stop  offset="0.85" style="stop-color:#30DC85"/>
				<stop  offset="0.97" style="stop-color:#3BEA62"/>
			</linearGradient>
			<path fill="url(#SVGID_12_)" d="M24.295,335.203l-11,13.5c0,0-4.21,5.03-4.265,5.095c-4.65,5.3-5.7,13.7-0.35,21
				c1.613,2.195,3.893,3.809,6.5,4.6c4.85,1.5,9.2,0.9,12.8-1c0,0,0.85-0.45,2.3-1.25c4.57-2.47,10.875-19.075,15.175-31.915
				L24.295,335.203z"/>
			
				<linearGradient id="SVGID_13_" gradientUnits="userSpaceOnUse" x1="29.3962" y1="2431.1938" x2="49.1462" y2="2405.8586" gradientTransform="matrix(1 0 0 1 0 -2085.01)">
				<stop  offset="0.06" style="stop-color:#0CB0F2"/>
				<stop  offset="0.2" style="stop-color:#0DB2EE"/>
				<stop  offset="0.35" style="stop-color:#12B7E0"/>
				<stop  offset="0.51" style="stop-color:#19C0CA"/>
				<stop  offset="0.68" style="stop-color:#23CCAC"/>
				<stop  offset="0.85" style="stop-color:#30DC85"/>
				<stop  offset="0.97" style="stop-color:#3BEA62"/>
			</linearGradient>
			<path fill="url(#SVGID_13_)" d="M41.585,348.198l8.745-18.465c0-0.028,0.022-0.05,0.05-0.05c0.05-0.15,0.75-1.95,0.8-2.05
				c1.044-2.634,0.706-5.616-0.9-7.95c-1.009-1.597-2.609-2.729-4.45-3.15c-3.163-0.842-6.524,0.279-8.55,2.85
				c-0.05,0.05-1.95,2.25-1.95,2.25l-14,17.25L41.585,348.198z"/>
		</g>
		<g>
			
				<linearGradient id="SVGID_14_" gradientUnits="userSpaceOnUse" x1="37.0796" y1="2413.6975" x2="37.0796" y2="2453.6975" gradientTransform="matrix(1 0 0 1 0 -2085.01)">
				<stop  offset="0" style="stop-color:#000000"/>
				<stop  offset="1" style="stop-color:#000000"/>
			</linearGradient>
			<rect x="17.08" y="328.198" fill="url(#SVGID_14_)" width="40" height="40"/>
			<polygon fill="#FFFFFF" points="26.48,337.048 21.08,337.048 21.08,333.548 35.73,333.548 35.73,337.048 30.38,337.048 
				30.38,350.842 26.48,350.842 			"/>
			<path fill="#FFFFFF" d="M35.73,342.233L35.73,342.233c0-5,3.7-9.05,9.05-9.05c3.25,0,5.25,1.1,6.85,2.7l-2.45,2.8
				c-1.35-1.2-2.7-1.95-4.45-1.95c-2.9,0-5.05,2.45-5.05,5.4v0.05c0,3,2.05,5.45,5.05,5.45c2,0,3.2-0.8,4.55-2.05l2.45,2.45
				c-1.8,1.9-3.75,3.1-7.1,3.1c-4.806,0.109-8.791-3.699-8.9-8.506C35.727,342.495,35.727,342.364,35.73,342.233"/>
			<rect x="21.08" y="360.198" fill="#FFFFFF" width="14.65" height="2.65"/>
		</g>
	</g>
	<g>
		<path fill="#FFFFFF" stroke="#B5B9BC" stroke-miterlimit="10" d="M483.123,421.23H228.877c-12.887,0-23.377-10.4-23.377-23.4
			V80.63c0-12.9,10.49-23.4,23.377-23.4h254.247c12.887,0,23.377,10.5,23.377,23.4v317.2C506.5,410.83,496.11,421.23,483.123,421.23
			z"/>
		<g>
			<g>
				<g>
					<line fill="none" x1="288.215" y1="196.183" x2="367.215" y2="47.983"/>
					<line fill="none" x1="434.215" y1="50.783" x2="294.515" y2="191.983"/>
					<line fill="none" x1="415.815" y1="219.383" x2="275.515" y2="50.983"/>
					<line fill="none" x1="275.515" y1="50.583" x2="434.215" y2="50.783"/>
					<line fill="none" x1="415.815" y1="219.383" x2="450.215" y2="175.783"/>
					<polygon fill="#FFEE45" points="313.215,141.683 399.815,235.783 439.215,196.183 365.415,106.783 					"/>
					<path fill="#FFEE45" d="M406.115,240.183c-20.4-10.1-17.1-38.3,6.1-43.4c3.9-0.9,8.1-0.6,11.8,1.1c21.7,9.2,19.7,37.4-2.2,43.8
						C416.415,243.183,410.815,242.583,406.115,240.183z"/>
					<polygon fill="#FFEE45" points="423.515,165.883 470.015,198.283 432.615,235.283 398.515,204.183 					"/>
					
						<linearGradient id="SVGID_15_" gradientUnits="userSpaceOnUse" x1="232.1262" y1="295.9404" x2="474.9616" y2="295.9404" gradientTransform="matrix(1 0 0 -1 0 478.2071)">
						<stop  offset="0" style="stop-color:#00B8F1"/>
						<stop  offset="0.3065" style="stop-color:#9758FB"/>
						<stop  offset="0.9892" style="stop-color:#FFEE45"/>
					</linearGradient>
					<path fill="url(#SVGID_15_)" d="M456.015,143.183c-11.6-3.3-17.9-2.4-33-2.6c-5.5-0.1-11.2,0-16.6,0c-0.3,0-0.5,0-0.8,0
						c-1.3,0-2.7,0-4,0h-0.1c-1.3,0-2.6,0-3.9,0.1c-0.3,0-0.5,0-0.8,0c-2.5,0.1-4.8,0.1-6.9,0.2c-0.3,0-0.5,0-0.8,0
						c-1,0-2,0.1-2.9,0.1l0,0c-0.9,0-1.8,0.1-2.5,0.1c-0.2,0-0.4,0-0.6,0c-0.8,0-87.8-18.6-87.8-18.6l-35.5,33
						c-0.6,0.6-1.1,0.9-1.5,1.5l-0.2,0.2c-23.2,22.8-19.5,63,14.9,80.1c8.6,4.2,18.4,5.7,27.8,4.2v0.2l140.7-31.8
						c3.7,0.2,7.4-0.2,11.1-1.3c21.2-6.3,30-26.1,24.9-43.1C474.615,156.483,467.215,146.483,456.015,143.183z"/>
				</g>
				
					<linearGradient id="SVGID_16_" gradientUnits="userSpaceOnUse" x1="376.2708" y1="468.5917" x2="373.4761" y2="339.1" gradientTransform="matrix(1 0 0 -1 0 478.2071)">
					<stop  offset="0.3276" style="stop-color:#00B8F1"/>
					<stop  offset="0.9731" style="stop-color:#9758FB"/>
				</linearGradient>
				<path fill="url(#SVGID_16_)" d="M449.515,9.583c-6.6-2.8-13.9-3.6-21.1-2.3l-150,12.6l-7.2,62.4l114.2,63.9l19.6,1.1l61.3-66.3
					C486.915,60.183,482.715,23.383,449.515,9.583z"/>
				
					<linearGradient id="SVGID_17_" gradientUnits="userSpaceOnUse" x1="347.6809" y1="439.5328" x2="315.2281" y2="370.1512" gradientTransform="matrix(1 0 0 -1 0 478.2071)">
					<stop  offset="0.3276" style="stop-color:#00B8F1"/>
					<stop  offset="0.7903" style="stop-color:#9758FB"/>
				</linearGradient>
				<path fill="url(#SVGID_17_)" d="M397.215,146.783l-88.2-111.6l0,0c-3.9-5.3-9.6-9.8-16.9-12.9c-5.7-2.4-12.3-2.9-18.4-1.7
					c-32.2,7-39.8,42.3-18.8,61.3l61.1,62.6L397.215,146.783z"/>
			</g>
			<g>
				<rect x="288.215" y="51.783" width="145.6" height="145.6"/>
				<g>
					<path fill="#FFFFFF" d="M301.815,70.983h13.4v24.2h24.8v-24.2h13.4v61.1h-13.4v-24.5h-24.8v24.5h-13.4V70.983z"/>
					<path fill="#FFFFFF" d="M363.515,70.983h28.4c7,0,12.5,1.9,16,5.4c2.8,2.8,4.2,6.2,4.2,10.4v0.2c0,6.9-3.7,10.7-8,13.2
						c7.1,2.7,11.4,6.8,11.4,15v0.2c0,11.2-9.1,16.8-22.9,16.8h-29.1V70.983z M398.715,89.083c0-4-3.1-6.3-8.8-6.3h-13.3v12.9h12.4
						c5.9,0,9.7-1.9,9.7-6.5V89.083L398.715,89.083z M392.215,106.883h-15.5v13.4h16c5.9,0,9.5-2.1,9.5-6.6v-0.2
						C402.115,109.383,399.115,106.883,392.215,106.883z"/>
				</g>
				<rect x="301.915" y="170.083" fill="#FFFFFF" width="54.6" height="9.1"/>
			</g>
		</g>
	</g>
	<g>
		<path fill="#343434" d="M250.1,297.03c-3.9,0-7.1-3.2-7.1-7.1v-3.7c0-3.9,3.2-7.1,7.1-7.1c3.9,0,7.1,3.2,7.1,7.1v3.7
			C257.2,293.83,254,297.03,250.1,297.03z M250.1,282.13c-2.3,0-4.1,1.8-4.1,4.1v3.7c0,2.3,1.8,4.1,4.1,4.1c2.3,0,4.1-1.8,4.1-4.1
			v-3.7C254.2,283.93,252.4,282.13,250.1,282.13z"/>
		<path fill="#343434" d="M263.2,310.13h-3v-2.9c0-1.4-0.7-2.6-1.7-3c-5.5-2.2-11.5-2.2-17,0c-1,0.4-1.7,1.6-1.7,3v2.9H237v-2.9
			c0-2.6,1.4-4.9,3.5-5.7c6.2-2.5,13-2.5,19.2,0c2.1,0.9,3.5,3.2,3.5,5.7V310.13z"/>
		<circle fill="#343434" cx="272.6" cy="287.53" r="2.1"/>
		<path fill="#343434" d="M271.6,310.23c-0.8,0-1.5-0.2-2.2-0.7c-1.2-0.8-1.9-2-1.9-3.4v-9c-3.2-2-4.9-5.7-4.3-9.5
			c0.6-3.9,3.8-7,7.6-7.7c2.8-0.5,5.6,0.3,7.8,2.1c2.2,1.7,3.4,4.3,3.4,7.1c0,3.3-1.7,6.2-4.4,8v6.5c0,2.6-1.5,5-3.9,6l-0.4,0.2
			C272.7,310.03,272.2,310.23,271.6,310.23z M272.6,282.63c-0.4,0-0.8,0-1.2,0.1c-2.6,0.5-4.8,2.6-5.2,5.3c-0.5,2.8,0.9,5.6,3.5,6.9
			l0.8,0.4v10.8c0,0.5,0.4,0.8,0.5,0.9c0.2,0.1,0.6,0.3,1.1,0.1l0.4-0.2c1.3-0.6,2.1-1.9,2.1-3.3v-8.3l0.8-0.4
			c2.2-1.1,3.6-3.3,3.6-5.8c0-1.9-0.8-3.7-2.3-5C275.5,283.23,274.1,282.63,272.6,282.63z"/>
	</g>
	<g>
		<path fill="#343434" d="M310.083,281.336h2.557l5.401,12.693h-2.899l-1.152-2.827h-5.33l-1.152,2.827h-2.827L310.083,281.336z
			 M313,288.754l-1.674-4.088l-1.674,4.088H313z"/>
		<path fill="#343434" d="M319.442,290.626v-6.247h2.737v5.383c0,1.297,0.612,1.963,1.656,1.963c1.044,0,1.711-0.666,1.711-1.963
			v-5.383h2.737v9.65h-2.737v-1.368c-0.63,0.81-1.44,1.548-2.827,1.548C320.648,294.209,319.442,292.841,319.442,290.626z"/>
		<path fill="#343434" d="M331.178,291.293v-4.574h-1.152v-2.34h1.152v-2.467h2.737v2.467h2.269v2.34h-2.269v4.124
			c0,0.63,0.27,0.936,0.882,0.936c0.504,0,0.955-0.126,1.351-0.342v2.196c-0.576,0.343-1.242,0.559-2.161,0.559
			C332.312,294.191,331.178,293.525,331.178,291.293z"/>
		<path fill="#343434" d="M338.197,280.886h2.737v4.861c0.63-0.811,1.44-1.549,2.827-1.549c2.071,0,3.277,1.368,3.277,3.583v6.248
			h-2.737v-5.384c0-1.296-0.612-1.962-1.656-1.962c-1.044,0-1.71,0.666-1.71,1.962v5.384h-2.737V280.886z"/>
		<path fill="#343434" d="M355.1,281.426h2.989l3.313,5.329l3.313-5.329h2.989v12.604h-2.755v-8.229l-3.547,5.384h-0.072
			l-3.511-5.33v8.175H355.1V281.426z"/>
		<path fill="#343434" d="M369.967,289.258v-0.036c0-2.772,2.232-5.023,5.239-5.023c2.989,0,5.204,2.215,5.204,4.987v0.036
			c0,2.773-2.232,5.023-5.239,5.023C372.182,294.245,369.967,292.03,369.967,289.258z M377.709,289.258v-0.036
			c0-1.422-1.026-2.665-2.539-2.665c-1.566,0-2.503,1.207-2.503,2.629v0.036c0,1.423,1.026,2.665,2.539,2.665
			C376.773,291.887,377.709,290.681,377.709,289.258z"/>
		<path fill="#343434" d="M381.955,289.222v-0.036c0-3.223,2.106-4.987,4.393-4.987c1.458,0,2.359,0.666,3.007,1.44v-4.753h2.737
			v13.144h-2.737v-1.387c-0.666,0.9-1.584,1.566-3.007,1.566C384.098,294.209,381.955,292.445,381.955,289.222z M389.391,289.222
			v-0.036c0-1.603-1.062-2.664-2.341-2.664s-2.359,1.044-2.359,2.664v0.036c0,1.603,1.081,2.665,2.359,2.665
			S389.391,290.824,389.391,289.222z"/>
		<path fill="#343434" d="M394.465,290.626v-6.247h2.737v5.383c0,1.297,0.612,1.963,1.657,1.963c1.044,0,1.71-0.666,1.71-1.963
			v-5.383h2.737v9.65h-2.737v-1.368c-0.63,0.81-1.44,1.548-2.827,1.548C395.671,294.209,394.465,292.841,394.465,290.626z"/>
		<path fill="#343434" d="M405.877,280.886h2.737v13.144h-2.737V280.886z"/>
		<path fill="#343434" d="M410.718,289.258v-0.036c0-2.755,1.962-5.023,4.771-5.023c3.223,0,4.699,2.503,4.699,5.239
			c0,0.217-0.018,0.469-0.036,0.721h-6.716c0.27,1.242,1.134,1.891,2.359,1.891c0.918,0,1.584-0.288,2.34-0.99l1.566,1.387
			c-0.9,1.116-2.196,1.8-3.943,1.8C412.861,294.245,410.718,292.211,410.718,289.258z M417.524,288.447
			c-0.162-1.224-0.882-2.053-2.035-2.053c-1.134,0-1.873,0.811-2.089,2.053H417.524z"/>
		<path fill="#343434" d="M421.464,292.751l1.17-1.801c1.044,0.757,2.143,1.152,3.042,1.152c0.792,0,1.152-0.288,1.152-0.72v-0.036
			c0-0.595-0.936-0.792-1.999-1.116c-1.35-0.396-2.881-1.026-2.881-2.899v-0.036c0-1.962,1.584-3.061,3.529-3.061
			c1.224,0,2.557,0.414,3.601,1.116l-1.044,1.891c-0.954-0.558-1.909-0.9-2.611-0.9c-0.666,0-1.008,0.288-1.008,0.666v0.036
			c0,0.54,0.918,0.793,1.963,1.152c1.35,0.45,2.917,1.099,2.917,2.863v0.036c0,2.143-1.603,3.114-3.691,3.114
			C424.254,294.209,422.742,293.759,421.464,292.751z"/>
	</g>
	<g>
		<path d="M9.962,169.663l-4.843-7.634H8.36l3.007,5.06l3.061-5.06h3.151l-4.843,7.58v5.023H9.962V169.663z"/>
		<path d="M16.567,169.861v-0.036c0-2.772,2.232-5.023,5.239-5.023c2.989,0,5.204,2.215,5.204,4.987v0.036
			c0,2.773-2.232,5.023-5.239,5.023C18.781,174.849,16.567,172.634,16.567,169.861z M24.309,169.861v-0.036
			c0-1.422-1.026-2.665-2.539-2.665c-1.566,0-2.503,1.207-2.503,2.629v0.036c0,1.423,1.026,2.665,2.539,2.665
			C23.373,172.49,24.309,171.284,24.309,169.861z"/>
		<path d="M28.915,171.23v-6.247h2.737v5.383c0,1.297,0.612,1.963,1.657,1.963c1.044,0,1.71-0.666,1.71-1.963v-5.383h2.737v9.65
			h-2.737v-1.368c-0.63,0.81-1.44,1.548-2.827,1.548C30.122,174.813,28.915,173.444,28.915,171.23z"/>
		<path d="M43.424,164.586h-3.835v-2.557h10.443v2.557h-3.835v10.047h-2.773V164.586z"/>
		<path d="M50.785,164.982h2.736v1.944c0.559-1.333,1.458-2.197,3.079-2.125v2.863h-0.144c-1.818,0-2.935,1.098-2.935,3.402v3.565
			h-2.736V164.982z"/>
		<path d="M57.282,171.86v-0.036c0-2.106,1.603-3.079,3.89-3.079c0.972,0,1.674,0.162,2.358,0.396v-0.162
			c0-1.135-0.702-1.765-2.07-1.765c-1.044,0-1.783,0.198-2.665,0.521l-0.684-2.088c1.062-0.469,2.106-0.774,3.745-0.774
			c1.494,0,2.575,0.396,3.259,1.08c0.72,0.721,1.044,1.782,1.044,3.079v5.6h-2.647v-1.044c-0.666,0.738-1.584,1.224-2.917,1.224
			C58.777,174.813,57.282,173.769,57.282,171.86z M63.566,171.23v-0.485c-0.468-0.217-1.081-0.36-1.747-0.36
			c-1.17,0-1.891,0.468-1.891,1.332v0.036c0,0.738,0.612,1.17,1.495,1.17C62.702,172.922,63.566,172.22,63.566,171.23z"/>
		<path d="M68.046,169.861v-0.036c0-2.755,2.106-5.023,5.06-5.023c1.818,0,2.953,0.612,3.853,1.62l-1.675,1.801
			c-0.612-0.648-1.224-1.062-2.196-1.062c-1.369,0-2.341,1.207-2.341,2.629v0.036c0,1.477,0.954,2.665,2.449,2.665
			c0.918,0,1.548-0.396,2.215-1.026l1.602,1.62c-0.936,1.026-2.017,1.765-3.943,1.765C70.171,174.849,68.046,172.616,68.046,169.861
			z"/>
		<path d="M78.792,161.489h2.737v7.004l3.205-3.511h3.277l-3.673,3.799l3.799,5.852h-3.169l-2.467-3.961l-0.972,1.026v2.935h-2.737
			V161.489z"/>
	</g>
	<g>
		<path fill="#343434" d="M5.461,14.914l1.026-0.882c0.774,1.17,1.566,1.8,2.881,1.8c1.422,0,2.467-1.025,2.467-3.024V4.363h1.44
			v8.426c0,1.477-0.432,2.594-1.152,3.313c-0.702,0.685-1.657,1.044-2.773,1.044C7.459,17.146,6.253,16.21,5.461,14.914z"/>
		<path fill="#343434" d="M15.829,12.339v-0.036c0-2.683,1.891-4.844,4.465-4.844c2.755,0,4.339,2.196,4.339,4.915
			c0,0.181,0,0.288-0.018,0.45h-7.382c0.198,2.017,1.621,3.151,3.277,3.151c1.278,0,2.179-0.522,2.935-1.314l0.864,0.774
			c-0.936,1.044-2.07,1.746-3.835,1.746C17.918,17.182,15.829,15.22,15.829,12.339z M23.229,11.798
			c-0.144-1.692-1.116-3.169-2.971-3.169c-1.621,0-2.845,1.351-3.025,3.169H23.229z"/>
		<path fill="#343434" d="M27.547,14.5V8.882h-1.296V7.658h1.296V4.849h1.386v2.809h2.953v1.225h-2.953v5.438
			c0,1.134,0.63,1.548,1.566,1.548c0.468,0,0.864-0.09,1.351-0.324v1.188c-0.486,0.252-1.008,0.396-1.674,0.396
			C28.682,17.128,27.547,16.39,27.547,14.5z"/>
		<path fill="#343434" d="M34.567,4.363h5.365c1.44,0,2.575,0.414,3.295,1.116c0.522,0.54,0.811,1.206,0.811,2.017v0.036
			c0,1.639-1.008,2.484-1.999,2.917c1.494,0.45,2.701,1.314,2.701,3.043v0.035c0,2.161-1.818,3.439-4.573,3.439h-5.6V4.363z
			 M42.598,7.694c0-1.243-0.99-2.053-2.791-2.053h-3.835V9.98h3.727c1.71,0,2.899-0.774,2.899-2.25V7.694z M39.951,11.241h-3.979
			v4.447h4.231c1.908,0,3.097-0.847,3.097-2.251v-0.036C43.3,12.033,42.147,11.241,39.951,11.241z"/>
		<path fill="#343434" d="M47.329,7.658h1.387v2.431c0.684-1.549,2.035-2.665,3.799-2.593V8.99h-0.108
			c-2.035,0-3.691,1.459-3.691,4.268v3.709h-1.387V7.658z"/>
		<path fill="#343434" d="M53.466,14.265V14.23c0-1.963,1.621-3.008,3.979-3.008c1.188,0,2.035,0.162,2.863,0.396v-0.324
			c0-1.674-1.026-2.539-2.773-2.539c-1.098,0-1.962,0.289-2.827,0.685l-0.415-1.134c1.026-0.469,2.035-0.774,3.385-0.774
			c1.314,0,2.323,0.342,3.007,1.026c0.63,0.63,0.954,1.53,0.954,2.719v5.689h-1.332v-1.404c-0.648,0.846-1.729,1.603-3.367,1.603
			C55.213,17.165,53.466,16.174,53.466,14.265z M60.326,13.545v-0.9c-0.684-0.198-1.602-0.396-2.736-0.396
			c-1.747,0-2.719,0.757-2.719,1.927v0.036c0,1.171,1.081,1.854,2.341,1.854C58.922,16.066,60.326,15.022,60.326,13.545z"/>
		<path fill="#343434" d="M64.626,4.092h1.584v1.53h-1.584V4.092z M64.716,7.658h1.387v9.309h-1.387V7.658z"/>
		<path fill="#343434" d="M69.324,7.658h1.387v1.62c0.612-1.008,1.584-1.818,3.187-1.818c2.251,0,3.565,1.513,3.565,3.728v5.779
			h-1.387v-5.437c0-1.729-0.936-2.809-2.575-2.809c-1.603,0-2.791,1.17-2.791,2.916v5.33h-1.387V7.658z"/>
		<path fill="#343434" d="M79.638,15.778l0.702-0.99c1.008,0.756,2.125,1.188,3.223,1.188c1.117,0,1.927-0.576,1.927-1.477v-0.036
			c0-0.937-1.098-1.296-2.323-1.639c-1.458-0.414-3.079-0.918-3.079-2.628v-0.036c0-1.603,1.333-2.665,3.169-2.665
			c1.135,0,2.395,0.396,3.349,1.026l-0.63,1.044c-0.864-0.558-1.855-0.9-2.755-0.9c-1.099,0-1.801,0.576-1.801,1.351v0.036
			c0,0.882,1.152,1.225,2.395,1.603c1.44,0.432,2.989,0.99,2.989,2.665v0.036c0,1.764-1.458,2.79-3.313,2.79
			C82.159,17.146,80.682,16.625,79.638,15.778z"/>
		<path fill="#343434" d="M9.962,30.677h-4.25v-1.314h9.921v1.314h-4.249v11.289H9.962V30.677z"/>
		<path fill="#343434" d="M15.199,37.339v-0.036c0-2.683,1.891-4.844,4.465-4.844c2.755,0,4.339,2.196,4.339,4.915
			c0,0.181,0,0.288-0.018,0.45h-7.382c0.198,2.017,1.621,3.151,3.277,3.151c1.278,0,2.179-0.522,2.935-1.314l0.864,0.774
			c-0.936,1.044-2.07,1.746-3.835,1.746C17.288,42.182,15.199,40.22,15.199,37.339z M22.6,36.798
			c-0.144-1.692-1.116-3.169-2.971-3.169c-1.621,0-2.845,1.351-3.025,3.169H22.6z"/>
		<path fill="#343434" d="M25.729,39.265V39.23c0-1.963,1.621-3.008,3.979-3.008c1.188,0,2.035,0.162,2.863,0.396v-0.324
			c0-1.674-1.026-2.539-2.773-2.539c-1.098,0-1.962,0.289-2.827,0.685l-0.415-1.134c1.026-0.469,2.035-0.774,3.385-0.774
			c1.314,0,2.323,0.342,3.007,1.026c0.63,0.63,0.954,1.53,0.954,2.719v5.689h-1.332v-1.404c-0.648,0.846-1.729,1.603-3.367,1.603
			C27.476,42.165,25.729,41.174,25.729,39.265z M32.589,38.545v-0.9c-0.684-0.198-1.602-0.396-2.736-0.396
			c-1.747,0-2.719,0.757-2.719,1.927v0.036c0,1.171,1.081,1.854,2.341,1.854C31.185,41.066,32.589,40.022,32.589,38.545z"/>
		<path fill="#343434" d="M36.853,32.658h1.387v1.566c0.612-0.918,1.44-1.765,3.007-1.765c1.512,0,2.485,0.811,2.989,1.854
			c0.666-1.026,1.656-1.854,3.277-1.854c2.143,0,3.457,1.44,3.457,3.745v5.762h-1.386v-5.438c0-1.801-0.9-2.809-2.413-2.809
			c-1.405,0-2.575,1.044-2.575,2.881v5.365h-1.369v-5.474c0-1.746-0.918-2.772-2.395-2.772c-1.477,0-2.593,1.224-2.593,2.935v5.312
			h-1.387V32.658z"/>
		<path fill="#343434" d="M62.828,30.677h-4.25v-1.314H68.5v1.314h-4.25v11.289h-1.422V30.677z"/>
		<path fill="#343434" d="M68.065,37.357v-0.036c0-2.629,2.053-4.861,4.862-4.861c2.791,0,4.843,2.196,4.843,4.825v0.036
			c0,2.629-2.071,4.861-4.879,4.861C70.1,42.182,68.065,39.986,68.065,37.357z M76.348,37.357v-0.036
			c0-1.998-1.495-3.637-3.457-3.637c-2.017,0-3.403,1.639-3.403,3.601v0.036c0,1.999,1.477,3.619,3.439,3.619
			C74.943,40.94,76.348,39.32,76.348,37.357z"/>
		<path fill="#343434" d="M79.693,37.357v-0.036c0-2.629,2.053-4.861,4.862-4.861c2.791,0,4.843,2.196,4.843,4.825v0.036
			c0,2.629-2.071,4.861-4.879,4.861C81.728,42.182,79.693,39.986,79.693,37.357z M87.976,37.357v-0.036
			c0-1.998-1.495-3.637-3.457-3.637c-2.017,0-3.403,1.639-3.403,3.601v0.036c0,1.999,1.477,3.619,3.439,3.619
			C86.571,40.94,87.976,39.32,87.976,37.357z"/>
		<path fill="#343434" d="M92.023,28.823h1.387v13.144h-1.387V28.823z"/>
		<path fill="#343434" d="M95.856,40.778l0.702-0.99c1.008,0.756,2.125,1.188,3.223,1.188c1.117,0,1.927-0.576,1.927-1.477v-0.036
			c0-0.937-1.098-1.296-2.323-1.639c-1.458-0.414-3.079-0.918-3.079-2.628v-0.036c0-1.603,1.332-2.665,3.169-2.665
			c1.134,0,2.395,0.396,3.349,1.026l-0.63,1.044c-0.864-0.558-1.854-0.9-2.755-0.9c-1.099,0-1.801,0.576-1.801,1.351v0.036
			c0,0.882,1.152,1.225,2.395,1.603c1.44,0.432,2.989,0.99,2.989,2.665v0.036c0,1.764-1.458,2.79-3.313,2.79
			C98.377,42.146,96.9,41.625,95.856,40.778z"/>
	</g>
	<g>
		<path fill="#343434" d="M617.646,4.273h1.333l5.743,12.693h-1.53l-1.477-3.331h-6.859l-1.495,3.331h-1.458L617.646,4.273z
			 M621.157,12.357l-2.863-6.428l-2.881,6.428H621.157z"/>
		<path fill="#343434" d="M627.094,3.823h1.387v13.144h-1.387V3.823z"/>
		<path fill="#343434" d="M631.828,3.823h1.387v13.144h-1.387V3.823z"/>
		<path fill="#343434" d="M646.732,4.273h1.333l5.743,12.693h-1.53l-1.477-3.331h-6.859l-1.495,3.331h-1.458L646.732,4.273z
			 M650.244,12.357l-2.863-6.428l-2.881,6.428H650.244z"/>
		<path fill="#343434" d="M656.056,7.658h1.387V9.53c0.756-1.116,1.854-2.07,3.564-2.07c2.232,0,4.447,1.765,4.447,4.825v0.036
			c0,3.043-2.196,4.844-4.447,4.844c-1.729,0-2.845-0.937-3.564-1.98v4.663h-1.387V7.658z M664.032,12.339v-0.036
			c0-2.197-1.513-3.602-3.277-3.602c-1.729,0-3.367,1.459-3.367,3.583v0.036c0,2.161,1.639,3.602,3.367,3.602
			C662.556,15.922,664.032,14.589,664.032,12.339z"/>
		<path fill="#343434" d="M668.007,7.658h1.387V9.53c0.756-1.116,1.854-2.07,3.565-2.07c2.232,0,4.447,1.765,4.447,4.825v0.036
			c0,3.043-2.197,4.844-4.447,4.844c-1.729,0-2.845-0.937-3.565-1.98v4.663h-1.387V7.658z M675.983,12.339v-0.036
			c0-2.197-1.513-3.602-3.276-3.602c-1.729,0-3.367,1.459-3.367,3.583v0.036c0,2.161,1.639,3.602,3.367,3.602
			C674.507,15.922,675.983,14.589,675.983,12.339z"/>
		<path fill="#343434" d="M680.085,3.823h1.387v13.144h-1.387V3.823z"/>
		<path fill="#343434" d="M684.729,4.092h1.585v1.53h-1.585V4.092z M684.818,7.658h1.387v9.309h-1.387V7.658z"/>
		<path fill="#343434" d="M688.851,12.357v-0.036c0-2.629,2.053-4.861,4.771-4.861c1.765,0,2.862,0.738,3.727,1.656l-0.918,0.973
			c-0.738-0.774-1.566-1.404-2.827-1.404c-1.891,0-3.331,1.603-3.331,3.601v0.036c0,2.017,1.477,3.619,3.422,3.619
			c1.188,0,2.106-0.594,2.845-1.387l0.882,0.829c-0.937,1.044-2.053,1.8-3.799,1.8C690.903,17.182,688.851,14.967,688.851,12.357z"
			/>
		<path fill="#343434" d="M699.002,14.265V14.23c0-1.963,1.621-3.008,3.979-3.008c1.188,0,2.034,0.162,2.863,0.396v-0.324
			c0-1.674-1.026-2.539-2.773-2.539c-1.099,0-1.963,0.289-2.827,0.685l-0.414-1.134c1.026-0.469,2.035-0.774,3.386-0.774
			c1.314,0,2.322,0.342,3.007,1.026c0.63,0.63,0.954,1.53,0.954,2.719v5.689h-1.332v-1.404c-0.648,0.846-1.729,1.603-3.367,1.603
			C700.749,17.165,699.002,16.174,699.002,14.265z M705.862,13.545v-0.9c-0.685-0.198-1.603-0.396-2.737-0.396
			c-1.746,0-2.719,0.757-2.719,1.927v0.036c0,1.171,1.081,1.854,2.341,1.854C704.458,16.066,705.862,15.022,705.862,13.545z"/>
		<path fill="#343434" d="M710.522,14.5V8.882h-1.296V7.658h1.296V4.849h1.387v2.809h2.953v1.225h-2.953v5.438
			c0,1.134,0.63,1.548,1.566,1.548c0.468,0,0.864-0.09,1.351-0.324v1.188c-0.486,0.252-1.009,0.396-1.675,0.396
			C711.657,17.128,710.522,16.39,710.522,14.5z"/>
		<path fill="#343434" d="M717.345,4.092h1.584v1.53h-1.584V4.092z M717.435,7.658h1.387v9.309h-1.387V7.658z"/>
		<path fill="#343434" d="M721.466,12.357v-0.036c0-2.629,2.053-4.861,4.861-4.861c2.791,0,4.844,2.196,4.844,4.825v0.036
			c0,2.629-2.071,4.861-4.88,4.861C723.5,17.182,721.466,14.986,721.466,12.357z M729.748,12.357v-0.036
			c0-1.998-1.494-3.637-3.457-3.637c-2.017,0-3.403,1.639-3.403,3.601v0.036c0,1.999,1.477,3.619,3.439,3.619
			C728.344,15.94,729.748,14.32,729.748,12.357z"/>
		<path fill="#343434" d="M733.67,7.658h1.387v1.62c0.611-1.008,1.584-1.818,3.187-1.818c2.251,0,3.565,1.513,3.565,3.728v5.779
			h-1.387v-5.437c0-1.729-0.937-2.809-2.575-2.809c-1.603,0-2.79,1.17-2.79,2.916v5.33h-1.387V7.658z"/>
		<path fill="#343434" d="M743.983,15.778l0.702-0.99c1.009,0.756,2.125,1.188,3.223,1.188c1.117,0,1.927-0.576,1.927-1.477v-0.036
			c0-0.937-1.098-1.296-2.322-1.639c-1.459-0.414-3.079-0.918-3.079-2.628v-0.036c0-1.603,1.332-2.665,3.169-2.665
			c1.135,0,2.395,0.396,3.349,1.026l-0.63,1.044c-0.864-0.558-1.854-0.9-2.755-0.9c-1.099,0-1.801,0.576-1.801,1.351v0.036
			c0,0.882,1.152,1.225,2.396,1.603c1.44,0.432,2.988,0.99,2.988,2.665v0.036c0,1.764-1.458,2.79-3.312,2.79
			C746.504,17.146,745.027,16.625,743.983,15.778z"/>
		<path fill="#343434" d="M613.234,39.5v-5.617h-1.296v-1.225h1.296v-2.809h1.387v2.809h2.953v1.225h-2.953v5.438
			c0,1.134,0.63,1.548,1.566,1.548c0.468,0,0.864-0.09,1.351-0.324v1.188c-0.486,0.252-1.009,0.396-1.675,0.396
			C614.369,42.128,613.234,41.39,613.234,39.5z"/>
		<path fill="#343434" d="M620.021,28.823h1.387v5.455c0.611-1.008,1.584-1.818,3.187-1.818c2.251,0,3.565,1.513,3.565,3.728v5.779
			h-1.387v-5.438c0-1.729-0.937-2.809-2.575-2.809c-1.603,0-2.79,1.17-2.79,2.916v5.33h-1.387V28.823z"/>
		<path fill="#343434" d="M630.406,39.265V39.23c0-1.963,1.62-3.008,3.979-3.008c1.188,0,2.035,0.162,2.863,0.396v-0.324
			c0-1.674-1.026-2.539-2.772-2.539c-1.099,0-1.963,0.289-2.827,0.685l-0.414-1.134c1.026-0.469,2.034-0.774,3.385-0.774
			c1.314,0,2.323,0.342,3.007,1.026c0.631,0.63,0.954,1.53,0.954,2.719v5.689h-1.332v-1.404c-0.648,0.846-1.729,1.603-3.367,1.603
			C632.152,42.165,630.406,41.174,630.406,39.265z M637.266,38.545v-0.9c-0.684-0.198-1.602-0.396-2.736-0.396
			c-1.746,0-2.719,0.757-2.719,1.927v0.036c0,1.171,1.08,1.854,2.341,1.854C635.861,41.066,637.266,40.022,637.266,38.545z"/>
		<path fill="#343434" d="M641.927,39.5v-5.617h-1.297v-1.225h1.297v-2.809h1.386v2.809h2.953v1.225h-2.953v5.438
			c0,1.134,0.631,1.548,1.566,1.548c0.469,0,0.864-0.09,1.351-0.324v1.188c-0.486,0.252-1.008,0.396-1.674,0.396
			C643.061,42.128,641.927,41.39,641.927,39.5z"/>
		<path fill="#343434" d="M653.338,40.778l0.702-0.99c1.009,0.756,2.125,1.188,3.223,1.188c1.117,0,1.927-0.576,1.927-1.477v-0.036
			c0-0.937-1.098-1.296-2.322-1.639c-1.459-0.414-3.079-0.918-3.079-2.628v-0.036c0-1.603,1.332-2.665,3.169-2.665
			c1.135,0,2.395,0.396,3.349,1.026l-0.63,1.044c-0.864-0.558-1.854-0.9-2.755-0.9c-1.099,0-1.801,0.576-1.801,1.351v0.036
			c0,0.882,1.152,1.225,2.396,1.603c1.44,0.432,2.988,0.99,2.988,2.665v0.036c0,1.764-1.458,2.79-3.312,2.79
			C655.858,42.146,654.382,41.625,653.338,40.778z"/>
		<path fill="#343434" d="M662.932,38.437v-5.779h1.387v5.438c0,1.729,0.936,2.809,2.574,2.809c1.585,0,2.791-1.17,2.791-2.917
			v-5.329h1.368v9.309h-1.368v-1.62c-0.63,1.008-1.585,1.818-3.188,1.818C664.246,42.165,662.932,40.652,662.932,38.437z"/>
		<path fill="#343434" d="M674.163,32.658h1.387v1.872c0.756-1.116,1.854-2.07,3.565-2.07c2.232,0,4.447,1.765,4.447,4.825v0.036
			c0,3.043-2.197,4.844-4.447,4.844c-1.729,0-2.845-0.937-3.565-1.98v4.663h-1.387V32.658z M682.14,37.339v-0.036
			c0-2.197-1.513-3.602-3.276-3.602c-1.729,0-3.367,1.459-3.367,3.583v0.036c0,2.161,1.639,3.602,3.367,3.602
			C680.663,40.922,682.14,39.589,682.14,37.339z"/>
		<path fill="#343434" d="M686.115,32.658h1.387v1.872c0.756-1.116,1.854-2.07,3.565-2.07c2.232,0,4.447,1.765,4.447,4.825v0.036
			c0,3.043-2.197,4.844-4.447,4.844c-1.729,0-2.845-0.937-3.565-1.98v4.663h-1.387V32.658z M694.092,37.339v-0.036
			c0-2.197-1.513-3.602-3.276-3.602c-1.729,0-3.367,1.459-3.367,3.583v0.036c0,2.161,1.639,3.602,3.367,3.602
			C692.615,40.922,694.092,39.589,694.092,37.339z"/>
		<path fill="#343434" d="M697.491,37.357v-0.036c0-2.629,2.053-4.861,4.861-4.861c2.791,0,4.844,2.196,4.844,4.825v0.036
			c0,2.629-2.071,4.861-4.88,4.861C699.525,42.182,697.491,39.986,697.491,37.357z M705.773,37.357v-0.036
			c0-1.998-1.494-3.637-3.457-3.637c-2.017,0-3.403,1.639-3.403,3.601v0.036c0,1.999,1.477,3.619,3.439,3.619
			C704.369,40.94,705.773,39.32,705.773,37.357z"/>
		<path fill="#343434" d="M709.695,32.658h1.387v2.431c0.684-1.549,2.034-2.665,3.799-2.593v1.494h-0.108
			c-2.034,0-3.69,1.459-3.69,4.268v3.709h-1.387V32.658z"/>
		<path fill="#343434" d="M717.472,39.5v-5.617h-1.297v-1.225h1.297v-2.809h1.386v2.809h2.953v1.225h-2.953v5.438
			c0,1.134,0.631,1.548,1.566,1.548c0.469,0,0.864-0.09,1.351-0.324v1.188c-0.486,0.252-1.008,0.396-1.674,0.396
			C718.605,42.128,717.472,41.39,717.472,39.5z"/>
		<path fill="#343434" d="M729.062,40.129l0.882-1.044c1.314,1.188,2.575,1.782,4.321,1.782c1.692,0,2.81-0.9,2.81-2.143v-0.036
			c0-1.17-0.631-1.836-3.277-2.395c-2.898-0.63-4.231-1.566-4.231-3.637v-0.036c0-1.98,1.747-3.439,4.142-3.439
			c1.836,0,3.15,0.522,4.429,1.549l-0.828,1.099c-1.17-0.955-2.341-1.369-3.637-1.369c-1.639,0-2.683,0.9-2.683,2.035v0.036
			c0,1.188,0.647,1.854,3.421,2.448c2.809,0.612,4.105,1.639,4.105,3.565v0.036c0,2.16-1.801,3.564-4.304,3.564
			C732.213,42.146,730.575,41.48,729.062,40.129z"/>
		<path fill="#343434" d="M745.804,29.273h1.333l5.743,12.693h-1.53l-1.477-3.331h-6.859l-1.495,3.331h-1.458L745.804,29.273z
			 M749.315,37.357l-2.863-6.428l-2.881,6.428H749.315z"/>
		<path fill="#343434" d="M755.36,29.363h1.44l4.592,6.878l4.591-6.878h1.44v12.604h-1.422V31.757l-4.592,6.752h-0.072l-4.591-6.734
			v10.191h-1.387V29.363z"/>
		<path fill="#343434" d="M770.984,29.363h1.423v11.289h7.094v1.314h-8.517V29.363z"/>
		<path fill="#343434" d="M786.536,40.868l4.573-4.033c1.927-1.729,2.629-2.7,2.629-3.961c0-1.477-1.171-2.413-2.539-2.413
			c-1.44,0-2.377,0.757-3.385,2.161l-1.045-0.756c1.135-1.693,2.323-2.684,4.538-2.684c2.269,0,3.907,1.513,3.907,3.565v0.036
			c0,1.837-0.973,2.971-3.188,4.897l-3.367,2.988h6.681v1.297h-8.805V40.868z"/>
		<path fill="#343434" d="M797.821,40.076h1.657v1.891h-1.657V40.076z"/>
		<path fill="#343434" d="M801.602,35.701v-0.036c0-3.529,2.107-6.519,5.348-6.519c3.241,0,5.294,2.953,5.294,6.482v0.036
			c0,3.529-2.089,6.518-5.33,6.518C803.654,42.182,801.602,39.23,801.602,35.701z M810.767,35.701v-0.036
			c0-2.755-1.513-5.222-3.854-5.222c-2.358,0-3.835,2.413-3.835,5.186v0.036c0,2.755,1.513,5.222,3.871,5.222
			C809.309,40.886,810.767,38.456,810.767,35.701z"/>
		<path fill="#343434" d="M612.046,64.265V64.23c0-1.963,1.621-3.008,3.979-3.008c1.188,0,2.034,0.162,2.863,0.396v-0.324
			c0-1.674-1.026-2.539-2.773-2.539c-1.099,0-1.963,0.289-2.827,0.685l-0.414-1.134c1.026-0.469,2.035-0.774,3.386-0.774
			c1.314,0,2.322,0.342,3.007,1.026c0.63,0.63,0.954,1.53,0.954,2.719v5.689h-1.332v-1.404c-0.648,0.846-1.729,1.603-3.367,1.603
			C613.793,67.165,612.046,66.174,612.046,64.265z M618.906,63.545v-0.9c-0.685-0.198-1.603-0.396-2.737-0.396
			c-1.746,0-2.719,0.757-2.719,1.927v0.036c0,1.171,1.081,1.854,2.341,1.854C617.502,66.066,618.906,65.022,618.906,63.545z"/>
		<path fill="#343434" d="M623.026,63.437v-5.779h1.387v5.438c0,1.729,0.936,2.809,2.574,2.809c1.585,0,2.791-1.17,2.791-2.917
			v-5.329h1.368v9.309h-1.368v-1.62c-0.63,1.008-1.585,1.818-3.188,1.818C624.341,67.165,623.026,65.652,623.026,63.437z"/>
		<path fill="#343434" d="M634.744,64.5v-5.617h-1.296v-1.225h1.296v-2.809h1.387v2.809h2.953v1.225h-2.953v5.438
			c0,1.134,0.63,1.548,1.566,1.548c0.468,0,0.864-0.09,1.351-0.324v1.188c-0.486,0.252-1.009,0.396-1.675,0.396
			C635.879,67.128,634.744,66.39,634.744,64.5z"/>
		<path fill="#343434" d="M641.53,53.823h1.387v5.455c0.611-1.008,1.584-1.818,3.187-1.818c2.251,0,3.565,1.513,3.565,3.728v5.779
			h-1.387v-5.438c0-1.729-0.937-2.809-2.575-2.809c-1.603,0-2.79,1.17-2.79,2.916v5.33h-1.387V53.823z"/>
		<path fill="#343434" d="M652.042,62.339v-0.036c0-2.683,1.891-4.844,4.465-4.844c2.755,0,4.34,2.196,4.34,4.915
			c0,0.181,0,0.288-0.019,0.45h-7.382c0.198,2.017,1.62,3.151,3.277,3.151c1.278,0,2.179-0.522,2.935-1.314l0.864,0.774
			c-0.937,1.044-2.07,1.746-3.835,1.746C654.131,67.182,652.042,65.22,652.042,62.339z M659.442,61.798
			c-0.145-1.692-1.116-3.169-2.972-3.169c-1.62,0-2.845,1.351-3.024,3.169H659.442z"/>
		<path fill="#343434" d="M663.273,57.658h1.387v1.62c0.612-1.008,1.585-1.818,3.187-1.818c2.251,0,3.565,1.513,3.565,3.728v5.779
			h-1.387v-5.438c0-1.729-0.936-2.809-2.574-2.809c-1.603,0-2.791,1.17-2.791,2.916v5.33h-1.387V57.658z"/>
		<path fill="#343434" d="M674.849,64.5v-5.617h-1.297v-1.225h1.297v-2.809h1.386v2.809h2.953v1.225h-2.953v5.438
			c0,1.134,0.631,1.548,1.566,1.548c0.469,0,0.864-0.09,1.351-0.324v1.188c-0.486,0.252-1.008,0.396-1.674,0.396
			C675.982,67.128,674.849,66.39,674.849,64.5z"/>
		<path fill="#343434" d="M681.67,54.092h1.584v1.53h-1.584V54.092z M681.76,57.658h1.387v9.309h-1.387V57.658z"/>
		<path fill="#343434" d="M685.791,62.357v-0.036c0-2.629,2.053-4.861,4.771-4.861c1.765,0,2.863,0.738,3.728,1.656l-0.918,0.973
			c-0.738-0.774-1.567-1.404-2.827-1.404c-1.891,0-3.331,1.603-3.331,3.601v0.036c0,2.017,1.477,3.619,3.421,3.619
			c1.188,0,2.106-0.594,2.845-1.387l0.883,0.829c-0.937,1.044-2.053,1.8-3.8,1.8C687.844,67.182,685.791,64.967,685.791,62.357z"/>
		<path fill="#343434" d="M695.943,64.265V64.23c0-1.963,1.62-3.008,3.979-3.008c1.188,0,2.035,0.162,2.863,0.396v-0.324
			c0-1.674-1.026-2.539-2.772-2.539c-1.099,0-1.963,0.289-2.827,0.685l-0.414-1.134c1.026-0.469,2.034-0.774,3.385-0.774
			c1.314,0,2.323,0.342,3.007,1.026c0.631,0.63,0.954,1.53,0.954,2.719v5.689h-1.332v-1.404c-0.648,0.846-1.729,1.603-3.367,1.603
			C697.689,67.165,695.943,66.174,695.943,64.265z M702.803,63.545v-0.9c-0.684-0.198-1.602-0.396-2.736-0.396
			c-1.746,0-2.719,0.757-2.719,1.927v0.036c0,1.171,1.08,1.854,2.341,1.854C701.398,66.066,702.803,65.022,702.803,63.545z"/>
		<path fill="#343434" d="M707.464,64.5v-5.617h-1.297v-1.225h1.297v-2.809h1.386v2.809h2.953v1.225h-2.953v5.438
			c0,1.134,0.631,1.548,1.566,1.548c0.469,0,0.864-0.09,1.351-0.324v1.188c-0.486,0.252-1.008,0.396-1.674,0.396
			C708.598,67.128,707.464,66.39,707.464,64.5z"/>
		<path fill="#343434" d="M714.285,54.092h1.585v1.53h-1.585V54.092z M714.375,57.658h1.387v9.309h-1.387V57.658z"/>
		<path fill="#343434" d="M718.407,62.357v-0.036c0-2.629,2.053-4.861,4.861-4.861c2.791,0,4.844,2.196,4.844,4.825v0.036
			c0,2.629-2.071,4.861-4.88,4.861C720.441,67.182,718.407,64.986,718.407,62.357z M726.689,62.357v-0.036
			c0-1.998-1.494-3.637-3.457-3.637c-2.017,0-3.403,1.639-3.403,3.601v0.036c0,1.999,1.477,3.619,3.439,3.619
			C725.285,65.94,726.689,64.32,726.689,62.357z"/>
		<path fill="#343434" d="M730.611,57.658h1.387v1.62c0.611-1.008,1.584-1.818,3.187-1.818c2.251,0,3.565,1.513,3.565,3.728v5.779
			h-1.387v-5.438c0-1.729-0.937-2.809-2.575-2.809c-1.603,0-2.79,1.17-2.79,2.916v5.33h-1.387V57.658z"/>
	</g>
	<g>
		<path d="M6.217,280.028v-7.202H8.99v7.13c0,2.053,1.026,3.115,2.719,3.115s2.719-1.026,2.719-3.025v-7.22h2.773v7.112
			c0,3.816-2.143,5.689-5.528,5.689S6.217,283.737,6.217,280.028z"/>
		<path d="M19.735,275.779h2.736v1.386c0.667-0.9,1.585-1.566,3.007-1.566c2.25,0,4.393,1.765,4.393,4.987v0.036
			c0,3.224-2.106,4.987-4.393,4.987c-1.458,0-2.359-0.666-3.007-1.44v4.142h-2.736V275.779z M27.135,280.622v-0.036
			c0-1.603-1.08-2.664-2.359-2.664c-1.278,0-2.34,1.062-2.34,2.664v0.036c0,1.603,1.062,2.665,2.34,2.665
			C26.055,283.287,27.135,282.243,27.135,280.622z"/>
		<path d="M31.129,284.151l1.17-1.801c1.044,0.757,2.143,1.152,3.042,1.152c0.792,0,1.152-0.288,1.152-0.72v-0.036
			c0-0.595-0.936-0.792-1.999-1.116c-1.35-0.396-2.881-1.026-2.881-2.899v-0.036c0-1.962,1.584-3.061,3.529-3.061
			c1.224,0,2.557,0.414,3.601,1.116l-1.044,1.891c-0.954-0.558-1.909-0.9-2.611-0.9c-0.666,0-1.008,0.288-1.008,0.666v0.036
			c0,0.54,0.918,0.793,1.963,1.152c1.35,0.45,2.917,1.099,2.917,2.863v0.036c0,2.143-1.603,3.114-3.691,3.114
			C33.919,285.609,32.407,285.159,31.129,284.151z"/>
		<path d="M40.453,280.658v-0.036c0-2.772,2.232-5.023,5.239-5.023c2.989,0,5.204,2.215,5.204,4.987v0.036
			c0,2.773-2.232,5.023-5.239,5.023C42.667,285.646,40.453,283.431,40.453,280.658z M48.195,280.658v-0.036
			c0-1.422-1.026-2.665-2.539-2.665c-1.567,0-2.503,1.207-2.503,2.629v0.036c0,1.423,1.026,2.665,2.539,2.665
			C47.259,283.287,48.195,282.081,48.195,280.658z"/>
		<path d="M52.801,282.026v-6.247h2.737v5.383c0,1.297,0.612,1.963,1.657,1.963c1.044,0,1.71-0.666,1.71-1.963v-5.383h2.737v9.65
			h-2.737v-1.368c-0.63,0.81-1.44,1.548-2.827,1.548C54.007,285.609,52.801,284.241,52.801,282.026z"/>
		<path d="M64.087,275.779h2.736v1.944c0.559-1.333,1.458-2.197,3.079-2.125v2.863h-0.144c-1.818,0-2.935,1.098-2.935,3.402v3.565
			h-2.736V275.779z"/>
		<path d="M70.873,280.658v-0.036c0-2.755,2.106-5.023,5.06-5.023c1.818,0,2.953,0.612,3.853,1.62l-1.675,1.801
			c-0.612-0.648-1.224-1.062-2.196-1.062c-1.369,0-2.341,1.207-2.341,2.629v0.036c0,1.477,0.954,2.665,2.449,2.665
			c0.918,0,1.548-0.396,2.215-1.026l1.602,1.62c-0.936,1.026-2.017,1.765-3.943,1.765C72.997,285.646,70.873,283.413,70.873,280.658
			z"/>
		<path d="M80.88,280.658v-0.036c0-2.755,1.962-5.023,4.771-5.023c3.223,0,4.699,2.503,4.699,5.239c0,0.217-0.018,0.469-0.036,0.721
			h-6.716c0.27,1.242,1.134,1.891,2.359,1.891c0.918,0,1.584-0.288,2.34-0.99l1.566,1.387c-0.9,1.116-2.196,1.8-3.943,1.8
			C83.023,285.646,80.88,283.611,80.88,280.658z M87.687,279.848c-0.162-1.224-0.882-2.053-2.035-2.053
			c-1.134,0-1.873,0.811-2.089,2.053H87.687z"/>
	</g>
	<g>
		<path d="M9.35,389.167H5.515v-2.557h10.443v2.557h-3.835v10.047H9.35V389.167z"/>
		<path d="M15.433,394.442v-0.036c0-2.755,1.962-5.023,4.771-5.023c3.223,0,4.699,2.503,4.699,5.239
			c0,0.217-0.018,0.469-0.036,0.721h-6.716c0.27,1.242,1.134,1.891,2.359,1.891c0.918,0,1.584-0.288,2.34-0.99l1.566,1.387
			c-0.9,1.116-2.196,1.8-3.943,1.8C17.576,399.43,15.433,397.396,15.433,394.442z M22.239,393.632
			c-0.162-1.224-0.882-2.053-2.035-2.053c-1.134,0-1.873,0.811-2.089,2.053H22.239z"/>
		<path d="M26.358,396.441v-0.036c0-2.106,1.603-3.079,3.89-3.079c0.972,0,1.674,0.162,2.358,0.396v-0.162
			c0-1.135-0.702-1.765-2.07-1.765c-1.044,0-1.783,0.198-2.665,0.521l-0.684-2.088c1.062-0.469,2.106-0.774,3.745-0.774
			c1.494,0,2.575,0.396,3.259,1.08c0.72,0.721,1.044,1.782,1.044,3.079v5.6h-2.647v-1.044c-0.666,0.738-1.584,1.224-2.917,1.224
			C27.853,399.394,26.358,398.35,26.358,396.441z M32.643,395.811v-0.485c-0.468-0.217-1.081-0.36-1.747-0.36
			c-1.17,0-1.891,0.468-1.891,1.332v0.036c0,0.738,0.612,1.17,1.495,1.17C31.778,397.503,32.643,396.801,32.643,395.811z"/>
		<path d="M37.591,389.564h2.736v1.368c0.63-0.811,1.458-1.549,2.845-1.549c1.26,0,2.214,0.559,2.719,1.53
			c0.846-0.99,1.854-1.53,3.169-1.53c2.035,0,3.259,1.225,3.259,3.547v6.284h-2.737v-5.384c0-1.296-0.576-1.962-1.603-1.962
			s-1.656,0.666-1.656,1.962v5.384h-2.737v-5.384c0-1.296-0.576-1.962-1.603-1.962s-1.657,0.666-1.657,1.962v5.384h-2.736V389.564z"
			/>
		<path d="M54.42,392.948v-0.036c0-3.583,2.701-6.519,6.572-6.519c2.376,0,3.799,0.793,4.969,1.945l-1.765,2.034
			c-0.972-0.882-1.962-1.422-3.223-1.422c-2.125,0-3.655,1.765-3.655,3.925v0.036c0,2.16,1.495,3.961,3.655,3.961
			c1.44,0,2.323-0.576,3.313-1.477l1.765,1.783c-1.296,1.386-2.737,2.25-5.167,2.25C57.175,399.43,54.42,396.567,54.42,392.948z"/>
		<path d="M68.028,386.07h2.881v2.431h-2.881V386.07z M68.101,389.564h2.737v9.65h-2.737V389.564z"/>
		<path d="M73.86,396.478v-4.574h-1.152v-2.34h1.152v-2.467h2.737v2.467h2.269v2.34h-2.269v4.124c0,0.63,0.271,0.936,0.882,0.936
			c0.504,0,0.955-0.126,1.351-0.342v2.196c-0.576,0.343-1.243,0.559-2.161,0.559C74.994,399.376,73.86,398.71,73.86,396.478z"/>
		<path d="M87.218,389.564h2.845l-3.709,9.885c-0.738,1.962-1.531,2.7-3.169,2.7c-0.991,0-1.729-0.252-2.431-0.666l0.918-1.98
			c0.36,0.216,0.81,0.378,1.17,0.378c0.468,0,0.72-0.144,0.954-0.63l-3.781-9.687h2.898l2.197,6.571L87.218,389.564z"/>
	</g>
	<g>
		<path fill="#343434" d="M305.474,320.764v-0.036c0-3.457,2.539-6.519,6.32-6.519c2.125,0,3.439,0.612,4.699,1.675l-0.918,1.08
			c-0.972-0.846-2.052-1.44-3.835-1.44c-2.791,0-4.79,2.359-4.79,5.168v0.036c0,3.007,1.927,5.239,4.988,5.239
			c1.44,0,2.772-0.558,3.637-1.26v-3.134h-3.835v-1.278h5.204v5.023c-1.17,1.045-2.935,1.927-5.06,1.927
			C307.923,327.245,305.474,324.364,305.474,320.764z"/>
		<path fill="#343434" d="M319.946,314.155h1.584v1.53h-1.584V314.155z M320.036,317.721h1.387v9.309h-1.387V317.721z"/>
		<path fill="#343434" d="M325.13,324.563v-5.617h-1.296v-1.225h1.296v-2.809h1.386v2.809h2.953v1.225h-2.953v5.438
			c0,1.134,0.63,1.548,1.566,1.548c0.468,0,0.864-0.09,1.351-0.324v1.188c-0.486,0.252-1.008,0.396-1.674,0.396
			C326.264,327.191,325.13,326.453,325.13,324.563z"/>
		<path fill="#343434" d="M332.15,314.426h1.422v5.6h7.274v-5.6h1.422v12.604h-1.422v-5.672h-7.274v5.672h-1.422V314.426z"/>
		<path fill="#343434" d="M345.451,323.5v-5.779h1.387v5.438c0,1.729,0.936,2.809,2.575,2.809c1.584,0,2.791-1.17,2.791-2.917
			v-5.329h1.369v9.309h-1.369v-1.62c-0.63,1.008-1.584,1.818-3.187,1.818C346.766,327.228,345.451,325.715,345.451,323.5z"/>
		<path fill="#343434" d="M358.07,325.247v1.782h-1.387v-13.144h1.387v5.707c0.756-1.116,1.854-2.07,3.565-2.07
			c2.232,0,4.447,1.765,4.447,4.825v0.036c0,3.043-2.197,4.844-4.447,4.844C359.906,327.228,358.79,326.291,358.07,325.247z
			 M364.66,322.402v-0.036c0-2.197-1.513-3.602-3.277-3.602c-1.729,0-3.367,1.459-3.367,3.583v0.036
			c0,2.161,1.639,3.602,3.367,3.602C363.183,325.985,364.66,324.652,364.66,322.402z"/>
		<path fill="#343434" d="M305.474,345.764v-0.036c0-3.457,2.539-6.519,6.32-6.519c2.125,0,3.439,0.612,4.699,1.675l-0.918,1.08
			c-0.972-0.846-2.052-1.44-3.835-1.44c-2.791,0-4.79,2.359-4.79,5.168v0.036c0,3.007,1.927,5.239,4.988,5.239
			c1.44,0,2.772-0.558,3.637-1.26v-3.134h-3.835v-1.278h5.204v5.023c-1.17,1.045-2.935,1.927-5.06,1.927
			C307.923,352.245,305.474,349.364,305.474,345.764z"/>
		<path fill="#343434" d="M319.333,347.42v-0.036c0-2.629,2.053-4.861,4.862-4.861c2.791,0,4.843,2.196,4.843,4.825v0.036
			c0,2.629-2.071,4.861-4.879,4.861C321.368,352.245,319.333,350.049,319.333,347.42z M327.616,347.42v-0.036
			c0-1.998-1.495-3.637-3.457-3.637c-2.017,0-3.403,1.639-3.403,3.601v0.036c0,1.999,1.477,3.619,3.439,3.619
			C326.212,351.003,327.616,349.383,327.616,347.42z"/>
		<path fill="#343434" d="M330.961,347.42v-0.036c0-2.629,2.053-4.861,4.862-4.861c2.791,0,4.843,2.196,4.843,4.825v0.036
			c0,2.629-2.071,4.861-4.879,4.861C332.996,352.245,330.961,350.049,330.961,347.42z M339.244,347.42v-0.036
			c0-1.998-1.495-3.637-3.457-3.637c-2.017,0-3.403,1.639-3.403,3.601v0.036c0,1.999,1.477,3.619,3.439,3.619
			C337.84,351.003,339.244,349.383,339.244,347.42z"/>
		<path fill="#343434" d="M343.058,353.649l0.63-1.08c1.062,0.774,2.25,1.188,3.583,1.188c2.052,0,3.385-1.135,3.385-3.312v-1.099
			c-0.81,1.08-1.944,1.962-3.655,1.962c-2.233,0-4.375-1.674-4.375-4.356v-0.036c0-2.719,2.161-4.394,4.375-4.394
			c1.746,0,2.881,0.864,3.637,1.872v-1.674h1.387v7.688c0,1.44-0.432,2.538-1.188,3.295c-0.828,0.828-2.071,1.242-3.547,1.242
			C345.74,354.946,344.3,354.514,343.058,353.649z M350.692,346.934v-0.036c0-1.908-1.657-3.15-3.421-3.15
			c-1.765,0-3.223,1.224-3.223,3.133v0.036c0,1.872,1.495,3.169,3.223,3.169C349.035,350.085,350.692,348.807,350.692,346.934z"/>
		<path fill="#343434" d="M355.243,338.886h1.387v13.144h-1.387V338.886z"/>
		<path fill="#343434" d="M359.275,347.402v-0.036c0-2.683,1.891-4.844,4.465-4.844c2.755,0,4.339,2.196,4.339,4.915
			c0,0.181,0,0.288-0.018,0.45h-7.382c0.198,2.017,1.62,3.151,3.277,3.151c1.278,0,2.179-0.522,2.935-1.314l0.864,0.774
			c-0.936,1.044-2.07,1.746-3.835,1.746C361.364,352.245,359.275,350.283,359.275,347.402z M366.675,346.861
			c-0.144-1.692-1.116-3.169-2.971-3.169c-1.62,0-2.845,1.351-3.024,3.169H366.675z"/>
		<path fill="#343434" d="M304.808,374.977l1.026-0.882c0.774,1.17,1.566,1.8,2.881,1.8c1.422,0,2.467-1.025,2.467-3.024v-8.444
			h1.44v8.426c0,1.477-0.432,2.594-1.152,3.313c-0.702,0.685-1.657,1.044-2.773,1.044
			C306.806,377.209,305.6,376.273,304.808,374.977z"/>
		<path fill="#343434" d="M315.788,364.155h1.584v1.53h-1.584V364.155z M315.878,367.721h1.387v9.309h-1.387V367.721z"/>
		<path fill="#343434" d="M320.486,367.721h1.387v2.431c0.684-1.549,2.035-2.665,3.799-2.593v1.494h-0.108
			c-2.035,0-3.691,1.459-3.691,4.268v3.709h-1.387V367.721z"/>
		<path fill="#343434" d="M326.624,374.328v-0.035c0-1.963,1.621-3.008,3.979-3.008c1.188,0,2.034,0.162,2.863,0.396v-0.324
			c0-1.674-1.026-2.539-2.773-2.539c-1.099,0-1.963,0.289-2.827,0.685l-0.414-1.134c1.026-0.469,2.035-0.774,3.385-0.774
			c1.314,0,2.323,0.342,3.007,1.026c0.63,0.63,0.954,1.53,0.954,2.719v5.689h-1.332v-1.404c-0.648,0.846-1.729,1.603-3.367,1.603
			C328.371,377.228,326.624,376.237,326.624,374.328z M333.484,373.608v-0.9c-0.685-0.198-1.603-0.396-2.737-0.396
			c-1.746,0-2.719,0.757-2.719,1.927v0.036c0,1.171,1.081,1.854,2.341,1.854C332.08,376.129,333.484,375.085,333.484,373.608z"/>
	</g>
	<g>
		<path fill="#343434" d="M405.282,314.426h1.422v11.289h7.094v1.314h-8.517V314.426z"/>
		<path fill="#343434" d="M416.352,314.426h4.375c3.961,0,6.698,2.719,6.698,6.266v0.036c0,3.547-2.737,6.302-6.698,6.302h-4.375
			V314.426z M417.774,315.74v9.975h2.953c3.187,0,5.222-2.16,5.222-4.951v-0.036c0-2.791-2.035-4.987-5.222-4.987H417.774z"/>
		<path fill="#343434" d="M434.264,314.336h1.333l5.744,12.693h-1.53l-1.477-3.331h-6.86l-1.495,3.331h-1.458L434.264,314.336z
			 M437.775,322.42l-2.863-6.428l-2.881,6.428H437.775z"/>
		<path fill="#343434" d="M443.82,314.426h4.717c2.845,0,4.717,1.512,4.717,3.997v0.036c0,2.719-2.269,4.123-4.951,4.123h-3.061
			v4.447h-1.422V314.426z M448.357,321.285c2.089,0,3.457-1.116,3.457-2.772v-0.036c0-1.801-1.351-2.736-3.385-2.736h-3.187v5.545
			H448.357z"/>
		<path fill="#343434" d="M409.225,347.042l-5.239-7.616h1.729l4.249,6.302l4.285-6.302h1.657l-5.24,7.598v5.006h-1.44V347.042z"/>
		<path fill="#343434" d="M415.434,349.328v-0.035c0-1.963,1.621-3.008,3.979-3.008c1.188,0,2.034,0.162,2.863,0.396v-0.324
			c0-1.674-1.026-2.539-2.773-2.539c-1.099,0-1.963,0.289-2.827,0.685l-0.414-1.134c1.026-0.469,2.035-0.774,3.385-0.774
			c1.314,0,2.323,0.342,3.007,1.026c0.63,0.63,0.954,1.53,0.954,2.719v5.689h-1.332v-1.404c-0.648,0.846-1.729,1.603-3.367,1.603
			C417.18,352.228,415.434,351.237,415.434,349.328z M422.294,348.608v-0.9c-0.685-0.198-1.603-0.396-2.737-0.396
			c-1.746,0-2.719,0.757-2.719,1.927v0.036c0,1.171,1.081,1.854,2.341,1.854C420.889,351.129,422.294,350.085,422.294,348.608z"/>
		<path fill="#343434" d="M426.558,338.886h1.387v5.455c0.612-1.008,1.584-1.818,3.187-1.818c2.251,0,3.565,1.513,3.565,3.728v5.779
			h-1.387v-5.438c0-1.729-0.936-2.809-2.575-2.809c-1.603,0-2.791,1.17-2.791,2.916v5.33h-1.387V338.886z"/>
		<path fill="#343434" d="M437.069,347.42v-0.036c0-2.629,2.053-4.861,4.861-4.861c2.791,0,4.844,2.196,4.844,4.825v0.036
			c0,2.629-2.071,4.861-4.879,4.861C439.104,352.245,437.069,350.049,437.069,347.42z M445.352,347.42v-0.036
			c0-1.998-1.495-3.637-3.457-3.637c-2.017,0-3.403,1.639-3.403,3.601v0.036c0,1.999,1.477,3.619,3.439,3.619
			C443.947,351.003,445.352,349.383,445.352,347.42z"/>
		<path fill="#343434" d="M448.697,347.42v-0.036c0-2.629,2.053-4.861,4.861-4.861c2.791,0,4.844,2.196,4.844,4.825v0.036
			c0,2.629-2.071,4.861-4.879,4.861C450.732,352.245,448.697,350.049,448.697,347.42z M456.98,347.42v-0.036
			c0-1.998-1.495-3.637-3.457-3.637c-2.017,0-3.403,1.639-3.403,3.601v0.036c0,1.999,1.477,3.619,3.439,3.619
			C455.575,351.003,456.98,349.383,456.98,347.42z"/>
		<path fill="#343434" d="M460.974,350.139h1.656v1.891h-1.656V350.139z M460.992,340.452v-1.026h1.62v1.026l-0.432,8.012h-0.774
			L460.992,340.452z"/>
	</g>
	<g>
		<g>
			<path fill="#B5B9BC" d="M173.6,168.146c0-0.6,0.5-1,1-1l0,0c0.6,0,1,0.5,1,1l0,0c0,0.6-0.4,1-1,1l0,0
				C174,169.146,173.6,168.646,173.6,168.146z M166.8,168.146c0-0.6,0.5-1,1-1l0,0c0.6,0,1,0.5,1,1l0,0c0,0.6-0.5,1-1,1l0,0
				C167.3,169.146,166.8,168.646,166.8,168.146z M160,168.146c0-0.6,0.5-1,1-1l0,0c0.6,0,1,0.5,1,1l0,0c0,0.6-0.4,1-1,1l0,0
				C160.5,169.146,160,168.646,160,168.146z M153.3,168.146c0-0.6,0.4-1,1-1l0,0c0.6,0,1,0.5,1,1l0,0c0,0.6-0.5,1-1,1l0,0
				C153.7,169.146,153.3,168.646,153.3,168.146z M146.5,168.146c0-0.6,0.4-1,1-1l0,0c0.6,0,1,0.5,1,1l0,0c0,0.6-0.5,1-1,1l0,0
				C147,169.146,146.5,168.646,146.5,168.146z M139.8,168.146c0-0.6,0.5-1,1-1l0,0c0.6,0,1,0.5,1,1l0,0c0,0.6-0.5,1-1,1l0,0
				C140.2,169.146,139.8,168.646,139.8,168.146z M133,168.146c0-0.6,0.4-1,1-1l0,0c0.6,0,1,0.5,1,1l0,0c0,0.6-0.4,1-1,1l0,0
				C133.4,169.146,133,168.646,133,168.146z M126.2,168.146c0-0.6,0.4-1,1-1l0,0c0.6,0,1,0.5,1,1l0,0c0,0.6-0.5,1-1,1l0,0
				C126.7,169.146,126.2,168.646,126.2,168.146z M119.5,168.146c0-0.6,0.4-1,1-1l0,0c0.6,0,1,0.5,1,1l0,0c0,0.6-0.5,1-1,1l0,0
				C119.9,169.146,119.5,168.646,119.5,168.146z"/>
			<path fill="#B5B9BC" d="M181.4,169.146c-0.3,0-0.5-0.1-0.7-0.3c-0.2-0.2-0.3-0.5-0.3-0.7c0-0.3,0.1-0.5,0.3-0.7
				c0.4-0.4,1-0.4,1.4,0c0.2,0.1,0.3,0.4,0.3,0.7s-0.1,0.5-0.3,0.7C181.9,169.046,181.6,169.146,181.4,169.146z"/>
		</g>
		<path fill="#B5B9BC" d="M119.5,174.846c-0.2,0-0.3-0.1-0.5-0.2l-6.6-6.4l6.6-6.7c0.3-0.3,0.7-0.3,1,0c0.3,0.3,0.3,0.7,0,1
			l-5.7,5.6l5.6,5.5c0.3,0.3,0.3,0.7,0,1C119.8,174.846,119.6,174.846,119.5,174.846z"/>
	</g>
	<g>
		<g>
			<path fill="#B5B9BC" d="M528.333,169.146L528.333,169.146c-0.6,0-1-0.4-1-1l0,0c0-0.5,0.4-1,1-1l0,0c0.5,0,1,0.4,1,1
				C529.333,168.646,528.933,169.146,528.333,169.146z M535.133,169.146L535.133,169.146c-0.5,0-1-0.4-1-1l0,0c0-0.5,0.4-1,1-1l0,0
				c0.5,0,1,0.4,1,1C536.133,168.646,535.633,169.146,535.133,169.146z M541.933,169.146L541.933,169.146c-0.6,0-1-0.4-1-1l0,0
				c0-0.5,0.4-1,1-1l0,0c0.5,0,1,0.4,1,1C542.933,168.646,542.433,169.146,541.933,169.146z M548.633,169.146L548.633,169.146
				c-0.5,0-1-0.4-1-1l0,0c0-0.5,0.4-1,1-1l0,0c0.6,0,1,0.4,1,1C549.633,168.646,549.233,169.146,548.633,169.146z M555.433,169.146
				L555.433,169.146c-0.5,0-1-0.4-1-1l0,0c0-0.5,0.4-1,1-1l0,0c0.6,0,1,0.4,1,1C556.433,168.646,555.933,169.146,555.433,169.146z
				 M562.133,169.146L562.133,169.146c-0.5,0-1-0.4-1-1l0,0c0-0.5,0.4-1,1-1l0,0c0.5,0,1,0.4,1,1
				C563.133,168.646,562.733,169.146,562.133,169.146z M568.933,169.146L568.933,169.146c-0.6,0-1-0.4-1-1l0,0c0-0.5,0.4-1,1-1l0,0
				c0.6,0,1,0.4,1,1C569.933,168.646,569.533,169.146,568.933,169.146z M575.733,169.146L575.733,169.146c-0.5,0-1-0.4-1-1l0,0
				c0-0.5,0.4-1,1-1l0,0c0.6,0,1,0.4,1,1C576.733,168.646,576.233,169.146,575.733,169.146z M582.433,169.146L582.433,169.146
				c-0.5,0-1-0.4-1-1l0,0c0-0.5,0.4-1,1-1l0,0c0.6,0,1,0.4,1,1C583.433,168.646,583.033,169.146,582.433,169.146z"/>
			<path fill="#B5B9BC" d="M520.833,168.846c-0.2-0.2-0.3-0.4-0.3-0.7s0.1-0.6,0.3-0.7c0.4-0.4,1-0.4,1.4,0c0.2,0.2,0.3,0.4,0.3,0.7
				c0,0.2-0.1,0.5-0.3,0.7s-0.4,0.3-0.7,0.3C521.333,169.146,521.033,169.046,520.833,168.846z"/>
		</g>
		<path fill="#B5B9BC" d="M583.033,174.646c-0.3-0.3-0.3-0.7,0-1l5.6-5.5l-5.7-5.6c-0.3-0.3-0.3-0.7,0-1s0.7-0.3,1,0l6.6,6.7
			l-6.6,6.4c-0.2,0.1-0.3,0.2-0.5,0.2C583.333,174.846,583.133,174.846,583.033,174.646z"/>
	</g>
	<g>
		<g>
			<path fill="#B5B9BC" d="M528.333,307.955L528.333,307.955c-0.6,0-1-0.4-1-1l0,0c0-0.5,0.4-1,1-1l0,0c0.5,0,1,0.4,1,1
				C529.333,307.455,528.933,307.955,528.333,307.955z M535.133,307.955L535.133,307.955c-0.5,0-1-0.4-1-1l0,0c0-0.5,0.4-1,1-1l0,0
				c0.5,0,1,0.4,1,1C536.133,307.455,535.633,307.955,535.133,307.955z M541.933,307.955L541.933,307.955c-0.6,0-1-0.4-1-1l0,0
				c0-0.5,0.4-1,1-1l0,0c0.5,0,1,0.4,1,1C542.933,307.455,542.433,307.955,541.933,307.955z M548.633,307.955L548.633,307.955
				c-0.5,0-1-0.4-1-1l0,0c0-0.5,0.4-1,1-1l0,0c0.6,0,1,0.4,1,1C549.633,307.455,549.233,307.955,548.633,307.955z M555.433,307.955
				L555.433,307.955c-0.5,0-1-0.4-1-1l0,0c0-0.5,0.4-1,1-1l0,0c0.6,0,1,0.4,1,1C556.433,307.455,555.933,307.955,555.433,307.955z
				 M562.133,307.955L562.133,307.955c-0.5,0-1-0.4-1-1l0,0c0-0.5,0.4-1,1-1l0,0c0.5,0,1,0.4,1,1
				C563.133,307.455,562.733,307.955,562.133,307.955z M568.933,307.955L568.933,307.955c-0.6,0-1-0.4-1-1l0,0c0-0.5,0.4-1,1-1l0,0
				c0.6,0,1,0.4,1,1C569.933,307.455,569.533,307.955,568.933,307.955z M575.733,307.955L575.733,307.955c-0.5,0-1-0.4-1-1l0,0
				c0-0.5,0.4-1,1-1l0,0c0.6,0,1,0.4,1,1C576.733,307.455,576.233,307.955,575.733,307.955z M582.433,307.955L582.433,307.955
				c-0.5,0-1-0.4-1-1l0,0c0-0.5,0.4-1,1-1l0,0c0.6,0,1,0.4,1,1C583.433,307.455,583.033,307.955,582.433,307.955z"/>
			<path fill="#B5B9BC" d="M520.833,307.655c-0.2-0.2-0.3-0.4-0.3-0.7c0-0.3,0.1-0.6,0.3-0.7c0.4-0.4,1-0.4,1.4,0
				c0.2,0.2,0.3,0.4,0.3,0.7c0,0.2-0.1,0.5-0.3,0.7c-0.2,0.2-0.4,0.3-0.7,0.3C521.333,307.955,521.033,307.855,520.833,307.655z"/>
		</g>
		<path fill="#B5B9BC" d="M583.033,313.455c-0.3-0.3-0.3-0.7,0-1l5.6-5.5l-5.7-5.6c-0.3-0.3-0.3-0.7,0-1c0.3-0.3,0.7-0.3,1,0
			l6.6,6.7l-6.6,6.4c-0.2,0.1-0.3,0.2-0.5,0.2C583.333,313.655,583.133,313.655,583.033,313.455z"/>
	</g>
	<g>
		<g>
			<path fill="#B5B9BC" d="M173.6,280.83c0-0.6,0.5-1,1-1l0,0c0.6,0,1,0.5,1,1l0,0c0,0.6-0.4,1-1,1l0,0
				C174,281.83,173.6,281.33,173.6,280.83z M166.8,280.83c0-0.6,0.5-1,1-1l0,0c0.6,0,1,0.5,1,1l0,0c0,0.6-0.5,1-1,1l0,0
				C167.3,281.83,166.8,281.33,166.8,280.83z M160,280.83c0-0.6,0.5-1,1-1l0,0c0.6,0,1,0.5,1,1l0,0c0,0.6-0.4,1-1,1l0,0
				C160.5,281.83,160,281.33,160,280.83z M153.3,280.83c0-0.6,0.4-1,1-1l0,0c0.6,0,1,0.5,1,1l0,0c0,0.6-0.5,1-1,1l0,0
				C153.7,281.83,153.3,281.33,153.3,280.83z M146.5,280.83c0-0.6,0.4-1,1-1l0,0c0.6,0,1,0.5,1,1l0,0c0,0.6-0.5,1-1,1l0,0
				C147,281.83,146.5,281.33,146.5,280.83z M139.8,280.83c0-0.6,0.5-1,1-1l0,0c0.6,0,1,0.5,1,1l0,0c0,0.6-0.5,1-1,1l0,0
				C140.2,281.83,139.8,281.33,139.8,280.83z M133,280.83c0-0.6,0.4-1,1-1l0,0c0.6,0,1,0.5,1,1l0,0c0,0.6-0.4,1-1,1l0,0
				C133.4,281.83,133,281.33,133,280.83z M126.2,280.83c0-0.6,0.4-1,1-1l0,0c0.6,0,1,0.5,1,1l0,0c0,0.6-0.5,1-1,1l0,0
				C126.7,281.83,126.2,281.33,126.2,280.83z M119.5,280.83c0-0.6,0.4-1,1-1l0,0c0.6,0,1,0.5,1,1l0,0c0,0.6-0.5,1-1,1l0,0
				C119.9,281.83,119.5,281.33,119.5,280.83z"/>
			<path fill="#B5B9BC" d="M181.4,281.83c-0.3,0-0.5-0.1-0.7-0.3c-0.2-0.2-0.3-0.5-0.3-0.7c0-0.3,0.1-0.5,0.3-0.7
				c0.4-0.4,1-0.4,1.4,0c0.2,0.1,0.3,0.4,0.3,0.7c0,0.3-0.1,0.5-0.3,0.7C181.9,281.73,181.6,281.83,181.4,281.83z"/>
		</g>
		<path fill="#B5B9BC" d="M119.5,287.53c-0.2,0-0.3-0.1-0.5-0.2l-6.6-6.4l6.6-6.7c0.3-0.3,0.7-0.3,1,0c0.3,0.3,0.3,0.7,0,1l-5.7,5.6
			l5.6,5.5c0.3,0.3,0.3,0.7,0,1C119.8,287.53,119.6,287.53,119.5,287.53z"/>
	</g>
	<g>
		<g>
			<path fill="#B5B9BC" d="M173.6,393.514c0-0.6,0.5-1,1-1l0,0c0.6,0,1,0.5,1,1l0,0c0,0.6-0.4,1-1,1l0,0
				C174,394.514,173.6,394.014,173.6,393.514z M166.8,393.514c0-0.6,0.5-1,1-1l0,0c0.6,0,1,0.5,1,1l0,0c0,0.6-0.5,1-1,1l0,0
				C167.3,394.514,166.8,394.014,166.8,393.514z M160,393.514c0-0.6,0.5-1,1-1l0,0c0.6,0,1,0.5,1,1l0,0c0,0.6-0.4,1-1,1l0,0
				C160.5,394.514,160,394.014,160,393.514z M153.3,393.514c0-0.6,0.4-1,1-1l0,0c0.6,0,1,0.5,1,1l0,0c0,0.6-0.5,1-1,1l0,0
				C153.7,394.514,153.3,394.014,153.3,393.514z M146.5,393.514c0-0.6,0.4-1,1-1l0,0c0.6,0,1,0.5,1,1l0,0c0,0.6-0.5,1-1,1l0,0
				C147,394.514,146.5,394.014,146.5,393.514z M139.8,393.514c0-0.6,0.5-1,1-1l0,0c0.6,0,1,0.5,1,1l0,0c0,0.6-0.5,1-1,1l0,0
				C140.2,394.514,139.8,394.014,139.8,393.514z M133,393.514c0-0.6,0.4-1,1-1l0,0c0.6,0,1,0.5,1,1l0,0c0,0.6-0.4,1-1,1l0,0
				C133.4,394.514,133,394.014,133,393.514z M126.2,393.514c0-0.6,0.4-1,1-1l0,0c0.6,0,1,0.5,1,1l0,0c0,0.6-0.5,1-1,1l0,0
				C126.7,394.514,126.2,394.014,126.2,393.514z M119.5,393.514c0-0.6,0.4-1,1-1l0,0c0.6,0,1,0.5,1,1l0,0c0,0.6-0.5,1-1,1l0,0
				C119.9,394.514,119.5,394.014,119.5,393.514z"/>
			<path fill="#B5B9BC" d="M181.4,394.514c-0.3,0-0.5-0.1-0.7-0.3c-0.2-0.2-0.3-0.5-0.3-0.7c0-0.3,0.1-0.5,0.3-0.7
				c0.4-0.4,1-0.4,1.4,0c0.2,0.1,0.3,0.4,0.3,0.7c0,0.3-0.1,0.5-0.3,0.7C181.9,394.414,181.6,394.514,181.4,394.514z"/>
		</g>
		<path fill="#B5B9BC" d="M119.5,400.214c-0.2,0-0.3-0.1-0.5-0.2l-6.6-6.4l6.6-6.7c0.3-0.3,0.7-0.3,1,0c0.3,0.3,0.3,0.7,0,1
			l-5.7,5.6l5.6,5.5c0.3,0.3,0.3,0.7,0,1C119.8,400.214,119.6,400.214,119.5,400.214z"/>
	</g>
	<g>
		<g>
			<path id="path2998" fill="#4885ED" d="M647.7,305.93h-15.4v4.6h10.9c-0.5,6.4-5.9,9.1-10.9,9.1c-6.5,0-12.1-5.1-12.1-12.2
				c0-6.9,5.4-12.2,12.1-12.2c5.2,0,8.2,3.3,8.2,3.3l3.2-3.3c0,0-4.1-4.6-11.6-4.6c-9.5,0-16.9,8.1-16.9,16.7
				c0,8.5,6.9,16.8,17.2,16.8c9,0,15.6-6.2,15.6-15.3C647.9,307.03,647.7,305.93,647.7,305.93L647.7,305.93z"/>
			<path id="path3000" fill="#DB3236" d="M660.3,302.63c-6.3,0-10.8,4.9-10.8,10.7c0,5.8,4.4,10.9,10.9,10.9
				c5.9,0,10.8-4.5,10.8-10.8C671.1,306.33,665.5,302.63,660.3,302.63L660.3,302.63z M660.3,306.83c3.1,0,6.1,2.5,6.1,6.6
				c0,4-2.9,6.5-6.1,6.5c-3.4,0-6.2-2.8-6.2-6.6C654.2,309.63,656.8,306.83,660.3,306.83L660.3,306.83z"/>
			<path id="path3005" fill="#F4C20D" d="M683.9,302.63c-6.3,0-10.8,4.9-10.8,10.7c0,5.8,4.4,10.9,10.9,10.9
				c5.9,0,10.8-4.5,10.8-10.8C694.7,306.33,689.1,302.63,683.9,302.63L683.9,302.63z M683.9,306.83c3.1,0,6.1,2.5,6.1,6.6
				c0,4-2.9,6.5-6.1,6.5c-3.4,0-6.2-2.8-6.2-6.6C677.8,309.63,680.4,306.83,683.9,306.83L683.9,306.83z"/>
			<path id="path3007" fill="#4885ED" d="M707,302.63c-5.8,0-10.4,5.1-10.4,10.8c0,6.5,5.3,10.8,10.3,10.8c3.1,0,4.7-1.2,5.9-2.6
				v2.1c0,3.7-2.3,6-5.7,6c-3.3,0-5-2.5-5.5-3.8l-4.1,1.7c1.5,3.1,4.4,6.4,9.7,6.4c5.8,0,10.2-3.6,10.2-11.3v-19.5h-4.5v1.8
				C711.4,303.63,709.5,302.63,707,302.63L707,302.63z M707.4,306.83c2.8,0,5.8,2.4,5.8,6.6c0,4.2-2.9,6.5-5.8,6.5
				c-3.1,0-6-2.5-6-6.5C701.4,309.33,704.4,306.83,707.4,306.83L707.4,306.83z"/>
			<path id="path3011" fill="#DB3236" d="M737.5,302.63c-5.5,0-10.1,4.4-10.1,10.8c0,6.8,5.1,10.8,10.6,10.8c4.6,0,7.4-2.5,9-4.7
				l-3.7-2.5c-1,1.5-2.6,3-5.3,3c-3,0-4.4-1.7-5.3-3.3l14.5-6l-0.8-1.8C745.1,305.43,741.8,302.63,737.5,302.63L737.5,302.63z
				 M737.7,306.73c2,0,3.4,1,4,2.3l-9.7,4C731.6,309.93,734.5,306.73,737.7,306.73L737.7,306.73z"/>
			<path id="path3015" fill="#3CBA54" d="M720.5,323.53h4.8v-31.8h-4.8V323.53z"/>
		</g>
		<g>
			<path fill="#6D6E71" d="M625.4,342.33h-4.5l-1.1,2.9h-1.5l4.1-10.2h1.6l4.1,10.2h-1.5L625.4,342.33z M621.4,340.93h3.5l-1.7-4.5
				L621.4,340.93z"/>
			<path fill="#6D6E71" d="M628.7,347.93v-9.7h1.3v1.1c0.4-0.7,1.2-1.2,2.3-1.2c2.1,0,3.2,1.6,3.2,3.6c0,2.1-1.2,3.7-3.2,3.7
				c-1.1,0-1.9-0.5-2.2-1.1v3.7h-1.4V347.93z M632.1,339.23c-1.2,0-2.1,1-2.1,2.4s0.8,2.5,2.1,2.5c1.3,0,2-1,2-2.5
				C634.2,340.33,633.4,339.23,632.1,339.23z"/>
			<path fill="#6D6E71" d="M636.7,347.93v-9.7h1.3v1.1c0.4-0.7,1.2-1.2,2.3-1.2c2.1,0,3.2,1.6,3.2,3.6c0,2.1-1.2,3.7-3.2,3.7
				c-1.1,0-1.9-0.5-2.2-1.1v3.7h-1.4V347.93z M640.1,339.23c-1.2,0-2.1,1-2.1,2.4s0.8,2.5,2.1,2.5c1.3,0,2-1,2-2.5
				C642.2,340.33,641.4,339.23,640.1,339.23z"/>
			<path fill="#6D6E71" d="M649.5,339.43v5.7h-1.4v-5.7h-1.3v-1.2h1.3v-1.2c0-1.5,1-2.4,2.3-2.4c0.5,0,0.7,0.1,0.8,0.1v1.2
				c-0.1,0-0.2-0.1-0.6-0.1c-0.5,0-1.1,0.2-1.1,1.2v1.1h1.7v1.2h-1.7V339.43z"/>
			<path fill="#6D6E71" d="M658.3,341.63c0,2.1-1.5,3.7-3.5,3.7c-2.1,0-3.5-1.6-3.5-3.7s1.5-3.7,3.5-3.7
				C656.8,338.03,658.3,339.53,658.3,341.63z M656.9,341.63c0-1.6-1-2.5-2.2-2.5s-2.2,0.9-2.2,2.5s1,2.5,2.2,2.5
				S656.9,343.33,656.9,341.63z"/>
			<path fill="#6D6E71" d="M663.3,339.53c-0.2,0-0.4,0-0.6,0c-1.1,0-1.9,0.6-1.9,2.1v3.5h-1.4v-6.9h1.3v1.2c0.5-1.1,1.4-1.3,2.1-1.3
				c0.2,0,0.4,0,0.4,0v1.4H663.3z"/>
			<path fill="#6D6E71" d="M678.9,334.93h1.5l-2.9,10.2H676l-2.7-8.3l-2.6,8.3h-1.5l-3-10.2h1.5l2.3,8l2.6-8h1.5l2.6,8.1
				L678.9,334.93z"/>
			<path fill="#6D6E71" d="M687.1,341.63c0,2.1-1.5,3.7-3.5,3.7c-2.1,0-3.5-1.6-3.5-3.7s1.5-3.7,3.5-3.7
				C685.7,338.03,687.1,339.53,687.1,341.63z M685.8,341.63c0-1.6-1-2.5-2.2-2.5c-1.2,0-2.2,0.9-2.2,2.5s1,2.5,2.2,2.5
				C684.7,344.13,685.8,343.33,685.8,341.63z"/>
			<path fill="#6D6E71" d="M692.1,339.53c-0.2,0-0.4,0-0.6,0c-1.1,0-1.9,0.6-1.9,2.1v3.5h-1.4v-6.9h1.3v1.2c0.5-1.1,1.4-1.3,2.1-1.3
				c0.2,0,0.4,0,0.4,0v1.4H692.1z"/>
			<path fill="#6D6E71" d="M696.3,341.13l3,4h-1.7l-2.3-3.1l-1,1v2.1H693v-10.4h1.3v6.6l3-3.1h1.9L696.3,341.13z"/>
		</g>
	</g>
	<g>
		<g>
			<defs>
				<rect id="SVGID_18_" x="611.2" y="145.603" width="157.894" height="37.281"/>
			</defs>
			<clipPath id="SVGID_19_">
				<use xlink:href="#SVGID_18_"  overflow="visible"/>
			</clipPath>
			<path clip-path="url(#SVGID_19_)" fill="#7BA22B" d="M642.45,167.094c-1.535,0.877-3.289,1.316-4.934,1.316
				c-1.096,0-2.193-0.219-3.07-0.548c-1.645,1.535-3.399,2.522-4.386,3.07c1.316,2.083,3.399,3.618,5.921,4.276
				c0.768,0.219,1.535,0.329,2.412,0.329c1.754,0,3.399-0.439,4.825-1.206c0.219-0.768,0.329-1.645,0.329-2.522
				C643.656,170.164,643.327,168.629,642.45,167.094"/>
		</g>
		<g>
			<defs>
				<rect id="SVGID_20_" x="611.2" y="145.603" width="157.894" height="37.281"/>
			</defs>
			<clipPath id="SVGID_21_">
				<use xlink:href="#SVGID_20_"  overflow="visible"/>
			</clipPath>
			<path clip-path="url(#SVGID_21_)" fill="#7BA22B" d="M640.805,154.923c-0.11,0-0.219-0.11-0.329-0.11l0,0
				C640.586,154.813,640.695,154.813,640.805,154.923"/>
		</g>
		<g>
			<defs>
				<rect id="SVGID_22_" x="611.2" y="145.603" width="157.894" height="37.281"/>
			</defs>
			<clipPath id="SVGID_23_">
				<use xlink:href="#SVGID_22_"  overflow="visible"/>
			</clipPath>
			<path clip-path="url(#SVGID_23_)" fill="#7BA22B" d="M640.476,154.813c-0.329,1.974-1.096,3.728-2.303,5.044
				c0.11,0.329,0.11,0.768,0.11,1.096c0,2.303-1.206,4.276-2.632,5.921c0.439,0,0.877,0.11,1.316,0.11
				c2.083,0,4.276-0.658,6.031-2.083c2.083-1.645,3.289-3.947,3.728-6.25c-1.535-1.864-3.618-3.18-5.921-3.728
				C640.695,154.813,640.586,154.813,640.476,154.813L640.476,154.813"/>
		</g>
		<g>
			<defs>
				<rect id="SVGID_24_" x="611.2" y="145.603" width="157.894" height="37.281"/>
			</defs>
			<clipPath id="SVGID_25_">
				<use xlink:href="#SVGID_24_"  overflow="visible"/>
			</clipPath>
			<path clip-path="url(#SVGID_25_)" fill="#7BA22B" d="M638.941,153.168c0-2.632-0.987-5.044-2.632-6.798h-0.11
				c-2.303,0-4.386,0.877-6.25,2.522c1.754,1.864,2.412,4.276,2.412,6.689c0,0.219,0,0.329,0,0.548
				c0.439-0.11,0.768-0.11,1.206-0.11h0.11c1.535,0,3.07,0.768,3.947,2.193C638.393,156.787,638.941,155.032,638.941,153.168"/>
		</g>
		<g>
			<defs>
				<rect id="SVGID_26_" x="611.2" y="145.603" width="157.894" height="37.281"/>
			</defs>
			<clipPath id="SVGID_27_">
				<use xlink:href="#SVGID_26_"  overflow="visible"/>
			</clipPath>
			<path clip-path="url(#SVGID_27_)" fill="#7BA22B" d="M621.288,146.589c-0.11,0-0.329,0-0.329,0
				c-1.645,1.754-2.522,4.057-2.522,6.579v0.11c0.11,0,0.219,0,0.329,0c2.741,0,5.154,1.096,6.908,2.741
				c1.425,0.11,2.961,0.877,3.728,2.412c0.439-0.877,1.096-1.425,1.754-1.754c0-0.11,0-0.219,0-0.329
				c0-2.741-1.096-5.373-3.289-7.346C625.893,147.357,623.59,146.589,621.288,146.589"/>
		</g>
		<g>
			<defs>
				<rect id="SVGID_28_" x="611.2" y="145.603" width="157.894" height="37.281"/>
			</defs>
			<clipPath id="SVGID_29_">
				<use xlink:href="#SVGID_28_"  overflow="visible"/>
			</clipPath>
			<polyline clip-path="url(#SVGID_29_)" fill="#7BA22B" points="624.358,156.238 624.358,156.238 624.358,156.238 624.358,156.238 
							"/>
		</g>
		<g>
			<defs>
				<rect id="SVGID_30_" x="611.2" y="145.603" width="157.894" height="37.281"/>
			</defs>
			<clipPath id="SVGID_31_">
				<use xlink:href="#SVGID_30_"  overflow="visible"/>
			</clipPath>
			<path clip-path="url(#SVGID_31_)" fill="#7BA22B" d="M624.029,156.129c-1.425-0.877-3.18-1.316-4.934-1.316
				c-0.548,0-1.096,0-1.754,0.11c-2.522,0.548-4.715,1.974-6.14,3.838c0.329,2.303,1.645,4.605,3.618,6.14
				c1.425-1.974,3.509-3.289,5.702-3.618c0-0.11,0-0.219,0-0.329C620.52,158.322,622.165,156.677,624.029,156.129"/>
		</g>
		<g>
			<defs>
				<rect id="SVGID_32_" x="611.2" y="145.603" width="157.894" height="37.281"/>
			</defs>
			<clipPath id="SVGID_33_">
				<use xlink:href="#SVGID_32_"  overflow="visible"/>
			</clipPath>
			<path clip-path="url(#SVGID_33_)" fill="#7BA22B" d="M615.476,167.203c-0.768,1.425-1.096,3.07-1.096,4.605
				c0,0.877,0.11,1.864,0.329,2.632c1.425,0.768,3.07,1.206,4.715,1.206c0.768,0,1.535-0.11,2.412-0.329
				c-0.219-0.877-0.329-1.754-0.329-2.632c0-2.083,0.658-4.057,1.864-5.811c-1.096-1.206-2.083-2.632-2.522-4.276
				C618.546,163.366,616.573,165.01,615.476,167.203"/>
		</g>
		<g>
			<defs>
				<rect id="SVGID_34_" x="611.2" y="145.603" width="157.894" height="37.281"/>
			</defs>
			<clipPath id="SVGID_35_">
				<use xlink:href="#SVGID_34_"  overflow="visible"/>
			</clipPath>
			<polyline clip-path="url(#SVGID_35_)" fill="#7BA22B" points="623.7,176.304 623.7,176.304 623.59,176.304 623.59,176.304 
				623.7,176.304 			"/>
		</g>
		<g>
			<defs>
				<rect id="SVGID_36_" x="611.2" y="145.603" width="157.894" height="37.281"/>
			</defs>
			<clipPath id="SVGID_37_">
				<use xlink:href="#SVGID_36_"  overflow="visible"/>
			</clipPath>
			<path clip-path="url(#SVGID_37_)" fill="#7BA22B" d="M628.963,181.348c2.193-0.987,4.057-2.741,5.044-5.044
				c-2.522-0.987-4.386-2.961-5.263-5.263c-0.768-0.439-2.851-1.535-4.715-3.289c-0.658,1.425-1.096,2.961-1.096,4.496
				c0,1.316,0.219,2.632,0.877,3.947C624.906,178.607,626.77,180.361,628.963,181.348"/>
		</g>
		<g>
			<defs>
				<rect id="SVGID_38_" x="611.2" y="145.603" width="157.894" height="37.281"/>
			</defs>
			<clipPath id="SVGID_39_">
				<use xlink:href="#SVGID_38_"  overflow="visible"/>
			</clipPath>
			<polyline clip-path="url(#SVGID_39_)" fill="#7BA22B" points="623.81,176.195 623.7,176.304 623.7,176.304 623.81,176.195 			"/>
		</g>
		<g>
			<defs>
				<rect id="SVGID_40_" x="611.2" y="145.603" width="157.894" height="37.281"/>
			</defs>
			<clipPath id="SVGID_41_">
				<use xlink:href="#SVGID_40_"  overflow="visible"/>
			</clipPath>
			<path clip-path="url(#SVGID_41_)" fill="#7BA22B" d="M660.542,169.396l-8.553,10.088h7.456c0.768,0,1.425,0.658,1.425,1.425
				s-0.658,1.425-1.425,1.425H648.7c-0.768,0-1.425-0.768-1.425-1.535c0-0.329,0.11-0.768,0.439-1.096l8.443-9.978H648.7
				c-0.768,0-1.425-0.658-1.425-1.425c0-0.768,0.658-1.425,1.425-1.425h10.526c0.987,0,1.645,0.768,1.645,1.645
				C660.98,168.738,660.871,169.067,660.542,169.396"/>
		</g>
		<g>
			<defs>
				<rect id="SVGID_42_" x="611.2" y="145.603" width="157.894" height="37.281"/>
			</defs>
			<clipPath id="SVGID_43_">
				<use xlink:href="#SVGID_42_"  overflow="visible"/>
			</clipPath>
			<path clip-path="url(#SVGID_43_)" fill="#7BA22B" d="M677.757,175.646c0,0,0,0-11.184,0c0.219,2.412,2.083,4.167,4.715,4.167
				c1.864,0,3.399-0.768,4.715-1.974c0.219-0.219,0.548-0.329,0.877-0.329c0.439,0,0.877,0.219,1.096,0.548
				c0.219,0.219,0.329,0.548,0.329,0.877c0,0.439-0.219,0.877-0.548,1.206c-1.535,1.645-4.057,2.741-6.579,2.741
				c-4.605,0-8.224-3.728-8.224-8.224c0-4.496,3.618-8.224,8.114-8.224s7.895,3.509,7.895,8.224
				C678.963,175.208,678.415,175.646,677.757,175.646 M671.068,169.287c-2.412,0-4.057,1.535-4.386,3.947c5.482,0,8.882,0,8.882,0
				C675.235,171.041,673.48,169.287,671.068,169.287z"/>
		</g>
		<g>
			<defs>
				<rect id="SVGID_44_" x="611.2" y="145.603" width="157.894" height="37.281"/>
			</defs>
			<clipPath id="SVGID_45_">
				<use xlink:href="#SVGID_44_"  overflow="visible"/>
			</clipPath>
			<path clip-path="url(#SVGID_45_)" fill="#7BA22B" d="M714.489,182.664c-0.987,0-1.754-0.768-1.754-1.754v-0.877
				c-0.987,1.754-2.961,2.741-5.154,2.741c-4.605,0-7.785-3.509-7.785-8.224s3.18-8.224,7.785-8.224
				c2.303,0,4.276,1.096,5.154,2.741v-9.21c0-0.987,0.768-1.754,1.754-1.754c0.987,0,1.754,0.768,1.754,1.754v21.162
				C716.243,181.896,715.476,182.664,714.489,182.664 M708.02,169.506c-2.851,0-4.715,2.303-4.715,5.153
				c0,2.851,1.864,5.153,4.715,5.153c2.851,0,4.715-2.193,4.715-5.153C712.735,171.699,710.871,169.506,708.02,169.506z"/>
		</g>
		<g>
			<defs>
				<rect id="SVGID_46_" x="611.2" y="145.603" width="157.894" height="37.281"/>
			</defs>
			<clipPath id="SVGID_47_">
				<use xlink:href="#SVGID_46_"  overflow="visible"/>
			</clipPath>
			<path clip-path="url(#SVGID_47_)" fill="#7BA22B" d="M734.226,175.646c0,0,0,0-11.184,0c0.219,2.412,2.083,4.167,4.715,4.167
				c1.864,0,3.399-0.768,4.715-1.974c0.219-0.219,0.548-0.329,0.877-0.329c0.439,0,0.877,0.219,1.206,0.548
				c0.219,0.219,0.329,0.548,0.329,0.877c0,0.439-0.219,0.877-0.548,1.206c-1.535,1.645-4.057,2.741-6.579,2.741
				c-4.605,0-8.224-3.728-8.224-8.224c0-4.496,3.618-8.224,8.114-8.224c4.496,0,7.895,3.509,7.895,8.224
				C735.542,175.208,734.884,175.646,734.226,175.646 M727.537,169.287c-2.412,0-4.057,1.535-4.386,3.947c5.482,0,8.882,0,8.882,0
				C731.704,171.041,729.95,169.287,727.537,169.287z"/>
		</g>
		<g>
			<defs>
				<rect id="SVGID_48_" x="611.2" y="145.603" width="157.894" height="37.281"/>
			</defs>
			<clipPath id="SVGID_49_">
				<use xlink:href="#SVGID_48_"  overflow="visible"/>
			</clipPath>
			<path clip-path="url(#SVGID_49_)" fill="#7BA22B" d="M744.313,182.883c-1.754,0-4.057-0.548-5.811-1.645
				c-0.548-0.329-0.877-0.877-0.877-1.316c0-0.219,0.11-0.329,0.11-0.548c0.219-0.548,0.658-0.877,1.096-0.877
				c0.219,0,0.548,0.11,0.768,0.219c1.316,0.768,2.851,1.206,4.386,1.206c1.754,0,3.728-0.548,3.728-1.864
				c0-1.096-0.987-1.425-4.605-2.741c-3.07-1.096-4.605-2.412-4.605-4.605c0-2.632,2.632-4.386,6.14-4.386
				c2.412,0,3.947,0.548,5.373,1.206c0.658,0.329,0.987,0.768,0.987,1.316c0,0.219,0,0.329-0.11,0.548
				c-0.219,0.548-0.768,0.987-1.316,0.987c-0.219,0-0.329,0-0.548-0.11c-1.316-0.658-2.632-0.987-4.167-0.987
				c-1.864,0-3.07,0.439-3.07,1.535c0,1.206,0.987,1.425,3.618,2.303c3.289,1.096,5.592,2.193,5.592,4.934
				C751.112,180.69,748.699,182.883,744.313,182.883"/>
		</g>
		<g>
			<defs>
				<rect id="SVGID_50_" x="611.2" y="145.603" width="157.894" height="37.281"/>
			</defs>
			<clipPath id="SVGID_51_">
				<use xlink:href="#SVGID_50_"  overflow="visible"/>
			</clipPath>
			<path clip-path="url(#SVGID_51_)" fill="#7BA22B" d="M767.23,182.664c-0.439,0-0.987-0.219-1.316-0.548l-5.921-6.798
				l-1.754,1.425v4.167c0,0.987-0.768,1.754-1.754,1.754c-0.987,0-1.754-0.768-1.754-1.754v-21.053c0-0.987,0.768-1.754,1.754-1.754
				c0.987,0,1.754,0.768,1.754,1.754v12.829l7.456-5.811c0.329-0.219,0.658-0.329,0.987-0.329c0.548,0,0.987,0.219,1.316,0.658
				c0.219,0.329,0.439,0.658,0.439,0.987c0,0.548-0.219,0.987-0.658,1.316l-5.044,3.947l5.811,6.689
				c0.219,0.329,0.439,0.658,0.439,1.096C768.765,182.006,768.107,182.664,767.23,182.664"/>
		</g>
		<g>
			<defs>
				<rect id="SVGID_52_" x="611.2" y="145.603" width="157.894" height="37.281"/>
			</defs>
			<clipPath id="SVGID_53_">
				<use xlink:href="#SVGID_52_"  overflow="visible"/>
			</clipPath>
			<path clip-path="url(#SVGID_53_)" fill="#7BA22B" d="M689.489,166.216c-4.057,0-7.456,3.18-7.456,7.456v7.346
				c0,0.987,0.768,1.754,1.754,1.754c0.987,0,1.754-0.768,1.754-1.754v-7.237c0-2.412,1.316-4.386,3.947-4.386
				c2.522,0,3.947,1.974,3.947,4.386v7.237c0,0.987,0.768,1.754,1.754,1.754s1.754-0.768,1.754-1.754v-7.346
				C696.945,169.506,693.546,166.216,689.489,166.216"/>
		</g>
		<g>
			<defs>
				<rect id="SVGID_54_" x="611.2" y="145.603" width="157.894" height="37.281"/>
			</defs>
			<clipPath id="SVGID_55_">
				<use xlink:href="#SVGID_54_"  overflow="visible"/>
			</clipPath>
			<path clip-path="url(#SVGID_55_)" fill="#7BA22B" d="M764.927,159.747c0-0.987,0.768-1.754,1.754-1.754
				c0.987,0,1.754,0.768,1.754,1.754c0,0.987-0.768,1.754-1.754,1.754C765.695,161.502,764.927,160.734,764.927,159.747
				 M767.998,159.747c0-0.768-0.548-1.316-1.316-1.316c-0.768,0-1.316,0.548-1.316,1.316c0,0.768,0.548,1.425,1.316,1.425
				C767.449,161.173,767.998,160.624,767.998,159.747z M765.914,160.515v-1.535c0-0.11,0.11-0.219,0.219-0.219h0.658
				c0.439,0,0.658,0.219,0.658,0.548c0,0.219-0.11,0.439-0.329,0.548l0.219,0.548v0.11c0,0.11-0.11,0.219-0.219,0.219
				c-0.11,0-0.219-0.11-0.219-0.11l-0.329-0.548h-0.329l0,0v0.439c0,0.11-0.11,0.219-0.219,0.219
				C766.024,160.734,765.914,160.624,765.914,160.515z M767.011,159.418c0-0.11-0.11-0.219-0.329-0.219h-0.329l0,0v0.329l0,0h0.329
				C766.901,159.638,767.011,159.528,767.011,159.418z"/>
		</g>
	</g>
</g>
</svg>
