<?xml version="1.0" encoding="utf-8"?>
<!-- Generator: Adobe Illustrator 23.1.1, SVG Export Plug-In . SVG Version: 6.00 Build 0)  -->
<!DOCTYPE svg PUBLIC "-//W3C//DTD SVG 1.1//EN" "http://www.w3.org/Graphics/SVG/1.1/DTD/svg11.dtd" [
	<!ENTITY ns_extend "http://ns.adobe.com/Extensibility/1.0/">
	<!ENTITY ns_ai "http://ns.adobe.com/AdobeIllustrator/10.0/">
	<!ENTITY ns_graphs "http://ns.adobe.com/Graphs/1.0/">
	<!ENTITY ns_vars "http://ns.adobe.com/Variables/1.0/">
	<!ENTITY ns_imrep "http://ns.adobe.com/ImageReplacement/1.0/">
	<!ENTITY ns_sfw "http://ns.adobe.com/SaveForWeb/1.0/">
	<!ENTITY ns_custom "http://ns.adobe.com/GenericCustomNamespace/1.0/">
	<!ENTITY ns_adobe_xpath "http://ns.adobe.com/XPath/1.0/">
]>
<svg version="1.1" id="Layer_1" xmlns:x="&ns_extend;" xmlns:i="&ns_ai;" xmlns:graph="&ns_graphs;"
	 xmlns="http://www.w3.org/2000/svg" xmlns:xlink="http://www.w3.org/1999/xlink" x="0px" y="0px" width="248px" height="248px"
	 viewBox="0 0 248 248" enable-background="new 0 0 248 248" xml:space="preserve">
<metadata>
	<sfw  xmlns="&ns_sfw;">
		<slices></slices>
		<sliceSourceBounds  bottomLeftOrigin="true" height="248" width="248" x="0" y="0"></sliceSourceBounds>
	</sfw>
</metadata>
<g id="Rectangle-Copy-6">
	<g id="Mask">
	</g>
	<defs>
		<filter id="Adobe_OpacityMaskFilter" filterUnits="userSpaceOnUse" x="0" y="87" width="157" height="161">
			<feColorMatrix  type="matrix" values="1 0 0 0 0  0 1 0 0 0  0 0 1 0 0  0 0 0 1 0"/>
		</filter>
	</defs>
	<mask maskUnits="userSpaceOnUse" x="0" y="87" width="157" height="161" id="mask-2_1_">
		<g filter="url(#Adobe_OpacityMaskFilter)">
			<circle id="path-1_1_" fill-rule="evenodd" clip-rule="evenodd" fill="#FFFFFF" cx="124" cy="124" r="124"/>
		</g>
	</mask>
	<rect y="87" mask="url(#mask-2_1_)" fill-rule="evenodd" clip-rule="evenodd" width="157" height="161"/>
</g>
<g id="jetbrains-copy-4" transform="translate(45.000000, 39.000000)">
	
		<linearGradient id="XMLID_2_" gradientUnits="userSpaceOnUse" x1="-216.5308" y1="501.7663" x2="-215.728" y2="502.0973" gradientTransform="matrix(126.4627 0 0 -86.1893 27426.2441 43387.9688)">
		<stop  offset="0" style="stop-color:#FCEE39"/>
		<stop  offset="1" style="stop-color:#F37B3D"/>
	</linearGradient>
	<path id="XMLID_3041_" fill="url(#XMLID_2_)" d="M154.9,93.2c1.2-1,1.8-2.5,1.9-4.2c0.1-3.4-2.3-6.1-5.7-6.4
		c-1.6-0.1-3.1,0.5-4.3,1.4l0,0L38.3,143.7c-2.5,1-4.7,2.9-6.1,5.3c-3.8,6.2-1.7,14.3,4.7,18c4.4,2.6,9.7,2.3,13.9-0.3l0,0l0,0
		c0.3-0.3,0.6-0.4,0.9-0.6l101-71.1C153.2,94.6,154.6,93.6,154.9,93.2L154.9,93.2L154.9,93.2z"/>
	
		<linearGradient id="XMLID_3_" gradientUnits="userSpaceOnUse" x1="-216.2105" y1="502.611" x2="-215.3001" y2="501.8677" gradientTransform="matrix(101.7934 0 0 -94.7377 22073.1406 47629.8633)">
		<stop  offset="0" style="stop-color:#EF5A6B"/>
		<stop  offset="0.57" style="stop-color:#F26F4E"/>
		<stop  offset="1" style="stop-color:#F37B3D"/>
	</linearGradient>
	<path id="XMLID_3049_" fill="url(#XMLID_3_)" d="M155.2,84.5L155.2,84.5L72.5,3.2C70.7,1.3,68.1,0,65.1,0c-5.6,0-10,4.5-10,10l0,0
		c0,2.7,1,5.1,2.7,6.9l0,0l0,0c0.5,0.5,1,0.9,1.6,1.3L146.7,93l0,0c1,0.9,2.3,1.6,3.9,1.7c3.4,0.1,6.1-2.3,6.3-5.7
		C157,87.3,156.3,85.6,155.2,84.5z"/>
	
		<linearGradient id="XMLID_4_" gradientUnits="userSpaceOnUse" x1="-214.8052" y1="499.6265" x2="-215.527" y2="499.9409" gradientTransform="matrix(76.0913 0 0 -52.948 16416.2031 26523.0977)">
		<stop  offset="0" style="stop-color:#7C59A4"/>
		<stop  offset="0.3852" style="stop-color:#AF4C92"/>
		<stop  offset="0.7654" style="stop-color:#DC4183"/>
		<stop  offset="0.957" style="stop-color:#ED3D7D"/>
	</linearGradient>
	<path id="XMLID_3042_" fill="url(#XMLID_4_)" d="M75.2,77.2c-0.1,0-51-40.2-52.1-40.9l0,0l0,0c-0.8-0.4-1.6-0.8-2.3-1.2
		c-7.5-2.9-15.8,1-18.6,8.6c-2.5,6.6,0.3,13.9,6,17.4l0,0l0,0c0.9,0.5,1.7,0.9,2.6,1.2c0.5,0.3,58.8,24.4,58.8,24.4l0,0
		c2.3,1,5.1,0.4,6.6-1.6C78.1,82.7,77.7,79.2,75.2,77.2z"/>
	
		<linearGradient id="XMLID_5_" gradientUnits="userSpaceOnUse" x1="-214.727" y1="500.9738" x2="-215.4518" y2="500.4611" gradientTransform="matrix(73.9785 0 0 -63.2353 15955.5801 31693.0957)">
		<stop  offset="0" style="stop-color:#EF5A6B"/>
		<stop  offset="0.364" style="stop-color:#EE4E72"/>
		<stop  offset="1" style="stop-color:#ED3D7D"/>
	</linearGradient>
	<path id="XMLID_3057_" fill="url(#XMLID_5_)" d="M65.1,0c-2.2,0-4.3,0.8-6,1.9L7.6,36.7c-0.1,0.1-0.3,0.1-0.3,0.3H7.3l0,0
		c-2.2,1.6-4,3.9-5.1,6.6c-2.8,7.5,1,16,8.5,18.7c4.7,1.8,9.7,0.9,13.5-1.8l0,0l0,0c0.9-0.6,1.7-1.3,2.3-2.1l44.8-40.5l0,0
		c2.3-1.8,3.9-4.7,3.9-7.9l0,0C75.2,4.5,70.7,0,65.1,0z"/>
	<g id="XMLID_3008_" transform="translate(45.327869, 48.015267)">
		<rect id="XMLID_3033_" x="0.8" y="0.5" width="66" height="66.2"/>
		<rect id="XMLID_3032_" x="6.5" y="54.2" fill="#FFFFFF" width="24.7" height="4.2"/>
		<g id="XMLID_3009_" transform="translate(5.180328, 7.786260)">
			<path id="XMLID_3030_" fill="#FFFFFF" d="M1,10.1L3,8.3c0.5,0.6,1,1,1.7,1c0.8,0,1.2-0.5,1.2-1.6V0.9h3v6.9c0,1.3-0.4,2.3-1,3
				s-1.7,1-3,1C2.8,11.9,1.8,11.2,1,10.1z"/>
			<polygon id="XMLID_3028_" fill="#FFFFFF" points="9.5,1 18.1,1 18.1,3.5 12.4,3.5 12.4,5.2 17.6,5.2 17.6,7.5 12.4,7.5 12.4,9.2 
				18.3,9.2 18.3,11.8 9.6,11.8 			"/>
			<polygon id="XMLID_3026_" fill="#FFFFFF" points="22,3.6 18.8,3.6 18.8,1 28.2,1 28.2,3.6 25,3.6 25,11.8 22,11.8 			"/>
			<path id="XMLID_3022_" fill="#FFFFFF" d="M1.3,14.3h5.6c1.3,0,2.3,0.4,3,0.9c0.4,0.4,0.6,1,0.6,1.8l0,0c0,1.3-0.6,1.9-1.7,2.5
				c1.3,0.4,2.1,1.2,2.1,2.6l0,0c0,1.8-1.6,3-4,3H1.3V14.3z M7.5,17.6c0-0.6-0.5-0.9-1.3-0.9H4.3v1.9h1.8C7,18.6,7.5,18.3,7.5,17.6
				L7.5,17.6z M6.5,20.8H4.1v1.9h2.3c0.9,0,1.4-0.4,1.4-1l0,0C7.9,21,7.4,20.8,6.5,20.8z"/>
			<path id="XMLID_3019_" fill="#FFFFFF" d="M11.4,14.3h5.1c1.7,0,2.7,0.4,3.5,1.2c0.6,0.6,0.9,1.4,0.9,2.5l0,0
				c0,1.7-0.9,2.7-2.2,3.4l2.6,3.8h-3.4l-2.2-3.2h-1.3V25h-3V14.3z M16.3,19.5c1,0,1.6-0.5,1.6-1.3l0,0c0-0.9-0.6-1.3-1.6-1.3h-1.9
				v2.6H16.3z"/>
			<path id="XMLID_3016_" fill="#FFFFFF" d="M24.3,14.3h2.8l4.5,10.9h-3.2l-0.8-1.9h-4.1l-0.8,1.9h-3.1L24.3,14.3z M26.9,20.8
				l-1.2-3l-1.2,3H26.9z"/>
			<polygon id="XMLID_3014_" fill="#FFFFFF" points="32.1,14.3 35.1,14.3 35.1,25 32.1,25 			"/>
			<polygon id="XMLID_3012_" fill="#FFFFFF" points="35.9,14.3 38.6,14.3 43,20 43,14.3 46,14.3 46,25 43.4,25 38.9,19.2 38.9,25.2 
				35.9,25.2 			"/>
			<path id="XMLID_3010_" fill="#FFFFFF" d="M46.2,23.5l1.7-1.9c1,0.9,2.2,1.3,3.5,1.3c0.8,0,1.3-0.3,1.3-0.8l0,0
				c0-0.5-0.4-0.6-1.8-1c-2.3-0.5-4-1.2-4-3.4l0,0c0-1.9,1.6-3.5,4.1-3.5c1.8,0,3.2,0.5,4.4,1.4l-1.6,2.1c-1-0.6-2.1-1-3-1
				c-0.8,0-1,0.3-1,0.6l0,0c0,0.5,0.4,0.6,1.8,1c2.5,0.5,4,1.3,4,3.4l0,0c0,2.2-1.7,3.5-4.4,3.5C49.3,25.3,47.5,24.7,46.2,23.5z"/>
		</g>
	</g>
</g>
<path id="Combined-Shape-Copy-6" fill="#3C3D40" d="M124,0c68.3,0,124,55.7,124,124s-55.6,124-124,124C55.7,248,0,192.4,0,124
	S55.7,0,124,0z M209.1,43.8L43.9,209.1C64.8,228.9,93,241,124,241c64.5,0,117-52.5,117-117C241,93,228.9,64.8,209.1,43.8z M124,7
	C59.5,7,7,59.5,7,124c0,31,12.1,59.2,31.9,80.2L204.2,38.9C183.2,19.1,155,7,124,7z"/>
</svg>
