<?xml version="1.0" encoding="utf-8"?>
<!-- Generator: Adobe Illustrator 23.1.1, SVG Export Plug-In . SVG Version: 6.00 Build 0)  -->
<!DOCTYPE svg PUBLIC "-//W3C//DTD SVG 1.1//EN" "http://www.w3.org/Graphics/SVG/1.1/DTD/svg11.dtd" [
	<!ENTITY ns_extend "http://ns.adobe.com/Extensibility/1.0/">
	<!ENTITY ns_ai "http://ns.adobe.com/AdobeIllustrator/10.0/">
	<!ENTITY ns_graphs "http://ns.adobe.com/Graphs/1.0/">
	<!ENTITY ns_vars "http://ns.adobe.com/Variables/1.0/">
	<!ENTITY ns_imrep "http://ns.adobe.com/ImageReplacement/1.0/">
	<!ENTITY ns_sfw "http://ns.adobe.com/SaveForWeb/1.0/">
	<!ENTITY ns_custom "http://ns.adobe.com/GenericCustomNamespace/1.0/">
	<!ENTITY ns_adobe_xpath "http://ns.adobe.com/XPath/1.0/">
]>
<svg version="1.1" id="Layer_1" xmlns:x="&ns_extend;" xmlns:i="&ns_ai;" xmlns:graph="&ns_graphs;"
	 xmlns="http://www.w3.org/2000/svg" xmlns:xlink="http://www.w3.org/1999/xlink" x="0px" y="0px" width="248px" height="248px"
	 viewBox="0 0 248 248" enable-background="new 0 0 248 248" xml:space="preserve">
<metadata>
	<sfw  xmlns="&ns_sfw;">
		<slices></slices>
		<sliceSourceBounds  bottomLeftOrigin="true" height="248" width="248" x="0" y="0"></sliceSourceBounds>
	</sfw>
</metadata>
<g id="jb-wrong-2" transform="translate(5.000000, 58.000000)">
	
		<linearGradient id="Path_1_" gradientUnits="userSpaceOnUse" x1="-177.0726" y1="484.0243" x2="-176.2614" y2="484.2996" gradientTransform="matrix(222 0 0 -132 39359 63972.4805)">
		<stop  offset="0" style="stop-color:#00FF00"/>
		<stop  offset="1" style="stop-color:#9F76A6"/>
	</linearGradient>
	<path id="Path" fill="url(#Path_1_)" d="M238,8.9c0-4.9-4-8.9-8.9-8.9c-1.8,0-3.3,0.5-4.6,1.3l0,0l-206,122.6l0,0
		c-1.5,0.8-2.5,2.3-2.5,3.9c0,2.4,2,4.3,4.4,4.3c0.8,0,1.4-0.1,1.9-0.5l0,0l0,0c0,0,0.1,0,0.1-0.1L232.7,16.8c0.4-0.1,0.8-0.4,1-0.6
		l0,0l0,0C236.4,14.7,238,12,238,8.9z"/>
	
		<linearGradient id="SVGID_1_" gradientUnits="userSpaceOnUse" x1="-176.9581" y1="480.1823" x2="-176.1351" y2="480.2207" gradientTransform="matrix(179 0 0 -48 31748 23073.7188)">
		<stop  offset="0" style="stop-color:#EC037C"/>
		<stop  offset="1" style="stop-color:#9F76A6"/>
	</linearGradient>
	<path fill="url(#SVGID_1_)" d="M238,9c0-4.9-4-9-8.9-9c-0.4,0-0.6,0-1,0l0,0L70.8,22.7C63.9,23,58.6,29.1,59,36.1
		S65.4,48.4,72.3,48c1.1-0.1,2.1-0.3,3.1-0.6l154.9-29.6c0.4,0,0.6-0.1,1-0.1l0,0l0,0C235.1,16.6,238,13.2,238,9z"/>
	
		<linearGradient id="SVGID_2_" gradientUnits="userSpaceOnUse" x1="-175.2956" y1="484.0207" x2="-174.9857" y2="483.2421" gradientTransform="matrix(73 0 0 -106 12880 51336.3398)">
		<stop  offset="0" style="stop-color:#EC037C"/>
		<stop  offset="1" style="stop-color:#5C2D90"/>
	</linearGradient>
	<path fill="url(#SVGID_2_)" d="M132,112.8c-0.1-3.3-1.1-6.1-2.8-8.6L83.3,31l0,0c-1.9-4.9-6.9-8.3-12.4-8
		c-6.9,0.4-12.2,6.4-11.8,13.3c0,1,0.3,2,0.5,2.9l0,0l0,0c0.5,1.5,1.1,2.9,2.1,4l39.7,75.9c0.4,1,0.9,1.9,1.5,2.8l0,0l0,0
		c2.9,4.4,7.9,7.3,13.7,7.1C125.2,128.9,132.1,121.6,132,112.8z"/>
	
		<linearGradient id="SVGID_3_" gradientUnits="userSpaceOnUse" x1="-176.6549" y1="483.4274" x2="-175.8106" y2="483.0313" gradientTransform="matrix(132 0 0 -94 23323 45504.6602)">
		<stop  offset="0" style="stop-color:#00FF00"/>
		<stop  offset="1" style="stop-color:#5C2D90"/>
	</linearGradient>
	<path fill="url(#SVGID_3_)" d="M132,111.9c-0.1-5.3-2.9-10-7-12.8l0,0l0,0c-0.8-0.5-1.6-1-2.5-1.4L8.3,34.8l0,0
		c-1-0.5-2.1-0.9-3.3-0.8c-3,0.3-5.3,2.9-5,6c0.1,1.9,1.1,3.4,2.6,4.3l102.3,79c3,3,7.1,4.9,11.8,4.8
		C125.2,127.9,132.1,120.6,132,111.9z"/>
	<rect id="Rectangle" x="62" y="46" width="64" height="64"/>
	<rect x="68" y="98" fill="#FFFFFF" width="24" height="4"/>
	<g id="Group" transform="translate(68.000000, 54.000000)">
		<path fill="#FFFFFF" d="M0,9l1.9-1.8c0.5,0.6,1,1,1.6,1c0.8,0,1.1-0.5,1.1-1.5V0h2.9v6.7c0,1.3-0.4,2.3-1,2.9
			c-0.6,0.6-1.6,1-2.9,1C1.9,10.7,0.8,10,0,9z"/>
		<polygon fill="#FFFFFF" points="8.3,0.1 16.7,0.1 16.7,2.5 11.2,2.5 11.2,4.2 16.2,4.2 16.2,6.4 11.2,6.4 11.2,8.1 16.8,8.1 
			16.8,10.6 8.4,10.6 8.4,0.1 		"/>
		<polygon fill="#FFFFFF" points="20.5,2.7 17.3,2.7 17.3,0.1 26.5,0.1 26.5,2.7 23.4,2.7 23.4,10.6 20.5,10.6 		"/>
		<path id="Shape" fill="#FFFFFF" d="M0.3,13h5.4c1.3,0,2.3,0.4,2.9,0.9c0.4,0.4,0.6,1,0.6,1.8l0,0c0,1.3-0.6,1.9-1.6,2.4
			c1.3,0.4,2.1,1.1,2.1,2.5l0,0c0,1.8-1.5,2.9-3.9,2.9H0.4V13H0.3z M6.3,16.3c0-0.6-0.5-0.9-1.3-0.9H3.1v1.9h1.8
			C5.8,17.2,6.3,16.9,6.3,16.3L6.3,16.3z M5.3,19.2H3v1.9h2.3c0.9,0,1.4-0.4,1.4-1l0,0C6.8,19.6,6.3,19.2,5.3,19.2z"/>
		<path fill="#FFFFFF" d="M10,13h4.9c1.6,0,2.8,0.4,3.4,1.1c0.6,0.6,0.9,1.4,0.9,2.4l0,0c0,1.6-0.9,2.7-2.1,3.3l2.5,3.7h-3.3
			l-2.1-3.2h-1.3v3.2H10V13z M14.8,18.1c1,0,1.5-0.5,1.5-1.3l0,0c0-0.9-0.6-1.3-1.5-1.3h-1.9v2.5H14.8z"/>
		<path fill="#FFFFFF" d="M22.7,13h2.8l4.4,10.6h-3.1L26,21.7h-4l-0.6,1.8h-3L22.7,13z M25.2,19.3l-1.1-2.9l-1.1,3h2.3V19.3z"/>
		<polygon fill="#FFFFFF" points="30.3,13 33.2,13 33.2,23.5 30.3,23.5 		"/>
		<polygon fill="#FFFFFF" points="33.9,13 36.7,13 40.9,18.6 40.9,13 43.8,13 43.8,23.5 41.3,23.5 36.8,17.7 36.8,23.5 33.9,23.5 		
			"/>
		<path fill="#FFFFFF" d="M44,22l1.6-1.9c1,0.9,2.1,1.3,3.4,1.3c0.8,0,1.3-0.3,1.3-0.8l0,0c0-0.5-0.4-0.6-1.8-1
			c-2.3-0.5-3.9-1.1-3.9-3.3l0,0c0-1.9,1.5-3.4,4-3.4c1.8,0,3.1,0.5,4.3,1.4l-1.5,2c-1-0.6-2-1-2.9-1c-0.8,0-1,0.3-1,0.6l0,0
			c0,0.5,0.4,0.6,1.8,1c2.4,0.5,3.9,1.3,3.9,3.3l0,0c0,2.1-1.6,3.4-4.3,3.4C47,23.7,45.2,23.1,44,22z"/>
	</g>
</g>
<path id="Combined-Shape-Copy-4" fill="#3C3D40" d="M124,0c68.3,0,124,55.7,124,124s-55.6,124-124,124C55.7,248,0,192.4,0,124
	S55.7,0,124,0z M209.1,43.8L43.9,209.1C64.8,228.9,93,241,124,241c64.5,0,117-52.5,117-117C241,93,228.9,64.8,209.1,43.8z M124,7
	C59.5,7,7,59.5,7,124c0,31,12.1,59.2,31.9,80.2L204.2,38.9C183.2,19.1,155,7,124,7z"/>
</svg>
