<?xml version="1.0" encoding="utf-8"?>
<!-- Generator: Adobe Illustrator 23.1.1, SVG Export Plug-In . SVG Version: 6.00 Build 0)  -->
<!DOCTYPE svg PUBLIC "-//W3C//DTD SVG 1.1//EN" "http://www.w3.org/Graphics/SVG/1.1/DTD/svg11.dtd" [
	<!ENTITY ns_extend "http://ns.adobe.com/Extensibility/1.0/">
	<!ENTITY ns_ai "http://ns.adobe.com/AdobeIllustrator/10.0/">
	<!ENTITY ns_graphs "http://ns.adobe.com/Graphs/1.0/">
	<!ENTITY ns_vars "http://ns.adobe.com/Variables/1.0/">
	<!ENTITY ns_imrep "http://ns.adobe.com/ImageReplacement/1.0/">
	<!ENTITY ns_sfw "http://ns.adobe.com/SaveForWeb/1.0/">
	<!ENTITY ns_custom "http://ns.adobe.com/GenericCustomNamespace/1.0/">
	<!ENTITY ns_adobe_xpath "http://ns.adobe.com/XPath/1.0/">
]>
<svg version="1.1" id="Layer_1" xmlns:x="&ns_extend;" xmlns:i="&ns_ai;" xmlns:graph="&ns_graphs;"
	 xmlns="http://www.w3.org/2000/svg" xmlns:xlink="http://www.w3.org/1999/xlink" x="0px" y="0px" width="248px" height="248px"
	 viewBox="0 0 248 248" enable-background="new 0 0 248 248" xml:space="preserve">
<metadata>
	<sfw  xmlns="&ns_sfw;">
		<slices></slices>
		<sliceSourceBounds  bottomLeftOrigin="true" height="248" width="248" x="0" y="0"></sliceSourceBounds>
	</sfw>
</metadata>
<g id="jb-wrong-4" transform="translate(1.000000, 49.000000)">
	
		<linearGradient id="Path_1_" gradientUnits="userSpaceOnUse" x1="-173.0998" y1="493.106" x2="-172.2885" y2="493.3823" gradientTransform="matrix(230 0 0 -137 39864 67639.9297)">
		<stop  offset="0" style="stop-color:#00ADEE"/>
		<stop  offset="1" style="stop-color:#9F76A6"/>
	</linearGradient>
	<path id="Path" fill="url(#Path_1_)" d="M247,9.2c0-5.1-4.2-9.2-9.2-9.2c-1.8,0-3.4,0.5-4.8,1.3l0,0L19.6,128.5l0,0
		c-1.6,0.8-2.6,2.3-2.6,4c0,2.5,2.1,4.4,4.5,4.4c0.8,0,1.4-0.1,1.9-0.5l0,0l0,0c0,0,0.1,0,0.1-0.1L241.6,17.5c0.4-0.1,0.8-0.4,1-0.7
		l0,0l0,0C245.3,15.2,247,12.5,247,9.2z"/>
	
		<linearGradient id="SVGID_1_" gradientUnits="userSpaceOnUse" x1="-172.9894" y1="489.3091" x2="-172.1665" y2="489.3466" gradientTransform="matrix(185 0 0 -49 32079 24001.6074)">
		<stop  offset="0" style="stop-color:#EC037C"/>
		<stop  offset="1" style="stop-color:#9F76A6"/>
	</linearGradient>
	<path fill="url(#SVGID_1_)" d="M247,9.2c0-5-4.2-9.2-9.2-9.2c-0.4,0-0.6,0-1,0l0,0L74.2,23.1c-7.1,0.4-12.6,6.6-12.2,13.7
		S68.6,49.4,75.8,49c1.2-0.1,2.2-0.3,3.2-0.6l160.1-30.2c0.4,0,0.6-0.1,1-0.1l0,0l0,0C244,16.9,247,13.4,247,9.2z"/>
	
		<linearGradient id="SVGID_2_" gradientUnits="userSpaceOnUse" x1="-171.3903" y1="493.1227" x2="-171.0783" y2="492.344" gradientTransform="matrix(76 0 0 -110 13111.9971 54273.8984)">
		<stop  offset="0" style="stop-color:#EC037C"/>
		<stop  offset="1" style="stop-color:#5C2D90"/>
	</linearGradient>
	<path fill="url(#SVGID_2_)" d="M137,116.2c-0.1-3.4-1.2-6.4-2.9-9L86.3,31.3l0,0c-2-5.1-7.2-8.6-12.9-8.3
		c-7.2,0.4-12.7,6.6-12.3,13.8c0,1,0.3,2.1,0.5,3l0,0l0,0c0.5,1.6,1.2,3,2.2,4.2l41.3,78.8c0.4,1,0.9,2,1.6,2.9l0,0l0,0
		c3,4.6,8.2,7.5,14.3,7.4C129.9,132.9,137.1,125.3,137,116.2z"/>
	
		<linearGradient id="SVGID_3_" gradientUnits="userSpaceOnUse" x1="-172.7029" y1="492.5582" x2="-171.8586" y2="492.1585" gradientTransform="matrix(137 0 0 -98 23665 48336.2109)">
		<stop  offset="0" style="stop-color:#44C7F4"/>
		<stop  offset="1" style="stop-color:#5C2D90"/>
	</linearGradient>
	<path fill="url(#SVGID_3_)" d="M137,117.2c-0.1-5.5-3-10.4-7.3-13.3l0,0l0,0c-0.8-0.5-1.7-1-2.6-1.4L8.6,36.8l0,0
		c-1-0.5-2.2-0.9-3.4-0.8c-3.1,0.3-5.5,3-5.2,6.3c0.1,2,1.2,3.5,2.7,4.4L108.9,129c3.1,3.1,7.4,5.1,12.2,5
		C130,133.9,137.1,126.3,137,117.2z"/>
	<g id="Group" transform="translate(149.000000, 85.000000)">
		<rect id="Rectangle" x="0" y="0" width="66.7" height="66"/>
		<rect x="5.8" y="53.6" fill="#FFFFFF" width="25" height="4.1"/>
		<g transform="translate(5.538462, 7.764706)">
			<path fill="#FFFFFF" d="M0,9.6l2-1.8c0.5,0.6,1,1,1.7,1c0.8,0,1.2-0.5,1.2-1.6V0.4h3v6.9c0,1.3-0.4,2.3-1,3c-0.7,0.6-1.7,1-3,1
				C2,11.4,0.8,10.6,0,9.6z"/>
			<polygon fill="#FFFFFF" points="8.6,0.4 17.4,0.4 17.4,2.8 11.6,2.8 11.6,4.5 16.9,4.5 16.9,6.9 11.6,6.9 11.6,8.5 17.5,8.5 
				17.5,11.1 8.8,11.1 8.8,0.4 			"/>
			<polygon fill="#FFFFFF" points="21.3,3.1 18,3.1 18,0.5 27.6,0.5 27.6,3.1 24.3,3.1 24.3,11.3 21.3,11.3 			"/>
			<path id="Shape" fill="#FFFFFF" d="M0.3,13.7h5.6c1.3,0,2.4,0.4,3,0.9c0.4,0.4,0.7,1,0.7,1.8l0,0c0,1.3-0.7,1.9-1.7,2.5
				c1.3,0.4,2.2,1.2,2.2,2.6l0,0c0,1.8-1.6,3-4.1,3H0.4V13.7H0.3z M6.5,17.1c0-0.6-0.5-0.9-1.3-0.9h-2v1.9h1.8
				C6,18,6.5,17.7,6.5,17.1L6.5,17.1z M5.5,20.1H3.1V22h2.4c0.9,0,1.4-0.4,1.4-1l0,0C7.1,20.4,6.5,20.1,5.5,20.1z"/>
			<path fill="#FFFFFF" d="M10.5,13.7h5.1c1.7,0,2.9,0.4,3.5,1.2c0.7,0.6,0.9,1.4,0.9,2.5l0,0c0,1.7-0.9,2.7-2.2,3.4l2.6,3.8H17
				l-2.2-3.2h-1.3v3.2h-3V13.7z M15.4,18.9c1,0,1.6-0.5,1.6-1.3l0,0c0-0.9-0.7-1.3-1.6-1.3h-2v2.6H15.4z"/>
			<path fill="#FFFFFF" d="M23.7,13.6h2.9l4.6,10.9h-3.3l-0.8-1.9h-4.2l-0.8,1.9H19L23.7,13.6z M26.3,20.2l-1.2-3.1l-1.2,3.1H26.3z"
				/>
			<polygon fill="#FFFFFF" points="31.5,13.7 34.5,13.7 34.5,24.5 31.5,24.5 			"/>
			<polygon fill="#FFFFFF" points="35.3,13.7 38.2,13.7 42.6,19.4 42.6,13.7 45.6,13.7 45.6,24.5 43,24.5 38.3,18.5 38.3,24.5 
				35.3,24.5 			"/>
			<path fill="#FFFFFF" d="M45.8,22.9l1.7-1.9c1,0.9,2.2,1.3,3.5,1.3c0.8,0,1.3-0.3,1.3-0.8l0,0c0-0.5-0.4-0.6-1.8-1
				c-2.4-0.5-4.1-1.2-4.1-3.4l0,0c0-1.9,1.6-3.5,4.2-3.5c1.8,0,3.3,0.5,4.4,1.4l-1.6,2.1c-1-0.6-2.1-1-3-1c-0.8,0-1,0.3-1,0.6l0,0
				c0,0.5,0.4,0.6,1.8,1c2.5,0.5,4.1,1.3,4.1,3.4l0,0c0,2.2-1.7,3.5-4.4,3.5C48.9,24.7,47.1,24.1,45.8,22.9z"/>
		</g>
	</g>
</g>
<path id="Combined-Shape-Copy-2" fill="#3C3D40" d="M124,0c68.3,0,124,55.7,124,124s-55.6,124-124,124C55.7,248,0,192.4,0,124
	S55.7,0,124,0z M209.1,43.8L43.9,209.1C64.8,228.9,93,241,124,241c64.5,0,117-52.5,117-117C241,93,228.9,64.8,209.1,43.8z M124,7
	C59.5,7,7,59.5,7,124c0,31,12.1,59.2,31.9,80.2L204.2,38.9C183.2,19.1,155,7,124,7z"/>
</svg>
