<?xml version="1.0" encoding="utf-8"?>
<!-- Generator: Adobe Illustrator 23.1.1, SVG Export Plug-In . SVG Version: 6.00 Build 0)  -->
<!DOCTYPE svg PUBLIC "-//W3C//DTD SVG 1.1//EN" "http://www.w3.org/Graphics/SVG/1.1/DTD/svg11.dtd" [
	<!ENTITY ns_extend "http://ns.adobe.com/Extensibility/1.0/">
	<!ENTITY ns_ai "http://ns.adobe.com/AdobeIllustrator/10.0/">
	<!ENTITY ns_graphs "http://ns.adobe.com/Graphs/1.0/">
	<!ENTITY ns_vars "http://ns.adobe.com/Variables/1.0/">
	<!ENTITY ns_imrep "http://ns.adobe.com/ImageReplacement/1.0/">
	<!ENTITY ns_sfw "http://ns.adobe.com/SaveForWeb/1.0/">
	<!ENTITY ns_custom "http://ns.adobe.com/GenericCustomNamespace/1.0/">
	<!ENTITY ns_adobe_xpath "http://ns.adobe.com/XPath/1.0/">
]>
<svg version="1.1" id="Layer_1" xmlns:x="&ns_extend;" xmlns:i="&ns_ai;" xmlns:graph="&ns_graphs;"
	 xmlns="http://www.w3.org/2000/svg" xmlns:xlink="http://www.w3.org/1999/xlink" x="0px" y="0px" width="248px" height="248px"
	 viewBox="0 0 248 248" enable-background="new 0 0 248 248" xml:space="preserve">
<metadata>
	<sfw  xmlns="&ns_sfw;">
		<slices></slices>
		<sliceSourceBounds  bottomLeftOrigin="true" height="248" width="248" x="0" y="0"></sliceSourceBounds>
	</sfw>
</metadata>
<g id="jb-wrong-1" transform="translate(37.000000, 39.000000)">
	<g id="Group">
		
			<linearGradient id="XMLID_2_" gradientUnits="userSpaceOnUse" x1="-208.5379" y1="501.7776" x2="-207.7345" y2="502.1075" gradientTransform="matrix(127.0646 0 0 -86.4536 26539.8984 43522.0859)">
			<stop  offset="0" style="stop-color:#FCEE39"/>
			<stop  offset="1" style="stop-color:#F37B3D"/>
		</linearGradient>
		<path id="XMLID_60_" fill="url(#XMLID_2_)" d="M154.5,93.5c1.1-1.1,1.9-2.5,1.9-4.1c0.1-3.3-2.4-6.2-5.7-6.3
			c-1.6-0.1-3.1,0.5-4.3,1.5l0,0L37.3,144.2c-2.5,1.1-4.7,2.9-6.1,5.4c-3.7,6.3-1.7,14.4,4.6,18.1c4.5,2.7,9.8,2.3,13.9-0.3l0,0l0,0
			c0.3-0.2,0.6-0.4,0.9-0.7l101.5-71.4C152.7,94.9,154.1,93.9,154.5,93.5L154.5,93.5L154.5,93.5z"/>
		
			<linearGradient id="XMLID_3_" gradientUnits="userSpaceOnUse" x1="-208.2194" y1="502.6232" x2="-207.3089" y2="501.8822" gradientTransform="matrix(102.3333 0 0 -95.1384 21371.1328 47832.543)">
			<stop  offset="0" style="stop-color:#EF5A6B"/>
			<stop  offset="0.57" style="stop-color:#F26F4E"/>
			<stop  offset="1" style="stop-color:#F37B3D"/>
		</linearGradient>
		<path id="XMLID_59_" fill="url(#XMLID_3_)" d="M154.6,84.8L154.6,84.8l-83-81.5c-1.9-2-4.5-3.3-7.4-3.3c-5.5,0-10.1,4.5-10.1,10.1
			l0,0c0,2.7,1.1,5.1,2.8,6.9l0,0H57c0.5,0.5,1,0.9,1.5,1.3l87.7,75.1l0,0c1,0.9,2.3,1.6,3.9,1.7c3.3,0.1,6.2-2.4,6.3-5.7
			C156.5,87.6,155.8,86,154.6,84.8z"/>
		
			<linearGradient id="XMLID_4_" gradientUnits="userSpaceOnUse" x1="-206.8152" y1="499.6405" x2="-207.5376" y2="499.9538" gradientTransform="matrix(76.4398 0 0 -53.0762 15879.3779 26588.041)">
			<stop  offset="0" style="stop-color:#7C59A4"/>
			<stop  offset="0.3852" style="stop-color:#AF4C92"/>
			<stop  offset="0.7654" style="stop-color:#DC4183"/>
			<stop  offset="0.957" style="stop-color:#ED3D7D"/>
		</linearGradient>
		<path id="XMLID_58_" fill="url(#XMLID_4_)" d="M74.3,77.5c-0.1-0.1-51.2-40.5-52.3-41.1H22l0,0c-0.7-0.5-1.5-0.8-2.3-1.1
			c-7.5-2.8-15.9,1-18.7,8.5c-2.5,6.7,0.2,13.9,6,17.5l0,0H7c0.8,0.5,1.6,0.9,2.5,1.2c0.5,0.2,59.1,24.5,59.1,24.5l0,0
			c2.3,1,5.1,0.5,6.7-1.6C77.2,83,76.7,79.5,74.3,77.5z"/>
		
			<linearGradient id="XMLID_5_" gradientUnits="userSpaceOnUse" x1="-206.7345" y1="500.989" x2="-207.4606" y2="500.4767" gradientTransform="matrix(74.2537 0 0 -63.4484 15420.2881 31800.9219)">
			<stop  offset="0" style="stop-color:#EF5A6B"/>
			<stop  offset="0.364" style="stop-color:#EE4E72"/>
			<stop  offset="1" style="stop-color:#ED3D7D"/>
		</linearGradient>
		<path id="XMLID_57_" fill="url(#XMLID_5_)" d="M64.2,0c-2.2,0-4.3,0.7-5.9,1.9L6.3,36.9C6.2,36.9,6.1,37,6,37.1v0.1l0,0
			c-2.2,1.6-4,3.9-5.1,6.7c-2.8,7.5,1,15.9,8.5,18.7c4.7,1.7,9.7,0.9,13.6-1.8l0,0l0,0c0.9-0.6,1.6-1.3,2.3-2.1l45-40.6l0,0
			c2.3-1.9,3.9-4.7,3.9-7.9l0,0C74.3,4.5,69.7,0,64.2,0z"/>
		<g id="XMLID_31_" transform="translate(44.666667, 48.666667)">
			<rect id="XMLID_56_" x="0.3" y="0.1" width="66.3" height="66.3"/>
			<rect id="XMLID_55_" x="6.1" y="53.9" fill="#FFFFFF" width="24.9" height="4.1"/>
			<g id="XMLID_32_" transform="translate(5.333333, 8.000000)">
				<path id="XMLID_53_" fill="#FFFFFF" d="M0.5,9.5l1.9-1.8c0.5,0.7,1,1,1.7,1c0.7,0,1.2-0.5,1.2-1.5V0.3h3v6.9
					c0,1.3-0.3,2.3-1.1,3.1c-0.7,0.7-1.7,1.1-2.9,1.1C2.4,11.3,1.3,10.5,0.5,9.5z"/>
				<polygon id="XMLID_51_" fill="#FFFFFF" points="9,0.3 17.7,0.3 17.7,2.9 11.9,2.9 11.9,4.5 17.1,4.5 17.1,6.9 11.9,6.9 
					11.9,8.6 17.7,8.6 17.7,11.1 8.9,11.1 				"/>
				<polygon id="XMLID_49_" fill="#FFFFFF" points="21.6,3 18.4,3 18.4,0.4 27.9,0.4 27.9,3 24.6,3 24.6,11.2 21.6,11.2 				"/>
				<path id="XMLID_45_" fill="#FFFFFF" d="M0.7,13.7h5.5c1.3,0,2.3,0.3,2.9,0.9c0.4,0.5,0.7,1,0.7,1.7l0,0c0,1.3-0.7,2-1.7,2.4
					c1.3,0.4,2.1,1.2,2.1,2.7l0,0c0,1.9-1.5,3-4.1,3H0.7L0.7,13.7z M7,17c0-0.6-0.5-0.9-1.3-0.9H3.7V18h1.9C6.5,18,7,17.7,7,17L7,17
					z M5.9,20.1H3.7v2H6c0.9,0,1.5-0.3,1.5-1l0,0C7.4,20.5,6.9,20.1,5.9,20.1z"/>
				<path id="XMLID_42_" fill="#FFFFFF" d="M10.9,13.7H16c1.7,0,2.8,0.4,3.5,1.1c0.7,0.7,0.9,1.5,0.9,2.5l0,0c0,1.7-0.9,2.7-2.2,3.3
					l2.6,3.8h-3.5l-2.2-3.3h-1.3v3.3h-3V13.7z M15.9,18.9c1,0,1.6-0.5,1.6-1.3l0,0c0-0.9-0.7-1.3-1.6-1.3h-2v2.6L15.9,18.9
					L15.9,18.9z"/>
				<path id="XMLID_39_" fill="#FFFFFF" d="M24,13.6h2.9l4.6,10.9h-3.2l-0.8-1.9h-4.2l-0.8,1.9h-3.1L24,13.6z M26.6,20.2l-1.2-3.1
					l-1.2,3.1H26.6z"/>
				<polygon id="XMLID_37_" fill="#FFFFFF" points="31.8,13.7 34.8,13.7 34.8,24.5 31.8,24.5 				"/>
				<polygon id="XMLID_35_" fill="#FFFFFF" points="35.5,13.7 38.3,13.7 42.8,19.4 42.8,13.7 45.7,13.7 45.7,24.5 43.1,24.5 
					38.5,18.5 38.5,24.5 35.5,24.5 				"/>
				<path id="XMLID_33_" fill="#FFFFFF" d="M45.9,22.9l1.7-2c1.1,0.9,2.3,1.3,3.5,1.3c0.8,0,1.3-0.3,1.3-0.7l0,0
					c0-0.5-0.3-0.7-1.9-1.1c-2.3-0.5-4.1-1.2-4.1-3.4l0,0c0-2,1.6-3.5,4.2-3.5c1.9,0,3.3,0.5,4.5,1.5l-1.5,2.1c-1-0.7-2.1-1.1-3-1.1
					c-0.7,0-1.1,0.3-1.1,0.7l0,0c0,0.5,0.4,0.7,1.9,1.1c2.5,0.5,4,1.3,4,3.4l0,0c0,2.2-1.7,3.5-4.4,3.5
					C49.1,24.7,47.3,24.1,45.9,22.9z"/>
			</g>
		</g>
	</g>
	<g transform="translate(114.000000, 86.000000)">
		<polygon id="Path" fill="#FFFFFF" points="2.7,1 0.2,1 0.2,0.5 5.6,0.5 5.6,1 3.1,1 3.1,7.5 2.7,7.5 		"/>
		<polygon fill="#FFFFFF" points="6.5,0.5 7,0.5 7,3.8 11.5,3.8 11.5,0.5 12.1,0.5 12.1,7.6 11.5,7.6 11.5,4.3 7,4.3 7,7.6 6.5,7.6 
					"/>
		<polygon fill="#FFFFFF" points="13.3,0.5 18.3,0.5 18.3,1 13.9,1 13.9,3.7 17.9,3.7 17.9,4.2 13.9,4.2 13.9,7 18.4,7 18.4,7.5 
			13.3,7.5 		"/>
		<path id="Shape" fill="#FFFFFF" d="M21.6,0.5h2.3c2.2,0,3.7,1.5,3.7,3.5l0,0c0,2-1.5,3.5-3.7,3.5h-2.3V0.5z M22.1,1v6.1h1.8
			c1.9,0,3.2-1.3,3.2-3l0,0c0-1.7-1.3-3.1-3.2-3.1H22.1z"/>
		<path fill="#FFFFFF" d="M28.7,0.5h2.9c0.9,0,1.5,0.3,2,0.7C34,1.5,34.2,2,34.2,2.5l0,0c0,1.2-0.9,1.9-2.1,2l2.3,3h-0.7l-2.3-2.9
			h-2.3v2.9h-0.5L28.7,0.5L28.7,0.5z M31.7,4.2c1.2,0,2.1-0.6,2.1-1.6l0,0c0-0.9-0.7-1.5-2-1.5h-2.4v3.2L31.7,4.2L31.7,4.2z"/>
		<polygon fill="#FFFFFF" points="35.3,0.5 35.9,0.5 35.9,7.6 35.3,7.6 		"/>
		<polygon fill="#FFFFFF" points="36.7,0.5 37.3,0.5 40,7 42.8,0.5 43.3,0.5 40.3,7.6 39.8,7.6 		"/>
		<polygon fill="#FFFFFF" points="44.1,0.5 49.1,0.5 49.1,1 44.6,1 44.6,3.7 48.7,3.7 48.7,4.2 44.6,4.2 44.6,7 49.1,7 49.1,7.5 
			44.1,7.5 		"/>
		<polygon fill="#FFFFFF" points="2.7,11.1 0.2,11.1 0.2,10.6 5.6,10.6 5.6,11.1 3.1,11.1 3.1,17.6 2.7,17.6 		"/>
		<path fill="#FFFFFF" d="M5.6,14.1L5.6,14.1c0-1.9,1.4-3.7,3.5-3.7s3.5,1.7,3.5,3.6l0,0c0,1.9-1.4,3.7-3.5,3.7S5.6,16.1,5.6,14.1z
			 M12.1,14.1L12.1,14.1c0-1.7-1.3-3.2-3-3.2s-3,1.4-3,3.1l0,0c0,1.7,1.3,3.2,3,3.2S12.1,15.9,12.1,14.1z"/>
		<path fill="#FFFFFF" d="M16,10.6h2.3c2.2,0,3.7,1.5,3.7,3.5l0,0c0,2-1.5,3.5-3.7,3.5H16V10.6z M16.5,11.1v6.1h1.8
			c1.9,0,3.2-1.3,3.2-3l0,0c0-1.7-1.3-3.1-3.2-3.1H16.5z"/>
		<polygon fill="#FFFFFF" points="23.1,10.6 28.1,10.6 28.1,11.1 23.7,11.1 23.7,13.8 27.7,13.8 27.7,14.3 23.7,14.3 23.7,17.1 
			28.2,17.1 28.2,17.5 23.1,17.5 		"/>
		<polygon fill="#FFFFFF" points="28.5,10.6 29.1,10.6 31.9,17.1 34.7,10.6 35.2,10.6 32.1,17.7 31.7,17.7 		"/>
		<polygon fill="#FFFFFF" points="35.9,10.6 40.9,10.6 40.9,11.1 36.5,11.1 36.5,13.8 40.5,13.8 40.5,14.3 36.5,14.3 36.5,17.1 
			41,17.1 41,17.5 35.9,17.5 		"/>
		<polygon fill="#FFFFFF" points="41.9,10.6 42.5,10.6 42.5,17.1 46.6,17.1 46.6,17.6 41.9,17.6 		"/>
		<path fill="#FFFFFF" d="M46.7,14.1L46.7,14.1c0-1.9,1.4-3.7,3.5-3.7c2.1,0,3.5,1.7,3.5,3.6l0,0c0,1.9-1.4,3.7-3.5,3.7
			C48.1,17.7,46.7,16.1,46.7,14.1z M53.2,14.1L53.2,14.1c0-1.7-1.3-3.2-3-3.2s-3,1.4-3,3.1l0,0c0,1.7,1.3,3.2,3,3.2
			S53.2,15.9,53.2,14.1z"/>
		<path fill="#FFFFFF" d="M54.8,10.6h2.5c1.5,0,2.6,0.8,2.6,2.1l0,0c0,1.5-1.3,2.3-2.7,2.3h-1.9v2.6h-0.5V10.6z M57.3,14.5
			c1.3,0,2.2-0.7,2.2-1.7l0,0c0-1.1-0.9-1.7-2.1-1.7h-2v3.5H57.3z"/>
	</g>
</g>
<path id="Combined-Shape-Copy-3" fill="#3C3D40" d="M124,0c68.3,0,124,55.7,124,124s-55.6,124-124,124C55.7,248,0,192.4,0,124
	S55.7,0,124,0z M209.1,43.8L43.9,209.1C64.8,228.9,93,241,124,241c64.5,0,117-52.5,117-117C241,93,228.9,64.8,209.1,43.8z M124,7
	C59.5,7,7,59.5,7,124c0,31,12.1,59.2,31.9,80.2L204.2,38.9C183.2,19.1,155,7,124,7z"/>
</svg>
