<?xml version="1.0" encoding="utf-8"?>
<!-- Generator: Adobe Illustrator 23.1.1, SVG Export Plug-In . SVG Version: 6.00 Build 0)  -->
<!DOCTYPE svg PUBLIC "-//W3C//DTD SVG 1.1//EN" "http://www.w3.org/Graphics/SVG/1.1/DTD/svg11.dtd" [
	<!ENTITY ns_extend "http://ns.adobe.com/Extensibility/1.0/">
	<!ENTITY ns_ai "http://ns.adobe.com/AdobeIllustrator/10.0/">
	<!ENTITY ns_graphs "http://ns.adobe.com/Graphs/1.0/">
	<!ENTITY ns_vars "http://ns.adobe.com/Variables/1.0/">
	<!ENTITY ns_imrep "http://ns.adobe.com/ImageReplacement/1.0/">
	<!ENTITY ns_sfw "http://ns.adobe.com/SaveForWeb/1.0/">
	<!ENTITY ns_custom "http://ns.adobe.com/GenericCustomNamespace/1.0/">
	<!ENTITY ns_adobe_xpath "http://ns.adobe.com/XPath/1.0/">
]>
<svg version="1.1" id="Layer_1" xmlns:x="&ns_extend;" xmlns:i="&ns_ai;" xmlns:graph="&ns_graphs;"
	 xmlns="http://www.w3.org/2000/svg" xmlns:xlink="http://www.w3.org/1999/xlink" x="0px" y="0px" width="248px" height="248px"
	 viewBox="0 0 248 248" enable-background="new 0 0 248 248" xml:space="preserve">
<metadata>
	<sfw  xmlns="&ns_sfw;">
		<slices></slices>
		<sliceSourceBounds  bottomLeftOrigin="true" height="248" width="248" x="0" y="0"></sliceSourceBounds>
	</sfw>
</metadata>
<g id="jb-wrong-3" transform="translate(15.000000, 63.000000)">
	<g id="Group">
		
			<linearGradient id="Path_1_" gradientUnits="userSpaceOnUse" x1="-186.9909" y1="478.7559" x2="-186.4072" y2="479.1688" gradientTransform="matrix(218.4136 0 0 -122.4563 40888.8711 58713.6602)">
			<stop  offset="0" style="stop-color:#AA62A6"/>
			<stop  offset="0.5534" style="stop-color:#C55597"/>
			<stop  offset="1" style="stop-color:#D64C8D"/>
		</linearGradient>
		<path id="Path" fill="url(#Path_1_)" d="M214.8,11.3c2.4-1.2,3.8-2.9,3.7-4.8c-0.2-3.6-6.5-6.4-13.9-6.3c-3.7,0.1-6.9,0.8-9.3,2
			l0,0L5.1,108.2c-3.1,1.6-5.1,3.7-5,6.1c0.1,4.7,8,8.5,17.6,8.3c5.3,0,10.1-1.2,13.2-3.1l0,0L214.8,11.3z"/>
		
			<linearGradient id="SVGID_1_" gradientUnits="userSpaceOnUse" x1="-186.9211" y1="475.2864" x2="-186.1954" y2="475.3806" gradientTransform="matrix(184.7912 0 0 -49.0247 34601.4883 23327.6895)">
			<stop  offset="0" style="stop-color:#ED417C"/>
			<stop  offset="0.225" style="stop-color:#E74480"/>
			<stop  offset="1" style="stop-color:#D64C8D"/>
		</linearGradient>
		<path fill="url(#SVGID_1_)" d="M218.5,6.5c-0.2-3.6-6.5-6.4-13.9-6.3c-2.2,0-4.1,0.4-5.9,0.7h-0.1l-158.3,38
			c-4.1,0.8-6.8,3-6.6,5.2c0.4,3,5.6,5.2,11.6,5c1.6,0,3.1-0.2,4.4-0.6l0,0l160.1-35.8C215.2,11.9,218.6,9.4,218.5,6.5z"/>
		
			<linearGradient id="SVGID_2_" gradientUnits="userSpaceOnUse" x1="-186.6542" y1="477.6441" x2="-186.0035" y2="477.2833" gradientTransform="matrix(145.6643 0 0 -75.9689 27245.4922 36350.4883)">
			<stop  offset="0" style="stop-color:#ED417C"/>
			<stop  offset="2.053314e-02" style="stop-color:#ED427A"/>
			<stop  offset="0.671" style="stop-color:#F16B4E"/>
			<stop  offset="1" style="stop-color:#F37B3D"/>
		</linearGradient>
		<path fill="url(#SVGID_2_)" d="M172.6,96.6L52.8,40.5c-2.2-1.1-5.3-1.8-8.7-1.7c-6.1,0.1-10.8,2.7-10.4,5.7
			c0.1,1.2,1.1,2.3,2.5,3.1l0,0l104.2,63c3.9,2.6,10.3,4.3,17.5,4.2c12,0,21.5-4.8,21.4-10.6C179.4,101.2,176.8,98.6,172.6,96.6z"/>
		<g transform="translate(0.000000, 56.230769)">
			<path fill="#39BFEF" d="M167.4,38.6C174.5,40.3,167.3,38.6,167.4,38.6L167.4,38.6z"/>
			
				<linearGradient id="SVGID_3_" gradientUnits="userSpaceOnUse" x1="-186.8942" y1="420.1495" x2="-186.1069" y2="419.9942" gradientTransform="matrix(179.3778 0 0 -58.5471 33550.1602 24624.4844)">
				<stop  offset="0" style="stop-color:#39BFEF"/>
				<stop  offset="0.2475" style="stop-color:#6EACBD"/>
				<stop  offset="0.6087" style="stop-color:#B59278"/>
				<stop  offset="0.869" style="stop-color:#E2814D"/>
				<stop  offset="1" style="stop-color:#F37B3D"/>
			</linearGradient>
			<path fill="url(#SVGID_3_)" d="M179.4,47.5c0.1-3.3-3.4-6.7-12-8.8c-10.2-2.5-20.6-5-30.8-7.5s-20.3-5-30.4-7.4
				c-10.2-2.5-20.3-5-30.5-7.4c-10.3-2.5-20.6-5-30.8-7.5C34.9,6.3,12,0.7,12,0.7c-1.6-0.4-3.5-0.5-5.3-0.2C2.2,1-0.7,3.2,0.4,5.5
				C0.8,6.6,2.2,7.4,3.8,8c0,0,0.1,0,0.1,0.1h0.1c0,0,2.5,0.8,3.9,1.3c2.4,0.8,4.8,1.7,7.2,2.5c4.5,1.6,9.2,3.2,13.8,4.8
				c9.5,3.2,18.9,6.6,28.4,9.8c9.3,3.2,18.5,6.4,27.9,9.7s18.8,6.4,28.1,9.7s18.7,6.6,28.1,9.8c1.2,0.4,2.3,0.8,3.5,1.2
				c0.2,0.1,0.5,0.1,0.7,0.2l0,0c3.5,1.2,7.8,1.9,12.4,1.9c12,0,21.5-4.8,21.4-10.6C179.4,47.8,179.4,47.7,179.4,47.5z"/>
		</g>
	</g>
	<g transform="translate(48.000000, 45.000000)">
		<rect id="Rectangle" x="0.1" y="0.4" width="94.8" height="46.5"/>
		<rect x="8.3" y="38.2" fill="#FFFFFF" width="35.5" height="2.9"/>
		<g transform="translate(7.200000, 6.025641)">
			<path fill="#FFFFFF" d="M0.7,6.6l2.8-1.3C4.2,5.8,4.9,6,5.9,6C7,6,7.7,5.7,7.7,4.9V0.1h4.2v4.8c0,1-0.5,1.6-1.6,2.2
				c-1,0.5-2.5,0.7-4.2,0.7C3.5,8,1.8,7.4,0.7,6.6z"/>
			<polygon fill="#FFFFFF" points="13,0.2 25.4,0.2 25.4,2 17.3,2 17.3,3.3 24.7,3.3 24.7,4.8 17.3,4.8 17.3,6 25.6,6 25.6,7.8 
				13,7.8 			"/>
			<polygon fill="#FFFFFF" points="31,2 26.4,2 26.4,0.2 40,0.2 40,2 35.3,2 35.3,7.8 31,7.8 			"/>
			<path id="Shape" fill="#FFFFFF" d="M1.1,9.5H9c1.9,0,3.4,0.2,4.2,0.7c0.6,0.4,1,0.7,1,1.2l0,0c0,0.8-1,1.4-2.4,1.7
				c1.9,0.4,3.1,0.8,3.1,1.8l0,0c0,1.3-2.2,2-5.9,2H1.1V9.5z M10.1,11.9c0-0.5-0.7-0.6-1.9-0.6H5.4v1.3H8
				C9.2,12.7,10.1,12.4,10.1,11.9L10.1,11.9z M8.5,14.1H5.3v1.4h3.4c1.3,0,2-0.2,2-0.7l0,0C10.7,14.3,10,14.1,8.5,14.1z"/>
			<path fill="#FFFFFF" d="M15.6,9.5h7.3c2.4,0,4,0.4,5,0.8c1,0.5,1.3,1,1.3,1.8l0,0c0,1.2-1.2,1.9-3.1,2.3l3.7,2.7H25l-3.1-2.3
				h-1.9v2.3h-4.3V9.5z M22.7,13.3c1.4,0,2.3-0.4,2.3-0.8l0,0c0-0.6-1-1-2.3-1h-2.9v1.8H22.7z"/>
			<path fill="#FFFFFF" d="M34.3,9.5h4.1l6.6,7.6h-4.6l-1.1-1.3h-6l-1.1,1.3h-4.4L34.3,9.5z M38,14.2l-1.7-2.2l-1.8,2.2H38z"/>
			<polygon fill="#FFFFFF" points="45.5,9.5 49.8,9.5 49.8,17.1 45.5,17.1 			"/>
			<polygon fill="#FFFFFF" points="50.9,9.5 54.8,9.5 61.2,13.5 61.2,9.5 65.4,9.5 65.4,17.1 61.7,17.1 55.1,12.9 55.1,17.1 
				50.9,17.1 			"/>
			<path fill="#FFFFFF" d="M65.8,16l2.4-1.4c1.6,0.6,3.2,1,5,1c1.2,0,1.8-0.2,1.8-0.5l0,0c0-0.4-0.5-0.5-2.6-0.7
				c-3.2-0.4-5.9-0.8-5.9-2.4l0,0c0-1.4,2.3-2.4,6-2.4c2.6,0,4.7,0.4,6.4,1l-2.2,1.4c-1.4-0.5-3-0.7-4.3-0.7c-1.1,0-1.6,0.2-1.6,0.5
				l0,0c0,0.4,0.5,0.5,2.6,0.7c3.5,0.4,5.8,1,5.8,2.4l0,0c0,1.6-2.5,2.5-6.2,2.5C70.2,17.4,67.7,16.9,65.8,16z"/>
		</g>
	</g>
</g>
<path id="Combined-Shape-Copy-5" fill="#3C3D40" d="M124,0c68.3,0,124,55.7,124,124s-55.6,124-124,124C55.7,248,0,192.4,0,124
	S55.7,0,124,0z M209.1,43.8L43.9,209.1C64.8,228.9,93,241,124,241c64.5,0,117-52.5,117-117C241,93,228.9,64.8,209.1,43.8z M124,7
	C59.5,7,7,59.5,7,124c0,31,12.1,59.2,31.9,80.2L204.2,38.9C183.2,19.1,155,7,124,7z"/>
</svg>
