<?xml version="1.0" encoding="utf-8"?>
<!-- Generator: Adobe Illustrator 23.1.1, SVG Export Plug-In . SVG Version: 6.00 Build 0)  -->
<!DOCTYPE svg PUBLIC "-//W3C//DTD SVG 1.1//EN" "http://www.w3.org/Graphics/SVG/1.1/DTD/svg11.dtd" [
	<!ENTITY ns_extend "http://ns.adobe.com/Extensibility/1.0/">
	<!ENTITY ns_ai "http://ns.adobe.com/AdobeIllustrator/10.0/">
	<!ENTITY ns_graphs "http://ns.adobe.com/Graphs/1.0/">
	<!ENTITY ns_vars "http://ns.adobe.com/Variables/1.0/">
	<!ENTITY ns_imrep "http://ns.adobe.com/ImageReplacement/1.0/">
	<!ENTITY ns_sfw "http://ns.adobe.com/SaveForWeb/1.0/">
	<!ENTITY ns_custom "http://ns.adobe.com/GenericCustomNamespace/1.0/">
	<!ENTITY ns_adobe_xpath "http://ns.adobe.com/XPath/1.0/">
]>
<svg version="1.1" id="Layer_1" xmlns:x="&ns_extend;" xmlns:i="&ns_ai;" xmlns:graph="&ns_graphs;"
	 xmlns="http://www.w3.org/2000/svg" xmlns:xlink="http://www.w3.org/1999/xlink" x="0px" y="0px" width="598px" height="256px"
	 viewBox="0 0 598 256" enable-background="new 0 0 598 256" xml:space="preserve">
<metadata>
	<sfw  xmlns="&ns_sfw;">
		<slices></slices>
		<sliceSourceBounds  bottomLeftOrigin="true" height="226.4" width="551.6" x="0" y="9.6"></sliceSourceBounds>
	</sfw>
</metadata>
<title>Artboard 2</title>
<g id="ABCDEFGHIJKLMNOPQRST">
	<g>
		<path fill="#27282C" d="M12.8,147.2H5.6l-1,2.8H0.9l6.2-16h4.3l6.2,16h-3.7L12.8,147.2z M6.5,144.2h5.3l-2.6-7.4L6.5,144.2z"/>
		<path fill="#27282C" d="M20.2,134h8.4c3,0,4.6,1.9,4.6,4.1c0.1,1.7-1.1,3.3-2.8,3.7c1.8,0.4,3.1,2.1,3.1,3.9
			c0,2.4-1.6,4.3-4.6,4.3h-8.7V134z M27.9,140.4c1,0.1,1.8-0.7,1.9-1.6c0.1-1-0.7-1.8-1.6-1.9c-0.1,0-0.2,0-0.3,0h-4.3v3.5H27.9z
			 M28,147.1c1,0.1,1.9-0.6,2-1.6c0-0.1,0-0.2,0-0.3c0-1-0.8-1.9-1.9-1.9c-0.1,0-0.1,0-0.2,0h-4.4v3.8H28z"/>
		<path fill="#27282C" d="M36.5,142c-0.1-4.5,3.4-8.2,7.9-8.3c0.2,0,0.3,0,0.5,0c2.8-0.1,5.5,1.4,6.8,3.9l-2.9,1.4
			c-0.8-1.4-2.3-2.3-3.9-2.3c-2.9,0.2-5.1,2.8-4.9,5.7c0.2,2.6,2.3,4.7,4.9,4.9c1.6,0,3.1-0.9,3.9-2.3l2.9,1.4c-1.3,2.5-4,4-6.8,3.9
			c-4.5,0.2-8.2-3.3-8.4-7.8C36.5,142.3,36.5,142.2,36.5,142z"/>
		<path fill="#27282C" d="M55,134h6.3c5,0,8.5,3.2,8.5,8s-3.5,8-8.5,8H55V134z M61.3,147c2.6,0.1,4.9-1.9,5-4.6c0-0.1,0-0.3,0-0.4
			c0.2-2.6-1.8-4.8-4.4-5c-0.2,0-0.4,0-0.6,0h-2.9v10H61.3z"/>
		<path fill="#27282C" d="M73.4,134h11.3v2.9h-7.9v3.5h7.8v2.9h-7.8v3.7h7.9v2.9H73.4V134z"/>
		<path fill="#27282C" d="M88.6,134H100v2.9h-8v3.5h7.8v2.9H92v6.7h-3.4V134z"/>
		<path fill="#27282C" d="M111.3,133.7c2.7-0.1,5.2,1.2,6.6,3.5l-2.8,1.5c-0.8-1.3-2.3-2-3.8-2c-2.9,0.1-5.2,2.6-5,5.5
			c0.1,2.7,2.3,4.9,5,5c1.3,0,2.5-0.4,3.5-1.2v-2h-4.3v-2.9h7.6v6.1c-1.7,1.9-4.2,3-6.8,3c-4.7,0-8.5-3.3-8.5-8.3
			S106.6,133.7,111.3,133.7z"/>
		<path fill="#27282C" d="M133,143.3h-7.6v6.7H122v-16h3.4v6.3h7.6V134h3.4v16H133V143.3z"/>
		<path fill="#27282C" d="M140.8,134h3.4v16h-3.4V134z"/>
		<path fill="#27282C" d="M148.6,146.1c0.7,0.7,1.6,1.1,2.6,1.1c1.3,0.1,2.4-0.9,2.5-2.2c0-0.1,0-0.2,0-0.3V134h3.4v10.8
			c0,3.8-2.4,5.6-5.6,5.6c-1.6,0.1-3.1-0.5-4.3-1.6L148.6,146.1z"/>
		<path fill="#27282C" d="M166.1,143.6l-1.2,1.5v4.9h-3.4v-16h3.4v7.1l5.7-7.1h4.2l-6.4,7.5l6.8,8.5h-4.2L166.1,143.6z"/>
		<path fill="#27282C" d="M177.9,134h3.4v13h6.7v3h-10.1V134z"/>
		<path fill="#27282C" d="M205.5,138.5L201,150h-1.5l-4.5-11.5V150h-3.4v-16h4.8l3.9,10l3.9-10h4.8v16h-3.4L205.5,138.5z"/>
		<path fill="#27282C" d="M216.7,139.2V150h-3.4v-16h3.5l7.4,10.4V134h3.4v16h-3.3L216.7,139.2z"/>
		<path fill="#27282C" d="M239.6,133.7c4.6,0,8.2,3.8,8.2,8.4c0,4.6-3.8,8.2-8.4,8.2c-4.5,0-8.2-3.7-8.2-8.3
			c-0.2-4.4,3.3-8.1,7.7-8.3C239.2,133.7,239.4,133.7,239.6,133.7z M239.6,136.7c-3,0-4.9,2.3-4.9,5.3s1.9,5.2,4.9,5.2
			s4.9-2.3,4.9-5.2S242.6,136.7,239.6,136.7L239.6,136.7z"/>
		<path fill="#27282C" d="M251.6,134h7.5c2.8-0.1,5.2,2.1,5.4,4.9s-2.1,5.2-4.9,5.4c-0.2,0-0.3,0-0.5,0H255v5.7h-3.4L251.6,134z
			 M258.6,136.9H255v4.4h3.6c1.2,0,2.2-1,2.2-2.2S259.8,136.9,258.6,136.9C258.6,136.9,258.6,136.9,258.6,136.9L258.6,136.9z"/>
		<path fill="#27282C" d="M281.6,147.7l1.2,1.4l-2.4,2l-1.3-1.5c-1.2,0.5-2.5,0.8-3.8,0.8c-4.6-0.1-8.2-3.8-8.2-8.4
			c0.1-4.6,3.8-8.2,8.4-8.2c4.5,0.1,8.2,3.7,8.2,8.3C283.8,144.1,283,146.1,281.6,147.7z M277,147l-1.8-2.1l2.4-1.9l1.8,2.1
			c0.6-0.9,0.8-2,0.8-3.1c0-3-1.9-5.3-4.9-5.3s-4.9,2.3-4.9,5.3s1.9,5.2,4.9,5.2C275.9,147.3,276.5,147.2,277,147z"/>
		<path fill="#27282C" d="M293.2,144.3h-2.5v5.7h-3.4v-16h7.5c2.8-0.2,5.2,1.9,5.4,4.6c0,0.2,0,0.4,0,0.5c0.1,2.2-1.3,4.2-3.5,4.8
			l3.6,6.1h-3.9L293.2,144.3z M294.3,136.9h-3.6v4.4h3.6c1.2,0.1,2.3-0.8,2.4-2c0.1-1.2-0.8-2.3-2-2.4
			C294.6,136.9,294.4,136.9,294.3,136.9z"/>
		<path fill="#27282C" d="M304.7,145.1c1.3,1.4,3.2,2.2,5.1,2.2c1.9,0,2.8-0.9,2.8-1.8c0-1.2-1.4-1.6-3.2-2c-2.6-0.6-6-1.3-6-4.9
			c0-2.7,2.3-4.8,6.1-4.8c2.3-0.1,4.5,0.7,6.2,2.2l-1.9,2.5c-1.3-1.1-2.9-1.8-4.6-1.8c-1.5,0-2.4,0.7-2.4,1.6s1.4,1.4,3.2,1.9
			c2.6,0.6,6,1.4,6,4.9c0,2.9-2.1,5.1-6.4,5.1c-2.5,0.1-5-0.8-6.8-2.6L304.7,145.1z"/>
		<path fill="#27282C" d="M323.1,137h-4.7v-3h12.8v3h-4.7v13h-3.4V137z"/>
		<path fill="#27282C" d="M334.5,134h3.5v9.5c0,2,1.7,3.7,3.7,3.7s3.7-1.7,3.7-3.7c0,0,0,0,0,0V134h3.5v9.6c0,4-2.3,6.7-7.1,6.7
			s-7.2-2.7-7.2-6.7L334.5,134z"/>
		<path fill="#27282C" d="M351.5,134h3.9l4.4,12.3l4.4-12.3h3.9l-6.2,16h-4.3L351.5,134z"/>
		<path fill="#27282C" d="M380.3,139l-2.8,11h-3.6l-4.6-16h3.8l2.8,11.6L379,134h2.7l3,11.6l2.8-11.6h3.8l-4.6,16h-3.6L380.3,139z"
			/>
		<path fill="#27282C" d="M400.5,144.1l-4,5.9h-4.1l5.8-8.2l-5.5-7.8h4.1l3.7,5.5l3.6-5.5h4.1l-5.5,7.8l5.8,8.2h-4.1L400.5,144.1z"
			/>
		<path fill="#27282C" d="M415.8,143.4l-6.2-9.4h3.9l4,6.4l3.9-6.4h3.9l-6.1,9.5v6.5h-3.4L415.8,143.4z"/>
		<path fill="#27282C" d="M427.4,147.2L435,137h-7.6v-3h12v2.7l-7.5,10.3h7.7v3h-12.2V147.2z"/>
	</g>
	<g>
		<path fill="#27282C" d="M9.5,180.8c-1,1-2.3,1.5-3.7,1.5c-2.1,0.1-3.9-1.6-4-3.7c0,0,0-0.1,0-0.1c0-2.7,2.2-3.7,4-3.7
			c1.4-0.1,2.7,0.4,3.7,1.4v-1.6c0-1.2-1-1.9-2.5-1.9c-1.3,0-2.5,0.5-3.4,1.4l-1.2-2c1.4-1.2,3.2-1.8,5.1-1.8c2.6,0,5.1,1.1,5.1,4.4
			v7.4h-3L9.5,180.8z M9.5,177.8c-0.6-0.7-1.5-1.1-2.4-1c-1.2,0-2.2,0.6-2.2,1.8s1,1.7,2.2,1.7c0.9,0.1,1.8-0.3,2.4-1V177.8z"/>
		<path fill="#27282C" d="M16.7,166h3v5.9c0.8-1.1,2.2-1.8,3.6-1.8c3,0,5.1,2.3,5.1,6.1s-2.2,6.1-5.1,6.1c-1.4,0-2.7-0.7-3.6-1.8
			v1.5h-3V166z M22.4,179.6c1.8,0,3-1.4,3-3.4s-1.2-3.4-3-3.4c-1,0-2,0.5-2.6,1.4v4.1C20.4,179.1,21.4,179.6,22.4,179.6L22.4,179.6z
			"/>
		<path fill="#27282C" d="M37.4,170.1c1.8-0.1,3.5,0.7,4.6,2.1l-2,1.9c-0.5-0.8-1.5-1.3-2.5-1.2c-1.9,0.1-3.3,1.7-3.2,3.6
			c0.1,1.7,1.5,3.1,3.2,3.2c1,0,1.9-0.5,2.5-1.2l2,1.9c-1.1,1.4-2.8,2.2-4.6,2.1c-3.4,0.1-6.2-2.5-6.3-5.8c-0.1-3.4,2.5-6.2,5.8-6.3
			C37.1,170.1,37.3,170.1,37.4,170.1L37.4,170.1z"/>
		<path fill="#27282C" d="M53.2,180.5c-0.8,1.1-2.2,1.8-3.6,1.8c-2.9,0-5.1-2.2-5.1-6.1s2.2-6.1,5.1-6.1c1.4,0,2.7,0.7,3.6,1.8V166
			h3.1v16h-3.1V180.5z M53.2,174.1c-0.6-0.8-1.6-1.3-2.6-1.3c-1.7,0-2.9,1.4-2.9,3.4s1.2,3.4,2.9,3.4c1,0,2-0.5,2.6-1.3V174.1z"/>
		<path fill="#27282C" d="M65.7,170.1c3.5,0,5.8,2.6,5.8,6.4v0.7h-8.6c0.2,1.6,1.7,2.8,3.3,2.7c1.1,0,2.2-0.4,3.1-1.1l1.3,2
			c-1.3,1.1-3,1.7-4.8,1.6c-3.4,0.2-6.2-2.4-6.4-5.8c-0.2-3.4,2.4-6.2,5.8-6.4C65.4,170.1,65.5,170.1,65.7,170.1L65.7,170.1z
			 M62.8,175.1h5.7c-0.1-1.5-1.3-2.6-2.8-2.6c0,0,0,0-0.1,0C64.2,172.5,63,173.6,62.8,175.1L62.8,175.1z"/>
		<path fill="#27282C" d="M75.6,173.1h-1.9v-2.7h1.9v-0.6c-0.2-2.1,1.4-3.8,3.4-4c0.2,0,0.3,0,0.5,0c0.8,0,1.5,0.1,2.2,0.5l-0.6,2.2
			c-0.3-0.2-0.7-0.3-1-0.2c-0.9,0-1.4,0.6-1.4,1.7v0.6H81v2.7h-2.3v8.9h-3.1V173.1z"/>
		<path fill="#27282C" d="M85.1,182.8c0.9,1,2.3,1.5,3.6,1.4c1.5,0,3.2-0.6,3.2-2.9v-1.2c-0.8,1.1-2.2,1.8-3.6,1.8
			c-2.9,0-5.1-2-5.1-5.9s2.2-5.9,5.1-5.9c1.4,0,2.7,0.7,3.6,1.8v-1.5H95v10.8c0,4.4-3.4,5.5-6.3,5.5c-1.8,0.1-3.6-0.5-5-1.7
			L85.1,182.8z M91.9,174.1c-0.6-0.8-1.6-1.3-2.6-1.3c-1.8,0.2-3.1,1.7-2.9,3.5c0.1,1.5,1.4,2.7,2.9,2.9c1,0,2-0.5,2.6-1.3V174.1z"
			/>
		<path fill="#27282C" d="M107.1,174.9c0-1.6-0.8-2.1-2.2-2.1c-1,0-2,0.5-2.6,1.4v7.8h-3v-16h3.1v5.9c1-1.2,2.5-1.8,4.1-1.8
			c2.5,0,3.8,1.4,3.8,3.6v8.2h-3L107.1,174.9z"/>
		<path fill="#27282C" d="M114,166.9c0-1,0.8-1.8,1.8-1.8c1,0,1.8,0.8,1.8,1.8c0,1-0.8,1.8-1.8,1.8c0,0,0,0,0,0
			C114.8,168.7,114,167.9,114,166.9z M114.3,170.4h3V182h-3V170.4z"/>
		<path fill="#27282C" d="M124.7,182.3c0,2.6-1.3,4.4-4.1,4.4c-0.4,0-0.9,0-1.3-0.1l0.2-2.5c0.2,0,0.4,0.1,0.7,0.1
			c0.9,0,1.5-0.6,1.5-1.9v-11.9h3.1L124.7,182.3z M121.3,166.9c0-1,0.8-1.8,1.8-1.8c1,0,1.8,0.8,1.8,1.8c0,1-0.8,1.8-1.8,1.8
			c0,0,0,0,0,0C122.1,168.7,121.3,167.9,121.3,166.9z"/>
		<path fill="#27282C" d="M133.3,177.5l-1.4,1.5v3h-3v-16h3v9.6l4.4-5.2h3.8l-4.6,5.2l4.7,6.3h-3.8L133.3,177.5z"/>
		<path fill="#27282C" d="M142.9,166h3.1v16h-3.1L142.9,166z"/>
		<path fill="#27282C" d="M164.6,174.7c0-1.1-0.5-1.9-1.7-1.9c-1,0-1.9,0.5-2.4,1.4v7.8h-3.1v-7.3c0-1.1-0.5-1.9-1.7-1.9
			c-1,0.1-1.9,0.6-2.4,1.4v7.8h-3v-11.6h3v1.5c0.9-1.1,2.3-1.8,3.8-1.8c1.4-0.1,2.8,0.7,3.2,2.1c0.9-1.3,2.4-2.1,4-2.1
			c2.1,0,3.4,1.1,3.4,3.5v8.4h-3.1L164.6,174.7z"/>
		<path fill="#27282C" d="M179.6,175c0-1.6-0.8-2.2-2.1-2.2c-1,0-2,0.5-2.6,1.4v7.8h-3v-11.6h3v1.5c1-1.2,2.5-1.8,4.1-1.8
			c2.6,0,3.8,1.4,3.8,3.7v8.2h-3L179.6,175z"/>
		<path fill="#27282C" d="M186.2,176.2c0-3.4,2.7-6.2,6.1-6.2c3.4,0,6.2,2.7,6.2,6.1s-2.7,6.2-6.1,6.2c0,0,0,0-0.1,0
			c-3.2,0.1-6-2.4-6.1-5.6C186.2,176.5,186.2,176.4,186.2,176.2z M195.3,176.2c0.2-1.7-1.1-3.2-2.7-3.3c-0.1,0-0.2,0-0.3,0
			c-1.9,0-3,1.6-3,3.4s1.1,3.4,3,3.4S195.3,178,195.3,176.2z"/>
		<path fill="#27282C" d="M201.9,186.4v-16h3v1.5c0.9-1.1,2.2-1.8,3.6-1.8c3,0,5.1,2.2,5.1,6.1s-2.2,6.1-5.1,6.1
			c-1.4,0-2.7-0.7-3.6-1.8v5.9L201.9,186.4z M207.6,172.8c-1,0-2,0.5-2.6,1.3v4.1c0.6,0.8,1.6,1.3,2.6,1.3c1.8,0,2.9-1.4,2.9-3.4
			S209.3,172.8,207.6,172.8L207.6,172.8z"/>
		<path fill="#27282C" d="M225.1,186.4v-5.9c-0.8,1.1-2.2,1.8-3.6,1.8c-2.9,0-5.1-2.2-5.1-6.1s2.2-6.1,5.1-6.1
			c1.4,0,2.7,0.6,3.6,1.8v-1.5h3.1v16L225.1,186.4z M225.1,174.1c-0.6-0.8-1.6-1.3-2.6-1.3c-1.7,0-2.9,1.4-2.9,3.4s1.2,3.4,2.9,3.4
			c1,0,2-0.5,2.6-1.3V174.1z"/>
		<path fill="#27282C" d="M232.4,170.4h3.1v1.6c0.9-1.1,2.3-1.8,3.7-1.9v3c-0.3-0.1-0.6-0.1-0.8-0.1c-1.1,0-2.1,0.5-2.9,1.3v7.6
			h-3.1V170.4z"/>
		<path fill="#27282C" d="M242.5,178.3c1.1,1,2.5,1.5,4,1.6c1.3,0,2-0.5,2-1.2s-1-1.1-2.3-1.4c-2-0.4-4.6-0.9-4.6-3.6
			c0-2,1.7-3.6,4.8-3.6c1.7,0,3.3,0.5,4.6,1.6l-1.2,2.1c-0.9-0.9-2.2-1.4-3.4-1.3c-1.1,0-1.8,0.4-1.8,1.1s0.9,1,2.2,1.2
			c2,0.4,4.6,0.9,4.6,3.8c0,2.1-1.8,3.7-5,3.7c-1.9,0-3.7-0.6-5.2-1.8L242.5,178.3z"/>
		<path fill="#27282C" d="M255.5,179.1v-6.1h-1.9v-2.7h1.9v-3.2h3.1v3.2h2.4v2.7h-2.4v5.2c0,0.7,0.4,1.3,1.1,1.3
			c0.4,0,0.7-0.1,1-0.3l0.6,2.3c-0.7,0.6-1.6,0.8-2.5,0.8C256.6,182.3,255.5,181.2,255.5,179.1z"/>
		<path fill="#27282C" d="M272,180.5c-1.1,1.1-2.5,1.8-4.1,1.8c-2.5,0-3.7-1.4-3.7-3.6v-8.2h3v7c-0.2,1,0.5,2,1.6,2.1
			c0.2,0,0.4,0,0.6,0c1,0,2-0.5,2.6-1.3v-7.9h3V182h-3L272,180.5z"/>
		<path fill="#27282C" d="M277.6,170.4h3.3l3,8.1l3-8.1h3.3l-4.6,11.6h-3.3L277.6,170.4z"/>
		<path fill="#27282C" d="M300.5,174.1l-2.5,7.9h-3.3l-3.5-11.6h3.2l2.2,7.8l2.5-7.8h2.7l2.5,7.8l2.2-7.8h3.2l-3.5,11.6H303
			L300.5,174.1z"/>
		<path fill="#27282C" d="M317,178.1l-2.7,3.9h-3.4l4.1-5.9l-3.9-5.6h3.4l2.4,3.6l2.4-3.6h3.4l-3.9,5.6l4.1,5.9h-3.4L317,178.1z"/>
		<path fill="#27282C" d="M326.8,184c0.7,0.1,1.3-0.2,1.6-0.8l0.4-1l-4.7-11.8h3.3l3,8.1l3-8.1h3.3l-5.4,13.5
			c-0.9,2.2-2.4,2.8-4.4,2.8c-0.5,0-1-0.1-1.5-0.2l0.5-2.7C326.1,183.9,326.4,184,326.8,184z"/>
		<path fill="#27282C" d="M338.8,179.7l5.2-6.6h-5.2v-2.7h9.4v2.2l-5.3,6.7h5.4v2.7h-9.5L338.8,179.7z"/>
	</g>
	<g>
		<path fill="#27282C" d="M4.1,210.4c1.1,0,1.9,0.9,1.9,1.9c0,1.1-0.9,1.9-1.9,1.9c-1.1,0-1.9-0.9-1.9-1.9
			C2.2,211.3,3,210.4,4.1,210.4z M2.2,198h3.7l-0.5,10.8H2.7L2.2,198z"/>
		<path fill="#27282C" d="M18.7,198.7c4-0.2,7.4,2.9,7.6,6.9c0,0.1,0,0.3,0,0.4c0,4-2.7,5.9-4.8,5.9c-1.1,0.1-2.1-0.7-2.3-1.8V210
			c-0.8,1.2-2.1,1.9-3.5,2c-2.3,0-3.7-1.7-3.7-4c0-3.1,2.3-5.7,5.4-5.9c1.2-0.1,2.4,0.6,3,1.6l0.3-1.3h2.7l-1.2,5.9
			c0,0.2-0.1,0.4-0.1,0.6c0,0.7,0.4,1.1,0.9,1.1c0.9,0,2.3-1.1,2.3-3.9c0-3.8-2.6-6.4-6.6-6.4c-4.6,0.1-8.4,3.8-8.5,8.5
			c-0.1,3.6,2.9,6.6,6.5,6.7c0.1,0,0.2,0,0.3,0c1.6,0,3.1-0.5,4.4-1.3l0.5,0.7c-1.5,1-3.2,1.5-5,1.5c-4.1,0.1-7.5-3.1-7.6-7.2
			c0-0.1,0-0.2,0-0.3C9.3,203,13.5,198.8,18.7,198.7z M20,205.4c-0.4-0.7-1.1-1.2-1.9-1.2c-1.9,0.1-3.3,1.6-3.3,3.5
			c-0.1,1.1,0.7,2,1.7,2.1c0.1,0,0.2,0,0.3,0c1.1-0.1,2.1-0.6,2.7-1.6L20,205.4z"/>
		<path fill="#27282C" d="M35.6,209.9h-2.3l-1.4,4.1h-2.3l1.4-4.1h-2.3l0.6-1.9h2.4l1.3-4h-2.4l0.6-1.9h2.4L35,198h2.3l-1.3,4.1h2.3
			l1.3-4.1h2.3l-1.4,4.1h2.3l-0.6,1.9h-2.4l-1.3,4h2.4l-0.6,1.9h-2.5l-1.3,4.1h-2.3L35.6,209.9z M35.3,204l-1.3,4h2.2l1.3-4H35.3z"
			/>
		<path fill="#27282C" d="M53,214.2v2.2h-2.2v-2.2c-2.1-0.1-4.1-1-5.7-2.5l1.8-2.6c1,1.1,2.4,1.7,3.8,2v-3.8
			c-2.5-0.6-5.2-1.6-5.2-4.8c0-2.4,2-4.5,5.2-4.8v-2.2H53v2.3c1.8,0.2,3.6,0.9,4.9,2.2l-1.9,2.5c-0.8-0.8-1.9-1.3-3-1.6v3.4
			c2.5,0.6,5.3,1.6,5.3,4.9C58.3,211.8,56.6,213.9,53,214.2z M51,203.8v-3.1c-1.2,0.1-1.9,0.7-1.9,1.6S49.9,203.5,51,203.8z
			 M54.8,209.5c0-0.9-0.8-1.3-2-1.6v3.4C54.2,211.1,54.8,210.3,54.8,209.5L54.8,209.5z"/>
		<path fill="#27282C" d="M65,197.7c2.2-0.1,4,1.6,4.1,3.7c0,0.1,0,0.2,0,0.3c-0.1,2.2-2,4-4.3,3.9c-2.1-0.1-3.8-1.8-3.9-3.9
			c-0.1-2.2,1.6-3.9,3.8-4C64.8,197.7,64.9,197.7,65,197.7z M65,199.6c-1.2-0.1-2.2,0.7-2.3,1.9c-0.1,1.2,0.7,2.2,1.9,2.3
			c1.2,0.1,2.2-0.7,2.3-1.9c0-0.1,0-0.1,0-0.2c0.1-1-0.6-2-1.7-2.1C65.2,199.7,65.1,199.6,65,199.6z M73.7,198h1.8l-10.2,16h-1.8
			L73.7,198z M73.8,206.3c2.2,0,4,1.8,4,4s-1.8,4-4,4c-2.1,0.1-3.9-1.5-4-3.6c0-0.1,0-0.2,0-0.4c-0.1-2.1,1.6-3.9,3.8-4
			C73.6,206.3,73.7,206.3,73.8,206.3L73.8,206.3z M73.8,208.2c-1.1,0-1.9,0.9-1.9,1.9c0,0.1,0,0.1,0,0.2c-0.1,1.1,0.7,2,1.8,2
			c1.1,0.1,2-0.7,2-1.8c0-0.1,0-0.2,0-0.3c0.1-1.1-0.6-2-1.7-2.1C73.9,208.2,73.9,208.2,73.8,208.2L73.8,208.2z"/>
		<path fill="#27282C" d="M95,214h-3.9c-0.3-0.3-0.7-0.7-1.2-1.2c-1.2,1-2.8,1.5-4.3,1.5c-3,0-5.3-1.5-5.3-4.6
			c0-2.4,1.6-3.7,3.5-4.6c-0.6-1-1-2.2-1.1-3.4c0-2.2,1.9-3.8,4.6-3.8c2.3,0,4.2,1.2,4.2,3.4c0,2.4-2,3.5-3.9,4.4
			c0.5,0.6,1,1.2,1.4,1.7s0.9,1.1,1.4,1.6c0.6-1,1.1-2,1.5-3.1l2.4,1.1c-0.6,1.4-1.4,2.7-2.2,3.9C92.8,211.8,93.9,212.9,95,214z
			 M88.3,211c-0.7-0.8-1.4-1.5-1.8-2c-0.5-0.6-1.1-1.4-1.6-2.1c-0.9,0.5-1.4,1.4-1.4,2.4c-0.1,1.3,1,2.5,2.3,2.5c0,0,0.1,0,0.1,0
			C86.8,211.9,87.6,211.6,88.3,211L88.3,211z M86.4,203.8c1.3-0.6,2.4-1.3,2.4-2.5c0-0.7-0.6-1.3-1.3-1.3c-0.1,0-0.1,0-0.2,0
			c-0.9,0-1.7,0.7-1.7,1.6c0,0,0,0.1,0,0.1C85.7,202.4,86,203.2,86.4,203.8L86.4,203.8z"/>
		<path fill="#27282C" d="M97.4,208.2c0-3.9,1.3-7.6,3.8-10.6l1.9,1.4c-1.6,2.8-2.5,5.9-2.4,9.2c-0.1,3.2,0.8,6.4,2.4,9.1l-1.9,1.5
			C98.7,215.8,97.4,212,97.4,208.2z"/>
		<path fill="#27282C" d="M105.1,199l1.9-1.4c5.1,6.1,5.1,15.1,0,21.2l-1.9-1.5c1.7-2.7,2.5-5.9,2.4-9.1
			C107.6,204.9,106.8,201.8,105.1,199z"/>
		<path fill="#27282C" d="M120.1,211.7h-2.1v-4.9h-4.3V205h4.3v-4.7h2.1v4.7h4.3v1.9h-4.3V211.7z"/>
		<path fill="#27282C" d="M127.1,206.9h5.8v2.6H127L127.1,206.9z"/>
		<path fill="#27282C" d="M135.4,202.8h10.7v1.9h-10.7V202.8z M135.4,207.3h10.7v1.9h-10.7V207.3z"/>
		<path fill="#27282C" d="M149.3,214.7v-4.1c0-0.9-0.4-1.6-1.2-1.6v-1.7c0.8,0,1.2-0.7,1.2-1.6v-4.1c-0.1-2,1.5-3.8,3.6-3.8
			c0.1,0,0.1,0,0.2,0h1.5v2h-1.5c-0.9,0-1.5,0.8-1.5,1.7c0,0,0,0.1,0,0.1v4.5c0.1,0.9-0.3,1.7-1.1,2.2c0.8,0.4,1.2,1.3,1.1,2.2v4.4
			c-0.1,0.9,0.5,1.7,1.4,1.8c0,0,0,0,0.1,0h1.5v2h-1.5c-2,0-3.7-1.6-3.7-3.7C149.3,214.8,149.3,214.8,149.3,214.7z"/>
		<path fill="#27282C" d="M158,216.5c0.9-0.1,1.6-0.9,1.5-1.8c0,0,0,0,0,0v-4.4c-0.1-0.9,0.3-1.7,1.1-2.2c-0.8-0.4-1.2-1.3-1.1-2.2
			v-4.4c0.1-0.9-0.6-1.7-1.4-1.8c0,0,0,0-0.1,0h-1.5v-2h1.5c2,0,3.7,1.6,3.7,3.7c0,0.1,0,0.1,0,0.2v4.1c0,0.9,0.4,1.6,1.2,1.6v1.7
			c-0.8,0-1.2,0.7-1.2,1.6v4.1c0.1,2-1.5,3.7-3.6,3.8c-0.1,0-0.1,0-0.2,0h-1.5v-2L158,216.5z"/>
		<path fill="#27282C" d="M165.6,203.6c0.9-0.5,1.5-1.3,1.8-2.3c-0.1,0.1-0.3,0.1-0.4,0.1c-0.9,0-1.6-0.7-1.6-1.6c0,0,0-0.1,0-0.1
			c0-1,0.8-1.9,1.9-1.9c1.2,0,2.2,1.1,2.2,2.3c0,0.1,0,0.1,0,0.2c-0.1,1.8-1,3.5-2.5,4.5L165.6,203.6z M170.5,203.6
			c0.9-0.5,1.5-1.3,1.9-2.3c-0.2,0.1-0.3,0.1-0.5,0.1c-0.9,0-1.6-0.7-1.6-1.6c0,0,0-0.1,0-0.1c0-1.1,0.8-1.9,1.9-1.9
			c1.2,0,2.2,1.1,2.2,2.3c0,0.1,0,0.1,0,0.2c0,1.8-1,3.5-2.5,4.5L170.5,203.6z"/>
		<path fill="#27282C" d="M177.8,203.6c0.9-0.5,1.5-1.3,1.9-2.3c-0.1,0.1-0.3,0.1-0.5,0.1c-0.9,0-1.6-0.7-1.6-1.6c0,0,0-0.1,0-0.1
			c0-1,0.8-1.9,1.9-1.9c1.2,0,2.2,1.1,2.2,2.3c0,0.1,0,0.1,0,0.2c-0.1,1.8-1,3.5-2.5,4.5L177.8,203.6z M182.7,203.6
			c0.9-0.5,1.6-1.3,1.9-2.3c-0.2,0.1-0.3,0.1-0.5,0.1c-0.9,0-1.6-0.7-1.6-1.6c0,0,0-0.1,0-0.1c0-1.1,0.8-1.9,1.9-1.9
			c1.2,0,2.2,1.1,2.2,2.3c0,0.1,0,0.1,0,0.2c0,1.8-1,3.5-2.5,4.5L182.7,203.6z"/>
		<path fill="#27282C" d="M194.3,203.8c0.7-0.5,1.4-1,1.4-1.7s-0.6-1.4-1.9-1.4c-1.2,0-2.2,0.6-2.9,1.5l-2-2.2
			c1.3-1.5,3.3-2.4,5.3-2.3c3.1,0,5,1.6,5,3.8c0,2-1.3,3-2.4,3.8c-0.8,0.6-1.6,1.1-1.6,2c0,0.4,0.2,0.7,0.4,1l-2.6,0.8
			c-0.5-0.6-0.8-1.3-0.8-2.1C192.2,205.3,193.3,204.5,194.3,203.8z M194.1,210.4c1.1,0,1.9,0.9,1.9,1.9s-0.9,1.9-1.9,1.9
			c-1.1,0-1.9-0.9-1.9-1.9C192.2,211.3,193,210.4,194.1,210.4z"/>
	</g>
	<g>
		<path fill="#27282C" d="M5.9,234.4l-2.7,2.7l-2-2l5-5.1h3v16H5.9V234.4z"/>
		<path fill="#27282C" d="M13.2,243.3c6.6-4.8,8.5-6.5,8.5-8.4c0-1.4-1.3-2.1-2.6-2.1c-1.6,0-3.2,0.7-4.3,1.9l-1.9-2.2
			c1.6-1.7,3.8-2.7,6.2-2.6c3.4,0,6.1,1.9,6.1,5.1c0,2.7-2.2,5.1-6.5,8.1h6.7v3h-12L13.2,243.3z"/>
		<path fill="#27282C" d="M29.9,241.5c1.2,1.2,2.8,1.8,4.4,1.8c1.9,0,3-0.8,3-2.1s-1-1.9-3.2-1.9c-0.7,0-1.8,0-2,0v-3
			c0.3,0,1.4,0,2,0c1.8,0,3-0.6,3-1.8s-1.3-1.9-3-1.9c-1.6,0-3,0.6-4.1,1.7l-1.7-2.1c1.6-1.7,3.8-2.6,6.1-2.6c3.7,0,6,1.7,6,4.4
			c-0.1,1.9-1.6,3.4-3.5,3.6c2.1,0.1,3.7,1.8,3.8,3.8c0,2.8-2.5,4.7-6.3,4.7c-2.4,0.1-4.7-0.8-6.3-2.6L29.9,241.5z"/>
		<path fill="#27282C" d="M51.2,242.7h-7.7V240l6.4-10h4.7v9.7h2.1v3h-2.1v3.3h-3.4V242.7z M46.9,239.7h4.3V233L46.9,239.7z"/>
		<path fill="#27282C" d="M61.5,241.6c1.1,1.1,2.7,1.8,4.3,1.7c1.9,0,3-1.1,3-2.4s-1.1-2.4-2.9-2.4c-1.3,0-2.5,0.4-3.4,1.3l-2.4-0.6
			V230h11v2.9h-7.7v4c1-0.9,2.3-1.3,3.6-1.4c2.8-0.1,5.1,2.1,5.1,4.9c0,0.1,0,0.2,0,0.3c0,3.4-2.5,5.5-6.4,5.5
			c-2.3,0.1-4.5-0.7-6.2-2.4L61.5,241.6z"/>
		<path fill="#27282C" d="M82.6,229.7c1.7,0,3.4,0.6,4.7,1.7l-1.5,2.6c-0.8-0.9-2-1.3-3.2-1.3c-2.4,0-4,2.1-4,4.6c0,0.1,0,0.2,0,0.3
			c1-1.3,2.5-2,4.1-2c2.9,0,5.4,1.8,5.4,5.2c0,3.1-2.5,5.5-6.1,5.5c-4.9,0-6.9-3.8-6.9-8.3C75.1,233.2,77.8,229.7,82.6,229.7z
			 M81.7,238.5c-1.2,0-2.4,0.6-3.1,1.5c0.1,1.5,1,3.3,3.3,3.3c1.4,0.1,2.7-0.9,2.8-2.3c0,0,0-0.1,0-0.1
			C84.7,239.2,83.2,238.5,81.7,238.5z"/>
		<path fill="#27282C" d="M98.7,233h-8.1v-3h12v2.4l-6,13.6H93L98.7,233z"/>
		<path fill="#27282C" d="M108.6,237.7c-1.8-0.6-3.2-1.8-3.2-3.8c0-3,3.2-4.2,6.2-4.2s6.2,1.2,6.2,4.2c0,2-1.4,3.1-3.2,3.8
			c1.9,0.7,3.5,2.2,3.5,4.1c0,3-3.1,4.4-6.4,4.4s-6.4-1.4-6.4-4.4C105.2,239.9,106.7,238.4,108.6,237.7z M111.6,239.3
			c-1,0.1-3,0.8-3,2.2c0,1.2,1.3,1.9,3,1.9s3-0.7,3-1.9C114.6,240,112.6,239.4,111.6,239.3L111.6,239.3z M111.6,232.7
			c-1.6,0-2.7,0.7-2.7,1.8s1.7,1.8,2.7,1.9c1-0.1,2.7-0.7,2.7-1.9S113.2,232.7,111.6,232.7L111.6,232.7z"/>
		<path fill="#27282C" d="M123.2,242.1c0.8,0.8,2,1.3,3.2,1.2c2.6,0,4-2.2,4-4.6v-0.3c-1,1.3-2.5,2-4.1,2.1c-2.9,0-5.5-1.8-5.5-5.2
			c0-3.1,2.5-5.5,6.1-5.5c4.8,0,6.9,3.7,6.9,8.3c0,4.8-2.7,8.2-7.4,8.2c-1.7,0-3.4-0.5-4.7-1.6L123.2,242.1z M127.1,232.7
			c-1.4-0.1-2.7,0.9-2.8,2.3c0,0,0,0,0,0.1c0,1.7,1.4,2.4,2.9,2.4c1.2,0,2.4-0.5,3.1-1.5C130.2,234.5,129.4,232.7,127.1,232.7z"/>
		<path fill="#27282C" d="M143.3,229.7c4.6,0,6.6,4.1,6.6,8.3s-2.1,8.3-6.6,8.3s-6.6-4.1-6.6-8.3S138.7,229.7,143.3,229.7z
			 M143.3,232.7c-2.3,0-3.2,2.3-3.2,5.2s0.9,5.2,3.2,5.2s3.1-2.3,3.1-5.2S145.6,232.8,143.3,232.7L143.3,232.7z"/>
	</g>
</g>
<g id="Proxima-Nova">
	<g>
		<path fill="#27282C" d="M0,23.6h28.7c13.3,0,20.6,9,20.6,19.8S42,63,28.7,63H13.1v22H0V23.6z M27,34.9H13.1v16.9H27
			c5.2,0,9-3.3,9-8.5S32.1,34.9,27,34.9z"/>
		<path fill="#27282C" d="M55.7,40.6h11.7v6.1c3.5-4.3,8.6-6.9,14.2-7.1V51c-1.1-0.2-2.1-0.4-3.2-0.4c-3.9,0-9,2.2-11,5.1V85H55.7
			V40.6z"/>
		<path fill="#27282C" d="M84.4,62.7c0-12.6,8.8-23.3,23.5-23.3s23.5,10.7,23.5,23.3s-8.8,23.4-23.5,23.4S84.4,75.4,84.4,62.7z
			 M119.3,62.7c0-6.9-4.1-12.9-11.4-12.9s-11.3,6-11.3,12.9s4,13,11.3,13S119.3,69.7,119.3,62.7z"/>
		<path fill="#27282C" d="M153.8,70l-10.2,15h-13l15.7-22.8l-14.8-21.6h13.1l9.2,13.7l9.1-13.7H176l-14.9,21.6L177,85h-13.1
			L153.8,70z"/>
		<path fill="#27282C" d="M180.1,27c0-3.9,3.1-7,7-7s7,3.1,7,7s-3.1,7-7,7S180.1,30.9,180.1,27z M181.3,40.5H193V85h-11.7V40.5z"/>
		<path fill="#27282C" d="M258.2,56.9c0-4.1-1.8-7.1-6.6-7.1c-4.1,0-7.5,2.8-9.2,5.2v30h-11.8V56.9c0-4.1-1.8-7.1-6.6-7.1
			c-4.1,0-7.5,2.8-9.2,5.2V85h-11.7V40.6h11.7v5.8c1.8-2.7,7.7-6.9,14.5-6.9c6.5,0,10.7,3,12.3,8.1c3.5-5,9.2-8,15.3-8.1
			c8.2,0,13.1,4.3,13.1,13.4V85h-11.8V56.9z"/>
		<path fill="#27282C" d="M306.7,80.4c-3,3.6-8.3,5.7-14.1,5.7c-7.1,0-15.5-4.8-15.5-14.7c0-10.4,8.4-14.2,15.5-14.2
			c5.9,0,11.1,1.8,14.1,5.4v-6.2c0-4.5-3.9-7.5-9.7-7.5c-4.8,0-9.5,1.9-13,5.2l-4.4-7.8c5.4-4.6,12.3-7.1,19.4-7
			c10.1,0,19.4,4,19.4,16.8V85h-11.7V80.4z M306.7,68.8c-1.9-2.6-5.6-3.9-9.4-3.9c-4.6,0-8.4,2.4-8.4,6.7c0,4.1,3.8,6.5,8.4,6.5
			c3.8,0,7.5-1.3,9.4-3.9V68.8z"/>
		<path fill="#27282C" d="M364,43.8V85h-13.1V23.6h13.4l28.4,39.7V23.6h13.1V85h-12.6L364,43.8z"/>
		<path fill="#27282C" d="M413.4,62.7c0-12.6,8.8-23.3,23.5-23.3s23.5,10.7,23.5,23.3s-8.8,23.4-23.5,23.4S413.4,75.4,413.4,62.7z
			 M448.2,62.7c0-6.9-4.1-12.9-11.4-12.9s-11.3,6-11.3,12.9s4,13,11.3,13S448.2,69.7,448.2,62.7z"/>
		<path fill="#27282C" d="M461.2,40.6h12.5l11.6,30.9l11.6-30.9h12.6L491.6,85H479L461.2,40.6z"/>
		<path fill="#27282C" d="M539.9,80.4c-3,3.6-8.3,5.7-14.1,5.7c-7.1,0-15.5-4.8-15.5-14.7c0-10.4,8.4-14.2,15.5-14.2
			c5.9,0,11.1,1.8,14.1,5.4v-6.2c0-4.5-3.9-7.5-9.8-7.5c-4.8,0-9.5,1.9-13,5.2l-4.4-7.8c5.4-4.6,12.3-7.1,19.4-7
			c10.1,0,19.4,4,19.4,16.8V85h-11.6V80.4z M539.9,68.8c-1.9-2.6-5.6-3.8-9.4-3.8c-4.6,0-8.4,2.4-8.4,6.7c0,4.1,3.8,6.5,8.4,6.5
			c3.8,0,7.5-1.3,9.4-3.9V68.8z"/>
	</g>
</g>
</svg>
