<?xml version="1.0" encoding="utf-8"?>
<!-- Generator: Adobe Illustrator 23.1.1, SVG Export Plug-In . SVG Version: 6.00 Build 0)  -->
<!DOCTYPE svg PUBLIC "-//W3C//DTD SVG 1.1//EN" "http://www.w3.org/Graphics/SVG/1.1/DTD/svg11.dtd" [
	<!ENTITY ns_extend "http://ns.adobe.com/Extensibility/1.0/">
	<!ENTITY ns_ai "http://ns.adobe.com/AdobeIllustrator/10.0/">
	<!ENTITY ns_graphs "http://ns.adobe.com/Graphs/1.0/">
	<!ENTITY ns_vars "http://ns.adobe.com/Variables/1.0/">
	<!ENTITY ns_imrep "http://ns.adobe.com/ImageReplacement/1.0/">
	<!ENTITY ns_sfw "http://ns.adobe.com/SaveForWeb/1.0/">
	<!ENTITY ns_custom "http://ns.adobe.com/GenericCustomNamespace/1.0/">
	<!ENTITY ns_adobe_xpath "http://ns.adobe.com/XPath/1.0/">
]>
<svg version="1.1" id="Layer_1" xmlns:x="&ns_extend;" xmlns:i="&ns_ai;" xmlns:graph="&ns_graphs;"
	 xmlns="http://www.w3.org/2000/svg" xmlns:xlink="http://www.w3.org/1999/xlink" x="0px" y="0px" width="598px" height="256px"
	 viewBox="0 0 598 256" enable-background="new 0 0 598 256" xml:space="preserve">
<metadata>
	<sfw  xmlns="&ns_sfw;">
		<slices></slices>
		<sliceSourceBounds  bottomLeftOrigin="true" height="228.5" width="481.3" x="0" y="9.7"></sliceSourceBounds>
	</sfw>
</metadata>
<title>Artboard 1</title>
<g id="ABCDEFGHIJKLMNOPQRST">
	<g>
		<path fill="#27282C" d="M7.2,133.1h3.4l7.2,16.9H14l-1.5-3.8H5.3L3.8,150H0L7.2,133.1z M11.1,143l-2.2-5.4L6.6,143H11.1z"/>
		<path fill="#27282C" d="M21.6,133.2h7.8c1.6-0.1,3.2,0.4,4.4,1.5c0.8,0.7,1.2,1.8,1.2,2.9v0.1c0,1.5-0.8,3-2.2,3.6
			c1.9,0.7,3.1,1.9,3.1,4.1l0,0c0,3.1-2.5,4.6-6.3,4.6h-8L21.6,133.2z M31.3,138.2c0-1.1-0.9-1.7-2.4-1.7h-3.6v3.5h3.4
			C30.2,140,31.3,139.5,31.3,138.2L31.3,138.2z M29.5,143.1h-4.3v3.7h4.4c1.6,0,2.6-0.6,2.6-1.8v-0.1
			C32.2,143.8,31.4,143.1,29.5,143.1L29.5,143.1z"/>
		<path fill="#27282C" d="M39.4,141.6L39.4,141.6c-0.1-4.8,3.7-8.7,8.4-8.7c0.1,0,0.2,0,0.4,0c2.5-0.1,4.9,0.8,6.6,2.6l-2.3,2.7
			c-1.1-1.2-2.7-1.9-4.3-1.9c-2.8,0.1-4.9,2.4-4.9,5.1c0,0,0,0.1,0,0.1l0,0c-0.2,2.8,2,5.1,4.7,5.3c0.1,0,0.1,0,0.2,0
			c1.7,0,3.3-0.7,4.4-2l2.3,2.4c-1.7,2-4.3,3.1-6.9,3c-4.7,0.1-8.5-3.7-8.6-8.4C39.4,141.8,39.4,141.7,39.4,141.6z"/>
		<path fill="#27282C" d="M59,133.2h6.6c5.3,0,8.9,3.6,8.9,8.4l0,0c0,4.7-3.7,8.4-8.9,8.4H59V133.2z M62.7,136.5v10.1h2.9
			c2.6,0.2,4.9-1.9,5.1-4.5c0-0.2,0-0.3,0-0.5v-0.1c0.1-2.7-1.9-4.9-4.6-5.1c-0.2,0-0.3,0-0.5,0L62.7,136.5z"/>
		<path fill="#27282C" d="M79,133.2h12.7v3.3h-9v3.4h7.9v3.3h-7.9v3.5h9.1v3.3H79V133.2z"/>
		<path fill="#27282C" d="M96.3,133.2h12.8v3.4H100v3.6h8v3.4h-8v6.5h-3.7V133.2z"/>
		<path fill="#27282C" d="M112.5,141.6L112.5,141.6c0-4.8,3.8-8.7,8.5-8.7c0.1,0,0.2,0,0.3,0c2.4-0.1,4.8,0.7,6.6,2.3l-2.3,2.8
			c-1.2-1.1-2.8-1.7-4.4-1.7c-2.8,0.1-4.9,2.5-4.8,5.2l0,0c-0.2,2.8,1.9,5.1,4.7,5.3c0.1,0,0.3,0,0.4,0c1.2,0,2.5-0.3,3.5-1v-2.4
			h-3.7v-3.2h7.3v7.3c-2,1.7-4.5,2.7-7.2,2.7c-4.6,0.2-8.6-3.3-8.8-8C112.5,142.1,112.5,141.9,112.5,141.6z"/>
		<path fill="#27282C" d="M133.2,133.2h3.7v6.6h6.8v-6.6h3.7V150h-3.7v-6.7h-6.8v6.7h-3.7V133.2z"/>
		<path fill="#27282C" d="M152.9,133.2h3.7V150h-3.7V133.2z"/>
		<path fill="#27282C" d="M160.3,147.7l2.3-2.6c0.7,1,1.8,1.6,3.1,1.7c1.4,0,2.3-0.8,2.3-2.8v-10.8h3.8v11c0.1,1.6-0.5,3.3-1.6,4.5
			c-1.2,1.1-2.8,1.6-4.4,1.6C163.6,150.3,161.6,149.4,160.3,147.7z"/>
		<path fill="#27282C" d="M176.7,133.2h3.7v7.3l6.8-7.3h4.5l-6.9,7.1l7.2,9.7h-4.4l-5.2-7.1l-2,2v5.1h-3.7L176.7,133.2z"/>
		<path fill="#27282C" d="M195.4,133.2h3.7v13.4h8.4v3.4h-12.1V133.2z"/>
		<path fill="#27282C" d="M211.5,133.2h4l4.4,7.1l4.4-7.1h4V150h-3.7v-11l-4.7,7.2h-0.1l-4.7-7.1V150h-3.6L211.5,133.2z"/>
		<path fill="#27282C" d="M233.5,133.2h3.4l7.9,10.3v-10.3h3.6V150h-3.1l-8.1-10.7V150h-3.6L233.5,133.2z"/>
		<path fill="#27282C" d="M252.9,141.6L252.9,141.6c0-5,4-9,8.9-9c4.9,0,8.9,4,8.9,8.9l0,0c0,4.9-4,8.9-8.9,9
			S252.9,146.6,252.9,141.6L252.9,141.6z M266.9,141.6L266.9,141.6c0.1-2.9-2.1-5.2-4.9-5.3c-0.1,0-0.1,0-0.2,0c-2.8,0-5,2.2-5,5
			c0,0.1,0,0.2,0,0.2l0,0c-0.1,2.8,2.1,5.2,4.9,5.3c0.1,0,0.1,0,0.2,0c2.8,0,5-2.2,5-5C266.9,141.8,266.9,141.7,266.9,141.6
			L266.9,141.6z"/>
		<path fill="#27282C" d="M275.2,133.2h6.9c4,0,6.4,2.4,6.4,5.8v0.1c0,3.9-3,5.9-6.8,5.9H279v5h-3.7L275.2,133.2z M281.9,141.7
			c1.9,0,2.9-1.1,2.9-2.5l0,0c0-1.7-1.2-2.5-3-2.5H279v5.1L281.9,141.7z"/>
		<path fill="#27282C" d="M307.5,150.5l-1.9-1.6c-1.5,1-3.2,1.5-5,1.4c-4.8,0.2-8.7-3.6-8.9-8.3c0-0.1,0-0.2,0-0.3v-0.1
			c0-4.9,4-8.9,8.9-8.9c4.9,0,8.9,4,8.9,8.9l0,0c0,1.7-0.5,3.4-1.5,4.8l1.7,1.5L307.5,150.5z M302.9,146.4l-2.7-2.3l2.4-2.6l2.8,2.5
			c0.3-0.7,0.5-1.5,0.5-2.3v-0.1c0.1-2.8-2.1-5.2-4.9-5.3c-0.1,0-0.1,0-0.2,0c-2.8,0-5,2.2-5,5c0,0.1,0,0.2,0,0.2l0,0
			c-0.1,2.8,2.1,5.2,4.9,5.3c0.1,0,0.1,0,0.2,0C301.5,146.9,302.2,146.7,302.9,146.4z"/>
		<path fill="#27282C" d="M314.1,133.2h7.7c1.8-0.1,3.6,0.5,4.9,1.7c1,1,1.5,2.4,1.4,3.8l0,0c0.1,2.3-1.4,4.5-3.6,5.2l4.1,6h-4.3
			l-3.6-5.4h-2.9v5.4h-3.7L314.1,133.2z M321.5,141.4c1.8,0,2.8-1,2.8-2.4l0,0c0-1.6-1.1-2.4-2.9-2.4h-3.7v4.8L321.5,141.4z"/>
		<path fill="#27282C" d="M331.5,147.5l2.2-2.6c1.4,1.2,3.1,2,5,2c1.5,0,2.4-0.6,2.4-1.6l0,0c0-0.9-0.6-1.4-3.4-2.1
			c-3.4-0.9-5.6-1.8-5.6-5.1l0,0c0-3.1,2.5-5.1,5.9-5.1c2.3,0,4.5,0.7,6.2,2.1l-1.9,2.8c-1.3-1-2.8-1.6-4.4-1.7
			c-1.4,0-2.2,0.6-2.2,1.5v0.1c0,1.1,0.7,1.5,3.6,2.2c3.4,0.9,5.3,2.1,5.3,5l0,0c0,3.3-2.5,5.2-6.2,5.2
			C336,150.2,333.5,149.3,331.5,147.5z"/>
		<path fill="#27282C" d="M352.8,136.6h-5.1v-3.4h13.9v3.4h-5.1V150h-3.7L352.8,136.6z"/>
		<path fill="#27282C" d="M365.3,142.8v-9.6h3.7v9.5c0,2.7,1.4,4.2,3.6,4.2s3.6-1.4,3.6-4v-9.7h3.8v9.5c0,5.1-2.9,7.6-7.4,7.6
			S365.3,147.7,365.3,142.8z"/>
		<path fill="#27282C" d="M383.5,133.2h4.1L392,145l4.4-11.8h4l-6.8,16.9h-3.3L383.5,133.2z"/>
		<path fill="#27282C" d="M402.6,133.2h4l3.4,11.4l3.8-11.4h3.2l3.8,11.4l3.5-11.4h3.9l-5.7,16.9h-3.2l-3.8-11l-3.8,11h-3.2
			L402.6,133.2z"/>
		<path fill="#27282C" d="M446.2,133.2l-5.6,8.2l5.9,8.6h-4.3l-3.8-5.8l-3.8,5.8h-4.2l5.9-8.5l-5.6-8.3h4.4l3.5,5.4l3.5-5.5H446.2z"
			/>
		<path fill="#27282C" d="M454.4,143.4l-6.4-10.2h4.3l4,6.7l4.1-6.7h4.2l-6.5,10.1v6.7h-3.7L454.4,143.4z"/>
		<path fill="#27282C" d="M467.4,147.2l9.2-10.8h-9v-3.2h13.7v2.8l-9.2,10.8h9.2v3.2h-14L467.4,147.2z"/>
	</g>
	<g>
		<path fill="#27282C" d="M0.3,178.3L0.3,178.3c0-2.8,2.1-4.1,5.2-4.1c1.1,0,2.1,0.2,3.2,0.5v-0.2c0-1.5-0.9-2.4-2.8-2.4
			c-1.2,0-2.4,0.2-3.6,0.7L1.4,170c1.6-0.7,3.3-1,5-1c1.6-0.1,3.1,0.4,4.3,1.4c1,1.1,1.5,2.6,1.4,4.1v7.4H8.6v-1.4
			c-1,1.1-2.4,1.7-3.9,1.6C2.3,182.2,0.3,180.8,0.3,178.3z M8.7,177.5v-0.6c-0.7-0.3-1.5-0.5-2.3-0.5c-1.6,0-2.5,0.6-2.5,1.8l0,0
			c0,1,0.8,1.6,2,1.6C7.5,179.7,8.7,178.8,8.7,177.5z"/>
		<path fill="#27282C" d="M20.1,180.3v1.7h-3.7v-17.5h3.6v6.5c0.9-1.3,2.4-2.1,4-2.1c3,0,5.9,2.4,5.9,6.6v0.1c0,4.3-2.8,6.6-5.9,6.6
			C22.5,182.3,21.1,181.6,20.1,180.3z M26.3,175.6L26.3,175.6c0.1-1.9-1.2-3.4-3-3.6c0,0-0.1,0-0.1,0c-1.8,0.1-3.2,1.6-3.1,3.4
			c0,0,0,0.1,0,0.1v0.1c-0.2,1.7,1,3.3,2.7,3.5c1.7,0.2,3.3-1,3.5-2.7C26.4,176.1,26.4,175.9,26.3,175.6L26.3,175.6z"/>
		<path fill="#27282C" d="M33.2,175.6L33.2,175.6c-0.1-3.7,2.9-6.7,6.5-6.7c0.1,0,0.1,0,0.2,0c2-0.1,3.9,0.7,5.1,2.2l-2.2,2.4
			c-0.7-0.9-1.7-1.5-2.9-1.5c-1.8,0.1-3.2,1.6-3.1,3.4c0,0,0,0,0,0.1v0.1c-0.1,1.8,1.2,3.4,3,3.5c0.1,0,0.2,0,0.2,0
			c1.1,0,2.2-0.5,3-1.4l2.1,2.2c-1.3,1.6-3.2,2.4-5.2,2.4c-3.6,0.1-6.7-2.7-6.8-6.4C33.2,175.8,33.2,175.7,33.2,175.6z"/>
		<path fill="#27282C" d="M48,175.6L48,175.6c0-4.3,2.8-6.7,5.9-6.7c1.6,0,3,0.7,4,1.9v-6.3h3.6V182h-3.7v-1.9
			c-0.9,1.3-2.4,2.1-4,2.1C50.8,182.2,48,179.9,48,175.6z M57.9,175.6L57.9,175.6c0.2-1.8-1-3.3-2.8-3.5c-1.7-0.2-3.3,1-3.5,2.8
			c0,0.2,0,0.5,0,0.7v0.1c-0.2,1.7,1,3.3,2.8,3.5s3.3-1,3.5-2.8C57.9,176.1,57.9,175.8,57.9,175.6z"/>
		<path fill="#27282C" d="M65.3,175.6L65.3,175.6c-0.2-3.5,2.6-6.5,6.1-6.7c0.1,0,0.2,0,0.2,0c4.3,0,6.3,3.3,6.3,7
			c0,0.3,0,0.6-0.1,1h-8.9c0.2,1.5,1.6,2.6,3.1,2.5c1.2,0,2.3-0.5,3.1-1.5l2.1,1.9c-2.4,2.9-6.7,3.2-9.6,0.8
			C66.2,179.4,65.3,177.6,65.3,175.6L65.3,175.6z M74.4,174.6c-0.2-1.6-1.2-2.7-2.7-2.7s-2.5,1.1-2.8,2.7H74.4z"/>
		<path fill="#27282C" d="M82.5,172.3H81v-3h1.5v-0.8c-0.1-1.1,0.3-2.3,1-3.1c0.8-0.7,1.9-1.1,3-1c0.9,0,1.8,0.1,2.6,0.4v3
			c-0.5-0.2-1.1-0.3-1.7-0.3c-0.8,0-1.3,0.4-1.3,1.4v0.5h3v3h-3v9.7h-3.7V172.3z"/>
		<path fill="#27282C" d="M92,184.5l1.2-2.7c1.3,0.8,2.8,1.2,4.4,1.2c2.5,0,3.7-1.2,3.7-3.5v-0.6c-1,1.3-2.5,2.1-4.2,2.1
			c-3.1,0-5.7-2.5-5.7-5.6c0-0.1,0-0.3,0-0.4l0,0c-0.2-3.1,2.2-5.8,5.3-6c0.1,0,0.3,0,0.4,0c1.6,0,3.1,0.7,4.2,1.9v-1.7h3.6v10
			c0,2.3-0.6,4-1.6,5.1s-3,1.7-5.5,1.7C95.7,186,93.8,185.5,92,184.5z M101.3,174.9L101.3,174.9c0-1.7-1.4-3.1-3.1-3.1
			c-1.7,0-3.1,1.4-3.1,3.1l0,0c0,1.7,1.4,3.1,3.1,3.1C99.9,178.1,101.3,176.7,101.3,174.9z"/>
		<path fill="#27282C" d="M109.4,164.5h3.6v6.5c0.8-1.3,2.2-2.1,3.8-2.1c2.8,0,4.4,1.8,4.4,4.8v8.3h-3.6v-7.2c0-1.7-0.8-2.6-2.2-2.6
			s-2.3,0.9-2.3,2.6v7.2h-3.6V164.5z"/>
		<path fill="#27282C" d="M125.6,164.5h3.8v3.2h-3.8V164.5z M125.7,169.1h3.6V182h-3.6L125.7,169.1z"/>
		<path fill="#27282C" d="M132.1,185.8v-2.9c0.3,0,0.5,0.1,0.8,0.1c0.8,0,1.3-0.4,1.3-1.5v-12.4h3.6v12.6c0,2.8-1.4,4.1-4.1,4.1
			C133.1,185.9,132.6,185.9,132.1,185.8z M134.1,164.5h3.8v3.2H134L134.1,164.5z"/>
		<path fill="#27282C" d="M142.4,164.5h3.6v9.3l4.3-4.7h4.4l-4.9,5.1l5.1,7.8h-4.2l-3.3-5.3l-1.3,1.4v3.9h-3.6V164.5z"/>
		<path fill="#27282C" d="M158,164.5h3.6V182H158V164.5z"/>
		<path fill="#27282C" d="M166.3,169.1h3.6v1.9c0.8-1.3,2.3-2.1,3.8-2.1c1.5-0.1,2.9,0.7,3.6,2c1-1.3,2.6-2,4.2-2
			c2.7,0,4.3,1.6,4.3,4.7v8.3h-3.6v-7.2c0-1.7-0.8-2.6-2.1-2.6s-2.2,0.9-2.2,2.6v7.2h-3.6v-7.2c0-1.7-0.8-2.6-2.1-2.6
			s-2.2,0.9-2.2,2.6v7.2h-3.6L166.3,169.1z"/>
		<path fill="#27282C" d="M190.3,169.1h3.6v1.9c0.8-1.3,2.2-2.1,3.8-2.1c2.8,0,4.4,1.8,4.4,4.8v8.3h-3.6v-7.2c0-1.7-0.8-2.6-2.2-2.6
			s-2.3,0.9-2.3,2.6v7.2h-3.6V169.1z"/>
		<path fill="#27282C" d="M205.8,175.6L205.8,175.6c0.4-3.8,3.8-6.6,7.7-6.2c3.3,0.3,5.9,2.9,6.2,6.2v0.1c0,3.7-3.1,6.7-6.8,6.7
			c-0.1,0-0.1,0-0.2,0c-3.7,0.1-6.8-2.7-6.9-6.4C205.8,175.8,205.8,175.7,205.8,175.6z M216.1,175.6L216.1,175.6
			c0.1-1.9-1.4-3.5-3.3-3.5c0,0-0.1,0-0.1,0c-1.8,0-3.3,1.4-3.3,3.3c0,0.1,0,0.2,0,0.2v0.1c-0.1,1.9,1.4,3.5,3.3,3.5
			c0,0,0.1,0,0.1,0c1.8,0,3.3-1.4,3.3-3.2C216.1,175.9,216.1,175.7,216.1,175.6z"/>
		<path fill="#27282C" d="M223.6,169.1h3.6v1.9c0.9-1.3,2.4-2.1,4-2.1c3,0,5.9,2.4,5.9,6.6v0.1c0,4.3-2.8,6.6-5.9,6.6
			c-1.6,0-3-0.7-4-1.9v5.5h-3.6V169.1z M233.4,175.6L233.4,175.6c0.2-1.8-1-3.3-2.8-3.5s-3.3,1-3.5,2.8c0,0.2,0,0.5,0,0.7v0.1
			c-0.2,1.7,1,3.3,2.8,3.5s3.3-1,3.5-2.8C233.4,176.1,233.4,175.8,233.4,175.6z"/>
		<path fill="#27282C" d="M250.2,180.1c-0.9,1.3-2.4,2.1-4,2.1c-3,0-5.9-2.4-5.9-6.6v-0.1c0-4.3,2.8-6.6,5.9-6.6c1.6,0,3,0.7,4,1.9
			v-1.7h3.6v16.7h-3.6V180.1z M250.2,175.6L250.2,175.6c0.2-1.8-1-3.3-2.8-3.5s-3.3,1-3.5,2.8c0,0.2,0,0.5,0,0.7v0.1
			c-0.2,1.7,1,3.3,2.8,3.5s3.3-1,3.5-2.8C250.3,176.1,250.3,175.8,250.2,175.6z"/>
		<path fill="#27282C" d="M258.4,169.1h3.6v2.6c0.5-1.8,2.2-3,4.1-2.8v3.8h-0.2c-2.4,0-3.9,1.5-3.9,4.5v4.8h-3.6L258.4,169.1z"/>
		<path fill="#27282C" d="M268.6,180.3l1.6-2.4c1.2,0.9,2.6,1.4,4.1,1.5c1,0,1.5-0.4,1.5-1v-0.1c0-0.8-1.2-1-2.7-1.5
			c-1.8-0.5-3.8-1.4-3.8-3.9l0,0c0-2.6,2.1-4.1,4.7-4.1c1.7,0,3.4,0.5,4.8,1.5l-1.4,2.6c-1-0.7-2.2-1.1-3.5-1.2
			c-0.9,0-1.3,0.4-1.3,0.9v0.1c0,0.7,1.2,1.1,2.6,1.5c1.8,0.6,3.9,1.5,3.9,3.8v0.1c0,2.9-2.1,4.1-4.9,4.1
			C272.1,182.3,270.1,181.6,268.6,180.3z"/>
		<path fill="#27282C" d="M283.2,178.3v-6.1h-1.5v-3.1h1.5v-3.3h3.6v3.3h3v3.1h-3v5.5c0,0.8,0.4,1.2,1.2,1.2c0.6,0,1.2-0.2,1.8-0.5
			v2.9c-0.9,0.5-1.9,0.8-2.9,0.8C284.7,182.2,283.2,181.3,283.2,178.3z"/>
		<path fill="#27282C" d="M293.7,177.5v-8.3h3.6v7.2c0,1.7,0.8,2.6,2.2,2.6s2.3-0.9,2.3-2.6v-7.2h3.6V182h-3.6v-1.8
			c-0.8,1.3-2.2,2-3.8,2.1C295.3,182.2,293.7,180.4,293.7,177.5z"/>
		<path fill="#27282C" d="M308.8,169.1h3.9l2.9,8.6l2.9-8.6h3.8l-5.1,13h-3.3L308.8,169.1z"/>
		<path fill="#27282C" d="M324.1,169.1h3.7l2.1,7.8l2.4-7.9h3.1l2.5,7.9l2.1-7.8h3.6l-4,13h-3.3l-2.5-7.9l-2.5,7.9h-3.3L324.1,169.1
			z"/>
		<path fill="#27282C" d="M352.2,172.9l2.4-3.8h3.8l-4.3,6.3l4.5,6.6h-3.9l-2.6-4l-2.6,4h-3.8l4.5-6.5l-4.3-6.3h3.9L352.2,172.9z"/>
		<path fill="#27282C" d="M370.2,169.1h3.8l-5,13.2c-1,2.6-2,3.6-4.2,3.6c-1.1,0-2.3-0.3-3.2-0.9l1.2-2.6c0.5,0.3,1,0.5,1.6,0.5
			c0.6,0.1,1.1-0.3,1.3-0.8l-5-12.9h3.9l2.9,8.8L370.2,169.1z"/>
		<path fill="#27282C" d="M376.8,179.4l6.6-7.3H377v-3h11v2.6l-6.7,7.4h6.7v3h-11.2V179.4z"/>
	</g>
	<g>
		<path fill="#27282C" d="M1.2,197.7v-0.5h4.3v0.5l-1.1,10.6h-2L1.2,197.7z M1.4,210.2h3.9v3.8H1.4L1.4,210.2z"/>
		<path fill="#27282C" d="M9.7,207.4c0-5.8,4.7-10.5,10.5-10.5c5.9,0,10.5,4.6,10.5,9.5c0,4-2.1,6-4.8,6c-1.4,0.1-2.7-0.4-3.7-1.4
			c-1,0.9-2.2,1.4-3.5,1.4c-2.4,0-4.4-1.9-4.4-4.3c0-0.1,0-0.2,0-0.4c0-3.4,2.6-6,5.4-6c1.3-0.1,2.6,0.6,3.3,1.6l0.3-1.3l2.8,0.5
			l-1.1,6.5c0,0.2-0.1,0.5-0.1,0.7c0,0.9,0.7,1.5,1.6,1.5c0.1,0,0.1,0,0.2,0c1.7,0,3-1.7,3-4.9c0-4.4-4.1-8.6-9.5-8.6
			c-5.3,0.1-9.5,4.4-9.4,9.6c0.1,5.3,4.4,9.5,9.6,9.4c2.1,0,4.1-0.5,5.9-1.6l0.5,0.8c-1.9,1.2-4.1,1.8-6.4,1.8
			c-5.8,0.1-10.6-4.4-10.7-10.2C9.7,207.6,9.7,207.5,9.7,207.4z M21.3,209.2c0.7-0.7,1-1.7,1-2.7c0.1-1.2-0.8-2.2-2-2.2
			c-0.1,0-0.2,0-0.2,0c-0.7,0-1.4,0.3-1.9,0.8c-0.7,0.7-1,1.6-1,2.6c-0.1,1.2,0.7,2.2,1.9,2.4c0.1,0,0.3,0,0.4,0
			C20.2,210,20.8,209.7,21.3,209.2z"/>
		<path fill="#27282C" d="M48.2,210.4h-2.7L45,214h-3.2l0.6-3.6H39l-0.6,3.6h-3.2l0.6-3.6H34v-3.1h2.3l0.6-3.6h-2.2v-3.1h2.6
			l0.6-3.5h3.2l-0.6,3.5h3.5l0.6-3.5h3.2l-0.6,3.5h1.8v3.1h-2.4l-0.6,3.6h2.1L48.2,210.4z M39.4,207.4H43l0.6-3.7H40L39.4,207.4z"/>
		<path fill="#27282C" d="M63.2,201.8c-0.9-0.6-1.9-1.1-3-1.4v3.6c3.6,1,5.2,2.4,5.2,5.1v0.1c0,2.7-2.1,4.4-5.1,4.7v2.4h-2.5v-2.4
			c-2.1-0.3-4-1-5.7-2.3l1.9-2.7c1.1,1,2.5,1.7,3.9,2V207c-3.5-0.9-5.2-2.2-5.2-5.1l0,0c0-2.6,2-4.4,5-4.7v-1.4h2.5v1.5
			c1.6,0.2,3.2,0.8,4.5,1.7L63.2,201.8z M58,203.5v-3.3c-1.2,0.1-1.7,0.7-1.7,1.5v0.1C56.3,202.5,56.6,203,58,203.5z M60.3,207.6
			v3.4c1.1-0.2,1.7-0.7,1.7-1.5v-0.1C61.9,208.6,61.5,208.1,60.3,207.6L60.3,207.6z"/>
		<path fill="#27282C" d="M68.9,201.3L68.9,201.3c-0.1-2.3,1.6-4.2,3.8-4.3c0.1,0,0.2,0,0.3,0c2.2,0,4,1.8,4,4c0,0.1,0,0.2,0,0.3
			l0,0c0.1,2.3-1.6,4.2-3.9,4.3c-0.1,0-0.1,0-0.2,0c-2.2,0-4-1.8-4-4C68.9,201.5,68.9,201.4,68.9,201.3z M82.8,197.2h2.8l-6.7,9
			l-5.6,7.8h-2.9l6.7-9L82.8,197.2z M71.4,201.3L71.4,201.3c0,1.1,0.6,2.1,1.6,2.1s1.5-1,1.5-2.1l0,0c0-1.1-0.6-2.1-1.6-2.1
			S71.4,200.1,71.4,201.3L71.4,201.3z M79.2,209.9L79.2,209.9c-0.1-2.3,1.6-4.2,3.9-4.3c0.1,0,0.2,0,0.2,0c2.2,0,4,1.8,4,4
			c0,0.1,0,0.2,0,0.3v0.1c0.1,2.3-1.6,4.2-3.9,4.3c-0.1,0-0.1,0-0.2,0c-2.2,0-4-1.8-4-4C79.2,210.1,79.2,210,79.2,209.9z
			 M84.9,209.9L84.9,209.9c0-1.1-0.6-2.1-1.6-2.1s-1.5,1-1.5,2.1v0.1c0,1.1,0.6,2.1,1.6,2.1S84.9,211,84.9,209.9z"/>
		<path fill="#27282C" d="M101,212.4c-1.4,1.2-3.1,1.9-4.9,1.9c-3.2,0-5.6-1.9-5.6-4.9l0,0c0-2.1,1.3-3.9,3.3-4.6
			c-0.7-1-1.2-2.1-1.2-3.4l0,0c0-2.3,1.8-4.4,5.1-4.4c2.8,0,4.7,1.9,4.7,4.2l0,0c0,2.3-1.4,3.6-3.5,4.4l2.2,2.2
			c0.6-0.9,1.1-1.9,1.6-2.9l2.7,1.5c-0.7,1.2-1.4,2.4-2.2,3.6l2.5,2.5l-2.7,1.9L101,212.4z M99,210.3l-3.2-3.3
			c-0.9,0.4-1.5,1.2-1.6,2.2v0.1c0,1.2,1,2.1,2.2,2c0.1,0,0.1,0,0.2,0C97.5,211.2,98.3,210.9,99,210.3z M99.2,201.4L99.2,201.4
			c0-0.9-0.6-1.6-1.4-1.6c-0.1,0-0.1,0-0.2,0c-0.9,0-1.6,0.7-1.6,1.6c0,0,0,0.1,0,0.1l0,0c0,0.8,0.4,1.6,1,2.1
			C98.4,203.1,99.2,202.5,99.2,201.4L99.2,201.4z"/>
		<path fill="#27282C" d="M109,207.1c0-4.6,2.2-7.9,6.7-10.3l1.6,2.4c-3.2,2.3-4.6,4.5-4.6,7.9s1.4,5.6,4.6,7.9l-1.6,2.4
			C111.2,215,109,211.7,109,207.1z"/>
		<path fill="#27282C" d="M120.5,215c3.2-2.3,4.6-4.5,4.6-7.9s-1.4-5.6-4.6-7.9l1.6-2.4c4.4,2.4,6.6,5.7,6.6,10.3s-2.2,7.9-6.7,10.3
			L120.5,215z"/>
		<path fill="#27282C" d="M137.3,207.2H133v-3.3h4.3v-4.3h3.4v4.3h4.4v3.3h-4.4v4.3h-3.4V207.2z"/>
		<path fill="#27282C" d="M149.1,204.8h7.4v3.5h-7.4V204.8z"/>
		<path fill="#27282C" d="M160.6,200.8h11.9v3.3h-11.9V200.8z M160.6,207h11.9v3.3h-11.9V207z"/>
		<path fill="#27282C" d="M179.8,212.6c0-0.4,0.1-1.2,0.1-1.6c0-1.9-0.8-2.5-2.6-2.5h-0.6v-2.8h0.6c1.9,0,2.6-0.6,2.6-2.5
			c0-0.4-0.1-1.3-0.1-1.7c0-2.4,1.2-4,5.6-4.8l0.6,2.4c-2.5,0.7-2.9,1.4-2.9,2.9c0,0.5,0.1,1.3,0.1,1.8c0.1,1.5-1,2.9-2.5,3.2
			c1.5,0.3,2.6,1.7,2.5,3.2c0,0.5-0.1,1.3-0.1,1.8c0,1.5,0.4,2.1,2.9,2.9l-0.6,2.4C181,216.6,179.8,215.1,179.8,212.6z"/>
		<path fill="#27282C" d="M189.5,215c2.5-0.7,2.9-1.4,2.9-2.9c0-0.5-0.1-1.3-0.1-1.8c-0.1-1.5,1-2.9,2.5-3.2
			c-1.5-0.3-2.6-1.7-2.5-3.2c0-0.5,0.1-1.3,0.1-1.8c0-1.5-0.4-2.1-2.9-2.9l0.6-2.4c4.4,0.8,5.6,2.3,5.6,4.8c0,0.4-0.1,1.2-0.1,1.7
			c0,1.9,0.8,2.5,2.6,2.5h0.6v2.8h-0.6c-1.9,0-2.6,0.6-2.6,2.5c0,0.4,0.1,1.3,0.1,1.6c0,2.4-1.2,4-5.6,4.8L189.5,215z"/>
		<path fill="#27282C" d="M202.1,203.4c1.7-0.2,2.5-1,2.4-2.4H203v-3.8h3.9v3.2c0,3.2-1.6,4.4-4.4,4.5L202.1,203.4z M208.2,203.4
			c1.6-0.2,2.5-1,2.4-2.4h-1.5v-3.8h3.9v3.2c0,3.2-1.6,4.4-4.4,4.5L208.2,203.4z"/>
		<path fill="#27282C" d="M216.3,203.4c1.7-0.2,2.5-1,2.4-2.4h-1.5v-3.8h3.9v3.2c0,3.2-1.6,4.4-4.4,4.5L216.3,203.4z M222.4,203.4
			c1.6-0.2,2.5-1,2.4-2.4h-1.5v-3.8h3.9v3.2c0,3.2-1.6,4.4-4.4,4.5L222.4,203.4z"/>
		<path fill="#27282C" d="M233.9,204.4l0.1-0.1c3-0.1,4.2-0.9,4.2-2.2l0,0c0-1.1-0.8-1.7-2.2-1.7c-1.4,0-2.7,0.6-3.6,1.7l-2.2-2.4
			c1.5-1.7,3.6-2.7,5.8-2.6c3.4,0,5.8,1.8,5.8,5l0,0c0,3.1-2.1,4.3-4.7,4.8l-0.3,1.5h-2.4L233.9,204.4z M233.6,210.2h3.9v3.8h-3.9
			V210.2z"/>
	</g>
	<g>
		<path fill="#27282C" d="M3.7,232.8l-2.9,0.7l-0.8-3l4.8-1.4h2.5V246H3.7V232.8z"/>
		<path fill="#27282C" d="M11.9,243.1l5.6-4.6c2.1-1.7,2.9-2.6,2.9-4c0.1-1.1-0.8-2.1-1.9-2.2c-0.1,0-0.2,0-0.3,0
			c-1.3,0-2.2,0.7-3.4,2.3l-2.6-2.1c1.7-2.3,3.3-3.5,6.3-3.5c3.5,0,5.8,2,5.8,5.2v0.1c0,2.8-1.4,4.2-4.4,6.5l-2.8,2.1h7.3v3.2H11.9
			V243.1z"/>
		<path fill="#27282C" d="M27.8,243.4l2.5-2.4c1,1.3,2.5,2,4.1,2c1.2,0.1,2.2-0.7,2.4-1.8c0-0.1,0-0.1,0-0.2v-0.1
			c0-1.4-1.2-2.1-3.3-2.1H32l-0.6-2.4l4-4h-6.6v-3.3h11.4v2.8l-4.2,4c2.3,0.4,4.5,1.6,4.5,4.7l0,0c0,3.2-2.3,5.5-6,5.5
			C31.9,246.3,29.5,245.3,27.8,243.4z"/>
		<path fill="#27282C" d="M52.6,242.4h-8.2l-0.6-2.6l9.2-10.7h3.1v10.3h2.2v3h-2.3v3.6h-3.5V242.4z M52.6,239.4v-5.2l-4.5,5.2H52.6z
			"/>
		<path fill="#27282C" d="M61.8,243.8l2.2-2.7c1,1.1,2.5,1.8,4,1.8c1.7,0,2.8-0.8,2.8-2.3l0,0c0-1.4-1.2-2.3-3-2.3
			c-1,0-1.9,0.2-2.8,0.6l-2.1-1.4l0.5-8.3h10.4v3.2h-7.1l-0.2,2.9c0.7-0.2,1.5-0.3,2.2-0.3c3.3,0,5.9,1.6,5.9,5.4l0,0
			c0,3.6-2.5,5.8-6.4,5.8C65.7,246.3,63.4,245.4,61.8,243.8z"/>
		<path fill="#27282C" d="M80.3,244.5c-1.2-1.2-2-3-2-6.4l0,0c0-5.2,2.3-9.2,7.4-9.2c1.9-0.1,3.8,0.6,5.3,1.8l-2,2.9
			c-0.9-0.9-2.2-1.3-3.4-1.4c-2.5,0-3.3,2.4-3.4,3.9c1-0.7,2.2-1.1,3.5-1.1c3.3,0,5.9,1.9,5.9,5.4l0,0c0,3.4-2.8,5.8-6.4,5.8
			C83.4,246.3,81.6,245.7,80.3,244.5z M87.9,240.6L87.9,240.6c0-1.5-1.1-2.5-2.9-2.5s-2.9,1-2.9,2.4l0,0c0,1.4,1.1,2.5,2.9,2.5
			S87.9,242.1,87.9,240.6L87.9,240.6z"/>
		<path fill="#27282C" d="M103.3,232.4h-7.9v-3.2h12.1v2.8l-7.5,14h-4.2L103.3,232.4z"/>
		<path fill="#27282C" d="M110.7,241.4L110.7,241.4c-0.1-1.8,1-3.5,2.7-4.1c-1.4-0.7-2.2-2.1-2.1-3.7v-0.1c0-2.6,2.3-4.6,5.9-4.6
			s5.9,2,5.9,4.6v0.1c0.1,1.5-0.8,3-2.1,3.7c1.7,0.9,2.7,2,2.7,4v0.1c0,3.1-2.8,4.9-6.5,4.9S110.7,244.3,110.7,241.4z M120.1,241.1
			L120.1,241.1c0-1.3-1.2-2.1-2.9-2.1s-2.9,0.8-2.9,2.1l0,0c0,1.2,1.1,2.1,2.9,2.1S120.1,242.3,120.1,241.1z M119.6,234L119.6,234
			c-0.1-1.2-1.1-2.1-2.2-2c-0.1,0-0.1,0-0.2,0c-1.5,0-2.4,0.9-2.4,1.9v0.1c0.2,1.3,1.5,2.2,2.8,2C118.6,235.9,119.4,235,119.6,234
			L119.6,234z"/>
		<path fill="#27282C" d="M136.6,239.1c-1,0.8-2.2,1.2-3.4,1.1c-3.6,0-6-2-6-5.4v-0.1c0-3.4,2.6-5.9,6.4-5.9
			c1.8-0.1,3.6,0.5,4.9,1.8c1.2,1.2,2,3,2,6.3v0.1c0,5.4-2.6,9.2-7.4,9.2c-2,0-4-0.7-5.5-2l2-2.8c1,0.9,2.3,1.4,3.7,1.4
			C135.7,242.9,136.4,240.5,136.6,239.1z M136.6,234.7L136.6,234.7c0-1.5-1.1-2.6-2.9-2.6s-2.9,1.1-2.9,2.5l0,0
			c0,1.5,1.1,2.5,2.9,2.5S136.6,236.1,136.6,234.7z"/>
		<path fill="#27282C" d="M144.2,237.6L144.2,237.6c0-4.9,3-8.7,7.5-8.7s7.4,3.8,7.4,8.6l0,0c0,4.9-3,8.7-7.5,8.7
			S144.2,242.5,144.2,237.6z M155.3,237.6L155.3,237.6c0-3.1-1.5-5.4-3.7-5.4s-3.6,2.2-3.6,5.3l0,0c0,3.1,1.5,5.4,3.7,5.4
			S155.3,240.7,155.3,237.6z"/>
	</g>
</g>
<g id="Gotham">
	<g>
		<path fill="#27282C" d="M0,53v-0.2c0-18.3,14.3-33.3,33.8-33.3c11.6,0,18.6,3.1,25.3,8.8l-8.9,10.8c-5-4.1-9.4-6.5-16.8-6.5
			c-10.3,0-18.5,9.1-18.5,20.1v0.2c0,11.8,8.1,20.4,19.5,20.4c4.7,0.1,9.4-1.2,13.3-3.9v-9.2H33.4V47.9h28v28
			C53.7,82.5,44,86.2,33.8,86.1C13.8,86.1,0,72,0,53z"/>
		<path fill="#27282C" d="M69.6,60.6v-0.2c0-14.2,11.4-25.7,26.8-25.7S123,46.1,123,60.2v0.2c0,14.2-11.4,25.7-26.8,25.7
			S69.6,74.8,69.6,60.6z M109.2,60.6v-0.2c0-7.3-5.2-13.6-13-13.6c-8,0-12.8,6.2-12.8,13.4v0.2c0,7.3,5.2,13.6,13,13.6
			C104.4,74,109.2,67.9,109.2,60.6z"/>
		<path fill="#27282C" d="M134,71V47.6h-5.9v-12h5.9V23.1h14v12.6h11.6v12h-11.7v21c0,3.2,1.4,4.8,4.5,4.8c2.4,0,4.8-0.6,6.9-1.8V83
			c-3.3,2-7.1,2.9-11,2.8C139.8,85.8,134,82.4,134,71z"/>
		<path fill="#27282C" d="M168.4,17.8h14v24.8c3.2-4.1,7.4-7.9,14.4-7.9c10.6,0,16.8,7,16.8,18.3V85h-14V57.5c0-6.6-3.1-10-8.5-10
			s-8.7,3.4-8.7,10V85h-14L168.4,17.8z"/>
		<path fill="#27282C" d="M221.3,70.8v-0.2c0-10.8,8.2-15.7,19.9-15.7c4.1,0,8.2,0.6,12.1,2v-0.8c0-5.8-3.6-9-10.6-9
			c-4.7,0-9.3,0.9-13.6,2.7l-3.5-10.7c6-2.8,12.5-4.1,19.1-4c7.6,0,13.2,2,16.7,5.5c3.7,3.7,5.3,9.1,5.3,15.7V85h-13.5v-5.3
			c-3.4,3.8-8.1,6.3-14.9,6.3C228.9,85.9,221.3,80.6,221.3,70.8z M253.4,67.6v-2.5c-2.8-1.2-5.9-1.9-8.9-1.8c-6,0-9.7,2.4-9.7,6.8
			v0.2c0,3.8,3.1,6,7.6,6C249,76.3,253.4,72.7,253.4,67.6L253.4,67.6z"/>
		<path fill="#27282C" d="M277.2,35.7h14v7c3.2-4.1,7.5-7.9,14.5-7.9c6.4,0,11.3,2.8,13.9,7.8c4.3-5.1,9.5-7.8,16.2-7.8
			c10.4,0,16.6,6.3,16.6,18.1V85h-14V57.5c0-6.6-2.9-10-8.2-10s-8.5,3.4-8.5,10V85h-14V57.5c0-6.6-3-10-8.2-10s-8.5,3.4-8.5,10V85
			h-14L277.2,35.7z"/>
	</g>
</g>
</svg>
