<?xml version="1.0" encoding="utf-8"?>
<!-- Generator: Adobe Illustrator 23.1.1, SVG Export Plug-In . SVG Version: 6.00 Build 0)  -->
<!DOCTYPE svg PUBLIC "-//W3C//DTD SVG 1.1//EN" "http://www.w3.org/Graphics/SVG/1.1/DTD/svg11.dtd" [
	<!ENTITY ns_extend "http://ns.adobe.com/Extensibility/1.0/">
	<!ENTITY ns_ai "http://ns.adobe.com/AdobeIllustrator/10.0/">
	<!ENTITY ns_graphs "http://ns.adobe.com/Graphs/1.0/">
	<!ENTITY ns_vars "http://ns.adobe.com/Variables/1.0/">
	<!ENTITY ns_imrep "http://ns.adobe.com/ImageReplacement/1.0/">
	<!ENTITY ns_sfw "http://ns.adobe.com/SaveForWeb/1.0/">
	<!ENTITY ns_custom "http://ns.adobe.com/GenericCustomNamespace/1.0/">
	<!ENTITY ns_adobe_xpath "http://ns.adobe.com/XPath/1.0/">
]>
<svg version="1.1" id="Layer_1" xmlns:x="&ns_extend;" xmlns:i="&ns_ai;" xmlns:graph="&ns_graphs;"
	 xmlns="http://www.w3.org/2000/svg" xmlns:xlink="http://www.w3.org/1999/xlink" x="0px" y="0px" width="316px" height="316px"
	 viewBox="0 0 316 316" enable-background="new 0 0 316 316" xml:space="preserve">
<metadata>
	<sfw  xmlns="&ns_sfw;">
		<slices></slices>
		<sliceSourceBounds  bottomLeftOrigin="true" height="316" width="317" x="-0.5" y="0"></sliceSourceBounds>
	</sfw>
</metadata>
<title>Group 12</title>
<desc>Created with Sketch.</desc>
<rect id="Rectangle-Copy-4" y="0" fill-rule="evenodd" clip-rule="evenodd" fill="#F4F4F4" width="316" height="316"/>
<g id="jetbrains-copy" transform="translate(66.000000, 60.000000)">
	
		<linearGradient id="XMLID_2_" gradientUnits="userSpaceOnUse" x1="-408.0009" y1="5.9442" x2="-407.1981" y2="5.613" gradientTransform="matrix(146.4726 0 0 99.8782 59810.9492 -430.2116)">
		<stop  offset="0" style="stop-color:#FCEE39"/>
		<stop  offset="1" style="stop-color:#F37B3D"/>
	</linearGradient>
	<path id="XMLID_3041_" fill="url(#XMLID_2_)" d="M179.4,108c1.4-1.2,2.1-2.9,2.2-4.8c0.2-3.9-2.7-7.1-6.6-7.4
		c-1.8-0.2-3.6,0.6-4.9,1.7l0,0l-125.7,69c-2.9,1.2-5.4,3.3-7.1,6.2c-4.3,7.2-1.9,16.5,5.4,20.9c5.1,3,11.2,2.7,16-0.3l0,0l0,0
		c0.3-0.3,0.8-0.5,1-0.8l117-82.4C177.4,109.6,179.1,108.4,179.4,108L179.4,108L179.4,108z"/>
	
		<linearGradient id="XMLID_3_" gradientUnits="userSpaceOnUse" x1="-407.5522" y1="4.935" x2="-406.6418" y2="5.6792" gradientTransform="matrix(117.9 0 0 109.7843 48124.9023 -526.0037)">
		<stop  offset="0" style="stop-color:#EF5A6B"/>
		<stop  offset="0.57" style="stop-color:#F26F4E"/>
		<stop  offset="1" style="stop-color:#F37B3D"/>
	</linearGradient>
	<path id="XMLID_3049_" fill="url(#XMLID_3_)" d="M179.7,97.9L179.7,97.9L84,3.8C81.9,1.5,78.9,0,75.4,0C69,0,63.9,5.3,63.9,11.6
		l0,0c0,3.2,1.2,5.9,3.2,8l0,0l0,0c0.6,0.6,1.2,1.1,1.8,1.5L170,107.9l0,0c1.2,1.1,2.7,1.8,4.5,2c3.9,0.2,7.1-2.7,7.4-6.6
		C181.8,101.2,181.1,99.3,179.7,97.9z"/>
	
		<linearGradient id="XMLID_4_" gradientUnits="userSpaceOnUse" x1="-405.9247" y1="9.2277" x2="-406.6465" y2="8.9131" gradientTransform="matrix(88.1311 0 0 61.3574 35857.25 -486.3326)">
		<stop  offset="0" style="stop-color:#7C59A4"/>
		<stop  offset="0.3852" style="stop-color:#AF4C92"/>
		<stop  offset="0.7654" style="stop-color:#DC4183"/>
		<stop  offset="0.957" style="stop-color:#ED3D7D"/>
	</linearGradient>
	<path id="XMLID_3042_" fill="url(#XMLID_4_)" d="M87.2,89.5C87,89.5,28,42.9,26.9,42.1l0,0l0,0c-0.9-0.5-1.8-0.9-2.7-1.4
		c-8.8-3.3-18.4,1.3-21.7,10c-2.8,7.7,0.3,16.1,6.9,20.2l0,0l0,0c1.1,0.6,1.9,1.1,3,1.4c0.6,0.3,68.1,28.3,68.1,28.3l0,0
		c2.7,1.2,5.8,0.5,7.6-1.8C90.4,95.8,90,91.7,87.2,89.5z"/>
	
		<linearGradient id="XMLID_5_" gradientUnits="userSpaceOnUse" x1="-405.8206" y1="7.3979" x2="-406.5454" y2="7.9113" gradientTransform="matrix(85.684 0 0 73.2785 34853.8984 -525.9866)">
		<stop  offset="0" style="stop-color:#EF5A6B"/>
		<stop  offset="0.364" style="stop-color:#EE4E72"/>
		<stop  offset="1" style="stop-color:#ED3D7D"/>
	</linearGradient>
	<path id="XMLID_3057_" fill="url(#XMLID_5_)" d="M75.4,0c-2.5,0-4.9,0.9-6.9,2.3L8.9,42.6c-0.2,0.2-0.3,0.2-0.3,0.3H8.4l0,0
		c-2.5,1.8-4.6,4.5-5.8,7.7c-3.3,8.7,1.2,18.5,9.9,21.7c5.4,2.1,11.3,1.1,15.6-2.1l0,0l0,0c1.1-0.8,2-1.5,2.7-2.4l51.9-46.9l0,0
		c2.7-2.1,4.5-5.4,4.5-9.2l0,0C87.2,5.3,81.9,0,75.4,0z"/>
	<g id="XMLID_3008_" transform="translate(52.500000, 55.641221)">
		<rect id="XMLID_3033_" x="0.9" y="0.6" width="76.5" height="76.7"/>
		<rect id="XMLID_3032_" x="7.5" y="62.9" fill="#FFFFFF" width="28.7" height="4.8"/>
		<g id="XMLID_3009_" transform="translate(6.000000, 9.022901)">
			<path id="XMLID_3030_" fill="#FFFFFF" d="M1.2,11.7l2.2-2.1c0.6,0.8,1.2,1.2,2,1.2c0.9,0,1.3-0.6,1.3-1.8V1h3.4v8
				c0,1.5-0.4,2.7-1.2,3.5S7,13.7,5.5,13.7C3.3,13.8,2.1,12.9,1.2,11.7z"/>
			<polygon id="XMLID_3028_" fill="#FFFFFF" points="10.9,1.2 21,1.2 21,4.1 14.4,4.1 14.4,6 20.4,6 20.4,8.7 14.4,8.7 14.4,10.7 
				21.1,10.7 21.1,13.7 11.1,13.7 			"/>
			<polygon id="XMLID_3026_" fill="#FFFFFF" points="25.5,4.2 21.8,4.2 21.8,1.2 32.7,1.2 32.7,4.2 29,4.2 29,13.7 25.5,13.7 			"/>
			<path id="XMLID_3022_" fill="#FFFFFF" d="M1.5,16.5h6.4c1.5,0,2.7,0.5,3.4,1.1c0.5,0.5,0.8,1.2,0.8,2.1l0,0
				c0,1.5-0.8,2.3-1.9,2.9c1.5,0.5,2.4,1.4,2.4,3l0,0c0,2.1-1.8,3.5-4.7,3.5H1.5V16.5z M8.7,20.5c0-0.8-0.6-1.1-1.5-1.1H4.9v2.3H7
				C8.1,21.5,8.7,21.2,8.7,20.5L8.7,20.5z M7.5,24.1H4.8v2.3h2.7c1.1,0,1.6-0.5,1.6-1.2l0,0C9.1,24.4,8.6,24.1,7.5,24.1z"/>
			<path id="XMLID_3019_" fill="#FFFFFF" d="M13.2,16.5H19c2,0,3.2,0.5,4.1,1.4c0.8,0.8,1,1.7,1,2.9l0,0c0,2-1,3.2-2.5,3.9l3,4.4
				h-3.9l-2.6-3.8h-1.5V29h-3.4C13.2,29,13.2,16.5,13.2,16.5z M18.9,22.6c1.2,0,1.8-0.6,1.8-1.5l0,0c0-1.1-0.8-1.5-1.8-1.5h-2.2v3
				H18.9z"/>
			<path id="XMLID_3016_" fill="#FFFFFF" d="M28.2,16.5h3.3l5.2,12.6H33l-0.9-2.3h-4.8l-0.9,2.3h-3.6L28.2,16.5z M31.2,24.1
				l-1.4-3.5l-1.4,3.5H31.2z"/>
			<polygon id="XMLID_3014_" fill="#FFFFFF" points="37.2,16.5 40.7,16.5 40.7,29 37.2,29 			"/>
			<polygon id="XMLID_3012_" fill="#FFFFFF" points="41.5,16.5 44.7,16.5 49.8,23.2 49.8,16.5 53.2,16.5 53.2,29 50.2,29 45,22.3 
				45,29.2 41.5,29.2 			"/>
			<path id="XMLID_3010_" fill="#FFFFFF" d="M53.5,27.2l2-2.3c1.2,1.1,2.5,1.5,4,1.5c0.9,0,1.5-0.3,1.5-0.9l0,0
				c0-0.6-0.5-0.8-2.1-1.2c-2.7-0.6-4.7-1.4-4.7-3.9l0,0c0-2.3,1.8-4.1,4.8-4.1c2.1,0,3.8,0.6,5.1,1.7l-1.8,2.4
				c-1.2-0.8-2.4-1.2-3.5-1.2c-0.9,0-1.2,0.3-1.2,0.8l0,0c0,0.6,0.5,0.8,2.1,1.2c2.9,0.6,4.7,1.5,4.7,3.9l0,0c0,2.6-2,4.1-5.1,4.1
				C57.2,29.3,55,28.6,53.5,27.2z"/>
		</g>
	</g>
</g>
<path id="Line-2" fill="none" stroke="#979797" stroke-linecap="square" stroke-dasharray="4,4" d="M0,192.7l316-0.5"/>
<path id="Line-2-Copy" fill="none" stroke="#979797" stroke-linecap="square" stroke-dasharray="4,4" d="M0,116.7l316-0.5"/>
<g enable-background="new    ">
	<path fill="#27282C" d="M21.1,152.6L21.1,152.6l-4.5-0.1v-0.9h5.6v1l-3.8,7.5h-1.1L21.1,152.6z"/>
	<path fill="#27282C" d="M22.4,159.3c0-0.4,0.3-0.8,0.8-0.8c0.4,0,0.8,0.3,0.8,0.8c0,0.4-0.3,0.8-0.8,0.8
		C22.7,160.1,22.4,159.7,22.4,159.3z"/>
	<path fill="#27282C" d="M25.5,157.8h1c0.1,0.9,0.8,1.5,1.8,1.5c1.1,0,1.8-0.8,1.8-2c0-1.1-0.7-1.9-1.8-1.9c-0.8,0-1.4,0.4-1.8,1h-1
		l0.5-4.8h4.7v0.9h-3.9l-0.3,2.8h0.1c0.4-0.5,1-0.8,1.9-0.8c1.4,0,2.6,1.1,2.6,2.8s-1.2,2.9-2.9,2.9
		C26.7,160.2,25.6,159.2,25.5,157.8z"/>
	<path fill="#27282C" d="M32.9,153.7h1v1H34c0.3-0.7,0.9-1.1,1.8-1.1c0.9,0,1.5,0.5,1.7,1.1h0.1c0.3-0.7,1.1-1.1,1.9-1.1
		c1.3,0,2,0.7,2,2.1v4.4h-1V156c0-0.9-0.4-1.4-1.3-1.4c-0.9,0-1.5,0.7-1.5,1.5v4.1h-1v-4.3c0-0.8-0.5-1.2-1.3-1.2s-1.5,0.7-1.5,1.6
		v3.9h-1V153.7z"/>
	<path fill="#27282C" d="M43.4,153.7h1v1h0.1c0.3-0.7,0.9-1.1,1.8-1.1c0.9,0,1.5,0.5,1.7,1.1l0,0c0.3-0.7,1.1-1.1,1.9-1.1
		c1.3,0,2,0.7,2,2.1v4.4h-1V156c0-0.9-0.4-1.4-1.3-1.4c-0.9,0-1.5,0.7-1.5,1.5v4.1h-1v-4.3c0-0.8-0.5-1.2-1.3-1.2s-1.5,0.7-1.5,1.6
		v3.9h-1L43.4,153.7L43.4,153.7z"/>
</g>
<g enable-background="new    ">
	<path fill="#27282C" d="M272.3,157.8h1c0.1,0.9,0.8,1.5,1.8,1.5c1.1,0,1.8-0.8,1.8-2c0-1.1-0.7-1.9-1.8-1.9c-0.8,0-1.4,0.4-1.8,1
		h-1l0.5-4.8h4.7v0.9h-3.9l-0.3,2.8h0.1c0.4-0.5,1-0.8,1.9-0.8c1.4,0,2.6,1.1,2.6,2.8s-1.2,2.9-2.9,2.9
		C273.6,160.2,272.4,159.2,272.3,157.8z"/>
	<path fill="#27282C" d="M279.6,155.8c0-2.8,1.1-4.4,3-4.4s3,1.6,3,4.4c0,2.8-1.1,4.4-3,4.4S279.6,158.6,279.6,155.8z M284.5,155.8
		c0-2.2-0.7-3.5-1.9-3.5s-1.9,1.3-1.9,3.5c0,2.3,0.7,3.5,1.9,3.5S284.5,158,284.5,155.8z"/>
	<path fill="#27282C" d="M293.1,156.8c0,2-1,3.3-2.7,3.3c-0.9,0-1.6-0.4-2-1.1h-0.1v3.1h-1v-8.4h1v1.1h0.1c0.4-0.7,1.2-1.2,2-1.2
		C292,153.6,293.1,154.9,293.1,156.8z M292,156.8c0-1.5-0.7-2.4-1.8-2.4c-1.1,0-1.9,0.9-1.9,2.4c0,1.4,0.7,2.4,1.9,2.4
		C291.3,159.2,292,158.3,292,156.8z"/>
	<path fill="#27282C" d="M296.5,157.6L295,160h-1.1l2.2-3.2l-2.2-3.2h1.2l1.5,2.3h0.1l1.5-2.3h1.1l-2.1,3.1l2.2,3.2h-1.2
		L296.5,157.6L296.5,157.6z"/>
</g>
</svg>
