<?xml version="1.0" encoding="utf-8"?>
<!-- Generator: Adobe Illustrator 23.1.1, SVG Export Plug-In . SVG Version: 6.00 Build 0)  -->
<!DOCTYPE svg PUBLIC "-//W3C//DTD SVG 1.1//EN" "http://www.w3.org/Graphics/SVG/1.1/DTD/svg11.dtd" [
	<!ENTITY ns_extend "http://ns.adobe.com/Extensibility/1.0/">
	<!ENTITY ns_ai "http://ns.adobe.com/AdobeIllustrator/10.0/">
	<!ENTITY ns_graphs "http://ns.adobe.com/Graphs/1.0/">
	<!ENTITY ns_vars "http://ns.adobe.com/Variables/1.0/">
	<!ENTITY ns_imrep "http://ns.adobe.com/ImageReplacement/1.0/">
	<!ENTITY ns_sfw "http://ns.adobe.com/SaveForWeb/1.0/">
	<!ENTITY ns_custom "http://ns.adobe.com/GenericCustomNamespace/1.0/">
	<!ENTITY ns_adobe_xpath "http://ns.adobe.com/XPath/1.0/">
]>
<svg version="1.1" id="Layer_1" xmlns:x="&ns_extend;" xmlns:i="&ns_ai;" xmlns:graph="&ns_graphs;"
	 xmlns="http://www.w3.org/2000/svg" xmlns:xlink="http://www.w3.org/1999/xlink" x="0px" y="0px" width="316px" height="316px"
	 viewBox="0 0 316 316" enable-background="new 0 0 316 316" xml:space="preserve">
<metadata>
	<sfw  xmlns="&ns_sfw;">
		<slices></slices>
		<sliceSourceBounds  bottomLeftOrigin="true" height="316" width="316" x="0" y="0"></sliceSourceBounds>
	</sfw>
</metadata>
<rect id="Rectangle-Copy-3" y="0" fill-rule="evenodd" clip-rule="evenodd" width="316" height="316"/>
<g id="jetbrains-copy-3" transform="translate(68.000000, 60.000000)">
	<path id="XMLID_3041_" fill="#FFFFFF" d="M178.4,108c1.4-1.2,2.1-2.9,2.2-4.8c0.2-3.9-2.7-7.1-6.6-7.4c-1.8-0.2-3.6,0.6-4.9,1.7
		l0,0l-125.7,69c-2.9,1.2-5.4,3.3-7.1,6.2c-4.3,7.2-1.9,16.5,5.4,20.9c5.1,3,11.2,2.7,16-0.3l0,0l0,0c0.3-0.3,0.8-0.5,1-0.8
		l117-82.4C176.4,109.6,178.1,108.4,178.4,108L178.4,108L178.4,108z"/>
	<path id="XMLID_3049_" fill="#FFFFFF" d="M178.7,97.9L178.7,97.9L83,3.8C80.9,1.5,77.9,0,74.4,0C68,0,62.9,5.3,62.9,11.6l0,0
		c0,3.2,1.2,5.9,3.2,8l0,0l0,0c0.6,0.6,1.2,1.1,1.8,1.5L169,107.9l0,0c1.2,1.1,2.7,1.8,4.5,2c3.9,0.2,7.1-2.7,7.4-6.6
		C180.8,101.2,180.1,99.3,178.7,97.9z"/>
	<path id="XMLID_3042_" fill="#FFFFFF" d="M86.2,89.5C86,89.5,27,42.9,25.9,42.1l0,0l0,0c-0.9-0.5-1.8-0.9-2.7-1.4
		c-8.8-3.3-18.4,1.3-21.7,10c-2.8,7.7,0.3,16.1,6.9,20.2l0,0l0,0c1.1,0.6,1.9,1.1,3,1.4c0.6,0.3,68.1,28.3,68.1,28.3l0,0
		c2.7,1.2,5.8,0.5,7.6-1.8C89.4,95.8,89,91.7,86.2,89.5z"/>
	<path id="XMLID_3057_" fill="#FFFFFF" d="M74.4,0c-2.5,0-4.9,0.9-6.9,2.3L7.8,42.6c-0.2,0.2-0.3,0.2-0.3,0.3H7.4l0,0
		c-2.6,1.8-4.7,4.5-5.9,7.7c-3.3,8.7,1.2,18.5,9.9,21.7c5.4,2.1,11.3,1.1,15.6-2.1l0,0l0,0c1.1-0.8,2-1.5,2.7-2.4l51.9-46.9l0,0
		c2.7-2.1,4.5-5.4,4.5-9.2l0,0C86.2,5.3,80.9,0,74.4,0z"/>
	<g id="XMLID_3008_" transform="translate(51.500000, 55.641221)">
		<rect id="XMLID_3033_" x="0.9" y="0.6" width="76.5" height="76.7"/>
		<rect id="XMLID_3032_" x="7.5" y="62.9" fill="#FFFFFF" width="28.7" height="4.8"/>
		<g id="XMLID_3009_" transform="translate(6.000000, 9.022901)">
			<path id="XMLID_3030_" fill="#FFFFFF" d="M1.2,11.7l2.2-2.1c0.6,0.8,1.2,1.2,2,1.2c0.9,0,1.3-0.6,1.3-1.8V1h3.4v8
				c0,1.5-0.4,2.7-1.2,3.5S7,13.7,5.5,13.7C3.3,13.8,2.1,12.9,1.2,11.7z"/>
			<polygon id="XMLID_3028_" fill="#FFFFFF" points="10.9,1.2 21,1.2 21,4.1 14.4,4.1 14.4,6 20.4,6 20.4,8.7 14.4,8.7 14.4,10.7 
				21.1,10.7 21.1,13.7 11.1,13.7 			"/>
			<polygon id="XMLID_3026_" fill="#FFFFFF" points="25.5,4.2 21.8,4.2 21.8,1.2 32.7,1.2 32.7,4.2 29,4.2 29,13.7 25.5,13.7 			"/>
			<path id="XMLID_3022_" fill="#FFFFFF" d="M1.5,16.5h6.4c1.5,0,2.7,0.5,3.4,1.1c0.5,0.5,0.8,1.2,0.8,2.1l0,0
				c0,1.5-0.8,2.3-1.9,2.9c1.5,0.5,2.4,1.4,2.4,3l0,0c0,2.1-1.8,3.5-4.7,3.5H1.5V16.5z M8.7,20.5c0-0.8-0.6-1.1-1.5-1.1H4.9v2.3H7
				C8.1,21.5,8.7,21.2,8.7,20.5L8.7,20.5z M7.5,24.1H4.8v2.3h2.7c1.1,0,1.6-0.5,1.6-1.2l0,0C9.1,24.4,8.6,24.1,7.5,24.1z"/>
			<path id="XMLID_3019_" fill="#FFFFFF" d="M13.2,16.5H19c2,0,3.2,0.5,4.1,1.4c0.8,0.8,1,1.7,1,2.9l0,0c0,2-1,3.2-2.5,3.9l3,4.4
				h-3.9l-2.6-3.8h-1.5V29h-3.4C13.2,29,13.2,16.5,13.2,16.5z M18.9,22.6c1.2,0,1.8-0.6,1.8-1.5l0,0c0-1.1-0.8-1.5-1.8-1.5h-2.2v3
				H18.9z"/>
			<path id="XMLID_3016_" fill="#FFFFFF" d="M28.2,16.5h3.3l5.2,12.6H33l-0.9-2.3h-4.8l-0.9,2.3h-3.6L28.2,16.5z M31.2,24.1
				l-1.4-3.5l-1.4,3.5H31.2z"/>
			<polygon id="XMLID_3014_" fill="#FFFFFF" points="37.2,16.5 40.7,16.5 40.7,29 37.2,29 			"/>
			<polygon id="XMLID_3012_" fill="#FFFFFF" points="41.5,16.5 44.7,16.5 49.8,23.2 49.8,16.5 53.2,16.5 53.2,29 50.2,29 45,22.3 
				45,29.2 41.5,29.2 			"/>
			<path id="XMLID_3010_" fill="#FFFFFF" d="M53.5,27.2l2-2.3c1.2,1.1,2.5,1.5,4,1.5c0.9,0,1.5-0.3,1.5-0.9l0,0
				c0-0.6-0.5-0.8-2.1-1.2c-2.7-0.6-4.7-1.4-4.7-3.9l0,0c0-2.3,1.8-4.1,4.8-4.1c2.1,0,3.8,0.6,5.1,1.7l-1.8,2.4
				c-1.2-0.8-2.4-1.2-3.5-1.2c-0.9,0-1.2,0.3-1.2,0.8l0,0c0,0.6,0.5,0.8,2.1,1.2c2.9,0.6,4.7,1.5,4.7,3.9l0,0c0,2.6-2,4.1-5.1,4.1
				C57.2,29.3,55,28.6,53.5,27.2z"/>
		</g>
	</g>
</g>
</svg>
