<?xml version="1.0" encoding="utf-8"?>
<!-- Generator: Adobe Illustrator 23.1.1, SVG Export Plug-In . SVG Version: 6.00 Build 0)  -->
<!DOCTYPE svg PUBLIC "-//W3C//DTD SVG 1.1//EN" "http://www.w3.org/Graphics/SVG/1.1/DTD/svg11.dtd" [
	<!ENTITY ns_extend "http://ns.adobe.com/Extensibility/1.0/">
	<!ENTITY ns_ai "http://ns.adobe.com/AdobeIllustrator/10.0/">
	<!ENTITY ns_graphs "http://ns.adobe.com/Graphs/1.0/">
	<!ENTITY ns_vars "http://ns.adobe.com/Variables/1.0/">
	<!ENTITY ns_imrep "http://ns.adobe.com/ImageReplacement/1.0/">
	<!ENTITY ns_sfw "http://ns.adobe.com/SaveForWeb/1.0/">
	<!ENTITY ns_custom "http://ns.adobe.com/GenericCustomNamespace/1.0/">
	<!ENTITY ns_adobe_xpath "http://ns.adobe.com/XPath/1.0/">
]>
<svg version="1.1" id="Layer_1" xmlns:x="&ns_extend;" xmlns:i="&ns_ai;" xmlns:graph="&ns_graphs;"
	 xmlns="http://www.w3.org/2000/svg" xmlns:xlink="http://www.w3.org/1999/xlink" x="0px" y="0px" width="316px" height="316px"
	 viewBox="0 0 316 316" enable-background="new 0 0 316 316" xml:space="preserve">
<metadata>
	<sfw  xmlns="&ns_sfw;">
		<slices></slices>
		<sliceSourceBounds  bottomLeftOrigin="true" height="316" width="316" x="0" y="0"></sliceSourceBounds>
	</sfw>
</metadata>
<rect id="Rectangle-Copy-5" y="0" fill-rule="evenodd" clip-rule="evenodd" fill="#F4F4F4" width="316" height="316"/>
<g id="Group-6" transform="translate(40.000000, 40.000000)">
	<path id="Line-3" fill="none" stroke="#FFFFFF" stroke-width="2" stroke-linecap="square" d="M0.5-1.5v234"/>
	<path id="Line-3-Copy" fill="none" stroke="#FFFFFF" stroke-width="2" stroke-linecap="square" d="M20-1.5v234"/>
	<path id="Line-3-Copy-2" fill="none" stroke="#FFFFFF" stroke-width="2" stroke-linecap="square" d="M39.5-1.5v234"/>
	<path id="Line-3-Copy-3" fill="none" stroke="#FFFFFF" stroke-width="2" stroke-linecap="square" d="M59-1.5v234"/>
	<path id="Line-3-Copy-4" fill="none" stroke="#FFFFFF" stroke-width="2" stroke-linecap="square" d="M78.5-1.5v234"/>
	<path id="Line-3-Copy-5" fill="none" stroke="#FFFFFF" stroke-width="2" stroke-linecap="square" d="M98-1.5v234"/>
	<path id="Line-3-Copy-6" fill="none" stroke="#FFFFFF" stroke-width="2" stroke-linecap="square" d="M117.5-1.5v234"/>
	<path id="Line-3-Copy-7" fill="none" stroke="#FFFFFF" stroke-width="2" stroke-linecap="square" d="M137-1.5v234"/>
	<path id="Line-3-Copy-8" fill="none" stroke="#FFFFFF" stroke-width="2" stroke-linecap="square" d="M156.5-1.5v234"/>
	<path id="Line-3-Copy-9" fill="none" stroke="#FFFFFF" stroke-width="2" stroke-linecap="square" d="M176-1.5v234"/>
	<path id="Line-3-Copy-10" fill="none" stroke="#FFFFFF" stroke-width="2" stroke-linecap="square" d="M195.5-1.5v234"/>
	<path id="Line-3-Copy-11" fill="none" stroke="#FFFFFF" stroke-width="2" stroke-linecap="square" d="M215-1.5v234"/>
	<path id="Line-3-Copy-12" fill="none" stroke="#FFFFFF" stroke-width="2" stroke-linecap="square" d="M234.5-1.5v234"/>
</g>
<g transform="translate(157.500000, 157.500000) rotate(90.000000) translate(-157.500000, -157.500000) translate(40.000000, 40.000000)">
	<path fill="none" stroke="#FFFFFF" stroke-width="2" stroke-linecap="square" d="M-1.5,0.5v234"/>
	<path fill="none" stroke="#FFFFFF" stroke-width="2" stroke-linecap="square" d="M18,0.5v234"/>
	<path fill="none" stroke="#FFFFFF" stroke-width="2" stroke-linecap="square" d="M37.5,0.5v234"/>
	<path fill="none" stroke="#FFFFFF" stroke-width="2" stroke-linecap="square" d="M57,0.5v234"/>
	<path fill="none" stroke="#FFFFFF" stroke-width="2" stroke-linecap="square" d="M76.5,0.5v234"/>
	<path fill="none" stroke="#FFFFFF" stroke-width="2" stroke-linecap="square" d="M96,0.5v234"/>
	<path fill="none" stroke="#FFFFFF" stroke-width="2" stroke-linecap="square" d="M115.5,0.5v234"/>
	<path fill="none" stroke="#FFFFFF" stroke-width="2" stroke-linecap="square" d="M135,0.5v234"/>
	<path fill="none" stroke="#FFFFFF" stroke-width="2" stroke-linecap="square" d="M154.5,0.5v234"/>
	<path fill="none" stroke="#FFFFFF" stroke-width="2" stroke-linecap="square" d="M174,0.5v234"/>
	<path fill="none" stroke="#FFFFFF" stroke-width="2" stroke-linecap="square" d="M193.5,0.5v234"/>
	<path fill="none" stroke="#FFFFFF" stroke-width="2" stroke-linecap="square" d="M213,0.5v234"/>
	<path fill="none" stroke="#FFFFFF" stroke-width="2" stroke-linecap="square" d="M232.5,0.5v234"/>
</g>
<g enable-background="new    ">
	<path fill="#27282C" d="M43,21.7L43,21.7l-2.2,1.6v-1.1l2.2-1.6h1V29h-1V21.7z"/>
	<path fill="#27282C" d="M48.7,26.6L47.2,29H46l2.2-3.2L46,22.7h1.2l1.5,2.3h0.1l1.5-2.3h1.1l-2.1,3.1l2.2,3.2h-1.2L48.7,26.6
		L48.7,26.6z"/>
</g>
<g enable-background="new    ">
	<path fill="#27282C" d="M46.2,297h-5.1v-8.5h1.1v7.5h4.1L46.2,297L46.2,297z"/>
	<path fill="#27282C" d="M47.2,293.8c0-2,1.1-3.3,2.9-3.3s2.9,1.2,2.9,3.3c0,2-1.1,3.3-2.9,3.3S47.2,295.9,47.2,293.8z M51.9,293.8
		c0-1.5-0.7-2.4-1.9-2.4s-1.9,0.9-1.9,2.4s0.7,2.4,1.9,2.4S51.9,295.3,51.9,293.8z"/>
	<path fill="#27282C" d="M54.5,297.7h1.1c0.1,0.5,0.7,0.8,1.6,0.8c1.1,0,1.8-0.6,1.8-1.5v-1.2h-0.1c-0.4,0.7-1.1,1.1-2,1.1
		c-1.6,0-2.6-1.3-2.6-3.2s1-3.2,2.6-3.2c0.9,0,1.7,0.4,2,1.1H59v-1h1v6.4c0,1.4-1.1,2.3-2.8,2.3C55.6,299.4,54.7,298.7,54.5,297.7z
		 M59,293.7c0-1.4-0.7-2.3-1.9-2.3s-1.8,0.9-1.8,2.3s0.7,2.3,1.8,2.3S59,295.1,59,293.7z"/>
	<path fill="#27282C" d="M61.6,293.8c0-2,1.1-3.3,2.9-3.3s2.9,1.2,2.9,3.3c0,2-1.1,3.3-2.9,3.3S61.6,295.9,61.6,293.8z M66.3,293.8
		c0-1.5-0.7-2.4-1.9-2.4s-1.9,0.9-1.9,2.4s0.7,2.4,1.9,2.4C65.6,296.2,66.3,295.3,66.3,293.8z"/>
	<path fill="#27282C" d="M76.6,292.6c-0.2-0.6-0.7-1.1-1.6-1.1c-1.1,0-1.9,0.9-1.9,2.3c0,1.5,0.7,2.4,1.9,2.4c0.8,0,1.4-0.4,1.6-1.1
		h1c-0.2,1.2-1.1,2-2.6,2c-1.8,0-2.9-1.3-2.9-3.3s1.1-3.2,2.9-3.2c1.5,0,2.5,0.9,2.6,2L76.6,292.6L76.6,292.6z"/>
	<path fill="#27282C" d="M79.1,290.7h1v0.9h0.1c0.2-0.6,0.9-1,1.8-1c0.2,0,0.4,0,0.5,0v1c-0.1,0-0.4-0.1-0.6-0.1
		c-1,0-1.7,0.6-1.7,1.5v3.9h-1v-6.2H79.1z"/>
	<path fill="#27282C" d="M83.1,293.8c0-2,1.1-3.3,2.9-3.3s2.9,1.2,2.9,3.3c0,2-1.1,3.3-2.9,3.3S83.1,295.9,83.1,293.8z M87.9,293.8
		c0-1.5-0.7-2.4-1.9-2.4s-1.9,0.9-1.9,2.4s0.7,2.4,1.9,2.4S87.9,295.3,87.9,293.8z"/>
	<path fill="#27282C" d="M96.3,293.8c0,2-1,3.3-2.7,3.3c-0.9,0-1.6-0.4-2-1.1h-0.1v3.1h-1v-8.4h1v1.1h0.1c0.4-0.7,1.2-1.2,2-1.2
		C95.2,290.6,96.3,291.9,96.3,293.8z M95.2,293.8c0-1.5-0.7-2.4-1.8-2.4c-1.1,0-1.9,0.9-1.9,2.4c0,1.4,0.7,2.4,1.9,2.4
		C94.5,296.2,95.2,295.3,95.2,293.8z"/>
	<path fill="#27282C" d="M100.9,295.2c0-1.1,0.8-1.8,2.3-1.9l1.8-0.1v-0.6c0-0.8-0.5-1.2-1.4-1.2c-0.8,0-1.3,0.3-1.4,0.8h-1
		c0.1-1,1.1-1.7,2.5-1.7c1.5,0,2.4,0.8,2.4,2.1v4.3h-1V296H105c-0.4,0.7-1.1,1-1.9,1C101.8,297.1,100.9,296.4,100.9,295.2z
		 M105,294.6V294l-1.7,0.1c-1,0.1-1.4,0.4-1.4,1s0.5,1,1.3,1C104.2,296.2,105,295.5,105,294.6z"/>
	<path fill="#27282C" d="M107.9,290.7h1v0.9h0.1c0.2-0.6,0.9-1,1.8-1c0.2,0,0.4,0,0.5,0v1c-0.1,0-0.4-0.1-0.6-0.1
		c-1,0-1.7,0.6-1.7,1.5v3.9h-1v-6.2H107.9z"/>
	<path fill="#27282C" d="M117.5,295.4c-0.3,1.1-1.3,1.7-2.7,1.7c-1.8,0-2.8-1.3-2.8-3.3s1.1-3.3,2.8-3.3c1.7,0,2.7,1.2,2.7,3.2v0.4
		H113l0,0c0.1,1.2,0.8,2,1.8,2c0.8,0,1.4-0.3,1.6-0.9h1.1V295.4z M113,293.3h3.5c0-1.1-0.7-1.9-1.7-1.9
		C113.8,291.5,113.1,292.2,113,293.3z"/>
	<path fill="#27282C" d="M118.7,295.2c0-1.1,0.8-1.8,2.3-1.9l1.8-0.1v-0.6c0-0.8-0.5-1.2-1.4-1.2c-0.8,0-1.3,0.3-1.4,0.8h-1
		c0.1-1,1.1-1.7,2.5-1.7c1.5,0,2.4,0.8,2.4,2.1v4.3h-1V296h-0.1c-0.4,0.7-1.1,1-1.9,1C119.7,297.1,118.7,296.4,118.7,295.2z
		 M122.9,294.6V294l-1.7,0.1c-1,0.1-1.4,0.4-1.4,1s0.5,1,1.3,1C122.1,296.2,122.9,295.5,122.9,294.6z"/>
</g>
<path id="Rectangle" fill-rule="evenodd" clip-rule="evenodd" fill="#FFFFFF" d="M100,97h114c0.6,0,1,0.4,1,1v114c0,0.6-0.4,1-1,1
	H100c-0.6,0-1-0.4-1-1V98C99,97.4,99.4,97,100,97z"/>
<g id="jetbrains" transform="translate(66.000000, 62.000000)">
	
		<linearGradient id="XMLID_2_" gradientUnits="userSpaceOnUse" x1="-408.0009" y1="5.9242" x2="-407.1981" y2="5.593" gradientTransform="matrix(146.4726 0 0 99.8782 59810.9492 -430.2091)">
		<stop  offset="0" style="stop-color:#FCEE39"/>
		<stop  offset="1" style="stop-color:#F37B3D"/>
	</linearGradient>
	<path id="XMLID_3041_" fill="url(#XMLID_2_)" d="M179.4,106c1.4-1.2,2.1-2.9,2.2-4.8c0.2-3.9-2.7-7.1-6.6-7.4
		c-1.8-0.2-3.6,0.6-4.9,1.7l0,0l-125.7,69c-2.9,1.2-5.4,3.3-7.1,6.2c-4.3,7.2-1.9,16.5,5.4,20.9c5.1,3,11.2,2.7,16-0.3l0,0l0,0
		c0.3-0.3,0.8-0.5,1-0.8l117-82.4C177.4,107.6,179.1,106.4,179.4,106L179.4,106L179.4,106z"/>
	
		<linearGradient id="XMLID_3_" gradientUnits="userSpaceOnUse" x1="-407.5522" y1="4.9168" x2="-406.6418" y2="5.661" gradientTransform="matrix(117.9 0 0 109.7843 48124.9023 -526.0054)">
		<stop  offset="0" style="stop-color:#EF5A6B"/>
		<stop  offset="0.57" style="stop-color:#F26F4E"/>
		<stop  offset="1" style="stop-color:#F37B3D"/>
	</linearGradient>
	<path id="XMLID_3049_" fill="url(#XMLID_3_)" d="M179.7,95.9L179.7,95.9L84,1.8C81.9-0.5,78.9-2,75.4-2C69-2,63.9,3.3,63.9,9.6l0,0
		c0,3.2,1.2,5.9,3.2,8l0,0l0,0c0.6,0.6,1.2,1.1,1.8,1.5L170,105.9l0,0c1.2,1.1,2.7,1.8,4.5,2c3.9,0.2,7.1-2.7,7.4-6.6
		C181.8,99.2,181.1,97.3,179.7,95.9z"/>
	
		<linearGradient id="XMLID_4_" gradientUnits="userSpaceOnUse" x1="-405.9247" y1="9.1951" x2="-406.6465" y2="8.8805" gradientTransform="matrix(88.1311 0 0 61.3574 35857.25 -486.3326)">
		<stop  offset="0" style="stop-color:#7C59A4"/>
		<stop  offset="0.3852" style="stop-color:#AF4C92"/>
		<stop  offset="0.7654" style="stop-color:#DC4183"/>
		<stop  offset="0.957" style="stop-color:#ED3D7D"/>
	</linearGradient>
	<path id="XMLID_3042_" fill="url(#XMLID_4_)" d="M87.2,87.5C87,87.5,28,40.9,26.9,40.1l0,0l0,0c-0.9-0.5-1.8-0.9-2.7-1.4
		c-8.8-3.3-18.4,1.3-21.7,10c-2.8,7.7,0.3,16.1,6.9,20.2l0,0l0,0c1.1,0.6,1.9,1.1,3,1.4c0.6,0.3,68.1,28.3,68.1,28.3l0,0
		c2.7,1.2,5.8,0.5,7.6-1.8C90.4,93.8,90,89.7,87.2,87.5z"/>
	
		<linearGradient id="XMLID_5_" gradientUnits="userSpaceOnUse" x1="-405.8206" y1="7.3707" x2="-406.5453" y2="7.8839" gradientTransform="matrix(85.684 0 0 73.2785 34853.8984 -525.9882)">
		<stop  offset="0" style="stop-color:#EF5A6B"/>
		<stop  offset="0.364" style="stop-color:#EE4E72"/>
		<stop  offset="1" style="stop-color:#ED3D7D"/>
	</linearGradient>
	<path id="XMLID_3057_" fill="url(#XMLID_5_)" d="M75.4-2c-2.5,0-4.9,0.9-6.9,2.3L8.9,40.6c-0.2,0.2-0.3,0.2-0.3,0.3H8.4l0,0
		c-2.5,1.8-4.6,4.5-5.8,7.7c-3.3,8.7,1.2,18.5,9.9,21.7c5.4,2.1,11.3,1.1,15.6-2.1l0,0l0,0c1.1-0.8,2-1.5,2.7-2.4l51.9-46.9l0,0
		c2.7-2.1,4.5-5.4,4.5-9.2l0,0C87.2,3.3,81.9-2,75.4-2z"/>
	<g id="XMLID_3008_" transform="translate(52.500000, 55.641221)">
		<rect id="XMLID_3033_" x="0.9" y="-1.4" width="76.5" height="76.7"/>
		<rect id="XMLID_3032_" x="7.5" y="60.9" fill="#FFFFFF" width="28.7" height="4.8"/>
		<g id="XMLID_3009_" transform="translate(6.000000, 9.022901)">
			<path id="XMLID_3030_" fill="#FFFFFF" d="M1.2,9.7l2.2-2.1c0.6,0.8,1.2,1.2,2,1.2c0.9,0,1.3-0.6,1.3-1.8v-8h3.4v8
				c0,1.5-0.4,2.7-1.2,3.5S7,11.7,5.5,11.7C3.3,11.8,2.1,10.9,1.2,9.7z"/>
			<polygon id="XMLID_3028_" fill="#FFFFFF" points="10.9,-0.8 21,-0.8 21,2.1 14.4,2.1 14.4,4 20.4,4 20.4,6.7 14.4,6.7 14.4,8.7 
				21.1,8.7 21.1,11.7 11.1,11.7 			"/>
			<polygon id="XMLID_3026_" fill="#FFFFFF" points="25.5,2.2 21.8,2.2 21.8,-0.8 32.7,-0.8 32.7,2.2 29,2.2 29,11.7 25.5,11.7 			
				"/>
			<path id="XMLID_3022_" fill="#FFFFFF" d="M1.5,14.5h6.4c1.5,0,2.7,0.5,3.4,1.1c0.5,0.5,0.8,1.2,0.8,2.1l0,0
				c0,1.5-0.8,2.3-1.9,2.9c1.5,0.5,2.4,1.4,2.4,3l0,0c0,2.1-1.8,3.5-4.7,3.5H1.5V14.5z M8.7,18.5c0-0.8-0.6-1.1-1.5-1.1H4.9v2.3H7
				C8.1,19.5,8.7,19.2,8.7,18.5L8.7,18.5z M7.5,22.1H4.8v2.3h2.7c1.1,0,1.6-0.5,1.6-1.2l0,0C9.1,22.4,8.6,22.1,7.5,22.1z"/>
			<path id="XMLID_3019_" fill="#FFFFFF" d="M13.2,14.5H19c2,0,3.2,0.5,4.1,1.4c0.8,0.8,1,1.7,1,2.9l0,0c0,2-1,3.2-2.5,3.9l3,4.4
				h-3.9l-2.6-3.8h-1.5V27h-3.4C13.2,27,13.2,14.5,13.2,14.5z M18.9,20.6c1.2,0,1.8-0.6,1.8-1.5l0,0c0-1.1-0.8-1.5-1.8-1.5h-2.2v3
				H18.9z"/>
			<path id="XMLID_3016_" fill="#FFFFFF" d="M28.2,14.5h3.3l5.2,12.6H33l-0.9-2.3h-4.8l-0.9,2.3h-3.6L28.2,14.5z M31.2,22.1
				l-1.4-3.5l-1.4,3.5H31.2z"/>
			<polygon id="XMLID_3014_" fill="#FFFFFF" points="37.2,14.5 40.7,14.5 40.7,27 37.2,27 			"/>
			<polygon id="XMLID_3012_" fill="#FFFFFF" points="41.5,14.5 44.7,14.5 49.8,21.2 49.8,14.5 53.2,14.5 53.2,27 50.2,27 45,20.3 
				45,27.2 41.5,27.2 			"/>
			<path id="XMLID_3010_" fill="#FFFFFF" d="M53.5,25.2l2-2.3c1.2,1.1,2.5,1.5,4,1.5c0.9,0,1.5-0.3,1.5-0.9l0,0
				c0-0.6-0.5-0.8-2.1-1.2c-2.7-0.6-4.7-1.4-4.7-3.9l0,0c0-2.3,1.8-4.1,4.8-4.1c2.1,0,3.8,0.6,5.1,1.7l-1.8,2.4
				c-1.2-0.8-2.4-1.2-3.5-1.2c-0.9,0-1.2,0.3-1.2,0.8l0,0c0,0.6,0.5,0.8,2.1,1.2c2.9,0.6,4.7,1.5,4.7,3.9l0,0c0,2.6-2,4.1-5.1,4.1
				C57.2,27.3,55,26.6,53.5,25.2z"/>
		</g>
	</g>
</g>
<path fill="none" stroke="#979797" stroke-linecap="square" stroke-dasharray="4,4" d="M100,97h114c0.6,0,1,0.4,1,1v114
	c0,0.6-0.4,1-1,1H100c-0.6,0-1-0.4-1-1V98C99,97.4,99.4,97,100,97z"/>
</svg>
