<?xml version="1.0" encoding="utf-8"?>
<!-- Generator: Adobe Illustrator 18.1.1, SVG Export Plug-In . SVG Version: 6.00 Build 0)  -->
<svg version="1.1" id="Слой_1" xmlns="http://www.w3.org/2000/svg" xmlns:xlink="http://www.w3.org/1999/xlink" x="0px" y="0px"
	 width="832.458008px" height="444.438995px" viewBox="118 198.451019 832.458008 444.438995"
	 enable-background="new 118 198.451019 832.458008 444.438995" xml:space="preserve">
<radialGradient id="SVGID_1_" cx="8267.771484" cy="1002.963196" r="406.757599" gradientTransform="matrix(-0.69 -0.7973 -0.578 0.6071 6826.185547 6720.841797)" gradientUnits="userSpaceOnUse">
	<stop  offset="0" style="stop-color:#EBBA31"/>
	<stop  offset="0.9479" style="stop-color:#EBBA31;stop-opacity:0"/>
</radialGradient>
<path fill="url(#SVGID_1_)" d="M812.520996,308.73288c-80.687988-84.507019-203.935059-115.743011-330.470001-109.586014
	c-200.194,9.740997-362.835999,178.955032-362.835999,399.70697c0,14.902039,0.739998,29.613037,2.181999,44.092041h830.276001
	C951.672974,642.945862,941.514038,443.832886,812.520996,308.73288z"/>
<linearGradient id="SVGID_2_" gradientUnits="userSpaceOnUse" x1="8736.738281" y1="566.895142" x2="8431.211914" y2="443.033173" gradientTransform="matrix(-1 0 0 1 9111.183594 -1.097931)">
	<stop  offset="0.1709" style="stop-color:#EBBA31"/>
	<stop  offset="0.2236" style="stop-color:#E7B934"/>
	<stop  offset="0.2717" style="stop-color:#DCB53F"/>
	<stop  offset="0.3178" style="stop-color:#CAAE51"/>
	<stop  offset="0.3629" style="stop-color:#B0A46A"/>
	<stop  offset="0.4072" style="stop-color:#8E978A"/>
	<stop  offset="0.4502" style="stop-color:#6688B1"/>
	<stop  offset="0.4658" style="stop-color:#5582C1"/>
	<stop  offset="0.4678" style="stop-color:#5581C0"/>
	<stop  offset="0.6053" style="stop-color:#435C9C"/>
	<stop  offset="0.7326" style="stop-color:#364082"/>
	<stop  offset="0.8448" style="stop-color:#2F3073"/>
	<stop  offset="0.9301" style="stop-color:#2C2A6D"/>
</linearGradient>
<path fill="url(#SVGID_2_)" d="M623.869995,441.167877l8.927002,17.780029c2.458984,4.897003,0.463989,10.915009-4.432983,13.373993
	L381.203003,596.423828c-4.897003,2.459045-10.915009,0.463989-13.373993-4.432983l-8.927002-17.780029
	c-2.458984-4.896973-0.463989-10.914978,4.432983-13.373962l247.16098-124.101959
	C615.392944,434.275879,621.411011,436.270905,623.869995,441.167877z"/>
<linearGradient id="SVGID_3_" gradientUnits="userSpaceOnUse" x1="-6320.848633" y1="574.107544" x2="-5992.19043" y2="492.653076" gradientTransform="matrix(1 0 0 1 6748.867676 -1.097931)">
	<stop  offset="0.1709" style="stop-color:#EBBA31"/>
	<stop  offset="0.2236" style="stop-color:#E7B934"/>
	<stop  offset="0.2717" style="stop-color:#DCB53F"/>
	<stop  offset="0.3178" style="stop-color:#CAAE51"/>
	<stop  offset="0.3629" style="stop-color:#B0A46A"/>
	<stop  offset="0.4072" style="stop-color:#8E978A"/>
	<stop  offset="0.4502" style="stop-color:#6688B1"/>
	<stop  offset="0.4658" style="stop-color:#5582C1"/>
	<stop  offset="0.4678" style="stop-color:#5581C0"/>
	<stop  offset="0.6053" style="stop-color:#435C9C"/>
	<stop  offset="0.7326" style="stop-color:#364082"/>
	<stop  offset="0.8448" style="stop-color:#2F3073"/>
	<stop  offset="0.9301" style="stop-color:#2C2A6D"/>
</linearGradient>
<path fill="url(#SVGID_3_)" d="M485.368988,642.944824l233.912994-0.002014L603.728027,470.63089
	c-29.99707-48.479004-52.669067-70.651001-83.061035-62.697998l-24.566986,13.936981c0,0-2.437012-1.854004-7.613007,92.609985
	L485.368988,642.944824"/>
<path fill="#EBBA31" d="M287.319,443.832886h9.338989c2.572021,0,4.677002-2.104004,4.677002-4.677002v-46.447998
	c0-2.571991-2.104004-4.677002-4.677002-4.677002H287.319c-2.572021,0-4.677002,2.104004-4.677002,4.677002v46.447998
	C282.641998,441.727875,284.746002,443.832886,287.319,443.832886z"/>
<linearGradient id="SVGID_4_" gradientUnits="userSpaceOnUse" x1="-5532.346191" y1="4069.594238" x2="-5433.226074" y2="3944.184814" gradientTransform="matrix(0.8992 0.4374 -0.4374 0.8992 7192.758301 -834.539063)">
	<stop  offset="0.0699" style="stop-color:#EBBA31"/>
	<stop  offset="0.2089" style="stop-color:#E8B934"/>
	<stop  offset="0.3269" style="stop-color:#DDB53E"/>
	<stop  offset="0.4371" style="stop-color:#CCAE4F"/>
	<stop  offset="0.5427" style="stop-color:#B3A567"/>
	<stop  offset="0.645" style="stop-color:#939985"/>
	<stop  offset="0.7434" style="stop-color:#6C8BAA"/>
	<stop  offset="0.7951" style="stop-color:#5582C1"/>
</linearGradient>
<path fill="url(#SVGID_4_)" d="M546.338013,388.087891c11.869995-7.27002,19.351929-20.761993,18.225952-35.596008
	c-1.601929-21.104004-20.01001-36.914001-41.114014-35.312012c-18.384979,1.395996-32.745972,15.546021-35.084961,33.121002
	c-21.546997,1.636017-90.131012,10.904022-94.769989,11.419006c-9.605988,1.06601-13.233002,3.618011-3.247009,33.321014
	c8.869995,26.384003,49.110992,43.600983,74.06601,41.705994c24.95401-1.89502,85.617981-19.64502,85.617981-19.64502
	C549.687012,412.565887,548.119019,400.770905,546.338013,388.087891z"/>
<ellipse transform="matrix(-0.936333 0.351112 -0.351112 -0.936333 1106.721558 522.645691)" fill="#2C2A6D" cx="505.975525" cy="361.662842" rx="6.311795" ry="6.20477"/>
<linearGradient id="SVGID_5_" gradientUnits="userSpaceOnUse" x1="8721.501953" y1="360.84906" x2="8699.267578" y2="383.510956" gradientTransform="matrix(-1 0 0 1 9111.183594 -1.097931)">
	<stop  offset="0.0699" style="stop-color:#5582C1"/>
	<stop  offset="0.1828" style="stop-color:#4E74B4"/>
	<stop  offset="0.5418" style="stop-color:#3C4C8D"/>
	<stop  offset="0.8266" style="stop-color:#303376"/>
	<stop  offset="1" style="stop-color:#2C2A6D"/>
</linearGradient>
<path fill="url(#SVGID_5_)" d="M383.339996,361.712891c0,0-0.26001,11.187988,3.153992,22.152008
	c0,0,27.306,4.639008,29.165009-24.998993L383.339996,361.712891z"/>
<linearGradient id="SVGID_6_" gradientUnits="userSpaceOnUse" x1="8691.555664" y1="391.821808" x2="8696.939453" y2="391.821808" gradientTransform="matrix(-1 0 0 1 9111.183594 -1.097931)">
	<stop  offset="0.0699" style="stop-color:#5582C1"/>
	<stop  offset="0.1828" style="stop-color:#4E74B4"/>
	<stop  offset="0.5418" style="stop-color:#3C4C8D"/>
	<stop  offset="0.8266" style="stop-color:#303376"/>
	<stop  offset="1" style="stop-color:#2C2A6D"/>
</linearGradient>
<circle fill="url(#SVGID_6_)" cx="416.936005" cy="390.723877" r="2.691986"/>
<linearGradient id="SVGID_7_" gradientUnits="userSpaceOnUse" x1="8683.047852" y1="404.418823" x2="8688.431641" y2="404.418823" gradientTransform="matrix(-1 0 0 1 9111.183594 -1.097931)">
	<stop  offset="0.0699" style="stop-color:#5582C1"/>
	<stop  offset="0.1828" style="stop-color:#4E74B4"/>
	<stop  offset="0.5418" style="stop-color:#3C4C8D"/>
	<stop  offset="0.8266" style="stop-color:#303376"/>
	<stop  offset="1" style="stop-color:#2C2A6D"/>
</linearGradient>
<circle fill="url(#SVGID_7_)" cx="425.444" cy="403.320892" r="2.691986"/>
<linearGradient id="SVGID_8_" gradientUnits="userSpaceOnUse" x1="8697.80957" y1="404.676819" x2="8703.193359" y2="404.676819" gradientTransform="matrix(-1 0 0 1 9111.183594 -1.097931)">
	<stop  offset="0.0699" style="stop-color:#5582C1"/>
	<stop  offset="0.1828" style="stop-color:#4E74B4"/>
	<stop  offset="0.5418" style="stop-color:#3C4C8D"/>
	<stop  offset="0.8266" style="stop-color:#303376"/>
	<stop  offset="1" style="stop-color:#2C2A6D"/>
</linearGradient>
<circle fill="url(#SVGID_8_)" cx="410.682007" cy="403.578888" r="2.691986"/>
<path fill="#FFFFFF" d="M407.98999,418.019897l104.302002-17.390015c0,0-6.300995,18.71701-31.799988,21.973022
	c-21.692993,2.769989-48.639984,8.544983-48.639984,8.544983S417.127991,426.600891,407.98999,418.019897z"/>
<path fill="#EBBA31" d="M382.212982,596.016846l14.981995-10.513977c4.127014-2.895996,5.132996-8.640991,2.238007-12.768005
	L295.944977,425.2659c-2.895996-4.127014-8.640991-5.132996-12.768005-2.238007l-14.981995,10.514008
	c-4.126984,2.895996-5.132996,8.640991-2.237976,12.768005L369.444977,593.77887
	C372.341003,597.905823,378.087006,598.912842,382.212982,596.016846z"/>
<linearGradient id="SVGID_9_" gradientUnits="userSpaceOnUse" x1="8905.899414" y1="416.800049" x2="8708.146484" y2="481.714325" gradientTransform="matrix(-1 0 0 1 9111.183594 -1.097931)">
	<stop  offset="0.1709" style="stop-color:#EBBA31"/>
	<stop  offset="0.2236" style="stop-color:#E7B934"/>
	<stop  offset="0.2717" style="stop-color:#DCB53F"/>
	<stop  offset="0.3178" style="stop-color:#CAAE51"/>
	<stop  offset="0.3629" style="stop-color:#B0A46A"/>
	<stop  offset="0.4072" style="stop-color:#8E978A"/>
	<stop  offset="0.4502" style="stop-color:#6688B1"/>
	<stop  offset="0.4658" style="stop-color:#5582C1"/>
	<stop  offset="0.4678" style="stop-color:#5581C0"/>
	<stop  offset="0.6053" style="stop-color:#435C9C"/>
	<stop  offset="0.7326" style="stop-color:#364082"/>
	<stop  offset="0.8448" style="stop-color:#2F3073"/>
	<stop  offset="0.9301" style="stop-color:#2C2A6D"/>
</linearGradient>
<path fill="url(#SVGID_9_)" d="M258.692993,466.525909h17.862c8.186981,0,15.381012,1.34201,14.884979-4.902985v-45.146027
	c0-10.112-6.697998-8.115997-14.884979-8.115997h-17.862c-8.186996,0-14.88501,8.273987-14.88501,18.385986v21.393005
	C243.807999,458.251892,250.507004,466.525909,258.692993,466.525909z"/>
<linearGradient id="SVGID_10_" gradientUnits="userSpaceOnUse" x1="8849.986328" y1="424.132935" x2="8811.655273" y2="423.851013" gradientTransform="matrix(-1 0 0 1 9111.183594 -1.097931)">
	<stop  offset="0.0699" style="stop-color:#5582C1"/>
	<stop  offset="0.1828" style="stop-color:#4E74B4"/>
	<stop  offset="0.5418" style="stop-color:#3C4C8D"/>
	<stop  offset="0.8266" style="stop-color:#303376"/>
	<stop  offset="1" style="stop-color:#2C2A6D"/>
</linearGradient>
<rect x="266.879974" y="421.395905" fill="url(#SVGID_10_)" width="24.559021" height="3.014008"/>
<linearGradient id="SVGID_11_" gradientUnits="userSpaceOnUse" x1="8851.038086" y1="436.499359" x2="8810.452148" y2="439.881439" gradientTransform="matrix(-1 0 0 1 9111.183594 -1.097931)">
	<stop  offset="0.0699" style="stop-color:#5582C1"/>
	<stop  offset="0.1828" style="stop-color:#4E74B4"/>
	<stop  offset="0.5418" style="stop-color:#3C4C8D"/>
	<stop  offset="0.8266" style="stop-color:#303376"/>
	<stop  offset="1" style="stop-color:#2C2A6D"/>
</linearGradient>
<rect x="266.879974" y="435.438904" fill="url(#SVGID_11_)" width="24.559021" height="3.093994"/>
<linearGradient id="SVGID_12_" gradientUnits="userSpaceOnUse" x1="8856.894531" y1="449.431732" x2="8814.335938" y2="452.250214" gradientTransform="matrix(-1 0 0 1 9111.183594 -1.097931)">
	<stop  offset="0.0699" style="stop-color:#5582C1"/>
	<stop  offset="0.1828" style="stop-color:#4E74B4"/>
	<stop  offset="0.5418" style="stop-color:#3C4C8D"/>
	<stop  offset="0.8266" style="stop-color:#303376"/>
	<stop  offset="1" style="stop-color:#2C2A6D"/>
</linearGradient>
<rect x="266.879974" y="448.473877" fill="url(#SVGID_12_)" width="24.559021" height="3.013977"/>
<linearGradient id="SVGID_13_" gradientUnits="userSpaceOnUse" x1="8768.016602" y1="441.153717" x2="8507.22168" y2="386.152283" gradientTransform="matrix(-1 0 0 1 9111.183594 -1.097931)">
	<stop  offset="0.0795" style="stop-color:#FFFFFF"/>
	<stop  offset="0.2979" style="stop-color:#CAD8EC"/>
	<stop  offset="0.7454" style="stop-color:#5582C1"/>
</linearGradient>
<path fill="url(#SVGID_13_)" d="M418.695007,424.987885l60.863983-10.10498
	c0.662994-0.052002,13.867004-1.221008,24.243011-6.843994c3.065002-1.661011,5.882996-3.710999,8.05899-6.235016l0.485931-1.102997
	h-1.767914c-1.564026,1.815002-3.508026,3.375-5.657043,4.71402c-10.333984,6.441986-25.390015,7.776978-25.572998,7.791992
	l-63.174011,10.332001L418.695007,424.987885z"/>
<linearGradient id="SVGID_14_" gradientUnits="userSpaceOnUse" x1="4606.165527" y1="4207.666504" x2="4709.057129" y2="4390.813477" gradientTransform="matrix(-0.027 0.9996 -0.9996 -0.027 5029.085449 -3983.144775)">
	<stop  offset="0.1709" style="stop-color:#EBBA31"/>
	<stop  offset="0.2236" style="stop-color:#E7B934"/>
	<stop  offset="0.2717" style="stop-color:#DCB53F"/>
	<stop  offset="0.3178" style="stop-color:#CAAE51"/>
	<stop  offset="0.3629" style="stop-color:#B0A46A"/>
	<stop  offset="0.4072" style="stop-color:#8E978A"/>
	<stop  offset="0.4502" style="stop-color:#6688B1"/>
	<stop  offset="0.4658" style="stop-color:#5582C1"/>
	<stop  offset="0.4678" style="stop-color:#5581C0"/>
	<stop  offset="0.6053" style="stop-color:#435C9C"/>
	<stop  offset="0.7326" style="stop-color:#364082"/>
	<stop  offset="0.8448" style="stop-color:#2F3073"/>
	<stop  offset="0.9301" style="stop-color:#2C2A6D"/>
</linearGradient>
<path fill="url(#SVGID_14_)" d="M497.506989,642.945862l109.639984-71.636047
	c4.587036-2.997009,5.888062-9.203003,2.890991-13.789978l-10.881958-16.655029
	c-2.99707-4.586975-9.203003-5.888-13.790039-2.890991L424.70401,642.945862H497.506989z"/>
<path fill="#EBBA31" d="M711.453003,602.41687L711.453003,602.41687c-19.794067,12.130981-47.674072,2.989014-61.956055-20.315002
	L533.546997,392.901886c-14.282104-23.303986-17.233032-51.175995,2.560913-63.306l0,0
	c22.535034-17.535004,53.259033,22.558014,60.822021,32.337006l124.545044,176.056976
	C735.756958,561.293823,731.246948,590.285828,711.453003,602.41687z"/>
<linearGradient id="SVGID_15_" gradientUnits="userSpaceOnUse" x1="-5510.800293" y1="560.546326" x2="-5145.354004" y2="560.546326" gradientTransform="matrix(1 0 0 1 5682.741211 -1.097931)">
	<stop  offset="0.0699" style="stop-color:#5384CB"/>
	<stop  offset="0.0719" style="stop-color:#5384CB"/>
	<stop  offset="0.3862" style="stop-color:#3D4CA6"/>
	<stop  offset="0.6567" style="stop-color:#2D248B"/>
	<stop  offset="0.8701" style="stop-color:#230B7A"/>
	<stop  offset="1" style="stop-color:#1F0274"/>
</linearGradient>
<polygon fill="url(#SVGID_15_)" points="369.825989,610.570862 334.811981,502.310883 171.940994,502.310883 212.031998,616.585876 
	256.509003,616.585876 371.772003,616.585876 448.195984,616.585876 448.195984,610.570862 "/>
</svg>
