<svg xmlns="http://www.w3.org/2000/svg" width="72" height="72" viewBox="0 0 72 72">
    <defs>
        <linearGradient id="a" x1="0%" y1="49.985%" y2="49.985%">
            <stop offset="0%" stop-color="#63C2FF"/>
            <stop offset="18.89%" stop-color="#6CB3FE"/>
            <stop offset="54.97%" stop-color="#838DFA"/>
            <stop offset="99.46%" stop-color="#A456F4"/>
        </linearGradient>
        <linearGradient id="b" x1="-17.89%" x2="96.337%" y1="9.02%" y2="77.938%">
            <stop offset="0%" stop-color="#63C2FF"/>
            <stop offset="18.89%" stop-color="#6CB3FE"/>
            <stop offset="54.97%" stop-color="#838DFA"/>
            <stop offset="99.46%" stop-color="#A456F4"/>
        </linearGradient>
    </defs>
    <g fill="none" fill-rule="nonzero">
        <path fill="url(#a)" d="M45 57h-7.5v-8.25h-9V57H21c-5.4 0-9.75 4.05-9.75 9h43.5c0-4.95-4.35-9-9.75-9z" transform="translate(3 3)"/>
        <path fill="url(#b)" d="M58.125 0H7.875C3.525 0 0 3.375 0 7.425V42.75c0 4.125 3.525 7.5 7.875 7.5h50.25c4.35 0 7.875-3.375 7.875-7.425v-35.4C66 3.375 62.475 0 58.125 0zm-42.3 34.5L6.45 25.125l9.375-9.375h7.425l-9.375 9.375L23.25 34.5h-7.425zm17.1 0H27.45l5.7-18.75h5.475l-5.7 18.75zm17.175 0h-7.425l9.375-9.375-9.375-9.375H50.1l9.375 9.375L50.1 34.5z" transform="translate(3 3)"/>
    </g>
</svg>
