<svg xmlns="http://www.w3.org/2000/svg" width="405" height="443" viewBox="0 0 405 443">
    <defs>
        <linearGradient id="a" x1="20.184%" x2="85.328%" y1="60.863%" y2="47.406%">
            <stop offset="21.038%" stop-color="#15DD69"/>
            <stop offset="29.473%" stop-color="#1FD178"/>
            <stop offset="45.587%" stop-color="#3AB29E"/>
            <stop offset="67.538%" stop-color="#6480DB"/>
            <stop offset="75.085%" stop-color="#746DF2"/>
            <stop offset="100%" stop-color="#B81DF5"/>
        </linearGradient>
        <linearGradient id="b" x1="104.058%" x2="-4.53%" y1="48.295%" y2="52.283%">
            <stop offset="0%" stop-color="#6E6EF4"/>
            <stop offset="0%" stop-color="#B81DF5"/>
            <stop offset="37.086%" stop-color="#746DF2"/>
            <stop offset="100%" stop-color="#15DD69"/>
        </linearGradient>
        <linearGradient id="c" x1="4.679%" x2="104.59%" y1="4.777%" y2="87.294%">
            <stop offset="0%" stop-color="#6E6EF4"/>
            <stop offset="0%" stop-color="#B81DF5"/>
            <stop offset="59.571%" stop-color="#746DF2"/>
            <stop offset="100%" stop-color="#15DD69"/>
        </linearGradient>
    </defs>
    <g fill="none" fill-rule="evenodd">
        <path fill="#000" fill-rule="nonzero" d="M326.913 4.856c-6.36-6.427-16.726-6.481-23.152-.122l-59.219 58.6a16.8 16.8 0 0 1 11.386-4.422h.09c6.435.034 12.201 3.645 15.05 9.424a.34.34 0 0 0 .422.171 4.848 4.848 0 0 1 5.121 1.143 4.835 4.835 0 0 1 1.407 3.446 4.873 4.873 0 0 1-4.861 4.837l-.198-.01a.341.341 0 0 0-.338.293 16.583 16.583 0 0 1-1.527 4.906l55.697-55.115c6.427-6.359 6.482-16.724.122-23.15z"/>
        <path fill="#000" fill-rule="nonzero" d="M255.928 59.252h.088c6.305.034 11.955 3.572 14.746 9.236a.681.681 0 0 0 .845.34 4.535 4.535 0 0 1 1.572-.279 4.489 4.489 0 0 1 3.19 1.341 4.493 4.493 0 0 1 1.308 3.204c-.014 2.48-2.041 4.498-4.545 4.498-.018 0-.035-.002-.052-.003a2.077 2.077 0 0 0-.095-.006h-.026a.681.681 0 0 0-.675.584c-1.166 8.063-8.196 14.144-16.352 14.144h-.09c-8.202-.043-15.206-6.2-16.292-14.319a.683.683 0 0 0-.641-.592 4.507 4.507 0 0 1-4.297-4.533c.013-2.48 2.04-4.497 4.545-4.497.425.002.855.067 1.273.192a.682.682 0 0 0 .802-.341c2.852-5.532 8.483-8.969 14.696-8.969m0-.682c-6.661 0-12.442 3.791-15.303 9.338a5.215 5.215 0 0 0-1.465-.22h-.028a5.204 5.204 0 0 0-5.202 5.176 5.198 5.198 0 0 0 4.944 5.217c1.12 8.381 8.27 14.866 16.965 14.912h.093c8.65 0 15.821-6.392 17.027-14.729.057.002.112.01.169.01h.028a5.204 5.204 0 0 0 .026-10.407h-.025c-.627 0-1.226.116-1.783.32-2.792-5.667-8.608-9.58-15.354-9.616l-.092-.001"/>
        <path fill="#FFF" fill-rule="nonzero" d="M342.203 172.235c6.7 6.629 6.757 17.434.128 24.133"/>
        <path stroke="#000" stroke-linecap="round" stroke-linejoin="round" d="M195.69 154.05l-.51-45.513"/>
        <path fill="#FFF" fill-rule="nonzero" d="M128.81 91.228l.652 60.801"/>
        <path stroke="#000" stroke-linecap="round" stroke-linejoin="round" d="M128.81 91.228l.12 126.816M195.259 108.537c-.193-36.564-29.99-66.05-66.554-65.857M162.27 107.502c-.37-18.117-15.211-32.644-33.395-32.547M162.27 107.502c-.37-18.117-15.211-32.644-33.395-32.547M128.875 74.954a8.052 8.052 0 0 0 .084 16.104"/>
        <path stroke="#000" stroke-linecap="round" stroke-linejoin="round" d="M128.846 58.85a8.052 8.052 0 0 0-8.009 8.095 8.052 8.052 0 0 0 8.093 8.01M128.761 42.747a8.052 8.052 0 0 0 .085 16.104M179.088 108.622c-.146-27.633-22.665-49.916-50.298-49.771"/>
        <path fill="#000" fill-rule="nonzero" d="M245.944 73.27l-.001 2.378a1.09 1.09 0 1 1-2.181-.002l.001-2.377a1.09 1.09 0 1 1 2.181.002zM262.482 73.27l-.002 2.378a1.09 1.09 0 1 1-2.181-.002l.002-2.377a1.09 1.09 0 1 1 2.181.002z"/>
        <path fill="#000" fill-rule="nonzero" d="M264.386 69.555a6.285 6.285 0 0 1 6.277 6.277 6.285 6.285 0 0 1-6.277 6.278 6.285 6.285 0 0 1-6.278-6.278 6.285 6.285 0 0 1 6.278-6.277zm0-.916a7.193 7.193 0 1 0 0 14.387 7.193 7.193 0 0 0 0-14.387zM247.79 69.555a6.285 6.285 0 0 1 6.277 6.277 6.285 6.285 0 0 1-6.277 6.278 6.285 6.285 0 0 1-6.278-6.278 6.285 6.285 0 0 1 6.278-6.277zm0-.916a7.193 7.193 0 1 0 0 14.387 7.193 7.193 0 0 0 0-14.387z"/>
        <path stroke="#000" stroke-linecap="round" stroke-width=".916" d="M257.309 75.832h-2.326"/>
        <path fill="url(#a)" fill-rule="nonzero" d="M183.949 165.246l159.067.406-46.811-53.218c-13.39-13.391-33.759-15.804-49.674-7.257a24.909 24.909 0 0 0-7.8 5.287l-54.782 54.782"/>
        <g stroke="#15DD69">
            <path d="M.751 4.326l16.211 16.212M16.962 4.326L.751 20.538"/>
        </g>
        <g stroke="#15DD69">
            <path d="M57.816 69.705h22.926M69.28 58.242v22.926"/>
        </g>
        <g stroke="#000">
            <path d="M60.034 8.341h20.708M60.034 17.362h20.708"/>
        </g>
        <path fill="url(#b)" fill-rule="nonzero" d="M193.429 10.188c-6.281-6.19-14.44-9.302-22.613-9.364l-.76.001-103.64.084c-1.552-.057-3.106 0-4.652.163C27.573 3.023.447 31.364.447 66.044h130.165l-.001-.112 38.275-.037c8.964.46 18.077-2.76 24.874-9.655 12.626-12.808 12.477-33.426-.331-46.052z" transform="translate(146 152)"/>
        <path stroke="#FFF" stroke-linecap="round" stroke-linejoin="round" d="M210.842 185.322c-17.859.27-32.253 14.822-32.253 32.745M212.033 168.752c-27.236 0-49.315 22.079-49.315 49.315"/>
        <path stroke="#000" stroke-linecap="round" stroke-linejoin="round" stroke-width="8" d="M47.616 218.067h197.662"/>
        <path stroke="#000" stroke-linecap="round" stroke-linejoin="round" stroke-width="1.5" d="M123.752 247.073l143.943 143.945"/>
        <path stroke="#000" stroke-linecap="round" stroke-linejoin="round" stroke-width="8" d="M169.15 438.172h130.46"/>
        <path stroke="#000" stroke-linecap="round" stroke-linejoin="round" stroke-width="1.5" d="M213.355 397.413c-21.082 0-38.173 17.09-38.173 38.172"/>
        <path d="M213.337 410.565L195.59 392.82"/>
        <path stroke="#000" stroke-linecap="round" stroke-linejoin="round" stroke-width="1.5" d="M213.337 410.565L195.59 392.82"/>
        <path d="M226.338 409.717l-23.823-23.823"/>
        <path stroke="#000" stroke-linecap="round" stroke-linejoin="round" stroke-width="1.5" d="M226.338 409.717l-23.823-23.823M272.464 397.413c-21.082 0-38.173 17.09-38.173 38.172"/>
        <path d="M272.446 410.565L254.7 392.82"/>
        <path stroke="#000" stroke-linecap="round" stroke-linejoin="round" stroke-width="1.5" d="M272.446 410.565L254.7 392.82"/>
        <path d="M285.447 409.717l-23.822-23.823"/>
        <path stroke="#000" stroke-linecap="round" stroke-linejoin="round" stroke-width="1.5" d="M285.447 409.717l-23.822-23.823"/>
        <path fill="url(#c)" fill-rule="nonzero" d="M395.628 383.066l-.534-.54-137.224-137.92h-91.81L347.93 427.37c5.965 6.708 14.656 10.938 24.339 10.938 17.984 0 32.564-14.58 32.564-32.564 0-8.82-3.511-16.814-9.205-22.678z"/>
    </g>
</svg>
