<svg xmlns="http://www.w3.org/2000/svg" width="330" height="454" viewBox="0 0 330 454">
    <defs>
        <linearGradient id="a" x1="-56.726%" x2="110.761%" y1="-95.328%" y2="76%">
            <stop offset="21.038%" stop-color="#15DD69"/>
            <stop offset="29.473%" stop-color="#1FD178"/>
            <stop offset="45.587%" stop-color="#3AB29E"/>
            <stop offset="67.538%" stop-color="#6480DB"/>
            <stop offset="75.085%" stop-color="#746DF2"/>
            <stop offset="100%" stop-color="#B81DF5"/>
        </linearGradient>
        <linearGradient id="b" x1="29.117%" x2="55.366%" y1="-27.127%" y2="90.351%">
            <stop offset="21.038%" stop-color="#15DD69"/>
            <stop offset="29.473%" stop-color="#1FD178"/>
            <stop offset="45.587%" stop-color="#3AB29E"/>
            <stop offset="67.538%" stop-color="#6480DB"/>
            <stop offset="75.085%" stop-color="#746DF2"/>
            <stop offset="100%" stop-color="#B81DF5"/>
        </linearGradient>
    </defs>
    <g fill="none" fill-rule="evenodd">
        <path fill="url(#a)" fill-rule="nonzero" d="M229.451 113.39l65.588 65.924 2.649-41.35c0-11.071-7.422-20.489-17.535-23.534a14.562 14.562 0 0 0-5.41-1.04h-45.292"/>
        <path stroke="#000" d="M211.998 98.946c-27.154-27.155-71.181-27.155-98.336 0M113.662 98.946c27.155-27.155 71.182-27.155 98.337 0l7.226 7.227"/>
        <path stroke="#000" stroke-linecap="round" stroke-linejoin="round" stroke-width="1.5" d="M113.662 98.946c27.155-27.155 71.182-27.155 98.337 0l7.226 7.227"/>
        <path stroke="#000" d="M125.713 110.914a8.456 8.456 0 0 1-11.959 0 8.455 8.455 0 0 1 0-11.96"/>
        <path stroke="#000" stroke-linecap="round" stroke-linejoin="round" stroke-width="1.5" d="M125.713 110.914a8.456 8.456 0 0 1-11.959 0 8.455 8.455 0 0 1 0-11.96"/>
        <path stroke="#000" d="M186.606 122.543c-13.66-13.251-35.47-13.133-48.975.372"/>
        <path stroke="#000" stroke-linecap="round" stroke-linejoin="round" d="M186.606 122.543c-13.66-13.251-35.47-13.133-48.975.372"/>
        <path stroke="#000" d="M186.606 122.543c-13.66-13.251-35.47-13.133-48.975.372"/>
        <path stroke="#000" stroke-linecap="round" stroke-linejoin="round" stroke-width="1.5" d="M186.606 122.543c-13.66-13.251-35.47-13.133-48.975.372"/>
        <path stroke="#000" d="M137.63 122.915a8.458 8.458 0 0 0 11.96 11.959"/>
        <path stroke="#000" stroke-linecap="round" stroke-linejoin="round" stroke-width="1.5" d="M137.63 122.915a8.458 8.458 0 0 0 11.96 11.959"/>
        <path stroke="#000" d="M125.713 110.914a8.456 8.456 0 0 0 0 11.96 8.456 8.456 0 0 0 11.96 0"/>
        <path stroke="#000" stroke-linecap="round" stroke-linejoin="round" stroke-width="1.5" d="M125.713 110.914a8.456 8.456 0 0 0 0 11.96 8.456 8.456 0 0 0 11.96 0"/>
        <path stroke="#000" d="M199.99 110.955h-.001c-20.522-20.522-53.795-20.522-74.317 0"/>
        <path stroke="#000" stroke-linecap="round" stroke-linejoin="round" stroke-width="1.5" d="M199.99 110.955h-.001c-20.522-20.522-53.795-20.522-74.317 0"/>
        <path fill="#000" fill-rule="nonzero" d="M236.987 92.322c-6.78-6.781-6.78-17.774 0-24.554L299.67 5.086c6.78-6.781 17.773-6.781 24.554 0 6.78 6.78 6.78 17.773 0 24.554L261.54 92.322c-6.78 6.78-17.773 6.78-24.554 0"/>
        <path fill="#FFF" fill-rule="nonzero" d="M249.338 98.593c-8.878 0-16.495-6.623-17.717-15.407a.362.362 0 0 0-.342-.311 5.143 5.143 0 0 1-4.927-5.145 5.162 5.162 0 0 1 5.157-5.157c.486 0 .975.07 1.453.211a.361.361 0 0 0 .424-.183c3.074-6.04 9.186-9.792 15.952-9.792 6.824 0 12.96 3.799 16.014 9.913a.36.36 0 0 0 .45.177 5.135 5.135 0 0 1 1.79-.326 5.163 5.163 0 0 1 5.157 5.157 5.163 5.163 0 0 1-5.158 5.157l-.18-.01a.361.361 0 0 0-.357.312c-1.222 8.782-8.838 15.404-17.716 15.404"/>
        <path fill="#000" fill-rule="nonzero" stroke="#000" stroke-width=".5" d="M249.338 63.17c6.686 0 12.699 3.723 15.69 9.713a.725.725 0 0 0 .9.355 4.783 4.783 0 0 1 1.663-.304 4.8 4.8 0 0 1 4.796 4.796 4.8 4.8 0 0 1-4.796 4.795l-.054-.003-.1-.006h-.025a.724.724 0 0 0-.716.624c-1.198 8.604-8.66 15.091-17.358 15.091-8.699 0-16.162-6.489-17.359-15.095a.724.724 0 0 0-.684-.623 4.78 4.78 0 0 1-4.581-4.783 4.8 4.8 0 0 1 4.795-4.796c.45 0 .905.067 1.35.197a.724.724 0 0 0 .849-.366c3.012-5.918 9-9.594 15.63-9.594m0-.724c-7.106 0-13.258 4.063-16.274 9.99a5.493 5.493 0 0 0-1.555-.226 5.514 5.514 0 1 0-.245 11.025c1.234 8.881 8.853 15.719 18.074 15.719 9.22 0 16.838-6.837 18.074-15.716.06.002.118.01.18.01a5.519 5.519 0 1 0 0-11.038c-.675 0-1.319.127-1.916.35-2.994-5.995-9.183-10.114-16.338-10.114"/>
        <path fill="#000" fill-rule="nonzero" d="M239.84 78.08l-.002 2.725a1.25 1.25 0 0 1-2.5-.003l.003-2.725a1.249 1.249 0 1 1 2.5.002M250.857 78.08l-.002 2.725a1.249 1.249 0 0 1-2.5-.003l.003-2.725a1.249 1.249 0 1 1 2.5.002"/>
        <path fill="url(#b)" fill-rule="nonzero" d="M219.45 235.999a34.487 34.487 0 0 0-4.636-5.763L107.78 123.204c-13.5-13.5-35.59-13.5-49.09 0s-13.5 35.59 0 49.09l85.318 85.319L10.125 391.497c-13.5 13.5-13.5 35.59 0 49.09s35.59 13.5 49.09 0L217.2 282.605c12.701-12.7 13.449-33.004 2.25-46.605z"/>
        <path d="M257.108 243.852c6.665-6.666 17.572-6.666 24.237 0l.317.317c6.665 6.665 6.665 17.572 0 24.236L151.108 398.96"/>
        <path stroke="#000" stroke-linecap="round" stroke-linejoin="round" stroke-width="1.5" d="M257.108 243.852c6.665-6.666 17.572-6.666 24.237 0l.317.317c6.665 6.665 6.665 17.572 0 24.236L151.108 398.96"/>
        <path stroke="#000" stroke-linecap="round" stroke-linejoin="round" stroke-width="8" d="M245.326 449.527H114.864"/>
        <path stroke="#000" stroke-linecap="round" stroke-linejoin="round" stroke-width="1.5" d="M201.12 408.767c21.082 0 38.173 17.09 38.173 38.173"/>
        <path d="M201.138 421.92l17.746-17.746"/>
        <path stroke="#000" stroke-linecap="round" stroke-linejoin="round" stroke-width="1.5" d="M201.138 421.92l17.746-17.746"/>
        <path d="M188.137 421.071l23.822-23.822"/>
        <path stroke="#000" stroke-linecap="round" stroke-linejoin="round" stroke-width="1.5" d="M188.137 421.071l23.822-23.822M142.01 408.767c21.083 0 38.174 17.09 38.174 38.173"/>
        <path d="M142.03 421.92l17.744-17.746"/>
        <path stroke="#000" stroke-linecap="round" stroke-linejoin="round" stroke-width="1.5" d="M142.03 421.92l17.744-17.746"/>
        <path d="M129.028 421.071l23.822-23.822"/>
        <path stroke="#000" stroke-linecap="round" stroke-linejoin="round" stroke-width="1.5" d="M129.028 421.071l23.822-23.822"/>
        <path stroke="#000" stroke-linecap="round" stroke-linejoin="round" stroke-width="3" d="M172.895 190.325L78.532 95.962V7.567"/>
    </g>
</svg>
