<svg xmlns="http://www.w3.org/2000/svg" width="72" height="72" viewBox="0 0 72 72">
    <defs>
        <linearGradient id="a" x1="7.317%" x2="85.808%" y1="7.34%" y2="85.83%">
            <stop offset="0%" stop-color="#63C2FF"/>
            <stop offset="18.89%" stop-color="#6CB3FE"/>
            <stop offset="54.97%" stop-color="#838DFA"/>
            <stop offset="99.46%" stop-color="#A456F4"/>
        </linearGradient>
    </defs>
    <path fill="url(#a)" fill-rule="nonzero" d="M60.75 27.75h-11.7c-5.925 0-10.8-4.875-10.8-10.8V5.25A5.218 5.218 0 0 0 33 0a5.218 5.218 0 0 0-5.25 5.25V17.7c0 5.55-4.5 10.05-9.975 10.05H5.25A5.218 5.218 0 0 0 0 33a5.218 5.218 0 0 0 5.25 5.25h13.2c5.175 0 9.3 4.125 9.3 9.225V60.75A5.218 5.218 0 0 0 33 66a5.218 5.218 0 0 0 5.25-5.25v-12.6a9.89 9.89 0 0 1 9.9-9.9h12.6A5.218 5.218 0 0 0 66 33a5.218 5.218 0 0 0-5.25-5.25zM13.125 18.6c2.7 0 4.8-2.175 4.8-4.8s-2.1-4.8-4.8-4.8c-2.7 0-4.8 2.175-4.8 4.8s2.1 4.8 4.8 4.8zM51.45 47.25c-2.7 0-4.8 2.175-4.8 4.8 0 2.7 2.175 4.8 4.8 4.8 2.7 0 4.8-2.175 4.8-4.8s-2.175-4.8-4.8-4.8zm-1.95-25.8c1.125 0 2.325-.45 3.15-1.35l8.475-8.475c1.725-1.725 1.725-4.575 0-6.375-1.725-1.725-4.575-1.725-6.375 0l-8.4 8.55c-1.725 1.725-1.725 4.575 0 6.375.825.825 2.025 1.275 3.15 1.275zM13.425 45.975l-8.475 8.55c-1.725 1.725-1.725 4.575 0 6.375.9.9 2.025 1.35 3.15 1.35s2.325-.45 3.15-1.35l8.475-8.475c1.725-1.725 1.725-4.575 0-6.375a4.415 4.415 0 0 0-6.3-.075z" transform="translate(3 3)"/>
</svg>
