<svg id="Layer_1" data-name="Layer 1" xmlns="http://www.w3.org/2000/svg" xmlns:xlink="http://www.w3.org/1999/xlink" width="896" height="600" viewBox="0 0 896 600"><defs><linearGradient id="linear-gradient" x1="731.10926" y1="137.3317" x2="568.79124" y2="235.11364" gradientTransform="matrix(0.74658, 0.70711, -0.74658, 0.70711, 312.89058, -340.57761)" gradientUnits="userSpaceOnUse"><stop offset="0" stop-color="#2e34e6"/><stop offset="0.25819" stop-color="#5c51ed"/><stop offset="0.54659" stop-color="#8b6ff4"/><stop offset="0.68935" stop-color="#7c8df8"/><stop offset="0.89293" stop-color="#6ab3fd"/><stop offset="1" stop-color="#63c2ff"/></linearGradient><linearGradient id="linear-gradient-2" x1="508.49188" y1="94.36853" x2="479.02162" y2="273.15479" gradientTransform="matrix(0.70711, 0.74906, -0.70711, 0.74906, 311.14572, -327.8975)" xlink:href="#linear-gradient"/><linearGradient id="linear-gradient-3" x1="244.94837" y1="81.73982" x2="556.84712" y2="145.09426" gradientTransform="matrix(1, 0, 0, 1, 0, 0)" xlink:href="#linear-gradient"/><linearGradient id="linear-gradient-4" x1="607.53848" y1="525.32005" x2="486.34415" y2="531.83587" gradientTransform="matrix(1, 0, 0, 1, 0, 0)" xlink:href="#linear-gradient"/><linearGradient id="linear-gradient-5" x1="744.10256" y1="276.52881" x2="415.70864" y2="576.25342" gradientTransform="matrix(0.65123, 0.70711, -0.65123, 0.70711, 489.64521, -288.77254)" gradientUnits="userSpaceOnUse"><stop offset="0.1158" stop-color="#2e34e6"/><stop offset="0.31929" stop-color="#5c51ed"/><stop offset="0.54659" stop-color="#8b6ff4"/><stop offset="0.68935" stop-color="#7c8df8"/><stop offset="0.89293" stop-color="#6ab3fd"/><stop offset="1" stop-color="#63c2ff"/></linearGradient><linearGradient id="linear-gradient-6" x1="643.53814" y1="279.30652" x2="843.14378" y2="203.82539" gradientUnits="userSpaceOnUse"><stop offset="0" stop-color="#63c2ff"/><stop offset="0.13283" stop-color="#6ab3fd"/><stop offset="0.38538" stop-color="#7c8df8"/><stop offset="0.56248" stop-color="#8b6ff4"/><stop offset="0.79333" stop-color="#5c51ed"/><stop offset="1" stop-color="#2e34e6"/></linearGradient><linearGradient id="linear-gradient-7" x1="-622.08835" y1="-1487.93085" x2="-526.47944" y2="-1436.34331" gradientTransform="matrix(0, 1, 1, 0, 2342.57446, 1114.80839)" gradientUnits="userSpaceOnUse"><stop offset="0" stop-color="#63c2ff"/><stop offset="0.10707" stop-color="#6ab3fd"/><stop offset="0.31065" stop-color="#7c8df8"/><stop offset="0.45341" stop-color="#8b6ff4"/><stop offset="0.74181" stop-color="#5c51ed"/><stop offset="1" stop-color="#2e34e6"/></linearGradient><linearGradient id="linear-gradient-8" x1="741.3461" y1="-241.50348" x2="741.12891" y2="-122.91549" gradientTransform="translate(1605.12683 377.36076) rotate(180)" xlink:href="#linear-gradient"/><linearGradient id="linear-gradient-9" x1="-626.08438" y1="-1637.41309" x2="-530.47547" y2="-1585.82555" gradientTransform="matrix(0, 1, 1, 0, 2449.57384, 1120.45064)" xlink:href="#linear-gradient-7"/><linearGradient id="linear-gradient-10" x1="891.68051" y1="-236.89022" x2="891.46332" y2="-118.30222" gradientTransform="translate(1712.1262 383.00301) rotate(180)" xlink:href="#linear-gradient"/><linearGradient id="linear-gradient-11" x1="593.10351" y1="59.97213" x2="541.52465" y2="30.98256" gradientTransform="matrix(1, 0, 0, -1, 89.65328, 74.54759)" xlink:href="#linear-gradient"/><linearGradient id="linear-gradient-12" x1="604.79234" y1="57.22527" x2="553.21348" y2="28.23569" gradientTransform="matrix(1, 0, 0, -1, 56.50106, 74.54759)" xlink:href="#linear-gradient"/><linearGradient id="linear-gradient-13" x1="620.00054" y1="56.45644" x2="568.42168" y2="27.46686" gradientTransform="matrix(1, 0, 0, -1, 23.34884, 74.54759)" xlink:href="#linear-gradient"/><linearGradient id="linear-gradient-14" x1="646.87623" y1="83.50133" x2="569.61921" y2="40.07951" gradientTransform="matrix(1, 0, 0, -1, -9.80338, 113.61386)" xlink:href="#linear-gradient"/><linearGradient id="linear-gradient-15" x1="901.17961" y1="154.21395" x2="689.88384" y2="57.62819" gradientTransform="matrix(0.663, 0.70711, -0.663, 0.70711, 335.52346, -528.48329)" gradientUnits="userSpaceOnUse"><stop offset="0" stop-color="#2e34e6"/><stop offset="0.25819" stop-color="#5c51ed"/><stop offset="0.54659" stop-color="#8b6ff4"/><stop offset="0.64699" stop-color="#7c8df8"/><stop offset="0.79016" stop-color="#6ab3fd"/><stop offset="0.86546" stop-color="#63c2ff"/></linearGradient><linearGradient id="linear-gradient-16" x1="440.37657" y1="595.99438" x2="843.0187" y2="273.48976" gradientTransform="matrix(0.63809, 0.70711, -0.6381, 0.70711, 520.65447, -322.3237)" xlink:href="#linear-gradient"/><linearGradient id="linear-gradient-17" x1="484.93019" y1="524.93077" x2="978.78641" y2="524.93077" gradientUnits="userSpaceOnUse"><stop offset="0" stop-color="#2e34e6"/><stop offset="0.25819" stop-color="#5c51ed"/><stop offset="0.54659" stop-color="#8b6ff4"/><stop offset="0.67903" stop-color="#8183f7"/><stop offset="0.94979" stop-color="#68b8fe"/><stop offset="1" stop-color="#63c2ff"/></linearGradient><linearGradient id="linear-gradient-18" x1="817.85737" y1="-99.64897" x2="759.21495" y2="56.7308" gradientTransform="matrix(1, 0, 0, 1, 0, 0)" xlink:href="#linear-gradient"/><linearGradient id="linear-gradient-19" x1="184.03387" y1="398.296" x2="-87.06649" y2="540.1803" gradientTransform="matrix(1, 0, 0, 1, 0, 0)" xlink:href="#linear-gradient-7"/></defs><title>YT_teams</title><circle cx="221.85809" cy="458.94434" r="138.68742" fill="#63c2ff" opacity="0"/><circle cx="221.94524" cy="459.02707" r="138.5885" fill="#63c2ff" opacity="0.00498"/><circle cx="222.03238" cy="459.1098" r="138.48958" fill="#63c2ff" opacity="0.00995"/><circle cx="222.11953" cy="459.19253" r="138.39066" fill="#63c2ff" opacity="0.01493"/><circle cx="222.20668" cy="459.27526" r="138.29174" fill="#63c2ff" opacity="0.0199"/><circle cx="222.29382" cy="459.35798" r="138.19282" fill="#63c2ff" opacity="0.02488"/><circle cx="222.38097" cy="459.44071" r="138.0939" fill="#63c2ff" opacity="0.02985"/><circle cx="222.46811" cy="459.52344" r="137.99498" fill="#63c2ff" opacity="0.03483"/><circle cx="222.55526" cy="459.60617" r="137.89607" fill="#63c2ff" opacity="0.0398"/><circle cx="222.64241" cy="459.6889" r="137.79715" fill="#63c2ff" opacity="0.04478"/><circle cx="222.72955" cy="459.77163" r="137.69823" fill="#63c2ff" opacity="0.04975"/><circle cx="222.8167" cy="459.85435" r="137.59931" fill="#63c2ff" opacity="0.05473"/><circle cx="222.90384" cy="459.93708" r="137.50039" fill="#63c2ff" opacity="0.0597"/><circle cx="222.99099" cy="460.01981" r="137.40147" fill="#63c2ff" opacity="0.06468"/><circle cx="223.07814" cy="460.10254" r="137.30255" fill="#63c2ff" opacity="0.06965"/><circle cx="223.16528" cy="460.18527" r="137.20363" fill="#63c2ff" opacity="0.07463"/><circle cx="223.25243" cy="460.26799" r="137.10471" fill="#63c2ff" opacity="0.0796"/><circle cx="223.33958" cy="460.35072" r="137.00579" fill="#63c2ff" opacity="0.08458"/><circle cx="223.42672" cy="460.43345" r="136.90687" fill="#63c2ff" opacity="0.08955"/><circle cx="223.51387" cy="460.51618" r="136.80796" fill="#63c2ff" opacity="0.09453"/><circle cx="223.60101" cy="460.59891" r="136.70904" fill="#63c2ff" opacity="0.0995"/><circle cx="223.68816" cy="460.68164" r="136.61012" fill="#63c2ff" opacity="0.10448"/><circle cx="223.77531" cy="460.76436" r="136.5112" fill="#63c2ff" opacity="0.10945"/><circle cx="223.86245" cy="460.84709" r="136.41228" fill="#63c2ff" opacity="0.11443"/><circle cx="223.9496" cy="460.92982" r="136.31336" fill="#63c2ff" opacity="0.1194"/><circle cx="224.03674" cy="461.01255" r="136.21444" fill="#63c2ff" opacity="0.12438"/><circle cx="224.12389" cy="461.09528" r="136.11552" fill="#63c2ff" opacity="0.12935"/><circle cx="224.21104" cy="461.178" r="136.0166" fill="#63c2ff" opacity="0.13433"/><circle cx="224.29818" cy="461.26073" r="135.91768" fill="#63c2ff" opacity="0.1393"/><circle cx="224.38533" cy="461.34346" r="135.81876" fill="#63c2ff" opacity="0.14428"/><circle cx="224.47248" cy="461.42619" r="135.71985" fill="#63c2ff" opacity="0.14925"/><circle cx="224.55962" cy="461.50892" r="135.62093" fill="#63c2ff" opacity="0.15423"/><circle cx="224.64677" cy="461.59164" r="135.52201" fill="#63c2ff" opacity="0.1592"/><circle cx="224.73391" cy="461.67437" r="135.42309" fill="#63c2ff" opacity="0.16418"/><circle cx="224.82106" cy="461.7571" r="135.32417" fill="#63c2ff" opacity="0.16915"/><circle cx="224.90821" cy="461.83983" r="135.22525" fill="#63c2ff" opacity="0.17413"/><circle cx="224.99535" cy="461.92256" r="135.12633" fill="#63c2ff" opacity="0.1791"/><circle cx="225.0825" cy="462.00529" r="135.02741" fill="#63c2ff" opacity="0.18408"/><circle cx="225.16964" cy="462.08801" r="134.92849" fill="#63c2ff" opacity="0.18905"/><circle cx="225.25679" cy="462.17074" r="134.82957" fill="#63c2ff" opacity="0.19403"/><circle cx="225.34394" cy="462.25347" r="134.73065" fill="#63c2ff" opacity="0.199"/><circle cx="225.43108" cy="462.3362" r="134.63173" fill="#63c2ff" opacity="0.20398"/><circle cx="225.51823" cy="462.41893" r="134.53282" fill="#63c2ff" opacity="0.20896"/><circle cx="225.60538" cy="462.50165" r="134.4339" fill="#63c2ff" opacity="0.21393"/><circle cx="225.69252" cy="462.58438" r="134.33498" fill="#63c2ff" opacity="0.21891"/><circle cx="225.77967" cy="462.66711" r="134.23606" fill="#63c2ff" opacity="0.22388"/><circle cx="225.86681" cy="462.74984" r="134.13714" fill="#63c2ff" opacity="0.22886"/><circle cx="225.95396" cy="462.83257" r="134.03822" fill="#63c2ff" opacity="0.23383"/><circle cx="226.04111" cy="462.9153" r="133.9393" fill="#63c2ff" opacity="0.23881"/><circle cx="226.12825" cy="462.99802" r="133.84038" fill="#63c2ff" opacity="0.24378"/><circle cx="226.2154" cy="463.08075" r="133.74146" fill="#63c2ff" opacity="0.24876"/><circle cx="226.30254" cy="463.16348" r="133.64254" fill="#63c2ff" opacity="0.25373"/><circle cx="226.38969" cy="463.24621" r="133.54362" fill="#63c2ff" opacity="0.25871"/><circle cx="226.47684" cy="463.32894" r="133.44471" fill="#63c2ff" opacity="0.26368"/><circle cx="226.56398" cy="463.41166" r="133.34579" fill="#63c2ff" opacity="0.26866"/><circle cx="226.65113" cy="463.49439" r="133.24687" fill="#63c2ff" opacity="0.27363"/><circle cx="226.73828" cy="463.57712" r="133.14795" fill="#63c2ff" opacity="0.27861"/><circle cx="226.82542" cy="463.65985" r="133.04903" fill="#63c2ff" opacity="0.28358"/><circle cx="226.91257" cy="463.74258" r="132.95011" fill="#63c2ff" opacity="0.28856"/><circle cx="226.99971" cy="463.8253" r="132.85119" fill="#63c2ff" opacity="0.29353"/><circle cx="227.08686" cy="463.90803" r="132.75227" fill="#63c2ff" opacity="0.29851"/><circle cx="227.17401" cy="463.99076" r="132.65335" fill="#63c2ff" opacity="0.30348"/><circle cx="227.26115" cy="464.07349" r="132.55443" fill="#63c2ff" opacity="0.30846"/><circle cx="227.3483" cy="464.15622" r="132.45551" fill="#63c2ff" opacity="0.31343"/><circle cx="227.43544" cy="464.23895" r="132.3566" fill="#63c2ff" opacity="0.31841"/><circle cx="227.52259" cy="464.32167" r="132.25768" fill="#63c2ff" opacity="0.32338"/><circle cx="227.60974" cy="464.4044" r="132.15876" fill="#63c2ff" opacity="0.32836"/><circle cx="227.69688" cy="464.48713" r="132.05984" fill="#63c2ff" opacity="0.33333"/><circle cx="227.78403" cy="464.56986" r="131.96092" fill="#63c2ff" opacity="0.33831"/><circle cx="227.87118" cy="464.65259" r="131.862" fill="#63c2ff" opacity="0.34328"/><circle cx="227.95832" cy="464.73531" r="131.76308" fill="#63c2ff" opacity="0.34826"/><circle cx="228.04547" cy="464.81804" r="131.66416" fill="#63c2ff" opacity="0.35323"/><circle cx="228.13261" cy="464.90077" r="131.56524" fill="#63c2ff" opacity="0.35821"/><circle cx="228.21976" cy="464.9835" r="131.46632" fill="#63c2ff" opacity="0.36318"/><circle cx="228.30691" cy="465.06623" r="131.3674" fill="#63c2ff" opacity="0.36816"/><circle cx="228.39405" cy="465.14895" r="131.26848" fill="#63c2ff" opacity="0.37313"/><circle cx="228.4812" cy="465.23168" r="131.16957" fill="#63c2ff" opacity="0.37811"/><circle cx="228.56834" cy="465.31441" r="131.07065" fill="#63c2ff" opacity="0.38308"/><circle cx="228.65549" cy="465.39714" r="130.97173" fill="#63c2ff" opacity="0.38806"/><circle cx="228.74264" cy="465.47987" r="130.87281" fill="#63c2ff" opacity="0.39303"/><circle cx="228.82978" cy="465.5626" r="130.77389" fill="#63c2ff" opacity="0.39801"/><circle cx="228.91693" cy="465.64532" r="130.67497" fill="#63c2ff" opacity="0.40299"/><circle cx="229.00408" cy="465.72805" r="130.57605" fill="#63c2ff" opacity="0.40796"/><circle cx="229.09122" cy="465.81078" r="130.47713" fill="#63c2ff" opacity="0.41294"/><circle cx="229.17837" cy="465.89351" r="130.37821" fill="#63c2ff" opacity="0.41791"/><circle cx="229.26551" cy="465.97624" r="130.27929" fill="#63c2ff" opacity="0.42289"/><circle cx="229.35266" cy="466.05896" r="130.18037" fill="#63c2ff" opacity="0.42786"/><circle cx="229.43981" cy="466.14169" r="130.08146" fill="#63c2ff" opacity="0.43284"/><circle cx="229.52695" cy="466.22442" r="129.98254" fill="#63c2ff" opacity="0.43781"/><circle cx="229.6141" cy="466.30715" r="129.88362" fill="#63c2ff" opacity="0.44279"/><circle cx="229.70124" cy="466.38988" r="129.7847" fill="#63c2ff" opacity="0.44776"/><circle cx="229.78839" cy="466.47261" r="129.68578" fill="#63c2ff" opacity="0.45274"/><circle cx="229.87554" cy="466.55533" r="129.58686" fill="#63c2ff" opacity="0.45771"/><circle cx="229.96268" cy="466.63806" r="129.48794" fill="#63c2ff" opacity="0.46269"/><circle cx="230.04983" cy="466.72079" r="129.38902" fill="#63c2ff" opacity="0.46766"/><circle cx="230.13698" cy="466.80352" r="129.2901" fill="#63c2ff" opacity="0.47264"/><circle cx="230.22412" cy="466.88625" r="129.19118" fill="#63c2ff" opacity="0.47761"/><circle cx="230.31127" cy="466.96897" r="129.09226" fill="#63c2ff" opacity="0.48259"/><circle cx="230.39841" cy="467.0517" r="128.99335" fill="#63c2ff" opacity="0.48756"/><circle cx="230.48556" cy="467.13443" r="128.89443" fill="#63c2ff" opacity="0.49254"/><circle cx="230.57271" cy="467.21716" r="128.79551" fill="#63c2ff" opacity="0.49751"/><circle cx="230.65985" cy="467.29989" r="128.69659" fill="#63c2ff" opacity="0.50249"/><circle cx="230.747" cy="467.38261" r="128.59767" fill="#63c2ff" opacity="0.50746"/><circle cx="230.83414" cy="467.46534" r="128.49875" fill="#63c2ff" opacity="0.51244"/><circle cx="230.92129" cy="467.54807" r="128.39983" fill="#63c2ff" opacity="0.51741"/><circle cx="231.00844" cy="467.6308" r="128.30091" fill="#63c2ff" opacity="0.52239"/><circle cx="231.09558" cy="467.71353" r="128.20199" fill="#63c2ff" opacity="0.52736"/><circle cx="231.18273" cy="467.79626" r="128.10307" fill="#63c2ff" opacity="0.53234"/><circle cx="231.26988" cy="467.87898" r="128.00415" fill="#63c2ff" opacity="0.53731"/><circle cx="231.35702" cy="467.96171" r="127.90524" fill="#63c2ff" opacity="0.54229"/><circle cx="231.44417" cy="468.04444" r="127.80632" fill="#63c2ff" opacity="0.54726"/><circle cx="231.53131" cy="468.12717" r="127.7074" fill="#63c2ff" opacity="0.55224"/><circle cx="231.61846" cy="468.2099" r="127.60848" fill="#63c2ff" opacity="0.55721"/><circle cx="231.70561" cy="468.29262" r="127.50956" fill="#63c2ff" opacity="0.56219"/><circle cx="231.79275" cy="468.37535" r="127.41064" fill="#63c2ff" opacity="0.56716"/><circle cx="231.8799" cy="468.45808" r="127.31172" fill="#63c2ff" opacity="0.57214"/><circle cx="231.96704" cy="468.54081" r="127.2128" fill="#63c2ff" opacity="0.57711"/><circle cx="232.05419" cy="468.62354" r="127.11388" fill="#63c2ff" opacity="0.58209"/><circle cx="232.14134" cy="468.70627" r="127.01496" fill="#63c2ff" opacity="0.58706"/><circle cx="232.22848" cy="468.78899" r="126.91604" fill="#63c2ff" opacity="0.59204"/><circle cx="232.31563" cy="468.87172" r="126.81712" fill="#63c2ff" opacity="0.59701"/><circle cx="232.40278" cy="468.95445" r="126.71821" fill="#63c2ff" opacity="0.60199"/><circle cx="232.48992" cy="469.03718" r="126.61929" fill="#63c2ff" opacity="0.60697"/><circle cx="232.57707" cy="469.11991" r="126.52037" fill="#63c2ff" opacity="0.61194"/><circle cx="232.66421" cy="469.20263" r="126.42145" fill="#63c2ff" opacity="0.61692"/><circle cx="232.75136" cy="469.28536" r="126.32253" fill="#63c2ff" opacity="0.62189"/><circle cx="232.83851" cy="469.36809" r="126.22361" fill="#63c2ff" opacity="0.62687"/><circle cx="232.92565" cy="469.45082" r="126.12469" fill="#63c2ff" opacity="0.63184"/><circle cx="233.0128" cy="469.53355" r="126.02577" fill="#63c2ff" opacity="0.63682"/><circle cx="233.09994" cy="469.61627" r="125.92685" fill="#63c2ff" opacity="0.64179"/><circle cx="233.18709" cy="469.699" r="125.82793" fill="#63c2ff" opacity="0.64677"/><circle cx="233.27424" cy="469.78173" r="125.72901" fill="#63c2ff" opacity="0.65174"/><circle cx="233.36138" cy="469.86446" r="125.6301" fill="#63c2ff" opacity="0.65672"/><circle cx="233.44853" cy="469.94719" r="125.53118" fill="#63c2ff" opacity="0.66169"/><circle cx="233.53568" cy="470.02992" r="125.43226" fill="#63c2ff" opacity="0.66667"/><circle cx="233.62282" cy="470.11264" r="125.33334" fill="#63c2ff" opacity="0.67164"/><circle cx="233.70997" cy="470.19537" r="125.23442" fill="#63c2ff" opacity="0.67662"/><circle cx="233.79711" cy="470.2781" r="125.1355" fill="#63c2ff" opacity="0.68159"/><circle cx="233.88426" cy="470.36083" r="125.03658" fill="#63c2ff" opacity="0.68657"/><circle cx="233.97141" cy="470.44356" r="124.93766" fill="#63c2ff" opacity="0.69154"/><circle cx="234.05855" cy="470.52628" r="124.83874" fill="#63c2ff" opacity="0.69652"/><circle cx="234.1457" cy="470.60901" r="124.73982" fill="#63c2ff" opacity="0.70149"/><circle cx="234.23284" cy="470.69174" r="124.6409" fill="#63c2ff" opacity="0.70647"/><circle cx="234.31999" cy="470.77447" r="124.54199" fill="#63c2ff" opacity="0.71144"/><circle cx="234.40714" cy="470.8572" r="124.44307" fill="#63c2ff" opacity="0.71642"/><circle cx="234.49428" cy="470.93993" r="124.34415" fill="#63c2ff" opacity="0.72139"/><circle cx="234.58143" cy="471.02265" r="124.24523" fill="#63c2ff" opacity="0.72637"/><circle cx="234.66858" cy="471.10538" r="124.14631" fill="#63c2ff" opacity="0.73134"/><circle cx="234.75572" cy="471.18811" r="124.04739" fill="#63c2ff" opacity="0.73632"/><circle cx="234.84287" cy="471.27084" r="123.94847" fill="#63c2ff" opacity="0.74129"/><circle cx="234.93001" cy="471.35357" r="123.84955" fill="#63c2ff" opacity="0.74627"/><circle cx="235.01716" cy="471.43629" r="123.75063" fill="#63c2ff" opacity="0.75124"/><circle cx="235.10431" cy="471.51902" r="123.65171" fill="#63c2ff" opacity="0.75622"/><circle cx="235.19145" cy="471.60175" r="123.55279" fill="#63c2ff" opacity="0.76119"/><circle cx="235.2786" cy="471.68448" r="123.45387" fill="#63c2ff" opacity="0.76617"/><circle cx="235.36574" cy="471.76721" r="123.35496" fill="#63c2ff" opacity="0.77114"/><circle cx="235.45289" cy="471.84993" r="123.25604" fill="#63c2ff" opacity="0.77612"/><circle cx="235.54004" cy="471.93266" r="123.15712" fill="#63c2ff" opacity="0.78109"/><circle cx="235.62718" cy="472.01539" r="123.0582" fill="#63c2ff" opacity="0.78607"/><circle cx="235.71433" cy="472.09812" r="122.95928" fill="#63c2ff" opacity="0.79104"/><circle cx="235.80148" cy="472.18085" r="122.86036" fill="#63c2ff" opacity="0.79602"/><circle cx="235.88862" cy="472.26358" r="122.76144" fill="#63c2ff" opacity="0.801"/><circle cx="235.97577" cy="472.3463" r="122.66252" fill="#63c2ff" opacity="0.80597"/><circle cx="236.06291" cy="472.42903" r="122.5636" fill="#63c2ff" opacity="0.81095"/><circle cx="236.15006" cy="472.51176" r="122.46468" fill="#63c2ff" opacity="0.81592"/><circle cx="236.23721" cy="472.59449" r="122.36576" fill="#63c2ff" opacity="0.8209"/><circle cx="236.32435" cy="472.67722" r="122.26685" fill="#63c2ff" opacity="0.82587"/><circle cx="236.4115" cy="472.75994" r="122.16793" fill="#63c2ff" opacity="0.83085"/><circle cx="236.49864" cy="472.84267" r="122.06901" fill="#63c2ff" opacity="0.83582"/><circle cx="236.58579" cy="472.9254" r="121.97009" fill="#63c2ff" opacity="0.8408"/><circle cx="236.67294" cy="473.00813" r="121.87117" fill="#63c2ff" opacity="0.84577"/><circle cx="236.76008" cy="473.09086" r="121.77225" fill="#63c2ff" opacity="0.85075"/><circle cx="236.84723" cy="473.17358" r="121.67333" fill="#63c2ff" opacity="0.85572"/><circle cx="236.93438" cy="473.25631" r="121.57441" fill="#63c2ff" opacity="0.8607"/><circle cx="237.02152" cy="473.33904" r="121.47549" fill="#63c2ff" opacity="0.86567"/><circle cx="237.10867" cy="473.42177" r="121.37657" fill="#63c2ff" opacity="0.87065"/><circle cx="237.19581" cy="473.5045" r="121.27765" fill="#63c2ff" opacity="0.87562"/><circle cx="237.28296" cy="473.58723" r="121.17874" fill="#63c2ff" opacity="0.8806"/><circle cx="237.37011" cy="473.66995" r="121.07982" fill="#63c2ff" opacity="0.88557"/><circle cx="237.45725" cy="473.75268" r="120.9809" fill="#63c2ff" opacity="0.89055"/><circle cx="237.5444" cy="473.83541" r="120.88198" fill="#63c2ff" opacity="0.89552"/><circle cx="237.63154" cy="473.91814" r="120.78306" fill="#63c2ff" opacity="0.9005"/><circle cx="237.71869" cy="474.00087" r="120.68414" fill="#63c2ff" opacity="0.90547"/><circle cx="237.80584" cy="474.08359" r="120.58522" fill="#63c2ff" opacity="0.91045"/><circle cx="237.89298" cy="474.16632" r="120.4863" fill="#63c2ff" opacity="0.91542"/><circle cx="237.98013" cy="474.24905" r="120.38738" fill="#63c2ff" opacity="0.9204"/><circle cx="238.06728" cy="474.33178" r="120.28846" fill="#63c2ff" opacity="0.92537"/><circle cx="238.15442" cy="474.41451" r="120.18954" fill="#63c2ff" opacity="0.93035"/><circle cx="238.24157" cy="474.49724" r="120.09062" fill="#63c2ff" opacity="0.93532"/><circle cx="238.32871" cy="474.57996" r="119.99171" fill="#63c2ff" opacity="0.9403"/><circle cx="238.41586" cy="474.66269" r="119.89279" fill="#63c2ff" opacity="0.94527"/><circle cx="238.50301" cy="474.74542" r="119.79387" fill="#63c2ff" opacity="0.95025"/><circle cx="238.59015" cy="474.82815" r="119.69495" fill="#63c2ff" opacity="0.95522"/><circle cx="238.6773" cy="474.91088" r="119.59603" fill="#63c2ff" opacity="0.9602"/><circle cx="238.76444" cy="474.9936" r="119.49711" fill="#63c2ff" opacity="0.96517"/><circle cx="238.85159" cy="475.07633" r="119.39819" fill="#63c2ff" opacity="0.97015"/><circle cx="238.93874" cy="475.15906" r="119.29927" fill="#63c2ff" opacity="0.97512"/><circle cx="239.02588" cy="475.24179" r="119.20035" fill="#63c2ff" opacity="0.9801"/><circle cx="239.11303" cy="475.32452" r="119.10143" fill="#63c2ff" opacity="0.98507"/><circle cx="239.20018" cy="475.40724" r="119.00251" fill="#63c2ff" opacity="0.99005"/><circle cx="239.28732" cy="475.48997" r="118.9036" fill="#63c2ff" opacity="0.99502"/><circle cx="239.37447" cy="475.5727" r="118.80468" fill="#63c2ff"/><path d="M383.90645,455.35247a1,1,0,0,1-.7168-1.69726l37.58691-38.59278a31.47818,31.47818,0,0,0,1.98926-41.72461l-36.83887-45.71191a33.56869,33.56869,0,0,1-7.4082-20.998V264.621a31.49694,31.49694,0,0,0-31.46191-31.46192H296.301a33.49954,33.49954,0,0,1-33.46192-33.46191V43.33587A31.49693,31.49693,0,0,0,231.37715,11.874H10.31953a1,1,0,0,1,0-2H231.37715a33.49954,33.49954,0,0,1,33.46191,33.46191V199.6972A31.49756,31.49756,0,0,0,296.301,231.15911h50.75586A33.49955,33.49955,0,0,1,380.51875,264.621v42.00683a31.56238,31.56238,0,0,0,6.96484,19.74219L424.32246,372.082a33.47918,33.47918,0,0,1-2.11328,44.376l-37.58594,38.5918A.996.996,0,0,1,383.90645,455.35247Z" fill="#63c2ff"/><path d="M511.44191,207.52117H643.65544a24,24,0,0,1,24,24v.00005a24,24,0,0,1-24,24H511.44192a24,24,0,0,1-24-24v0a24,24,0,0,1,24-24Z" transform="translate(5.4499 476.19956) rotate(-45)" fill="url(#linear-gradient)"/><path d="M490.4506,107.9676h.00005a24,24,0,0,1,24,24V287.83806a24,24,0,0,1-24,24h-.00005a24,24,0,0,1-24-24V131.96758a24,24,0,0,1,24-24Z" transform="translate(-39.24348 273.34701) rotate(-30.00001)" fill="url(#linear-gradient-2)"/><rect x="324.25594" y="50.55818" width="210.74148" height="137.38885" fill="url(#linear-gradient-3)"/><rect x="458.10904" y="500.93077" width="313.34004" height="48" rx="23.99998" fill="url(#linear-gradient-4)"/><path d="M439.48132,398.47764H727.28273a24,24,0,0,1,24,24v0a24,24,0,0,1-24,24H439.48133a24,24,0,0,1-24-24v-.00005a24,24,0,0,1,24-24Z" transform="translate(-127.86818 536.25413) rotate(-44.99999)" fill="url(#linear-gradient-5)"/><path d="M628.60311,158.901h87.64032a30.18918,30.18918,0,0,1,30.18917,30.18918V347.71187A30.18917,30.18917,0,0,1,716.24343,377.901h0a30.18919,30.18919,0,0,1-26.42417-15.58952L602.17894,203.68987A30.18918,30.18918,0,0,1,628.60311,158.901Z" fill="url(#linear-gradient-6)"/><path d="M656.476,82.412a23.4126,23.4126,0,0,1,21.05542,13.02173l.80224,1.60523,1.68237-.624A5.70724,5.70724,0,1,1,682,107.4699h-.00317c-.063-.00439-.12573-.0083-.18921-.01025l-1.792-.05225-.24732,1.77564A23.521,23.521,0,1,1,656.476,82.412m0-2a25.50123,25.50123,0,1,0,25.27319,29.04688c.084.00244.16626.01269.25122.01269a7.70974,7.70974,0,1,0-2.67993-14.93188A25.52169,25.52169,0,0,0,656.476,80.412Z"/><path d="M656.476,80.41193a25.5218,25.5218,0,0,1,22.84455,14.1278,7.7079,7.7079,0,1,1,2.68,14.93172c-.08483,0-.16706-.01-.25111-.01271A25.51794,25.51794,0,0,1,656.476,131.41428h51.85374A23.61728,23.61728,0,0,0,731.947,107.797v-27.385Z"/><path d="M652.93587,102.5806l.00318,3.99811a1.83331,1.83331,0,0,0,1.83559,1.831h0a1.83331,1.83331,0,0,0,1.83267-1.83394l-.00318-3.99811a1.8333,1.8333,0,0,0-1.83558-1.831h0A1.8333,1.8333,0,0,0,652.93587,102.5806Z"/><path d="M636.771,102.5806l.00318,3.99811a1.83331,1.83331,0,0,0,1.83559,1.831h0a1.83331,1.83331,0,0,0,1.83267-1.83394l-.00318-3.99811a1.8333,1.8333,0,0,0-1.83558-1.831h0A1.8333,1.8333,0,0,0,636.771,102.5806Z"/><path d="M638.34486,87.96792a25.5318,25.5318,0,0,1,36.26237,0Z"/><rect x="875.91467" y="501.07102" width="19.32078" height="97.95061" fill="url(#linear-gradient-7)"/><path d="M875.91467,590.53038h0V500.93077h-24V566.5305A23.99992,23.99992,0,0,0,875.91467,590.53038Z" fill="url(#linear-gradient-8)"/><rect x="832.58139" y="501.14114" width="19.32078" height="97.95061" fill="url(#linear-gradient-9)"/><path d="M832.58139,590.6005h0V501.0009h-24v65.59973A23.99991,23.99991,0,0,0,832.58139,590.6005Z" fill="url(#linear-gradient-10)"/><path d="M639.30593,9.719h0a8.288,8.288,0,0,1,8.288,8.288V64.82857a0,0,0,0,1,0,0H631.01788a0,0,0,0,1,0,0V18.00706a8.288,8.288,0,0,1,8.288-8.288Z" transform="translate(1278.61188 74.54759) rotate(180)" fill="url(#linear-gradient-11)"/><path d="M622.72982,9.719h0a8.288,8.288,0,0,1,8.288,8.288V64.82857a0,0,0,0,1,0,0H614.44177a0,0,0,0,1,0,0V18.00706A8.288,8.288,0,0,1,622.72982,9.719Z" transform="translate(1245.45966 74.54759) rotate(180)" fill="url(#linear-gradient-12)"/><path d="M606.15371,9.719h0a8.288,8.288,0,0,1,8.288,8.288V64.82857a0,0,0,0,1,0,0H597.86566a0,0,0,0,1,0,0V18.00706a8.288,8.288,0,0,1,8.288-8.288Z" transform="translate(1212.30743 74.54759) rotate(180)" fill="url(#linear-gradient-13)"/><path d="M589.5776,9.719h0a8.288,8.288,0,0,1,8.288,8.288V95.6068a8.288,8.288,0,0,1-8.288,8.288h-8.28806a0,0,0,0,1,0,0V18.00706a8.288,8.288,0,0,1,8.288-8.288Z" transform="translate(1179.15521 113.61386) rotate(180)" fill="url(#linear-gradient-14)"/><rect x="664.69918" y="88.36606" width="258.46523" height="48" rx="23.2635" transform="translate(153.08242 594.3058) rotate(-45)" fill="url(#linear-gradient-15)"/><path d="M515.69322,412.88532H757.90349a24,24,0,0,1,24,24v0a24,24,0,0,1-24,24H515.69322a24,24,0,0,1-24-24v0a24,24,0,0,1,24-24Z" transform="translate(-122.41063 578.2453) rotate(-45.00001)" fill="url(#linear-gradient-16)"/><path d="M525.91424,524.9308v0a24,24,0,0,1,24-24H851.91467v48H549.91422A24,24,0,0,1,525.91424,524.9308Z" fill="url(#linear-gradient-17)"/><path d="M647.594,57.719v-48H871.4558a24,24,0,0,1,24,24V33.719a24,24,0,0,1-24,24Z" fill="url(#linear-gradient-18)"/><path d="M199.75242,548.56261H29.92358A29.18661,29.18661,0,0,1,.737,519.376V349.54717c0-26.0025,31.43812-39.02459,49.82466-20.63805L220.39047,498.738C238.777,517.12449,225.75491,548.56261,199.75242,548.56261Z" fill="url(#linear-gradient-19)"/><path d="M369.34891,198.36112V187.33255h-45.093v11.02857a8.52508,8.52508,0,0,0,8.5,8.5h45.093A8.52508,8.52508,0,0,1,369.34891,198.36112Z"/><rect x="193.03399" y="357.8138" width="1.99979" height="278.51583" transform="translate(-294.65157 282.79161) rotate(-45)" fill="#fff"/><path d="M44.402,322.31669l19.8898,19.8898,19.88962-19.88963L64.29165,302.42707Zm31.1802-31.1802,19.8898,19.8898,19.88962-19.88963-19.8898-19.88979Zm31.1802-31.1802,19.88979,19.8898,19.88963-19.88962-19.8898-19.8898Zm31.1802-31.18019,19.88979,19.88979L177.722,228.77627l-19.8898-19.8898ZM71.51722,349.43189,91.407,369.32168l19.88962-19.88962-19.8898-19.8898Zm31.1802-31.1802,19.88979,19.88979,19.88963-19.88962L122.587,298.36207Zm31.1802-31.1802,19.88979,19.8898L173.657,287.07166l-19.88979-19.88979Zm31.18019-31.1802,19.8898,19.8898,19.88962-19.88962-19.88979-19.8898ZM98.63242,376.54708l155.466,155.466L273.988,512.12342l-155.466-155.466Zm70.95961-31.18-19.88979-19.8898-19.88962,19.88963,19.88979,19.88979Zm31.1802-31.1802-19.88979-19.88979-19.88963,19.88962,19.8898,19.88979Zm31.1802-31.1802-19.8898-19.88979L192.173,283.00649l19.8898,19.8898Zm-35.2452,89.4756-19.88962-19.88963L156.928,372.48226l19.88962,19.88962Zm31.1802-31.1802-19.88962-19.88962-19.88963,19.88962,19.88963,19.88962Zm31.1802-31.1802L239.178,290.23224l-19.88962,19.88962L239.178,330.01148Zm-35.2452,89.47559-19.88962-19.88962-19.88963,19.88962,19.88963,19.88963Zm31.1802-31.18019L235.113,348.52763l-19.88962,19.88963L235.113,388.30688Zm31.18019-31.1802L266.2932,317.34743l-19.88962,19.88963,19.88962,19.88962Zm-35.24519,89.47559L231.048,406.823l-19.88962,19.88962L231.048,446.60227Zm31.18019-31.1802L262.2282,375.64283l-19.88962,19.88962,19.88962,19.88963Zm31.1802-31.1802L293.4084,344.46263l-19.88962,19.88962,19.88962,19.88963Zm-35.2452,89.4756L258.1632,433.93823l-19.88962,19.88962,19.88962,19.88962Zm31.1802-31.1802L289.3434,402.758l-19.88962,19.88962,19.88962,19.88962Zm31.1802-31.1802L320.5236,371.57783,300.634,391.46745l19.88963,19.88962ZM265.389,480.94322l19.88962,19.88962,19.88962-19.88962L285.27857,461.0536Zm31.1802-31.1802,19.88962,19.88962L336.34839,449.763,316.45877,429.8734Zm31.18019-31.1802L347.639,438.47244l19.88962-19.88962L347.639,398.6932ZM261.324,539.23861l19.88962,19.88963,19.88962-19.88963L281.21357,519.349Zm31.18019-31.18019L312.39377,527.948l19.88962-19.88962-19.88962-19.88963Zm31.1802-31.1802L343.574,496.76784l19.88962-19.88962L343.574,456.98859Zm31.1802-31.1802,19.88962,19.88962L394.64379,445.698,374.75416,425.8084Zm-66.4254,120.65579,19.88963,19.88962,19.88962-19.88962-19.88962-19.88962Zm31.1802-31.1802L339.509,555.06323l19.88963-19.88962L339.509,515.284Zm31.1802-31.1802L370.68916,523.883l19.88962-19.88963-19.88962-19.88962Zm51.06982-51.06982-19.88962,19.88963,19.88962,19.88962L421.759,472.81322Z" fill="#fff"/><path d="M118.64863,248.88494a25.5763,25.5763,0,1,1-25.34887,29.13453l-.2483-1.781-1.79711.05786c-.06275.0022-.125.00586-.207.0127a6.33707,6.33707,0,1,1,2.2024-12.27149l1.68237.62378.80225-1.605a25.4792,25.4792,0,0,1,22.9143-14.17139m0-2a27.59792,27.59792,0,0,0-24.70337,15.27735,8.33515,8.33515,0,1,0-2.898,16.14673c.09156,0,.18067-.01075.27149-.01368a27.59777,27.59777,0,1,0,27.32983-31.4104Z"/><path d="M122.4768,270.85741l-.00344,4.32345a1.98248,1.98248,0,0,1-1.98495,1.98h0a1.98248,1.98248,0,0,1-1.9818-1.98317l.00343-4.32345a1.98248,1.98248,0,0,1,1.98495-1.98h0A1.98248,1.98248,0,0,1,122.4768,270.85741Z"/><path d="M139.957,270.85741l-.00343,4.32345a1.98248,1.98248,0,0,1-1.98495,1.98h0a1.98248,1.98248,0,0,1-1.98181-1.98317l.00344-4.32345a1.98248,1.98248,0,0,1,1.98495-1.98h0A1.98247,1.98247,0,0,1,139.957,270.85741Z"/><path d="M138.25512,255.05566a27.60937,27.60937,0,0,0-39.21313,0Z"/><path d="M.70172,241.66452c9.23573-.85,11.90746,7.17838,24.02871,7.70322,13.90484.6021,14.14908-5.04149,28.05437-4.43939,13.903.60187,13.65876,6.24546,27.56178,6.84733,13.90256.60187,17.011-6.07687,30.91285-5.47477,2.58993.11224,4.94561.30173,7.13611.593a27.59474,27.59474,0,0,0-24.45018,15.2683,8.33521,8.33521,0,1,0-2.898,16.1469c.09156,0,.18063-.0109.27151-.01386a27.6111,27.6111,0,0,0,18.24539,22.207c-1.06265-.10179-2.20777-.1854-3.4649-.23993-13.90483-.60187-14.14931,5.0415-28.05414,4.4394-13.90324-.60187-13.65877-6.24546-27.562-6.84734-13.90233-.60187-14.1468,5.0415-28.04913,4.43963-11.88269-.51463-13.52767-.96109-21.73234-4.52028Z" fill-rule="evenodd"/><path d="M554.81953,159.97357H338.99629V9.65618H554.81953Zm-213.82324-2H552.81953V11.65618H340.99629Z"/><rect x="339.26235" y="10.46157" width="213.82284" height="21"/><path d="M405.31766,107.55033,382.57412,84.808,405.30346,62.0799h18.00411L400.58112,84.808l22.74066,22.74232Zm41.43693,0h-13.314L447.3343,62.0799h13.314Zm41.7431,0H470.49358L493.23423,84.808,470.50779,62.0799H488.5119L511.24124,84.808Z" fill="#fff"/><rect x="0.73697" y="1.19975" width="19.16524" height="19.16524"/><rect x="389.71788" y="187.94703" width="164.10122" height="18.91409" fill="#fff"/><rect width="896" height="600" fill="none"/></svg>