<svg xmlns="http://www.w3.org/2000/svg" width="170" height="52" viewBox="0 0 170 52">
    <g fill="none" fill-rule="nonzero">
        <path fill="#8C929D" d="M119.589 12.755h-3.635l.016 26.49h14.724V35.97h-11.089l-.016-23.214zM144.795 34.983a6.17 6.17 0 0 1-4.468 1.879c-2.748 0-3.857-1.351-3.857-3.114 0-2.653 1.854-3.922 5.793-3.922.853.003 1.705.07 2.549.198v4.96h-.017zm-3.74-16.23a11.98 11.98 0 0 0-7.68 2.752l1.275 2.208c1.473-.857 3.277-1.713 5.875-1.713 2.963 0 4.27 1.515 4.27 4.053v1.302a16.525 16.525 0 0 0-2.499-.198c-6.322 0-9.533 2.208-9.533 6.821 0 4.136 2.549 6.212 6.405 6.212 2.598 0 5.098-1.186 5.958-3.114l.662 2.62h2.549V25.987c-.017-4.333-1.903-7.233-7.282-7.233zM160.28 36.97c-1.33 0-2.498-.166-3.373-.58V23.962c1.2-1.026 2.692-1.77 4.59-1.77 3.422 0 4.735 2.465 4.735 6.453 0 5.66-2.124 8.325-5.952 8.325m1.492-18.304a6.419 6.419 0 0 0-4.865 2.201v-3.479l-.017-4.6h-3.454l.016 26.23c1.736.745 4.103 1.142 6.682 1.142 6.601 0 9.78-4.303 9.78-11.733-.016-5.875-2.952-9.764-8.142-9.764M80.052 16.14c3.26 0 5.37 1.04 6.739 2.096l1.588-2.65c-2.145-1.82-5.05-2.796-8.158-2.796-7.837 0-13.326 4.6-13.326 13.883 0 9.72 5.928 13.508 12.701 13.508a22.32 22.32 0 0 0 8.174-1.528l-.084-10.387v-3.268H77.63v3.268h6.418l.084 7.884c-.844.406-2.296.731-4.273.731-5.438 0-9.086-3.3-9.086-10.24-.017-7.072 3.75-10.502 9.272-10.502M104.92 12.783h-3.61l.017 4.518v15.606c0 4.352 1.932 7.265 7.438 7.265.745.002 1.488-.065 2.22-.199v-3.16c-.556.081-1.116.12-1.678.115-3.032 0-4.37-1.522-4.37-4.071V22.1h6.048v-2.946h-6.044l-.017-6.371h-.005zM92.37 39.245h3.93V18.642h-3.93zM92.37 16.68h3.93v-3.925h-3.93z"/>
        <path fill="#FC6D26" d="M56.826 29.802l-3.189-9.687L47.327.902a1.09 1.09 0 0 0-1.034-.736 1.09 1.09 0 0 0-1.035.736l-6.306 19.201H17.985L11.675.902a1.09 1.09 0 0 0-1.034-.736 1.09 1.09 0 0 0-1.035.736L3.308 20.103l-3.19 9.699c-.29.883.027 1.85.786 2.398L28.467 52 56.03 32.2a2.136 2.136 0 0 0 .796-2.398"/>
        <path fill="#E24329" d="M28.106 51.981l10.3-32.255H17.804z"/>
        <path fill="#FC6D26" d="M28.466 51.983L17.88 19.726H3.06z"/>
        <path fill="#FCA326" d="M3.19 19.737L.11 29.538c-.281.894.025 1.873.758 2.427L27.48 52 3.19 19.737z"/>
        <path fill="#E24329" d="M3.05 19.57h14.591L11.361.73A1.082 1.082 0 0 0 10.334.01c-.466 0-.88.29-1.028.722L3.05 19.57z"/>
        <path fill="#FC6D26" d="M27.66 51.983l10.514-32.257h14.737z"/>
        <path fill="#FCA326" d="M53.653 19.737l3.174 9.801a2.181 2.181 0 0 1-.782 2.427L28.643 51.98l25.01-32.244z"/>
        <path fill="#E24329" d="M52.916 19.57H38.324L44.59.73A1.082 1.082 0 0 1 45.62.01c.466 0 .88.29 1.028.722l6.268 18.84h.001z"/>
    </g>
</svg>
