<svg xmlns="http://www.w3.org/2000/svg" width="130" height="49" viewBox="0 0 130 49">
    <g fill="#00ACD7" fill-rule="nonzero">
        <path d="M9.783 14.877c-.253 0-.315-.129-.19-.32l1.326-1.729c.127-.192.442-.32.694-.32h22.534c.253 0 .315.192.19.384l-1.075 1.665c-.126.192-.441.384-.63.384l-22.85-.064h.001zm-9.53 5.89c-.254 0-.316-.128-.19-.32l1.325-1.728c.127-.192.442-.32.694-.32h28.783c.253 0 .379.192.316.384l-.505 1.536c-.064.257-.316.385-.568.385l-29.855.064zm15.274 5.892c-.253 0-.315-.192-.189-.385l.884-1.6c.126-.192.379-.385.63-.385h12.625c.253 0 .378.193.378.448l-.126 1.536c0 .257-.253.448-.442.448l-13.76-.064v.002zm65.52-12.935L70.44 16.541c-.947.257-1.01.32-1.83-.64-.948-1.089-1.641-1.798-2.967-2.433-3.976-1.985-7.827-1.408-11.425.961-4.292 2.817-6.501 6.98-6.438 12.166.063 5.122 3.535 9.349 8.521 10.054 4.292.576 7.89-.961 10.731-4.226.568-.704 1.074-1.473 1.704-2.37H56.555c-1.325 0-1.64-.832-1.199-1.92.82-1.986 2.336-5.315 3.22-6.98.189-.385.63-1.025 1.577-1.025H83.13c-.126 1.729-.126 3.458-.379 5.187-.693 4.61-2.398 8.836-5.175 12.55-4.545 6.083-10.478 9.861-17.99 10.886-6.185.832-11.929-.384-16.98-4.226-4.675-3.587-7.321-8.325-8.016-14.216-.82-6.98 1.2-13.254 5.366-18.761C44.436 5.593 50.37 1.815 57.628.47 63.562-.619 69.242.086 74.355 3.608c3.346 2.24 5.744 5.314 7.323 9.029.379.576.126.896-.631 1.089v-.002z"/>
        <path d="M102.204 49c-5.764-.127-11.02-1.782-15.454-5.585-3.737-3.237-6.08-7.362-6.84-12.248-1.14-7.171.824-13.518 5.13-19.165 4.625-6.093 10.197-9.266 17.734-10.598 6.46-1.143 12.54-.508 18.05 3.237 5.004 3.426 8.107 8.06 8.93 14.151 1.077 8.567-1.393 15.548-7.283 21.513-4.18 4.252-9.31 6.918-15.2 8.123-1.71.317-3.42.381-5.066.571l-.001.001zm15.073-25.638c-.064-.825-.064-1.46-.19-2.094-1.14-6.283-6.903-9.836-12.92-8.44-5.89 1.332-9.69 5.076-11.083 11.042-1.14 4.95 1.267 9.964 5.826 11.994 3.484 1.522 6.967 1.333 10.324-.38 5.003-2.597 7.726-6.664 8.043-12.122z"/>
    </g>
</svg>
