<svg xmlns="http://www.w3.org/2000/svg" width="494" height="329" viewBox="0 0 494 329">
  <defs>
    <linearGradient id="product_project_managers-copy-a" x1="-8.78%" x2="112.912%" y1="101.92%" y2="-5.181%">
      <stop offset="0%" stop-color="#002EC7"/>
      <stop offset="16.133%" stop-color="#4B2EB2"/>
      <stop offset="42.84%" stop-color="#C22E90"/>
      <stop offset="54.659%" stop-color="#F22E83"/>
      <stop offset="59.519%" stop-color="#F43A72"/>
      <stop offset="78.631%" stop-color="#FA6635"/>
      <stop offset="92.658%" stop-color="#FE820F"/>
      <stop offset="100%" stop-color="#FF8C00"/>
    </linearGradient>
    <linearGradient id="product_project_managers-copy-b" x1="93.647%" x2="44.315%" y1="110.473%" y2="42.106%">
      <stop offset="0%" stop-color="#FF8C00"/>
      <stop offset="9.109%" stop-color="#FE820F"/>
      <stop offset="26.509%" stop-color="#FA6635"/>
      <stop offset="50.219%" stop-color="#F43A72"/>
      <stop offset="56.248%" stop-color="#F22E83"/>
      <stop offset="64.525%" stop-color="#C22E90"/>
      <stop offset="83.23%" stop-color="#4B2EB2"/>
      <stop offset="94.529%" stop-color="#002EC7"/>
    </linearGradient>
    <linearGradient id="product_project_managers-copy-c" x1="87.841%" x2="47.21%" y1="45.154%" y2="50.357%">
      <stop offset="11.669%" stop-color="#002EC7"/>
      <stop offset="24.358%" stop-color="#4B2EB2"/>
      <stop offset="45.364%" stop-color="#C22E90"/>
      <stop offset="54.659%" stop-color="#F22E83"/>
      <stop offset="59.519%" stop-color="#F43A72"/>
      <stop offset="78.631%" stop-color="#FA6635"/>
      <stop offset="92.658%" stop-color="#FE820F"/>
      <stop offset="100%" stop-color="#FF8C00"/>
    </linearGradient>
    <linearGradient id="product_project_managers-copy-d" x1="52.333%" x2="47.951%" y1="-4.426%" y2="97.803%">
      <stop offset="0%" stop-color="#002EC7"/>
      <stop offset="16.133%" stop-color="#4B2EB2"/>
      <stop offset="42.84%" stop-color="#C22E90"/>
      <stop offset="54.659%" stop-color="#F22E83"/>
      <stop offset="59.519%" stop-color="#F43A72"/>
      <stop offset="78.631%" stop-color="#FA6635"/>
      <stop offset="92.658%" stop-color="#FE820F"/>
      <stop offset="100%" stop-color="#FF8C00"/>
    </linearGradient>
    <linearGradient id="product_project_managers-copy-e" x1="7.95%" x2="151.92%" y1="57.338%" y2="34.226%">
      <stop offset="0%" stop-color="#FF8C00"/>
      <stop offset="9.109%" stop-color="#FE820F"/>
      <stop offset="26.509%" stop-color="#FA6635"/>
      <stop offset="50.219%" stop-color="#F43A72"/>
      <stop offset="56.248%" stop-color="#F22E83"/>
      <stop offset="65.708%" stop-color="#C22E90"/>
      <stop offset="87.086%" stop-color="#4B2EB2"/>
      <stop offset="100%" stop-color="#002EC7"/>
    </linearGradient>
    <linearGradient id="product_project_managers-copy-f" x1="69.993%" x2="55.175%" y1="58.793%" y2="52.276%">
      <stop offset="0%" stop-color="#002EC7"/>
      <stop offset="16.133%" stop-color="#4B2EB2"/>
      <stop offset="42.84%" stop-color="#C22E90"/>
      <stop offset="54.659%" stop-color="#F22E83"/>
      <stop offset="59.519%" stop-color="#F43A72"/>
      <stop offset="78.631%" stop-color="#FA6635"/>
      <stop offset="92.658%" stop-color="#FE820F"/>
      <stop offset="100%" stop-color="#FF8C00"/>
    </linearGradient>
    <linearGradient id="product_project_managers-copy-g" x1="2.176%" x2="135.289%" y1="49.967%" y2="50.058%">
      <stop offset="0%" stop-color="#002EC7"/>
      <stop offset="16.133%" stop-color="#4B2EB2"/>
      <stop offset="42.84%" stop-color="#C22E90"/>
      <stop offset="54.659%" stop-color="#F22E83"/>
      <stop offset="59.519%" stop-color="#F43A72"/>
      <stop offset="78.631%" stop-color="#FA6635"/>
      <stop offset="92.658%" stop-color="#FE820F"/>
      <stop offset="100%" stop-color="#FF8C00"/>
    </linearGradient>
    <linearGradient id="product_project_managers-copy-h" x1="31.152%" x2="46.951%" y1="-82.498%" y2="22.26%">
      <stop offset="33.057%" stop-color="#FF8C00"/>
      <stop offset="42.869%" stop-color="#FD7F13"/>
      <stop offset="62.664%" stop-color="#F85C43"/>
      <stop offset="86.163%" stop-color="#F22E83"/>
    </linearGradient>
    <linearGradient id="product_project_managers-copy-i" x1="26.152%" x2="81.006%" y1="34.069%" y2="57.433%">
      <stop offset="0%" stop-color="#FF8C00"/>
      <stop offset="9.109%" stop-color="#FE820F"/>
      <stop offset="26.509%" stop-color="#FA6635"/>
      <stop offset="50.219%" stop-color="#F43A72"/>
      <stop offset="56.248%" stop-color="#F22E83"/>
      <stop offset="65.708%" stop-color="#C22E90"/>
      <stop offset="87.086%" stop-color="#4B2EB2"/>
      <stop offset="100%" stop-color="#002EC7"/>
    </linearGradient>
    <linearGradient id="product_project_managers-copy-j" x1="23.434%" x2="76.026%" y1="48.647%" y2="51.325%">
      <stop offset="0%" stop-color="#FF8C00"/>
      <stop offset="9.109%" stop-color="#FE820F"/>
      <stop offset="26.509%" stop-color="#FA6635"/>
      <stop offset="50.219%" stop-color="#F43A72"/>
      <stop offset="56.248%" stop-color="#F22E83"/>
      <stop offset="65.708%" stop-color="#C22E90"/>
      <stop offset="87.086%" stop-color="#4B2EB2"/>
      <stop offset="100%" stop-color="#002EC7"/>
    </linearGradient>
    <linearGradient id="product_project_managers-copy-k" x1="115.493%" x2="-14.802%" y1="49.451%" y2="50.543%">
      <stop offset="0%" stop-color="#002EC7"/>
      <stop offset="16.133%" stop-color="#4B2EB2"/>
      <stop offset="42.84%" stop-color="#C22E90"/>
      <stop offset="54.659%" stop-color="#F22E83"/>
      <stop offset="59.519%" stop-color="#F43A72"/>
      <stop offset="78.631%" stop-color="#FA6635"/>
      <stop offset="92.658%" stop-color="#FE820F"/>
      <stop offset="100%" stop-color="#FF8C00"/>
    </linearGradient>
    <linearGradient id="product_project_managers-copy-l" x1="109.026%" x2="-10.626%" y1="49.518%" y2="50.495%">
      <stop offset="0%" stop-color="#002EC7"/>
      <stop offset="16.133%" stop-color="#4B2EB2"/>
      <stop offset="42.84%" stop-color="#C22E90"/>
      <stop offset="54.659%" stop-color="#F22E83"/>
      <stop offset="59.519%" stop-color="#F43A72"/>
      <stop offset="78.631%" stop-color="#FA6635"/>
      <stop offset="92.658%" stop-color="#FE820F"/>
      <stop offset="100%" stop-color="#FF8C00"/>
    </linearGradient>
    <linearGradient id="product_project_managers-copy-m" x1="120.99%" x2="3.655%" y1="50.899%" y2="49.413%">
      <stop offset="0%" stop-color="#002EC7"/>
      <stop offset="16.133%" stop-color="#4B2EB2"/>
      <stop offset="42.84%" stop-color="#C22E90"/>
      <stop offset="54.659%" stop-color="#F22E83"/>
      <stop offset="59.519%" stop-color="#F43A72"/>
      <stop offset="78.631%" stop-color="#FA6635"/>
      <stop offset="92.658%" stop-color="#FE820F"/>
      <stop offset="100%" stop-color="#FF8C00"/>
    </linearGradient>
    <linearGradient id="product_project_managers-copy-n" x1="60.315%" x2="42.922%" y1="139.492%" y2="-11.418%">
      <stop offset="0%" stop-color="#002EC7"/>
      <stop offset="16.133%" stop-color="#4B2EB2"/>
      <stop offset="42.84%" stop-color="#C22E90"/>
      <stop offset="54.659%" stop-color="#F22E83"/>
      <stop offset="59.519%" stop-color="#F43A72"/>
      <stop offset="78.631%" stop-color="#FA6635"/>
      <stop offset="92.658%" stop-color="#FE820F"/>
      <stop offset="100%" stop-color="#FF8C00"/>
    </linearGradient>
    <linearGradient id="product_project_managers-copy-o" x1="50.037%" x2="49.99%" y1="-10.192%" y2="70.172%">
      <stop offset="0%" stop-color="#002EC7"/>
      <stop offset="16.133%" stop-color="#4B2EB2"/>
      <stop offset="42.84%" stop-color="#C22E90"/>
      <stop offset="54.659%" stop-color="#F22E83"/>
      <stop offset="59.519%" stop-color="#F43A72"/>
      <stop offset="78.631%" stop-color="#FA6635"/>
      <stop offset="92.658%" stop-color="#FE820F"/>
      <stop offset="100%" stop-color="#FF8C00"/>
    </linearGradient>
    <linearGradient id="product_project_managers-copy-p" x1="20.534%" x2="67.662%" y1="-11.843%" y2="89.298%">
      <stop offset="0%" stop-color="#002EC7"/>
      <stop offset="16.133%" stop-color="#4B2EB2"/>
      <stop offset="42.84%" stop-color="#C22E90"/>
      <stop offset="54.659%" stop-color="#F22E83"/>
      <stop offset="59.519%" stop-color="#F43A72"/>
      <stop offset="78.631%" stop-color="#FA6635"/>
      <stop offset="92.658%" stop-color="#FE820F"/>
      <stop offset="100%" stop-color="#FF8C00"/>
    </linearGradient>
    <linearGradient id="product_project_managers-copy-q" x1="-8.729%" x2="89.219%" y1="43.537%" y2="54.316%">
      <stop offset="0%" stop-color="#FF8C00"/>
      <stop offset="7.342%" stop-color="#FE820F"/>
      <stop offset="21.369%" stop-color="#FA6635"/>
      <stop offset="40.481%" stop-color="#F43A72"/>
      <stop offset="45.341%" stop-color="#F22E83"/>
      <stop offset="57.16%" stop-color="#C22E90"/>
      <stop offset="83.867%" stop-color="#4B2EB2"/>
      <stop offset="100%" stop-color="#002EC7"/>
    </linearGradient>
    <linearGradient id="product_project_managers-copy-r" x1="131.642%" x2="-.711%" y1="49.965%" y2="50.03%">
      <stop offset="0%" stop-color="#002EC7"/>
      <stop offset="16.133%" stop-color="#4B2EB2"/>
      <stop offset="42.84%" stop-color="#C22E90"/>
      <stop offset="54.659%" stop-color="#F22E83"/>
      <stop offset="59.519%" stop-color="#F43A72"/>
      <stop offset="78.631%" stop-color="#FA6635"/>
      <stop offset="92.658%" stop-color="#FE820F"/>
      <stop offset="100%" stop-color="#FF8C00"/>
    </linearGradient>
    <linearGradient id="product_project_managers-copy-s" x1="108.526%" x2="10.916%" y1="43.784%" y2="54.151%">
      <stop offset="0%" stop-color="#FF8C00"/>
      <stop offset="7.342%" stop-color="#FE820F"/>
      <stop offset="21.369%" stop-color="#FA6635"/>
      <stop offset="40.481%" stop-color="#F43A72"/>
      <stop offset="45.341%" stop-color="#F22E83"/>
      <stop offset="57.16%" stop-color="#C22E90"/>
      <stop offset="83.867%" stop-color="#4B2EB2"/>
      <stop offset="100%" stop-color="#002EC7"/>
    </linearGradient>
    <linearGradient id="product_project_managers-copy-t" x1="-1.637%" x2="81.995%" y1="39.162%" y2="58.358%">
      <stop offset="0%" stop-color="#FF8C00"/>
      <stop offset="7.342%" stop-color="#FE820F"/>
      <stop offset="21.369%" stop-color="#FA6635"/>
      <stop offset="40.481%" stop-color="#F43A72"/>
      <stop offset="45.341%" stop-color="#F22E83"/>
      <stop offset="57.16%" stop-color="#C22E90"/>
      <stop offset="83.867%" stop-color="#4B2EB2"/>
      <stop offset="100%" stop-color="#002EC7"/>
    </linearGradient>
    <linearGradient id="product_project_managers-copy-u" x1="-31.644%" x2="100.709%" y1="49.965%" y2="50.03%">
      <stop offset="0%" stop-color="#002EC7"/>
      <stop offset="16.133%" stop-color="#4B2EB2"/>
      <stop offset="42.84%" stop-color="#C22E90"/>
      <stop offset="54.659%" stop-color="#F22E83"/>
      <stop offset="59.519%" stop-color="#F43A72"/>
      <stop offset="78.631%" stop-color="#FA6635"/>
      <stop offset="92.658%" stop-color="#FE820F"/>
      <stop offset="100%" stop-color="#FF8C00"/>
    </linearGradient>
    <linearGradient id="product_project_managers-copy-v" x1="-1010.541%" x2="-912.931%" y1="-310.898%" y2="-300.53%">
      <stop offset="0%" stop-color="#FF8C00"/>
      <stop offset="7.342%" stop-color="#FE820F"/>
      <stop offset="21.369%" stop-color="#FA6635"/>
      <stop offset="40.481%" stop-color="#F43A72"/>
      <stop offset="45.341%" stop-color="#F22E83"/>
      <stop offset="57.16%" stop-color="#C22E90"/>
      <stop offset="83.867%" stop-color="#4B2EB2"/>
      <stop offset="100%" stop-color="#002EC7"/>
    </linearGradient>
    <linearGradient id="product_project_managers-copy-w" x1="131.642%" x2="-.711%" y1="49.965%" y2="50.03%">
      <stop offset="0%" stop-color="#002EC7"/>
      <stop offset="16.133%" stop-color="#4B2EB2"/>
      <stop offset="42.84%" stop-color="#C22E90"/>
      <stop offset="54.659%" stop-color="#F22E83"/>
      <stop offset="59.519%" stop-color="#F43A72"/>
      <stop offset="78.631%" stop-color="#FA6635"/>
      <stop offset="92.658%" stop-color="#FE820F"/>
      <stop offset="100%" stop-color="#FF8C00"/>
    </linearGradient>
    <linearGradient id="product_project_managers-copy-x" x1="-46.087%" x2="112.349%" y1="150.005%" y2="-14.733%">
      <stop offset="0%" stop-color="#002EC7"/>
      <stop offset="16.133%" stop-color="#4B2EB2"/>
      <stop offset="42.84%" stop-color="#C22E90"/>
      <stop offset="54.659%" stop-color="#F22E83"/>
      <stop offset="59.519%" stop-color="#F43A72"/>
      <stop offset="78.631%" stop-color="#FA6635"/>
      <stop offset="92.658%" stop-color="#FE820F"/>
      <stop offset="100%" stop-color="#FF8C00"/>
    </linearGradient>
    <linearGradient id="product_project_managers-copy-y" x1="67.518%" x2="39.29%" y1="79.519%" y2="26.916%">
      <stop offset="0%" stop-color="#002EC7"/>
      <stop offset="16.133%" stop-color="#4B2EB2"/>
      <stop offset="42.84%" stop-color="#C22E90"/>
      <stop offset="54.659%" stop-color="#F22E83"/>
      <stop offset="59.519%" stop-color="#F43A72"/>
      <stop offset="78.631%" stop-color="#FA6635"/>
      <stop offset="92.658%" stop-color="#FE820F"/>
      <stop offset="100%" stop-color="#FF8C00"/>
    </linearGradient>
    <linearGradient id="product_project_managers-copy-z" x1="67.518%" x2="39.29%" y1="79.519%" y2="26.916%">
      <stop offset="0%" stop-color="#002EC7"/>
      <stop offset="16.133%" stop-color="#4B2EB2"/>
      <stop offset="42.84%" stop-color="#C22E90"/>
      <stop offset="54.659%" stop-color="#F22E83"/>
      <stop offset="59.519%" stop-color="#F43A72"/>
      <stop offset="78.631%" stop-color="#FA6635"/>
      <stop offset="92.658%" stop-color="#FE820F"/>
      <stop offset="100%" stop-color="#FF8C00"/>
    </linearGradient>
    <linearGradient id="product_project_managers-copy-A" x1="67.115%" x2="38.888%" y1="81.895%" y2="29.292%">
      <stop offset="0%" stop-color="#002EC7"/>
      <stop offset="16.133%" stop-color="#4B2EB2"/>
      <stop offset="42.84%" stop-color="#C22E90"/>
      <stop offset="54.659%" stop-color="#F22E83"/>
      <stop offset="59.519%" stop-color="#F43A72"/>
      <stop offset="78.631%" stop-color="#FA6635"/>
      <stop offset="92.658%" stop-color="#FE820F"/>
      <stop offset="100%" stop-color="#FF8C00"/>
    </linearGradient>
    <linearGradient id="product_project_managers-copy-B" x1="67.435%" x2="39.341%" y1="79.519%" y2="26.916%">
      <stop offset="0%" stop-color="#002EC7"/>
      <stop offset="16.133%" stop-color="#4B2EB2"/>
      <stop offset="42.84%" stop-color="#C22E90"/>
      <stop offset="54.659%" stop-color="#F22E83"/>
      <stop offset="59.519%" stop-color="#F43A72"/>
      <stop offset="78.631%" stop-color="#FA6635"/>
      <stop offset="92.658%" stop-color="#FE820F"/>
      <stop offset="100%" stop-color="#FF8C00"/>
    </linearGradient>
    <linearGradient id="product_project_managers-copy-C" x1="67.435%" x2="39.341%" y1="79.519%" y2="26.916%">
      <stop offset="0%" stop-color="#002EC7"/>
      <stop offset="16.133%" stop-color="#4B2EB2"/>
      <stop offset="42.84%" stop-color="#C22E90"/>
      <stop offset="54.659%" stop-color="#F22E83"/>
      <stop offset="59.519%" stop-color="#F43A72"/>
      <stop offset="78.631%" stop-color="#FA6635"/>
      <stop offset="92.658%" stop-color="#FE820F"/>
      <stop offset="100%" stop-color="#FF8C00"/>
    </linearGradient>
    <linearGradient id="product_project_managers-copy-D" x1="67.035%" x2="38.94%" y1="81.895%" y2="29.292%">
      <stop offset="0%" stop-color="#002EC7"/>
      <stop offset="16.133%" stop-color="#4B2EB2"/>
      <stop offset="42.84%" stop-color="#C22E90"/>
      <stop offset="54.659%" stop-color="#F22E83"/>
      <stop offset="59.519%" stop-color="#F43A72"/>
      <stop offset="78.631%" stop-color="#FA6635"/>
      <stop offset="92.658%" stop-color="#FE820F"/>
      <stop offset="100%" stop-color="#FF8C00"/>
    </linearGradient>
    <linearGradient id="product_project_managers-copy-E" x1="-31.58%" x2="100.697%" y1="49.926%" y2="50.056%">
      <stop offset="0%" stop-color="#002EC7"/>
      <stop offset="16.133%" stop-color="#4B2EB2"/>
      <stop offset="42.84%" stop-color="#C22E90"/>
      <stop offset="54.659%" stop-color="#F22E83"/>
      <stop offset="59.519%" stop-color="#F43A72"/>
      <stop offset="78.631%" stop-color="#FA6635"/>
      <stop offset="92.658%" stop-color="#FE820F"/>
      <stop offset="100%" stop-color="#FF8C00"/>
    </linearGradient>
  </defs>
  <g fill="none" fill-rule="evenodd">
    <path fill="url(#product_project_managers-copy-a)" d="M142.765726,186.109755 L142.765726,186.109755 C147.90166,191.240501 147.90166,199.559073 142.765726,204.689819 L53.4287166,293.936466 L34.8298111,275.35638 L124.166886,186.109755 C129.302825,180.979052 137.629787,180.979052 142.765726,186.109755 L142.765726,186.109755 Z"/>
    <path fill="#FF8C00" d="M45.0764725,125.803611 L44.4418072,125.702037 C29.1118189,123.292318 17.840138,110.06112 17.9101454,94.5583827 L17.9101454,28.9133083 C17.9188768,21.5548285 23.8880447,15.5916924 31.2539799,15.5832848 L114.908022,15.5832848 C122.27386,15.5917261 128.242861,21.5549255 128.251014,28.9133083 C128.251014,29.2156405 128.005677,29.4607293 127.703039,29.4607293 C127.4004,29.4607293 127.155063,29.2156405 127.155063,28.9133083 C127.147508,22.1593423 121.668831,16.6859705 114.908022,16.6781267 L31.2539799,16.6781267 C24.4929888,16.6857381 19.0140236,22.1591602 19.0064075,28.9133083 L19.0064075,94.5583882 C18.9393769,109.27892 29.4758798,121.916501 43.9805214,124.512574 L43.9805214,102.29124 L114.047531,102.29124 C114.350169,102.29124 114.595506,102.536329 114.595506,102.838661 C114.595506,103.140993 114.350169,103.386082 114.047531,103.386082 L45.0764725,103.386082 L45.0764725,125.803611 Z"/>
    <path fill="url(#product_project_managers-copy-b)" d="M474.17666,274.92873 L265.115887,274.92873 C250.80934,274.92873 243.583838,257.703707 253.616372,247.514703 L462.677167,35.1933599 C472.799624,24.9130296 490.307028,32.0731754 490.307028,46.4933713 L490.307028,258.814715 C490.307028,263.088422 488.607583,267.187089 485.582551,270.209054 C482.557519,273.231018 478.454697,274.92873 474.17666,274.92873 Z"/>
    <path fill="#000" fill-rule="nonzero" d="M266.775393,328.672942 C241.682963,328.716984 217.607243,318.770619 199.875277,301.034453 L199.487858,300.647426 L333.288073,166.982603 L333.675492,167.36963 C360.74793,194.389168 368.850984,235.044994 354.202944,270.362957 C339.554904,305.680919 305.043548,328.698281 266.775393,328.672942 L266.775393,328.672942 Z M201.038656,300.646331 C237.533612,336.685243 296.568338,336.555329 332.900633,300.260356 C369.269682,263.928526 369.4423,205.07596 333.286999,168.531843 L201.038656,300.646331 Z"/>
    <rect width="159.936" height="26.276" x="306.081" y="183.513" fill="url(#product_project_managers-copy-c)" rx="13.138"/>
    <rect width="26.303" height="124.213" x="439.714" y="183.513" fill="url(#product_project_managers-copy-d)" rx="13.151"/>
    <path fill="url(#product_project_managers-copy-e)" d="M140.012927,124.37158 L145.515824,114.42193 C148.347128,109.302664 148.259008,103.069685 145.284112,98.0323389 C142.309217,92.9949928 136.890675,89.903591 131.036078,89.903591 L83.0112887,89.903591 C73.8748881,89.903591 66.4683439,97.3026279 66.4683439,106.429781 L66.4683439,124.37158 L140.012927,124.37158 Z"/>
    <path fill="url(#product_project_managers-copy-f)" d="M118.8661,127.424185 L223.305425,127.477066 C230.567227,127.480743 236.453163,133.366678 236.45684,140.62848 C236.460512,147.880782 230.584336,153.762911 223.332034,153.766583 C223.327602,153.766585 223.323169,153.766585 223.318736,153.766583 L118.879411,153.713703 C111.617609,153.710026 105.731674,147.82409 105.727997,140.562288 C105.724325,133.309986 111.6005,127.427857 118.852802,127.424185 C118.857235,127.424183 118.861667,127.424183 118.8661,127.424185 Z" transform="rotate(-45 171.092 140.595)"/>
    <rect width="176.227" height="26.276" x="95.727" y="157.236" fill="url(#product_project_managers-copy-g)" rx="13.138"/>
    <path fill="url(#product_project_managers-copy-h)" d="M439.869172,129.297689 L453.147614,129.302965 L453.159102,158.19313 C453.160559,161.857565 450.189264,164.826995 446.52253,164.825539 L446.52253,164.825539 C442.855792,164.824081 439.882133,161.852286 439.880676,158.187848 L439.869172,129.297689 L439.869172,129.297689 Z" transform="rotate(-25.863 446.514 147.062)"/>
    <path fill="#FFF" d="M431.7118,116.504725 L461.591162,116.504725 L461.591162,138.636774 L431.7118,138.636774 C425.676549,138.636774 420.784011,133.749187 420.784011,127.720044 L420.784011,127.421454 C420.784011,121.392311 425.676549,116.504725 431.7118,116.504725 L431.7118,116.504725 Z"/>
    <polygon fill="#FFF" points="463.231 116.505 463.235 116.505 463.235 138.637 463.206 138.637 488.826 157.878 488.826 97.581"/>
    <path fill="url(#product_project_managers-copy-i)" d="M210.052745,89.9036239 L258.077502,89.9036239 C262.464959,89.9036239 266.672718,91.6447705 269.775119,94.7440313 C272.87752,97.8432921 274.62043,102.046792 274.62043,106.429808 L274.62043,193.262625 C274.62043,202.389786 267.21391,209.788815 258.077502,209.788815 L258.077502,209.788815 C252.055852,209.788815 246.509804,206.520111 243.597702,201.25478 L195.572967,114.421968 C192.741647,109.302698 192.829764,103.069704 195.804669,98.0323509 C198.779575,92.9949974 204.198137,89.9036239 210.052745,89.9036239 Z"/>
    <path fill="url(#product_project_managers-copy-j)" d="M365.594451,89.9036239 L317.569695,89.9036239 C308.433287,89.9036239 301.026761,97.3026479 301.026761,106.429808 L301.026761,193.262625 C301.026761,202.389788 308.433285,209.788815 317.569695,209.788815 L317.569695,209.788815 C323.591343,209.788815 329.137389,206.520111 332.049489,201.25478 L380.07423,114.421968 C382.905553,109.302698 382.817438,103.069703 379.842532,98.0323483 C376.867626,92.9949935 371.449061,89.9036239 365.594451,89.9036239 Z"/>
    <path fill="#000" fill-rule="nonzero" d="M239.338348,54.9352755 C244.455328,54.9238645 249.140957,57.7973429 251.446658,62.3608004 L251.859108,63.1705729 L252.731775,62.9149273 C253.968817,62.5500961 255.305564,62.9298996 256.165262,63.8904675 C257.024961,64.8510354 257.253745,66.2204479 256.752904,67.4078579 C256.252062,68.5952678 255.111234,69.3881559 253.822641,69.4444222 L252.911046,69.4845153 L252.785422,70.387437 C251.845562,77.0855495 246.110047,82.0685653 239.339596,82.0691716 C232.569145,82.069778 226.832736,77.0877897 225.891673,70.3898456 L225.755616,69.4139473 L224.769901,69.4464258 C224.73619,69.4476301 224.702747,69.4496337 224.661808,69.4532412 C223.322907,69.4580396 222.110438,68.6639031 221.580974,67.4353727 C221.05151,66.2068423 221.307312,64.7811999 222.230958,63.8128733 C223.154604,62.8445466 224.567697,62.5205611 225.821571,62.9896393 L226.743742,63.3313723 L227.183219,62.4522416 C229.46819,57.835735 234.183137,54.9199439 239.338348,54.9352755 L239.338348,54.9352755 Z M239.338348,53.8404942 C233.772049,53.8399516 228.684682,56.9857859 226.202721,61.9630662 C224.539491,61.346659 222.668577,61.7796043 221.446054,63.0637992 C220.223531,64.3479941 219.884586,66.236387 220.584311,67.8649051 C221.284035,69.4934231 222.887817,70.5487744 224.661813,70.5480612 C224.710512,70.5480612 224.757709,70.5423133 224.806166,70.5407094 C225.822605,77.7798362 232.022261,83.1646455 239.339661,83.164006 C246.657062,83.1633666 252.855775,77.7774737 253.870945,70.5381693 C255.583124,70.4642567 257.099383,69.4113164 257.765295,67.8338045 C258.431207,66.2562926 258.127541,64.4366647 256.985359,63.1602841 C255.843178,61.8839035 254.066991,61.3793079 252.423413,61.8642841 C249.922343,56.9414156 244.864569,53.8399779 239.338348,53.8404942 L239.338348,53.8404942 Z"/>
    <path fill="#000" d="M203.248275.264043028C207.39371 3.6165804 205.187363 7.90691557 209.847545 12.9835498 215.154048 18.7646053 217.502764 16.6130329 222.809442 22.3942636 228.115353 28.1745746 225.766614 30.3260759 231.072525 36.106469 236.378288 41.8864078 240.282411 40.4636936 245.587724 46.24349 250.325615 51.4048869 252.364018 55.1659865 252.162697 61.2995263 252.126608 61.2620554 252.087838 61.2287612 252.051458 61.1918158 248.749361 55.4354195 241.981326 52.621734 235.56616 54.3383571 233.465023 54.8743032 231.516428 55.8884335 229.872694 57.3014756 228.345623 58.5906767 227.096983 60.1766848 226.202699 61.9630608 224.0174 61.1456215 221.572518 62.1665143 220.619562 64.2943734 216.2439 60.2382249 213.863697 61.5334174 209.042004 56.2803987 203.736094 50.5001807 206.084827 48.3485098 200.778922 42.5682699 195.473159 36.7881778 193.12442 38.9397502 187.818811 33.1597458 182.844557 27.7407709 182.752229 27.2653905 180.371001 21.2212445L203.248275.264043028zM242.590769 67.1248846L242.592506 69.3135394C242.593205 69.8678019 243.043541 70.3165569 243.598365 70.3158679L243.598365 70.3158679C243.864803 70.3157771 244.120292 70.2099551 244.308627 70.0216811 244.496963 69.8334071 244.602716 69.5781036 244.602623 69.3119354L244.600886 67.1232807C244.600187 66.5690182 244.149852 66.1202632 243.595028 66.1209521L243.595028 66.1209521C243.32859 66.1210444 243.073102 66.2268668 242.884767 66.4151405 242.696432 66.6034143 242.590678 66.8587169 242.590769 67.1248846L242.590769 67.1248846zM233.732842 67.1248846L233.734579 69.3135394C233.735275 69.8678031 234.185613 70.3165599 234.740438 70.3158679L234.740438 70.3158679C235.006876 70.3157771 235.262365 70.2099551 235.4507 70.0216811 235.639036 69.8334071 235.744789 69.5781036 235.744696 69.3119354L235.742959 67.1232807C235.742258 66.5690195 235.291924 66.1202662 234.737101 66.1209521L234.737101 66.1209521C234.470663 66.1210429 234.215173 66.2268649 234.026838 66.4151389 233.838503 66.603413 233.732749 66.8587164 233.732842 67.1248846L233.732842 67.1248846zM322.845571 67.1248846L322.847308 69.3135394C322.848007 69.8678019 323.298342 70.3165569 323.853166 70.3158679L323.853166 70.3158679C324.119605 70.3157786 324.375095 70.2099571 324.563431 70.0216827 324.751766 69.8334084 324.857519 69.5781041 324.857425 69.3119354L324.855688 67.1232807C324.854989 66.5690182 324.404653 66.1202632 323.849829 66.1209521L323.849829 66.1209521C323.583392 66.1210444 323.327903 66.2268668 323.139568 66.4151405 322.951233 66.6034143 322.845479 66.8587169 322.845571 67.1248846L322.845571 67.1248846z"/>
    <path fill="#000" fill-rule="nonzero" d="M333.643397,56.0840823 C338.535212,56.0685128 343.010206,58.8332728 345.181253,63.2125163 L345.62073,64.0909846 L346.542496,63.7496457 C347.715779,63.3125475 349.036941,63.6167286 349.90036,64.5227526 C350.763779,65.4287766 351.002981,66.7619532 350.508315,67.9111549 C350.013649,69.0603566 348.880492,69.8040061 347.628282,69.8012148 L347.626271,69.8012148 C347.593497,69.798943 347.560585,69.7969394 347.527542,69.795872 L346.542896,69.7644609 L346.406998,70.7391549 C345.455376,77.5532954 339.309418,82.4161389 332.451727,81.7809315 C325.594036,81.1457242 320.447846,75.2369229 320.766571,68.3641591 C321.085297,61.4913953 326.756313,56.0832285 333.643419,56.0840823 L333.643397,56.0840823 Z M333.643419,54.9893058 C326.179693,54.9950531 320.037993,60.8592246 319.694909,68.3075172 C319.351825,75.7558099 324.92848,82.1586614 332.360137,82.8491326 C339.791794,83.5396039 346.454763,78.2739293 347.49251,70.8901774 C347.53854,70.8916445 347.583754,70.8971242 347.630173,70.8971242 C349.322131,70.9011373 350.853296,69.896331 351.521515,68.3434838 C352.189734,66.7906367 351.866107,64.9892938 350.699041,63.7655048 C349.531974,62.5417159 347.746597,62.1315505 346.161636,62.7231 C343.794139,57.9826983 338.946438,54.9877733 333.643419,54.9893058 L333.643419,54.9893058 Z"/>
    <path fill="#000" d="M333.643375,54.9892893 C338.946415,54.9877699 343.794129,57.982718 346.161626,62.7231438 C347.745739,62.1341772 349.528791,62.545377 350.694178,63.7684215 C351.859566,64.9914661 352.182846,66.7908073 351.515961,68.342382 C350.849077,69.8939567 349.320465,70.8989444 347.6302,70.8970804 C347.583715,70.8970804 347.538655,70.8916062 347.492598,70.8901227 C346.519618,77.7845042 340.613002,82.9105116 333.643375,82.9090459 L362.05797,82.9090459 C365.49033,82.9090459 368.782112,81.5469364 371.209157,79.122348 C373.636201,76.6977596 374.999691,73.4093099 374.999691,69.980424 L374.999691,54.9892893 L333.643375,54.9892893 Z"/>
    <path fill="#000" d="M331.703498 67.1248846L331.70524 69.3135394C331.705573 69.5797057 331.811733 69.8348386 332.000367 70.0228116 332.189001 70.2107846 332.444657 70.3161998 332.711093 70.3158679L332.711093 70.3158679C332.977532 70.3157771 333.233022 70.2099553 333.421358 70.0216814 333.609694 69.8334076 333.715449 69.5781041 333.715357 69.3119354L333.713615 67.1232807C333.712916 66.5690182 333.26258 66.1202632 332.707756 66.1209521L332.707756 66.1209521C332.441319 66.1210444 332.18583 66.2268668 331.997495 66.4151405 331.80916 66.6034143 331.703406 66.8587169 331.703498 67.1248846L331.703498 67.1248846zM323.70798 59.1256027C326.335137 56.4784282 329.911978 54.9893399 333.643424 54.9893399 337.374871 54.9893399 340.951712 56.4784282 343.578869 59.1256027L323.70798 59.1256027z"/>
    <path fill="#000" fill-rule="nonzero" d="M108.368032,56.1644054 C115.246136,56.1701952 120.905702,61.5744112 121.221798,68.4382956 C121.537894,75.30218 116.398932,81.2026838 109.550408,81.8392677 C102.701884,82.4758516 96.5614245,77.6237923 95.6044584,70.819478 L95.468533,69.844784 L94.4840236,69.8761896 C94.4507122,69.8772844 94.4178008,69.8792661 94.3812782,69.8826053 C93.1277292,69.8864113 91.9929193,69.1424059 91.4976189,67.9920172 C91.0023185,66.8416285 91.2421567,65.5069652 92.1070703,64.6005115 C92.9719839,63.6940578 94.2949818,63.3908252 95.4689331,63.8299688 L96.3906993,64.1713077 L96.8301757,63.2928394 C99.001223,58.9135959 103.476217,56.1488359 108.368032,56.1644054 L108.368032,56.1644054 Z M108.368032,55.0696239 C103.065005,55.0680619 98.2172877,58.0629946 95.8498145,62.8034176 C94.26567,62.214417 92.4825692,62.6256164 91.3171531,63.8486909 C90.151737,65.0717655 89.8284606,66.8711555 90.4953809,68.4227596 C91.1623013,69.9743637 92.690972,70.9793485 94.3812782,70.9774418 C94.4277027,70.9774418 94.4727901,70.9719676 94.5189407,70.970495 C95.5513433,78.3640733 102.219812,83.6405322 109.660636,82.9514365 C117.101461,82.2623409 122.685344,75.8511904 122.339629,68.3940179 C121.993913,60.9368454 115.840761,55.0687243 108.368032,55.0696239 L108.368032,55.0696239 Z"/>
    <path fill="#000" d="M108.368037,55.0696234 C103.064998,55.068104 98.2172837,58.0630521 95.8497871,62.8034779 C94.2656739,62.2145113 92.482622,62.625711 91.3172342,63.8487556 C90.1518464,65.0718002 89.8285668,66.8711414 90.4954512,68.422716 C91.1623355,69.9742907 92.6909474,70.9792784 94.3812125,70.9774144 C94.4276972,70.9774144 94.4727573,70.9719402 94.5188146,70.9704567 C95.4917988,77.8648358 101.398412,82.9908409 108.368037,82.9893799 L79.9534753,82.9893799 C76.5211154,82.9893799 73.2293339,81.6272705 70.802289,79.202682 C68.375244,76.7780936 67.0117548,73.4896439 67.0117548,70.060758 L67.0117548,55.0696234 L108.368037,55.0696234 Z"/>
    <path fill="#000" d="M110.307915 67.2052296L110.306178 69.3938843C110.305479 69.9481468 109.855143 70.3969019 109.300319 70.3962129L109.300319 70.3962129C109.033881 70.3961236 108.778391 70.290302 108.590055 70.1020277 108.40172 69.9137533 108.295966 69.6584491 108.296061 69.3922804L108.297798 67.2036257C108.298497 66.6493632 108.748832 66.2006081 109.303657 66.2012971L109.303657 66.2012971C109.570094 66.2013893 109.825582 66.3072118 110.013917 66.4954855 110.202252 66.6837592 110.308007 66.9390618 110.307915 67.2052296zM119.165842 67.2052296L119.164105 69.3938843C119.163409 69.9481481 118.713072 70.3969049 118.158246 70.3962129L118.158246 70.3962129C117.891808 70.3961221 117.636319 70.2903001 117.447984 70.1020261 117.259648 69.913752 117.153895 69.6584486 117.153988 69.3922804L117.155725 67.2036257C117.156427 66.6493644 117.606761 66.2006112 118.161583 66.2012971L118.161583 66.2012971C118.428021 66.2013893 118.683509 66.3072118 118.871844 66.4954855 119.060179 66.6837592 119.165933 66.9390618 119.165842 67.2052296zM118.303432 59.2059368C115.676276 56.5587623 112.099435 55.0696739 108.367988 55.0696739 104.636542 55.0696739 101.059701 56.5587623 98.432544 59.2059368L118.303432 59.2059368z"/>
    <path fill="url(#product_project_managers-copy-k)" d="M129.795741,183.512609 L258.765239,183.512609 C265.747086,183.512609 271.406992,189.166786 271.406992,196.141567 L271.406992,197.159857 C271.406992,204.134638 265.747086,209.788815 258.765239,209.788815 L129.795735,209.788815 C122.813891,209.788815 117.153988,204.134641 117.153988,197.159863 L117.153988,196.141567 C117.153988,189.166786 122.813893,183.512609 129.795741,183.512609 Z"/>
    <path fill="url(#product_project_managers-copy-l)" d="M124.560795,150.016886 L284.91736,150.098081 C292.17701,150.101757 298.065099,155.989846 298.068776,163.249495 L298.068776,163.249495 C298.07245,170.509145 292.190321,176.391274 284.930671,176.3876 L124.574106,176.306405 C117.314457,176.30273 111.426368,170.414641 111.42269,163.154991 L111.42269,163.154958 C111.419034,155.895321 117.301158,150.013212 124.560795,150.016886 L124.560795,150.016886 Z" transform="rotate(-45 204.746 163.202)"/>
    <path fill="url(#product_project_managers-copy-m)" d="M297.26426,130.515294 L447.113031,130.591167 C454.374833,130.594844 460.260768,136.48078 460.264445,143.742582 C460.268117,150.994883 454.391942,156.877013 447.13964,156.880685 C447.135207,156.880687 447.130775,156.880687 447.126342,156.880685 L297.277571,156.804812 C290.015769,156.801135 284.129834,150.9152 284.126157,143.653398 C284.122485,136.401096 289.99866,130.518966 297.250962,130.515294 C297.255395,130.515292 297.259828,130.515292 297.26426,130.515294 Z" transform="rotate(-45 372.195 143.698)"/>
    <path fill="url(#product_project_managers-copy-n)" d="M328.821978,86.6445871 C336.08378,86.648264 341.969715,92.5341994 341.973392,99.7960014 L341.994378,141.242433 C341.99805,148.494735 336.121874,154.376865 328.869572,154.380537 C328.86514,154.380539 328.860707,154.380539 328.856274,154.380537 C321.594472,154.37686 315.708537,148.490924 315.70486,141.229122 L315.683875,99.7826903 C315.680203,92.5303883 321.556378,86.6482592 328.80868,86.6445871 C328.813113,86.6445849 328.817545,86.6445849 328.821978,86.6445871 Z" transform="rotate(-45 328.84 120.513)"/>
    <path fill="url(#product_project_managers-copy-o)" d="M426.56266,76.0383541 L426.56266,76.0383541 C433.825985,76.0383541 439.714074,81.9204832 439.714074,89.1764573 L439.714074,304.129242 L413.411246,304.129242 L413.411246,89.1764463 C413.411246,81.9204766 419.299339,76.0383541 426.56266,76.0383541 Z"/>
    <path fill="url(#product_project_managers-copy-p)" d="M102.3054,158.998775 L102.3054,158.998775 C108.59562,155.370803 116.638882,157.52381 120.270544,163.807655 L190.814265,285.86925 L168.035347,299.007353 L97.4916425,176.945742 C93.8599918,170.661886 96.0151831,162.62676 102.3054,158.998775 Z"/>
    <rect width="51.806" height="10.577" x="439.18" y="307.075" fill="url(#product_project_managers-copy-q)"/>
    <path fill="url(#product_project_managers-copy-r)" d="M485.59241,307.07457 L436.493989,307.07457 L436.493989,293.936466 L472.44104,293.936466 C475.929008,293.936466 479.274117,295.320657 481.740479,297.78453 C484.20684,300.248404 485.59241,303.590132 485.59241,307.07457 L485.59241,307.07457 Z"/>
    <rect width="53.675" height="10.577" x=".054" y="307.075" fill="url(#product_project_managers-copy-s)"/>
    <polygon fill="url(#product_project_managers-copy-t)" points="199.804 301.308 194.51 292.149 168.631 307.075 139.913 307.075 139.913 317.651 171.538 317.651 171.538 317.611"/>
    <path fill="url(#product_project_managers-copy-u)" d="M4.63054174,307.07457 L53.7289415,307.07457 L53.7289415,293.936466 L17.7818903,293.936466 C14.2939262,293.936466 10.9488226,295.320665 8.48246572,297.784538 C6.01610881,300.248411 4.63054174,303.590136 4.63054174,307.07457 L4.63054174,307.07457 Z"/>
    <rect width="53.675" height="10.577" x="413.411" y="307.075" fill="url(#product_project_managers-copy-v)"/>
    <path fill="url(#product_project_managers-copy-w)" d="M462.509656,307.07457 L413.411257,307.07457 L413.411257,293.936466 L449.358308,293.936466 C452.846272,293.936466 456.191375,295.320665 458.657732,297.784538 C461.124089,300.248411 462.509656,303.590136 462.509656,307.07457 L462.509656,307.07457 Z"/>
    <path fill="url(#product_project_managers-copy-x)" d="M393.89059,66.3350055 L412.489501,84.9150916 L352.868337,144.475889 C347.732393,149.606624 339.405393,149.606624 334.269448,144.475889 L334.269448,144.475889 C329.133511,139.345142 329.133511,131.026566 334.269448,125.895819 L393.89059,66.3350055 Z"/>
    <path fill="url(#product_project_managers-copy-y)" d="M402.836292,58.9832548 L411.914999,58.9878516 L411.927984,84.6319121 C411.928593,85.8358155 411.450929,86.990168 410.600072,87.8410253 C409.749215,88.6918825 408.594862,89.1695467 407.390959,89.1689377 L407.390959,89.1689377 C406.187055,89.1683275 405.032219,88.6894942 404.180499,87.8377749 C403.32878,86.9860556 402.849947,85.8312188 402.849337,84.6273154 L402.836292,58.9832548 L402.836292,58.9832548 Z" transform="rotate(-45 407.382 74.076)"/>
    <path fill="url(#product_project_managers-copy-z)" d="M409.259156,52.5668905 L418.337863,52.5714873 L418.350848,78.2155424 C418.352117,80.7225414 416.320822,82.7538367 413.813823,82.7525679 L413.813823,82.7525679 C411.306824,82.751298 409.27347,80.7179446 409.272201,78.2109456 L409.259156,52.5668905 L409.259156,52.5668905 Z" transform="rotate(-45 413.805 67.66)"/>
    <path fill="url(#product_project_managers-copy-A)" d="M415.682024,46.1505383 L420.22138,46.1528367 C422.728379,46.1541061 424.761732,48.1874594 424.763002,50.6944585 L424.773688,71.7991682 C424.774957,74.3061673 422.743662,76.3374626 420.236663,76.3361938 L420.236663,76.3361938 C417.729664,76.3349238 415.69631,74.3015705 415.695041,71.7945715 L415.682024,46.1505383 L415.682024,46.1505383 Z" transform="rotate(-45 420.228 61.243)"/>
    <path fill="url(#product_project_managers-copy-B)" d="M448.328464,146.20106 L457.402574,146.20106 L457.402574,171.858104 C457.402574,174.366373 455.371278,176.399726 452.865549,176.399726 L452.865549,176.399726 C450.359819,176.399726 448.328464,174.366373 448.328464,171.858104 L448.328464,146.20106 L448.328464,146.20106 Z" transform="rotate(90 452.866 161.3)"/>
    <path fill="url(#product_project_managers-copy-C)" d="M448.328447,155.275159 L457.402557,155.275159 L457.402557,180.932226 C457.402557,183.440494 455.371262,185.473847 452.865532,185.473847 L452.865532,185.473847 C450.359803,185.473847 448.328447,183.440494 448.328447,180.932226 L448.328447,155.275159 L448.328447,155.275159 Z" transform="rotate(90 452.866 170.375)"/>
    <path fill="url(#product_project_managers-copy-D)" d="M448.328486,164.34928 L452.865543,164.34928 C455.371273,164.34928 457.402568,166.382633 457.402568,168.890902 L457.402568,190.006297 C457.402568,192.514566 455.371273,194.547919 452.865543,194.547919 L452.865543,194.547919 C450.359814,194.547919 448.328486,192.514566 448.328486,190.006297 L448.328486,164.34928 L448.328486,164.34928 Z" transform="rotate(90 452.866 179.449)"/>
    <path fill="url(#product_project_managers-copy-E)" d="M194.498699,292.169578 L187.922992,280.791614 L162.85804,295.248284 L156.375856,295.248284 C149.112531,295.248284 143.224442,301.130413 143.224442,308.386398 L143.224442,308.386398 L166.364103,308.386398 L166.364103,308.355661 L166.382028,308.386398 L194.498699,292.169578 Z"/>
    <rect width="490.986" height="328.453"/>
    <polygon fill="#000" points="138.742 65.353 160.002 65.353 160.002 71.144 138.742 71.144" transform="rotate(-90 149.372 68.249)"/>
    <rect width="31.701" height="5.79" x="145.102" y="60.133" fill="#000" transform="rotate(-90 160.953 63.028)"/>
    <polygon fill="#000" points="150.793 54.243 194.275 54.243 194.275 60.033 150.793 60.033" transform="rotate(-90 172.534 57.138)"/>
    <path fill="#000" d="M180.37077,85.0987787 L140.587419,85.0987787 C140.28478,85.0987787 140.039443,84.85369 140.039443,84.5513577 C140.039443,84.2490255 140.28478,84.0039368 140.587419,84.0039368 L180.37077,84.0039368 C180.673409,84.0039368 180.918746,84.2490255 180.918746,84.5513577 C180.918746,84.85369 180.673409,85.0987787 180.37077,85.0987787 Z"/>
  </g>
</svg>
