<?xml version="1.0" encoding="utf-8"?>
<!-- Generator: Adobe Illustrator 18.1.1, SVG Export Plug-In . SVG Version: 6.00 Build 0)  -->
<svg version="1.1" id="Layer_1" xmlns="http://www.w3.org/2000/svg" xmlns:xlink="http://www.w3.org/1999/xlink" x="0px" y="0px"
	 width="218.66743px" height="57px" viewBox="0 0 218.66743 57" enable-background="new 0 0 218.66743 57" xml:space="preserve">
<polygon fill="#FFFFFF" points="29.6647,28.02429 51.27469,6.45239 7.93869,6.45239 7.93869,49.78833 51.27469,49.78833 
	29.65469,28.0343 "/>
<polygon fill="#FFFFFF" points="65.23349,6.47437 74.76944,6.47437 74.76944,25.42249 92.35349,6.47437 103.87149,6.47437 
	86.22348,24.86438 104.67746,49.81848 93.22147,49.81848 79.78543,31.36646 74.76944,36.56848 74.76944,49.81848 65.23349,49.81848 
	"/>
<path fill="#FFFFFF" d="M99.60867,33.40955v-0.1239c0-9.53601,7.67798-17.276,18.02002-17.276
	c10.27802,0,17.89398,7.61597,17.89398,17.15198v0.12402c0,9.53601-7.67798,17.276-18.01801,17.276
	C107.2247,50.56165,99.60867,42.94556,99.60867,33.40955 M126.23471,33.40955v-0.1239c0-4.89209-3.53003-9.16406-8.73004-9.16406
	c-5.388,0-8.60797,4.14807-8.60797,9.04004v0.12402c0,4.89197,3.52997,9.16394,8.73199,9.16394
	C123.01468,42.44958,126.23471,38.30164,126.23471,33.40955"/>
<path fill="#FFFFFF" d="M138.12088,40.40649V24.67859h-3.96204v-8.05005h3.96204V8.14661h9.41199v8.48193h7.802v8.05005h-7.802
	v14.17993c0,2.16809,0.92798,3.22009,3.034,3.22009c1.73401,0,3.28198-0.43408,4.64398-1.17603v7.55396
	c-1.98199,1.17603-4.27197,1.92004-7.42999,1.92004C142.02286,50.37659,138.12088,48.08459,138.12088,40.40649"/>
<rect x="158.03645" y="4.61658" fill="#FFFFFF" width="9.41199" height="45.20203"/>
<path fill="#FFFFFF" d="M170.85025,4.61731h9.90601v8.35999h-9.90601V4.61731z M171.0983,16.62927h9.41199v33.19006h-9.41199
	V16.62927z"/>
<path fill="#FFFFFF" d="M184.09048,16.62927h9.41199v4.70605c2.16797-2.78601,4.95398-5.32605,9.72198-5.32605
	c7.12,0,11.26801,4.70605,11.26801,12.3241v21.48596h-9.41199V31.3053c0-4.45996-2.104-6.75-5.69604-6.75
	c-3.59198,0-5.88196,2.29004-5.88196,6.75v18.51404h-9.41199V16.62927z"/>
<g>
</g>
<g>
</g>
<g>
</g>
<g>
</g>
<g>
</g>
<g>
</g>
</svg>
