<svg xmlns="http://www.w3.org/2000/svg" width="192" height="192" viewBox="0 0 192 192">
    <defs>
        <linearGradient id="a" x1="26.627%" x2="89.547%" y1="-28.893%" y2="268.809%">
            <stop offset="0%" stop-color="#F80"/>
            <stop offset="21.385%" stop-color="#F9790E"/>
            <stop offset="45.341%" stop-color="#EF6422"/>
            <stop offset="72.445%" stop-color="#CD3435"/>
            <stop offset="100%" stop-color="#800079"/>
        </linearGradient>
        <linearGradient id="b" x1="41.244%" x2="130.532%" y1="38.544%" y2="155.358%">
            <stop offset="0%" stop-color="#F80"/>
            <stop offset="21.385%" stop-color="#F9790E"/>
            <stop offset="45.341%" stop-color="#EF6422"/>
            <stop offset="72.445%" stop-color="#CD3435"/>
            <stop offset="100%" stop-color="#800079"/>
        </linearGradient>
        <linearGradient id="c" x1="50%" x2="50%" y1="113.275%" y2="-99.215%">
            <stop offset="0%" stop-color="#F80"/>
            <stop offset="21.385%" stop-color="#F9790E"/>
            <stop offset="45.341%" stop-color="#EF6422"/>
            <stop offset="72.445%" stop-color="#CD3435"/>
            <stop offset="100%" stop-color="#800079"/>
        </linearGradient>
        <linearGradient id="d" x1="50%" x2="50%" y1="113.275%" y2="-99.215%">
            <stop offset="0%" stop-color="#F80"/>
            <stop offset="21.385%" stop-color="#F9790E"/>
            <stop offset="45.341%" stop-color="#EF6422"/>
            <stop offset="72.445%" stop-color="#CD3435"/>
            <stop offset="100%" stop-color="#800079"/>
        </linearGradient>
    </defs>
    <g fill="none" fill-rule="evenodd">
        <path fill="url(#a)" fill-rule="nonzero" d="M191.916 172.77c.013-.52.038-6.96.038-7.483 0-32.99-25.88-59.982-57.511-59.982H57.512C25.88 105.305 0 132.297 0 165.287c0 .523.025 6.963.038 7.483h191.878z"/>
        <path fill="#F80" fill-rule="nonzero" d="M75.17 42.507L52.724 26.701l35.657-16.368z"/>
        <circle cx="95.79" cy="48.51" r="38.174" fill="url(#b)" fill-rule="nonzero"/>
        <path fill="#800079" fill-rule="nonzero" d="M92.578 28.317l-.004 5.826a2.67 2.67 0 1 1-5.34-.004l.004-5.826a2.67 2.67 0 0 1 5.34.004z"/>
        <path fill="#FFF" fill-rule="nonzero" d="M48.098 69.589h95.535v122.383H48.098z"/>
        <circle cx="66.968" cy="89.576" r="6.385" fill="#F37521" fill-rule="nonzero"/>
        <path fill="#F37521" fill-rule="nonzero" d="M76.594 115.164v-6.404a9.626 9.626 0 0 0-19.252 0v6.34s18.798.024 19.252.064z"/>
        <path stroke="#F37521" stroke-linejoin="round" stroke-width="6" d="M95.79 112.296h38.407M95.79 131.579h38.407M95.675 93.013h38.407"/>
        <path fill="#F37521" fill-rule="nonzero" d="M124.53 191.972v-19.334h19.334z"/>
        <rect width="12.801" height="48.005" x="46.191" y="116.764" fill="url(#c)" fill-rule="nonzero" rx="6.401" transform="rotate(-90 52.591 140.766)"/>
        <rect width="12.801" height="48.005" x="46.191" y="142.366" fill="url(#c)" fill-rule="nonzero" rx="6.401" transform="rotate(-90 52.591 166.369)"/>
        <rect width="12.801" height="48.005" x="46.055" y="129.565" fill="url(#d)" fill-rule="nonzero" rx="6.401" transform="rotate(-90 52.456 153.568)"/>
        <path fill="#800079" fill-rule="nonzero" d="M191.954 8.744a36.447 36.447 0 0 1-16.374 4.064c-16.356-.303-25.573-6.805-41.488-10.586-12.625-3-36.066-5.312-48.47 9.494 5.22-1.383 27.97 1.006 29.374 21.63 0 0 .008 11.276.012 11.292-.036-.134.667-.479 1.271-.562a9.401 9.401 0 0 1 4.915.522c7.828 2.573 9.48 14.664 4.594 20.447a13.09 13.09 0 0 1-8.292 4.544c4.875 0 17.019-.06 21.94 0 16.36.302 19.528 7.04 35.89 7.341a34.308 34.308 0 0 0 16.629-4.416V8.744z"/>
    </g>
</svg>
