<?xml version="1.0" encoding="utf-8"?>
<!-- Generator: Adobe Illustrator 18.1.1, SVG Export Plug-In . SVG Version: 6.00 Build 0)  -->
<svg version="1.1" id="Layer_1" xmlns="http://www.w3.org/2000/svg" xmlns:xlink="http://www.w3.org/1999/xlink" x="0px" y="0px"
	 width="1120px" height="758px" viewBox="260 -204 1120 758" enable-background="new 260 -204 1120 758" xml:space="preserve">
<g id="Layer_2">
</g>
<g>
	<path fill="#3C3F43" d="M272.4-51.4L272.4-51.4c0-3.6,2.7-6.6,6.4-6.6c2.3,0,3.7,0.8,4.9,2l-1,1c-1.1-1-2.3-1.7-4-1.7
		c-2.8,0-4.9,2.3-4.9,5.2l0,0c0,2.9,2.1,5.2,4.9,5.2c1.7,0,2.9-0.7,4.1-1.8l0.9,0.9c-1.3,1.3-2.8,2.2-5,2.2
		C275.1-44.9,272.4-47.7,272.4-51.4z"/>
	<path fill="#3C3F43" d="M286-54.4h1.4v2.4c0.7-1.5,2-2.7,3.8-2.6v1.5h-0.1c-2,0-3.7,1.5-3.7,4.3v3.7H286L286-54.4L286-54.4z"/>
	<path fill="#3C3F43" d="M292.8-49.7L292.8-49.7c0-2.7,1.9-4.9,4.5-4.9c2.8,0,4.3,2.2,4.3,4.9c0,0.2,0,0.3,0,0.4h-7.4
		c0.2,2,1.6,3.2,3.3,3.2c1.3,0,2.2-0.5,2.9-1.3l0.9,0.8c-0.9,1-2.1,1.7-3.8,1.7C294.8-44.9,292.8-46.8,292.8-49.7z M300.2-50.3
		c-0.1-1.7-1.1-3.2-3-3.2c-1.6,0-2.8,1.4-3,3.2H300.2z"/>
	<path fill="#3C3F43" d="M303.3-47.8L303.3-47.8c0-2,1.6-3,4-3c1.2,0,2,0.2,2.9,0.4v-0.3c0-1.7-1-2.5-2.8-2.5c-1.1,0-2,0.3-2.8,0.7
		l-0.4-1.1c1-0.5,2-0.8,3.4-0.8c1.3,0,2.3,0.3,3,1c0.6,0.6,1,1.5,1,2.7v5.7h-1.3v-1.4c-0.6,0.8-1.7,1.6-3.4,1.6
		C305-44.9,303.3-45.9,303.3-47.8z M310.1-48.5v-0.9c-0.7-0.2-1.6-0.4-2.7-0.4c-1.7,0-2.7,0.8-2.7,1.9l0,0c0,1.2,1.1,1.9,2.3,1.9
		C308.7-46,310.1-47,310.1-48.5z"/>
	<path fill="#3C3F43" d="M314.9-47.6v-5.6h-1.3v-1.2h1.3v-2.8h1.4v2.8h3v1.2h-3v5.4c0,1.1,0.6,1.5,1.6,1.5c0.5,0,0.9-0.1,1.4-0.3
		v1.2c-0.5,0.3-1,0.4-1.7,0.4C316-44.9,314.9-45.7,314.9-47.6z"/>
	<path fill="#3C3F43" d="M321.1-49.7L321.1-49.7c0-2.7,1.9-4.9,4.5-4.9c2.8,0,4.3,2.2,4.3,4.9c0,0.2,0,0.3,0,0.4h-7.4
		c0.2,2,1.6,3.2,3.3,3.2c1.3,0,2.2-0.5,2.9-1.3l0.9,0.8c-0.9,1-2.1,1.7-3.8,1.7C323.2-44.9,321.1-46.8,321.1-49.7z M328.5-50.3
		c-0.1-1.7-1.1-3.2-3-3.2c-1.6,0-2.8,1.4-3,3.2H328.5z"/>
	<path fill="#3C3F43" d="M337-47.8L337-47.8c0-2,1.6-3,4-3c1.2,0,2,0.2,2.9,0.4v-0.3c0-1.7-1-2.5-2.8-2.5c-1.1,0-2,0.3-2.8,0.7
		l-0.4-1.1c1-0.5,2-0.8,3.4-0.8c1.3,0,2.3,0.3,3,1c0.6,0.6,1,1.5,1,2.7v5.7H344v-1.4c-0.6,0.8-1.7,1.6-3.4,1.6
		C338.8-44.9,337-45.9,337-47.8z M343.9-48.5v-0.9c-0.7-0.2-1.6-0.4-2.7-0.4c-1.7,0-2.7,0.8-2.7,1.9l0,0c0,1.2,1.1,1.9,2.3,1.9
		C342.5-46,343.9-47,343.9-48.5z"/>
	<path fill="#3C3F43" d="M353-49.7L353-49.7c0-2.7,2.1-4.9,4.8-4.9c1.8,0,2.9,0.7,3.7,1.7l-0.9,1c-0.7-0.8-1.6-1.4-2.8-1.4
		c-1.9,0-3.3,1.6-3.3,3.6l0,0c0,2,1.5,3.6,3.4,3.6c1.2,0,2.1-0.6,2.8-1.4l0.9,0.8c-0.9,1-2.1,1.8-3.8,1.8
		C355-44.9,353-47.1,353-49.7z"/>
	<path fill="#3C3F43" d="M363.3-49.7L363.3-49.7c0-2.7,2.1-4.9,4.9-4.9s4.8,2.2,4.8,4.8l0,0c0,2.6-2.1,4.9-4.9,4.9
		S363.3-47.1,363.3-49.7z M371.5-49.7L371.5-49.7c0-2-1.5-3.7-3.5-3.7s-3.4,1.6-3.4,3.6l0,0c0,2,1.5,3.6,3.4,3.6
		C370.1-46.1,371.5-47.7,371.5-49.7z"/>
	<path fill="#3C3F43" d="M375.3-48.6v-5.8h1.4v5.4c0,1.7,0.9,2.8,2.6,2.8c1.6,0,2.8-1.2,2.8-2.9v-5.3h1.4v9.3h-1.4v-1.6
		c-0.6,1-1.6,1.8-3.2,1.8C376.6-44.9,375.3-46.4,375.3-48.6z"/>
	<path fill="#3C3F43" d="M386.5-54.4h1.4v2.4c0.7-1.5,2-2.7,3.8-2.6v1.5h-0.1c-2,0-3.7,1.5-3.7,4.3v3.7h-1.4L386.5-54.4L386.5-54.4z
		"/>
	<path fill="#3C3F43" d="M393.1-46.3l0.7-1c1,0.8,2.1,1.2,3.2,1.2s1.9-0.6,1.9-1.5l0,0c0-0.9-1.1-1.3-2.3-1.6
		c-1.5-0.4-3.1-0.9-3.1-2.6l0,0c0-1.6,1.3-2.7,3.2-2.7c1.1,0,2.4,0.4,3.3,1l-0.6,1c-0.9-0.6-1.9-0.9-2.8-0.9c-1.1,0-1.8,0.6-1.8,1.4
		l0,0c0,0.9,1.2,1.2,2.4,1.6c1.4,0.4,3,1,3,2.7l0,0c0,1.8-1.5,2.8-3.3,2.8C395.6-44.9,394.1-45.4,393.1-46.3z"/>
	<path fill="#3C3F43" d="M402.2-49.7L402.2-49.7c0-2.7,1.9-4.9,4.5-4.9c2.8,0,4.3,2.2,4.3,4.9c0,0.2,0,0.3,0,0.4h-7.4
		c0.2,2,1.6,3.2,3.3,3.2c1.3,0,2.2-0.5,2.9-1.3l0.9,0.8c-0.9,1-2.1,1.7-3.8,1.7C404.3-44.9,402.2-46.8,402.2-49.7z M409.6-50.3
		c-0.1-1.7-1.1-3.2-3-3.2c-1.6,0-2.8,1.4-3,3.2H409.6z"/>
	<path fill="#3C3F43" d="M418.9-58h1.6v1.5h-1.6V-58z M419-54.4h1.4v9.3H419V-54.4z"/>
	<path fill="#3C3F43" d="M423.6-54.4h1.4v1.6c0.6-1,1.6-1.8,3.2-1.8c2.3,0,3.6,1.5,3.6,3.7v5.8h-1.5v-5.4c0-1.7-0.9-2.8-2.6-2.8
		c-1.6,0-2.8,1.2-2.8,2.9v5.3h-1.4L423.6-54.4L423.6-54.4z"/>
	<path fill="#3C3F43" d="M447-54.4h1.5l-3.9,9.6c-0.8,1.9-1.7,2.6-3.1,2.6c-0.8,0-1.4-0.2-2-0.5l0.5-1.1c0.5,0.2,0.9,0.3,1.5,0.3
		c0.8,0,1.3-0.4,1.9-1.7l-4.2-9.3h1.5l3.4,7.8L447-54.4z"/>
	<path fill="#3C3F43" d="M450.1-49.7L450.1-49.7c0-2.7,2.1-4.9,4.9-4.9s4.8,2.2,4.8,4.8l0,0c0,2.6-2.1,4.9-4.9,4.9
		C452.2-44.9,450.1-47.1,450.1-49.7z M458.4-49.7L458.4-49.7c0-2-1.5-3.7-3.5-3.7s-3.4,1.6-3.4,3.6l0,0c0,2,1.5,3.6,3.4,3.6
		C457-46.1,458.4-47.7,458.4-49.7z"/>
	<path fill="#3C3F43" d="M462.2-48.6v-5.8h1.4v5.4c0,1.7,0.9,2.8,2.6,2.8c1.6,0,2.8-1.2,2.8-2.9v-5.3h1.4v9.3H469v-1.6
		c-0.6,1-1.6,1.8-3.2,1.8C463.5-44.9,462.2-46.4,462.2-48.6z"/>
	<path fill="#3C3F43" d="M473.4-54.4h1.4v2.4c0.7-1.5,2-2.7,3.8-2.6v1.5h-0.1c-2,0-3.7,1.5-3.7,4.3v3.7h-1.4L473.4-54.4L473.4-54.4z
		"/>
	<path fill="#3C3F43" d="M486.5-57.7h1.4v12.6h-1.4V-57.7z"/>
	<path fill="#3C3F43" d="M491.6-57.7h4.4c4,0,6.7,2.7,6.7,6.3l0,0c0,3.5-2.7,6.3-6.7,6.3h-4.4V-57.7z M493-56.4v10h3
		c3.2,0,5.2-2.2,5.2-5l0,0c0-2.8-2-5-5.2-5H493L493-56.4z"/>
	<path fill="#3C3F43" d="M505.7-57.7h9.1v1.3h-7.7v4.3h6.9v1.3h-6.9v4.4h7.8v1.3h-9.2L505.7-57.7L505.7-57.7z"/>
</g>
<path fill="#3C3F43" d="M698.2-79.3h1.5l3.6,10.5l3.5-10.5h1.2l3.5,10.5l3.6-10.5h1.5l-4.5,12.7h-1.2l-3.5-10.2l-3.5,10.2h-1.2
	L698.2-79.3z"/>
<path fill="#3C3F43" d="M718.2-76h1.4v2.4c0.7-1.5,2-2.7,3.8-2.6v1.5h-0.1c-2,0-3.7,1.5-3.7,4.3v3.7h-1.4L718.2-76L718.2-76z"/>
<path fill="#3C3F43" d="M724.9-79.6h1.6v1.5h-1.6V-79.6z M725-76h1.4v9.3H725V-76z"/>
<path fill="#3C3F43" d="M729.5-69.2v-5.6h-1.3V-76h1.3v-2.8h1.4v2.8h3v1.2h-3v5.4c0,1.1,0.6,1.5,1.6,1.5c0.5,0,0.9-0.1,1.4-0.3v1.2
	c-0.5,0.3-1,0.4-1.7,0.4C730.6-66.5,729.5-67.3,729.5-69.2z"/>
<path fill="#3C3F43" d="M735.1-71.3L735.1-71.3c0-2.7,1.9-4.9,4.5-4.9c2.8,0,4.3,2.2,4.3,4.9c0,0.2,0,0.3,0,0.4h-7.4
	c0.2,2,1.6,3.1,3.3,3.1c1.3,0,2.2-0.5,2.9-1.3l0.9,0.8c-0.9,1-2.1,1.7-3.8,1.7C737.2-66.5,735.1-68.4,735.1-71.3z M742.5-71.9
	c-0.1-1.7-1.1-3.2-3-3.2c-1.6,0-2.8,1.3-3,3.2H742.5z"/>
<path fill="#3C3F43" d="M753.2-71.3L753.2-71.3c0-2.7,2.1-4.9,4.8-4.9c1.8,0,2.9,0.7,3.7,1.7l-0.9,1c-0.7-0.8-1.6-1.4-2.8-1.4
	c-1.9,0-3.3,1.6-3.3,3.6l0,0c0,2,1.5,3.6,3.4,3.6c1.2,0,2.1-0.6,2.8-1.4l0.9,0.8c-0.9,1-2.1,1.8-3.8,1.8
	C755.3-66.5,753.2-68.7,753.2-71.3z"/>
<path fill="#3C3F43" d="M762.9-71.3L762.9-71.3c0-2.7,2.1-4.9,4.9-4.9c2.8,0,4.8,2.2,4.8,4.8l0,0c0,2.6-2.1,4.9-4.9,4.9
	C764.9-66.5,762.9-68.7,762.9-71.3z M771.2-71.3L771.2-71.3c0-2-1.5-3.7-3.5-3.7s-3.4,1.6-3.4,3.6l0,0c0,2,1.5,3.6,3.4,3.6
	C769.8-67.7,771.2-69.3,771.2-71.3z"/>
<path fill="#3C3F43" d="M773.9-71.3L773.9-71.3c0-3.1,2.2-4.9,4.4-4.9c1.7,0,2.8,0.9,3.6,2v-5.6h1.4v13.1h-1.4v-1.9
	c-0.8,1.1-1.9,2.1-3.6,2.1C776.1-66.5,773.9-68.3,773.9-71.3z M782-71.3L782-71.3c0-2.2-1.6-3.6-3.4-3.6c-1.8,0-3.3,1.3-3.3,3.6l0,0
	c0,2.2,1.5,3.6,3.3,3.6C780.4-67.7,782-69.2,782-71.3z"/>
<path fill="#3C3F43" d="M785.2-71.3L785.2-71.3c0-2.7,1.9-4.9,4.5-4.9c2.8,0,4.3,2.2,4.3,4.9c0,0.2,0,0.3,0,0.4h-7.4
	c0.2,2,1.6,3.1,3.3,3.1c1.3,0,2.2-0.5,2.9-1.3l0.9,0.8c-0.9,1-2.1,1.7-3.8,1.7C787.3-66.5,785.2-68.4,785.2-71.3z M792.6-71.9
	c-0.1-1.7-1.1-3.2-3-3.2c-1.6,0-2.8,1.3-3,3.2H792.6z"/>
<path fill="#3C3F43" d="M807.6-76h1.5l-3.9,9.6c-0.8,1.9-1.7,2.6-3.1,2.6c-0.8,0-1.4-0.2-2-0.5l0.5-1.1c0.5,0.2,0.9,0.3,1.5,0.3
	c0.8,0,1.4-0.4,1.9-1.7l-4.2-9.3h1.5l3.4,7.8L807.6-76z"/>
<path fill="#3C3F43" d="M810-71.3L810-71.3c0-2.7,2.1-4.9,4.9-4.9s4.8,2.2,4.8,4.8l0,0c0,2.6-2.1,4.9-4.9,4.9
	C812.1-66.5,810-68.7,810-71.3z M818.3-71.3L818.3-71.3c0-2-1.5-3.7-3.5-3.7s-3.4,1.6-3.4,3.6l0,0c0,2,1.5,3.6,3.4,3.6
	C816.9-67.7,818.3-69.3,818.3-71.3z"/>
<path fill="#3C3F43" d="M821.4-70.2V-76h1.4v5.4c0,1.7,0.9,2.8,2.6,2.8c1.6,0,2.8-1.2,2.8-2.9V-76h1.4v9.3h-1.4v-1.6
	c-0.6,1-1.6,1.8-3.2,1.8C822.8-66.5,821.4-68,821.4-70.2z"/>
<path fill="#3C3F43" d="M836-76h1.5l2.4,7.5l2.5-7.5h1.2l2.5,7.5l2.4-7.5h1.4l-3.3,9.4h-1.2l-2.5-7.3l-2.5,7.3h-1.1L836-76z"/>
<path fill="#3C3F43" d="M851-69.4L851-69.4c0-2,1.6-3,4-3c1.2,0,2,0.2,2.9,0.4v-0.3c0-1.7-1-2.5-2.8-2.5c-1.1,0-2,0.3-2.8,0.7
	l-0.4-1.1c1-0.5,2-0.8,3.4-0.8c1.3,0,2.3,0.3,3,1c0.6,0.6,1,1.5,1,2.7v5.7H858V-68c-0.6,0.8-1.7,1.6-3.4,1.6
	C852.7-66.5,851-67.5,851-69.4z M857.8-70.1V-71c-0.7-0.2-1.6-0.4-2.7-0.4c-1.7,0-2.7,0.8-2.7,1.9l0,0c0,1.2,1.1,1.9,2.3,1.9
	C856.4-67.6,857.8-68.6,857.8-70.1z"/>
<path fill="#3C3F43" d="M861.5-76h1.4v1.6c0.6-1,1.6-1.8,3.2-1.8c2.3,0,3.6,1.5,3.6,3.7v5.8h-1.4v-5.4c0-1.7-0.9-2.8-2.6-2.8
	c-1.6,0-2.8,1.2-2.8,2.9v5.3h-1.4V-76z"/>
<path fill="#3C3F43" d="M872.4-69.2v-5.6h-1.3V-76h1.3v-2.8h1.4v2.8h3v1.2h-3v5.4c0,1.1,0.6,1.5,1.6,1.5c0.5,0,0.9-0.1,1.4-0.3v1.2
	c-0.5,0.3-1,0.4-1.7,0.4C873.6-66.5,872.4-67.3,872.4-69.2z"/>
<path fill="#3C3F43" d="M697.4-45.2v-5.6h-1.3V-52h1.3v-2.8h1.4v2.8h3v1.2h-3v5.4c0,1.1,0.6,1.5,1.6,1.5c0.5,0,0.9-0.1,1.4-0.3v1.2
	c-0.5,0.3-1,0.4-1.7,0.4C698.6-42.5,697.4-43.3,697.4-45.2z"/>
<path fill="#3C3F43" d="M703-47.3L703-47.3c0-2.7,2.1-4.9,4.9-4.9s4.8,2.2,4.8,4.8l0,0c0,2.6-2.1,4.9-4.9,4.9S703-44.7,703-47.3z
	 M711.3-47.3L711.3-47.3c0-2-1.5-3.7-3.5-3.7s-3.4,1.6-3.4,3.6l0,0c0,2,1.5,3.6,3.4,3.6C709.9-43.7,711.3-45.3,711.3-47.3z"/>
<path fill="#3C3F43" d="M718.6-43.9l0.7-1c1,0.8,2.1,1.2,3.2,1.2s1.9-0.6,1.9-1.5l0,0c0-0.9-1.1-1.3-2.3-1.6
	c-1.5-0.4-3.1-0.9-3.1-2.6l0,0c0-1.6,1.3-2.7,3.2-2.7c1.1,0,2.4,0.4,3.4,1l-0.6,1c-0.9-0.6-1.9-0.9-2.8-0.9c-1.1,0-1.8,0.6-1.8,1.4
	l0,0c0,0.9,1.2,1.2,2.4,1.6c1.4,0.4,3,1,3,2.7l0,0c0,1.8-1.5,2.8-3.3,2.8C721.1-42.5,719.6-43,718.6-43.9z"/>
<path fill="#3C3F43" d="M727.7-55.8h1.4v5.5c0.6-1,1.6-1.8,3.2-1.8c2.3,0,3.6,1.5,3.6,3.7v5.8h-1.4V-48c0-1.7-0.9-2.8-2.6-2.8
	c-1.6,0-2.8,1.2-2.8,2.9v5.3h-1.4V-55.8z"/>
<path fill="#3C3F43" d="M737.4-45.4L737.4-45.4c0-2,1.6-3,4-3c1.2,0,2,0.2,2.9,0.4v-0.3c0-1.7-1-2.5-2.8-2.5c-1.1,0-2,0.3-2.8,0.7
	l-0.4-1.1c1-0.5,2-0.8,3.4-0.8c1.3,0,2.3,0.3,3,1c0.6,0.6,1,1.5,1,2.7v5.7h-1.4V-44c-0.6,0.8-1.7,1.6-3.4,1.6
	C739.2-42.5,737.4-43.5,737.4-45.4z M744.3-46.1V-47c-0.7-0.2-1.6-0.4-2.7-0.4c-1.7,0-2.7,0.8-2.7,1.9l0,0c0,1.2,1.1,1.9,2.3,1.9
	C742.9-43.6,744.3-44.6,744.3-46.1z"/>
<path fill="#3C3F43" d="M747.9-52h1.4v2.4c0.7-1.5,2-2.7,3.8-2.6v1.5H753c-2,0-3.7,1.5-3.7,4.3v3.7h-1.4V-52L747.9-52z"/>
<path fill="#3C3F43" d="M754-47.3L754-47.3c0-2.7,1.9-4.9,4.5-4.9c2.8,0,4.3,2.2,4.3,4.9c0,0.2,0,0.3,0,0.4h-7.4
	c0.2,2,1.6,3.1,3.3,3.1c1.3,0,2.2-0.5,2.9-1.3l0.9,0.8c-0.9,1-2.1,1.7-3.8,1.7C756.1-42.5,754-44.4,754-47.3z M761.4-47.9
	c-0.1-1.7-1.1-3.2-3-3.2c-1.6,0-2.8,1.4-3,3.2H761.4z"/>
<path fill="#3C3F43" d="M768.7-45.4L768.7-45.4c0-2,1.6-3,4-3c1.2,0,2,0.2,2.9,0.4v-0.3c0-1.7-1-2.5-2.8-2.5c-1.1,0-2,0.3-2.8,0.7
	l-0.4-1.1c1-0.5,2-0.8,3.4-0.8c1.3,0,2.3,0.3,3,1c0.6,0.6,1,1.5,1,2.7v5.7h-1.3V-44c-0.6,0.8-1.7,1.6-3.4,1.6
	C770.4-42.5,768.7-43.5,768.7-45.4z M775.5-46.1V-47c-0.7-0.2-1.6-0.4-2.7-0.4c-1.7,0-2.7,0.8-2.7,1.9l0,0c0,1.2,1.1,1.9,2.3,1.9
	C774.1-43.6,775.5-44.6,775.5-46.1z"/>
<path fill="#3C3F43" d="M778.4-43.9l0.7-1c1,0.8,2.1,1.2,3.2,1.2c1.1,0,1.9-0.6,1.9-1.5l0,0c0-0.9-1.1-1.3-2.3-1.6
	c-1.5-0.4-3.1-0.9-3.1-2.6l0,0c0-1.6,1.3-2.7,3.2-2.7c1.1,0,2.4,0.4,3.3,1l-0.6,1c-0.9-0.6-1.9-0.9-2.8-0.9c-1.1,0-1.8,0.6-1.8,1.4
	l0,0c0,0.9,1.2,1.2,2.4,1.6c1.4,0.4,3,1,3,2.7l0,0c0,1.8-1.5,2.8-3.3,2.8C780.9-42.5,779.4-43,778.4-43.9z"/>
<path fill="#3C3F43" d="M791.7-47.3L791.7-47.3c0-2.7,1.9-4.9,4.5-4.9c2.8,0,4.3,2.2,4.3,4.9c0,0.2,0,0.3,0,0.4h-7.4
	c0.2,2,1.6,3.1,3.3,3.1c1.3,0,2.2-0.5,2.9-1.3l0.9,0.8c-0.9,1-2.1,1.7-3.8,1.7C793.8-42.5,791.7-44.4,791.7-47.3z M799.1-47.9
	c-0.1-1.7-1.1-3.2-3-3.2c-1.6,0-2.8,1.4-3,3.2H799.1z"/>
<path fill="#3C3F43" d="M805.9-48.4l2.8-3.6h1.5l-3.5,4.6l3.7,4.8h-1.6l-2.9-3.8l-2.9,3.8h-1.5l3.6-4.7l-3.5-4.6h1.6L805.9-48.4z"/>
<path fill="#3C3F43" d="M811.4-47.3L811.4-47.3c0-2.7,1.9-4.9,4.5-4.9c2.8,0,4.3,2.2,4.3,4.9c0,0.2,0,0.3,0,0.4h-7.4
	c0.2,2,1.6,3.1,3.3,3.1c1.3,0,2.2-0.5,2.9-1.3l0.9,0.8c-0.9,1-2.1,1.7-3.8,1.7C813.5-42.5,811.4-44.4,811.4-47.3z M818.8-47.9
	c-0.1-1.7-1.1-3.2-3-3.2c-1.6,0-2.8,1.4-3,3.2H818.8z"/>
<path fill="#3C3F43" d="M822-52h1.4v2.4c0.7-1.5,2-2.7,3.8-2.6v1.5h-0.1c-2,0-3.7,1.5-3.7,4.3v3.7H822V-52L822-52z"/>
<path fill="#3C3F43" d="M828.1-47.3L828.1-47.3c0-2.7,2.1-4.9,4.8-4.9c1.8,0,2.9,0.7,3.7,1.7l-0.9,1c-0.7-0.8-1.6-1.4-2.8-1.4
	c-1.9,0-3.3,1.6-3.3,3.6l0,0c0,2,1.5,3.6,3.4,3.6c1.2,0,2.1-0.6,2.8-1.4l0.9,0.8c-0.9,1-2.1,1.8-3.8,1.8
	C830.2-42.5,828.1-44.7,828.1-47.3z"/>
<path fill="#3C3F43" d="M838.4-55.6h1.6v1.5h-1.6V-55.6z M838.5-52h1.4v9.3h-1.4V-52z"/>
<path fill="#3C3F43" d="M841.7-43.9l0.7-1c1,0.8,2.1,1.2,3.2,1.2c1.1,0,1.9-0.6,1.9-1.5l0,0c0-0.9-1.1-1.3-2.3-1.6
	c-1.5-0.4-3.1-0.9-3.1-2.6l0,0c0-1.6,1.3-2.7,3.2-2.7c1.1,0,2.4,0.4,3.3,1l-0.6,1c-0.9-0.6-1.9-0.9-2.8-0.9c-1.1,0-1.8,0.6-1.8,1.4
	l0,0c0,0.9,1.2,1.2,2.4,1.6c1.4,0.4,3,1,3,2.7l0,0c0,1.8-1.5,2.8-3.3,2.8C844.2-42.5,842.7-43,841.7-43.9z"/>
<path fill="#3C3F43" d="M850.2-47.3L850.2-47.3c0-2.7,1.9-4.9,4.5-4.9c2.8,0,4.3,2.2,4.3,4.9c0,0.2,0,0.3,0,0.4h-7.4
	c0.2,2,1.6,3.1,3.3,3.1c1.3,0,2.2-0.5,2.9-1.3l0.9,0.8c-0.9,1-2.1,1.7-3.8,1.7C852.3-42.5,850.2-44.4,850.2-47.3z M857.6-47.9
	c-0.1-1.7-1.1-3.2-3-3.2c-1.6,0-2.8,1.4-3,3.2H857.6z"/>
<path fill="#3C3F43" d="M860-43.9l0.7-1c1,0.8,2.1,1.2,3.2,1.2s1.9-0.6,1.9-1.5l0,0c0-0.9-1.1-1.3-2.3-1.6c-1.5-0.4-3.1-0.9-3.1-2.6
	l0,0c0-1.6,1.3-2.7,3.2-2.7c1.1,0,2.4,0.4,3.3,1l-0.6,1c-0.9-0.6-1.9-0.9-2.8-0.9c-1.1,0-1.8,0.6-1.8,1.4l0,0c0,0.9,1.2,1.2,2.4,1.6
	c1.4,0.4,3,1,3,2.7l0,0c0,1.8-1.5,2.8-3.3,2.8C862.6-42.5,861.1-43,860-43.9z"/>
<g>
	<path fill="#3C3F43" d="M1120.1-79.4h1.3l5.7,12.7h-1.5l-1.5-3.3h-6.9l-1.5,3.3h-1.5L1120.1-79.4z M1123.6-71.3l-2.9-6.4l-2.9,6.4
		H1123.6z"/>
	<path fill="#3C3F43" d="M1128.7-71.3L1128.7-71.3c0-3.1,2.2-4.9,4.4-4.9c1.7,0,2.8,0.9,3.6,2v-5.6h1.4v13.1h-1.4v-1.9
		c-0.8,1.1-1.9,2.1-3.6,2.1C1130.9-66.5,1128.7-68.3,1128.7-71.3z M1136.8-71.3L1136.8-71.3c0-2.2-1.6-3.6-3.4-3.6s-3.3,1.3-3.3,3.6
		l0,0c0,2.2,1.5,3.6,3.3,3.6C1135.2-67.7,1136.8-69.2,1136.8-71.3z"/>
	<path fill="#3C3F43" d="M1140.5-71.3L1140.5-71.3c0-3.1,2.2-4.9,4.4-4.9c1.7,0,2.8,0.9,3.6,2v-5.6h1.4v13.1h-1.4v-1.9
		c-0.8,1.1-1.9,2.1-3.6,2.1C1142.7-66.5,1140.5-68.3,1140.5-71.3z M1148.6-71.3L1148.6-71.3c0-2.2-1.6-3.6-3.4-3.6s-3.3,1.3-3.3,3.6
		l0,0c0,2.2,1.5,3.6,3.3,3.6C1146.9-67.7,1148.6-69.2,1148.6-71.3z"/>
	<path fill="#3C3F43" d="M1158.1-76h1.4v1.9c0.8-1.1,1.9-2.1,3.6-2.1c2.2,0,4.4,1.8,4.4,4.8l0,0c0,3-2.2,4.8-4.4,4.8
		c-1.7,0-2.8-0.9-3.6-2v4.7h-1.4V-76z M1166.1-71.3L1166.1-71.3c0-2.2-1.5-3.6-3.3-3.6c-1.7,0-3.4,1.5-3.4,3.6l0,0
		c0,2.2,1.6,3.6,3.4,3.6C1164.6-67.7,1166.1-69.1,1166.1-71.3z"/>
	<path fill="#3C3F43" d="M1170-79.8h1.4v13.1h-1.4V-79.8z"/>
	<path fill="#3C3F43" d="M1173.7-69.4L1173.7-69.4c0-2,1.6-3,4-3c1.2,0,2,0.2,2.9,0.4v-0.3c0-1.7-1-2.5-2.8-2.5
		c-1.1,0-2,0.3-2.8,0.7l-0.4-1.1c1-0.5,2-0.8,3.4-0.8c1.3,0,2.3,0.3,3,1c0.6,0.6,1,1.5,1,2.7v5.7h-1.3V-68c-0.6,0.8-1.7,1.6-3.4,1.6
		C1175.5-66.5,1173.7-67.5,1173.7-69.4z M1180.6-70.1V-71c-0.7-0.2-1.6-0.4-2.7-0.4c-1.7,0-2.7,0.8-2.7,1.9l0,0
		c0,1.2,1.1,1.9,2.3,1.9C1179.2-67.6,1180.6-68.6,1180.6-70.1z"/>
	<path fill="#3C3F43" d="M1184.1-71.3L1184.1-71.3c0-2.7,2.1-4.9,4.8-4.9c1.8,0,2.9,0.7,3.7,1.7l-0.9,1c-0.7-0.8-1.6-1.4-2.8-1.4
		c-1.9,0-3.3,1.6-3.3,3.6l0,0c0,2,1.5,3.6,3.4,3.6c1.2,0,2.1-0.6,2.8-1.4l0.9,0.8c-0.9,1-2.1,1.8-3.8,1.8
		C1186.2-66.5,1184.1-68.7,1184.1-71.3z"/>
	<path fill="#3C3F43" d="M1194.2-71.3L1194.2-71.3c0-2.7,1.9-4.9,4.5-4.9c2.8,0,4.3,2.2,4.3,4.9c0,0.2,0,0.3,0,0.4h-7.4
		c0.2,2,1.6,3.2,3.3,3.2c1.3,0,2.2-0.5,2.9-1.3l0.9,0.8c-0.9,1-2.1,1.7-3.8,1.7C1196.3-66.5,1194.2-68.4,1194.2-71.3z M1201.6-71.9
		c-0.1-1.7-1.1-3.2-3-3.2c-1.6,0-2.8,1.4-3,3.2H1201.6z"/>
	<path fill="#3C3F43" d="M1205.3-79.8h1.4v5.5c0.6-1,1.6-1.8,3.2-1.8c2.3,0,3.6,1.5,3.6,3.7v5.8h-1.4V-72c0-1.7-0.9-2.8-2.6-2.8
		c-1.6,0-2.8,1.2-2.8,2.9v5.3h-1.4L1205.3-79.8L1205.3-79.8z"/>
	<path fill="#3C3F43" d="M1215.7-71.3L1215.7-71.3c0-2.7,2.1-4.9,4.9-4.9s4.8,2.2,4.8,4.8l0,0c0,2.6-2.1,4.9-4.9,4.9
		S1215.7-68.7,1215.7-71.3z M1224-71.3L1224-71.3c0-2-1.5-3.7-3.5-3.7s-3.4,1.6-3.4,3.6l0,0c0,2,1.5,3.6,3.4,3.6
		C1222.5-67.7,1224-69.3,1224-71.3z"/>
	<path fill="#3C3F43" d="M1227.8-79.8h1.4v13.1h-1.4V-79.8z"/>
	<path fill="#3C3F43" d="M1231.7-71.3L1231.7-71.3c0-3.1,2.2-4.9,4.4-4.9c1.7,0,2.8,0.9,3.6,2v-5.6h1.4v13.1h-1.4v-1.9
		c-0.8,1.1-1.9,2.1-3.6,2.1C1234-66.5,1231.7-68.3,1231.7-71.3z M1239.8-71.3L1239.8-71.3c0-2.2-1.6-3.6-3.4-3.6s-3.3,1.3-3.3,3.6
		l0,0c0,2.2,1.5,3.6,3.3,3.6C1238.2-67.7,1239.8-69.2,1239.8-71.3z"/>
	<path fill="#3C3F43" d="M1243.5-71.3L1243.5-71.3c0-2.7,1.9-4.9,4.5-4.9c2.8,0,4.3,2.2,4.3,4.9c0,0.2,0,0.3,0,0.4h-7.4
		c0.2,2,1.6,3.2,3.3,3.2c1.3,0,2.2-0.5,2.9-1.3l0.9,0.8c-0.9,1-2.1,1.7-3.8,1.7C1245.6-66.5,1243.5-68.4,1243.5-71.3z M1250.9-71.9
		c-0.1-1.7-1.1-3.2-3-3.2c-1.6,0-2.8,1.4-3,3.2H1250.9z"/>
	<path fill="#3C3F43" d="M1254.6-76h1.4v2.4c0.7-1.5,2-2.7,3.8-2.6v1.5h-0.1c-2,0-3.7,1.5-3.7,4.3v3.7h-1.4L1254.6-76L1254.6-76z"/>
	<path fill="#3C3F43" d="M1260.9-67.9l0.7-1c1,0.8,2.1,1.2,3.2,1.2s1.9-0.6,1.9-1.5l0,0c0-0.9-1.1-1.3-2.3-1.6
		c-1.5-0.4-3.1-0.9-3.1-2.6l0,0c0-1.6,1.3-2.7,3.2-2.7c1.1,0,2.4,0.4,3.3,1l-0.6,1c-0.9-0.6-1.9-0.9-2.8-0.9c-1.1,0-1.8,0.6-1.8,1.3
		l0,0c0,0.9,1.2,1.2,2.4,1.6c1.4,0.4,3,1,3,2.7l0,0c0,1.8-1.5,2.8-3.3,2.8C1263.4-66.5,1262-67,1260.9-67.9z"/>
	<path fill="#3C3F43" d="M1115.7-50.8h-1.3V-52h1.3v-0.8c0-1.1,0.3-1.9,0.8-2.4s1.2-0.7,2-0.7c0.6,0,1.1,0.1,1.5,0.2v1.2
		c-0.5-0.1-0.9-0.2-1.4-0.2c-1.1,0-1.6,0.6-1.6,2v0.8h3v1.2h-2.9v8.1h-1.4V-50.8L1115.7-50.8z"/>
	<path fill="#3C3F43" d="M1121.1-47.3L1121.1-47.3c0-2.7,2.1-4.9,4.9-4.9s4.8,2.2,4.8,4.8l0,0c0,2.6-2.1,4.9-4.9,4.9
		S1121.1-44.7,1121.1-47.3z M1129.4-47.3L1129.4-47.3c0-2-1.5-3.7-3.5-3.7s-3.4,1.6-3.4,3.6l0,0c0,2,1.5,3.6,3.4,3.6
		C1128-43.7,1129.4-45.3,1129.4-47.3z"/>
	<path fill="#3C3F43" d="M1133.1-52h1.4v2.4c0.7-1.5,2-2.7,3.8-2.6v1.5h-0.1c-2,0-3.7,1.5-3.7,4.3v3.7h-1.4L1133.1-52L1133.1-52z"/>
	<path fill="#3C3F43" d="M1145.6-55.8h1.4v13.1h-1.4V-55.8z"/>
	<path fill="#3C3F43" d="M1149.5-47.3L1149.5-47.3c0-2.7,1.9-4.9,4.5-4.9c2.8,0,4.3,2.2,4.3,4.9c0,0.2,0,0.3,0,0.4h-7.4
		c0.2,2,1.6,3.2,3.3,3.2c1.3,0,2.2-0.5,2.9-1.3l0.9,0.8c-0.9,1-2.1,1.7-3.8,1.7C1151.6-42.5,1149.5-44.4,1149.5-47.3z M1156.9-47.9
		c-0.1-1.7-1.1-3.2-3-3.2c-1.6,0-2.8,1.4-3,3.2H1156.9z"/>
	<path fill="#3C3F43" d="M1159.9-45.4L1159.9-45.4c0-2,1.6-3,4-3c1.2,0,2,0.2,2.9,0.4v-0.3c0-1.7-1-2.5-2.8-2.5
		c-1.1,0-2,0.3-2.8,0.7l-0.4-1.1c1-0.5,2-0.8,3.4-0.8c1.3,0,2.3,0.3,3,1c0.6,0.6,1,1.5,1,2.7v5.7h-1.3V-44c-0.6,0.8-1.7,1.6-3.4,1.6
		C1161.6-42.5,1159.9-43.5,1159.9-45.4z M1166.7-46.1V-47c-0.7-0.2-1.6-0.4-2.7-0.4c-1.7,0-2.7,0.8-2.7,1.9l0,0
		c0,1.2,1.1,1.9,2.3,1.9C1165.3-43.6,1166.7-44.6,1166.7-46.1z"/>
	<path fill="#3C3F43" d="M1170.8-52h1.4v2.4c0.7-1.5,2-2.7,3.8-2.6v1.5h-0.1c-2,0-3.7,1.5-3.7,4.3v3.7h-1.4L1170.8-52L1170.8-52z"/>
	<path fill="#3C3F43" d="M1177.9-52h1.4v1.6c0.6-1,1.6-1.8,3.2-1.8c2.3,0,3.6,1.5,3.6,3.7v5.8h-1.4v-5.4c0-1.7-0.9-2.8-2.6-2.8
		c-1.6,0-2.8,1.2-2.8,2.9v5.3h-1.4L1177.9-52L1177.9-52z"/>
	<path fill="#3C3F43" d="M1188.3-47.3L1188.3-47.3c0-2.7,1.9-4.9,4.5-4.9c2.8,0,4.3,2.2,4.3,4.9c0,0.2,0,0.3,0,0.4h-7.4
		c0.2,2,1.6,3.2,3.3,3.2c1.3,0,2.2-0.5,2.9-1.3l0.9,0.8c-0.9,1-2.1,1.7-3.8,1.7C1190.4-42.5,1188.3-44.4,1188.3-47.3z M1195.7-47.9
		c-0.1-1.7-1.1-3.2-3-3.2c-1.6,0-2.8,1.4-3,3.2H1195.7z"/>
	<path fill="#3C3F43" d="M1199.4-52h1.4v2.4c0.7-1.5,2-2.7,3.8-2.6v1.5h-0.1c-2,0-3.7,1.5-3.7,4.3v3.7h-1.4L1199.4-52L1199.4-52z"/>
	<path fill="#3C3F43" d="M1205.7-43.9l0.7-1c1,0.8,2.1,1.2,3.2,1.2s1.9-0.6,1.9-1.5l0,0c0-0.9-1.1-1.3-2.3-1.6
		c-1.5-0.4-3.1-0.9-3.1-2.6l0,0c0-1.6,1.3-2.7,3.2-2.7c1.1,0,2.4,0.4,3.3,1l-0.6,1c-0.9-0.6-1.9-0.9-2.8-0.9c-1.1,0-1.8,0.6-1.8,1.4
		l0,0c0,0.9,1.2,1.2,2.4,1.6c1.4,0.4,3,1,3,2.7l0,0c0,1.8-1.5,2.8-3.3,2.8C1208.2-42.5,1206.8-43,1205.7-43.9z"/>
	<path fill="#3C3F43" d="M1221-45.2v-5.6h-1.3V-52h1.3v-2.8h1.4v2.8h3v1.2h-3v5.4c0,1.1,0.6,1.5,1.6,1.5c0.5,0,0.9-0.1,1.4-0.3v1.2
		c-0.5,0.3-1,0.4-1.7,0.4C1222.2-42.5,1221-43.3,1221-45.2z"/>
	<path fill="#3C3F43" d="M1227.1-47.3L1227.1-47.3c0-2.7,2.1-4.9,4.9-4.9s4.8,2.2,4.8,4.8l0,0c0,2.6-2.1,4.9-4.9,4.9
		S1227.1-44.7,1227.1-47.3z M1235.3-47.3L1235.3-47.3c0-2-1.5-3.7-3.5-3.7s-3.4,1.6-3.4,3.6l0,0c0,2,1.5,3.6,3.4,3.6
		C1233.9-43.7,1235.3-45.3,1235.3-47.3z"/>
	<path fill="#3C3F43" d="M1243.8-47.3L1243.8-47.3c0-2.7,2.1-4.9,4.8-4.9c1.8,0,2.9,0.7,3.7,1.7l-0.9,1c-0.7-0.8-1.6-1.4-2.8-1.4
		c-1.9,0-3.3,1.6-3.3,3.6l0,0c0,2,1.5,3.6,3.4,3.6c1.2,0,2.1-0.6,2.8-1.4l0.9,0.8c-0.9,1-2.1,1.8-3.8,1.8
		C1245.8-42.5,1243.8-44.7,1243.8-47.3z"/>
	<path fill="#3C3F43" d="M1253.9-47.3L1253.9-47.3c0-2.7,2.1-4.9,4.9-4.9s4.8,2.2,4.8,4.8l0,0c0,2.6-2.1,4.9-4.9,4.9
		S1253.9-44.7,1253.9-47.3z M1262.2-47.3L1262.2-47.3c0-2-1.5-3.7-3.5-3.7s-3.4,1.6-3.4,3.6l0,0c0,2,1.5,3.6,3.4,3.6
		C1260.8-43.7,1262.2-45.3,1262.2-47.3z"/>
	<path fill="#3C3F43" d="M1265.9-52h1.4v1.6c0.6-0.9,1.4-1.8,3-1.8c1.5,0,2.5,0.8,3,1.9c0.7-1,1.7-1.9,3.3-1.9
		c2.1,0,3.5,1.4,3.5,3.7v5.8h-1.4v-5.4c0-1.8-0.9-2.8-2.4-2.8c-1.4,0-2.6,1-2.6,2.9v5.4h-1.4v-5.5c0-1.7-0.9-2.8-2.4-2.8
		s-2.6,1.2-2.6,2.9v5.3h-1.4V-52L1265.9-52z"/>
	<path fill="#3C3F43" d="M1282.9-52h1.4v1.9c0.8-1.1,1.9-2.1,3.6-2.1c2.2,0,4.4,1.8,4.4,4.8l0,0c0,3-2.2,4.8-4.4,4.8
		c-1.7,0-2.8-0.9-3.6-2v4.7h-1.4V-52z M1290.9-47.3L1290.9-47.3c0-2.2-1.5-3.6-3.3-3.6c-1.7,0-3.4,1.5-3.4,3.6l0,0
		c0,2.2,1.6,3.6,3.4,3.6S1290.9-45.1,1290.9-47.3z"/>
	<path fill="#3C3F43" d="M1294.8-55.8h1.4v13.1h-1.4V-55.8z"/>
	<path fill="#3C3F43" d="M1298.7-47.3L1298.7-47.3c0-2.7,1.9-4.9,4.5-4.9c2.8,0,4.3,2.2,4.3,4.9c0,0.2,0,0.3,0,0.4h-7.4
		c0.2,2,1.6,3.2,3.3,3.2c1.3,0,2.2-0.5,2.9-1.3l0.9,0.8c-0.9,1-2.1,1.7-3.8,1.7C1300.8-42.5,1298.7-44.4,1298.7-47.3z M1306.1-47.9
		c-0.1-1.7-1.1-3.2-3-3.2c-1.6,0-2.8,1.4-3,3.2H1306.1z"/>
	<path fill="#3C3F43" d="M1310.2-45.2v-5.6h-1.3V-52h1.3v-2.8h1.4v2.8h3v1.2h-3v5.4c0,1.1,0.6,1.5,1.6,1.5c0.5,0,0.9-0.1,1.4-0.3
		v1.2c-0.5,0.3-1,0.4-1.7,0.4C1311.4-42.5,1310.2-43.3,1310.2-45.2z"/>
	<path fill="#3C3F43" d="M1316.3-47.3L1316.3-47.3c0-2.7,1.9-4.9,4.5-4.9c2.8,0,4.3,2.2,4.3,4.9c0,0.2,0,0.3,0,0.4h-7.4
		c0.2,2,1.6,3.2,3.3,3.2c1.3,0,2.2-0.5,2.9-1.3l0.9,0.8c-0.9,1-2.1,1.7-3.8,1.7C1318.4-42.5,1316.3-44.4,1316.3-47.3z M1323.7-47.9
		c-0.1-1.7-1.1-3.2-3-3.2c-1.6,0-2.8,1.4-3,3.2H1323.7z"/>
</g>
<g>
	<path fill="#3C3F43" d="M1113.1,240.2h1.3l5.7,12.7h-1.5l-1.5-3.3h-6.9l-1.5,3.3h-1.5L1113.1,240.2z M1116.7,248.3l-2.9-6.4
		l-2.9,6.4H1116.7z"/>
	<path fill="#3C3F43" d="M1121.5,248.3L1121.5,248.3c0-3.1,2.2-4.9,4.4-4.9c1.7,0,2.8,0.9,3.6,2v-5.6h1.4v13.1h-1.4V251
		c-0.8,1.1-1.9,2.1-3.6,2.1C1123.7,253.1,1121.5,251.3,1121.5,248.3z M1129.6,248.3L1129.6,248.3c0-2.2-1.6-3.6-3.4-3.6
		s-3.3,1.3-3.3,3.6l0,0c0,2.2,1.5,3.6,3.3,3.6C1127.9,251.9,1129.6,250.4,1129.6,248.3z"/>
	<path fill="#3C3F43" d="M1133,248.3L1133,248.3c0-3.1,2.2-4.9,4.4-4.9c1.7,0,2.8,0.9,3.6,2v-5.6h1.4v13.1h-1.4V251
		c-0.8,1.1-1.9,2.1-3.6,2.1C1135.2,253.1,1133,251.3,1133,248.3z M1141.1,248.3L1141.1,248.3c0-2.2-1.6-3.6-3.4-3.6
		s-3.3,1.3-3.3,3.6l0,0c0,2.2,1.5,3.6,3.3,3.6C1139.4,251.9,1141.1,250.4,1141.1,248.3z"/>
	<path fill="#3C3F43" d="M1149.5,248.3L1149.5,248.3c0-2.7,1.9-4.9,4.5-4.9c2.8,0,4.3,2.2,4.3,4.9c0,0.2,0,0.3,0,0.5h-7.4
		c0.2,2,1.6,3.2,3.3,3.2c1.3,0,2.2-0.5,2.9-1.3l0.9,0.8c-0.9,1-2.1,1.7-3.8,1.7C1151.5,253.1,1149.5,251.2,1149.5,248.3z
		 M1156.9,247.7c-0.1-1.7-1.1-3.2-3-3.2c-1.6,0-2.8,1.4-3,3.2H1156.9z"/>
	<path fill="#3C3F43" d="M1163.9,247.2l2.8-3.6h1.5l-3.5,4.6l3.7,4.8h-1.6l-2.9-3.8l-2.9,3.8h-1.5l3.6-4.7l-3.5-4.6h1.6
		L1163.9,247.2z"/>
	<path fill="#3C3F43" d="M1169.6,248.3L1169.6,248.3c0-2.7,1.9-4.9,4.5-4.9c2.8,0,4.3,2.2,4.3,4.9c0,0.2,0,0.3,0,0.5h-7.4
		c0.2,2,1.6,3.2,3.3,3.2c1.3,0,2.2-0.5,2.9-1.3l0.9,0.8c-0.9,1-2.1,1.7-3.8,1.7C1171.7,253.1,1169.6,251.2,1169.6,248.3z
		 M1177,247.7c-0.1-1.7-1.1-3.2-3-3.2c-1.6,0-2.8,1.4-3,3.2H1177z"/>
	<path fill="#3C3F43" d="M1180.4,243.6h1.4v2.4c0.7-1.5,2-2.7,3.8-2.6v1.5h-0.1c-2,0-3.7,1.5-3.7,4.3v3.7h-1.4L1180.4,243.6
		L1180.4,243.6z"/>
	<path fill="#3C3F43" d="M1186.7,248.3L1186.7,248.3c0-2.7,2.1-4.9,4.8-4.9c1.8,0,2.9,0.7,3.7,1.7l-0.9,1c-0.7-0.8-1.6-1.4-2.8-1.4
		c-1.9,0-3.3,1.6-3.3,3.6l0,0c0,2,1.5,3.6,3.4,3.6c1.2,0,2.1-0.6,2.8-1.4l0.9,0.8c-0.9,1-2.1,1.8-3.8,1.8
		C1188.7,253.1,1186.7,250.9,1186.7,248.3z"/>
	<path fill="#3C3F43" d="M1197.1,240h1.6v1.5h-1.6V240z M1197.2,243.6h1.4v9.3h-1.4V243.6z"/>
	<path fill="#3C3F43" d="M1200.6,251.7l0.7-1c1,0.8,2.1,1.2,3.2,1.2s1.9-0.6,1.9-1.5l0,0c0-0.9-1.1-1.3-2.3-1.6
		c-1.5-0.4-3.1-0.9-3.1-2.6l0,0c0-1.6,1.3-2.7,3.2-2.7c1.1,0,2.4,0.4,3.3,1l-0.6,1c-0.9-0.6-1.9-0.9-2.8-0.9c-1.1,0-1.8,0.6-1.8,1.4
		l0,0c0,0.9,1.2,1.2,2.4,1.6c1.4,0.4,3,1,3,2.7l0,0c0,1.8-1.5,2.8-3.3,2.8C1203.1,253.1,1201.7,252.6,1200.6,251.7z"/>
	<path fill="#3C3F43" d="M1209.3,248.3L1209.3,248.3c0-2.7,1.9-4.9,4.5-4.9c2.8,0,4.3,2.2,4.3,4.9c0,0.2,0,0.3,0,0.5h-7.4
		c0.2,2,1.6,3.2,3.3,3.2c1.3,0,2.2-0.5,2.9-1.3l0.9,0.8c-0.9,1-2.1,1.7-3.8,1.7C1211.4,253.1,1209.3,251.2,1209.3,248.3z
		 M1216.7,247.7c-0.1-1.7-1.1-3.2-3-3.2c-1.6,0-2.8,1.4-3,3.2H1216.7z"/>
	<path fill="#3C3F43" d="M1224.6,248.3L1224.6,248.3c0-3.1,2.2-4.9,4.4-4.9c1.7,0,2.8,0.9,3.6,2v-5.6h1.4v13.1h-1.4V251
		c-0.8,1.1-1.9,2.1-3.6,2.1C1226.8,253.1,1224.6,251.3,1224.6,248.3z M1232.6,248.3L1232.6,248.3c0-2.2-1.6-3.6-3.4-3.6
		s-3.3,1.3-3.3,3.6l0,0c0,2.2,1.5,3.6,3.3,3.6C1231,251.9,1232.6,250.4,1232.6,248.3z"/>
	<path fill="#3C3F43" d="M1236.1,248.3L1236.1,248.3c0-2.7,1.9-4.9,4.5-4.9c2.8,0,4.3,2.2,4.3,4.9c0,0.2,0,0.3,0,0.5h-7.4
		c0.2,2,1.6,3.2,3.3,3.2c1.3,0,2.2-0.5,2.9-1.3l0.9,0.8c-0.9,1-2.1,1.7-3.8,1.7C1238.1,253.1,1236.1,251.2,1236.1,248.3z
		 M1243.5,247.7c-0.1-1.7-1.1-3.2-3-3.2c-1.6,0-2.8,1.4-3,3.2H1243.5z"/>
	<path fill="#3C3F43" d="M1246.1,251.7l0.7-1c1,0.8,2.1,1.2,3.2,1.2s1.9-0.6,1.9-1.5l0,0c0-0.9-1.1-1.3-2.3-1.6
		c-1.5-0.4-3.1-0.9-3.1-2.6l0,0c0-1.6,1.3-2.7,3.2-2.7c1.1,0,2.4,0.4,3.3,1l-0.6,1c-0.9-0.6-1.9-0.9-2.8-0.9c-1.1,0-1.8,0.6-1.8,1.4
		l0,0c0,0.9,1.2,1.2,2.4,1.6c1.4,0.4,3,1,3,2.7l0,0c0,1.8-1.5,2.8-3.3,2.8C1248.6,253.1,1247.1,252.6,1246.1,251.7z"/>
	<path fill="#3C3F43" d="M1254.8,248.3L1254.8,248.3c0-2.7,2.1-4.9,4.8-4.9c1.8,0,2.9,0.7,3.7,1.7l-0.9,1c-0.7-0.8-1.6-1.4-2.8-1.4
		c-1.9,0-3.3,1.6-3.3,3.6l0,0c0,2,1.5,3.6,3.4,3.6c1.2,0,2.1-0.6,2.8-1.4l0.9,0.8c-0.9,1-2.1,1.8-3.8,1.8
		C1256.9,253.1,1254.8,250.9,1254.8,248.3z"/>
	<path fill="#3C3F43" d="M1265.2,243.6h1.4v2.4c0.7-1.5,2-2.7,3.8-2.6v1.5h-0.1c-2,0-3.7,1.5-3.7,4.3v3.7h-1.4L1265.2,243.6
		L1265.2,243.6z"/>
	<path fill="#3C3F43" d="M1272.1,240h1.6v1.5h-1.6V240z M1272.2,243.6h1.4v9.3h-1.4V243.6z"/>
	<path fill="#3C3F43" d="M1276.4,243.6h1.4v1.9c0.8-1.1,1.9-2.1,3.6-2.1c2.2,0,4.4,1.8,4.4,4.8l0,0c0,3-2.2,4.8-4.4,4.8
		c-1.7,0-2.8-0.9-3.6-2v4.7h-1.4V243.6z M1284.4,248.3L1284.4,248.3c0-2.2-1.5-3.6-3.3-3.6c-1.7,0-3.4,1.5-3.4,3.6l0,0
		c0,2.2,1.6,3.6,3.4,3.6C1282.9,251.9,1284.4,250.5,1284.4,248.3z"/>
	<path fill="#3C3F43" d="M1288.4,250.4v-5.6h-1.3v-1.2h1.3v-2.8h1.4v2.8h3v1.2h-3v5.4c0,1.1,0.6,1.5,1.6,1.5c0.5,0,0.9-0.1,1.4-0.3
		v1.2c-0.5,0.3-1,0.4-1.7,0.4C1289.5,253.1,1288.4,252.3,1288.4,250.4z"/>
	<path fill="#3C3F43" d="M1294.8,240h1.6v1.5h-1.6V240z M1294.9,243.6h1.4v9.3h-1.4V243.6z"/>
	<path fill="#3C3F43" d="M1298.5,248.3L1298.5,248.3c0-2.7,2.1-4.9,4.9-4.9s4.8,2.2,4.8,4.8l0,0c0,2.6-2.1,4.9-4.9,4.9
		S1298.5,250.9,1298.5,248.3z M1306.8,248.3L1306.8,248.3c0-2-1.5-3.7-3.5-3.7s-3.4,1.6-3.4,3.6l0,0c0,2,1.5,3.6,3.4,3.6
		C1305.4,251.9,1306.8,250.3,1306.8,248.3z"/>
	<path fill="#3C3F43" d="M1310.3,243.6h1.4v1.6c0.6-1,1.6-1.8,3.2-1.8c2.3,0,3.6,1.5,3.6,3.7v5.8h-1.4v-5.4c0-1.7-0.9-2.8-2.6-2.8
		c-1.6,0-2.8,1.2-2.8,2.9v5.3h-1.4L1310.3,243.6L1310.3,243.6z"/>
	<path fill="#3C3F43" d="M1320.1,251.7l0.7-1c1,0.8,2.1,1.2,3.2,1.2s1.9-0.6,1.9-1.5l0,0c0-0.9-1.1-1.3-2.3-1.6
		c-1.5-0.4-3.1-0.9-3.1-2.6l0,0c0-1.6,1.3-2.7,3.2-2.7c1.1,0,2.4,0.4,3.3,1l-0.6,1c-0.9-0.6-1.9-0.9-2.8-0.9c-1.1,0-1.8,0.6-1.8,1.4
		l0,0c0,0.9,1.2,1.2,2.4,1.6c1.4,0.4,3,1,3,2.7l0,0c0,1.8-1.5,2.8-3.3,2.8C1322.7,253.1,1321.2,252.6,1320.1,251.7z"/>
	<path fill="#3C3F43" d="M1108.3,264h1.6v1.5h-1.6V264z M1108.4,267.6h1.4v9.3h-1.4V267.6z"/>
	<path fill="#3C3F43" d="M1112.5,267.6h1.4v1.6c0.6-1,1.6-1.8,3.2-1.8c2.3,0,3.6,1.5,3.6,3.7v5.8h-1.4v-5.4c0-1.7-0.9-2.8-2.6-2.8
		c-1.6,0-2.8,1.2-2.8,2.9v5.3h-1.4L1112.5,267.6L1112.5,267.6z"/>
	<path fill="#3C3F43" d="M1128.4,264.3h1.4v5.6h7.3v-5.6h1.4v12.6h-1.4v-5.7h-7.3v5.7h-1.4V264.3z"/>
	<path fill="#3C3F43" d="M1145,265.6h-4.2v-1.3h9.9v1.3h-4.2v11.3h-1.4L1145,265.6L1145,265.6z"/>
	<path fill="#3C3F43" d="M1152.9,264.3h1.4l4.6,6.9l4.6-6.9h1.4v12.6h-1.4v-10.2l-4.6,6.8h-0.1l-4.6-6.7V277h-1.4L1152.9,264.3
		L1152.9,264.3z"/>
	<path fill="#3C3F43" d="M1168.1,264.3h1.4v11.3h7.1v1.3h-8.5V264.3L1168.1,264.3z"/>
	<path fill="#3C3F43" d="M1182.9,272.3L1182.9,272.3c0-2.7,2.1-4.9,4.9-4.9s4.8,2.2,4.8,4.8l0,0c0,2.6-2.1,4.9-4.9,4.9
		C1185,277.1,1182.9,274.9,1182.9,272.3z M1191.2,272.3L1191.2,272.3c0-2-1.5-3.7-3.5-3.7s-3.4,1.6-3.4,3.6l0,0c0,2,1.5,3.6,3.4,3.6
		C1189.8,275.9,1191.2,274.3,1191.2,272.3z"/>
	<path fill="#3C3F43" d="M1194.7,267.6h1.4v2.4c0.7-1.5,2-2.7,3.8-2.6v1.5h-0.1c-2,0-3.7,1.5-3.7,4.3v3.7h-1.4L1194.7,267.6
		L1194.7,267.6z"/>
	<path fill="#3C3F43" d="M1206.8,264.3h1.4l4.6,6.9l4.6-6.9h1.4v12.6h-1.4v-10.2l-4.6,6.8h-0.1l-4.6-6.7V277h-1.4L1206.8,264.3
		L1206.8,264.3z"/>
	<path fill="#3C3F43" d="M1221,274.2L1221,274.2c0-2,1.6-3,4-3c1.2,0,2,0.2,2.9,0.4v-0.3c0-1.7-1-2.5-2.8-2.5c-1.1,0-2,0.3-2.8,0.7
		l-0.4-1.1c1-0.5,2-0.8,3.4-0.8c1.3,0,2.3,0.3,3,1c0.6,0.6,1,1.5,1,2.7v5.7h-1.3v-1.4c-0.6,0.8-1.7,1.6-3.4,1.6
		C1222.8,277.1,1221,276.1,1221,274.2z M1227.9,273.5v-0.9c-0.7-0.2-1.6-0.4-2.7-0.4c-1.7,0-2.7,0.8-2.7,1.9l0,0
		c0,1.2,1.1,1.9,2.3,1.9C1226.5,276,1227.9,275,1227.9,273.5z"/>
	<path fill="#3C3F43" d="M1231.7,267.6h1.4v2.4c0.7-1.5,2-2.7,3.8-2.6v1.5h-0.1c-2,0-3.7,1.5-3.7,4.3v3.7h-1.4L1231.7,267.6
		L1231.7,267.6z"/>
	<path fill="#3C3F43" d="M1238.6,263.8h1.4v9.1l5-5.2h1.7l-3.9,4l4,5.3h-1.7l-3.3-4.3l-1.9,1.9v2.4h-1.4v-13.2H1238.6z"/>
	<path fill="#3C3F43" d="M1247.8,272.3L1247.8,272.3c0-3.1,2.2-4.9,4.4-4.9c1.7,0,2.8,0.9,3.6,2v-5.6h1.4v13.1h-1.4V275
		c-0.8,1.1-1.9,2.1-3.6,2.1C1250.1,277.1,1247.8,275.3,1247.8,272.3z M1255.9,272.3L1255.9,272.3c0-2.2-1.6-3.6-3.4-3.6
		s-3.3,1.3-3.3,3.6l0,0c0,2.2,1.5,3.6,3.3,3.6S1255.9,274.4,1255.9,272.3z"/>
	<path fill="#3C3F43" d="M1259.3,272.3L1259.3,272.3c0-2.7,2.1-4.9,4.9-4.9s4.8,2.2,4.8,4.8l0,0c0,2.6-2.1,4.9-4.9,4.9
		C1261.4,277.1,1259.3,274.9,1259.3,272.3z M1267.6,272.3L1267.6,272.3c0-2-1.5-3.7-3.5-3.7s-3.4,1.6-3.4,3.6l0,0
		c0,2,1.5,3.6,3.4,3.6C1266.2,275.9,1267.6,274.3,1267.6,272.3z"/>
	<path fill="#3C3F43" d="M1270.3,267.6h1.5l2.4,7.5l2.5-7.5h1.2l2.5,7.5l2.4-7.5h1.4l-3.3,9.4h-1.2l-2.5-7.3l-2.5,7.3h-1.2
		L1270.3,267.6z"/>
	<path fill="#3C3F43" d="M1286.2,267.6h1.4v1.6c0.6-1,1.6-1.8,3.2-1.8c2.3,0,3.6,1.5,3.6,3.7v5.8h-1.4v-5.4c0-1.7-0.9-2.8-2.6-2.8
		c-1.6,0-2.8,1.2-2.8,2.9v5.3h-1.4L1286.2,267.6L1286.2,267.6z"/>
</g>
<g>
	<path fill="#3C3F43" d="M684.4,247.5h1.5l3.6,10.5l3.5-10.5h1.2l3.5,10.5l3.6-10.5h1.5l-4.5,12.7h-1.2l-3.5-10.2l-3.5,10.2h-1.2
		L684.4,247.5z"/>
	<path fill="#3C3F43" d="M704.4,250.8h1.4v2.4c0.7-1.5,2-2.7,3.8-2.6v1.5h-0.1c-2,0-3.7,1.5-3.7,4.3v3.7h-1.4V250.8L704.4,250.8z"/>
	<path fill="#3C3F43" d="M711.1,247.3h1.6v1.5h-1.6V247.3z M711.2,250.8h1.4v9.3h-1.4V250.8z"/>
	<path fill="#3C3F43" d="M715.6,257.7V252h-1.3v-1.2h1.3V248h1.4v2.8h3v1.2h-3v5.4c0,1.1,0.6,1.5,1.6,1.5c0.5,0,0.9-0.1,1.4-0.3v1.2
		c-0.5,0.3-1,0.4-1.7,0.4C716.8,260.3,715.6,259.5,715.6,257.7z"/>
	<path fill="#3C3F43" d="M721.2,255.5L721.2,255.5c0-2.7,1.9-4.9,4.5-4.9c2.8,0,4.3,2.2,4.3,4.9c0,0.2,0,0.3,0,0.5h-7.4
		c0.2,2,1.6,3.2,3.3,3.2c1.3,0,2.2-0.5,2.9-1.3l0.9,0.8c-0.9,1-2.1,1.7-3.8,1.7C723.3,260.3,721.2,258.4,721.2,255.5z M728.6,255
		c-0.1-1.7-1.1-3.2-3-3.2c-1.6,0-2.8,1.4-3,3.2H728.6z"/>
	<path fill="#3C3F43" d="M736,255.5L736,255.5c0-2.7,2.1-4.9,4.8-4.9c1.8,0,2.9,0.7,3.7,1.7l-0.9,1c-0.7-0.8-1.6-1.4-2.8-1.4
		c-1.9,0-3.3,1.6-3.3,3.6l0,0c0,2,1.5,3.6,3.4,3.6c1.2,0,2.1-0.6,2.8-1.4l0.9,0.8c-0.9,1-2.1,1.8-3.8,1.8
		C738.1,260.3,736,258.1,736,255.5z"/>
	<path fill="#3C3F43" d="M746.1,256.6v-5.8h1.4v5.4c0,1.7,0.9,2.8,2.6,2.8c1.6,0,2.8-1.2,2.8-2.9v-5.3h1.4v9.3h-1.4v-1.6
		c-0.6,1-1.6,1.8-3.2,1.8C747.4,260.3,746.1,258.8,746.1,256.6z"/>
	<path fill="#3C3F43" d="M755.9,258.9l0.7-1c1,0.8,2.1,1.2,3.2,1.2c1.1,0,1.9-0.6,1.9-1.5l0,0c0-0.9-1.1-1.3-2.3-1.6
		c-1.5-0.4-3.1-0.9-3.1-2.6l0,0c0-1.6,1.3-2.7,3.2-2.7c1.1,0,2.4,0.4,3.3,1l-0.6,1c-0.9-0.6-1.9-0.9-2.8-0.9c-1.1,0-1.8,0.6-1.8,1.4
		l0,0c0,0.9,1.2,1.2,2.4,1.6c1.4,0.4,3,1,3,2.7l0,0c0,1.8-1.5,2.8-3.3,2.8C758.5,260.3,757,259.8,755.9,258.9z"/>
	<path fill="#3C3F43" d="M765.5,257.7V252h-1.3v-1.2h1.3V248h1.4v2.8h3v1.2h-3v5.4c0,1.1,0.6,1.5,1.6,1.5c0.5,0,0.9-0.1,1.4-0.3v1.2
		c-0.5,0.3-1,0.4-1.7,0.4C766.7,260.3,765.5,259.5,765.5,257.7z"/>
	<path fill="#3C3F43" d="M771.1,255.5L771.1,255.5c0-2.7,2.1-4.9,4.9-4.9s4.8,2.2,4.8,4.8l0,0c0,2.6-2.1,4.9-4.9,4.9
		C773.1,260.3,771.1,258.1,771.1,255.5z M779.4,255.5L779.4,255.5c0-2-1.5-3.7-3.5-3.7s-3.4,1.6-3.4,3.6l0,0c0,2,1.5,3.6,3.4,3.6
		C778,259.1,779.4,257.5,779.4,255.5z"/>
	<path fill="#3C3F43" d="M782.7,250.8h1.4v1.6c0.6-0.9,1.4-1.8,3-1.8c1.5,0,2.5,0.8,3,1.9c0.7-1,1.7-1.9,3.3-1.9
		c2.1,0,3.5,1.4,3.5,3.7v5.8h-1.4v-5.4c0-1.8-0.9-2.8-2.4-2.8c-1.4,0-2.6,1-2.6,2.9v5.4h-1.4v-5.5c0-1.7-0.9-2.8-2.4-2.8
		s-2.6,1.2-2.6,2.9v5.3h-1.4L782.7,250.8L782.7,250.8z"/>
	<path fill="#3C3F43" d="M804.4,257.7V252h-1.3v-1.2h1.3V248h1.4v2.8h3v1.2h-3v5.4c0,1.1,0.6,1.5,1.6,1.5c0.5,0,0.9-0.1,1.4-0.3v1.2
		c-0.5,0.3-1,0.4-1.7,0.4C805.6,260.3,804.4,259.5,804.4,257.7z"/>
	<path fill="#3C3F43" d="M810,255.5L810,255.5c0-2.7,1.9-4.9,4.5-4.9c2.8,0,4.3,2.2,4.3,4.9c0,0.2,0,0.3,0,0.5h-7.4
		c0.2,2,1.6,3.2,3.3,3.2c1.3,0,2.2-0.5,2.9-1.3l0.9,0.8c-0.9,1-2.1,1.7-3.8,1.7C812.1,260.3,810,258.4,810,255.5z M817.4,255
		c-0.1-1.7-1.1-3.2-3-3.2c-1.6,0-2.8,1.4-3,3.2H817.4z"/>
	<path fill="#3C3F43" d="M819.8,258.9l0.7-1c1,0.8,2.1,1.2,3.2,1.2c1.1,0,1.9-0.6,1.9-1.5l0,0c0-0.9-1.1-1.3-2.3-1.6
		c-1.5-0.4-3.1-0.9-3.1-2.6l0,0c0-1.6,1.3-2.7,3.2-2.7c1.1,0,2.4,0.4,3.3,1l-0.6,1c-0.9-0.6-1.9-0.9-2.8-0.9c-1.1,0-1.8,0.6-1.8,1.4
		l0,0c0,0.9,1.2,1.2,2.4,1.6c1.4,0.4,3,1,3,2.7l0,0c0,1.8-1.5,2.8-3.3,2.8C822.3,260.3,820.9,259.8,819.8,258.9z"/>
	<path fill="#3C3F43" d="M829.4,257.7V252h-1.3v-1.2h1.3V248h1.4v2.8h3v1.2h-3v5.4c0,1.1,0.6,1.5,1.6,1.5c0.5,0,0.9-0.1,1.4-0.3v1.2
		c-0.5,0.3-1,0.4-1.7,0.4C830.6,260.3,829.4,259.5,829.4,257.7z"/>
	<path fill="#3C3F43" d="M834.8,258.9l0.7-1c1,0.8,2.1,1.2,3.2,1.2c1.1,0,1.9-0.6,1.9-1.5l0,0c0-0.9-1.1-1.3-2.3-1.6
		c-1.5-0.4-3.1-0.9-3.1-2.6l0,0c0-1.6,1.3-2.7,3.2-2.7c1.1,0,2.4,0.4,3.3,1l-0.6,1c-0.9-0.6-1.9-0.9-2.8-0.9c-1.1,0-1.8,0.6-1.8,1.4
		l0,0c0,0.9,1.2,1.2,2.4,1.6c1.4,0.4,3,1,3,2.7l0,0c0,1.8-1.5,2.8-3.3,2.8C837.3,260.3,835.8,259.8,834.8,258.9z"/>
	<path fill="#3C3F43" d="M849.2,257.7V252h-1.3v-1.2h1.3V248h1.4v2.8h3v1.2h-3v5.4c0,1.1,0.6,1.5,1.6,1.5c0.5,0,0.9-0.1,1.4-0.3v1.2
		c-0.5,0.3-1,0.4-1.7,0.4C850.3,260.3,849.2,259.5,849.2,257.7z"/>
	<path fill="#3C3F43" d="M854.7,255.5L854.7,255.5c0-2.7,2.1-4.9,4.9-4.9c2.8,0,4.8,2.2,4.8,4.8l0,0c0,2.6-2.1,4.9-4.9,4.9
		C856.8,260.3,854.7,258.1,854.7,255.5z M863,255.5L863,255.5c0-2-1.5-3.7-3.5-3.7s-3.4,1.6-3.4,3.6l0,0c0,2,1.5,3.6,3.4,3.6
		C861.6,259.1,863,257.5,863,255.5z"/>
	<path fill="#3C3F43" d="M870.4,257.4L870.4,257.4c0-2,1.6-3,4-3c1.2,0,2,0.2,2.9,0.4v-0.3c0-1.7-1-2.5-2.8-2.5
		c-1.1,0-2,0.3-2.8,0.7l-0.4-1.1c1-0.5,2-0.8,3.4-0.8c1.3,0,2.3,0.3,3,1c0.6,0.6,1,1.5,1,2.7v5.7h-1.3v-1.4
		c-0.6,0.8-1.7,1.6-3.4,1.6C872.1,260.3,870.4,259.3,870.4,257.4z M877.2,256.7v-0.9c-0.7-0.2-1.6-0.4-2.7-0.4
		c-1.7,0-2.7,0.8-2.7,1.9l0,0c0,1.2,1.1,1.9,2.3,1.9C875.8,259.2,877.2,258.2,877.2,256.7z"/>
	<path fill="#3C3F43" d="M880.7,256.6v-5.8h1.4v5.4c0,1.7,0.9,2.8,2.6,2.8c1.6,0,2.8-1.2,2.8-2.9v-5.3h1.4v9.3h-1.4v-1.6
		c-0.6,1-1.6,1.8-3.2,1.8C882.1,260.3,880.7,258.8,880.7,256.6z"/>
	<path fill="#3C3F43" d="M891.8,257.7V252h-1.3v-1.2h1.3V248h1.4v2.8h3v1.2h-3v5.4c0,1.1,0.6,1.5,1.6,1.5c0.5,0,0.9-0.1,1.4-0.3v1.2
		c-0.5,0.3-1,0.4-1.7,0.4C893,260.3,891.8,259.5,891.8,257.7z"/>
	<path fill="#3C3F43" d="M897.4,255.5L897.4,255.5c0-2.7,2.1-4.9,4.9-4.9c2.8,0,4.8,2.2,4.8,4.8l0,0c0,2.6-2.1,4.9-4.9,4.9
		C899.4,260.3,897.4,258.1,897.4,255.5z M905.7,255.5L905.7,255.5c0-2-1.5-3.7-3.5-3.7s-3.4,1.6-3.4,3.6l0,0c0,2,1.5,3.6,3.4,3.6
		C904.3,259.1,905.7,257.5,905.7,255.5z"/>
	<path fill="#3C3F43" d="M909,250.8h1.4v1.6c0.6-0.9,1.4-1.8,3-1.8c1.5,0,2.5,0.8,3,1.9c0.7-1,1.7-1.9,3.3-1.9
		c2.1,0,3.5,1.4,3.5,3.7v5.8h-1.4v-5.4c0-1.8-0.9-2.8-2.4-2.8c-1.4,0-2.6,1-2.6,2.9v5.4h-1.4v-5.5c0-1.7-0.9-2.8-2.4-2.8
		s-2.6,1.2-2.6,2.9v5.3H909V250.8L909,250.8z"/>
	<path fill="#3C3F43" d="M924.8,257.4L924.8,257.4c0-2,1.6-3,4-3c1.2,0,2,0.2,2.9,0.4v-0.3c0-1.7-1-2.5-2.8-2.5
		c-1.1,0-2,0.3-2.8,0.7l-0.4-1.1c1-0.5,2-0.8,3.4-0.8c1.3,0,2.3,0.3,3,1c0.6,0.6,1,1.5,1,2.7v5.7h-1.3v-1.4
		c-0.6,0.8-1.7,1.6-3.4,1.6C926.5,260.3,924.8,259.3,924.8,257.4z M931.6,256.7v-0.9c-0.7-0.2-1.6-0.4-2.7-0.4
		c-1.7,0-2.7,0.8-2.7,1.9l0,0c0,1.2,1.1,1.9,2.3,1.9C930.2,259.2,931.6,258.2,931.6,256.7z"/>
	<path fill="#3C3F43" d="M935.7,257.7V252h-1.3v-1.2h1.3V248h1.4v2.8h3v1.2h-3v5.4c0,1.1,0.6,1.5,1.6,1.5c0.5,0,0.9-0.1,1.4-0.3v1.2
		c-0.5,0.3-1,0.4-1.7,0.4C936.9,260.3,935.7,259.5,935.7,257.7z"/>
	<path fill="#3C3F43" d="M941.9,247.3h1.6v1.5h-1.6V247.3z M942,250.8h1.4v9.3H942V250.8z"/>
	<path fill="#3C3F43" d="M945.4,255.5L945.4,255.5c0-2.7,2.1-4.9,4.8-4.9c1.8,0,2.9,0.7,3.7,1.7l-0.9,1c-0.7-0.8-1.6-1.4-2.8-1.4
		c-1.9,0-3.3,1.6-3.3,3.6l0,0c0,2,1.5,3.6,3.4,3.6c1.2,0,2.1-0.6,2.8-1.4l0.9,0.8c-0.9,1-2.1,1.8-3.8,1.8
		C947.5,260.3,945.4,258.1,945.4,255.5z"/>
	<path fill="#3C3F43" d="M955,257.4L955,257.4c0-2,1.6-3,4-3c1.2,0,2,0.2,2.9,0.4v-0.3c0-1.7-1-2.5-2.8-2.5c-1.1,0-2,0.3-2.8,0.7
		l-0.4-1.1c1-0.5,2-0.8,3.4-0.8c1.3,0,2.3,0.3,3,1c0.6,0.6,1,1.5,1,2.7v5.7H962v-1.4c-0.6,0.8-1.7,1.6-3.4,1.6
		C956.7,260.3,955,259.3,955,257.4z M961.8,256.7v-0.9c-0.7-0.2-1.6-0.4-2.7-0.4c-1.7,0-2.7,0.8-2.7,1.9l0,0c0,1.2,1.1,1.9,2.3,1.9
		C960.4,259.2,961.8,258.2,961.8,256.7z"/>
	<path fill="#3C3F43" d="M965.6,247h1.4v13.1h-1.4V247z"/>
	<path fill="#3C3F43" d="M969.7,247h1.4v13.1h-1.4V247z"/>
	<path fill="#3C3F43" d="M980.6,250.8h1.5l-3.9,9.6c-0.8,1.9-1.7,2.6-3.1,2.6c-0.8,0-1.4-0.2-2-0.5l0.5-1.1c0.5,0.2,0.9,0.3,1.5,0.3
		c0.8,0,1.4-0.4,1.9-1.7l-4.2-9.3h1.5l3.4,7.8L980.6,250.8z"/>
	<path fill="#3C3F43" d="M684.2,274.8h1.5l3.1,7.7l3.1-7.7h1.5l-4.1,9.4h-1.2L684.2,274.8z"/>
	<path fill="#3C3F43" d="M694.5,279.5L694.5,279.5c0-2.7,1.9-4.9,4.5-4.9c2.8,0,4.3,2.2,4.3,4.9c0,0.2,0,0.3,0,0.5h-7.4
		c0.2,2,1.6,3.2,3.3,3.2c1.3,0,2.2-0.5,2.9-1.3l0.9,0.8c-0.9,1-2.1,1.7-3.8,1.7C696.5,284.3,694.5,282.4,694.5,279.5z M701.9,279
		c-0.1-1.7-1.1-3.2-3-3.2c-1.6,0-2.8,1.4-3,3.2H701.9z"/>
	<path fill="#3C3F43" d="M705.1,274.8h1.4v2.4c0.7-1.5,2-2.7,3.8-2.6v1.5h-0.1c-2,0-3.7,1.5-3.7,4.3v3.7h-1.4V274.8L705.1,274.8z"/>
	<path fill="#3C3F43" d="M711.8,271.3h1.6v1.5h-1.6V271.3z M711.8,274.8h1.4v9.3h-1.4V274.8z"/>
	<path fill="#3C3F43" d="M716.3,276H715v-1.2h1.3V274c0-1.1,0.3-1.9,0.8-2.4s1.2-0.7,2-0.7c0.6,0,1.1,0.1,1.5,0.2v1.2
		c-0.5-0.1-0.9-0.2-1.4-0.2c-1.1,0-1.6,0.6-1.6,2v0.8h3v1.2h-2.9v8.1h-1.4V276L716.3,276z"/>
	<path fill="#3C3F43" d="M728.8,274.8h1.5l-3.9,9.6c-0.8,1.9-1.7,2.6-3.1,2.6c-0.8,0-1.4-0.2-2-0.5l0.5-1.1c0.5,0.2,0.9,0.3,1.5,0.3
		c0.8,0,1.3-0.4,1.9-1.7l-4.2-9.3h1.5l3.4,7.8L728.8,274.8z"/>
	<path fill="#3C3F43" d="M737.1,281.7V276h-1.3v-1.2h1.3V272h1.4v2.8h3v1.2h-3v5.4c0,1.1,0.6,1.5,1.6,1.5c0.5,0,0.9-0.1,1.4-0.3v1.2
		c-0.5,0.3-1,0.4-1.7,0.4C738.2,284.3,737.1,283.5,737.1,281.7z"/>
	<path fill="#3C3F43" d="M743.2,271h1.4v5.5c0.6-1,1.6-1.8,3.2-1.8c2.3,0,3.6,1.5,3.6,3.7v5.8H750v-5.4c0-1.7-0.9-2.8-2.6-2.8
		c-1.6,0-2.8,1.2-2.8,2.9v5.3h-1.4V271L743.2,271z"/>
	<path fill="#3C3F43" d="M753.1,279.5L753.1,279.5c0-2.7,1.9-4.9,4.5-4.9c2.8,0,4.3,2.2,4.3,4.9c0,0.2,0,0.3,0,0.5h-7.4
		c0.2,2,1.6,3.2,3.3,3.2c1.3,0,2.2-0.5,2.9-1.3l0.9,0.8c-0.9,1-2.1,1.7-3.8,1.7C755.2,284.3,753.1,282.4,753.1,279.5z M760.5,279
		c-0.1-1.7-1.1-3.2-3-3.2c-1.6,0-2.8,1.4-3,3.2H760.5z"/>
	<path fill="#3C3F43" d="M767.9,279.5L767.9,279.5c0-2.7,1.9-4.9,4.5-4.9c2.8,0,4.3,2.2,4.3,4.9c0,0.2,0,0.3,0,0.5h-7.4
		c0.2,2,1.6,3.2,3.3,3.2c1.3,0,2.2-0.5,2.9-1.3l0.9,0.8c-0.9,1-2.1,1.7-3.8,1.7C770,284.3,767.9,282.4,767.9,279.5z M775.3,279
		c-0.1-1.7-1.1-3.2-3-3.2c-1.6,0-2.8,1.4-3,3.2H775.3z"/>
	<path fill="#3C3F43" d="M782.1,278.5l2.8-3.6h1.5l-3.5,4.6l3.7,4.8H785l-2.9-3.8l-2.9,3.8h-1.5l3.6-4.7l-3.5-4.6h1.6L782.1,278.5z"
		/>
	<path fill="#3C3F43" d="M787.6,279.5L787.6,279.5c0-2.7,1.9-4.9,4.5-4.9c2.8,0,4.3,2.2,4.3,4.9c0,0.2,0,0.3,0,0.5H789
		c0.2,2,1.6,3.2,3.3,3.2c1.3,0,2.2-0.5,2.9-1.3l0.9,0.8c-0.9,1-2.1,1.7-3.8,1.7C789.7,284.3,787.6,282.4,787.6,279.5z M795,279
		c-0.1-1.7-1.1-3.2-3-3.2c-1.6,0-2.8,1.4-3,3.2H795z"/>
	<path fill="#3C3F43" d="M798.2,274.8h1.4v2.4c0.7-1.5,2-2.7,3.8-2.6v1.5h-0.1c-2,0-3.7,1.5-3.7,4.3v3.7h-1.4L798.2,274.8
		L798.2,274.8z"/>
	<path fill="#3C3F43" d="M804.3,279.5L804.3,279.5c0-2.7,2.1-4.9,4.8-4.9c1.8,0,2.9,0.7,3.7,1.7l-0.9,1c-0.7-0.8-1.6-1.4-2.8-1.4
		c-1.9,0-3.3,1.6-3.3,3.6l0,0c0,2,1.5,3.6,3.4,3.6c1.2,0,2.1-0.6,2.8-1.4l0.9,0.8c-0.9,1-2.1,1.8-3.8,1.8
		C806.4,284.3,804.3,282.1,804.3,279.5z"/>
	<path fill="#3C3F43" d="M814.6,271.3h1.6v1.5h-1.6V271.3z M814.7,274.8h1.4v9.3h-1.4V274.8z"/>
	<path fill="#3C3F43" d="M817.9,282.9l0.7-1c1,0.8,2.1,1.2,3.2,1.2c1.1,0,1.9-0.6,1.9-1.5l0,0c0-0.9-1.1-1.3-2.3-1.6
		c-1.5-0.4-3.1-0.9-3.1-2.6l0,0c0-1.6,1.3-2.7,3.2-2.7c1.1,0,2.4,0.4,3.3,1l-0.6,1c-0.9-0.6-1.9-0.9-2.8-0.9c-1.1,0-1.8,0.6-1.8,1.4
		l0,0c0,0.9,1.2,1.2,2.4,1.6c1.4,0.4,3,1,3,2.7l0,0c0,1.8-1.5,2.8-3.3,2.8C820.4,284.3,818.9,283.8,817.9,282.9z"/>
	<path fill="#3C3F43" d="M826.4,279.5L826.4,279.5c0-2.7,1.9-4.9,4.5-4.9c2.8,0,4.3,2.2,4.3,4.9c0,0.2,0,0.3,0,0.5h-7.4
		c0.2,2,1.6,3.2,3.3,3.2c1.3,0,2.2-0.5,2.9-1.3l0.9,0.8c-0.9,1-2.1,1.7-3.8,1.7C828.5,284.3,826.4,282.4,826.4,279.5z M833.8,279
		c-0.1-1.7-1.1-3.2-3-3.2c-1.6,0-2.8,1.4-3,3.2H833.8z"/>
	<path fill="#3C3F43" d="M836.2,282.9l0.7-1c1,0.8,2.1,1.2,3.2,1.2c1.1,0,1.9-0.6,1.9-1.5l0,0c0-0.9-1.1-1.3-2.3-1.6
		c-1.5-0.4-3.1-0.9-3.1-2.6l0,0c0-1.6,1.3-2.7,3.2-2.7c1.1,0,2.4,0.4,3.3,1l-0.6,1c-0.9-0.6-1.9-0.9-2.8-0.9c-1.1,0-1.8,0.6-1.8,1.4
		l0,0c0,0.9,1.2,1.2,2.4,1.6c1.4,0.4,3,1,3,2.7l0,0c0,1.8-1.5,2.8-3.3,2.8C838.7,284.3,837.3,283.8,836.2,282.9z"/>
	<path fill="#3C3F43" d="M844.6,285.7c0.9-0.3,1.3-0.8,1.2-1.6h-0.6v-1.9h1.7v1.6c0,1.5-0.6,2.2-2,2.5L844.6,285.7z"/>
	<path fill="#3C3F43" d="M853.1,274.8h1.5l2.4,7.5l2.5-7.5h1.2l2.5,7.5l2.4-7.5h1.4l-3.3,9.4h-1.2l-2.5-7.3l-2.5,7.3h-1.2
		L853.1,274.8z"/>
	<path fill="#3C3F43" d="M868.8,271.3h1.6v1.5h-1.6V271.3z M868.9,274.8h1.4v9.3h-1.4V274.8z"/>
	<path fill="#3C3F43" d="M873.3,281.7V276H872v-1.2h1.3V272h1.4v2.8h3v1.2h-3v5.4c0,1.1,0.6,1.5,1.6,1.5c0.5,0,0.9-0.1,1.4-0.3v1.2
		c-0.5,0.3-1,0.4-1.7,0.4C874.5,284.3,873.3,283.5,873.3,281.7z"/>
	<path fill="#3C3F43" d="M879.5,271h1.4v5.5c0.6-1,1.6-1.8,3.2-1.8c2.3,0,3.6,1.5,3.6,3.7v5.8h-1.4v-5.4c0-1.7-0.9-2.8-2.6-2.8
		c-1.6,0-2.8,1.2-2.8,2.9v5.3h-1.4V271z"/>
	<path fill="#3C3F43" d="M895.2,281.7V276h-1.3v-1.2h1.3V272h1.4v2.8h3v1.2h-3v5.4c0,1.1,0.6,1.5,1.6,1.5c0.5,0,0.9-0.1,1.4-0.3v1.2
		c-0.5,0.3-1,0.4-1.7,0.4C896.3,284.3,895.2,283.5,895.2,281.7z"/>
	<path fill="#3C3F43" d="M901.4,271h1.4v5.5c0.6-1,1.6-1.8,3.2-1.8c2.3,0,3.6,1.5,3.6,3.7v5.8h-1.4v-5.4c0-1.7-0.9-2.8-2.6-2.8
		c-1.6,0-2.8,1.2-2.8,2.9v5.3h-1.4V271z"/>
	<path fill="#3C3F43" d="M911.2,279.5L911.2,279.5c0-2.7,1.9-4.9,4.5-4.9c2.8,0,4.3,2.2,4.3,4.9c0,0.2,0,0.3,0,0.5h-7.4
		c0.2,2,1.6,3.2,3.3,3.2c1.3,0,2.2-0.5,2.9-1.3l0.9,0.8c-0.9,1-2.1,1.7-3.8,1.7C913.3,284.3,911.2,282.4,911.2,279.5z M918.6,279
		c-0.1-1.7-1.1-3.2-3-3.2c-1.6,0-2.8,1.4-3,3.2H918.6z"/>
	<path fill="#3C3F43" d="M926.6,271h1.4v5.5c0.6-1,1.6-1.8,3.2-1.8c2.3,0,3.6,1.5,3.6,3.7v5.8h-1.4v-5.4c0-1.7-0.9-2.8-2.6-2.8
		c-1.6,0-2.8,1.2-2.8,2.9v5.3h-1.4V271z"/>
	<path fill="#3C3F43" d="M936.5,279.5L936.5,279.5c0-2.7,1.9-4.9,4.5-4.9c2.8,0,4.3,2.2,4.3,4.9c0,0.2,0,0.3,0,0.5h-7.4
		c0.2,2,1.6,3.2,3.3,3.2c1.3,0,2.2-0.5,2.9-1.3l0.9,0.8c-0.9,1-2.1,1.7-3.8,1.7C938.6,284.3,936.5,282.4,936.5,279.5z M943.9,279
		c-0.1-1.7-1.1-3.2-3-3.2c-1.6,0-2.8,1.4-3,3.2H943.9z"/>
	<path fill="#3C3F43" d="M947.2,271h1.4v13.1h-1.4V271z"/>
	<path fill="#3C3F43" d="M951.2,274.8h1.4v1.9c0.8-1.1,1.9-2.1,3.6-2.1c2.2,0,4.4,1.8,4.4,4.8l0,0c0,3-2.2,4.8-4.4,4.8
		c-1.7,0-2.8-0.9-3.6-2v4.7h-1.4V274.8z M959.2,279.5L959.2,279.5c0-2.2-1.5-3.6-3.3-3.6c-1.7,0-3.4,1.5-3.4,3.6l0,0
		c0,2.2,1.6,3.6,3.4,3.6S959.2,281.7,959.2,279.5z"/>
	<path fill="#3C3F43" d="M684.5,303.5L684.5,303.5c0-2.7,2.1-4.9,4.9-4.9s4.8,2.2,4.8,4.8l0,0c0,2.6-2.1,4.9-4.9,4.9
		C686.6,308.3,684.5,306.1,684.5,303.5z M692.8,303.5L692.8,303.5c0-2-1.5-3.7-3.5-3.7s-3.4,1.6-3.4,3.6l0,0c0,2,1.5,3.6,3.4,3.6
		C691.4,307.1,692.8,305.5,692.8,303.5z"/>
	<path fill="#3C3F43" d="M696.6,300h-1.3v-1.2h1.3V298c0-1.1,0.3-1.9,0.8-2.4s1.2-0.7,2-0.7c0.6,0,1.1,0.1,1.5,0.2v1.2
		c-0.5-0.1-0.9-0.2-1.4-0.2c-1.1,0-1.6,0.6-1.6,2v0.8h3v1.2H698v8.1h-1.4V300L696.6,300z"/>
	<path fill="#3C3F43" d="M706.1,305.4L706.1,305.4c0-2,1.6-3,4-3c1.2,0,2,0.2,2.9,0.4v-0.3c0-1.7-1-2.5-2.8-2.5
		c-1.1,0-2,0.3-2.8,0.7l-0.4-1.1c1-0.5,2-0.8,3.4-0.8c1.3,0,2.3,0.3,3,1c0.6,0.6,1,1.5,1,2.7v5.7h-1.3v-1.4
		c-0.6,0.8-1.7,1.6-3.4,1.6C707.9,308.3,706.1,307.3,706.1,305.4z M713,304.7v-0.9c-0.7-0.2-1.6-0.4-2.7-0.4c-1.7,0-2.7,0.8-2.7,1.9
		l0,0c0,1.2,1.1,1.9,2.3,1.9C711.6,307.2,713,306.2,713,304.7z"/>
	<path fill="#3C3F43" d="M721.9,305.7V300h-1.3v-1.2h1.3V296h1.4v2.8h3v1.2h-3v5.4c0,1.1,0.6,1.5,1.6,1.5c0.5,0,0.9-0.1,1.4-0.3v1.2
		c-0.5,0.3-1,0.4-1.7,0.4C723,308.3,721.9,307.5,721.9,305.7z"/>
	<path fill="#3C3F43" d="M727.5,303.5L727.5,303.5c0-2.7,1.9-4.9,4.5-4.9c2.8,0,4.3,2.2,4.3,4.9c0,0.2,0,0.3,0,0.5h-7.4
		c0.2,2,1.6,3.2,3.3,3.2c1.3,0,2.2-0.5,2.9-1.3l0.9,0.8c-0.9,1-2.1,1.7-3.8,1.7C729.6,308.3,727.5,306.4,727.5,303.5z M734.9,303
		c-0.1-1.7-1.1-3.2-3-3.2c-1.6,0-2.8,1.4-3,3.2H734.9z"/>
	<path fill="#3C3F43" d="M737.3,306.9l0.7-1c1,0.8,2.1,1.2,3.2,1.2c1.1,0,1.9-0.6,1.9-1.5l0,0c0-0.9-1.1-1.3-2.3-1.6
		c-1.5-0.4-3.1-0.9-3.1-2.6l0,0c0-1.6,1.3-2.7,3.2-2.7c1.1,0,2.4,0.4,3.3,1l-0.6,1c-0.9-0.6-1.9-0.9-2.8-0.9c-1.1,0-1.8,0.6-1.8,1.4
		l0,0c0,0.9,1.2,1.2,2.4,1.6c1.4,0.4,3,1,3,2.7l0,0c0,1.8-1.5,2.8-3.3,2.8C739.8,308.3,738.3,307.8,737.3,306.9z"/>
	<path fill="#3C3F43" d="M746.9,305.7V300h-1.3v-1.2h1.3V296h1.4v2.8h3v1.2h-3v5.4c0,1.1,0.6,1.5,1.6,1.5c0.5,0,0.9-0.1,1.4-0.3v1.2
		c-0.5,0.3-1,0.4-1.7,0.4C748,308.3,746.9,307.5,746.9,305.7z"/>
	<path fill="#3C3F43" d="M753.1,295.3h1.6v1.5h-1.6V295.3z M753.2,298.8h1.4v9.3h-1.4V298.8z"/>
	<path fill="#3C3F43" d="M757.2,298.8h1.4v1.6c0.6-1,1.6-1.8,3.2-1.8c2.3,0,3.6,1.5,3.6,3.7v5.8H764v-5.4c0-1.7-0.9-2.8-2.6-2.8
		c-1.6,0-2.8,1.2-2.8,2.9v5.3h-1.4V298.8z"/>
	<path fill="#3C3F43" d="M767.5,309.7l0.6-1.1c1.1,0.8,2.3,1.2,3.6,1.2c2.1,0,3.4-1.1,3.4-3.3v-1.1c-0.8,1.1-1.9,2-3.7,2
		c-2.2,0-4.4-1.7-4.4-4.4l0,0c0-2.7,2.2-4.4,4.4-4.4c1.7,0,2.9,0.9,3.6,1.9v-1.7h1.4v7.7c0,1.4-0.4,2.5-1.2,3.3
		c-0.8,0.8-2.1,1.2-3.5,1.2C770.2,311,768.7,310.6,767.5,309.7z M775.1,303L775.1,303c0-1.9-1.7-3.2-3.4-3.2c-1.7,0-3.2,1.2-3.2,3.1
		l0,0c0,1.9,1.5,3.2,3.2,3.2C773.5,306.2,775.1,304.9,775.1,303z"/>
	<path fill="#3C3F43" d="M784.2,300h-1.3v-1.2h1.3V298c0-1.1,0.3-1.9,0.8-2.4s1.2-0.7,2-0.7c0.6,0,1.1,0.1,1.5,0.2v1.2
		c-0.5-0.1-0.9-0.2-1.4-0.2c-1.1,0-1.6,0.6-1.6,2v0.8h3v1.2h-2.9v8.1h-1.4L784.2,300L784.2,300z"/>
	<path fill="#3C3F43" d="M789.7,298.8h1.4v2.4c0.7-1.5,2-2.7,3.8-2.6v1.5h-0.1c-2,0-3.7,1.5-3.7,4.3v3.7h-1.4V298.8L789.7,298.8z"/>
	<path fill="#3C3F43" d="M795.6,305.4L795.6,305.4c0-2,1.6-3,4-3c1.2,0,2,0.2,2.9,0.4v-0.3c0-1.7-1-2.5-2.8-2.5
		c-1.1,0-2,0.3-2.8,0.7l-0.4-1.1c1-0.5,2-0.8,3.4-0.8c1.3,0,2.3,0.3,3,1c0.6,0.6,1,1.5,1,2.7v5.7h-1.3v-1.4
		c-0.6,0.8-1.7,1.6-3.4,1.6C797.4,308.3,795.6,307.3,795.6,305.4z M802.5,304.7v-0.9c-0.7-0.2-1.6-0.4-2.7-0.4
		c-1.7,0-2.7,0.8-2.7,1.9l0,0c0,1.2,1.1,1.9,2.3,1.9C801.1,307.2,802.5,306.2,802.5,304.7z"/>
	<path fill="#3C3F43" d="M806.1,298.8h1.4v1.6c0.6-0.9,1.4-1.8,3-1.8c1.5,0,2.5,0.8,3,1.9c0.7-1,1.7-1.9,3.3-1.9
		c2.1,0,3.5,1.4,3.5,3.7v5.8h-1.4v-5.4c0-1.8-0.9-2.8-2.4-2.8c-1.4,0-2.6,1-2.6,2.9v5.4h-1.4v-5.5c0-1.7-0.9-2.8-2.4-2.8
		s-2.6,1.2-2.6,2.9v5.3h-1.4V298.8L806.1,298.8z"/>
	<path fill="#3C3F43" d="M822,303.5L822,303.5c0-2.7,1.9-4.9,4.5-4.9c2.8,0,4.3,2.2,4.3,4.9c0,0.2,0,0.3,0,0.5h-7.4
		c0.2,2,1.6,3.2,3.3,3.2c1.3,0,2.2-0.5,2.9-1.3l0.9,0.8c-0.9,1-2.1,1.7-3.8,1.7C824.1,308.3,822,306.4,822,303.5z M829.4,303
		c-0.1-1.7-1.1-3.2-3-3.2c-1.6,0-2.8,1.4-3,3.2H829.4z"/>
	<path fill="#3C3F43" d="M831.9,298.8h1.5l2.4,7.5l2.5-7.5h1.2l2.5,7.5l2.4-7.5h1.4l-3.3,9.4h-1.2l-2.5-7.3l-2.5,7.3h-1.2
		L831.9,298.8z"/>
	<path fill="#3C3F43" d="M846.9,303.5L846.9,303.5c0-2.7,2.1-4.9,4.9-4.9c2.8,0,4.8,2.2,4.8,4.8l0,0c0,2.6-2.1,4.9-4.9,4.9
		C849,308.3,846.9,306.1,846.9,303.5z M855.2,303.5L855.2,303.5c0-2-1.5-3.7-3.5-3.7s-3.4,1.6-3.4,3.6l0,0c0,2,1.5,3.6,3.4,3.6
		C853.8,307.1,855.2,305.5,855.2,303.5z"/>
	<path fill="#3C3F43" d="M858.5,298.8h1.4v2.4c0.7-1.5,2-2.7,3.8-2.6v1.5h-0.1c-2,0-3.7,1.5-3.7,4.3v3.7h-1.4V298.8L858.5,298.8z"/>
	<path fill="#3C3F43" d="M865.2,295h1.4v9.1l5-5.2h1.7l-3.9,4l4,5.3h-1.7l-3.3-4.3l-1.9,1.9v2.4h-1.4L865.2,295L865.2,295z"/>
</g>
<g>
	<path fill="#3C3F43" d="M390.4,491.9l0.9-1c1.3,1.2,2.6,1.8,4.3,1.8c1.7,0,2.8-0.9,2.8-2.1l0,0c0-1.2-0.6-1.8-3.3-2.4
		c-2.9-0.6-4.2-1.6-4.2-3.6l0,0c0-2,1.7-3.4,4.1-3.4c1.8,0,3.2,0.5,4.4,1.5l-0.8,1.1c-1.2-1-2.3-1.4-3.6-1.4c-1.6,0-2.7,0.9-2.7,2
		l0,0c0,1.2,0.6,1.9,3.4,2.4c2.8,0.6,4.1,1.6,4.1,3.6l0,0c0,2.2-1.8,3.6-4.3,3.6C393.6,494,392,493.3,390.4,491.9z"/>
	<path fill="#3C3F43" d="M402.6,480.6h1.4v5.5c0.6-1,1.6-1.8,3.2-1.8c2.3,0,3.6,1.5,3.6,3.7v5.8h-1.5v-5.4c0-1.7-0.9-2.8-2.6-2.8
		c-1.6,0-2.8,1.2-2.8,2.9v5.3h-1.4L402.6,480.6L402.6,480.6z"/>
	<path fill="#3C3F43" d="M412.9,491.1L412.9,491.1c0-2,1.6-3,4-3c1.2,0,2,0.2,2.9,0.4v-0.3c0-1.7-1-2.5-2.8-2.5
		c-1.1,0-2,0.3-2.8,0.7l-0.4-1.1c1-0.5,2-0.8,3.4-0.8c1.3,0,2.3,0.3,3,1c0.6,0.6,1,1.5,1,2.7v5.7h-1.3v-1.4
		c-0.6,0.8-1.7,1.6-3.4,1.6C414.7,494,412.9,493,412.9,491.1z M419.8,490.4v-0.9c-0.7-0.2-1.6-0.4-2.7-0.4c-1.7,0-2.7,0.8-2.7,1.9
		l0,0c0,1.2,1.1,1.9,2.3,1.9C418.4,492.9,419.8,491.8,419.8,490.4z"/>
	<path fill="#3C3F43" d="M424.1,484.5h1.4v2.4c0.7-1.5,2-2.7,3.8-2.6v1.5h-0.1c-2,0-3.7,1.5-3.7,4.3v3.7h-1.4L424.1,484.5
		L424.1,484.5z"/>
	<path fill="#3C3F43" d="M430.8,489.2L430.8,489.2c0-2.7,1.9-4.9,4.5-4.9c2.8,0,4.3,2.2,4.3,4.9c0,0.2,0,0.3,0,0.5h-7.4
		c0.2,2,1.6,3.2,3.3,3.2c1.3,0,2.2-0.5,2.9-1.3l0.9,0.8c-0.9,1-2.1,1.7-3.8,1.7C432.9,494,430.8,492,430.8,489.2z M438.2,488.6
		c-0.1-1.7-1.1-3.2-3-3.2c-1.6,0-2.8,1.4-3,3.2H438.2z"/>
	<path fill="#3C3F43" d="M454.4,484.5h1.5l-3.9,9.6c-0.8,1.9-1.7,2.6-3.1,2.6c-0.8,0-1.4-0.2-2-0.5l0.5-1.1c0.5,0.2,0.9,0.3,1.5,0.3
		c0.8,0,1.3-0.4,1.9-1.7l-4.2-9.3h1.5l3.4,7.8L454.4,484.5z"/>
	<path fill="#3C3F43" d="M457.5,489.2L457.5,489.2c0-2.7,2.1-4.9,4.9-4.9s4.8,2.2,4.8,4.8l0,0c0,2.6-2.1,4.9-4.9,4.9
		S457.5,491.8,457.5,489.2z M465.8,489.2L465.8,489.2c0-2-1.5-3.7-3.5-3.7s-3.4,1.6-3.4,3.6l0,0c0,2,1.5,3.6,3.4,3.6
		C464.4,492.8,465.8,491.1,465.8,489.2z"/>
	<path fill="#3C3F43" d="M469.5,490.3v-5.8h1.4v5.4c0,1.7,0.9,2.8,2.6,2.8c1.6,0,2.8-1.2,2.8-2.9v-5.3h1.4v9.3h-1.4v-1.6
		c-0.6,1-1.6,1.8-3.2,1.8C470.9,494,469.5,492.5,469.5,490.3z"/>
	<path fill="#3C3F43" d="M480.8,484.5h1.4v2.4c0.7-1.5,2-2.7,3.8-2.6v1.5h-0.1c-2,0-3.7,1.5-3.7,4.3v3.7h-1.4L480.8,484.5
		L480.8,484.5z"/>
	<path fill="#3C3F43" d="M492.9,489.2L492.9,489.2c0-2.7,2.1-4.9,4.8-4.9c1.8,0,2.9,0.7,3.7,1.7l-0.9,1c-0.7-0.8-1.6-1.4-2.8-1.4
		c-1.9,0-3.3,1.6-3.3,3.6l0,0c0,2,1.5,3.6,3.4,3.6c1.2,0,2.1-0.6,2.8-1.4l0.9,0.8c-0.9,1-2.1,1.8-3.8,1.8
		C494.9,494,492.9,491.8,492.9,489.2z"/>
	<path fill="#3C3F43" d="M503.2,489.2L503.2,489.2c0-2.7,2.1-4.9,4.9-4.9c2.8,0,4.8,2.2,4.8,4.8l0,0c0,2.6-2.1,4.9-4.9,4.9
		C505.2,494,503.2,491.8,503.2,489.2z M511.4,489.2L511.4,489.2c0-2-1.5-3.7-3.5-3.7s-3.4,1.6-3.4,3.6l0,0c0,2,1.5,3.6,3.4,3.6
		C510,492.8,511.4,491.1,511.4,489.2z"/>
	<path fill="#3C3F43" d="M515.2,490.3v-5.8h1.4v5.4c0,1.7,0.9,2.8,2.6,2.8c1.6,0,2.8-1.2,2.8-2.9v-5.3h1.4v9.3H522v-1.6
		c-0.6,1-1.6,1.8-3.2,1.8C516.5,494,515.2,492.5,515.2,490.3z"/>
	<path fill="#3C3F43" d="M526.5,484.5h1.4v2.4c0.7-1.5,2-2.7,3.8-2.6v1.5h-0.1c-2,0-3.7,1.5-3.7,4.3v3.7h-1.4V484.5z"/>
	<path fill="#3C3F43" d="M533,492.6l0.7-1c1,0.8,2.1,1.2,3.2,1.2s1.9-0.6,1.9-1.5l0,0c0-0.9-1.1-1.3-2.3-1.6
		c-1.5-0.4-3.1-0.9-3.1-2.6l0,0c0-1.6,1.3-2.7,3.2-2.7c1.1,0,2.4,0.4,3.3,1l-0.6,1c-0.9-0.6-1.9-0.9-2.8-0.9c-1.1,0-1.8,0.6-1.8,1.4
		l0,0c0,0.9,1.2,1.2,2.4,1.6c1.4,0.4,3,1,3,2.7l0,0c0,1.8-1.5,2.8-3.3,2.8C535.5,494,534,493.4,533,492.6z"/>
	<path fill="#3C3F43" d="M542.1,489.2L542.1,489.2c0-2.7,1.9-4.9,4.5-4.9c2.8,0,4.3,2.2,4.3,4.9c0,0.2,0,0.3,0,0.5h-7.4
		c0.2,2,1.6,3.2,3.3,3.2c1.3,0,2.2-0.5,2.9-1.3l0.9,0.8c-0.9,1-2.1,1.7-3.8,1.7C544.2,494,542.1,492,542.1,489.2z M549.5,488.6
		c-0.1-1.7-1.1-3.2-3-3.2c-1.6,0-2.8,1.4-3,3.2H549.5z"/>
	<path fill="#3C3F43" d="M558.8,484.5h1.4v1.9c0.8-1.1,1.9-2.1,3.6-2.1c2.2,0,4.4,1.8,4.4,4.8l0,0c0,3-2.2,4.8-4.4,4.8
		c-1.7,0-2.8-0.9-3.6-2v4.7h-1.4V484.5z M566.7,489.2L566.7,489.2c0-2.2-1.5-3.6-3.3-3.6c-1.7,0-3.4,1.5-3.4,3.6l0,0
		c0,2.2,1.6,3.6,3.4,3.6C565.3,492.7,566.7,491.4,566.7,489.2z"/>
	<path fill="#3C3F43" d="M570.6,490.3v-5.8h1.4v5.4c0,1.7,0.9,2.8,2.6,2.8c1.6,0,2.8-1.2,2.8-2.9v-5.3h1.4v9.3h-1.5v-1.6
		c-0.6,1-1.6,1.8-3.2,1.8C571.9,494,570.6,492.5,570.6,490.3z"/>
	<path fill="#3C3F43" d="M583.2,492v1.8h-1.4v-13.1h1.4v5.7c0.8-1.1,1.9-2.1,3.6-2.1c2.2,0,4.4,1.8,4.4,4.8l0,0c0,3-2.2,4.8-4.4,4.8
		C585,494,583.9,493,583.2,492z M589.8,489.2L589.8,489.2c0-2.2-1.5-3.6-3.3-3.6c-1.7,0-3.4,1.5-3.4,3.6l0,0c0,2.2,1.6,3.6,3.4,3.6
		C588.3,492.7,589.8,491.4,589.8,489.2z"/>
	<path fill="#3C3F43" d="M593.9,480.6h1.4v13.1h-1.4V480.6z"/>
	<path fill="#3C3F43" d="M598.5,480.9h1.6v1.5h-1.6V480.9z M598.6,484.5h1.4v9.3h-1.4V484.5z"/>
	<path fill="#3C3F43" d="M602.6,489.2L602.6,489.2c0-2.7,2.1-4.9,4.8-4.9c1.8,0,2.9,0.7,3.7,1.7l-0.9,1c-0.7-0.8-1.6-1.4-2.8-1.4
		c-1.9,0-3.3,1.6-3.3,3.6l0,0c0,2,1.5,3.6,3.4,3.6c1.2,0,2.1-0.6,2.8-1.4l0.9,0.8c-0.9,1-2.1,1.8-3.8,1.8
		C604.7,494,602.6,491.8,602.6,489.2z"/>
	<path fill="#3C3F43" d="M613.6,480.6h1.4v13.1h-1.4V480.6z"/>
	<path fill="#3C3F43" d="M625.2,484.5h1.5l-3.9,9.6c-0.8,1.9-1.7,2.6-3.1,2.6c-0.8,0-1.4-0.2-2-0.5l0.5-1.1c0.5,0.2,0.9,0.3,1.5,0.3
		c0.8,0,1.3-0.4,1.9-1.7l-4.2-9.3h1.5l3.4,7.8L625.2,484.5z"/>
	<path fill="#3C3F43" d="M390.5,513.2L390.5,513.2c0-2.7,2.1-4.9,4.9-4.9s4.8,2.2,4.8,4.8l0,0c0,2.6-2.1,4.9-4.9,4.9
		C392.5,518,390.5,515.8,390.5,513.2z M398.8,513.2L398.8,513.2c0-2-1.5-3.7-3.5-3.7s-3.4,1.6-3.4,3.6l0,0c0,2,1.5,3.6,3.4,3.6
		C397.3,516.8,398.8,515.1,398.8,513.2z"/>
	<path fill="#3C3F43" d="M402.7,508.5h1.4v2.4c0.7-1.5,2-2.7,3.8-2.6v1.5h-0.1c-2,0-3.7,1.5-3.7,4.3v3.7h-1.4L402.7,508.5
		L402.7,508.5z"/>
	<path fill="#3C3F43" d="M415.4,508.5h1.4v1.9c0.8-1.1,1.9-2.1,3.6-2.1c2.2,0,4.4,1.8,4.4,4.8l0,0c0,3-2.2,4.8-4.4,4.8
		c-1.7,0-2.8-0.9-3.6-2v4.7h-1.4V508.5z M423.3,513.2L423.3,513.2c0-2.2-1.5-3.6-3.3-3.6c-1.7,0-3.4,1.5-3.4,3.6l0,0
		c0,2.2,1.6,3.6,3.4,3.6C421.9,516.7,423.3,515.4,423.3,513.2z"/>
	<path fill="#3C3F43" d="M427.3,508.5h1.4v2.4c0.7-1.5,2-2.7,3.8-2.6v1.5h-0.1c-2,0-3.7,1.5-3.7,4.3v3.7h-1.4V508.5z"/>
	<path fill="#3C3F43" d="M434.6,504.9h1.6v1.5h-1.6V504.9z M434.7,508.5h1.4v9.3h-1.4V508.5z"/>
	<path fill="#3C3F43" d="M438.4,508.5h1.5l3.1,7.7l3.2-7.7h1.5l-4.1,9.4h-1.2L438.4,508.5z"/>
	<path fill="#3C3F43" d="M449.2,515.1L449.2,515.1c0-2,1.6-3,4-3c1.2,0,2,0.2,2.9,0.4v-0.3c0-1.7-1-2.5-2.8-2.5
		c-1.1,0-2,0.3-2.8,0.7l-0.4-1.1c1-0.5,2-0.8,3.4-0.8c1.3,0,2.3,0.3,3,1c0.6,0.6,1,1.5,1,2.7v5.7h-1.3v-1.4
		c-0.6,0.8-1.7,1.6-3.4,1.6C450.9,518,449.2,517,449.2,515.1z M456.1,514.4v-0.9c-0.7-0.2-1.6-0.4-2.7-0.4c-1.7,0-2.7,0.8-2.7,1.9
		l0,0c0,1.2,1.1,1.9,2.3,1.9C454.7,516.9,456.1,515.8,456.1,514.4z"/>
	<path fill="#3C3F43" d="M460.8,515.3v-5.6h-1.3v-1.2h1.3v-2.8h1.4v2.8h3v1.2h-3v5.4c0,1.1,0.6,1.5,1.6,1.5c0.5,0,0.9-0.1,1.4-0.3
		v1.2c-0.5,0.3-1,0.4-1.7,0.4C461.9,517.9,460.8,517.2,460.8,515.3z"/>
	<path fill="#3C3F43" d="M467,513.2L467,513.2c0-2.7,1.9-4.9,4.5-4.9c2.8,0,4.3,2.2,4.3,4.9c0,0.2,0,0.3,0,0.5h-7.4
		c0.2,2,1.6,3.2,3.3,3.2c1.3,0,2.2-0.5,2.9-1.3l0.9,0.8c-0.9,1-2.1,1.7-3.8,1.7C469.1,518,467,516,467,513.2z M474.4,512.6
		c-0.1-1.7-1.1-3.2-3-3.2c-1.6,0-2.8,1.4-3,3.2H474.4z"/>
	<path fill="#3C3F43" d="M478.4,504.6h1.4v13.1h-1.4V504.6z"/>
	<path fill="#3C3F43" d="M490,508.5h1.5l-3.9,9.6c-0.8,1.9-1.7,2.6-3.1,2.6c-0.8,0-1.3-0.2-2-0.5l0.5-1.1c0.4,0.2,0.9,0.3,1.5,0.3
		c0.8,0,1.4-0.4,1.9-1.7l-4.2-9.3h1.5l3.4,7.8L490,508.5z"/>
	<path fill="#3C3F43" d="M498.2,508.5h1.5l2.4,7.5l2.5-7.5h1.2l2.5,7.5l2.4-7.5h1.4l-3.3,9.4h-1.2l-2.5-7.3l-2.5,7.3h-1.2
		L498.2,508.5z"/>
	<path fill="#3C3F43" d="M514.6,504.9h1.6v1.5h-1.6V504.9z M514.6,508.5h1.4v9.3h-1.4V508.5z"/>
	<path fill="#3C3F43" d="M519.7,515.3v-5.6h-1.3v-1.2h1.3v-2.8h1.4v2.8h3v1.2h-3v5.4c0,1.1,0.6,1.5,1.6,1.5c0.5,0,0.9-0.1,1.4-0.3
		v1.2c-0.5,0.3-1,0.4-1.7,0.4C520.9,517.9,519.7,517.2,519.7,515.3z"/>
	<path fill="#3C3F43" d="M526.5,504.6h1.4v5.5c0.6-1,1.6-1.8,3.2-1.8c2.3,0,3.6,1.5,3.6,3.7v5.8h-1.4v-5.4c0-1.7-0.9-2.8-2.6-2.8
		c-1.6,0-2.8,1.2-2.8,2.9v5.3h-1.4V504.6L526.5,504.6z"/>
	<path fill="#3C3F43" d="M550,508.5h1.5l-3.9,9.6c-0.8,1.9-1.7,2.6-3.1,2.6c-0.8,0-1.3-0.2-2-0.5l0.5-1.1c0.5,0.2,0.9,0.3,1.5,0.3
		c0.8,0,1.4-0.4,1.9-1.7l-4.2-9.3h1.5l3.4,7.8L550,508.5z"/>
	<path fill="#3C3F43" d="M553.1,513.2L553.1,513.2c0-2.7,2.1-4.9,4.9-4.9s4.8,2.2,4.8,4.8l0,0c0,2.6-2.1,4.9-4.9,4.9
		C555.1,518,553.1,515.8,553.1,513.2z M561.4,513.2L561.4,513.2c0-2-1.5-3.7-3.5-3.7s-3.4,1.6-3.4,3.6l0,0c0,2,1.5,3.6,3.4,3.6
		C560,516.8,561.4,515.1,561.4,513.2z"/>
	<path fill="#3C3F43" d="M565.1,514.3v-5.8h1.4v5.4c0,1.7,0.9,2.8,2.6,2.8c1.6,0,2.8-1.2,2.8-2.9v-5.3h1.4v9.3h-1.4v-1.6
		c-0.6,1-1.6,1.8-3.2,1.8C566.5,518,565.1,516.5,565.1,514.3z"/>
	<path fill="#3C3F43" d="M576.4,508.5h1.4v2.4c0.7-1.5,2-2.7,3.8-2.6v1.5h-0.1c-2,0-3.7,1.5-3.7,4.3v3.7h-1.4V508.5z"/>
	<path fill="#3C3F43" d="M588.3,516.6l0.7-1c1,0.8,2.1,1.2,3.2,1.2c1.1,0,1.9-0.6,1.9-1.5l0,0c0-0.9-1.1-1.3-2.3-1.6
		c-1.5-0.4-3.1-0.9-3.1-2.6l0,0c0-1.6,1.3-2.7,3.2-2.7c1.1,0,2.4,0.4,3.3,1l-0.6,1c-0.9-0.6-1.9-0.9-2.8-0.9c-1.1,0-1.8,0.6-1.8,1.4
		l0,0c0,0.9,1.2,1.2,2.4,1.6c1.4,0.4,3,1,3,2.7l0,0c0,1.8-1.5,2.8-3.3,2.8C590.8,518,589.3,517.4,588.3,516.6z"/>
	<path fill="#3C3F43" d="M598.5,515.3v-5.6h-1.3v-1.2h1.3v-2.8h1.4v2.8h3v1.2h-3v5.4c0,1.1,0.6,1.5,1.6,1.5c0.5,0,0.9-0.1,1.4-0.3
		v1.2c-0.5,0.3-1,0.4-1.7,0.4C599.6,517.9,598.5,517.2,598.5,515.3z"/>
	<path fill="#3C3F43" d="M605.1,514.3v-5.8h1.4v5.4c0,1.7,0.9,2.8,2.6,2.8c1.6,0,2.8-1.2,2.8-2.9v-5.3h1.4v9.3h-1.4v-1.6
		c-0.6,1-1.6,1.8-3.2,1.8C606.5,518,605.1,516.5,605.1,514.3z"/>
	<path fill="#3C3F43" d="M615.8,513.2L615.8,513.2c0-3.1,2.2-4.9,4.4-4.9c1.7,0,2.8,0.9,3.6,2v-5.6h1.4v13.1h-1.4v-1.9
		c-0.8,1.1-1.9,2.1-3.6,2.1C618.1,518,615.8,516.2,615.8,513.2z M623.9,513.1L623.9,513.1c0-2.2-1.6-3.6-3.4-3.6s-3.3,1.3-3.3,3.6
		l0,0c0,2.2,1.5,3.6,3.3,3.6C622.3,516.7,623.9,515.3,623.9,513.1z"/>
	<path fill="#3C3F43" d="M627.8,513.2L627.8,513.2c0-2.7,1.9-4.9,4.5-4.9c2.8,0,4.3,2.2,4.3,4.9c0,0.2,0,0.3,0,0.5h-7.4
		c0.2,2,1.6,3.2,3.3,3.2c1.3,0,2.2-0.5,2.9-1.3l0.9,0.8c-0.9,1-2.1,1.7-3.8,1.7C629.8,518,627.8,516,627.8,513.2z M635.2,512.6
		c-0.1-1.7-1.1-3.2-3-3.2c-1.6,0-2.8,1.4-3,3.2H635.2z"/>
	<path fill="#3C3F43" d="M639,508.5h1.4v1.6c0.6-1,1.6-1.8,3.2-1.8c2.3,0,3.6,1.5,3.6,3.7v5.8h-1.4v-5.4c0-1.7-0.9-2.8-2.6-2.8
		c-1.6,0-2.8,1.2-2.8,2.9v5.3H639V508.5z"/>
	<path fill="#3C3F43" d="M650.6,515.3v-5.6h-1.3v-1.2h1.3v-2.8h1.4v2.8h3v1.2h-3v5.4c0,1.1,0.6,1.5,1.6,1.5c0.5,0,0.9-0.1,1.4-0.3
		v1.2c-0.5,0.3-1,0.4-1.7,0.4C651.7,517.9,650.6,517.2,650.6,515.3z"/>
	<path fill="#3C3F43" d="M656.6,516.6l0.7-1c1,0.8,2.1,1.2,3.2,1.2s1.9-0.6,1.9-1.5l0,0c0-0.9-1.1-1.3-2.3-1.6
		c-1.5-0.4-3.1-0.9-3.1-2.6l0,0c0-1.6,1.3-2.7,3.2-2.7c1.1,0,2.4,0.4,3.3,1l-0.6,1c-0.9-0.6-1.9-0.9-2.8-0.9c-1.1,0-1.8,0.6-1.8,1.4
		l0,0c0,0.9,1.2,1.2,2.4,1.6c1.4,0.4,3,1,3,2.7l0,0c0,1.8-1.5,2.8-3.3,2.8C659.1,518,657.6,517.4,656.6,516.6z"/>
	<path fill="#3C3F43" d="M390.5,537.2L390.5,537.2c0-2.7,2.1-4.9,4.9-4.9s4.8,2.2,4.8,4.8l0,0c0,2.6-2.1,4.9-4.9,4.9
		S390.5,539.8,390.5,537.2z M398.8,537.2L398.8,537.2c0-2-1.5-3.7-3.5-3.7s-3.4,1.6-3.4,3.6l0,0c0,2,1.5,3.6,3.4,3.6
		C397.3,540.8,398.8,539.1,398.8,537.2z"/>
	<path fill="#3C3F43" d="M402.7,532.5h1.4v2.4c0.7-1.5,2-2.7,3.8-2.6v1.5h-0.1c-2,0-3.7,1.5-3.7,4.3v3.7h-1.4L402.7,532.5
		L402.7,532.5z"/>
	<path fill="#3C3F43" d="M414.8,537.2L414.8,537.2c0-2.7,2.1-4.9,4.8-4.9c1.8,0,2.9,0.7,3.7,1.7l-0.9,1c-0.7-0.8-1.6-1.4-2.8-1.4
		c-1.9,0-3.3,1.6-3.3,3.6l0,0c0,2,1.5,3.6,3.4,3.6c1.2,0,2.1-0.6,2.8-1.4l0.9,0.8c-0.9,1-2.1,1.8-3.8,1.8
		C416.8,542,414.8,539.8,414.8,537.2z"/>
	<path fill="#3C3F43" d="M425.1,537.2L425.1,537.2c0-2.7,2.1-4.9,4.9-4.9s4.8,2.2,4.8,4.8l0,0c0,2.6-2.1,4.9-4.9,4.9
		S425.1,539.8,425.1,537.2z M433.3,537.2L433.3,537.2c0-2-1.5-3.7-3.5-3.7s-3.4,1.6-3.4,3.6l0,0c0,2,1.5,3.6,3.4,3.6
		C431.9,540.8,433.3,539.1,433.3,537.2z"/>
	<path fill="#3C3F43" d="M436.9,535.6h5v1.5h-5V535.6z"/>
	<path fill="#3C3F43" d="M443.8,532.5h1.5l2.4,7.5l2.5-7.5h1.2l2.5,7.5l2.4-7.5h1.4l-3.3,9.4h-1.1l-2.5-7.3l-2.5,7.3h-1.2
		L443.8,532.5z"/>
	<path fill="#3C3F43" d="M459.5,537.2L459.5,537.2c0-2.7,2.1-4.9,4.9-4.9s4.8,2.2,4.8,4.8l0,0c0,2.6-2.1,4.9-4.9,4.9
		C461.6,542,459.5,539.8,459.5,537.2z M467.8,537.2L467.8,537.2c0-2-1.5-3.7-3.5-3.7s-3.4,1.6-3.4,3.6l0,0c0,2,1.5,3.6,3.4,3.6
		C466.4,540.8,467.8,539.1,467.8,537.2z"/>
	<path fill="#3C3F43" d="M471.7,532.5h1.4v2.4c0.7-1.5,2-2.7,3.8-2.6v1.5h-0.1c-2,0-3.7,1.5-3.7,4.3v3.7h-1.4L471.7,532.5
		L471.7,532.5z"/>
	<path fill="#3C3F43" d="M479,528.6h1.4v9.1l5-5.2h1.7l-3.9,4l4,5.3h-1.7l-3.3-4.3l-1.9,1.9v2.4h-1.4L479,528.6L479,528.6z"/>
	<path fill="#3C3F43" d="M488.7,537.2L488.7,537.2c0-2.7,1.9-4.9,4.5-4.9c2.8,0,4.3,2.2,4.3,4.9c0,0.2,0,0.3,0,0.5h-7.4
		c0.2,2,1.6,3.2,3.3,3.2c1.3,0,2.2-0.5,2.9-1.3l0.9,0.8c-0.9,1-2.1,1.7-3.8,1.7C490.8,542,488.7,540,488.7,537.2z M496.1,536.6
		c-0.1-1.7-1.1-3.2-3-3.2c-1.6,0-2.8,1.4-3,3.2H496.1z"/>
	<path fill="#3C3F43" d="M499.9,532.5h1.4v2.4c0.7-1.5,2-2.7,3.8-2.6v1.5H505c-2,0-3.7,1.5-3.7,4.3v3.7h-1.4V532.5z"/>
	<path fill="#3C3F43" d="M506.4,540.6l0.7-1c1,0.8,2.1,1.2,3.2,1.2c1.1,0,1.9-0.6,1.9-1.5l0,0c0-0.9-1.1-1.3-2.3-1.6
		c-1.5-0.4-3.1-0.9-3.1-2.6l0,0c0-1.6,1.3-2.7,3.2-2.7c1.1,0,2.4,0.4,3.3,1l-0.6,1c-0.9-0.6-1.9-0.9-2.8-0.9c-1.1,0-1.8,0.6-1.8,1.4
		l0,0c0,0.9,1.2,1.2,2.4,1.6c1.4,0.4,3,1,3,2.7l0,0c0,1.8-1.5,2.8-3.3,2.8C509,542,507.5,541.4,506.4,540.6z"/>
</g>
<path fill="#3C3F43" d="M1109.2-154.5H916.3c-0.3,0-0.5-0.2-0.5-0.5s0.2-0.5,0.5-0.5h192.9c0.3,0,0.5,0.2,0.5,0.5
	S1109.5-154.5,1109.2-154.5z"/>
<path fill="#3C3F43" d="M1105.7-147c-0.1,0-0.3-0.1-0.4-0.2c-0.2-0.2-0.2-0.5,0-0.7l7.6-7.2l-8.4-7c-0.2-0.2-0.2-0.5-0.1-0.7
	c0.2-0.2,0.5-0.2,0.7-0.1l8.8,7.4c0.1,0.1,0.2,0.2,0.2,0.4s-0.1,0.3-0.2,0.4l-8,7.6C1105.9-147.1,1105.8-147,1105.7-147z"/>
<path fill="#3C3F43" d="M688.3-147H495.4c-0.3,0-0.5-0.2-0.5-0.5s0.2-0.5,0.5-0.5h192.9c0.3,0,0.5,0.2,0.5,0.5S688.5-147,688.3-147z
	"/>
<path fill="#3C3F43" d="M684.7-139.6c-0.1,0-0.3-0.1-0.4-0.2c-0.2-0.2-0.2-0.5,0-0.7l7.6-7.2l-8.4-7c-0.2-0.2-0.2-0.5-0.1-0.7
	c0.2-0.2,0.5-0.2,0.7-0.1l8.8,7.4c0.1,0.1,0.2,0.2,0.2,0.4s-0.1,0.3-0.2,0.4l-8,7.6C685-139.6,684.8-139.6,684.7-139.6z"/>
<path fill="#3C3F43" d="M1099.6,163.4H906.7c-0.3,0-0.5-0.2-0.5-0.5s0.2-0.5,0.5-0.5h192.9c0.3,0,0.5,0.2,0.5,0.5
	S1099.9,163.4,1099.6,163.4z"/>
<path fill="#3C3F43" d="M910.2,171c-0.1,0-0.2,0-0.3-0.1l-8-7.6c-0.1-0.1-0.2-0.2-0.2-0.4s0.1-0.3,0.2-0.4l8.8-7.4
	c0.2-0.2,0.5-0.1,0.7,0.1c0.2,0.2,0.1,0.5-0.1,0.7l-8.4,7l7.6,7.2c0.2,0.2,0.2,0.5,0,0.7C910.5,171,910.4,171,910.2,171z"/>
<path fill="#3C3F43" d="M1214,75.3c-0.3,0-0.5-0.2-0.5-0.5V-2.4c0-0.3,0.2-0.5,0.5-0.5s0.5,0.2,0.5,0.5v77.2
	C1214.5,75,1214.2,75.3,1214,75.3z"/>
<path fill="#3C3F43" d="M1214.3,79.7c-0.1,0-0.3-0.1-0.4-0.2l-7.6-8c-0.2-0.2-0.2-0.5,0-0.7s0.5-0.2,0.7,0l7.2,7.6l7-8.4
	c0.2-0.2,0.5-0.2,0.7-0.1c0.2,0.2,0.2,0.5,0.1,0.7l-7.4,8.8C1214.6,79.6,1214.5,79.7,1214.3,79.7L1214.3,79.7z"/>
<path fill="#3C3F43" d="M340.6-163.8c-0.6,0-1-0.4-1-1s0.4-1,1-1c14.2,0,25.8-11.6,25.8-25.8c0-0.6,0.4-1,1-1s1,0.4,1,1
	C368.4-176.2,355.9-163.8,340.6-163.8z"/>
<path fill="#3C3F43" d="M394.3-163.8c-15.3,0-27.8-12.5-27.8-27.8c0-0.6,0.4-1,1-1s1,0.4,1,1c0,14.2,11.6,25.8,25.8,25.8
	c0.6,0,1,0.4,1,1S394.8-163.8,394.3-163.8z"/>
<path fill="#3C3F43" d="M367.4-136.9c-0.6,0-1-0.4-1-1c0-14.2-11.6-25.8-25.8-25.8c-0.6,0-1-0.4-1-1s0.4-1,1-1
	c15.3,0,27.8,12.5,27.8,27.8C368.4-137.4,368-136.9,367.4-136.9z"/>
<path fill="#3C3F43" d="M367.4-136.9c-0.6,0-1-0.4-1-1c0-15.3,12.5-27.8,27.8-27.8c0.6,0,1,0.4,1,1s-0.4,1-1,1
	c-14.2,0-25.8,11.6-25.8,25.8C368.4-137.4,368-136.9,367.4-136.9z"/>
<path fill="#3C3F43" d="M332.2-120.2c-0.6,0-1-0.4-1-1s0.4-1,1-1c11.5,0,20.9-9.4,20.9-20.9c0-0.6,0.4-1,1-1s1,0.4,1,1
	C355-130.4,344.8-120.2,332.2-120.2z"/>
<path fill="#3C3F43" d="M375.9-120.2c-12.6,0-22.9-10.3-22.9-22.9c0-0.6,0.4-1,1-1s1,0.4,1,1c0,11.5,9.4,20.9,20.9,20.9
	c0.6,0,1,0.4,1,1S376.4-120.2,375.9-120.2z"/>
<path fill="#3C3F43" d="M354-98.3c-0.6,0-1-0.4-1-1c0-11.5-9.4-20.9-20.9-20.9c-0.6,0-1-0.4-1-1s0.4-1,1-1
	c12.6,0,22.9,10.3,22.9,22.9C355-98.8,354.6-98.3,354-98.3z"/>
<path fill="#3C3F43" d="M354-98.3c-0.6,0-1-0.4-1-1c0-12.6,10.3-22.9,22.9-22.9c0.6,0,1,0.4,1,1s-0.4,1-1,1
	c-11.5,0-20.9,9.4-20.9,20.9C355-98.8,354.6-98.3,354-98.3z"/>
<path fill="#3C3F43" d="M401.4-178.1c-0.6,0-1-0.4-1-1s0.4-1,1-1c7,0,12.7-5.7,12.7-12.7c0-0.6,0.4-1,1-1s1,0.4,1,1
	C416.1-184.7,409.5-178.1,401.4-178.1z"/>
<path fill="#3C3F43" d="M428.7-178.1c-8.1,0-14.7-6.6-14.7-14.7c0-0.6,0.4-1,1-1s1,0.4,1,1c0,7,5.7,12.7,12.7,12.7c0.6,0,1,0.4,1,1
	S429.3-178.1,428.7-178.1z"/>
<path fill="#3C3F43" d="M415.1-164.4c-0.6,0-1-0.4-1-1c0-7-5.7-12.7-12.7-12.7c-0.6,0-1-0.4-1-1s0.4-1,1-1c8.1,0,14.7,6.6,14.7,14.7
	C416.1-164.9,415.6-164.4,415.1-164.4z"/>
<path fill="#3C3F43" d="M415.1-164.4c-0.6,0-1-0.4-1-1c0-8.1,6.6-14.7,14.7-14.7c0.6,0,1,0.4,1,1s-0.4,1-1,1
	c-7,0-12.7,5.7-12.7,12.7C416.1-164.9,415.6-164.4,415.1-164.4z"/>
<path fill="#3C3F43" d="M435.3-93.9c-1,0-1.9-0.4-2.6-1.1l-44.9-44.9c-1.4-1.4-1.4-3.8,0-5.2l2.3-2.3c1.4-1.4,3.8-1.4,5.2,0
	l44.9,44.9c0.7,0.7,1.1,1.6,1.1,2.6s-0.4,1.9-1.1,2.6l-2.3,2.3C437.3-94.3,436.3-93.9,435.3-93.9z M392.7-146.5
	c-0.5,0-0.9,0.2-1.2,0.5l-2.3,2.3c-0.7,0.7-0.7,1.7,0,2.4l44.9,44.9c0.6,0.6,1.8,0.6,2.4,0l2.3-2.3c0.3-0.3,0.5-0.7,0.5-1.2
	s-0.2-0.9-0.5-1.2L393.9-146C393.6-146.3,393.2-146.5,392.7-146.5z"/>
<path fill="#3C3F43" d="M399.6-128.5c-0.3,0-0.5-0.1-0.7-0.3c-0.4-0.4-0.4-1,0-1.4l6.1-6.1c0.4-0.4,1-0.4,1.4,0s0.4,1,0,1.4
	l-6.1,6.1C400.1-128.6,399.8-128.5,399.6-128.5z"/>
<path fill="#3C3F43" d="M526.4,336L526.4,336c-0.2,0-0.3-0.1-0.4-0.2l-7.8-9.3c-0.2-0.2-0.1-0.5,0.1-0.7c0.2-0.2,0.5-0.1,0.7,0.1
	l7.4,8.9l7.6-8c0.2-0.2,0.5-0.2,0.7,0c0.2,0.2,0.2,0.5,0,0.7l-8,8.4C526.6,335.9,526.5,336,526.4,336z"/>
<path fill="#3C3F43" d="M526.5,331.3c-0.3,0-0.5-0.2-0.5-0.5c0-75.9,61.8-137.7,137.7-137.7c0.3,0,0.5,0.2,0.5,0.5s-0.2,0.5-0.5,0.5
	c-75.4,0-136.7,61.3-136.7,136.7C527,331.1,526.8,331.3,526.5,331.3z"/>
<path fill="#3C3F43" d="M849.5-105.2h-90.7c-2.1,0-3.7-1.7-3.7-3.7v-75.2c0-2.1,1.7-3.7,3.7-3.7h90.7c2.1,0,3.7,1.7,3.7,3.7v75.2
	C853.3-106.9,851.6-105.2,849.5-105.2z M758.8-185.9c-1,0-1.7,0.8-1.7,1.7v75.2c0,1,0.8,1.7,1.7,1.7h90.7c1,0,1.7-0.8,1.7-1.7v-75.2
	c0-1-0.8-1.7-1.7-1.7H758.8z"/>
<path fill="#3C3F43" d="M852.3-178h-96.2c-0.6,0-1-0.4-1-1s0.4-1,1-1h96.2c0.6,0,1,0.4,1,1S852.8-178,852.3-178z"/>
<path fill="#3C3F43" d="M1229.9-175.9h-59.1c-1.7,0-3-1.3-3-3v-17c0-1.7,1.3-3,3-3h59.1c1.7,0,3,1.3,3,3v17
	C1232.9-177.3,1231.5-175.9,1229.9-175.9z M1170.8-196.9c-0.6,0-1,0.4-1,1v17c0,0.6,0.4,1,1,1h59.1c0.6,0,1-0.4,1-1v-17
	c0-0.6-0.4-1-1-1H1170.8z"/>
<path fill="#3C3F43" d="M1254.9-141.3h-59.1c-1.7,0-3-1.3-3-3v-17c0-1.7,1.3-3,3-3h59.1c1.7,0,3,1.3,3,3v17
	C1257.9-142.7,1256.5-141.3,1254.9-141.3z M1195.7-162.3c-0.6,0-1,0.4-1,1v17c0,0.6,0.4,1,1,1h59.1c0.6,0,1-0.4,1-1v-17
	c0-0.6-0.4-1-1-1H1195.7z"/>
<path fill="#3C3F43" d="M1223.6-107.8h-59.1c-1.7,0-3-1.3-3-3v-17c0-1.7,1.3-3,3-3h59.1c1.7,0,3,1.3,3,3v17
	C1226.6-109.2,1225.3-107.8,1223.6-107.8z M1164.5-128.8c-0.6,0-1,0.4-1,1v17c0,0.6,0.4,1,1,1h59.1c0.6,0,1-0.4,1-1v-17
	c0-0.6-0.4-1-1-1H1164.5z"/>
<path fill="#3C3F43" d="M1265.6,190.5h-98c-0.6,0-1-0.4-1-1v-66c0-0.6,0.4-1,1-1h98c0.6,0,1,0.4,1,1v66
	C1266.6,190,1266.1,190.5,1265.6,190.5z M1168.6,188.5h96v-64h-96V188.5L1168.6,188.5z"/>
<path fill="#3C3F43" d="M1275.7,199.9h-122.4c-0.4,0-0.8-0.3-1-0.7c-0.1-0.4,0-0.9,0.4-1.1l13.5-9.4c0.5-0.3,1.1-0.2,1.4,0.2
	c0.3,0.5,0.2,1.1-0.2,1.4l-10.9,7.6h116.6l-8.2-7.7c-0.4-0.4-0.4-1,0-1.4s1-0.4,1.4,0l10.1,9.4c0.3,0.3,0.4,0.7,0.2,1.1
	C1276.4,199.6,1276.1,199.9,1275.7,199.9z"/>
<path fill="#3C3F43" d="M1271.3,203.2c-0.1,0-0.2,0-0.2,0h-112.3l0,0c-3.9,0-6.7-3.4-6.8-3.5c-0.4-0.4-0.3-1.1,0.1-1.4
	c0.4-0.4,1.1-0.3,1.4,0.1c0.1,0.1,2.4,2.8,5.3,2.8l0,0h112.3h0.1c0.1,0,2.2,0.1,3.6-2.5c0.2-0.5,0.8-0.7,1.3-0.5s0.7,0.8,0.5,1.3
	C1274.9,202.9,1272.1,203.2,1271.3,203.2z"/>
<rect x="1200.3" y="136.5" fill="#3C3F43" width="40.7" height="2"/>
<rect x="1200.3" y="144.1" fill="#3C3F43" width="34" height="2"/>
<rect x="1208.6" y="151.8" fill="#3C3F43" width="12.1" height="2"/>
<rect x="1208.6" y="159.4" fill="#3C3F43" width="34" height="2"/>
<rect x="1200.3" y="167" fill="#3C3F43" width="22.6" height="2"/>
<rect x="1200.3" y="174.5" fill="#3C3F43" width="12.1" height="2"/>
<rect x="778.6" y="-164" fill="#3C3F43" width="40.7" height="2"/>
<rect x="778.6" y="-156.5" fill="#3C3F43" width="34" height="2"/>
<rect x="786.9" y="-148.7" fill="#3C3F43" width="12.1" height="2"/>
<rect x="786.9" y="-141.1" fill="#3C3F43" width="34" height="2"/>
<rect x="778.6" y="-133.5" fill="#3C3F43" width="22.6" height="2"/>
<rect x="778.6" y="-126" fill="#3C3F43" width="12.1" height="2"/>
<path fill="#3C3F43" d="M1194.3,176.5h-13.5c-0.6,0-1-0.4-1-1v-38c0-0.6,0.4-1,1-1h13.5c0.6,0,1,0.4,1,1v38
	C1195.3,176,1194.8,176.5,1194.3,176.5z M1181.8,174.5h11.5v-36h-11.5V174.5z"/>
<path fill="#3C3F43" d="M768.5,135c-0.3,0-0.5-0.1-0.7-0.3l-7-7.6c-0.4-0.4-0.3-1,0.1-1.4s1-0.3,1.4,0.1l6.2,6.8l12.2-15.8
	c0.3-0.4,1-0.5,1.4-0.2s0.5,1,0.2,1.4l-13,16.6C769.1,134.8,768.9,134.9,768.5,135L768.5,135z"/>
<path fill="#3C3F43" d="M768.5,173.6c-0.3,0-0.5-0.1-0.7-0.3l-7-7.6c-0.4-0.4-0.3-1,0.1-1.4s1-0.3,1.4,0.1l6.2,6.8l12.2-15.8
	c0.3-0.4,1-0.5,1.4-0.2s0.5,1,0.2,1.4l-13,16.6C769.1,173.5,768.9,173.6,768.5,173.6L768.5,173.6z"/>
<path fill="#3C3F43" d="M768.5,209.8c-0.3,0-0.5-0.1-0.7-0.3l-7-7.6c-0.4-0.4-0.3-1,0.1-1.4s1-0.3,1.4,0.1l6.2,6.8l12.2-15.8
	c0.3-0.4,1-0.5,1.4-0.2s0.5,1,0.2,1.4l-13,16.6C769.1,209.6,768.9,209.8,768.5,209.8L768.5,209.8z"/>
<path fill="#3C3F43" d="M859.3,139.7h-64.1c-1.7,0-3-1.3-3-3V118c0-1.7,1.3-3,3-3h64.1c1.7,0,3,1.3,3,3v18.7
	C862.3,138.3,860.9,139.7,859.3,139.7z M795.1,117c-0.6,0-1,0.4-1,1v18.7c0,0.6,0.4,1,1,1h64.2c0.6,0,1-0.4,1-1V118c0-0.6-0.4-1-1-1
	H795.1z"/>
<path fill="#3C3F43" d="M859.3,177h-64.1c-1.7,0-3-1.3-3-3v-18.7c0-1.7,1.3-3,3-3h64.1c1.7,0,3,1.3,3,3V174
	C862.3,175.7,860.9,177,859.3,177z M795.1,154.4c-0.6,0-1,0.4-1,1v18.7c0,0.6,0.4,1,1,1h64.2c0.6,0,1-0.4,1-1v-18.7c0-0.6-0.4-1-1-1
	H795.1z"/>
<path fill="#3C3F43" d="M859.3,213.2h-64.1c-1.7,0-3-1.3-3-3v-18.7c0-1.7,1.3-3,3-3h64.1c1.7,0,3,1.3,3,3v18.7
	C862.3,211.9,860.9,213.2,859.3,213.2z M795.1,190.5c-0.6,0-1,0.4-1,1v18.7c0,0.6,0.4,1,1,1h64.2c0.6,0,1-0.4,1-1v-18.7
	c0-0.6-0.4-1-1-1H795.1z"/>
<path fill="#3C3F43" d="M492.4,402.5c-7.8,0-14.1-6.3-14.1-14.1c0-7.8,6.3-14.1,14.1-14.1c7.8,0,14.1,6.3,14.1,14.1
	C506.5,396.2,500.1,402.5,492.4,402.5z M492.4,376.3c-6.7,0-12.1,5.4-12.1,12.1s5.4,12.1,12.1,12.1s12.1-5.4,12.1-12.1
	S499,376.3,492.4,376.3z"/>
<path fill="#3C3F43" d="M506.4,431.4h-31.7c-0.6,0-1-0.4-1-1v-10.1c0-6,2.9-11.7,7.9-15.2c0.3-0.2,0.7-0.2,1.1-0.1
	c3,1.7,6.3,2.5,9.7,2.5s6.7-0.9,9.7-2.5c0.3-0.2,0.8-0.2,1.1,0.1c4.9,3.5,7.9,9.2,7.9,15.2v1.7c0,0.6-0.4,1-1,1s-1-0.4-1-1v-1.7
	c0-5.1-2.4-10-6.5-13.2c-6.2,3.3-14,3.3-20.2,0c-4.1,3.2-6.5,8-6.5,13.2v9.1h30.7c0.6,0,1,0.4,1,1C507.6,431,507,431.4,506.4,431.4z
	"/>
<path fill="#3C3F43" d="M563,402.5c-7.8,0-14.1-6.3-14.1-14.1c0-7.8,6.3-14.1,14.1-14.1c7.8,0,14.1,6.3,14.1,14.1
	C577.1,396.2,570.8,402.5,563,402.5z M563,376.3c-6.7,0-12.1,5.4-12.1,12.1s5.4,12.1,12.1,12.1s12.1-5.4,12.1-12.1
	S569.7,376.3,563,376.3z"/>
<path fill="#3C3F43" d="M580.6,431.4h-30.7c-0.6,0-1-0.4-1-1c0-0.6,0.4-1,1-1h29.7v-9.1c0-5.1-2.4-10-6.5-13.2
	c-6.2,3.3-14,3.3-20.2,0c-3.9,3.1-6.5,8.9-6.5,14.5c0,0.6-0.4,1-1,1s-1-0.4-1-1c0-6.4,3.2-13.2,7.9-16.5c0.3-0.2,0.7-0.2,1.1-0.1
	c3,1.7,6.3,2.5,9.7,2.5s6.7-0.9,9.7-2.5c0.3-0.2,0.8-0.2,1.1,0.1c4.9,3.5,7.9,9.2,7.9,15.2v10.1
	C581.6,430.9,581.2,431.4,580.6,431.4z"/>
<path fill="#3C3F43" d="M527.7,410.2c-9.3,0-16.8-7.5-16.8-16.8s7.5-16.8,16.8-16.8c9.3,0,16.8,7.5,16.8,16.8
	S536.9,410.2,527.7,410.2z M527.7,378.6c-8.2,0-14.8,6.6-14.8,14.8c0,8.2,6.6,14.8,14.8,14.8c8.2,0,14.8-6.6,14.8-14.8
	C542.5,385.2,535.8,378.6,527.7,378.6z"/>
<path fill="#3C3F43" d="M548.9,447.6h-42.5c-0.6,0-1-0.4-1-1v-12.2c0-7.1,3.5-13.9,9.4-18.1c0.3-0.2,0.7-0.2,1.1-0.1
	c3.6,2,7.7,3.1,11.8,3.1s8.2-1.1,11.8-3.1c0.3-0.2,0.8-0.2,1.1,0.1c2.1,1.5,4,3.4,5.5,5.5c2.6,3.7,3.9,8.1,3.9,12.6v12.2
	C549.9,447.1,549.5,447.6,548.9,447.6z M507.4,445.6h40.5v-11.2c0-4.1-1.2-8.1-3.6-11.4c-1.2-1.8-2.7-3.4-4.5-4.7
	c-3.7,2-7.9,3-12.2,3c-4.2,0-8.4-1-12.2-3c-5.1,3.8-8.1,9.8-8.1,16.1L507.4,445.6L507.4,445.6z"/>
</svg>
