<?xml version="1.0" encoding="utf-8"?>
<!-- Generator: Adobe Illustrator 19.1.0, SVG Export Plug-In . SVG Version: 6.00 Build 0)  -->
<svg version="1.1" id="Isolation_Mode" xmlns="http://www.w3.org/2000/svg" xmlns:xlink="http://www.w3.org/1999/xlink" x="0px"
	 y="0px" width="16.4px" height="63.9px" viewBox="0 0 16.4 63.9" style="enable-background:new 0 0 16.4 63.9;"
	 xml:space="preserve">
<polyline style="fill:none;stroke:#000000;stroke-miterlimit:10;" points="0.4,55.5 8,63.2 16,55.3 "/>
<g>
	<path d="M8.3,51.6c-0.1,0-0.3,0-0.4-0.1c-0.1-0.1-0.1-0.2-0.1-0.4c0-0.1,0-0.3,0.1-0.3c0.2-0.2,0.5-0.2,0.7,0
		c0.1,0.1,0.1,0.2,0.1,0.4c0,0.1-0.1,0.3-0.1,0.4C8.5,51.5,8.4,51.6,8.3,51.6z"/>
	<path d="M7.8,47.2c0-0.3,0.2-0.5,0.5-0.5l0,0c0.3,0,0.5,0.2,0.5,0.5l0,0c0,0.3-0.2,0.5-0.5,0.5l0,0C8,47.7,7.8,47.5,7.8,47.2z
		 M7.8,43.3c0-0.3,0.2-0.5,0.5-0.5l0,0c0.3,0,0.5,0.2,0.5,0.5l0,0c0,0.3-0.2,0.5-0.5,0.5l0,0C8,43.8,7.8,43.6,7.8,43.3z M7.8,39.5
		C7.8,39.2,8,39,8.3,39l0,0c0.3,0,0.5,0.2,0.5,0.5l0,0c0,0.3-0.2,0.5-0.5,0.5l0,0C8,40,7.8,39.7,7.8,39.5z M7.8,35.6
		c0-0.3,0.2-0.5,0.5-0.5l0,0c0.3,0,0.5,0.2,0.5,0.5l0,0c0,0.3-0.2,0.5-0.5,0.5l0,0C8,36.1,7.8,35.9,7.8,35.6z M7.8,31.7
		c0-0.3,0.2-0.5,0.5-0.5l0,0c0.3,0,0.5,0.2,0.5,0.5l0,0c0,0.3-0.2,0.5-0.5,0.5l0,0C8,32.2,7.8,32,7.8,31.7z M7.8,27.9
		c0-0.3,0.2-0.5,0.5-0.5l0,0c0.3,0,0.5,0.2,0.5,0.5l0,0c0,0.3-0.2,0.5-0.5,0.5l0,0C8,28.4,7.8,28.1,7.8,27.9z M7.8,24
		c0-0.3,0.2-0.5,0.5-0.5l0,0c0.3,0,0.5,0.2,0.5,0.5l0,0c0,0.3-0.2,0.5-0.5,0.5l0,0C8,24.5,7.8,24.3,7.8,24z M7.8,20.1
		c0-0.3,0.2-0.5,0.5-0.5l0,0c0.3,0,0.5,0.2,0.5,0.5l0,0c0,0.3-0.2,0.5-0.5,0.5l0,0C8,20.6,7.8,20.4,7.8,20.1z M7.8,16.3
		c0-0.3,0.2-0.5,0.5-0.5l0,0c0.3,0,0.5,0.2,0.5,0.5l0,0c0,0.3-0.2,0.5-0.5,0.5l0,0C8,16.8,7.8,16.6,7.8,16.3z M7.8,12.4
		c0-0.3,0.2-0.5,0.5-0.5l0,0c0.3,0,0.5,0.2,0.5,0.5l0,0c0,0.3-0.2,0.5-0.5,0.5l0,0C8,12.9,7.8,12.7,7.8,12.4z M7.8,8.5
		C7.8,8.3,8,8,8.3,8l0,0c0.3,0,0.5,0.2,0.5,0.5l0,0C8.8,8.8,8.6,9,8.3,9l0,0C8,9,7.8,8.8,7.8,8.5z M7.8,4.7c0-0.3,0.2-0.5,0.5-0.5
		l0,0c0.3,0,0.5,0.2,0.5,0.5l0,0c0,0.3-0.2,0.5-0.5,0.5l0,0C8,5.2,7.8,5,7.8,4.7z"/>
	<path d="M8.3,1.3c-0.1,0-0.3,0-0.4-0.1C7.8,1.1,7.8,0.9,7.8,0.8c0-0.1,0-0.3,0.1-0.3c0.2-0.2,0.5-0.2,0.7,0
		c0.1,0.1,0.1,0.2,0.1,0.4c0,0.1-0.1,0.3-0.1,0.4C8.6,1.3,8.4,1.3,8.3,1.3z"/>
</g>
</svg>
