<?xml version="1.0" encoding="UTF-8"?>
<svg width="830px" height="883px" viewBox="0 0 830 883" version="1.1" xmlns="http://www.w3.org/2000/svg" xmlns:xlink="http://www.w3.org/1999/xlink">
    <!-- Generator: Sketch 58 (84663) - https://sketch.com -->
    <title>dotMemory Copy</title>
    <desc>Created with Sketch.</desc>
    <defs>
        <linearGradient x1="33.2070371%" y1="2.34442341%" x2="70.992569%" y2="101.729184%" id="linearGradient-1">
            <stop stop-color="#885AF5" offset="0%"></stop>
            <stop stop-color="#7866FF" offset="100%"></stop>
        </linearGradient>
        <linearGradient x1="65.3854465%" y1="14.8713849%" x2="39.6402668%" y2="83.2807286%" id="linearGradient-2">
            <stop stop-color="#885AF5" offset="0%"></stop>
            <stop stop-color="#E343E6" offset="100%"></stop>
        </linearGradient>
        <linearGradient x1="89.5738963%" y1="22.2910573%" x2="8.08484848%" y2="74.7416864%" id="linearGradient-3">
            <stop stop-color="#EB62B6" offset="0%"></stop>
            <stop stop-color="#E343E6" offset="100%"></stop>
        </linearGradient>
        <linearGradient x1="93.4749865%" y1="44.730096%" x2="13.9246366%" y2="54.8453591%" id="linearGradient-4">
            <stop stop-color="#EB62B6" offset="0%"></stop>
            <stop stop-color="#FFCE31" offset="100%"></stop>
        </linearGradient>
        <linearGradient x1="75.9390759%" y1="22.7197365%" x2="27.5097746%" y2="89.9787355%" id="linearGradient-5">
            <stop stop-color="#FFE164" offset="0%"></stop>
            <stop stop-color="#FFCE31" offset="100%"></stop>
        </linearGradient>
    </defs>
    <g id="Technology-Partners" stroke="none" stroke-width="1" fill="none" fill-rule="evenodd">
        <g id="dotMemory-Copy" transform="translate(-1.000000, 0.000000)" fill-rule="nonzero">
            <g id="beam/dotMemory-Copy" transform="translate(415.500000, 441.500000) rotate(180.000000) translate(-415.500000, -441.500000) ">
                <g id="dotMemory_head" transform="translate(0.790000, 0.000000)">
                    <polygon id="Shape" fill="url(#linearGradient-1)" points="635.382006 883 589.806 883 448.4646 606.79 512.0766 616.06675"></polygon>
                    <polygon id="Shape" fill="url(#linearGradient-2)" points="453.4866 561.4525 337.5342 784.16425 410.409 812.2735 516.708 620.94925 486.9666 573.31"></polygon>
                    <polygon id="Shape" fill="url(#linearGradient-3)" points="337.5342 784.16425 722.1636 413.65225 829.188 478.79875 410.409 812.2735"></polygon>
                    <polygon id="Shape" fill="url(#linearGradient-4)" points="805.3614 348.50575 829.188 478.79875 122.76 691.11775 0 643.82725 263.2086 490.168"></polygon>
                    <polygon id="Shape" fill="url(#linearGradient-5)" points="0 643.82725 201.031682 3.1817704e-13 611.536887 7.62368818e-13 122.76 691.11775"></polygon>
                </g>
            </g>
        </g>
    </g>
</svg>