<?xml version="1.0" encoding="utf-8"?>
<!-- Generator: Adobe Illustrator 21.1.0, SVG Export Plug-In . SVG Version: 6.00 Build 0)  -->
<svg version="1.1" id="Layer_1" xmlns="http://www.w3.org/2000/svg" xmlns:xlink="http://www.w3.org/1999/xlink" x="0px" y="0px"
	 viewBox="0 0 688 252" style="enable-background:new 0 0 688 252;" xml:space="preserve">
<style type="text/css">
	.st0{fill:#898B8E;}
	.st1{fill:#95979A;}
	.st2{fill:url(#SVGID_1_);}
	.st3{fill:url(#_Path__1_);}
	.st4{fill:url(#_Path_2_1_);}
	.st5{fill:#45484D;}
	.st6{fill:#4E5156;}
	.st7{fill:#888A8D;}
</style>
<title>letushelp</title>
<g>
	<path class="st0" d="M8.8,208.6H6.2v-5h2.6V208.6z M8.8,198.6H6.2v-5h2.6V198.6z M8.8,188.6H6.2v-5h2.6V188.6z M8.8,178.6H6.2v-5
		h2.6V178.6z M8.8,168.6H6.2v-5h2.6V168.6z M8.8,158.6H6.2v-5h2.6V158.6z M8.8,148.6H6.2v-5h2.6V148.6z M8.8,138.6H6.2v-5h2.6V138.6
		z M8.8,128.6H6.2v-3.5h4.6v2h-2V128.6z M220.2,127.1h-6.5v-2h6.5V127.1z M207.1,127.1h-6.5v-2h6.5V127.1z M194,127.1h-6.5v-2h6.5
		V127.1z M181,127.1h-6.5v-2h6.5V127.1z M167.9,127.1h-6.5v-2h6.5V127.1z M154.8,127.1h-6.5v-2h6.5V127.1z M141.7,127.1h-6.5v-2h6.5
		V127.1z M128.6,127.1H122v-2h6.5V127.1z M115.5,127.1H109v-2h6.5V127.1z M102.4,127.1h-6.5v-2h6.5V127.1z M89.3,127.1h-6.5v-2h6.5
		V127.1z M76.2,127.1h-6.5v-2h6.5V127.1z M63.1,127.1h-6.5v-2h6.5V127.1z M50,127.1h-6.5v-2H50V127.1z M37,127.1h-6.5v-2H37V127.1z
		 M23.9,127.1h-6.5v-2h6.5V127.1z"/>
	<polygon class="st0" points="0,208.9 1.3,208 7.5,213 13.6,208 15,208.9 7.5,215.1 	"/>
</g>
<g>
	<path class="st1" d="M679.7,203.6h2.5v5h-2.5V203.6z M679.7,193.6h2.5v5h-2.5V193.6z M679.7,183.6h2.5v5h-2.5V183.6z M679.7,173.6
		h2.5v5h-2.5V173.6z M679.7,163.6h2.5v5h-2.5V163.6z M679.7,153.6h2.5v5h-2.5V153.6z M679.7,143.6h2.5v5h-2.5V143.6z M679.7,133.6
		h2.5v5h-2.5V133.6z M679.7,127.1h-1.9v-2h4.3v3.5h-2.5V127.1z M467.9,125.1h6.2v2h-6.2V125.1z M480.2,125.1h6.2v2h-6.2V125.1z
		 M492.6,125.1h6.2v2h-6.2V125.1z M504.9,125.1h6.2v2h-6.2V125.1z M517.3,125.1h6.2v2h-6.2V125.1z M529.6,125.1h6.2v2h-6.2V125.1z
		 M542,125.1h6.2v2H542V125.1z M554.3,125.1h6.2v2h-6.2V125.1z M566.7,125.1h6.2v2h-6.2V125.1z M579,125.1h6.2v2H579V125.1z
		 M591.4,125.1h6.2v2h-6.2V125.1z M603.7,125.1h6.2v2h-6.2V125.1z M616.1,125.1h6.2v2h-6.2V125.1z M628.4,125.1h6.2v2h-6.2V125.1z
		 M640.8,125.1h6.2v2h-6.2V125.1z M653.1,125.1h6.2v2h-6.2V125.1z M665.5,125.1h6.2v2h-6.2V125.1z"/>
	<polygon class="st1" points="688,208.9 686.7,208 680.9,213 675.1,208 673.9,208.9 680.9,215.1 	"/>
</g>
<g>
	
		<linearGradient id="SVGID_1_" gradientUnits="userSpaceOnUse" x1="373.7209" y1="51.9229" x2="283.725" y2="167.1985" gradientTransform="matrix(1 0 0 -1 0 251.89)">
		<stop  offset="9.140000e-02" style="stop-color:#0B8FFF"/>
		<stop  offset="0.2077" style="stop-color:#0D94F6"/>
		<stop  offset="0.396" style="stop-color:#11A3DE"/>
		<stop  offset="0.6328" style="stop-color:#18BBB7"/>
		<stop  offset="0.871" style="stop-color:#21D789"/>
	</linearGradient>
	<polygon class="st2" points="302.1,168.8 396.7,168.8 349.2,121.4 302.1,74.3 	"/>
	
		<linearGradient id="_Path__1_" gradientUnits="userSpaceOnUse" x1="422.7814" y1="90.2245" x2="332.7855" y2="205.5001" gradientTransform="matrix(1 0 0 -1 0 251.89)">
		<stop  offset="9.140000e-02" style="stop-color:#0B8FFF"/>
		<stop  offset="0.2077" style="stop-color:#0D94F6"/>
		<stop  offset="0.396" style="stop-color:#11A3DE"/>
		<stop  offset="0.6328" style="stop-color:#18BBB7"/>
		<stop  offset="0.871" style="stop-color:#21D789"/>
	</linearGradient>
	<polygon id="_Path_" class="st3" points="396.7,168.8 349.2,121.4 396.7,74.3 	"/>
	
		<linearGradient id="_Path_2_1_" gradientUnits="userSpaceOnUse" x1="355.216" y1="106.3495" x2="387.4463" y2="193.023" gradientTransform="matrix(1 0 0 -1 0 251.89)">
		<stop  offset="0.123" style="stop-color:#21D789"/>
		<stop  offset="0.1319" style="stop-color:#27D788"/>
		<stop  offset="0.2155" style="stop-color:#59D87B"/>
		<stop  offset="0.3033" style="stop-color:#85D970"/>
		<stop  offset="0.3935" style="stop-color:#ABDA67"/>
		<stop  offset="0.487" style="stop-color:#CADB5F"/>
		<stop  offset="0.5847" style="stop-color:#E1DB59"/>
		<stop  offset="0.6884" style="stop-color:#F2DC55"/>
		<stop  offset="0.8023" style="stop-color:#FCDC53"/>
		<stop  offset="0.9459" style="stop-color:#FFDC52"/>
	</linearGradient>
	<polygon id="_Path_2" class="st4" points="370.9,143 349.2,121.4 396.7,74.3 	"/>
</g>
<path class="st5" d="M349.4,0c-69.6,0-126,56.4-126,126s56.4,126,126,126s126-56.4,126-126S419,0,349.4,0z M349.4,221
	c-52.5,0-95-42.5-95-95s42.5-95,95-95s95,42.5,95,95S401.9,221,349.4,221L349.4,221z"/>
<path class="st6" d="M349.4,15c-61.3,0-111,49.7-111,111s49.7,111,111,111s111-49.7,111-111S410.7,15,349.4,15z M349.4,221
	c-52.5,0-95-42.5-95-95s42.5-95,95-95s95,42.5,95,95S401.9,221,349.4,221L349.4,221z"/>
<path class="st7" d="M349.4,28.5c-53.8,0-97.5,43.7-97.5,97.5s43.7,97.5,97.5,97.5s97.5-43.7,97.5-97.5S403.3,28.5,349.4,28.5z
	 M349.4,221c-52.5,0-95-42.5-95-95s42.5-95,95-95s95,42.5,95,95S401.9,221,349.4,221L349.4,221z"/>
</svg>
