<?xml version="1.0" encoding="utf-8"?>
<!-- Generator: Adobe Illustrator 17.0.2, SVG Export Plug-In . SVG Version: 6.00 Build 0)  -->
<!DOCTYPE svg PUBLIC "-//W3C//DTD SVG 1.1//EN" "http://www.w3.org/Graphics/SVG/1.1/DTD/svg11.dtd">
<svg version="1.1" id="Слой_1" xmlns="http://www.w3.org/2000/svg" xmlns:xlink="http://www.w3.org/1999/xlink" x="0px" y="0px"
	 width="73.874992px" height="87.136719px" viewBox="0 0 73.874992 87.136719" enable-background="new 0 0 73.874992 87.136719"
	 xml:space="preserve">
<path fill="#E6E6E8" d="M58.21484,87.136719H16.366211L6.48486,15.34668h61.610844L58.21484,87.136719z M17.848631,85.4375
	h38.883789l9.413086-68.391602H8.43506L17.848631,85.4375z"/>
<path fill="#E6E6E8" d="M73.024902,17.0459H0.8501C0.38086,17.0459,0,16.666019,0,16.196289V9.85254
	c0-0.46973,0.38086-0.84961,0.8501-0.84961h72.174797c0.469238,0,0.850098,0.37988,0.850098,0.84961v6.343749
	C73.875,16.666019,73.494141,17.0459,73.024902,17.0459z M1.7002,15.34668h70.474594V10.70215H1.7002V15.34668z"/>
<path fill="#E6E6E8" d="M64.949219,9.05371H63.24902c0-3.6377-3.98291-6.59766-8.87891-6.59766H20.96875
	c-4.89551,0-8.87842,2.95996-8.87842,6.59766h-1.7002c0-4.5752,4.74561-8.29688,10.57861-8.29688H54.37011
	C60.203609,0.75684,64.949219,4.47852,64.949219,9.05371z"/>
<rect x="15.363281" y="72.766602" fill="#E6E6E8" width="43.923828" height="1.699219"/>
</svg>
