<?xml version="1.0" encoding="utf-8"?>
<!-- Generator: Adobe Illustrator 17.0.2, SVG Export Plug-In . SVG Version: 6.00 Build 0)  -->
<!DOCTYPE svg PUBLIC "-//W3C//DTD SVG 1.1//EN" "http://www.w3.org/Graphics/SVG/1.1/DTD/svg11.dtd">
<svg version="1.1" id="Слой_1" xmlns="http://www.w3.org/2000/svg" xmlns:xlink="http://www.w3.org/1999/xlink" x="0px" y="0px"
	 width="102.390961px" height="48.706051px" viewBox="0 0 102.390961 48.706051" enable-background="new 0 0 102.390961 48.706051"
	 xml:space="preserve">
<path fill="#E8E8EA" d="M62.140621,42.102539l-0.636719-1.576172C77.494141,34.0625,87.916992,18.883789,88.25,1.69922H2.70605
	C2.99707,20.13184,12.74902,34.525391,28.9209,40.300781l-0.572269,1.601559C11.22363,35.78516,1,20.43848,1,0.84961V0h88.958008
	v0.84961C89.958008,19.078119,79.039062,35.271481,62.140621,42.102539z"/>
<path fill="#E8E8EA" d="M75.685547,48.706051H14.29004c-4.125979,0-7.48242-3.411129-7.48242-7.604488v-0.849609h76.360352v0.849609
	C83.167969,45.294922,79.811523,48.706051,75.685547,48.706051z M8.56738,41.951172
	c0.4043,2.855469,2.81641,5.05566,5.72266,5.05566h61.395515c2.90625,0,5.318359-2.200199,5.722664-5.05566H8.56738z"/>
<path fill="#E8E8EA" d="M87.536133,35.49609c-0.516602,0-1.035156-0.026371-1.555656-0.080078
	c-3.499023-0.362301-6.768547-1.963871-9.204102-4.509769l1.228523-1.175779c2.157227,2.254881,5.051758,3.67383,8.151367,3.994139
	c3.496094,0.363281,6.924797-0.662109,9.660156-2.883789s4.441406-5.369141,4.802727-8.86426
	c0.362297-3.494141-0.662109-6.9248-2.883789-9.65918c-2.22168-2.73535-5.369141-4.44141-8.864258-4.80273l0.175781-1.69141
	c3.946289,0.40918,7.5,2.33496,10.007812,5.42188c2.508789,3.08789,3.664062,6.960939,3.255859,10.90723
	c-0.40918,3.946289-2.334961,7.5-5.421883,10.007809C94.208008,34.337891,90.93457,35.49609,87.536133,35.49609z
	 M87.520508,29.584961c-0.307617,0-0.618156-0.015619-0.930656-0.04785c-2.49707-0.258789-4.788094-1.568359-6.285164-3.59473
	l1.367188-1.009769c1.212891,1.6416,3.069344,2.7041,5.09375,2.91309c3.972656,0.415039,7.5625-2.492189,7.974609-6.477541
	c0.413094-3.984381-2.493156-7.5625-6.478523-7.974609c-0.417969-0.04395-0.839844-0.05078-1.25-0.02246l-0.119141-1.69531
	c0.507812-0.03711,1.027344-0.02832,1.544922,0.02637c2.37793,0.24609,4.520508,1.40723,6.032227,3.26758
	s2.208008,4.19531,1.961906,6.57422C95.955078,26.147461,92.052727,29.584961,87.520508,29.584961z"/>
</svg>
