<?xml version="1.0" encoding="utf-8"?>
<!-- Generator: Adobe Illustrator 17.0.2, SVG Export Plug-In . SVG Version: 6.00 Build 0)  -->
<!DOCTYPE svg PUBLIC "-//W3C//DTD SVG 1.1//EN" "http://www.w3.org/Graphics/SVG/1.1/DTD/svg11.dtd">
<svg version="1.1" id="Слой_1" xmlns="http://www.w3.org/2000/svg" xmlns:xlink="http://www.w3.org/1999/xlink" x="0px" y="0px"
	 width="806.268555px" height="393.356873px" viewBox="0 0 806.268555 393.356873"
	 enable-background="new 0 0 806.268555 393.356873" xml:space="preserve">
<g>
	<path fill="#1C1C1C" d="M626.170898,234.628342h-8.323242c-6.174805,0-10.570312-4.144531-12.376953-11.670898
		c-2.077148-8.616211-2.077148-13.870117,0-22.486328c1.723633-7.198242,7.243164-11.67041,14.404297-11.67041h29.041016v-1.061035
		h-21.734375v-9.133301c0-6.544434,1.84375-10.416992,11.569336-12.135254c3.230469-0.571777,6.871094-0.882324,10.530273-0.899414
		l0.330078-0.000488c3.807617,0,7.554688,0.302246,11.136719,0.898438c6.708984,1.118164,11.577148,6.222656,11.577148,12.136719
		v20.695801c0,6.558594-5.255859,11.894531-11.716797,11.894531h-21.709961c-6.780273,0-12.727539,5.912109-12.727539,12.652344
		V234.628342z M619.875,190.5009c-6.333984,0-11.219727,3.972656-12.751953,10.367676
		c-2.003906,8.311523-2.003906,13.378906,0,21.691406c1.135742,4.730469,3.917969,10.369141,10.724609,10.369141h6.624023v-9.080078
		c0-7.779297,6.606445-14.351562,14.426758-14.351562h21.709961c5.523438,0,10.017578-4.574219,10.017578-10.195312v-20.695801
		c0-5.755371-5.110352-9.618164-10.157227-10.459961c-3.490234-0.581055-7.142578-0.875488-10.857422-0.875488l-0.322266,0.000977
		c-3.563477,0.016113-7.105469,0.318359-10.242188,0.873047c-8.698242,1.536621-10.166016,4.469238-10.166016,10.461426v7.433105
		h21.734375v4.461426H619.875z M637.53125,182.217209c-2.717773,0-4.928711-2.233398-4.928711-4.979004
		c0-2.759277,2.210938-5.004395,4.928711-5.004395s4.927734,2.245117,4.927734,5.004395
		C642.458984,179.98381,640.249023,182.217209,637.53125,182.217209z M637.53125,173.934006
		c-1.780273,0-3.229492,1.482422-3.229492,3.304199c0,1.808105,1.449219,3.278809,3.229492,3.278809
		s3.228516-1.470703,3.228516-3.278809C640.759766,175.416428,639.311523,173.934006,637.53125,173.934006z"/>
	<path fill="#1C1C1C" d="M649.68457,258.375427c-3.548828,0-7.155273-0.553711-11.026367-1.692383
		c-7.400391-2.176773-11.476562-6.388687-11.476562-11.85939v-20.696289c0-6.447266,5.365234-11.894531,11.716797-11.894531
		h21.709961c6.780273,0,12.727539-6.042969,12.727539-12.930664v-10.501465h9.006836
		c5.919922,0,9.744141,3.815918,11.692383,11.664551c2.24707,9.03418,2.242188,15.782227-0.018555,22.5625
		c-2.030273,6.113281-4.451172,11.600586-11.673828,11.600586h-31.727539v1.061523h21.709961v9.133789
		c0,5.584961-3.969727,9.686523-11.480469,11.860367C656.923828,257.821716,653.272461,258.375427,649.68457,258.375427z
		 M638.898438,213.932053c-5.429688,0-10.017578,4.668945-10.017578,10.195312v20.696289
		c0,6.275391,6.426758,9.101562,10.257812,10.228516c3.763672,1.107437,7.115234,1.623062,10.545898,1.623062
		c3.425781,0,6.921875-0.53125,10.686523-1.624039c6.804688-1.969727,10.254883-5.411133,10.254883-10.227539v-7.43457h-21.709961
		v-4.459961h33.426758c5.574219,0,7.761719-3.515625,10.060547-10.4375c2.179688-6.540039,2.174805-12.801758-0.018555-21.616211
		c-1.755859-7.078125-4.947266-10.374512-10.041992-10.374512h-7.307617v8.80127c0,7.930664-6.606445,14.629883-14.426758,14.629883
		H638.898438z M661.975586,251.195724c-2.717773,0-4.927734-2.245117-4.927734-5.004883
		c0-2.745117,2.209961-4.978516,4.927734-4.978516s4.928711,2.233398,4.928711,4.978516
		C666.904297,248.950607,664.693359,251.195724,661.975586,251.195724z M661.975586,242.911545
		c-1.780273,0-3.228516,1.47168-3.228516,3.279297c0,1.822266,1.448242,3.305664,3.228516,3.305664
		s3.229492-1.483398,3.229492-3.305664C665.205078,244.383224,663.755859,242.911545,661.975586,242.911545z"/>
</g>
<polygon fill="#1C1C1C" points="805.268555,393.356873 803.569336,393.356873 803.569336,326.206482 511.542969,326.206482 
	511.542969,203.39006 285.452637,203.39006 285.452637,275.206482 4.62939,275.206482 4.62939,393.356873 2.9292,393.356873 
	2.9292,273.507263 283.752441,273.507263 283.752441,201.690842 513.242188,201.690842 513.242188,324.507263 
	805.268555,324.507263 "/>
<g>
	<path fill="#1C1C1C" d="M408.086914,253.476974h-9.667969V231.80217l-4.695801,1.114258l-1.941895-7.87207l9.57373-2.675781
		h6.731934V253.476974z M400.119141,251.777756h6.268555v-27.709961h-4.914551l-7.647949,2.164062l1.14502,4.641602
		l5.148926-1.22168V251.777756z"/>
</g>
<g>
	<path fill="#1C1C1C" d="M174.667969,328.499451H149.85791v-7.360352l11.26416-8.598633
		c2.553223-2.00293,3.461426-3.204102,3.461426-4.580078c0-1.944336-1.710449-2.154297-2.445801-2.154297
		c-1.567871,0-2.869629,0.884766-5.158203,3.505859l-0.545898,0.625977l-6.73291-5.603516l0.501465-0.648438
		c3.057129-3.954102,6.363281-6.586914,12.561523-6.586914c6.836914,0,11.612305,4.174805,11.612305,10.152344
		c0,4.970703-2.394531,7.591797-7.11084,10.993164l-2.806152,1.964844h10.208984V328.499451z M151.558105,326.800232h21.409668
		v-4.891602H159.06543l7.215332-5.049805c4.32959-3.123047,6.39502-5.34668,6.39502-9.524414
		c0-5.138672-3.983398-8.536133-9.912109-8.536133c-5.193359,0-8.034668,2.004883-10.70752,5.285156l4.194824,3.490234
		c2.007324-2.206055,3.685547-3.466797,5.886719-3.466797c2.518555,0,4.145996,1.512695,4.145996,3.853516
		c0,2.250977-1.51123,3.876953-4.121094,5.924805l-10.604492,8.095703V326.800232z"/>
</g>
<g>
	<path fill="#1C1C1C" d="M654.295898,375.227966c-5.414062,0-9.68457-1.78125-13.056641-5.447266l-0.553711-0.602539
		l6.319336-6.268555l0.598633,0.611328c2.089844,2.131836,4.050781,3.083008,6.358398,3.083008
		c1.792969,0,2.864258-0.790039,2.864258-2.112305c0-1.957031-2.447266-2.237305-3.90625-2.237305h-4.073242l-1.428711-5.34375
		l5.425781-4.917969h-9.78418v-8.249023h22.765625v6.996094l-6.048828,5.21582
		c4.347656,1.417969,6.632812,4.37207,6.632812,8.619141C666.40918,370.882263,661.428711,375.227966,654.295898,375.227966z
		 M643.05957,369.218201c2.941406,2.898438,6.625977,4.310547,11.236328,4.310547c6.228516,0,10.414062-3.564453,10.414062-8.870117
		c0-4.036133-2.251953-6.452148-6.883789-7.47168l-1.658203-0.365234l7.958008-6.861328v-4.517578h-19.367188v4.850586H657.25
		l-7.921875,7.179688l0.823242,3.082031h2.768555c3.509766,0,5.605469,1.44043,5.605469,3.852539
		c0,2.364258-1.833984,3.895508-4.563477,3.895508c-2.529297,0-4.758789-0.955078-6.959961-2.996094L643.05957,369.218201z"/>
</g>
<g>
	<path fill="#1C1C1C" d="M388.506836,85.574944c-3.899994,0-7.899994-0.199997-12-0.800003
		c-6.100006-0.800003-13.299988-2.5-13.200012-6.199997c0.100006-3.5,6.700012-6.099998,17.800018-6.900002
		c0.600006,0,1,0.400002,1.100006,0.900002c0,0.599998-0.400024,1-0.900024,1.099998c-12,0.900002-15.899994,3.800003-15.899994,5
		c0,1,2.300018,3.099998,11.399994,4.199997c20,2.5,37.400024-1.800003,47.100006-6.800003
		c0.5-0.300003,1.100006-0.099998,1.300018,0.400002c0.299988,0.5,0.099976,1.099998-0.400024,1.300003
		C416.806824,81.874947,403.806824,85.574944,388.506836,85.574944z"/>
	<path fill="#1C1C1C" d="M388.106842,97.574944c-10.700012,0-15.200012-3-16-5.5c-0.600006-1.800003,0.399994-3.599998,2.5-4.5
		c0.5-0.199997,1.100006,0,1.299988,0.5c0.200012,0.5,0,1.099998-0.5,1.300003c-0.5,0.199997-1.799988,0.900002-1.399994,2
		c1.100006,3.300003,12.899994,7.599998,42.200012-0.300003c0.5-0.099998,1.099976,0.199997,1.199982,0.699997
		s-0.199982,1.099998-0.699982,1.199997C404.206848,96.374947,394.90683,97.574944,388.106842,97.574944z"/>
	<path fill="#1C1C1C" d="M391.006836,109.974953c-8.299988,0-14.799988-1.300003-15.700012-3.699997
		c-0.899994-2.5,3-4.300003,4.200012-4.900002c0.5-0.199997,1.100006,0,1.299988,0.5c0.200012,0.5,0,1.099998-0.5,1.300003
		c-2.899994,1.300003-3.299988,2.199997-3.199982,2.400002c0.899994,2.5,19.899994,4.300003,37.399994-0.699997
		c0.5-0.099998,1.100006,0.199997,1.200012,0.699997c0.199982,0.5-0.200012,1.099998-0.700012,1.199997
		C407.606842,108.874947,398.606842,109.974953,391.006836,109.974953z"/>
	<path fill="#1C1C1C" d="M425.90683,98.574944c-0.399994,0-0.699982-0.199997-0.899994-0.599998
		c-0.200012-0.5,0-1.099998,0.5-1.300003c15.299988-7.699997,19-15.199997,17.5-19.300003s-7.899994-5.699997-15.300018-3.800003
		c-0.5,0.099998-1.099976-0.199997-1.199982-0.699997s0.199982-1.099998,0.699982-1.199997
		c8.5-2.099998,15.800018-0.099998,17.600006,5.099998c2.899994,7.800003-7.699982,16.299995-18.5,21.700005
		C426.206848,98.474953,426.006836,98.574944,425.90683,98.574944z"/>
	<path fill="#1C1C1C" d="M403.90683,125.974953c-4.199982,0-8.600006-0.199997-13.199982-0.5
		c-24.700012-1.900002-37.200012-5-37.400024-9.400002c-0.099976-3,5.300018-5.300003,15.900024-6.800003
		c0.5-0.099998,1.099976,0.300003,1.099976,0.900002s-0.299988,1.099998-0.899994,1.099998
		c-11.600006,1.699997-14.100006,4.000008-14.100006,4.699997c0.100006,1.699997,7.5,5.300003,35.5,7.400002
		c36.5,2.699997,46.900024-5.800003,47.700012-9c0.199982-0.800003-0.200012-1.400002-1-1.800003
		c-0.5-0.199997-0.700012-0.800003-0.5-1.300003c0.199982-0.5,0.799988-0.800003,1.299988-0.5
		c1.800018,0.800003,2.600006,2.300003,2.200012,4.099998c-0.800018,3.199997-5.5,6.400002-12.5,8.400002
		C421.606842,125.074944,413.40683,125.974953,403.90683,125.974953z"/>
	<path fill="#1C1C1C" d="M401.90683,134.274948c-12,0-24.199982-1.5-33.600006-4.600006
		c-0.5-0.199997-0.799988-0.699997-0.599976-1.300003c0.199982-0.600014,0.699982-0.800003,1.299988-0.599998
		c20.799988,6.799995,55.399994,5.799995,69.799988-2.099998c3.5-1.900002,5.700012-4.199997,6.300018-6.599998
		c0.100006-0.5,0.699982-0.900002,1.199982-0.699997c0.5,0.099998,0.900024,0.699997,0.700012,1.199997
		c-0.800018,3-3.200012,5.699997-7.300018,7.900002C431.40683,131.974945,416.806824,134.274948,401.90683,134.274948z"/>
	<path fill="#1C1C1C" d="M406.006836,72.774948c-0.200012,0-0.399994-0.099998-0.600006-0.199997
		c-0.399994-0.300003-0.5-1-0.199982-1.400002c6.599976-8.599998,3.399994-13.599998,0.399994-18.400009
		c-1.899994-3-3.899994-6.099998-2.899994-9.799999c1.399994-4.900002,7.899994-9.899998,21.199982-16.299999
		c0.5-0.200001,1.100006,0,1.300018,0.5c0.199982,0.5,0,1.1-0.5,1.299999c-12.5,6-18.899994,10.799999-20.100006,15
		c-0.799988,2.799999,0.800018,5.299999,2.600006,8.200001c3.100006,4.900002,7,10.900002-0.5,20.700012
		C406.606842,72.674942,406.306824,72.774948,406.006836,72.774948z"/>
	<path fill="#1C1C1C" d="M394.306824,72.774948c-0.299988,0-0.599976-0.199997-0.799988-0.400002
		c-8.5-12.5-12-22.299999-10.399994-29.900009c1.600006-8.200001,8.5-12.799999,15.199982-17.1c9-5.9,16.700012-10.9,11.400024-24
		c-0.200012-0.5,0-1.1,0.599976-1.3c0.600006-0.2,1.100006,0,1.300018,0.6c5.799988,14.5-3.399994,20.5-12.300018,26.299999
		c-6.299988,4.1-12.899994,8.4-14.299988,15.800001c-1.399994,7.099998,1.899994,16.399998,10.100006,28.399998
		c0.299988,0.5,0.200012,1.099998-0.299988,1.400002C394.706848,72.774948,394.506836,72.774948,394.306824,72.774948z"/>
</g>
<g>
	<path fill="#1C1C1C" d="M153.041061,193.557144c-3.110672,0-5.270874-1.03688-7.34465-3.62912l1.296112-1.123306
		c2.073792,2.505829,3.888351,3.024277,6.048538,3.024277c3.62912,0,5.789322-3.024277,5.789322-5.789307v-24.712616h1.728149
		v24.712616C160.558533,189.668808,157.707077,193.557144,153.041061,193.557144z"/>
	<path fill="#1C1C1C" d="M178.876968,193.902786c-8.554367,0-10.973785-3.542725-12.442719-7.431061l1.641754-0.604858
		c1.123306,3.197083,2.937866,6.30777,10.800964,6.30777c3.456299,0,5.875717-1.555344,6.566986-4.233978
		c0.604843-2.419418-0.432037-5.962143-4.147583-7.949509c-0.518433-0.259232-1.123291-0.604858-1.728149-0.950485
		c-4.666016-2.505829-9.504852-5.011642-10.628143-8.727173c-0.432037-1.468933-0.259232-3.024277,0.604858-4.579605
		c1.296112-2.419418,3.283493-3.888351,5.789307-4.233978c3.283493-0.432053,7.171844,1.123291,9.93689,4.061157l-1.209702,1.123291
		c-2.419418-2.505829-5.789322-3.888351-8.467957-3.542725c-1.90097,0.259232-3.456314,1.382523-4.49321,3.283493
		c-0.604843,1.123306-0.777664,2.246613-0.432037,3.283493c0.950485,3.024277,5.616501,5.530106,9.764069,7.690292
		c0.604858,0.345627,1.123306,0.604858,1.728165,0.950485c3.888336,2.160187,5.962128,6.221344,5.011642,9.93689
		C186.308029,191.742584,183.110947,193.902786,178.876968,193.902786z"/>
	<path fill="#1C1C1C" d="M198.664337,205.654221h-81.136841c-0.518448,0-0.864067-0.345627-0.864067-0.864075v-89.172745
		c0-0.518448,0.345627-0.864082,0.864067-0.864082h81.136841c0.518433,0,0.864075,0.345627,0.864075,0.864082v89.172729
		C199.528412,205.308594,199.096375,205.654221,198.664337,205.654221z M118.391571,203.926071h79.408691v-87.444603h-79.408691
		V203.926071z"/>
</g>
<g enable-background="new    ">
	<path fill="#1C1C1C" d="M375.85498,163.911835l1.254883-1.078125c0.945312,1.430664,1.914062,2.201172,3.520508,2.201172
		c1.737305,0,3.013672-1.254883,3.013672-3.697266V151.01828h1.760742v10.297852c0,1.803711-0.52832,3.167969-1.408203,4.047852
		c-0.858398,0.836914-2.024414,1.276367-3.388672,1.276367C378.297363,166.64035,376.82373,165.496796,375.85498,163.911835z"/>
	<path fill="#1C1C1C" d="M388.373535,163.119843v-0.043945c0-2.398438,1.980469-3.673828,4.862305-3.673828
		c1.452148,0,2.486328,0.197266,3.499023,0.483398v-0.395508c0-2.046875-1.254883-3.102539-3.388672-3.102539
		c-1.342773,0-2.398438,0.351562-3.455078,0.835938l-0.505859-1.386719c1.253906-0.571289,2.486328-0.945312,4.136719-0.945312
		c1.606445,0,2.838867,0.417969,3.674805,1.253906c0.769531,0.769531,1.166016,1.870117,1.166016,3.322266v6.953125h-1.62793
		v-1.71582c-0.792969,1.03418-2.112305,1.958008-4.115234,1.958008
		C390.507324,166.662811,388.373535,165.45285,388.373535,163.119843z M396.756348,162.23996v-1.100586
		c-0.835938-0.241211-1.958008-0.483398-3.344727-0.483398c-2.133789,0-3.322266,0.923828-3.322266,2.354492v0.043945
		c0,1.429688,1.320312,2.265625,2.860352,2.265625C395.040527,165.320038,396.756348,164.044647,396.756348,162.23996z"/>
	<path fill="#1C1C1C" d="M400.406738,155.044647h1.871094l3.828125,9.439453l3.850586-9.439453h1.826172l-4.951172,11.463867
		h-1.496094L400.406738,155.044647z"/>
	<path fill="#1C1C1C" d="M413.035645,163.119843v-0.043945c0-2.398438,1.980469-3.673828,4.862305-3.673828
		c1.452148,0,2.486328,0.197266,3.499023,0.483398v-0.395508c0-2.046875-1.254883-3.102539-3.388672-3.102539
		c-1.342773,0-2.398438,0.351562-3.455078,0.835938l-0.505859-1.386719c1.253906-0.571289,2.486328-0.945312,4.136719-0.945312
		c1.606445,0,2.838867,0.417969,3.674805,1.253906c0.769531,0.769531,1.166016,1.870117,1.166016,3.322266v6.953125h-1.62793
		v-1.71582c-0.792969,1.03418-2.112305,1.958008-4.115234,1.958008
		C415.169434,166.662811,413.035645,165.45285,413.035645,163.119843z M421.418457,162.23996v-1.100586
		c-0.835938-0.241211-1.958008-0.483398-3.344727-0.483398c-2.133789,0-3.322266,0.923828-3.322266,2.354492v0.043945
		c0,1.429688,1.320312,2.265625,2.860352,2.265625C419.702637,165.320038,421.418457,164.044647,421.418457,162.23996z"/>
</g>
<g enable-background="new    ">
	<path fill="#1C1C1C" d="M610.502441,276.103241h5.764648c3.476562,0,5.764648,1.848633,5.764648,4.884766v0.043945
		c0,3.322266-2.772461,5.039062-6.050781,5.039062h-3.740234v5.43457h-1.738281V276.103241z M616.047363,284.48703
		c2.551758,0,4.224609-1.364258,4.224609-3.388672v-0.043945c0-2.200195-1.650391-3.344727-4.136719-3.344727h-3.894531v6.777344
		H616.047363z"/>
	<path fill="#1C1C1C" d="M633.647949,280.129608h1.803711l-4.774414,11.75c-0.96875,2.354492-2.068359,3.212891-3.785156,3.212891
		c-0.945312,0-1.649414-0.198242-2.419922-0.572266l0.572266-1.342773c0.549805,0.286133,1.055664,0.417969,1.782227,0.417969
		c1.011719,0,1.650391-0.527344,2.332031-2.133789l-5.170898-11.332031h1.870117l4.136719,9.483398L633.647949,280.129608z"/>
	<path fill="#1C1C1C" d="M638.728027,288.490936v-6.865234h-1.583984v-1.496094h1.583984v-3.432617h1.694336v3.432617h3.608398
		v1.496094h-3.608398v6.645508c0,1.385742,0.769531,1.892578,1.914062,1.892578c0.572266,0,1.055664-0.110352,1.650391-0.396484
		v1.452148c-0.594727,0.308594-1.232422,0.484375-2.046875,0.484375
		C640.11377,291.703827,638.728027,290.801483,638.728027,288.490936z"/>
	<path fill="#1C1C1C" d="M647.021973,275.443085h1.694336v6.666992c0.748047-1.232422,1.936523-2.22168,3.894531-2.22168
		c2.75,0,4.356445,1.847656,4.356445,4.553711v7.063477h-1.694336v-6.644531c0-2.112305-1.143555-3.432617-3.146484-3.432617
		c-1.958008,0-3.410156,1.429688-3.410156,3.564453v6.512695h-1.694336V275.443085z"/>
	<path fill="#1C1C1C" d="M659.869629,285.872772v-0.043945c0-3.212891,2.507812-5.94043,5.94043-5.94043
		c3.411133,0,5.918945,2.683594,5.918945,5.896484v0.043945c0,3.211914-2.530273,5.94043-5.962891,5.94043
		C662.355957,291.769257,659.869629,289.085663,659.869629,285.872772z M669.990723,285.872772v-0.043945
		c0-2.442383-1.826172-4.444336-4.224609-4.444336c-2.463867,0-4.158203,2.001953-4.158203,4.400391v0.043945
		c0,2.442383,1.803711,4.422852,4.202148,4.422852C668.274902,290.251678,669.990723,288.27121,669.990723,285.872772z"/>
	<path fill="#1C1C1C" d="M674.785645,280.129608h1.694336v1.980469c0.748047-1.232422,1.936523-2.22168,3.894531-2.22168
		c2.75,0,4.356445,1.847656,4.356445,4.553711v7.063477h-1.694336v-6.644531c0-2.112305-1.143555-3.432617-3.146484-3.432617
		c-1.958008,0-3.410156,1.429688-3.410156,3.564453v6.512695h-1.694336V280.129608z"/>
</g>
<g enable-background="new    ">
	<path fill="#1C1C1C" d="M100.880371,237.494843l1.254883-1.078125c0.945312,1.430664,1.914062,2.201172,3.520508,2.201172
		c1.737305,0,3.013672-1.254883,3.013672-3.697266v-10.319336h1.760742v10.297852c0,1.803711-0.52832,3.167969-1.408203,4.047852
		c-0.858398,0.836914-2.024414,1.276367-3.388672,1.276367C103.322754,240.223358,101.849121,239.079803,100.880371,237.494843z"/>
	<path fill="#1C1C1C" d="M113.398926,236.70285v-0.043945c0-2.398438,1.980469-3.673828,4.862305-3.673828
		c1.452148,0,2.486328,0.197266,3.499023,0.483398v-0.395508c0-2.046875-1.254883-3.102539-3.388672-3.102539
		c-1.342773,0-2.398438,0.351562-3.455078,0.835938l-0.505859-1.386719c1.253906-0.571289,2.486328-0.945312,4.136719-0.945312
		c1.606445,0,2.838867,0.417969,3.674805,1.253906c0.769531,0.769531,1.166016,1.870117,1.166016,3.322266v6.953125h-1.62793
		v-1.71582c-0.792969,1.03418-2.112305,1.958008-4.115234,1.958008
		C115.532715,240.245819,113.398926,239.035858,113.398926,236.70285z M121.781738,235.822968v-1.100586
		c-0.835938-0.241211-1.958008-0.483398-3.344727-0.483398c-2.133789,0-3.322266,0.923828-3.322266,2.354492v0.043945
		c0,1.429688,1.320312,2.265625,2.860352,2.265625C120.065918,238.903046,121.781738,237.627655,121.781738,235.822968z"/>
	<path fill="#1C1C1C" d="M125.432129,228.627655h1.871094l3.828125,9.439453l3.850586-9.439453h1.826172l-4.951172,11.463867
		h-1.496094L125.432129,228.627655z"/>
	<path fill="#1C1C1C" d="M138.061035,236.70285v-0.043945c0-2.398438,1.980469-3.673828,4.862305-3.673828
		c1.452148,0,2.486328,0.197266,3.499023,0.483398v-0.395508c0-2.046875-1.254883-3.102539-3.388672-3.102539
		c-1.342773,0-2.398438,0.351562-3.455078,0.835938l-0.505859-1.386719c1.253906-0.571289,2.486328-0.945312,4.136719-0.945312
		c1.606445,0,2.838867,0.417969,3.674805,1.253906c0.769531,0.769531,1.166016,1.870117,1.166016,3.322266v6.953125h-1.62793
		v-1.71582c-0.792969,1.03418-2.112305,1.958008-4.115234,1.958008
		C140.194824,240.245819,138.061035,239.035858,138.061035,236.70285z M146.443848,235.822968v-1.100586
		c-0.835938-0.241211-1.958008-0.483398-3.344727-0.483398c-2.133789,0-3.322266,0.923828-3.322266,2.354492v0.043945
		c0,1.429688,1.320312,2.265625,2.860352,2.265625C144.728027,238.903046,146.443848,237.627655,146.443848,235.822968z"/>
	<path fill="#1C1C1C" d="M150.930176,237.759491l1.078125-1.276367c1.606445,1.452148,3.146484,2.178711,5.28125,2.178711
		c2.068359,0,3.432617-1.100586,3.432617-2.619141v-0.043945c0-1.429688-0.770508-2.244141-4.004883-2.925781
		c-3.541992-0.770508-5.170898-1.915039-5.170898-4.445312v-0.043945c0-2.419922,2.134766-4.202148,5.060547-4.202148
		c2.245117,0,3.850586,0.637695,5.413086,1.891602l-1.011719,1.342773c-1.430664-1.166016-2.860352-1.671875-4.445312-1.671875
		c-2.001953,0-3.27832,1.099609-3.27832,2.486328v0.043945c0,1.452148,0.791992,2.265625,4.180664,2.992188
		c3.432617,0.748047,5.016602,2.001953,5.016602,4.356445v0.043945c0,2.640625-2.200195,4.356445-5.258789,4.356445
		C154.780762,240.223358,152.778809,239.409882,150.930176,237.759491z"/>
	<path fill="#1C1C1C" d="M165.032715,234.370819v-0.043945c0-3.212891,2.508789-5.94043,5.831055-5.94043
		c2.15625,0,3.498047,0.901367,4.554688,2.023438l-1.12207,1.188477c-0.902344-0.946289-1.915039-1.71582-3.455078-1.71582
		c-2.310547,0-4.070312,1.958008-4.070312,4.400391v0.043945c0,2.463867,1.803711,4.422852,4.180664,4.422852
		c1.452148,0,2.574219-0.726562,3.476562-1.694336l1.078125,1.011719c-1.144531,1.276367-2.508789,2.200195-4.642578,2.200195
		C167.541504,240.267303,165.032715,237.561249,165.032715,234.370819z"/>
	<path fill="#1C1C1C" d="M178.29834,228.627655h1.694336v2.970703c0.836914-1.892578,2.486328-3.256836,4.642578-3.167969v1.826172
		h-0.131836c-2.486328,0-4.510742,1.782227-4.510742,5.214844v4.532227h-1.694336V228.627655z"/>
	<path fill="#1C1C1C" d="M187.252441,224.27121h1.936523v1.870117h-1.936523V224.27121z M187.362793,228.627655h1.694336v11.375977
		h-1.694336V228.627655z"/>
	<path fill="#1C1C1C" d="M192.993652,228.627655h1.694336v2.289062c0.924805-1.364258,2.266602-2.530273,4.357422-2.530273
		c2.727539,0,5.43457,2.15625,5.43457,5.896484v0.043945c0,3.71875-2.68457,5.918945-5.43457,5.918945
		c-2.112305,0-3.476562-1.144531-4.357422-2.420898v5.699219h-1.694336V228.627655z M202.741699,234.348358v-0.043945
		c0-2.683594-1.848633-4.400391-4.004883-4.400391c-2.112305,0-4.114258,1.782227-4.114258,4.378906v0.043945
		c0,2.640625,2.001953,4.400391,4.114258,4.400391C200.937012,238.727264,202.741699,237.099335,202.741699,234.348358z"/>
	<path fill="#1C1C1C" d="M208.195801,236.988983v-6.865234h-1.583984v-1.496094h1.583984v-3.432617h1.694336v3.432617h3.608398
		v1.496094h-3.608398v6.645508c0,1.385742,0.770508,1.892578,1.914062,1.892578c0.572266,0,1.056641-0.110352,1.650391-0.396484
		v1.452148c-0.59375,0.308594-1.231445,0.484375-2.045898,0.484375
		C209.58252,240.201874,208.195801,239.29953,208.195801,236.988983z"/>
</g>
<polygon fill="#1C1C1C" points="4.01465,275.173279 3.54395,273.540466 37.22168,263.840271 284.01123,263.840271 
	284.01123,265.53949 37.46191,265.53949 "/>
<polygon fill="#1C1C1C" points="512.076172,203.329514 485.616211,192.724533 311.934082,192.724533 283.504395,202.345139 
	282.959473,200.735764 311.654297,191.024338 485.944336,191.024338 512.708984,201.751389 "/>
<polygon fill="#1C1C1C" points="805.183594,326.466248 771.736328,316.833435 512.392578,316.833435 512.392578,315.134216 
	771.976562,315.134216 805.654297,324.833435 "/>
</svg>
