<svg id="Layer_1" data-name="Layer 1" xmlns="http://www.w3.org/2000/svg" xmlns:xlink="http://www.w3.org/1999/xlink" viewBox="0 0 96 96"><defs><style>.cls-1{fill:url(#linear-gradient);}.cls-2{fill:none;}</style><linearGradient id="linear-gradient" x1="13.04" y1="12.99" x2="84.51" y2="84.46" gradientUnits="userSpaceOnUse"><stop offset="0.33" stop-color="#ff8c00"/><stop offset="0.43" stop-color="#fd7f13"/><stop offset="0.63" stop-color="#f85c43"/><stop offset="0.86" stop-color="#f22e83"/></linearGradient></defs><title>mini-orange-settings</title><path class="cls-1" d="M82.08,53.4V42.58c2.13-2.63,4.23-5.29,6.34-7.94,1.33-1.67,1.37-2.22.33-4Q86.1,26,83.42,21.38c-1-1.75-1.58-2-3.56-1.75-3.22.48-6.44,1-9.66,1.46l-9.92-5.73c-1.19-3.1-2.41-6.19-3.63-9.27C56,4.44,55.35,4,53.59,4h-11c-1.93,0-2.49.39-3.2,2.19q-1.91,4.86-3.79,9.73v0l-9.1,5.25c-1-.08-1.9-.3-2.86-.44l-8.22-1.23a2.7,2.7,0,0,0-2.65,1.65c-1.85,3.2-3.72,6.39-5.58,9.59-.93,1.6-.89,2.3.28,3.77,1.83,2.3,3.65,4.6,5.51,6.87V54.6q-2.81,3.46-5.58,7c-1.08,1.36-1.13,2.08-.26,3.59,1.84,3.2,3.73,6.38,5.54,9.6A2.89,2.89,0,0,0,16,76.4c3.27-.54,6.55-1,9.82-1.53l9.83,5.68c1.2,3.13,2.43,6.26,3.66,9.38C40,91.59,40.58,92,42.38,92H53.06c2.24,0,2.7-.31,3.5-2.36,1.26-3.22,2.54-6.42,3.78-9.64l9-5.23h0c3.48.57,7,1.06,10.44,1.62a2.77,2.77,0,0,0,3.19-1.51c1.87-3.31,3.81-6.58,5.71-9.88.88-1.53.82-2.22-.27-3.59C86.36,58.74,84.23,56.06,82.08,53.4Zm-37.59-.52a4.77,4.77,0,0,1-1.94-1.94,6.32,6.32,0,0,1,8.7-8.69,4.81,4.81,0,0,1,1.93,1.94A6.32,6.32,0,0,1,44.49,52.88Z"/><rect class="cls-2" width="96" height="96"/></svg>