<svg id="Layer_1" data-name="Layer 1" xmlns="http://www.w3.org/2000/svg" xmlns:xlink="http://www.w3.org/1999/xlink" viewBox="0 0 96 96"><defs><style>.cls-1{fill:url(#linear-gradient);}.cls-2{fill:url(#linear-gradient-2);}.cls-3{fill:url(#linear-gradient-3);}.cls-4{fill:none;}</style><linearGradient id="linear-gradient" x1="69.38" y1="2.85" x2="74.49" y2="94.99" gradientUnits="userSpaceOnUse"><stop offset="0.33" stop-color="#ff8c00"/><stop offset="0.43" stop-color="#fd7f13"/><stop offset="0.63" stop-color="#f85c43"/><stop offset="0.86" stop-color="#f22e83"/></linearGradient><linearGradient id="linear-gradient-2" x1="-12.64" y1="24.09" x2="26.77" y2="59.84" gradientTransform="translate(34.1 -8.67) rotate(25.86)" xlink:href="#linear-gradient"/><linearGradient id="linear-gradient-3" x1="20.32" y1="12.82" x2="45.09" y2="71.65" xlink:href="#linear-gradient"/></defs><title>mini-orange-invitation</title><path class="cls-1" d="M92,4.29v80l-34.54-26a16.36,16.36,0,0,1,.13-28.56Z"/><path class="cls-2" d="M27.13,46.37h17.6a0,0,0,0,1,0,0V84.68a8.8,8.8,0,0,1-8.8,8.8h0a8.8,8.8,0,0,1-8.8-8.8V46.37A0,0,0,0,1,27.13,46.37Z" transform="translate(-26.9 22.68) rotate(-25.86)"/><path class="cls-3" d="M18.49,29.39h39.6a0,0,0,0,1,0,0V58.75a0,0,0,0,1,0,0H18.49A14.48,14.48,0,0,1,4,44.27v-.4A14.48,14.48,0,0,1,18.49,29.39Z"/><rect class="cls-4" width="96" height="96"/></svg>