<svg id="Layer_1" data-name="Layer 1" xmlns="http://www.w3.org/2000/svg" xmlns:xlink="http://www.w3.org/1999/xlink" width="896.48099" height="600" viewBox="0 0 896.48099 600"><defs><linearGradient id="linear-gradient" x1="561.8421" y1="275.33807" x2="1183.79304" y2="275.33807" gradientUnits="userSpaceOnUse"><stop offset="0" stop-color="#2e34e6"/><stop offset="0.25819" stop-color="#5c51ed"/><stop offset="0.54659" stop-color="#8b6ff4"/><stop offset="0.68935" stop-color="#7c8df8"/><stop offset="0.89293" stop-color="#6ab3fd"/><stop offset="1" stop-color="#63c2ff"/></linearGradient><linearGradient id="linear-gradient-2" x1="74.22776" y1="-3.43242" x2="74.01057" y2="115.15557" xlink:href="#linear-gradient"/><linearGradient id="linear-gradient-3" x1="257.16883" y1="354.167" x2="372.42651" y2="317.38263" gradientTransform="translate(393.08438 806.9862) rotate(180)" xlink:href="#linear-gradient"/><linearGradient id="linear-gradient-4" x1="222.09495" y1="308.70754" x2="319.09952" y2="277.74864" gradientTransform="translate(393.08438 806.9862) rotate(180)" xlink:href="#linear-gradient"/><linearGradient id="linear-gradient-5" x1="361.36381" y1="71.63207" x2="75.97072" y2="76.84473" gradientUnits="userSpaceOnUse"><stop offset="0" stop-color="#63c2ff"/><stop offset="0.10707" stop-color="#6ab3fd"/><stop offset="0.31065" stop-color="#7c8df8"/><stop offset="0.45341" stop-color="#8b6ff4"/><stop offset="0.74181" stop-color="#5c51ed"/><stop offset="1" stop-color="#2e34e6"/></linearGradient><linearGradient id="linear-gradient-6" x1="315.36589" y1="12.36458" x2="78.1899" y2="362.91591" gradientTransform="translate(196.53694 -74.75748) rotate(45.00001)" xlink:href="#linear-gradient-5"/><linearGradient id="linear-gradient-7" x1="41.24633" y1="393.69367" x2="191.10869" y2="345.86525" xlink:href="#linear-gradient-5"/><linearGradient id="linear-gradient-8" x1="-38.61574" y1="35.75952" x2="56.99317" y2="87.34706" gradientTransform="matrix(0, -1, -1, 0, 86.55237, 86.55237)" xlink:href="#linear-gradient-5"/><linearGradient id="linear-gradient-9" x1="-38.1884" y1="-6.99888" x2="57.05193" y2="44.38979" gradientTransform="matrix(0, -1, -1, 0, 86.55237, 86.55237)" xlink:href="#linear-gradient-5"/><linearGradient id="linear-gradient-10" x1="33.65215" y1="72.71806" x2="266.33438" y2="76.53253" xlink:href="#linear-gradient"/><linearGradient id="linear-gradient-11" x1="248.47577" y1="249.99404" x2="69.92636" y2="149.64146" gradientTransform="matrix(0.70799, 0.70711, -0.70799, 0.70711, 171.89182, -41.44904)" xlink:href="#linear-gradient"/><linearGradient id="linear-gradient-12" x1="73.1299" y1="633.9065" x2="304.20021" y2="426.61117" xlink:href="#linear-gradient-5"/><linearGradient id="linear-gradient-13" x1="31.69901" y1="-3.43242" x2="31.48182" y2="115.15557" xlink:href="#linear-gradient"/><linearGradient id="linear-gradient-14" x1="317.97949" y1="587.38109" x2="266.40063" y2="558.39151" xlink:href="#linear-gradient"/><linearGradient id="linear-gradient-15" x1="334.5556" y1="587.38109" x2="282.97674" y2="558.39151" xlink:href="#linear-gradient"/><linearGradient id="linear-gradient-16" x1="350.39581" y1="588.69042" x2="298.81695" y2="559.70085" xlink:href="#linear-gradient"/><linearGradient id="linear-gradient-17" x1="740.56022" y1="106.6358" x2="305.59279" y2="109.95616" xlink:href="#linear-gradient"/></defs><title>YT_teams</title><rect width="896" height="600" fill="none"/><circle cx="791.93723" cy="492.13871" r="104.54376" fill="#8b6ff4" opacity="0"/><circle cx="792.00292" cy="492.20108" r="104.4692" fill="#8b6ff4" opacity="0.00498"/><circle cx="792.06861" cy="492.26344" r="104.39463" fill="#8b6ff4" opacity="0.00995"/><circle cx="792.1343" cy="492.3258" r="104.32007" fill="#8b6ff4" opacity="0.01493"/><circle cx="792.19999" cy="492.38816" r="104.2455" fill="#8b6ff4" opacity="0.0199"/><circle cx="792.26568" cy="492.45052" r="104.17093" fill="#8b6ff4" opacity="0.02488"/><circle cx="792.33137" cy="492.51288" r="104.09637" fill="#8b6ff4" opacity="0.02985"/><circle cx="792.39707" cy="492.57524" r="104.0218" fill="#8b6ff4" opacity="0.03483"/><circle cx="792.46276" cy="492.6376" r="103.94724" fill="#8b6ff4" opacity="0.0398"/><circle cx="792.52845" cy="492.69997" r="103.87267" fill="#8b6ff4" opacity="0.04478"/><circle cx="792.59414" cy="492.76233" r="103.7981" fill="#8b6ff4" opacity="0.04975"/><circle cx="792.65983" cy="492.82469" r="103.72354" fill="#8b6ff4" opacity="0.05473"/><circle cx="792.72552" cy="492.88705" r="103.64897" fill="#8b6ff4" opacity="0.0597"/><circle cx="792.79121" cy="492.94941" r="103.5744" fill="#8b6ff4" opacity="0.06468"/><circle cx="792.85691" cy="493.01177" r="103.49984" fill="#8b6ff4" opacity="0.06965"/><circle cx="792.9226" cy="493.07413" r="103.42527" fill="#8b6ff4" opacity="0.07463"/><circle cx="792.98829" cy="493.13649" r="103.35071" fill="#8b6ff4" opacity="0.0796"/><circle cx="793.05398" cy="493.19885" r="103.27614" fill="#8b6ff4" opacity="0.08458"/><circle cx="793.11967" cy="493.26122" r="103.20157" fill="#8b6ff4" opacity="0.08955"/><circle cx="793.18536" cy="493.32358" r="103.12701" fill="#8b6ff4" opacity="0.09453"/><circle cx="793.25106" cy="493.38594" r="103.05244" fill="#8b6ff4" opacity="0.0995"/><circle cx="793.31675" cy="493.4483" r="102.97788" fill="#8b6ff4" opacity="0.10448"/><circle cx="793.38244" cy="493.51066" r="102.90331" fill="#8b6ff4" opacity="0.10945"/><circle cx="793.44813" cy="493.57302" r="102.82874" fill="#8b6ff4" opacity="0.11443"/><circle cx="793.51382" cy="493.63538" r="102.75418" fill="#8b6ff4" opacity="0.1194"/><circle cx="793.57951" cy="493.69774" r="102.67961" fill="#8b6ff4" opacity="0.12438"/><circle cx="793.6452" cy="493.76011" r="102.60505" fill="#8b6ff4" opacity="0.12935"/><circle cx="793.7109" cy="493.82247" r="102.53048" fill="#8b6ff4" opacity="0.13433"/><circle cx="793.77659" cy="493.88483" r="102.45591" fill="#8b6ff4" opacity="0.1393"/><circle cx="793.84228" cy="493.94719" r="102.38135" fill="#8b6ff4" opacity="0.14428"/><circle cx="793.90797" cy="494.00955" r="102.30678" fill="#8b6ff4" opacity="0.14925"/><circle cx="793.97366" cy="494.07191" r="102.23222" fill="#8b6ff4" opacity="0.15423"/><circle cx="794.03935" cy="494.13427" r="102.15765" fill="#8b6ff4" opacity="0.1592"/><circle cx="794.10505" cy="494.19663" r="102.08308" fill="#8b6ff4" opacity="0.16418"/><circle cx="794.17074" cy="494.259" r="102.00852" fill="#8b6ff4" opacity="0.16915"/><circle cx="794.23643" cy="494.32136" r="101.93395" fill="#8b6ff4" opacity="0.17413"/><circle cx="794.30212" cy="494.38372" r="101.85939" fill="#8b6ff4" opacity="0.1791"/><circle cx="794.36781" cy="494.44608" r="101.78482" fill="#8b6ff4" opacity="0.18408"/><circle cx="794.4335" cy="494.50844" r="101.71025" fill="#8b6ff4" opacity="0.18905"/><circle cx="794.49919" cy="494.5708" r="101.63569" fill="#8b6ff4" opacity="0.19403"/><circle cx="794.56489" cy="494.63316" r="101.56112" fill="#8b6ff4" opacity="0.199"/><circle cx="794.63058" cy="494.69552" r="101.48655" fill="#8b6ff4" opacity="0.20398"/><circle cx="794.69627" cy="494.75788" r="101.41199" fill="#8b6ff4" opacity="0.20896"/><circle cx="794.76196" cy="494.82025" r="101.33742" fill="#8b6ff4" opacity="0.21393"/><circle cx="794.82765" cy="494.88261" r="101.26286" fill="#8b6ff4" opacity="0.21891"/><circle cx="794.89334" cy="494.94497" r="101.18829" fill="#8b6ff4" opacity="0.22388"/><circle cx="794.95903" cy="495.00733" r="101.11372" fill="#8b6ff4" opacity="0.22886"/><circle cx="795.02473" cy="495.06969" r="101.03916" fill="#8b6ff4" opacity="0.23383"/><circle cx="795.09042" cy="495.13205" r="100.96459" fill="#8b6ff4" opacity="0.23881"/><circle cx="795.15611" cy="495.19441" r="100.89003" fill="#8b6ff4" opacity="0.24378"/><circle cx="795.2218" cy="495.25677" r="100.81546" fill="#8b6ff4" opacity="0.24876"/><circle cx="795.28749" cy="495.31914" r="100.74089" fill="#8b6ff4" opacity="0.25373"/><circle cx="795.35318" cy="495.3815" r="100.66633" fill="#8b6ff4" opacity="0.25871"/><circle cx="795.41888" cy="495.44386" r="100.59176" fill="#8b6ff4" opacity="0.26368"/><circle cx="795.48457" cy="495.50622" r="100.5172" fill="#8b6ff4" opacity="0.26866"/><circle cx="795.55026" cy="495.56858" r="100.44263" fill="#8b6ff4" opacity="0.27363"/><circle cx="795.61595" cy="495.63094" r="100.36806" fill="#8b6ff4" opacity="0.27861"/><circle cx="795.68164" cy="495.6933" r="100.2935" fill="#8b6ff4" opacity="0.28358"/><circle cx="795.74733" cy="495.75566" r="100.21893" fill="#8b6ff4" opacity="0.28856"/><circle cx="795.81302" cy="495.81802" r="100.14437" fill="#8b6ff4" opacity="0.29353"/><circle cx="795.87872" cy="495.88039" r="100.0698" fill="#8b6ff4" opacity="0.29851"/><circle cx="795.94441" cy="495.94275" r="99.99523" fill="#8b6ff4" opacity="0.30348"/><circle cx="796.0101" cy="496.00511" r="99.92067" fill="#8b6ff4" opacity="0.30846"/><circle cx="796.07579" cy="496.06747" r="99.8461" fill="#8b6ff4" opacity="0.31343"/><circle cx="796.14148" cy="496.12983" r="99.77154" fill="#8b6ff4" opacity="0.31841"/><circle cx="796.20717" cy="496.19219" r="99.69697" fill="#8b6ff4" opacity="0.32338"/><circle cx="796.27287" cy="496.25455" r="99.6224" fill="#8b6ff4" opacity="0.32836"/><circle cx="796.33856" cy="496.31691" r="99.54784" fill="#8b6ff4" opacity="0.33333"/><circle cx="796.40425" cy="496.37928" r="99.47327" fill="#8b6ff4" opacity="0.33831"/><circle cx="796.46994" cy="496.44164" r="99.3987" fill="#8b6ff4" opacity="0.34328"/><circle cx="796.53563" cy="496.504" r="99.32414" fill="#8b6ff4" opacity="0.34826"/><circle cx="796.60132" cy="496.56636" r="99.24957" fill="#8b6ff4" opacity="0.35323"/><circle cx="796.66701" cy="496.62872" r="99.17501" fill="#8b6ff4" opacity="0.35821"/><circle cx="796.73271" cy="496.69108" r="99.10044" fill="#8b6ff4" opacity="0.36318"/><circle cx="796.7984" cy="496.75344" r="99.02587" fill="#8b6ff4" opacity="0.36816"/><circle cx="796.86409" cy="496.8158" r="98.95131" fill="#8b6ff4" opacity="0.37313"/><circle cx="796.92978" cy="496.87816" r="98.87674" fill="#8b6ff4" opacity="0.37811"/><circle cx="796.99547" cy="496.94053" r="98.80218" fill="#8b6ff4" opacity="0.38308"/><circle cx="797.06116" cy="497.00289" r="98.72761" fill="#8b6ff4" opacity="0.38806"/><circle cx="797.12685" cy="497.06525" r="98.65304" fill="#8b6ff4" opacity="0.39303"/><circle cx="797.19255" cy="497.12761" r="98.57848" fill="#8b6ff4" opacity="0.39801"/><circle cx="797.25824" cy="497.18997" r="98.50391" fill="#8b6ff4" opacity="0.40299"/><circle cx="797.32393" cy="497.25233" r="98.42935" fill="#8b6ff4" opacity="0.40796"/><circle cx="797.38962" cy="497.31469" r="98.35478" fill="#8b6ff4" opacity="0.41294"/><circle cx="797.45531" cy="497.37705" r="98.28021" fill="#8b6ff4" opacity="0.41791"/><circle cx="797.521" cy="497.43942" r="98.20565" fill="#8b6ff4" opacity="0.42289"/><circle cx="797.5867" cy="497.50178" r="98.13108" fill="#8b6ff4" opacity="0.42786"/><circle cx="797.65239" cy="497.56414" r="98.05652" fill="#8b6ff4" opacity="0.43284"/><circle cx="797.71808" cy="497.6265" r="97.98195" fill="#8b6ff4" opacity="0.43781"/><circle cx="797.78377" cy="497.68886" r="97.90738" fill="#8b6ff4" opacity="0.44279"/><circle cx="797.84946" cy="497.75122" r="97.83282" fill="#8b6ff4" opacity="0.44776"/><circle cx="797.91515" cy="497.81358" r="97.75825" fill="#8b6ff4" opacity="0.45274"/><circle cx="797.98084" cy="497.87594" r="97.68368" fill="#8b6ff4" opacity="0.45771"/><circle cx="798.04654" cy="497.9383" r="97.60912" fill="#8b6ff4" opacity="0.46269"/><circle cx="798.11223" cy="498.00067" r="97.53455" fill="#8b6ff4" opacity="0.46766"/><circle cx="798.17792" cy="498.06303" r="97.45999" fill="#8b6ff4" opacity="0.47264"/><circle cx="798.24361" cy="498.12539" r="97.38542" fill="#8b6ff4" opacity="0.47761"/><circle cx="798.3093" cy="498.18775" r="97.31085" fill="#8b6ff4" opacity="0.48259"/><circle cx="798.37499" cy="498.25011" r="97.23629" fill="#8b6ff4" opacity="0.48756"/><circle cx="798.44069" cy="498.31247" r="97.16172" fill="#8b6ff4" opacity="0.49254"/><circle cx="798.50638" cy="498.37483" r="97.08716" fill="#8b6ff4" opacity="0.49751"/><circle cx="798.57207" cy="498.43719" r="97.01259" fill="#8b6ff4" opacity="0.50249"/><circle cx="798.63776" cy="498.49956" r="96.93802" fill="#8b6ff4" opacity="0.50746"/><circle cx="798.70345" cy="498.56192" r="96.86346" fill="#8b6ff4" opacity="0.51244"/><circle cx="798.76914" cy="498.62428" r="96.78889" fill="#8b6ff4" opacity="0.51741"/><circle cx="798.83483" cy="498.68664" r="96.71433" fill="#8b6ff4" opacity="0.52239"/><circle cx="798.90053" cy="498.749" r="96.63976" fill="#8b6ff4" opacity="0.52736"/><circle cx="798.96622" cy="498.81136" r="96.56519" fill="#8b6ff4" opacity="0.53234"/><circle cx="799.03191" cy="498.87372" r="96.49063" fill="#8b6ff4" opacity="0.53731"/><circle cx="799.0976" cy="498.93608" r="96.41606" fill="#8b6ff4" opacity="0.54229"/><circle cx="799.16329" cy="498.99844" r="96.3415" fill="#8b6ff4" opacity="0.54726"/><circle cx="799.22898" cy="499.06081" r="96.26693" fill="#8b6ff4" opacity="0.55224"/><circle cx="799.29467" cy="499.12317" r="96.19236" fill="#8b6ff4" opacity="0.55721"/><circle cx="799.36037" cy="499.18553" r="96.1178" fill="#8b6ff4" opacity="0.56219"/><circle cx="799.42606" cy="499.24789" r="96.04323" fill="#8b6ff4" opacity="0.56716"/><circle cx="799.49175" cy="499.31025" r="95.96867" fill="#8b6ff4" opacity="0.57214"/><circle cx="799.55744" cy="499.37261" r="95.8941" fill="#8b6ff4" opacity="0.57711"/><circle cx="799.62313" cy="499.43497" r="95.81953" fill="#8b6ff4" opacity="0.58209"/><circle cx="799.68882" cy="499.49733" r="95.74497" fill="#8b6ff4" opacity="0.58706"/><circle cx="799.75452" cy="499.5597" r="95.6704" fill="#8b6ff4" opacity="0.59204"/><circle cx="799.82021" cy="499.62206" r="95.59583" fill="#8b6ff4" opacity="0.59701"/><circle cx="799.8859" cy="499.68442" r="95.52127" fill="#8b6ff4" opacity="0.60199"/><circle cx="799.95159" cy="499.74678" r="95.4467" fill="#8b6ff4" opacity="0.60697"/><circle cx="800.01728" cy="499.80914" r="95.37214" fill="#8b6ff4" opacity="0.61194"/><circle cx="800.08297" cy="499.8715" r="95.29757" fill="#8b6ff4" opacity="0.61692"/><circle cx="800.14866" cy="499.93386" r="95.223" fill="#8b6ff4" opacity="0.62189"/><circle cx="800.21436" cy="499.99622" r="95.14844" fill="#8b6ff4" opacity="0.62687"/><circle cx="800.28005" cy="500.05859" r="95.07387" fill="#8b6ff4" opacity="0.63184"/><circle cx="800.34574" cy="500.12095" r="94.99931" fill="#8b6ff4" opacity="0.63682"/><circle cx="800.41143" cy="500.18331" r="94.92474" fill="#8b6ff4" opacity="0.64179"/><circle cx="800.47712" cy="500.24567" r="94.85017" fill="#8b6ff4" opacity="0.64677"/><circle cx="800.54281" cy="500.30803" r="94.77561" fill="#8b6ff4" opacity="0.65174"/><circle cx="800.60851" cy="500.37039" r="94.70104" fill="#8b6ff4" opacity="0.65672"/><circle cx="800.6742" cy="500.43275" r="94.62648" fill="#8b6ff4" opacity="0.66169"/><circle cx="800.73989" cy="500.49511" r="94.55191" fill="#8b6ff4" opacity="0.66667"/><circle cx="800.80558" cy="500.55747" r="94.47734" fill="#8b6ff4" opacity="0.67164"/><circle cx="800.87127" cy="500.61984" r="94.40278" fill="#8b6ff4" opacity="0.67662"/><circle cx="800.93696" cy="500.6822" r="94.32821" fill="#8b6ff4" opacity="0.68159"/><circle cx="801.00265" cy="500.74456" r="94.25365" fill="#8b6ff4" opacity="0.68657"/><circle cx="801.06835" cy="500.80692" r="94.17908" fill="#8b6ff4" opacity="0.69154"/><circle cx="801.13404" cy="500.86928" r="94.10451" fill="#8b6ff4" opacity="0.69652"/><circle cx="801.19973" cy="500.93164" r="94.02995" fill="#8b6ff4" opacity="0.70149"/><circle cx="801.26542" cy="500.994" r="93.95538" fill="#8b6ff4" opacity="0.70647"/><circle cx="801.33111" cy="501.05636" r="93.88081" fill="#8b6ff4" opacity="0.71144"/><circle cx="801.3968" cy="501.11873" r="93.80625" fill="#8b6ff4" opacity="0.71642"/><circle cx="801.46249" cy="501.18109" r="93.73168" fill="#8b6ff4" opacity="0.72139"/><circle cx="801.52819" cy="501.24345" r="93.65712" fill="#8b6ff4" opacity="0.72637"/><circle cx="801.59388" cy="501.30581" r="93.58255" fill="#8b6ff4" opacity="0.73134"/><circle cx="801.65957" cy="501.36817" r="93.50798" fill="#8b6ff4" opacity="0.73632"/><circle cx="801.72526" cy="501.43053" r="93.43342" fill="#8b6ff4" opacity="0.74129"/><circle cx="801.79095" cy="501.49289" r="93.35885" fill="#8b6ff4" opacity="0.74627"/><circle cx="801.85664" cy="501.55525" r="93.28429" fill="#8b6ff4" opacity="0.75124"/><circle cx="801.92234" cy="501.61761" r="93.20972" fill="#8b6ff4" opacity="0.75622"/><circle cx="801.98803" cy="501.67998" r="93.13515" fill="#8b6ff4" opacity="0.76119"/><circle cx="802.05372" cy="501.74234" r="93.06059" fill="#8b6ff4" opacity="0.76617"/><circle cx="802.11941" cy="501.8047" r="92.98602" fill="#8b6ff4" opacity="0.77114"/><circle cx="802.1851" cy="501.86706" r="92.91146" fill="#8b6ff4" opacity="0.77612"/><circle cx="802.25079" cy="501.92942" r="92.83689" fill="#8b6ff4" opacity="0.78109"/><circle cx="802.31648" cy="501.99178" r="92.76232" fill="#8b6ff4" opacity="0.78607"/><circle cx="802.38218" cy="502.05414" r="92.68776" fill="#8b6ff4" opacity="0.79104"/><circle cx="802.44787" cy="502.1165" r="92.61319" fill="#8b6ff4" opacity="0.79602"/><circle cx="802.51356" cy="502.17887" r="92.53863" fill="#8b6ff4" opacity="0.801"/><circle cx="802.57925" cy="502.24123" r="92.46406" fill="#8b6ff4" opacity="0.80597"/><circle cx="802.64494" cy="502.30359" r="92.38949" fill="#8b6ff4" opacity="0.81095"/><circle cx="802.71063" cy="502.36595" r="92.31493" fill="#8b6ff4" opacity="0.81592"/><circle cx="802.77633" cy="502.42831" r="92.24036" fill="#8b6ff4" opacity="0.8209"/><circle cx="802.84202" cy="502.49067" r="92.1658" fill="#8b6ff4" opacity="0.82587"/><circle cx="802.90771" cy="502.55303" r="92.09123" fill="#8b6ff4" opacity="0.83085"/><circle cx="802.9734" cy="502.61539" r="92.01666" fill="#8b6ff4" opacity="0.83582"/><circle cx="803.03909" cy="502.67775" r="91.9421" fill="#8b6ff4" opacity="0.8408"/><circle cx="803.10478" cy="502.74012" r="91.86753" fill="#8b6ff4" opacity="0.84577"/><circle cx="803.17047" cy="502.80248" r="91.79296" fill="#8b6ff4" opacity="0.85075"/><circle cx="803.23617" cy="502.86484" r="91.7184" fill="#8b6ff4" opacity="0.85572"/><circle cx="803.30186" cy="502.9272" r="91.64383" fill="#8b6ff4" opacity="0.8607"/><circle cx="803.36755" cy="502.98956" r="91.56927" fill="#8b6ff4" opacity="0.86567"/><circle cx="803.43324" cy="503.05192" r="91.4947" fill="#8b6ff4" opacity="0.87065"/><circle cx="803.49893" cy="503.11428" r="91.42013" fill="#8b6ff4" opacity="0.87562"/><circle cx="803.56462" cy="503.17664" r="91.34557" fill="#8b6ff4" opacity="0.8806"/><circle cx="803.63032" cy="503.23901" r="91.271" fill="#8b6ff4" opacity="0.88557"/><circle cx="803.69601" cy="503.30137" r="91.19644" fill="#8b6ff4" opacity="0.89055"/><circle cx="803.7617" cy="503.36373" r="91.12187" fill="#8b6ff4" opacity="0.89552"/><circle cx="803.82739" cy="503.42609" r="91.0473" fill="#8b6ff4" opacity="0.9005"/><circle cx="803.89308" cy="503.48845" r="90.97274" fill="#8b6ff4" opacity="0.90547"/><circle cx="803.95877" cy="503.55081" r="90.89817" fill="#8b6ff4" opacity="0.91045"/><circle cx="804.02446" cy="503.61317" r="90.82361" fill="#8b6ff4" opacity="0.91542"/><circle cx="804.09016" cy="503.67553" r="90.74904" fill="#8b6ff4" opacity="0.9204"/><circle cx="804.15585" cy="503.73789" r="90.67447" fill="#8b6ff4" opacity="0.92537"/><circle cx="804.22154" cy="503.80026" r="90.59991" fill="#8b6ff4" opacity="0.93035"/><circle cx="804.28723" cy="503.86262" r="90.52534" fill="#8b6ff4" opacity="0.93532"/><circle cx="804.35292" cy="503.92498" r="90.45078" fill="#8b6ff4" opacity="0.9403"/><circle cx="804.41861" cy="503.98734" r="90.37621" fill="#8b6ff4" opacity="0.94527"/><circle cx="804.4843" cy="504.0497" r="90.30164" fill="#8b6ff4" opacity="0.95025"/><circle cx="804.55" cy="504.11206" r="90.22708" fill="#8b6ff4" opacity="0.95522"/><circle cx="804.61569" cy="504.17442" r="90.15251" fill="#8b6ff4" opacity="0.9602"/><circle cx="804.68138" cy="504.23678" r="90.07795" fill="#8b6ff4" opacity="0.96517"/><circle cx="804.74707" cy="504.29915" r="90.00338" fill="#8b6ff4" opacity="0.97015"/><circle cx="804.81276" cy="504.36151" r="89.92881" fill="#8b6ff4" opacity="0.97512"/><circle cx="804.87845" cy="504.42387" r="89.85425" fill="#8b6ff4" opacity="0.9801"/><circle cx="804.94415" cy="504.48623" r="89.77968" fill="#8b6ff4" opacity="0.98507"/><circle cx="805.00984" cy="504.54859" r="89.70511" fill="#8b6ff4" opacity="0.99005"/><circle cx="805.07553" cy="504.61095" r="89.63055" fill="#8b6ff4" opacity="0.99502"/><circle cx="805.14122" cy="504.67331" r="89.55598" fill="#8b6ff4"/><path d="M895.48091,269.32562a85.17565,85.17565,0,0,0-9.12622,2.91552c-66.51319,25.39014-95.71875-42.56958-95.71875-42.56958s-32.67749-66.63452-95.719-42.56958c-66.51342,25.39039-95.71875-42.56958-95.71875-42.56958s-32.67749-66.63452-95.719-42.56958c-66.51343,25.39039-95.71875-42.56933-95.71875-42.56933L332.81953,253.29193s29.20557,67.95971,95.71875,42.56933c63.04151-24.06494,95.719,42.56958,95.719,42.56958s29.20556,67.95972,95.719,42.56958c63.0415-24.06494,95.71875,42.56934,95.71875,42.56934s29.20557,67.96,95.71875,42.56958c41.22119-15.73535,69.457,7.30639,84.06714,25.14331Z" fill="url(#linear-gradient)"/><rect x="327.08463" y="17.31172" width="247.61899" height="178.77938" fill="#fff"/><path d="M894.466,209.86907h-24a25.02817,25.02817,0,0,1-25-25V34.07806a25.02817,25.02817,0,0,1,25-25h24a1,1,0,0,1,0,2h-24a23.02556,23.02556,0,0,0-23,23v150.791a23.02556,23.02556,0,0,0,23,23h24a1,1,0,1,1,0,2Z"/><path d="M62.123,8.95876h0V98.55837h24V32.95864A23.99992,23.99992,0,0,0,62.123,8.95876Z" fill="url(#linear-gradient-2)"/><rect x="0.27349" y="387.81042" width="48" height="201.27844" rx="23.99998" fill="url(#linear-gradient-3)"/><rect x="100.5765" y="437.09371" width="48" height="151.99516" rx="23.99998" fill="url(#linear-gradient-4)"/><rect x="69.82604" y="50.50722" width="268.24668" height="48" rx="23.8149" fill="url(#linear-gradient-5)"/><path d="M11.02308,175.86228H365.99435a24,24,0,0,1,24,24v.00005a24,24,0,0,1-24,24H11.02307a24,24,0,0,1-24-24v0a24,24,0,0,1,24-24Z" transform="translate(-86.11105 191.83414) rotate(-45.00001)" fill="url(#linear-gradient-6)"/><path d="M118.34413,492.55837H30.70381A30.18917,30.18917,0,0,1,.51464,462.3692V303.74755a30.18918,30.18918,0,0,1,30.18917-30.18918h0A30.18918,30.18918,0,0,1,57.128,289.1479L144.7683,447.76954A30.18918,30.18918,0,0,1,118.34413,492.55837Z" fill="url(#linear-gradient-7)"/><rect x="0.27349" y="0.46751" width="19.32078" height="97.95061" fill="url(#linear-gradient-8)"/><rect x="43.57657" y="0.3321" width="18.54645" height="97.95061" fill="url(#linear-gradient-9)"/><path d="M265.53141,74.21294v.58856a23.70572,23.70572,0,0,1-23.70572,23.70572H43.55723v-48H241.82569A23.70572,23.70572,0,0,1,265.53141,74.21294Z" fill="url(#linear-gradient-10)"/><path d="M-21.94031,162.43922H293.62719a24,24,0,0,1,24,24v0a24,24,0,0,1-24,24H-21.94031a24,24,0,0,1-24-24v-.00005a24,24,0,0,1,24-24Z" transform="translate(-92.04481 150.66257) rotate(-44.99999)" fill="url(#linear-gradient-11)"/><path d="M.68162,567.55836v0a24,24,0,0,1,24-24h254v48h-254A24,24,0,0,1,.68162,567.55836Z" fill="url(#linear-gradient-12)"/><path d="M123.35151,439.09368a23.20216,23.20216,0,1,1-22.99585,26.43042l-.24755-1.77587-1.792.05273c-.06225.00171-.12426.00537-.18969.01147a5.61929,5.61929,0,1,1,1.95337-10.88159l1.68212.62354.802-1.60474a23.11531,23.11531,0,0,1,20.78759-12.856m0-2a25.22246,25.22246,0,0,0-22.57666,13.96192,7.61762,7.61762,0,1,0-2.64843,14.75683c.08374,0,.16528-.01.24829-.01245a25.22188,25.22188,0,1,0,24.9768-28.7063Z"/><path d="M123.35159,437.09361a25.22254,25.22254,0,0,0-22.57668,13.96215,7.61752,7.61752,0,1,0-2.64855,14.75663c.08383,0,.1651-.00987.24816-.01256a25.21873,25.21873,0,0,0,24.97707,21.6981H72.10587a23.34035,23.34035,0,0,1-23.3404-23.3404V437.09361Z"/><path d="M126.85016,459.00234l-.00314,3.95124a1.8118,1.8118,0,0,1-1.81406,1.80955h0a1.8118,1.8118,0,0,1-1.81119-1.81243l.00314-3.95123a1.81181,1.81181,0,0,1,1.81407-1.80956h0A1.81179,1.81179,0,0,1,126.85016,459.00234Z"/><path d="M142.82544,459.00234l-.00314,3.95124a1.81181,1.81181,0,0,1-1.81406,1.80955h0a1.8118,1.8118,0,0,1-1.81119-1.81243l.00314-3.95123a1.81181,1.81181,0,0,1,1.81406-1.80956h0A1.8118,1.8118,0,0,1,142.82544,459.00234Z"/><path d="M141.27008,444.561a25.23239,25.23239,0,0,0-35.83716,0Z"/><path d="M19.59427,8.95876h0V98.55837h24V32.95864A23.99992,23.99992,0,0,0,19.59427,8.95876Z" fill="url(#linear-gradient-13)"/><path d="M277.68162,543.55834h16.57611a0,0,0,0,1,0,0v46.82151a8.288,8.288,0,0,1-8.288,8.288h0a8.288,8.288,0,0,1-8.288-8.288V543.55834A0,0,0,0,1,277.68162,543.55834Z" fill="url(#linear-gradient-14)"/><path d="M294.25773,543.55834h16.57611a0,0,0,0,1,0,0v46.82151a8.288,8.288,0,0,1-8.288,8.288h0a8.288,8.288,0,0,1-8.288-8.288V543.55834A0,0,0,0,1,294.25773,543.55834Z" fill="url(#linear-gradient-15)"/><path d="M310.83384,543.55834h8.28806a8.288,8.288,0,0,1,8.288,8.288v38.53346a8.288,8.288,0,0,1-8.288,8.288h0a8.288,8.288,0,0,1-8.288-8.288V543.55834A0,0,0,0,1,310.83384,543.55834Z" fill="url(#linear-gradient-16)"/><path d="M193.13123,154.9218a10.56708,10.56708,0,1,0,10.56708,10.56708A10.56706,10.56706,0,0,0,193.13123,154.9218Zm39.91426,0a10.56708,10.56708,0,1,0,10.56708,10.56708A10.56706,10.56706,0,0,0,233.04549,154.9218Zm39.91427,0a10.56708,10.56708,0,1,0,10.56708,10.56708A10.56719,10.56719,0,0,0,272.95976,154.9218ZM312.874,176.056a10.56708,10.56708,0,1,0-10.56708-10.56708A10.56707,10.56707,0,0,0,312.874,176.056ZM193.13123,194.11889A10.56708,10.56708,0,1,0,203.69831,204.686,10.56707,10.56707,0,0,0,193.13123,194.11889Zm39.91426,0A10.56708,10.56708,0,1,0,243.61257,204.686,10.56707,10.56707,0,0,0,233.04549,194.11889Zm39.91427,0A10.56708,10.56708,0,1,0,283.52684,204.686,10.5672,10.5672,0,0,0,272.95976,194.11889Zm39.91426,0A10.56708,10.56708,0,1,0,323.4411,204.686,10.5672,10.5672,0,0,0,312.874,194.11889ZM193.13123,233.316a10.56708,10.56708,0,1,0,10.56708,10.56707A10.56706,10.56706,0,0,0,193.13123,233.316Zm39.91426,0a10.56708,10.56708,0,1,0,10.56708,10.56707A10.56706,10.56706,0,0,0,233.04549,233.316Zm39.91427,0a10.56708,10.56708,0,1,0,10.56708,10.56707A10.56719,10.56719,0,0,0,272.95976,233.316Zm39.91426,0a10.56708,10.56708,0,1,0,10.56708,10.56707A10.5672,10.5672,0,0,0,312.874,233.316ZM193.13123,272.51308a10.567,10.567,0,1,0,10.56708,10.56708A10.56706,10.56706,0,0,0,193.13123,272.51308Zm39.91426,0a10.567,10.567,0,1,0,10.56708,10.56708A10.56706,10.56706,0,0,0,233.04549,272.51308Zm39.91427,0a10.567,10.567,0,1,0,10.56708,10.56708A10.56719,10.56719,0,0,0,272.95976,272.51308Zm39.91426,0a10.567,10.567,0,1,0,10.56708,10.56708A10.5672,10.5672,0,0,0,312.874,272.51308Z"/><path d="M704.802,443.65325H389.79414a1,1,0,0,1,0-2H704.802a1,1,0,0,1,0,2Z"/><rect x="380.21147" y="579.3931" width="19.16524" height="19.16524"/><rect x="380.21147" y="433.07038" width="19.16524" height="19.16524"/><rect x="541.23279" y="433.07038" width="19.16524" height="19.16524"/><rect x="691.61705" y="579.3931" width="19.16524" height="19.16524"/><rect x="691.61705" y="433.07038" width="19.16524" height="19.16524"/><path d="M702.19941,598.55853h-2c0-85.30371-69.39941-154.70313-154.70214-154.70313-85.30372,0-154.70313,69.39942-154.70313,154.70313h-2c0-86.40625,70.29688-156.70313,156.70313-156.70313S702.19941,512.15228,702.19941,598.55853Z"/><circle cx="550.81541" cy="550.05028" r="13.10151"/><path d="M550.81563,556.81927a.99942.99942,0,0,1-1-1V467.07415a1,1,0,1,1,2,0v88.74512A.99943.99943,0,0,1,550.81563,556.81927Z"/><path d="M501.47969,599.55853a.99987.99987,0,0,1-.793-.38867L469.715,559.05072l.53223-.61817L550.76,464.79681l81.044,94.25391L600.8332,599.16986a1.00049,1.00049,0,0,1-1.584-1.22266l29.97461-38.82813L550.76,467.86517l-78.46484,91.2539L502.2707,597.9472a.99989.99989,0,0,1-.791,1.61133Z"/><rect x="287.42931" y="84.71659" width="247.61899" height="170.75518" fill="#fff"/><rect x="287.42931" y="83.54909" width="246.16675" height="51.21232" fill="url(#linear-gradient-17)"/><rect x="374.2989" y="170.50367" width="71.63984" height="51.17487" fill="#8b6ff4"/><circle cx="440.18757" cy="175.07417" r="21.01693" fill="#2e34e6"/><path d="M788.83882,80.49285a22.84369,22.84369,0,0,1,20.5437,12.70508l.802,1.60449,1.68189-.623a5.53459,5.53459,0,1,1,1.92431,10.72021h-.00317c-.05859-.00415-.11719-.00781-.17627-.00976l-1.7981-.05884-.24829,1.782a22.94918,22.94918,0,1,1-22.72607-26.12012m0-2a24.92982,24.92982,0,1,0,24.707,28.396c.08228.00269.1626.01245.24561.01245a7.53688,7.53688,0,1,0-2.61988-14.59741,24.94987,24.94987,0,0,0-22.33276-13.811Z"/><path d="M785.37811,100.16475l.0031,3.90853a1.79223,1.79223,0,0,0,1.79446,1.79h0a1.79221,1.79221,0,0,0,1.79161-1.79284l-.00311-3.90853a1.79221,1.79221,0,0,0-1.79445-1.79h0A1.79221,1.79221,0,0,0,785.37811,100.16475Z"/><path d="M769.57548,100.16475l.0031,3.90853a1.79223,1.79223,0,0,0,1.79446,1.79h0a1.79221,1.79221,0,0,0,1.79161-1.79284l-.0031-3.90853a1.79222,1.79222,0,0,0-1.79446-1.79h0A1.79221,1.79221,0,0,0,769.57548,100.16475Z"/><path d="M771.114,85.87949a24.95972,24.95972,0,0,1,35.44986,0Z"/><path d="M895.46646,73.7735c-8.34938-.76841-10.7647,6.48947-21.72268,6.96394-12.57039.54432-12.7912-4.55766-25.362-4.01334-12.56874.54411-12.34794,5.64608-24.91668,6.19019-12.56834.54411-15.37844-5.49367-27.94616-4.94936-2.34137.10147-4.471.27277-6.45126.5361a24.9465,24.9465,0,0,1,22.10371,13.803,7.53529,7.53529,0,1,1,2.6199,14.5973c-.08278,0-.1633-.00986-.24546-.01253a24.96129,24.96129,0,0,1-16.49438,20.07577c.96066-.092,1.99589-.16761,3.13238-.2169,12.57038-.54411,12.7914,4.55766,25.36178,4.01334,12.56895-.54411,12.34794-5.64608,24.91689-6.19019,12.56813-.54411,12.78914,4.55766,25.35727,4.01355,10.74231-.46524,12.22942-.86885,19.64669-4.08647Z" fill-rule="evenodd"/><rect x="358.84386" y="9.3395" width="216.24349" height="21"/></svg>