<svg id="Layer_1" data-name="Layer 1" xmlns="http://www.w3.org/2000/svg" xmlns:xlink="http://www.w3.org/1999/xlink" width="896.42464" height="600" viewBox="0 0 896.42464 600"><defs><linearGradient id="linear-gradient" x1="906.3983" y1="522.72147" x2="752.40573" y2="101.59895" gradientUnits="userSpaceOnUse"><stop offset="0" stop-color="#63c2ff"/><stop offset="0.11866" stop-color="#6ab3fd"/><stop offset="0.34428" stop-color="#7c8df8"/><stop offset="0.50248" stop-color="#8b6ff4"/><stop offset="0.76499" stop-color="#5c51ed"/><stop offset="1" stop-color="#2e34e6"/></linearGradient><linearGradient id="linear-gradient-2" x1="857.09285" y1="72.74988" x2="597.31574" y2="318.25352" gradientTransform="matrix(0.75502, 0.70711, -0.75502, 0.70711, 223.60871, -425.98593)" gradientUnits="userSpaceOnUse"><stop offset="0" stop-color="#2e34e6"/><stop offset="0.25819" stop-color="#5c51ed"/><stop offset="0.54659" stop-color="#8b6ff4"/><stop offset="0.6843" stop-color="#7c8df8"/><stop offset="0.88067" stop-color="#6ab3fd"/><stop offset="0.98395" stop-color="#63c2ff"/></linearGradient><linearGradient id="linear-gradient-3" x1="786.00891" y1="525.29054" x2="389.19523" y2="521.38105" gradientUnits="userSpaceOnUse"><stop offset="0" stop-color="#2e34e6"/><stop offset="0.25819" stop-color="#5c51ed"/><stop offset="0.54659" stop-color="#8b6ff4"/><stop offset="0.68935" stop-color="#7c8df8"/><stop offset="0.89293" stop-color="#6ab3fd"/><stop offset="1" stop-color="#63c2ff"/></linearGradient><linearGradient id="linear-gradient-4" x1="556.37246" y1="406.30597" x2="761.62091" y2="559.75363" gradientTransform="translate(737.33053 -324.69571) rotate(60.00001)" xlink:href="#linear-gradient-3"/><linearGradient id="linear-gradient-5" x1="745.20979" y1="12.63729" x2="835.12816" y2="75.1892" xlink:href="#linear-gradient"/><linearGradient id="linear-gradient-6" x1="708.28462" y1="414.51309" x2="288.01397" y2="109.57253" xlink:href="#linear-gradient"/><linearGradient id="linear-gradient-7" x1="-2997.33984" y1="-237.60363" x2="-2899.19911" y2="-184.65" gradientTransform="translate(159.83657 3488.08525) rotate(90)" gradientUnits="userSpaceOnUse"><stop offset="0" stop-color="#63c2ff"/><stop offset="0.10707" stop-color="#6ab3fd"/><stop offset="0.31065" stop-color="#7c8df8"/><stop offset="0.45341" stop-color="#8b6ff4"/><stop offset="0.74181" stop-color="#5c51ed"/><stop offset="1" stop-color="#2e34e6"/></linearGradient><linearGradient id="linear-gradient-8" x1="-905.37557" y1="1738.08954" x2="-905.59276" y2="1856.67754" gradientTransform="matrix(1, 0, 0, -1, 1292.85956, 2355.06227)" xlink:href="#linear-gradient-3"/><linearGradient id="linear-gradient-9" x1="824.95647" y1="298.58417" x2="672.74224" y2="514.41032" xlink:href="#linear-gradient-3"/><linearGradient id="linear-gradient-10" x1="742.80062" y1="260.58932" x2="493.25055" y2="496.42785" gradientTransform="translate(431.4651 -371.22341) rotate(45.00001)" xlink:href="#linear-gradient-2"/><linearGradient id="linear-gradient-11" x1="571.09977" y1="256.52097" x2="321.01729" y2="492.86266" gradientTransform="matrix(1.03388, -0.03388, -0.03388, 1.03388, -6.94288, 6.94288)" xlink:href="#linear-gradient-2"/><linearGradient id="linear-gradient-12" x1="-1521.00715" y1="514.44514" x2="-1572.58601" y2="485.45557" gradientTransform="matrix(1, 0, 0, -1, 1878.7239, 983.49361)" xlink:href="#linear-gradient-3"/><linearGradient id="linear-gradient-13" x1="-1509.31832" y1="511.69828" x2="-1560.89718" y2="482.7087" gradientTransform="matrix(1, 0, 0, -1, 1845.57168, 983.49362)" xlink:href="#linear-gradient-3"/><linearGradient id="linear-gradient-14" x1="-1494.11012" y1="510.92945" x2="-1545.68898" y2="481.93987" gradientTransform="matrix(1, 0, 0, -1, 1812.41945, 983.49362)" xlink:href="#linear-gradient-3"/><linearGradient id="linear-gradient-15" x1="-1465.98876" y1="540.17447" x2="-1545.21767" y2="495.64436" gradientTransform="matrix(1, 0, 0, -1, 1779.26723, 1025.55988)" xlink:href="#linear-gradient-3"/><linearGradient id="linear-gradient-16" x1="-2255.44184" y1="73.4104" x2="-2159.83293" y2="124.99794" gradientTransform="translate(2981.09398 476.28887)" xlink:href="#linear-gradient-7"/><linearGradient id="linear-gradient-17" x1="-1215.58884" y1="996.25612" x2="-1215.80603" y2="1114.84392" gradientTransform="matrix(0, -1, -1, 0, 1848.07099, -656.73411)" xlink:href="#linear-gradient-3"/></defs><title>YT_teams</title><path d="M212.75394,211.9345C96.44242,211.9345,1.81644,117.30853,1.81644.998h48c0,89.84375,73.09375,162.93652,162.9375,162.93652S375.69144,90.84173,375.69144.998h48C423.69144,117.30853,329.06546,211.9345,212.75394,211.9345Z" fill="#63c2ff"/><rect x="734.48582" y="0.68566" width="161.82358" height="546.35359" fill="url(#linear-gradient)"/><polygon points="894.309 1.684 894.309 125.303 832.5 63.494 894.309 1.684" fill="#fff"/><rect x="529.27477" y="204.53038" width="347.64122" height="48" transform="translate(44.33653 564.0986) rotate(-45.00001)" fill="url(#linear-gradient-2)"/><path d="M270.82572,383.59588V544.97039H21.05985V383.59588H270.82572m2-2H19.05985V546.97039H272.82572V381.59588Z" fill="#63c2ff"/><rect x="19.05993" y="381.94226" width="253.76568" height="21"/><path d="M419.46683,300.99993H293.68949a1,1,0,0,1,0-2H419.46683a1,1,0,0,1,0,2Z" fill="#63c2ff"/><path d="M491.05668,539.94915a.99942.99942,0,0,1-1-1V113.89447h121.583a1,1,0,0,1,0,2h-119.583V538.94915A.99942.99942,0,0,1,491.05668,539.94915Z" fill="#63c2ff"/><path d="M385.41478,547.03925v-48H729.471a24,24,0,0,1,24,24v0a24,24,0,0,1-24,24Z" fill="url(#linear-gradient-3)"/><path d="M649.85993,359.38142h0a24,24,0,0,1,24,24V569.01661a24,24,0,0,1-24,24h0a24,24,0,0,1-24-24V383.3814a24,24,0,0,1,24-24Z" transform="translate(-87.47041 800.89484) rotate(-60.00001)" fill="url(#linear-gradient-4)"/><path d="M847.6644,83.02037H794.60609a19.46209,19.46209,0,0,1-19.405-19.405v-.53076a19.46209,19.46209,0,0,1,19.405-19.405H847.6644Z" fill="url(#linear-gradient-5)"/><path d="M609.34574,162.372a23.20519,23.20519,0,0,1,20.8706,12.91968l.80225,1.606,1.68311-.62451a5.65055,5.65055,0,1,1,1.95849,10.948h-.0039c-.05665-.00391-.11377-.00757-.1709-.00953l-1.80274-.06323-.24853,1.78638a23.3147,23.3147,0,0,1-46.17725-.00415l-.229-1.64917-1.66358-.07349a5.64944,5.64944,0,1,1,1.84522-11.06128l1.59326.46753.75293-1.47949a23.23006,23.23006,0,0,1,20.79-12.7627m0-2A25.3107,25.3107,0,0,0,586.773,174.22772a7.64879,7.64879,0,1,0-2.49707,14.97827,25.31472,25.31472,0,0,0,50.13916.00439c.0835.00293.165.0127.249.0127a7.65445,7.65445,0,1,0-2.65821-14.82495A25.31378,25.31378,0,0,0,609.34574,160.372Z"/><path d="M671.604,67.85475c-7.15116,5.78926-3.34508,13.19793-11.38428,21.96439-9.15414,9.98288-13.2059,6.26749-22.36029,16.25063-9.15312,9.9816-5.10136,13.69687-14.25447,23.6786-9.15286,9.981-15.88778,7.52417-25.03986,17.50487-8.17323,8.91284-11.68964,15.40761-11.34235,25.99916.06226-.0647.12915-.12219.19192-.186a25.24778,25.24778,0,0,1,28.43844-11.83473,24.25859,24.25859,0,0,1,9.82172,5.11679,25.434,25.434,0,0,1,6.331,8.04974,7.623,7.623,0,0,1,9.63135,4.02578c7.54836-7.00427,11.65439-4.7677,19.9722-13.83875,9.15311-9.98147,5.10136-13.697,14.25447-23.67846,9.15285-9.98122,13.20461-6.26582,22.35721-16.24691,8.581-9.35763,8.74022-10.17853,12.848-20.61572Z" fill-rule="evenodd"/><path d="M599.97291,183.9985l-.00269,3.38592a1.55259,1.55259,0,0,1-1.55452,1.55066h0a1.55258,1.55258,0,0,1-1.55205-1.55312l.00269-3.38592a1.55258,1.55258,0,0,1,1.55452-1.55066h0A1.55258,1.55258,0,0,1,599.97291,183.9985Z"/><path d="M615.32249,183.9985l-.00269,3.38592a1.55259,1.55259,0,0,1-1.55452,1.55066h0a1.55258,1.55258,0,0,1-1.55205-1.55312l.00269-3.38592a1.55258,1.55258,0,0,1,1.55452-1.55066h0A1.55257,1.55257,0,0,1,615.32249,183.9985Z"/><path d="M654.59856,234.28442H566.95824a30.18918,30.18918,0,0,0-30.18917,30.18918V423.09524a30.18917,30.18917,0,0,0,30.18917,30.18918h0a30.18919,30.18919,0,0,0,26.42417-15.58952l87.64027-158.62165A30.18918,30.18918,0,0,0,654.59856,234.28442Z" fill="url(#linear-gradient-6)"/><rect x="356.02927" y="499.1795" width="19.32078" height="100.8205" fill="url(#linear-gradient-7)"/><path d="M375.35005,588.63886h0V499.03925h24V564.639A23.99991,23.99991,0,0,1,375.35005,588.63886Z" fill="url(#linear-gradient-8)"/><path d="M800.4905,88.80765h16.57611a0,0,0,0,1,0,0v46.82151a8.288,8.288,0,0,1-8.288,8.288h0a8.288,8.288,0,0,1-8.288-8.288V88.80765A0,0,0,0,1,800.4905,88.80765Z" transform="translate(319.16641 -537.81103) rotate(45)" fill="#2e34e6"/><path d="M812.21158,100.52873h16.57611a0,0,0,0,1,0,0v46.82151a8.288,8.288,0,0,1-8.288,8.288h0a8.288,8.288,0,0,1-8.288-8.288V100.52873A0,0,0,0,1,812.21158,100.52873Z" transform="translate(330.88744 -542.66603) rotate(45)" fill="#2e34e6"/><path d="M823.93266,112.24981h8.28806a8.288,8.288,0,0,1,8.288,8.288v38.53346a8.288,8.288,0,0,1-8.288,8.288h0a8.288,8.288,0,0,1-8.288-8.288V112.24981A0,0,0,0,1,823.93266,112.24981Z" transform="translate(342.60858 -547.5211) rotate(45)" fill="#2e34e6"/><path d="M757.86284,217.23975h0a24,24,0,0,1,24,24v312.5696h-48V241.23973A24,24,0,0,1,757.86284,217.23975Z" fill="url(#linear-gradient-9)"/><path d="M530.81665,311.21263H796.86084a24,24,0,0,1,24,24v0a24,24,0,0,1-24,24H530.81664a24,24,0,0,1-24-24v0A24,24,0,0,1,530.81665,311.21263Z" transform="translate(-42.59722 567.5865) rotate(-45.00001)" fill="url(#linear-gradient-10)"/><path d="M576.0889,244.997l.06006.06007a23.95751,23.95751,0,0,1,0,33.881L355.97886,499.10818l-33.94113-33.94112L542.20783,244.997A23.95755,23.95755,0,0,1,576.0889,244.997Z" fill="url(#linear-gradient-11)"/><path d="M52.88771,580.42542V567.79983H1.26481v12.62559a9.7596,9.7596,0,0,0,9.73088,9.73088H62.61858A9.75959,9.75959,0,0,1,52.88771,580.42542Z"/><path d="M289.65726,591.15618H10.7305A10.74236,10.74236,0,0,1,0,580.42572v-12.626a1,1,0,0,1,2,0v12.626a8.73976,8.73976,0,0,0,8.73046,8.73046H289.65726a8.74061,8.74061,0,0,0,8.73145-8.73046v-12.626a1,1,0,0,1,2,0v12.626A10.74321,10.74321,0,0,1,289.65726,591.15618Z"/><polygon points="491.056 70.283 422.115 1.341 491.056 1.341 491.056 70.283" fill="#63c2ff"/><path d="M1.26468,569.61907a.99942.99942,0,0,1-1-1V363.50677h63.877a1,1,0,0,1,0,2H2.26468v203.1123A.99942.99942,0,0,1,1.26468,569.61907Z"/><path d="M147.90043,527.95306a55.09082,55.09082,0,1,1,55.09082-55.09082A55.15372,55.15372,0,0,1,147.90043,527.95306Zm0-108.18164a53.09082,53.09082,0,1,0,53.09082,53.09082A53.15111,53.15111,0,0,0,147.90043,419.77142Z"/><path d="M147.90022,418.77085c-.30108,0-.59791.01791-.89757.02274v54.9659h54.96562c.00511-.3.02274-.59649.02274-.89757A54.09092,54.09092,0,0,0,147.90022,418.77085Z"/><path d="M183.98441,511.74212a.99672.99672,0,0,1-.707-.293L146.003,474.17376V418.77044a1,1,0,0,1,2,0v54.5752l36.68848,36.68945a1,1,0,0,1-.707,1.707Z"/><path d="M314.26588,464.192h0a8.288,8.288,0,0,1,8.288,8.288v46.82151a0,0,0,0,1,0,0H305.97783a0,0,0,0,1,0,0V472.48008A8.288,8.288,0,0,1,314.26588,464.192Z" transform="translate(628.53178 983.49361) rotate(-180)" fill="url(#linear-gradient-12)"/><path d="M297.68977,464.192h0a8.288,8.288,0,0,1,8.288,8.288v46.82151a0,0,0,0,1,0,0H289.40172a0,0,0,0,1,0,0V472.48008A8.288,8.288,0,0,1,297.68977,464.192Z" transform="translate(595.37956 983.49361) rotate(180)" fill="url(#linear-gradient-13)"/><path d="M281.11366,464.192h0a8.288,8.288,0,0,1,8.288,8.288v46.82151a0,0,0,0,1,0,0H272.82561a0,0,0,0,1,0,0V472.48008A8.288,8.288,0,0,1,281.11366,464.192Z" transform="translate(562.22734 983.49361) rotate(180)" fill="url(#linear-gradient-14)"/><path d="M264.53755,464.192h0a8.288,8.288,0,0,1,8.288,8.288v80.59973a8.288,8.288,0,0,1-8.288,8.288H256.2495a0,0,0,0,1,0,0V472.48007a8.288,8.288,0,0,1,8.288-8.288Z" transform="translate(529.07512 1025.55988) rotate(-180)" fill="url(#linear-gradient-15)"/><rect x="734.00311" y="570.97033" width="97.95061" height="19.32078" fill="url(#linear-gradient-16)"/><path d="M823.46247,570.97033h-89.5996v-24H799.4626A23.9999,23.9999,0,0,1,823.46247,570.97033Z" fill="url(#linear-gradient-17)"/><rect x="0.42464" width="896" height="600" fill="none"/></svg>