<svg id="Layer_1" data-name="Layer 1" xmlns="http://www.w3.org/2000/svg" xmlns:xlink="http://www.w3.org/1999/xlink" width="896.10077" height="600.15564" viewBox="0 0 896.10077 600.15564"><defs><linearGradient id="linear-gradient" x1="795.44539" y1="-13.00689" x2="677.27461" y2="79.19229" gradientTransform="matrix(0, -0.89729, 1, 0, 624.72575, 992.29442)" gradientUnits="userSpaceOnUse"><stop offset="0.11669" stop-color="#2e34e6"/><stop offset="0.31976" stop-color="#5c51ed"/><stop offset="0.54659" stop-color="#8b6ff4"/><stop offset="0.68935" stop-color="#7c8df8"/><stop offset="0.89293" stop-color="#6ab3fd"/><stop offset="1" stop-color="#63c2ff"/></linearGradient><linearGradient id="linear-gradient-2" x1="367.04578" y1="324.36675" x2="189.20564" y2="378.8403" gradientTransform="matrix(1, 0, 0, 1, 0, 0)" xlink:href="#linear-gradient"/><linearGradient id="linear-gradient-3" x1="361.12044" y1="328.15134" x2="232.10713" y2="547.08302" gradientTransform="translate(544.45738 -7.71842) rotate(59.99999)" xlink:href="#linear-gradient"/><linearGradient id="linear-gradient-4" x1="-4034.89752" y1="-1205.6712" x2="-3939.28861" y2="-1154.08366" gradientTransform="matrix(-1, 0, 0, 1, -3454.02711, 1764.84932)" gradientUnits="userSpaceOnUse"><stop offset="0" stop-color="#63c2ff"/><stop offset="0.10707" stop-color="#6ab3fd"/><stop offset="0.31065" stop-color="#7c8df8"/><stop offset="0.45341" stop-color="#8b6ff4"/><stop offset="0.74181" stop-color="#5c51ed"/><stop offset="1" stop-color="#2e34e6"/></linearGradient><linearGradient id="linear-gradient-5" x1="-1578.93128" y1="1133.14392" x2="-1579.14847" y2="1251.73172" gradientTransform="translate(-678.57948 -1010.59831) rotate(-90)" gradientUnits="userSpaceOnUse"><stop offset="0" stop-color="#2e34e6"/><stop offset="0.25819" stop-color="#5c51ed"/><stop offset="0.54659" stop-color="#8b6ff4"/><stop offset="0.68935" stop-color="#7c8df8"/><stop offset="0.89293" stop-color="#6ab3fd"/><stop offset="1" stop-color="#63c2ff"/></linearGradient><linearGradient id="linear-gradient-6" x1="379.8019" y1="196.95497" x2="124.83608" y2="215.65903" gradientTransform="matrix(1, 0, 0, 1, 0, 0)" xlink:href="#linear-gradient"/><linearGradient id="linear-gradient-7" x1="803.23415" y1="142.78273" x2="715.59099" y2="211.16365" gradientTransform="matrix(1, 0, 0, 1, 0, 0)" xlink:href="#linear-gradient"/><linearGradient id="linear-gradient-8" x1="204.79964" y1="271.80558" x2="97.50099" y2="271.80558" gradientTransform="matrix(1, 0, 0, 1, 0, 0)" xlink:href="#linear-gradient"/><linearGradient id="linear-gradient-9" x1="218.19071" y1="235.5349" x2="127.13699" y2="235.5349" gradientTransform="matrix(1, 0, 0, 1, 0, 0)" xlink:href="#linear-gradient"/><linearGradient id="linear-gradient-10" x1="565.61437" y1="-185.40223" x2="431.79205" y2="-80.99141" gradientTransform="translate(371.24003 323.48449) scale(0.74855 1)" xlink:href="#linear-gradient"/><linearGradient id="linear-gradient-11" x1="577.09158" y1="306.10223" x2="526.60138" y2="555.7482" gradientTransform="matrix(1, 0, 0, 1, 0, 0)" xlink:href="#linear-gradient-5"/><linearGradient id="linear-gradient-12" x1="175.25301" y1="329.32156" x2="129.35056" y2="556.28367" gradientTransform="matrix(1, 0, 0, 1, 0, 0)" xlink:href="#linear-gradient-5"/><linearGradient id="linear-gradient-13" x1="-4082.91712" y1="-1205.6712" x2="-3987.30821" y2="-1154.08366" xlink:href="#linear-gradient-4"/><linearGradient id="linear-gradient-14" x1="-1578.93128" y1="1181.16344" x2="-1579.14847" y2="1299.75124" xlink:href="#linear-gradient-5"/><linearGradient id="linear-gradient-15" x1="-3531.23807" y1="-1205.6712" x2="-3435.62915" y2="-1154.08366" gradientTransform="translate(3721.87604 1764.84932)" xlink:href="#linear-gradient-4"/><linearGradient id="linear-gradient-16" x1="-1578.93127" y1="629.48531" x2="-1579.14847" y2="748.07311" gradientTransform="matrix(0, -1, -1, 0, 946.4284, -1010.59831)" xlink:href="#linear-gradient-5"/><linearGradient id="linear-gradient-17" x1="690.83877" y1="198.39479" x2="744.59432" y2="262.24986" gradientUnits="userSpaceOnUse"><stop offset="0" stop-color="#63c2ff"/><stop offset="0.13283" stop-color="#6ab3fd"/><stop offset="0.38538" stop-color="#7c8df8"/><stop offset="0.56248" stop-color="#8b6ff4"/><stop offset="0.76446" stop-color="#5c51ed"/><stop offset="0.94529" stop-color="#2e34e6"/></linearGradient><linearGradient id="linear-gradient-18" x1="625.08571" y1="306.15809" x2="574.60655" y2="555.74949" gradientTransform="matrix(1, 0, 0, 1, 0, 0)" xlink:href="#linear-gradient-5"/><linearGradient id="linear-gradient-19" x1="-3605.08407" y1="-1205.6712" x2="-3509.47516" y2="-1154.08366" gradientTransform="translate(3721.87604 1764.84932)" xlink:href="#linear-gradient-4"/><linearGradient id="linear-gradient-20" x1="-1578.93127" y1="703.33119" x2="-1579.14847" y2="821.91899" gradientTransform="matrix(0, -1, -1, 0, 946.4284, -1010.59831)" xlink:href="#linear-gradient-5"/><linearGradient id="linear-gradient-21" x1="678.92875" y1="208.42108" x2="732.6843" y2="272.27615" xlink:href="#linear-gradient-17"/><linearGradient id="linear-gradient-22" x1="-1720.37508" y1="290.54539" x2="-1774.63968" y2="260.04631" gradientTransform="matrix(1, 0, 0, -1, 2347.65208, 509.89024)" xlink:href="#linear-gradient-5"/><linearGradient id="linear-gradient-23" x1="-1708.94074" y1="287.65549" x2="-1763.20533" y2="257.15641" gradientTransform="matrix(1, 0, 0, -1, 2347.65208, 509.89024)" xlink:href="#linear-gradient-5"/><linearGradient id="linear-gradient-24" x1="-1693.80377" y1="286.84663" x2="-1748.06836" y2="256.34755" gradientTransform="matrix(1, 0, 0, -1, 2347.65208, 509.89024)" xlink:href="#linear-gradient-5"/><linearGradient id="linear-gradient-25" x1="690.4989" y1="178.65414" x2="743.60286" y2="193.31475" xlink:href="#linear-gradient-17"/></defs><title>YT_teams</title><circle cx="343.84873" cy="186.01813" r="168.37298" fill="#63c2ff" opacity="0"/><circle cx="343.91113" cy="186.15761" r="168.31036" fill="#63c2ff" opacity="0.00498"/><circle cx="343.97354" cy="186.29709" r="168.24774" fill="#63c2ff" opacity="0.00995"/><circle cx="344.03595" cy="186.43657" r="168.18512" fill="#63c2ff" opacity="0.01493"/><circle cx="344.09835" cy="186.57605" r="168.12251" fill="#63c2ff" opacity="0.0199"/><circle cx="344.16076" cy="186.71552" r="168.05989" fill="#63c2ff" opacity="0.02488"/><circle cx="344.22317" cy="186.855" r="167.99727" fill="#63c2ff" opacity="0.02985"/><circle cx="344.28557" cy="186.99448" r="167.93465" fill="#63c2ff" opacity="0.03483"/><circle cx="344.34798" cy="187.13396" r="167.87204" fill="#63c2ff" opacity="0.0398"/><circle cx="344.41039" cy="187.27344" r="167.80942" fill="#63c2ff" opacity="0.04478"/><circle cx="344.4728" cy="187.41292" r="167.7468" fill="#63c2ff" opacity="0.04975"/><circle cx="344.5352" cy="187.5524" r="167.68418" fill="#63c2ff" opacity="0.05473"/><circle cx="344.59761" cy="187.69188" r="167.62157" fill="#63c2ff" opacity="0.0597"/><circle cx="344.66002" cy="187.83136" r="167.55895" fill="#63c2ff" opacity="0.06468"/><circle cx="344.72242" cy="187.97084" r="167.49633" fill="#63c2ff" opacity="0.06965"/><circle cx="344.78483" cy="188.11032" r="167.43371" fill="#63c2ff" opacity="0.07463"/><circle cx="344.84724" cy="188.2498" r="167.3711" fill="#63c2ff" opacity="0.0796"/><circle cx="344.90964" cy="188.38928" r="167.30848" fill="#63c2ff" opacity="0.08458"/><circle cx="344.97205" cy="188.52876" r="167.24586" fill="#63c2ff" opacity="0.08955"/><circle cx="345.03446" cy="188.66824" r="167.18324" fill="#63c2ff" opacity="0.09453"/><circle cx="345.09687" cy="188.80772" r="167.12063" fill="#63c2ff" opacity="0.0995"/><circle cx="345.15927" cy="188.9472" r="167.05801" fill="#63c2ff" opacity="0.10448"/><circle cx="345.22168" cy="189.08668" r="166.99539" fill="#63c2ff" opacity="0.10945"/><circle cx="345.28409" cy="189.22616" r="166.93277" fill="#63c2ff" opacity="0.11443"/><circle cx="345.34649" cy="189.36564" r="166.87016" fill="#63c2ff" opacity="0.1194"/><circle cx="345.4089" cy="189.50512" r="166.80754" fill="#63c2ff" opacity="0.12438"/><circle cx="345.47131" cy="189.6446" r="166.74492" fill="#63c2ff" opacity="0.12935"/><circle cx="345.53371" cy="189.78408" r="166.6823" fill="#63c2ff" opacity="0.13433"/><circle cx="345.59612" cy="189.92356" r="166.61969" fill="#63c2ff" opacity="0.1393"/><circle cx="345.65853" cy="190.06304" r="166.55707" fill="#63c2ff" opacity="0.14428"/><circle cx="345.72093" cy="190.20252" r="166.49445" fill="#63c2ff" opacity="0.14925"/><circle cx="345.78334" cy="190.342" r="166.43183" fill="#63c2ff" opacity="0.15423"/><circle cx="345.84575" cy="190.48148" r="166.36922" fill="#63c2ff" opacity="0.1592"/><circle cx="345.90816" cy="190.62096" r="166.3066" fill="#63c2ff" opacity="0.16418"/><circle cx="345.97056" cy="190.76044" r="166.24398" fill="#63c2ff" opacity="0.16915"/><circle cx="346.03297" cy="190.89992" r="166.18136" fill="#63c2ff" opacity="0.17413"/><circle cx="346.09538" cy="191.03939" r="166.11875" fill="#63c2ff" opacity="0.1791"/><circle cx="346.15778" cy="191.17887" r="166.05613" fill="#63c2ff" opacity="0.18408"/><circle cx="346.22019" cy="191.31835" r="165.99351" fill="#63c2ff" opacity="0.18905"/><circle cx="346.2826" cy="191.45783" r="165.93089" fill="#63c2ff" opacity="0.19403"/><circle cx="346.345" cy="191.59731" r="165.86828" fill="#63c2ff" opacity="0.199"/><circle cx="346.40741" cy="191.73679" r="165.80566" fill="#63c2ff" opacity="0.20398"/><circle cx="346.46982" cy="191.87627" r="165.74304" fill="#63c2ff" opacity="0.20896"/><circle cx="346.53223" cy="192.01575" r="165.68042" fill="#63c2ff" opacity="0.21393"/><circle cx="346.59463" cy="192.15523" r="165.61781" fill="#63c2ff" opacity="0.21891"/><circle cx="346.65704" cy="192.29471" r="165.55519" fill="#63c2ff" opacity="0.22388"/><circle cx="346.71945" cy="192.43419" r="165.49257" fill="#63c2ff" opacity="0.22886"/><circle cx="346.78185" cy="192.57367" r="165.42995" fill="#63c2ff" opacity="0.23383"/><circle cx="346.84426" cy="192.71315" r="165.36734" fill="#63c2ff" opacity="0.23881"/><circle cx="346.90667" cy="192.85263" r="165.30472" fill="#63c2ff" opacity="0.24378"/><circle cx="346.96907" cy="192.99211" r="165.2421" fill="#63c2ff" opacity="0.24876"/><circle cx="347.03148" cy="193.13159" r="165.17948" fill="#63c2ff" opacity="0.25373"/><circle cx="347.09389" cy="193.27107" r="165.11687" fill="#63c2ff" opacity="0.25871"/><circle cx="347.15629" cy="193.41055" r="165.05425" fill="#63c2ff" opacity="0.26368"/><circle cx="347.2187" cy="193.55003" r="164.99163" fill="#63c2ff" opacity="0.26866"/><circle cx="347.28111" cy="193.68951" r="164.92901" fill="#63c2ff" opacity="0.27363"/><circle cx="347.34352" cy="193.82899" r="164.8664" fill="#63c2ff" opacity="0.27861"/><circle cx="347.40592" cy="193.96847" r="164.80378" fill="#63c2ff" opacity="0.28358"/><circle cx="347.46833" cy="194.10795" r="164.74116" fill="#63c2ff" opacity="0.28856"/><circle cx="347.53074" cy="194.24743" r="164.67854" fill="#63c2ff" opacity="0.29353"/><circle cx="347.59314" cy="194.38691" r="164.61593" fill="#63c2ff" opacity="0.29851"/><circle cx="347.65555" cy="194.52639" r="164.55331" fill="#63c2ff" opacity="0.30348"/><circle cx="347.71796" cy="194.66587" r="164.49069" fill="#63c2ff" opacity="0.30846"/><circle cx="347.78036" cy="194.80535" r="164.42807" fill="#63c2ff" opacity="0.31343"/><circle cx="347.84277" cy="194.94483" r="164.36546" fill="#63c2ff" opacity="0.31841"/><circle cx="347.90518" cy="195.08431" r="164.30284" fill="#63c2ff" opacity="0.32338"/><circle cx="347.96758" cy="195.22378" r="164.24022" fill="#63c2ff" opacity="0.32836"/><circle cx="348.02999" cy="195.36326" r="164.1776" fill="#63c2ff" opacity="0.33333"/><circle cx="348.0924" cy="195.50274" r="164.11499" fill="#63c2ff" opacity="0.33831"/><circle cx="348.15481" cy="195.64222" r="164.05237" fill="#63c2ff" opacity="0.34328"/><circle cx="348.21721" cy="195.7817" r="163.98975" fill="#63c2ff" opacity="0.34826"/><circle cx="348.27962" cy="195.92118" r="163.92713" fill="#63c2ff" opacity="0.35323"/><circle cx="348.34203" cy="196.06066" r="163.86452" fill="#63c2ff" opacity="0.35821"/><circle cx="348.40443" cy="196.20014" r="163.8019" fill="#63c2ff" opacity="0.36318"/><circle cx="348.46684" cy="196.33962" r="163.73928" fill="#63c2ff" opacity="0.36816"/><circle cx="348.52925" cy="196.4791" r="163.67666" fill="#63c2ff" opacity="0.37313"/><circle cx="348.59165" cy="196.61858" r="163.61405" fill="#63c2ff" opacity="0.37811"/><circle cx="348.65406" cy="196.75806" r="163.55143" fill="#63c2ff" opacity="0.38308"/><circle cx="348.71647" cy="196.89754" r="163.48881" fill="#63c2ff" opacity="0.38806"/><circle cx="348.77888" cy="197.03702" r="163.42619" fill="#63c2ff" opacity="0.39303"/><circle cx="348.84128" cy="197.1765" r="163.36358" fill="#63c2ff" opacity="0.39801"/><circle cx="348.90369" cy="197.31598" r="163.30096" fill="#63c2ff" opacity="0.40299"/><circle cx="348.9661" cy="197.45546" r="163.23834" fill="#63c2ff" opacity="0.40796"/><circle cx="349.0285" cy="197.59494" r="163.17572" fill="#63c2ff" opacity="0.41294"/><circle cx="349.09091" cy="197.73442" r="163.11311" fill="#63c2ff" opacity="0.41791"/><circle cx="349.15332" cy="197.8739" r="163.05049" fill="#63c2ff" opacity="0.42289"/><circle cx="349.21572" cy="198.01338" r="162.98787" fill="#63c2ff" opacity="0.42786"/><circle cx="349.27813" cy="198.15286" r="162.92525" fill="#63c2ff" opacity="0.43284"/><circle cx="349.34054" cy="198.29234" r="162.86264" fill="#63c2ff" opacity="0.43781"/><circle cx="349.40294" cy="198.43182" r="162.80002" fill="#63c2ff" opacity="0.44279"/><circle cx="349.46535" cy="198.5713" r="162.7374" fill="#63c2ff" opacity="0.44776"/><circle cx="349.52776" cy="198.71078" r="162.67478" fill="#63c2ff" opacity="0.45274"/><circle cx="349.59017" cy="198.85026" r="162.61217" fill="#63c2ff" opacity="0.45771"/><circle cx="349.65257" cy="198.98974" r="162.54955" fill="#63c2ff" opacity="0.46269"/><circle cx="349.71498" cy="199.12922" r="162.48693" fill="#63c2ff" opacity="0.46766"/><circle cx="349.77739" cy="199.2687" r="162.42431" fill="#63c2ff" opacity="0.47264"/><circle cx="349.83979" cy="199.40818" r="162.3617" fill="#63c2ff" opacity="0.47761"/><circle cx="349.9022" cy="199.54765" r="162.29908" fill="#63c2ff" opacity="0.48259"/><circle cx="349.96461" cy="199.68713" r="162.23646" fill="#63c2ff" opacity="0.48756"/><circle cx="350.02701" cy="199.82661" r="162.17384" fill="#63c2ff" opacity="0.49254"/><circle cx="350.08942" cy="199.96609" r="162.11123" fill="#63c2ff" opacity="0.49751"/><circle cx="350.15183" cy="200.10557" r="162.04861" fill="#63c2ff" opacity="0.50249"/><circle cx="350.21424" cy="200.24505" r="161.98599" fill="#63c2ff" opacity="0.50746"/><circle cx="350.27664" cy="200.38453" r="161.92337" fill="#63c2ff" opacity="0.51244"/><circle cx="350.33905" cy="200.52401" r="161.86076" fill="#63c2ff" opacity="0.51741"/><circle cx="350.40146" cy="200.66349" r="161.79814" fill="#63c2ff" opacity="0.52239"/><circle cx="350.46386" cy="200.80297" r="161.73552" fill="#63c2ff" opacity="0.52736"/><circle cx="350.52627" cy="200.94245" r="161.6729" fill="#63c2ff" opacity="0.53234"/><circle cx="350.58868" cy="201.08193" r="161.61029" fill="#63c2ff" opacity="0.53731"/><circle cx="350.65108" cy="201.22141" r="161.54767" fill="#63c2ff" opacity="0.54229"/><circle cx="350.71349" cy="201.36089" r="161.48505" fill="#63c2ff" opacity="0.54726"/><circle cx="350.7759" cy="201.50037" r="161.42243" fill="#63c2ff" opacity="0.55224"/><circle cx="350.8383" cy="201.63985" r="161.35982" fill="#63c2ff" opacity="0.55721"/><circle cx="350.90071" cy="201.77933" r="161.2972" fill="#63c2ff" opacity="0.56219"/><circle cx="350.96312" cy="201.91881" r="161.23458" fill="#63c2ff" opacity="0.56716"/><circle cx="351.02553" cy="202.05829" r="161.17196" fill="#63c2ff" opacity="0.57214"/><circle cx="351.08793" cy="202.19777" r="161.10935" fill="#63c2ff" opacity="0.57711"/><circle cx="351.15034" cy="202.33725" r="161.04673" fill="#63c2ff" opacity="0.58209"/><circle cx="351.21275" cy="202.47673" r="160.98411" fill="#63c2ff" opacity="0.58706"/><circle cx="351.27515" cy="202.61621" r="160.92149" fill="#63c2ff" opacity="0.59204"/><circle cx="351.33756" cy="202.75569" r="160.85888" fill="#63c2ff" opacity="0.59701"/><circle cx="351.39997" cy="202.89517" r="160.79626" fill="#63c2ff" opacity="0.60199"/><circle cx="351.46237" cy="203.03465" r="160.73364" fill="#63c2ff" opacity="0.60697"/><circle cx="351.52478" cy="203.17413" r="160.67102" fill="#63c2ff" opacity="0.61194"/><circle cx="351.58719" cy="203.31361" r="160.60841" fill="#63c2ff" opacity="0.61692"/><circle cx="351.64959" cy="203.45309" r="160.54579" fill="#63c2ff" opacity="0.62189"/><circle cx="351.712" cy="203.59257" r="160.48317" fill="#63c2ff" opacity="0.62687"/><circle cx="351.77441" cy="203.73204" r="160.42055" fill="#63c2ff" opacity="0.63184"/><circle cx="351.83682" cy="203.87152" r="160.35794" fill="#63c2ff" opacity="0.63682"/><circle cx="351.89922" cy="204.011" r="160.29532" fill="#63c2ff" opacity="0.64179"/><circle cx="351.96163" cy="204.15048" r="160.2327" fill="#63c2ff" opacity="0.64677"/><circle cx="352.02404" cy="204.28996" r="160.17008" fill="#63c2ff" opacity="0.65174"/><circle cx="352.08644" cy="204.42944" r="160.10747" fill="#63c2ff" opacity="0.65672"/><circle cx="352.14885" cy="204.56892" r="160.04485" fill="#63c2ff" opacity="0.66169"/><circle cx="352.21126" cy="204.7084" r="159.98223" fill="#63c2ff" opacity="0.66667"/><circle cx="352.27366" cy="204.84788" r="159.91961" fill="#63c2ff" opacity="0.67164"/><circle cx="352.33607" cy="204.98736" r="159.857" fill="#63c2ff" opacity="0.67662"/><circle cx="352.39848" cy="205.12684" r="159.79438" fill="#63c2ff" opacity="0.68159"/><circle cx="352.46089" cy="205.26632" r="159.73176" fill="#63c2ff" opacity="0.68657"/><circle cx="352.52329" cy="205.4058" r="159.66914" fill="#63c2ff" opacity="0.69154"/><circle cx="352.5857" cy="205.54528" r="159.60653" fill="#63c2ff" opacity="0.69652"/><circle cx="352.64811" cy="205.68476" r="159.54391" fill="#63c2ff" opacity="0.70149"/><circle cx="352.71051" cy="205.82424" r="159.48129" fill="#63c2ff" opacity="0.70647"/><circle cx="352.77292" cy="205.96372" r="159.41867" fill="#63c2ff" opacity="0.71144"/><circle cx="352.83533" cy="206.1032" r="159.35606" fill="#63c2ff" opacity="0.71642"/><circle cx="352.89773" cy="206.24268" r="159.29344" fill="#63c2ff" opacity="0.72139"/><circle cx="352.96014" cy="206.38216" r="159.23082" fill="#63c2ff" opacity="0.72637"/><circle cx="353.02255" cy="206.52164" r="159.1682" fill="#63c2ff" opacity="0.73134"/><circle cx="353.08495" cy="206.66112" r="159.10559" fill="#63c2ff" opacity="0.73632"/><circle cx="353.14736" cy="206.8006" r="159.04297" fill="#63c2ff" opacity="0.74129"/><circle cx="353.20977" cy="206.94008" r="158.98035" fill="#63c2ff" opacity="0.74627"/><circle cx="353.27218" cy="207.07956" r="158.91773" fill="#63c2ff" opacity="0.75124"/><circle cx="353.33458" cy="207.21904" r="158.85512" fill="#63c2ff" opacity="0.75622"/><circle cx="353.39699" cy="207.35852" r="158.7925" fill="#63c2ff" opacity="0.76119"/><circle cx="353.4594" cy="207.498" r="158.72988" fill="#63c2ff" opacity="0.76617"/><circle cx="353.5218" cy="207.63748" r="158.66726" fill="#63c2ff" opacity="0.77114"/><circle cx="353.58421" cy="207.77696" r="158.60465" fill="#63c2ff" opacity="0.77612"/><circle cx="353.64662" cy="207.91644" r="158.54203" fill="#63c2ff" opacity="0.78109"/><circle cx="353.70902" cy="208.05591" r="158.47941" fill="#63c2ff" opacity="0.78607"/><circle cx="353.77143" cy="208.19539" r="158.41679" fill="#63c2ff" opacity="0.79104"/><circle cx="353.83384" cy="208.33487" r="158.35418" fill="#63c2ff" opacity="0.79602"/><circle cx="353.89625" cy="208.47435" r="158.29156" fill="#63c2ff" opacity="0.801"/><circle cx="353.95865" cy="208.61383" r="158.22894" fill="#63c2ff" opacity="0.80597"/><circle cx="354.02106" cy="208.75331" r="158.16632" fill="#63c2ff" opacity="0.81095"/><circle cx="354.08347" cy="208.89279" r="158.10371" fill="#63c2ff" opacity="0.81592"/><circle cx="354.14587" cy="209.03227" r="158.04109" fill="#63c2ff" opacity="0.8209"/><circle cx="354.20828" cy="209.17175" r="157.97847" fill="#63c2ff" opacity="0.82587"/><circle cx="354.27069" cy="209.31123" r="157.91585" fill="#63c2ff" opacity="0.83085"/><circle cx="354.33309" cy="209.45071" r="157.85324" fill="#63c2ff" opacity="0.83582"/><circle cx="354.3955" cy="209.59019" r="157.79062" fill="#63c2ff" opacity="0.8408"/><circle cx="354.45791" cy="209.72967" r="157.728" fill="#63c2ff" opacity="0.84577"/><circle cx="354.52031" cy="209.86915" r="157.66538" fill="#63c2ff" opacity="0.85075"/><circle cx="354.58272" cy="210.00863" r="157.60277" fill="#63c2ff" opacity="0.85572"/><circle cx="354.64513" cy="210.14811" r="157.54015" fill="#63c2ff" opacity="0.8607"/><circle cx="354.70754" cy="210.28759" r="157.47753" fill="#63c2ff" opacity="0.86567"/><circle cx="354.76994" cy="210.42707" r="157.41491" fill="#63c2ff" opacity="0.87065"/><circle cx="354.83235" cy="210.56655" r="157.3523" fill="#63c2ff" opacity="0.87562"/><circle cx="354.89476" cy="210.70603" r="157.28968" fill="#63c2ff" opacity="0.8806"/><circle cx="354.95716" cy="210.84551" r="157.22706" fill="#63c2ff" opacity="0.88557"/><circle cx="355.01957" cy="210.98499" r="157.16444" fill="#63c2ff" opacity="0.89055"/><circle cx="355.08198" cy="211.12447" r="157.10183" fill="#63c2ff" opacity="0.89552"/><circle cx="355.14438" cy="211.26395" r="157.03921" fill="#63c2ff" opacity="0.9005"/><circle cx="355.20679" cy="211.40343" r="156.97659" fill="#63c2ff" opacity="0.90547"/><circle cx="355.2692" cy="211.54291" r="156.91397" fill="#63c2ff" opacity="0.91045"/><circle cx="355.33161" cy="211.68239" r="156.85136" fill="#63c2ff" opacity="0.91542"/><circle cx="355.39401" cy="211.82187" r="156.78874" fill="#63c2ff" opacity="0.9204"/><circle cx="355.45642" cy="211.96135" r="156.72612" fill="#63c2ff" opacity="0.92537"/><circle cx="355.51883" cy="212.10083" r="156.6635" fill="#63c2ff" opacity="0.93035"/><circle cx="355.58123" cy="212.2403" r="156.60089" fill="#63c2ff" opacity="0.93532"/><circle cx="355.64364" cy="212.37978" r="156.53827" fill="#63c2ff" opacity="0.9403"/><circle cx="355.70605" cy="212.51926" r="156.47565" fill="#63c2ff" opacity="0.94527"/><circle cx="355.76845" cy="212.65874" r="156.41303" fill="#63c2ff" opacity="0.95025"/><circle cx="355.83086" cy="212.79822" r="156.35042" fill="#63c2ff" opacity="0.95522"/><circle cx="355.89327" cy="212.9377" r="156.2878" fill="#63c2ff" opacity="0.9602"/><circle cx="355.95567" cy="213.07718" r="156.22518" fill="#63c2ff" opacity="0.96517"/><circle cx="356.01808" cy="213.21666" r="156.16256" fill="#63c2ff" opacity="0.97015"/><circle cx="356.08049" cy="213.35614" r="156.09995" fill="#63c2ff" opacity="0.97512"/><circle cx="356.1429" cy="213.49562" r="156.03733" fill="#63c2ff" opacity="0.9801"/><circle cx="356.2053" cy="213.6351" r="155.97471" fill="#63c2ff" opacity="0.98507"/><circle cx="356.26771" cy="213.77458" r="155.91209" fill="#63c2ff" opacity="0.99005"/><circle cx="356.33012" cy="213.91406" r="155.84948" fill="#63c2ff" opacity="0.99502"/><circle cx="356.39252" cy="214.05354" r="155.78686" fill="#63c2ff"/><path d="M350.78824,53.46317A171.65565,171.65565,0,0,0,179.13244,225.119H522.444A171.65582,171.65582,0,0,0,350.78824,53.46317Z" fill="#63c2ff"/><rect width="896" height="600" fill="none"/><polygon points="234.635 221.836 233.002 220.682 343.116 64.776 343.923 65.994 446.491 220.706 444.825 221.811 343.064 68.317 234.635 221.836" fill="#fff"/><path d="M350.78823,393.83574A171.65565,171.65565,0,0,0,522.444,222.17994H179.13243A171.65582,171.65582,0,0,0,350.78823,393.83574Z" fill="#fff"/><path d="M697.58692,246.36093h0a24,24,0,0,1,24,24V484.24865a24,24,0,0,1-24,24h-.00005a24,24,0,0,1-24-24V270.36091A24,24,0,0,1,697.58692,246.36093Z" transform="translate(106.4935 906.07218) rotate(-70.22217)" fill="url(#linear-gradient)"/><path d="M688.93965,598.48431a1,1,0,0,1,0-2c112.86426,0,204.68652-91.82129,204.68652-204.68555a1,1,0,0,1,2,0C895.62617,505.76556,802.90742,598.48431,688.93965,598.48431Z"/><rect x="125.14294" y="338.05342" width="237.73387" height="48" rx="21.6543" fill="url(#linear-gradient-2)"/><path d="M156.97967,443.65481H400.84641a24,24,0,0,1,24,24v0a24,24,0,0,1-24,24H156.97967a24,24,0,0,1-24-24v0a24,24,0,0,1,24-24Z" transform="matrix(0.5, -0.86603, 0.86603, 0.5, -265.54443, 475.37309)" fill="url(#linear-gradient-3)"/><rect x="474.56882" y="580.44917" width="97.95061" height="19.32078" fill="url(#linear-gradient-4)"/><path d="M482.91983,580.44917h89.59961v-24H506.9197A23.99991,23.99991,0,0,0,482.91983,580.44917Z" fill="url(#linear-gradient-5)"/><path d="M124.9287,241.37684V197.64943a24,24,0,0,1,24-24H299.71976a24,24,0,0,1,24,24v43.72741Z" fill="url(#linear-gradient-6)"/><path d="M622.40062,223.64945V199.72837a24.07892,24.07892,0,0,1,24.07892-24.07892H798.42266a24.07892,24.07892,0,0,1,24.07892,24.07892v23.92108Z" fill="url(#linear-gradient-7)"/><polygon points="216.703 324.059 156.717 324.059 156.717 198.506 207.338 198.506 250.184 241.377 250.184 323.433 216.703 324.059" fill="#fff"/><rect x="93.24266" y="262.73791" width="72.54138" height="18.13534" rx="9.06766" fill="url(#linear-gradient-8)"/><path d="M165.78416,235.5349a9.09435,9.09435,0,0,0-9.06787-9.06763,9.06775,9.06775,0,1,0,0-18.1355h-54.406a9.06775,9.06775,0,0,0,0,18.1355,9.06763,9.06763,0,0,0,0,18.13525,9.06775,9.06775,0,0,0,0,18.1355h54.406a9.06775,9.06775,0,1,0,0-18.1355A9.09435,9.09435,0,0,0,165.78416,235.5349Z" fill="url(#linear-gradient-9)"/><path d="M713.81123,99.87054A24.66481,24.66481,0,0,1,735.99336,113.602l.80176,1.60621,1.6831-.62476a6.09322,6.09322,0,1,1,2.106,11.80566h-.00391c-.061-.00439-.12158-.008-.1831-.01l-1.79932-.05981-.24805,1.783a24.77928,24.77928,0,0,1-49.07812-.00464l-.229-1.64941-1.66407-.07325a6.092,6.092,0,1,1,1.99121-11.92773l1.59229.4668.75293-1.479a24.68779,24.68779,0,0,1,22.09619-13.56445m0-2A26.77506,26.77506,0,0,0,689.93232,112.528a8.0914,8.0914,0,1,0-2.6416,15.845,26.77931,26.77931,0,0,0,53.04.00488c.08838.00293.17481.01343.26367.01343a8.09744,8.09744,0,1,0-2.812-15.68286,26.77864,26.77864,0,0,0-23.97119-14.83789Z"/><path d="M779.67187,0c-7.565,6.12424-3.53864,13.96161-12.043,23.23533-9.68384,10.56054-13.97005,6.63015-23.65416,17.191C734.292,50.98547,738.57815,54.91572,728.8954,65.475c-9.68247,10.5585-16.8071,7.95956-26.48876,18.51778-8.64617,9.42857-12.36605,16.29916-11.99866,27.50358.06585-.06844.13661-.12927.203-.19676a26.70878,26.70878,0,0,1,30.084-12.51954,25.66243,25.66243,0,0,1,10.39,5.41287,26.90581,26.90581,0,0,1,6.69738,8.51554,8.064,8.064,0,0,1,10.18865,4.25872c7.98514-7.40956,12.32877-5.04357,21.12788-14.63951,9.68275-10.559,5.39654-14.48956,15.07929-25.0486,9.68248-10.55877,13.96868-6.62838,23.65089-17.187,9.07751-9.8991,9.246-10.7675,13.5915-21.80864Z" fill-rule="evenodd"/><path d="M699.87579,122.1379l-.00317,3.99811a1.83331,1.83331,0,0,1-1.83559,1.831h0a1.8333,1.8333,0,0,1-1.83267-1.83394l.00317-3.99811a1.83332,1.83332,0,0,1,1.83559-1.831h0A1.83329,1.83329,0,0,1,699.87579,122.1379Z"/><path d="M716.04062,122.1379l-.00318,3.99811a1.83331,1.83331,0,0,1-1.83559,1.831h0a1.8333,1.8333,0,0,1-1.83267-1.83394l.00318-3.99811a1.8333,1.8333,0,0,1,1.83558-1.831h0A1.8333,1.8333,0,0,1,716.04062,122.1379Z"/><path d="M572.67229,222.40393v-.00005H822.50158v24a24,24,0,0,1-24,24H620.67225A48,48,0,0,1,572.67229,222.40393Z" fill="url(#linear-gradient-10)"/><path d="M219.75947,99.98236a23.79665,23.79665,0,0,1,21.40283,13.24926l.80225,1.6062,1.68311-.62475a5.83031,5.83031,0,1,1,2.01806,11.29614h-.0039c-.0586-.00415-.1167-.00781-.17578-.00976l-1.80079-.06153-.24853,1.78467a23.9093,23.9093,0,0,1-47.355-.00415l-.229-1.64941-1.66406-.07325a5.82921,5.82921,0,1,1,1.90479-11.41308l1.59277.46728.75293-1.47949a23.82176,23.82176,0,0,1,21.32031-13.08813m0-2a25.90519,25.90519,0,0,0-23.103,14.18115,7.82861,7.82861,0,1,0-2.55567,15.33032,25.90933,25.90933,0,0,0,51.3169.0044c.08545.00292.16894.01293.25488.01293a7.83425,7.83425,0,1,0-2.7207-15.17309,25.90767,25.90767,0,0,0-23.19239-14.35571Z"/><path d="M220.21172,43.40385H194.17749v68.45251c.09084-.003.17983-.0137.27146-.0137a7.82114,7.82114,0,0,1,2.20724.321,25.9111,25.9111,0,0,1,46.29588.17456,7.79557,7.79557,0,0,1,2.72067-.49553c.09163,0,.18063.01067.27146.0137v-42.72A25.73252,25.73252,0,0,0,220.21172,43.40385Z"/><path d="M211.8651,126.93763l-.00276,3.46547a1.58907,1.58907,0,0,1-1.591,1.5871h0a1.58908,1.58908,0,0,1-1.58853-1.58962l.00276-3.46548a1.58906,1.58906,0,0,1,1.591-1.58709h0A1.58907,1.58907,0,0,1,211.8651,126.93763Z"/><path d="M227.57535,126.93763l-.00276,3.46547a1.58906,1.58906,0,0,1-1.591,1.5871h0a1.58908,1.58908,0,0,1-1.58853-1.58962l.00276-3.46548a1.58906,1.58906,0,0,1,1.591-1.58709h0A1.58907,1.58907,0,0,1,227.57535,126.93763Z"/><path d="M548.539,316.53456h0a24,24,0,0,1,24,24V556.44917h-48V340.53454A24,24,0,0,1,548.539,316.53456Z" fill="url(#linear-gradient-11)"/><path d="M149.14292,338.81983h0a24,24,0,0,1,24,24V556.44917h-48V362.8198A24,24,0,0,1,149.14292,338.81983Z" fill="url(#linear-gradient-12)"/><rect x="522.58842" y="580.44917" width="97.95061" height="19.32078" fill="url(#linear-gradient-13)"/><path d="M530.93942,580.44917H620.539v-24H554.9393A23.99992,23.99992,0,0,0,530.93942,580.44917Z" fill="url(#linear-gradient-14)"/><rect x="198.98895" y="580.44917" width="97.95061" height="19.32078" fill="url(#linear-gradient-15)"/><path d="M288.58856,580.44917H198.989v-24h65.59973A23.99992,23.99992,0,0,1,288.58856,580.44917Z" fill="url(#linear-gradient-16)"/><polygon points="687.04 222.23 710.904 198.366 734.768 222.23 687.04 222.23" fill="url(#linear-gradient-17)"/><polygon points="250.184 241.377 207.338 241.377 207.338 198.531 250.184 241.377"/><path d="M596.539,316.58817h0a24,24,0,0,1,24,24v215.861h-48v-215.861A24,24,0,0,1,596.539,316.58817Z" fill="url(#linear-gradient-18)"/><path d="M428.176,44.92572h-85.3877a1,1,0,0,1,0-2H428.176a1,1,0,0,1,0,2Z"/><path d="M81.38789,44.92572H.0002a.99942.99942,0,0,1-1-1,.99942.99942,0,0,1,1-1H81.38789a1,1,0,0,1,0,2Z"/><path d="M81.38789,67.18939H.0002a.99942.99942,0,0,1-1-1,.99942.99942,0,0,1,1-1H81.38789a1,1,0,0,1,0,2Z"/><path d="M81.38789,89.454H.0002a.99942.99942,0,0,1-1-1,.99942.99942,0,0,1,1-1H81.38789a1,1,0,0,1,0,2Z"/><path d="M622.40059,44.92572H469.18379a1,1,0,0,1,0-2h153.2168a1,1,0,0,1,0,2Z"/><rect x="125.14294" y="580.44917" width="97.95061" height="19.32078" fill="url(#linear-gradient-19)"/><path d="M214.74255,580.44917H125.14294v-24h65.59973A23.99992,23.99992,0,0,1,214.74255,580.44917Z" fill="url(#linear-gradient-20)"/><rect x="686.73012" y="222.22993" width="48.34789" height="48.34789" fill="url(#linear-gradient-21)"/><rect x="346.14529" y="416.45233" width="99.5346" height="64.68312" fill="#fff"/><path d="M399.13691,387.63665a1,1,0,0,1-.28711-1.958,171.998,171.998,0,0,0,87.17383-60.7041,169.16384,169.16384,0,0,0,34.41992-102.79492,1,1,0,0,1,2,0,171.15028,171.15028,0,0,1-34.82421,104.001A174.01827,174.01827,0,0,1,399.424,387.59466,1.01164,1.01164,0,0,1,399.13691,387.63665Z" fill="#63c2ff"/><path d="M448.67988,67.18939a21.50342,21.50342,0,1,1,21.50391-21.50293A21.52789,21.52789,0,0,1,448.67988,67.18939Zm0-41.00684a19.50342,19.50342,0,1,0,19.50391,19.50391A19.52549,19.52549,0,0,0,448.67988,26.18255Z"/><path d="M448.67988,599.662a.99942.99942,0,0,1-1-1V66.18939a1,1,0,0,1,2,0V598.662A.99942.99942,0,0,1,448.67988,599.662Z"/><path d="M554.715,290.07025a1.00069,1.00069,0,0,1-.96777-.752L515.3957,139.28509a1,1,0,1,1,1.9375-.49609l38.35157,150.0332a1,1,0,0,1-.96973,1.248Z"/><path d="M715.75566,289.90021H555.04782l-6-19.32239H735.078v0A19.32237,19.32237,0,0,1,715.75566,289.90021Z"/><rect x="572.67229" y="212.72904" width="16.57611" height="65.29561" rx="8.28805" fill="url(#linear-gradient-22)"/><rect x="589.2484" y="212.72904" width="16.57611" height="65.29561" rx="8.28805" fill="url(#linear-gradient-23)"/><rect x="605.82451" y="212.72904" width="16.57611" height="65.29561" rx="8.28805" fill="url(#linear-gradient-24)"/><polygon points="734.768 175.649 710.904 199.514 687.04 175.649 734.768 175.649" fill="url(#linear-gradient-25)"/></svg>