<svg id="Layer_1" data-name="Layer 1" xmlns="http://www.w3.org/2000/svg" xmlns:xlink="http://www.w3.org/1999/xlink" width="896" height="600.48349" viewBox="0 0 896 600.48349"><defs><linearGradient id="linear-gradient" x1="45.64944" y1="541.0795" x2="293.90233" y2="322.14782" gradientUnits="userSpaceOnUse"><stop offset="0" stop-color="#2e34e6"/><stop offset="0.25819" stop-color="#5c51ed"/><stop offset="0.54659" stop-color="#8b6ff4"/><stop offset="0.68935" stop-color="#7c8df8"/><stop offset="0.89293" stop-color="#6ab3fd"/><stop offset="1" stop-color="#63c2ff"/></linearGradient><linearGradient id="linear-gradient-2" x1="871.95574" y1="549.0186" x2="648.82174" y2="243.56331" gradientUnits="userSpaceOnUse"><stop offset="0" stop-color="#63c2ff"/><stop offset="0.13283" stop-color="#6ab3fd"/><stop offset="0.38538" stop-color="#7c8df8"/><stop offset="0.56248" stop-color="#8b6ff4"/><stop offset="0.76446" stop-color="#5c51ed"/><stop offset="0.94529" stop-color="#2e34e6"/></linearGradient><linearGradient id="linear-gradient-3" x1="814.94511" y1="273.06005" x2="696.35712" y2="365.58475" gradientUnits="userSpaceOnUse"><stop offset="0.11669" stop-color="#2e34e6"/><stop offset="0.31976" stop-color="#5c51ed"/><stop offset="0.54659" stop-color="#8b6ff4"/><stop offset="0.68935" stop-color="#7c8df8"/><stop offset="0.89293" stop-color="#6ab3fd"/><stop offset="1" stop-color="#63c2ff"/></linearGradient><linearGradient id="linear-gradient-4" x1="851.41028" y1="325.18887" x2="804.49635" y2="557.15221" xlink:href="#linear-gradient"/><linearGradient id="linear-gradient-5" x1="133.06475" y1="221.3003" x2="346.1686" y2="140.71481" gradientUnits="userSpaceOnUse"><stop offset="0" stop-color="#63c2ff"/><stop offset="0.13283" stop-color="#6ab3fd"/><stop offset="0.38538" stop-color="#7c8df8"/><stop offset="0.56248" stop-color="#8b6ff4"/><stop offset="0.79333" stop-color="#5c51ed"/><stop offset="1" stop-color="#2e34e6"/></linearGradient><linearGradient id="linear-gradient-6" x1="402.4917" y1="313.45586" x2="314.35802" y2="292.71852" gradientTransform="matrix(0.52481, 0.70711, -0.52481, 0.70711, 313.22107, -145.55294)" xlink:href="#linear-gradient"/><linearGradient id="linear-gradient-7" x1="181.68942" y1="310.52894" x2="609.77905" y2="312.48368" xlink:href="#linear-gradient"/><linearGradient id="linear-gradient-8" x1="747.96866" y1="205.52813" x2="802.24262" y2="254.75335" gradientTransform="translate(198.80387 -328.54509) rotate(25.86298)" gradientUnits="userSpaceOnUse"><stop offset="0.33057" stop-color="#63c2ff"/><stop offset="0.47585" stop-color="#6cb0fd"/><stop offset="0.76749" stop-color="#8380f6"/><stop offset="0.86163" stop-color="#8b6ff4"/></linearGradient><linearGradient id="linear-gradient-9" x1="350.02844" y1="238.84191" x2="527.40631" y2="290.00861" xlink:href="#linear-gradient-5"/><linearGradient id="linear-gradient-10" x1="537.44898" y1="270.76869" x2="707.51199" y2="276.63293" xlink:href="#linear-gradient-5"/><linearGradient id="linear-gradient-11" x1="538.90264" y1="350.14944" x2="172.12584" y2="368.21727" xlink:href="#linear-gradient"/><linearGradient id="linear-gradient-12" x1="507.67878" y1="147.69756" x2="235.96892" y2="452.63812" gradientTransform="translate(320.24589 -176.88348) rotate(44.99999)" xlink:href="#linear-gradient"/><linearGradient id="linear-gradient-13" x1="854.25211" y1="114.66775" x2="564.94952" y2="359.01115" gradientTransform="translate(384.55408 -403.39572) rotate(45)" xlink:href="#linear-gradient"/><linearGradient id="linear-gradient-14" x1="702.46288" y1="276.13118" x2="530.40411" y2="182.28094" gradientTransform="matrix(0.70711, 0.70188, -0.70711, 0.70188, 331.43144, -356.03103)" xlink:href="#linear-gradient"/><linearGradient id="linear-gradient-15" x1="779.77779" y1="96.43506" x2="778.06501" y2="431.28288" xlink:href="#linear-gradient"/><linearGradient id="linear-gradient-16" x1="147.79324" y1="256.55946" x2="329.58473" y2="518.49558" xlink:href="#linear-gradient"/><linearGradient id="linear-gradient-17" x1="-188.27371" y1="-1224.19964" x2="-95.67223" y2="-1174.23481" gradientTransform="translate(981.47986 1764.84932)" gradientUnits="userSpaceOnUse"><stop offset="0" stop-color="#63c2ff"/><stop offset="0.10707" stop-color="#6ab3fd"/><stop offset="0.31065" stop-color="#7c8df8"/><stop offset="0.45341" stop-color="#8b6ff4"/><stop offset="0.74181" stop-color="#5c51ed"/><stop offset="1" stop-color="#2e34e6"/></linearGradient><linearGradient id="linear-gradient-18" x1="-339.4299" y1="-1488.47572" x2="-339.64709" y2="-1369.88792" gradientTransform="matrix(0, -1, -1, 0, -573.96778, 209.40169)" xlink:href="#linear-gradient"/><linearGradient id="linear-gradient-19" x1="-1120.42796" y1="-1225.17261" x2="-1024.81905" y2="-1173.58507" gradientTransform="matrix(-1, 0, 0, 1, -1014.02711, 1764.84932)" xlink:href="#linear-gradient-17"/><linearGradient id="linear-gradient-20" x1="253.53831" y1="529.13022" x2="344.9437" y2="578.44967" gradientTransform="matrix(1, 0, 0, 1, 0, 0)" xlink:href="#linear-gradient-17"/><linearGradient id="linear-gradient-21" x1="-339.4299" y1="-561.32279" x2="-339.64709" y2="-442.735" gradientTransform="translate(541.42052 209.40169) rotate(-90)" xlink:href="#linear-gradient"/><linearGradient id="linear-gradient-22" x1="-235.39713" y1="-1225.17261" x2="-139.78822" y2="-1173.58507" xlink:href="#linear-gradient-17"/><linearGradient id="linear-gradient-23" x1="-339.4299" y1="-1446.35214" x2="-339.64709" y2="-1327.76434" gradientTransform="matrix(0, -1, -1, 0, -573.96778, 209.40169)" xlink:href="#linear-gradient"/><linearGradient id="linear-gradient-24" x1="533.95198" y1="346.14819" x2="771.24647" y2="98.91467" xlink:href="#linear-gradient"/><linearGradient id="linear-gradient-25" x1="827.67747" y1="-66.74176" x2="776.09861" y2="-95.73134" gradientTransform="translate(-52.2335 218.32809)" xlink:href="#linear-gradient"/><linearGradient id="linear-gradient-26" x1="844.25358" y1="-66.74176" x2="792.67472" y2="-95.73134" gradientTransform="translate(-57.08854 206.60701)" xlink:href="#linear-gradient"/><linearGradient id="linear-gradient-27" x1="860.09379" y1="-65.43243" x2="808.51493" y2="-94.422" gradientTransform="translate(-61.94357 194.88592)" xlink:href="#linear-gradient"/><linearGradient id="linear-gradient-28" x1="819.01982" y1="322.40745" x2="767.44096" y2="293.41787" gradientTransform="translate(39.4237 -11.48435)" xlink:href="#linear-gradient"/><linearGradient id="linear-gradient-29" x1="835.59593" y1="322.40745" x2="784.01707" y2="293.41787" gradientTransform="translate(22.84759 5.09175)" xlink:href="#linear-gradient"/><linearGradient id="linear-gradient-30" x1="851.43613" y1="323.71679" x2="799.85728" y2="294.72721" gradientTransform="translate(6.27148 21.66786)" xlink:href="#linear-gradient"/><linearGradient id="linear-gradient-31" x1="231.82099" y1="538.01097" x2="355.59253" y2="538.23766" xlink:href="#linear-gradient"/></defs><title>YT_teams</title><path d="M260.533,339.97557l0,0a24,24,0,0,1,0,33.94109L97.502,536.94777,63.56088,503.00664,226.592,339.97557A24,24,0,0,1,260.533,339.97557Z" fill="url(#linear-gradient)"/><path d="M82.26,229.81146l-1.1582-.18555a57.32855,57.32855,0,0,1-48.417-56.8916V52.81732A24.37842,24.37842,0,0,1,57.03535,28.46673H209.69551a24.37759,24.37759,0,0,1,24.34961,24.35059,1,1,0,0,1-2,0,22.37561,22.37561,0,0,0-22.34961-22.35059H57.03535A22.37581,22.37581,0,0,0,34.68477,52.81732v119.917A55.33431,55.33431,0,0,0,80.26,227.45306V186.86029H208.1252a1,1,0,0,1,0,2H82.26Z" fill="#63c2ff"/><path d="M865.32441,502.22543H483.80966c-26.108,0-39.29381-31.46577-20.98545-50.07851L844.339,64.28939c18.47246-18.77957,50.4217-5.69979,50.4217,20.64227V472.78919A29.43624,29.43624,0,0,1,865.32441,502.22543Z" fill="url(#linear-gradient-2)"/><path d="M486.83809,600.40228A172.119,172.119,0,0,1,364.75215,549.914l-.707-.707L608.217,305.03509l.707.707A172.57426,172.57426,0,0,1,486.83809,600.40228ZM366.8752,549.205c66.5996,65.834,174.332,65.59668,240.63476-.70508a170.655,170.655,0,0,0,.70508-240.63476Z"/><rect x="558.56701" y="335.23124" width="291.8667" height="48" rx="23.99998" fill="url(#linear-gradient-3)"/><rect x="802.4337" y="335.23124" width="48" height="226.90591" rx="23.99998" fill="url(#linear-gradient-4)"/><path d="M255.50942,227.1955,265.55165,209.02a30.18921,30.18921,0,0,0-26.42407-44.78882H151.4872A30.18929,30.18929,0,0,0,121.298,194.42036V227.1955Z" fill="url(#linear-gradient-5)"/><rect x="192.8825" y="232.83228" width="238.6877" height="48" rx="21.13397" transform="translate(-90.15887 296.00182) rotate(-45)" fill="url(#linear-gradient-6)"/><rect x="174.69299" y="287.23123" width="321.5973" height="48" rx="23.99998" fill="url(#linear-gradient-7)"/><path d="M802.72807,236.204h24.23648a0,0,0,0,1,0,0v52.76487a12.11822,12.11822,0,0,1-12.11822,12.11822h0a12.11823,12.11823,0,0,1-12.11823-12.11823V236.204A0,0,0,0,1,802.72807,236.204Z" transform="translate(-35.57352 382.36027) rotate(-25.86298)" fill="url(#linear-gradient-8)"/><path d="M787.83034,212.82474h54.52681a0,0,0,0,1,0,0v40.42967a0,0,0,0,1,0,0H787.83034a19.94211,19.94211,0,0,1-19.94211-19.94211v-.54545A19.94211,19.94211,0,0,1,787.83034,212.82474Z" fill="#fff"/><polygon points="845.349 212.825 845.357 212.825 845.357 253.254 845.304 253.254 892.058 288.404 892.058 178.256 845.349 212.825" fill="#fff"/><path d="M383.325,164.23124h87.64032a30.18917,30.18917,0,0,1,30.18917,30.18917V353.04206a30.18918,30.18918,0,0,1-30.18917,30.18918h0a30.18918,30.18918,0,0,1-26.42417-15.58953L356.90087,209.02007A30.18918,30.18918,0,0,1,383.325,164.23124Z" fill="url(#linear-gradient-9)"/><path d="M667.17287,164.23124H579.53255a30.18918,30.18918,0,0,0-30.18918,30.18917V353.04206a30.18918,30.18918,0,0,0,30.18918,30.18918h0a30.18917,30.18917,0,0,0,26.42416-15.58953L693.597,209.02007A30.18917,30.18917,0,0,0,667.17287,164.23124Z" fill="url(#linear-gradient-10)"/><path d="M436.76826,100.353a24.68954,24.68954,0,0,1,22.09644,13.56445l.75268,1.47925,1.59253-.467a6.09141,6.09141,0,1,1,1.99072,11.92774l-1.66357.07324-.22925,1.64941a24.77941,24.77941,0,0,1-49.07837.0044l-.24829-1.78272-1.79883.05933c-.06152.0022-.12255.00586-.19726.01245a6.09733,6.09733,0,1,1,2.11645-11.80737l1.68287.62426.802-1.60595A24.66311,24.66311,0,0,1,436.76826,100.353m0-2a26.77792,26.77792,0,0,0-23.97119,14.83789,8.094,8.094,0,1,0-2.812,15.68262c.08887,0,.175-.0105.26343-.01343a26.77943,26.77943,0,0,0,53.04028-.00464,8.092,8.092,0,1,0-2.6416-15.845A26.77561,26.77561,0,0,0,436.76826,98.353Z"/><path d="M370.90753.48234c7.565,6.12424,3.53864,13.9616,12.043,23.23533,9.68383,10.56053,13.97,6.63015,23.65415,17.191,9.68275,10.55917,5.39654,14.48942,15.07929,25.04874,9.68248,10.55849,16.80711,7.95955,26.48877,18.51778,8.64617,9.42857,12.36605,16.29915,11.99866,27.50358-.06586-.06845-.13661-.12927-.203-.19676a26.70878,26.70878,0,0,0-30.084-12.51954,25.66242,25.66242,0,0,0-10.39,5.41287,26.90553,26.90553,0,0,0-6.69737,8.51554,8.064,8.064,0,0,0-10.18866,4.25872c-7.98514-7.40956-12.32877-5.04357-21.12787-14.63951-9.68275-10.559-5.39655-14.48956-15.07929-25.0486-9.68248-10.55877-13.96869-6.62839-23.65089-17.187-9.07751-9.8991-9.246-10.7675-13.5915-21.80863Z" fill-rule="evenodd"/><path d="M442.7036,122.62023l.00317,3.99812a1.83331,1.83331,0,0,0,1.83559,1.831h0a1.83329,1.83329,0,0,0,1.83267-1.83393l-.00317-3.99812a1.83331,1.83331,0,0,0-1.83559-1.831h0A1.8333,1.8333,0,0,0,442.7036,122.62023Z"/><path d="M426.53878,122.62023l.00317,3.99812a1.8333,1.8333,0,0,0,1.83559,1.831h0a1.83329,1.83329,0,0,0,1.83267-1.83393l-.00317-3.99812a1.83332,1.83332,0,0,0-1.83559-1.831h0A1.83329,1.83329,0,0,0,426.53878,122.62023Z"/><path d="M589.16049,122.62023l.00317,3.99812a1.83331,1.83331,0,0,0,1.83559,1.831h0a1.83328,1.83328,0,0,0,1.83267-1.83393l-.00317-3.99812a1.83331,1.83331,0,0,0-1.83559-1.831h0A1.8333,1.8333,0,0,0,589.16049,122.62023Z"/><path d="M608.86543,102.45159a23.41259,23.41259,0,0,1,21.05542,13.02173l.802,1.60474,1.68213-.62354a5.70722,5.70722,0,1,1,1.98145,11.05469h-.00367c-.05981-.00415-.11987-.00781-.18017-.00976l-1.79688-.05738-.248,1.78052a23.521,23.521,0,1,1-23.29224-26.771m0-2a25.50123,25.50123,0,1,0,25.27319,29.04688c.084.00268.16651.01269.25122.01269a7.70974,7.70974,0,1,0-2.67993-14.93188,25.52167,25.52167,0,0,0-22.84448-14.12769Z"/><path d="M608.86539,100.45156a25.52178,25.52178,0,0,1,22.84454,14.1278,7.7079,7.7079,0,1,1,2.68,14.93172c-.08483,0-.16706-.01-.25111-.01271a25.51792,25.51792,0,0,1-25.27341,21.95554h51.85374a23.61728,23.61728,0,0,0,23.61733-23.61733v-27.385Z"/><path d="M605.32531,122.62023l.00318,3.99812a1.83329,1.83329,0,0,0,1.83558,1.831h0a1.8333,1.8333,0,0,0,1.83268-1.83393l-.00318-3.99812a1.83331,1.83331,0,0,0-1.83559-1.831h0A1.8333,1.8333,0,0,0,605.32531,122.62023Z"/><path d="M590.7343,108.00756a25.53177,25.53177,0,0,1,36.26236,0Z"/><path d="M197.76069,102.59832a23.50123,23.50123,0,1,1-23.29223,26.771l-.24805-1.78052-1.79663.05737c-.06079.002-.12085.00562-.1875.01172a5.70962,5.70962,0,1,1,1.98486-11.05664l1.68213.62354.802-1.60474a23.41259,23.41259,0,0,1,21.05542-13.02173m0-2A25.52141,25.52141,0,0,0,174.91621,114.726a7.708,7.708,0,1,0-2.67993,14.93188c.08472,0,.167-.01.25122-.01269a25.521,25.521,0,1,0,25.27319-29.04688Z"/><path d="M197.7607,100.59831a25.52178,25.52178,0,0,0-22.84454,14.1278,7.7079,7.7079,0,1,0-2.68,14.93172c.08483,0,.16706-.01.25111-.01271a25.51794,25.51794,0,0,0,25.27341,21.95554H145.907a23.61728,23.61728,0,0,1-23.61733-23.61733v-27.385Z"/><path d="M201.30078,122.767l-.00317,3.99812a1.83331,1.83331,0,0,1-1.83559,1.831h0a1.83328,1.83328,0,0,1-1.83267-1.83393l.00317-3.99812a1.83331,1.83331,0,0,1,1.83559-1.831h0A1.8333,1.8333,0,0,1,201.30078,122.767Z"/><path d="M217.4656,122.767l-.00317,3.99812a1.8333,1.8333,0,0,1-1.83559,1.831h0a1.83329,1.83329,0,0,1-1.83267-1.83393l.00317-3.99812a1.83332,1.83332,0,0,1,1.83559-1.831h0A1.8333,1.8333,0,0,1,217.4656,122.767Z"/><path d="M215.89179,108.15431a25.53177,25.53177,0,0,0-36.26236,0Z"/><path d="M236.86409,335.23124H472.22037a23.06992,23.06992,0,0,1,23.06992,23.06992v1.86016a23.06992,23.06992,0,0,1-23.06992,23.06992H236.86408a23.06991,23.06991,0,0,1-23.06991-23.06991v-1.86017a23.06992,23.06992,0,0,1,23.06992-23.06992Z" fill="url(#linear-gradient-11)"/><path d="M227.2489,274.12931H520.03157a24,24,0,0,1,24,24v0a24,24,0,0,1-24,24H227.2489a24,24,0,0,1-24-24v-.00006A24,24,0,0,1,227.2489,274.12931Z" transform="translate(-101.37257 351.52353) rotate(-44.99999)" fill="url(#linear-gradient-12)"/><rect x="518.4201" y="238.49997" width="321.5973" height="48" rx="23.99998" transform="translate(13.32306 557.16465) rotate(-45)" fill="url(#linear-gradient-13)"/><rect x="576.09813" y="158.30913" width="48" height="123.67384" rx="23.91147" transform="translate(20.0979 488.81274) rotate(-45)" fill="url(#linear-gradient-14)"/><path d="M778.43368,138.90289h0a24,24,0,0,1,24,24V555.5674h-48V162.90287A24,24,0,0,1,778.43368,138.90289Z" fill="url(#linear-gradient-15)"/><path d="M186.697,290.45065l0,0a24,24,0,0,1,32.78457,8.78461L348.21672,522.211l-41.56922,24L177.91238,323.23523A24,24,0,0,1,186.697,290.45065Z" fill="url(#linear-gradient-16)"/><rect x="801.4584" y="560.94777" width="94.5416" height="19.32078" fill="url(#linear-gradient-17)"/><path d="M886.157,560.94777H796.55735v-24h65.59973A23.99992,23.99992,0,0,1,886.157,560.94777Z" fill="url(#linear-gradient-18)"/><rect x="0.09927" y="560.94777" width="97.95061" height="19.32078" fill="url(#linear-gradient-19)"/><polygon points="364.622 550.414 354.961 533.682 307.735 560.948 255.327 560.948 255.327 580.269 313.039 580.269 313.039 580.195 364.622 550.414" fill="url(#linear-gradient-20)"/><path d="M8.45027,560.94777H98.04988v-24H32.45015A23.99992,23.99992,0,0,0,8.45027,560.94777Z" fill="url(#linear-gradient-21)"/><rect x="754.4337" y="560.94777" width="97.95061" height="19.32078" fill="url(#linear-gradient-22)"/><path d="M844.03331,560.94777H754.4337v-24h65.59973A23.99992,23.99992,0,0,1,844.03331,560.94777Z" fill="url(#linear-gradient-23)"/><path d="M718.81046,121.17732l33.94113,33.94113L643.949,263.921a24,24,0,0,1-33.94109,0l0,0a24,24,0,0,1,0-33.9411Z" fill="url(#linear-gradient-24)"/><path d="M735.1461,107.76358h16.57611a0,0,0,0,1,0,0v46.82151a8.288,8.288,0,0,1-8.288,8.288h0a8.288,8.288,0,0,1-8.288-8.288V107.76358a0,0,0,0,1,0,0Z" transform="translate(122.06229 565.32116) rotate(-45)" fill="url(#linear-gradient-25)"/><path d="M746.86718,96.0425h16.57611a0,0,0,0,1,0,0V142.864a8.288,8.288,0,0,1-8.288,8.288h0a8.288,8.288,0,0,1-8.288-8.288V96.0425a0,0,0,0,1,0,0Z" transform="translate(133.78337 570.17619) rotate(-45)" fill="url(#linear-gradient-26)"/><path d="M758.58826,84.32142h8.28806a8.288,8.288,0,0,1,8.288,8.288v38.53346a8.288,8.288,0,0,1-8.288,8.288h0a8.288,8.288,0,0,1-8.288-8.288V84.32142a0,0,0,0,1,0,0Z" transform="translate(145.50446 575.03122) rotate(-45)" fill="url(#linear-gradient-27)"/><path d="M818.14565,267.10034h16.57611a0,0,0,0,1,0,0v46.82151a8.288,8.288,0,0,1-8.288,8.288h0a8.288,8.288,0,0,1-8.288-8.288V267.10034a0,0,0,0,1,0,0Z" transform="translate(1121.08883 -531.77858) rotate(90)" fill="url(#linear-gradient-28)"/><path d="M818.14565,283.67645h16.57611a0,0,0,0,1,0,0V330.498a8.288,8.288,0,0,1-8.288,8.288h0a8.288,8.288,0,0,1-8.288-8.288V283.67645A0,0,0,0,1,818.14565,283.67645Z" transform="translate(1137.66493 -515.20247) rotate(90)" fill="url(#linear-gradient-29)"/><path d="M818.14565,300.25256h8.28806a8.288,8.288,0,0,1,8.288,8.288v38.53346a8.288,8.288,0,0,1-8.288,8.288h0a8.288,8.288,0,0,1-8.288-8.288V300.25256A0,0,0,0,1,818.14565,300.25256Z" transform="translate(1154.24104 -498.62636) rotate(90)" fill="url(#linear-gradient-30)"/><path d="M354.94044,533.72011l-12-20.78467-45.741,26.40869H285.37011a24,24,0,0,0-24,24v0h42.22754V563.288l.03271.05615Z" fill="url(#linear-gradient-31)"/><rect width="896" height="600" fill="none"/><rect x="253.16973" y="119.38949" width="38.83791" height="10.56698" transform="translate(147.9157 397.26166) rotate(-90)"/><rect x="264.76779" y="109.8536" width="57.90969" height="10.56698" transform="translate(178.58555 408.85972) rotate(-90)"/><rect x="275.14101" y="99.09287" width="79.43115" height="10.56698" transform="translate(210.48023 419.23294) rotate(-90)"/><path d="M329.1584,155.454H256.55781a1,1,0,0,1,0-2H329.1584a1,1,0,0,1,0,2Z"/></svg>