<svg id="Layer_1" data-name="Layer 1" xmlns="http://www.w3.org/2000/svg" width="1200" height="675" viewBox="0 0 1200 675">
  <title>Goodgame-Studios_Logo</title>
  <g id="Pantone_300_RGB" data-name="Pantone 300 RGB">
    <g>
      <g>
        <path d="M618.707,213.923c7.412,0,28.379-.6,46.792,18.613a1.53553,1.53553,0,0,1-.005,2.112l-12.023,12.417a1.499,1.499,0,0,1-2.113.044c-1.243-1.185-3.138-2.991-3.302-3.132-10.055-8.629-19.107-10.261-28.771-10.261-18.967,0-34.903,16.16-34.903,36.161s16.455,36.459,35.653,36.459c19.01,0,27.959-7.246,32.284-22.202a.77656.77656,0,0,0-.731-.986h-29.31a1.501,1.501,0,0,1-1.501-1.501V266.31a1.501,1.501,0,0,1,1.501-1.501h50.125a1.49324,1.49324,0,0,1,1.587,1.425c1.299,34.272-18.36,59.585-54.893,59.585a55.94983,55.94983,0,0,1-.38995-111.896Z" fill="#005eb8"/>
        <path d="M618.707,349.716c7.412,0,28.379-.6,46.792,18.613a1.53554,1.53554,0,0,1-.005,2.112l-12.023,12.417a1.499,1.499,0,0,1-2.113.044c-1.243-1.185-3.138-2.991-3.302-3.132-10.055-8.629-19.107-10.261-28.771-10.261-18.967,0-34.903,16.16-34.903,36.161s16.455,36.459,35.653,36.459c19.01,0,27.959-7.246,32.284-22.202a.77656.77656,0,0,0-.731-.986h-29.31a1.501,1.501,0,0,1-1.501-1.501V402.104a1.501,1.501,0,0,1,1.501-1.501h50.125a1.49324,1.49324,0,0,1,1.587,1.425c1.299,34.272-18.36,59.585-54.893,59.585a55.95035,55.95035,0,0,1-.38995-111.897Z" fill="#005eb8"/>
        <path d="M744.471,213.932c-30.582,0-55.374,25.046-55.374,55.941,0,30.896,24.792,55.941,55.374,55.941s55.374-25.046,55.374-55.941S775.053,213.932,744.471,213.932Zm0,92.157c-18.965,0-34.34-16.214-34.34-36.216s15.374-36.215,34.34-36.215c18.965,0,34.34,16.214,34.34,36.215S763.436,306.089,744.471,306.089Z" fill="#005eb8"/>
        <path d="M871.046,213.932c-30.582,0-55.374,25.046-55.374,55.941,0,30.896,24.792,55.941,55.374,55.941s55.374-25.046,55.374-55.941S901.628,213.932,871.046,213.932Zm0,92.157c-18.965,0-34.34-16.214-34.34-36.216s15.374-36.215,34.34-36.215,34.34,16.214,34.34,36.215S890.011,306.089,871.046,306.089Z" fill="#005eb8"/>
        <path d="M747.87,352.354H726.691a1.50259,1.50259,0,0,0-1.38.91L680.878,456.877a1.502,1.502,0,0,0,1.38,2.094h17.705a1.87905,1.87905,0,0,0,1.726-1.14l8.526-19.97a.93816.93816,0,0,1,.863-.57h52.405a.9381.9381,0,0,1,.863.57l8.526,19.97a1.87688,1.87688,0,0,0,1.726,1.14h17.705a1.502,1.502,0,0,0,1.38-2.094l-44.433-103.613A1.50215,1.50215,0,0,0,747.87,352.354Zm-29.296,65.933,18.275-43.128a.46913.46913,0,0,1,.863,0l18.275,43.128a.46952.46952,0,0,1-.431.654h-36.55A.46969.46969,0,0,1,718.574,418.287Z" fill="#005eb8"/>
        <path d="M1026.296,370.094V353.855a1.501,1.501,0,0,0-1.501-1.501h-78.316a1.501,1.501,0,0,0-1.501,1.501V457.471a1.501,1.501,0,0,0,1.501,1.501h78.316a1.501,1.501,0,0,0,1.501-1.501l-.005-16.248a1.501,1.501,0,0,0-1.501-1.501H966.046a.938.938,0,0,1-.938-.938l.005-24.22a.938.938,0,0,1,.938-.938h53.134a1.501,1.501,0,0,0,1.501-1.501V396.789a1.501,1.501,0,0,0-1.501-1.501H966.051a.938.938,0,0,1-.938-.938V372.535a.938.938,0,0,1,.938-.938h58.744A1.504,1.504,0,0,0,1026.296,370.094Z" fill="#005eb8"/>
        <path d="M892.072,353.565l-27.129,60.316a.46906.46906,0,0,1-.855,0l-27.129-60.316a2.063,2.063,0,0,0-1.88-1.213H811.755a1.501,1.501,0,0,0-1.501,1.501V457.472a1.501,1.501,0,0,0,1.501,1.501h16.182a1.501,1.501,0,0,0,1.501-1.501V380.775a.46934.46934,0,0,1,.897-.193l26.008,57.573a1.50039,1.50039,0,0,0,1.368.883h13.611a1.502,1.502,0,0,0,1.368-.883l26.008-57.573a.46934.46934,0,0,1,.897.193v76.697a1.501,1.501,0,0,0,1.501,1.501h16.159a1.501,1.501,0,0,0,1.501-1.501V353.853a1.501,1.501,0,0,0-1.501-1.501h-23.301A2.06472,2.06472,0,0,0,892.072,353.565Z" fill="#005eb8"/>
        <path d="M984.85,323.146c11.259-.368,22.578-1.749,29.488-6.252,12.835-8.364,22.914-22.579,22.914-45.699,0-22.369-9.765-37.632-20.868-45.728-12.845-9.366-32.7-8.866-39.548-8.866H946.478a1.501,1.501,0,0,0-1.501,1.501V321.645a1.501,1.501,0,0,0,1.501,1.501Zm-19.742-86.365a.938.938,0,0,1,.938-.938h11.373c13.187.164,20.008,1.529,27.652,6.869,12.256,8.561,11.693,28.483,11.693,28.483s.693,19.942-12.561,28.032c-4.848,2.959-13.354,4.672-20.698,4.672H966.02a.92223.92223,0,0,1-.914-.938v-66.18Z" fill="#005eb8"/>
      </g>
      <path d="M468.425,234.674l-130.25-79.261c-8.493-5.162-22.389-5.166-30.88,0L177.01,234.671c-7.851,4.776-14.274,16.093-14.272,25.283l.003,155.093c.002,9.19,6.416,20.508,14.27,25.281L307.29,519.589c8.493,5.162,22.395,5.168,30.886.002L468.423,440.33c7.851-4.776,14.272-16.092,14.27-25.282l.002-155.094C482.695,250.764,476.278,239.447,468.425,234.674ZM448.621,423.342,327.486,497.037a10.06643,10.06643,0,0,1-9.505,0L196.846,423.342c-12.359-7.519-12.359-19.822,0-27.341l73.504-44.695a10.06638,10.06638,0,0,1,9.505,0l18.548,11.284c3.533,2.149,3.532,5.665-.001,7.812l-58.214,35.364c-3.533,2.148-3.534,5.663-.001,7.813L315.01,459.1a16.35519,16.35519,0,0,0,15.445,0l74.827-45.523c3.531-2.148,3.531-5.663,0-7.812l-18.491-11.249a10.06393,10.06393,0,0,0-9.508.002l-49.802,30.307a10.04611,10.04611,0,0,1-9.499.002l-18.488-11.248c-3.535-2.151-3.537-5.666,0-7.813l74.955-45.507c4.245-2.577,11.19-2.584,15.432-.003l58.739,35.746C460.979,403.52,460.979,415.823,448.621,423.342Zm0-144.343L327.486,352.694a10.06638,10.06638,0,0,1-9.505,0L196.846,278.999c-12.359-7.519-12.359-19.822,0-27.341l121.135-73.695a10.06638,10.06638,0,0,1,9.505,0l18.566,11.295c3.532,2.149,3.532,5.665-.001,7.813L240.188,261.424c-3.533,2.148-3.534,5.663-.001,7.813l74.825,45.521a16.35519,16.35519,0,0,0,15.445,0l74.827-45.523c3.531-2.148,3.531-5.663,0-7.812l-18.491-11.249a10.064,10.064,0,0,0-9.508.002l-49.802,30.307a10.04608,10.04608,0,0,1-9.499.002l-18.488-11.248c-3.535-2.151-3.537-5.666,0-7.813l74.955-45.503a16.35726,16.35726,0,0,1,15.432.003l58.739,35.735C460.979,259.177,460.979,271.481,448.621,278.999Z" fill="#005eb8"/>
      <rect y="0.53999" width="1200" height="673.91802" fill="none"/>
    </g>
  </g>
</svg>
