<svg id="svg2886" xmlns="http://www.w3.org/2000/svg" width="1024" height="511" viewBox="0 0 1024 511">
  <title>inno-games_logo</title>
  <path id="path2641" d="M966.58548,357.17787v84.27686a51.988,51.988,0,0,1-51.83924,51.83248H70.0002a51.98661,51.98661,0,0,1-51.83248-51.83248V324.00211a51.9808,51.9808,0,0,1,51.83248-51.8257h427.926" fill="none" stroke="#2e5719" stroke-width="4.6875"/>
  <path id="path2643" d="M822.60037,17.97113c40.11024,12.07437,61.42155,53.39,42.0267,96.61534-8.49879,19.01563-26.06522,37.42176-46.1779,48.82573,1.50337-1.40179,25.449-23.89821,35.66107-53.38325,11.14662-32.2954-2.58689-65.98584-36.12156-76.55685-32.03131-10.05634-64.32671,5.54622-75.52751,41.04477-11.91863,37.9432,3.31825,71.3763,4.246,73.34016-15.48744-15.90729-24.25034-48.14851-15.96148-78.2092,12.70417-46.07631,53.33585-63.2906,91.85467-51.6767" fill="#2e5719"/>
  <path id="path2645" d="M746.97128,197.211c16.53032,25.34062,58.42158,9.74485,58.42158,9.74485-20.993,16.063-50.749,13.11049-60.49379,1.4966-2.90517-3.474-2.53948-9.64327,2.07221-11.24145" fill="#2e5719"/>
  <path id="path2647" d="M811.96165,85.69735s2.47853-10.11052-3.31826-13.957c-6.60942-4.3679-35.64752-6.98864-29.67466,10.483,2.228,6.50784,13.65224,29.47151,15.22333,53.15978,2.20766,33.25025-14.01115,35.69491-18.50773,31.35411,0,0,30.20288,11.22112-.51466-83.708-6.711-20.7357,21.975-20.97949,35.47822-14.4852,4.84871,2.3228,5.851,9.51461,1.31376,17.15335" fill="#211e1e"/>
  <path id="path2649" d="M954.62622,257.19011c24.52122,8.89832,31.07646,23.08557,26.70179,34.50982-9.46041,24.64311-93.99461,41.30889-172.52209,13.04954-10.8622,1.693-22.70633,2.41081-36.23668,3.13541,108.3579,51.10789,213.74292,30.41958,227.23263-8.64778,9.78547-28.31348-30.7988-40.39465-45.17565-42.047" fill="#211e1e"/>
  <path id="path2651" d="M1003.79732,145.53425c25.76048,34.00194-40.5775,142.06188-244.54173,152.43652,2.1738-.833,4.307-1.66592,6.42658-2.54625a333.62476,333.62476,0,0,0,38.36307-18.4468c139.57657-22.70631,197.78822-97.604,182.80867-123.72343-10.15791-17.729-42.76483-13.7877-55.04914-12.33849,35.248-15.69737,61.37414-9.37915,71.99255,4.61845" fill="#2e5719"/>
  <path id="path2653" d="M932.73252,33.16061c10.74031,11.49875,14.77639,54.15524-10.87574,105.83194-21.98174,44.21405-65.7285,94.963-145.64423,138.44568q-7.70987,4.20539-15.39941,7.781c-109.67166,52.65865-219.97988,32.60014-231.43124-3.06769-8.13311-25.4422,21.7718-54.73089,81.33107-71.87746-.73137.35215-1.82166.88036-3.21668,1.544-15.29782,7.46947-66.86619,34.52338-53.80311,62.35609,8.4988,18.19622,56.91143,29.13289,114.96055,20.26167a285.55325,285.55325,0,0,0,52.45549-13.04957,278.996,278.996,0,0,0,44.214-19.90949C920.455,174.50465,932.00793,59.64567,916.46631,42.95284c-9.7516-10.41527-25.34062-4.34761-38.30212,3.52817,1.544-1.65912,32.7559-36.75135,54.56833-13.3204" fill="#519e35"/>
  <path id="path2655" d="M738.21516,263.3932c-6.52816,3.16249-14.045,5.91193-20.57994,8.28888-.20316.06092-.36569.10835-.52144.1625-21.55511-18.6093-38.40371-39.18247-46.80092-57.27711a179.1313,179.1313,0,0,1,16.63867-6.83967c.78555-.25733,1.50337-.46049,2.18057-.67719,8.8103,18.04048,25.08328,37.74007,49.08306,56.34259" fill="#211e1e"/>
  <path id="path2657" d="M724.4207,147.03085c-20.36324-1.86227-51.05369,3.73136-42.70388,39.345-4.91644.46728-14.56646,1.34763-20.06528,2.1738-8.91188-48.77154,40.64522-53.39,62.76916-41.51881" fill="#211e1e"/>
  <path id="path2659" d="M705.66242,275.52852c-13.74028,3.93452-28.34737,6.98867-38.40371,8.85771-39.44658-13.32042-63.08067-31.09676-61.52312-50.58644.61624-8.0383,6.42657-14.71543,16.01565-20.32258,18.291-10.72,50.58643-17.46485,88.06238-21.6093-5.6478,1.34763-15.1353,3.623-25.55732,6.78551-23.32259,7.05636-51.36521,18.40612-51.25686,33.17574.15575,22.90951,44.41719,37.889,72.663,43.69936" fill="#2e5719"/>
  <path id="path2661" d="M753.11344,180.49105c9.76514,11.63419,39.52107,14.59353,60.487-1.4966,0,0-41.89126,15.6432-58.41481-9.7516-4.59138,1.64557-4.95706,7.80806-2.07221,11.2482" fill="#2e5719"/>
  <path id="path2663" d="M749.00287,194.45479c9.75837,11.641,39.52784,14.60711,60.48024-1.4966,0,0-41.89125,15.64321-58.40126-9.75159-4.59815,1.65912-4.95706,7.81481-2.079,11.24819" fill="#2e5719"/>
  <path id="path2665" d="M78.06558,442.70754H101.2595V318.94347H78.06558Z" fill="#519e35"/>
  <path id="path2667" d="M173.65161,442.70754V371.67661c0-1.15123-.63658-1.72-1.90292-1.72H140.57741c-1.2054,0-1.80811.56881-1.80811,1.72v71.03093H115.57539v-72.751q0-5.35324,6.25728-9.0609a27.77065,27.77065,0,0,1,13.04276-3.176h42.67a28.60326,28.60326,0,0,1,6.88707.86681,24.38893,24.38893,0,0,1,6.20988,2.44467,14.70819,14.70819,0,0,1,4.483,3.85321,8.17125,8.17125,0,0,1,1.72008,5.07223v72.751h-23.1939" fill="#519e35"/>
  <path id="path2669" d="M269.06154,442.70754V371.67661c0-1.15123-.63657-1.72-1.90292-1.72H235.98735c-1.21217,0-1.8081.56881-1.8081,1.72v71.03093H210.97856v-72.751q0-5.35324,6.25051-9.0609a27.77784,27.77784,0,0,1,13.04953-3.176h42.67681a28.54877,28.54877,0,0,1,6.88029.86681,24.3402,24.3402,0,0,1,6.21665,2.44467,14.67984,14.67984,0,0,1,4.47625,3.85321,8.13671,8.13671,0,0,1,1.72685,5.07223v72.751H269.06154" fill="#519e35"/>
  <path id="path2671" d="M364.28186,371.67661c0-1.15123-.63656-1.72-1.90291-1.72H331.20768c-1.2054,0-1.80813.56881-1.80813,1.72v57.08073c0,1.02256.60273,1.544,1.80813,1.544h31.17127c1.26635,0,1.90291-.52144,1.90291-1.544Zm21.47384,63.73755a15.12746,15.12746,0,0,1-4.483,3.94127,22.83715,22.83715,0,0,1-6.20988,2.49208,28.25881,28.25881,0,0,1-6.88707.86h-42.67a25.55288,25.55288,0,0,1-13.04276-3.35211c-4.17829-2.34986-6.25728-5.37692-6.25728-9.05409V369.95657q0-5.35324,6.25728-9.0609a27.73119,27.73119,0,0,1,13.04276-3.176h42.67a28.60332,28.60332,0,0,1,6.88707.86681,24.38937,24.38937,0,0,1,6.20988,2.44467,14.78881,14.78881,0,0,1,4.483,3.85321,8.17113,8.17113,0,0,1,1.72008,5.07223v60.34477a8.356,8.356,0,0,1-1.72008,5.11282" fill="#519e35"/>
  <path id="path2673" d="M420.55,442.70754a25.62048,25.62048,0,0,1-13.05631-3.35211c-4.16475-2.34986-6.24373-5.37692-6.24373-9.05409V331.36323q0-5.35324,6.24373-9.06763A25.62029,25.62029,0,0,1,420.55,318.94347h77.36948v12.41976h-71.6675c-1.21218,0-1.80811.50788-1.80811,1.53724v95.85687c0,1.02256.59593,1.544,1.80811,1.544h48.47359v-53.9995q0-4.62185-5.80356-4.62523H449.44585v-12.501h48.47359v83.532H420.55" fill="#2e5719"/>
  <path id="path2675" d="M567.86009,393.14372H534.79268c-1.2054,0-1.81488.58234-1.81488,1.73361v33.88c0,1.02256.60948,1.544,1.81488,1.544h33.06741Zm-38.77616,49.56382a25.55288,25.55288,0,0,1-13.04276-3.35211c-4.16475-2.34986-6.24374-5.37692-6.24374-9.05409V393.14372q0-5.34313,6.24374-9.05414a27.70985,27.70985,0,0,1,13.04276-3.176h38.77616v-9.23693c0-1.15123-.62979-1.72-1.90291-1.72H513.68453V357.71965h58.083a28.50642,28.50642,0,0,1,6.88029.86681,24.38922,24.38922,0,0,1,6.20988,2.44467,14.62862,14.62862,0,0,1,4.483,3.85321,8.1302,8.1302,0,0,1,1.72007,5.07223v72.751H529.08393" fill="#2e5719"/>
  <path id="path2677" d="M697.87468,442.70754V371.67661c0-1.15123-.623-1.72-1.89615-1.72H676.50242c-1.21218,0-1.80811.56881-1.80811,1.72v71.03093H651.49362V371.67661c0-1.15123-.62979-1.72-1.90291-1.72H630.11459c-1.21218,0-1.80811.56881-1.80811,1.72v71.03093H605.10579v-72.751q0-5.35324,6.25051-9.0609a27.77785,27.77785,0,0,1,13.04954-3.176h77.37625a26.50091,26.50091,0,0,1,7.06314.772,21.705,21.705,0,0,1,6.12184,2.49887,14.94244,14.94244,0,0,1,4.34082,3.93448,8.91858,8.91858,0,0,1,1.77425,5.03159v72.751H697.87468" fill="#2e5719"/>
  <path id="path2679" d="M793.10855,371.67661c0-1.15123-.63656-1.72-1.90969-1.72H760.03437c-1.21218,0-1.81488.56881-1.81488,1.72V393.875h32.97937c1.27313,0,1.90969-.4808,1.90969-1.44919Zm21.47384,27.31807a14.8974,14.8974,0,0,1-4.4898,3.94123,23.83683,23.83683,0,0,1-6.20988,2.5327,26.93774,26.93774,0,0,1-6.88029.90745H758.21949v22.38128c0,1.02256.6027,1.544,1.81488,1.544h52.19815v12.4062H754.33239a25.62048,25.62048,0,0,1-13.05631-3.35211c-4.158-2.34986-6.24374-5.37692-6.24374-9.05409V369.95657q0-5.35324,6.24374-9.0609a27.82456,27.82456,0,0,1,13.05631-3.176h42.67a28.4643,28.4643,0,0,1,6.88029.86681,24.19273,24.19273,0,0,1,6.20988,2.44467,14.65679,14.65679,0,0,1,4.4898,3.85321,8.17112,8.17112,0,0,1,1.72007,5.07223V393.875a8.3898,8.3898,0,0,1-1.72007,5.11964" fill="#2e5719"/>
  <path id="path2681" d="M908.26548,435.41416a14.98909,14.98909,0,0,1-4.4898,3.94127,22.7043,22.7043,0,0,1-6.2031,2.49208,28.24569,28.24569,0,0,1-6.88029.86H828.70867v-12.4062H884.8955c1.26635,0,1.89615-.52144,1.89615-1.544V407.82525c0-.96161-.6298-1.44919-1.89615-1.44919H848.00871a27.76466,27.76466,0,0,1-13.04276-3.16928q-6.25728-3.53494-6.25728-9.33174V369.95657q0-5.35324,6.25728-9.0609a27.77065,27.77065,0,0,1,13.04276-3.176h61.97008v12.23692H853.71746c-1.2054,0-1.81488.56881-1.81488,1.72v20.74924c0,.96839.60948,1.44919,1.81488,1.44919h36.97483a27.05634,27.05634,0,0,1,6.88029.90744,23.89615,23.89615,0,0,1,6.2031,2.53948,14.87828,14.87828,0,0,1,4.4898,3.9345,8.39707,8.39707,0,0,1,1.71331,5.1196v23.92528a8.34922,8.34922,0,0,1-1.71331,5.11282" fill="#2e5719"/>
</svg>
