<svg id="Layer_1" data-name="Layer 1" xmlns="http://www.w3.org/2000/svg" width="171" height="39" viewBox="0 0 171 39">
  <title>kama-games</title>
  <path d="M110.991,29.021h49.835V26.934H110.991ZM160.272,8.902H48.189v2.087H160.272ZM62.533,25.055V17.273a3.84328,3.84328,0,0,0-1.252-3.131A5.69558,5.69558,0,0,0,57.567,13.1a7.19836,7.19836,0,0,0-2.404.341,4.44645,4.44645,0,0,0-1.801,1.292l1.856,1.837a3.1578,3.1578,0,0,1,.449-.453,2.03364,2.03364,0,0,1,.48-.295,2.48577,2.48577,0,0,1,.57-.17,4.15669,4.15669,0,0,1,.737-.058,2.51558,2.51558,0,0,1,1.667.442,1.79586,1.79586,0,0,1,.504,1.418v.591H56.874a5.1566,5.1566,0,0,0-1.757.271,3.57026,3.57026,0,0,0-1.241.737,2.99362,2.99362,0,0,0-.739,1.09,3.55312,3.55312,0,0,0-.246,1.325,4.30344,4.30344,0,0,0,.246,1.477,3.38286,3.38286,0,0,0,.715,1.179,3.9938,3.9938,0,0,0,2.975,1.043,4.24479,4.24479,0,0,0,1.645-.271,3.87031,3.87031,0,0,0,1.219-.862v1.021Zm-2.907-4.357a2.05441,2.05441,0,0,1-.426,1.498,1.60238,1.60238,0,0,1-.805.476,4.96219,4.96219,0,0,1-1.028.091,1.84821,1.84821,0,0,1-1.266-.374,1.27007,1.27007,0,0,1-.414-.987,1.2054,1.2054,0,0,1,.426-.986,1.84484,1.84484,0,0,1,1.208-.352h2.305Zm91.107-1.95a7.2543,7.2543,0,0,0-.333-2.257,5.13,5.13,0,0,0-.984-1.78,4.62913,4.62913,0,0,0-1.602-1.182,5.61167,5.61167,0,0,0-4.225-.034,4.392,4.392,0,0,0-1.602,1.169,5.45707,5.45707,0,0,0-1.039,1.894,8.23855,8.23855,0,0,0-.368,2.574,8.15288,8.15288,0,0,0,.458,2.961,4.96465,4.96465,0,0,0,1.207,1.86,4.167,4.167,0,0,0,1.723.963,7.33325,7.33325,0,0,0,2.002.273,7.19194,7.19194,0,0,0,1.41-.125,5.35533,5.35533,0,0,0,1.152-.362,5.04966,5.04966,0,0,0,.974-.579,8.50712,8.50712,0,0,0,.895-.794l-1.77-1.746a4.10641,4.10641,0,0,1-1.118.839,3.50558,3.50558,0,0,1-1.52.271,2.408,2.408,0,0,1-1.891-.736,2.7286,2.7286,0,0,1-.661-1.895h7.292Zm-7.292-.703a5.46754,5.46754,0,0,1,.078-.67,3.2088,3.2088,0,0,1,.191-.601,2.25113,2.25113,0,0,1,.727-.873,2.283,2.283,0,0,1,2.439,0,2.2513,2.2513,0,0,1,.727.873,3.04559,3.04559,0,0,1,.191.601,5.08271,5.08271,0,0,1,.078.67Zm-4.373,7.01V17.5a5.64176,5.64176,0,0,0-.28-1.803,4.092,4.092,0,0,0-.996-1.556,3.31094,3.31094,0,0,0-1.243-.771,4.713,4.713,0,0,0-1.618-.271,4.91229,4.91229,0,0,0-1.927.351,4.64,4.64,0,0,0-1.563,1.146,3.45431,3.45431,0,0,0-1.332-1.134,4.19289,4.19289,0,0,0-4.666.862V13.236h-2.84V25.054h2.91V17.908a2.52077,2.52077,0,0,1,.179-1.021,1.863,1.863,0,0,1,.458-.658,1.7151,1.7151,0,0,1,.625-.362,2.103,2.103,0,0,1,1.366,0,1.69489,1.69489,0,0,1,1.074,1.02,2.69064,2.69064,0,0,1,.168,1.021v7.146h2.907V17.84a2.45065,2.45065,0,0,1,.179-.976,1.78,1.78,0,0,1,.458-.646,1.85923,1.85923,0,0,1,.629-.351,2.1615,2.1615,0,0,1,.681-.114,2.19858,2.19858,0,0,1,.684.114,1.69962,1.69962,0,0,1,1.071,1.02,2.69064,2.69064,0,0,1,.168,1.021v7.146h2.908Zm-47.071,0V17.273a3.84328,3.84328,0,0,0-1.252-3.131A5.69627,5.69627,0,0,0,87.032,13.1a7.20063,7.20063,0,0,0-2.405.341,4.45037,4.45037,0,0,0-1.8,1.292l1.856,1.837a3.259,3.259,0,0,1,.447-.453,2.12358,2.12358,0,0,1,.481-.295,2.51587,2.51587,0,0,1,.57-.17,4.15255,4.15255,0,0,1,.738-.058,2.50036,2.50036,0,0,1,1.665.442,1.79586,1.79586,0,0,1,.504,1.418v.591H86.337a5.12653,5.12653,0,0,0-1.754.271,3.56568,3.56568,0,0,0-1.242.737,3.02007,3.02007,0,0,0-.738,1.09,3.57286,3.57286,0,0,0-.246,1.325,4.35151,4.35151,0,0,0,.246,1.477,3.38284,3.38284,0,0,0,.715,1.179,3.99778,3.99778,0,0,0,2.976,1.043,4.24684,4.24684,0,0,0,1.646-.271,3.89368,3.89368,0,0,0,1.216-.862v1.021h2.841Zm-2.908-4.357a2.05441,2.05441,0,0,1-.426,1.498,1.59831,1.59831,0,0,1-.805.476,4.93888,4.93888,0,0,1-1.027.091,1.83731,1.83731,0,0,1-1.264-.374,1.2601,1.2601,0,0,1-.414-.987,1.2122,1.2122,0,0,1,.423-.986,1.85,1.85,0,0,1,1.211-.352h2.302Zm-7.998,4.357V17.5a5.56,5.56,0,0,0-.281-1.803,4.065,4.065,0,0,0-.995-1.556,3.31887,3.31887,0,0,0-1.241-.771,4.7279,4.7279,0,0,0-1.622-.271,4.90551,4.90551,0,0,0-1.925.351,4.627,4.627,0,0,0-1.565,1.146,3.45187,3.45187,0,0,0-1.331-1.134,4.18639,4.18639,0,0,0-4.662.862V13.236H64.628V25.054h2.907V17.908a2.55418,2.55418,0,0,1,.18-1.021,1.8632,1.8632,0,0,1,.458-.658,1.73145,1.73145,0,0,1,.627-.362,2.103,2.103,0,0,1,1.366,0,1.707,1.707,0,0,1,.625.362,1.73488,1.73488,0,0,1,.447.658,2.69064,2.69064,0,0,1,.168,1.021v7.146h2.909V17.84a2.43414,2.43414,0,0,1,.177-.976,1.75978,1.75978,0,0,1,.46-.646,1.82254,1.82254,0,0,1,.625-.351,2.097,2.097,0,0,1,1.364,0,1.703,1.703,0,0,1,1.075,1.02,2.71033,2.71033,0,0,1,.168,1.021v7.146h2.907ZM45.162,21.539l1.229-1.407,2.864,4.923h3.601L48.384,18l4.159-4.764h-3.51l-3.87,4.831V8.902H42.254V25.054h2.909V21.539Zm61.488-7.191a3.66742,3.66742,0,0,0-1.254-.965,3.959,3.959,0,0,0-1.587-.283,4.5047,4.5047,0,0,0-1.578.271,3.366,3.366,0,0,0-1.22.771,3.55769,3.55769,0,0,0-.648.908,4.2198,4.2198,0,0,0-.356,1.077,8.85327,8.85327,0,0,0-.145,1.248q-.03451.669-.035,1.441,0,.771.035,1.45a8.73169,8.73169,0,0,0,.145,1.26,4.23937,4.23937,0,0,0,.356,1.078,3.56,3.56,0,0,0,.648.907,3.39389,3.39389,0,0,0,1.208.771,4.4097,4.4097,0,0,0,1.566.271,4.16421,4.16421,0,0,0,1.521-.26,3.271,3.271,0,0,0,1.254-.918v1.202a3.25088,3.25088,0,0,1-.124.896,2.08311,2.08311,0,0,1-.402.783,2.11189,2.11189,0,0,1-.728.555,2.50292,2.50292,0,0,1-1.095.216,3.30847,3.30847,0,0,1-1.263-.216,3.22494,3.22494,0,0,1-1.019-.691l-1.813,1.86a5.10629,5.10629,0,0,0,1.903,1.213,7.3168,7.3168,0,0,0,2.324.33,5.911,5.911,0,0,0,2.115-.363,4.63712,4.63712,0,0,0,1.621-1.021,4.411,4.411,0,0,0,1.028-1.553,5.21992,5.21992,0,0,0,.358-1.962V13.236h-2.817v1.112Zm-.144,5.614a3.07012,3.07012,0,0,1-.258.986,1.695,1.695,0,0,1-.582.691,2.15365,2.15365,0,0,1-2.059,0,1.616,1.616,0,0,1-.57-.691,3.26289,3.26289,0,0,1-.246-.986,12.17219,12.17219,0,0,1,0-2.292,3.13017,3.13017,0,0,1,.246-.977,1.65471,1.65471,0,0,1,.57-.681,2.1609,2.1609,0,0,1,2.059,0,1.73962,1.73962,0,0,1,.582.681,2.93508,2.93508,0,0,1,.258.977c.034.37.055.752.055,1.146S106.54,19.591,106.506,19.962Zm5.325,4.162a3.9969,3.9969,0,0,0,2.975,1.043,4.24132,4.24132,0,0,0,1.645-.271,3.89594,3.89594,0,0,0,1.22-.862v1.021h2.841V17.273a3.84741,3.84741,0,0,0-1.254-3.131,5.69255,5.69255,0,0,0-3.713-1.042,7.17181,7.17181,0,0,0-2.403.341,4.44255,4.44255,0,0,0-1.802,1.292l1.856,1.837a3.14769,3.14769,0,0,1,.446-.453,2.1623,2.1623,0,0,1,.48-.295,2.56316,2.56316,0,0,1,.57-.17,4.16865,4.16865,0,0,1,.738-.058,2.51134,2.51134,0,0,1,1.668.442,1.80224,1.80224,0,0,1,.502,1.418v.591h-2.752a5.15469,5.15469,0,0,0-1.754.271,3.57478,3.57478,0,0,0-1.24.737,2.95443,2.95443,0,0,0-.738,1.09,3.555,3.555,0,0,0-.249,1.325,4.30387,4.30387,0,0,0,.249,1.477A3.35337,3.35337,0,0,0,111.831,24.124Zm2.26-3.709a1.83636,1.83636,0,0,1,1.207-.352h2.303v.635a2.0735,2.0735,0,0,1-.423,1.498,1.62153,1.62153,0,0,1-.806.476,4.98619,4.98619,0,0,1-1.031.091,1.83855,1.83855,0,0,1-1.262-.374,1.27007,1.27007,0,0,1-.414-.987A1.20742,1.20742,0,0,1,114.091,20.415Zm43.59-2.552-1.833-.183a1.683,1.683,0,0,1-.614-.135,1.32593,1.32593,0,0,1-.37-.25.6659.6659,0,0,1-.177-.307,1.2481,1.2481,0,0,1-.046-.329,1.02218,1.02218,0,0,1,.391-.793,1.90787,1.90787,0,0,1,1.266-.34,6.29812,6.29812,0,0,1,1.474.17,2.76358,2.76358,0,0,1,1.23.622l1.791-1.837a4.54015,4.54015,0,0,0-1.97-1.088,9.74683,9.74683,0,0,0-2.481-.295,5.83019,5.83019,0,0,0-1.712.249,4.41883,4.41883,0,0,0-1.431.726,3.55693,3.55693,0,0,0-.984,1.181,3.411,3.411,0,0,0-.368,1.609,2.96065,2.96065,0,0,0,.903,2.394,4.49519,4.49519,0,0,0,2.496.919l1.834.182a1.50384,1.50384,0,0,1,.961.352,1.0236,1.0236,0,0,1,.27.737.889.889,0,0,1-.18.567,1.387,1.387,0,0,1-.469.374,2.4251,2.4251,0,0,1-.66.216,4.25182,4.25182,0,0,1-.75.067,7.13983,7.13983,0,0,1-1.533-.192,3.20079,3.20079,0,0,1-1.578-.919l-1.899,1.928a5.18223,5.18223,0,0,0,1.142.896,5.61113,5.61113,0,0,0,1.207.512,6.68331,6.68331,0,0,0,1.274.238c.435.038.88.057,1.344.057a7.64406,7.64406,0,0,0,1.935-.238,4.83119,4.83119,0,0,0,1.575-.715,3.3613,3.3613,0,0,0,1.054-1.203,3.62354,3.62354,0,0,0,.38-1.699,3.30187,3.30187,0,0,0-.862-2.395,4.08233,4.08233,0,0,0-2.61-1.078ZM42.103,29.021H98.209V26.934H42.103ZM18.788,0A19.00536,19.00536,0,0,0,0,19.212,19.00732,19.00732,0,0,0,18.788,38.427,19.00752,19.00752,0,0,0,37.577,19.212,19.00619,19.00619,0,0,0,18.788,0Zm0,36.977A17.57413,17.57413,0,0,1,1.416,19.212,17.57453,17.57453,0,0,1,18.788,1.448,17.57389,17.57389,0,0,1,36.16,19.212,17.57412,17.57412,0,0,1,18.788,36.977ZM16.059,22.453a1.72446,1.72446,0,0,0-.991-.251,1.73579,1.73579,0,0,0-.993.251,1.60005,1.60005,0,0,0-.55.656,3.05445,3.05445,0,0,0-.237.941,11.32256,11.32256,0,0,0,0,2.209,3.21147,3.21147,0,0,0,.237.95,1.56011,1.56011,0,0,0,.55.666,1.71467,1.71467,0,0,0,.993.253,1.70354,1.70354,0,0,0,.991-.253,1.62341,1.62341,0,0,0,.562-.666,2.90682,2.90682,0,0,0,.248-.95,11.32256,11.32256,0,0,0,0-2.209,2.79,2.79,0,0,0-.248-.941A1.668,1.668,0,0,0,16.059,22.453ZM19.728,2.276V13.275l3.73-4.659h3.387L22.832,13.21l4.315,6.803H23.674l-2.763-4.746-1.185,1.355v3.391h-.001V30.754a5.02,5.02,0,0,1-.346,1.893,4.27488,4.27488,0,0,1-.992,1.498,4.44376,4.44376,0,0,1-1.563.984,5.67431,5.67431,0,0,1-2.038.351q-.44524.00155-.889-.041a16.50575,16.50575,0,0,0,4.89.737A16.84548,16.84548,0,0,0,35.514,19.212,16.86143,16.86143,0,0,0,19.728,2.276ZM21.63,34.894V33.646a15.35542,15.35542,0,0,0,10.21-6.087C29.387,31.703,25.636,33.713,21.63,34.894Zm-5.916-2.029a2.0058,2.0058,0,0,0,.701-.535,2.066,2.066,0,0,0,.39-.755,3.25176,3.25176,0,0,0,.117-.863v-1.16a3.15477,3.15477,0,0,1-1.208.886,4.019,4.019,0,0,1-1.465.252,4.22679,4.22679,0,0,1-1.512-.263,3.247,3.247,0,0,1-1.164-.742,3.421,3.421,0,0,1-.625-.877,4.19389,4.19389,0,0,1-.345-1.038,8.42579,8.42579,0,0,1-.139-1.215c-.023-.437-.033-.904-.033-1.399s.01-.96.033-1.389a8.49567,8.49567,0,0,1,.139-1.203,4.16794,4.16794,0,0,1,.345-1.04,3.453,3.453,0,0,1,.625-.875,3.22206,3.22206,0,0,1,1.175-.743,4.3002,4.3002,0,0,1,1.521-.263,3.82746,3.82746,0,0,1,1.532.273,3.59616,3.59616,0,0,1,1.208.929V2.345a17.02756,17.02756,0,0,0-6.094,31.837q-.10408-.0933-.206-.189L12.457,32.2a3.12326,3.12326,0,0,0,.981.666,3.19139,3.19139,0,0,0,1.218.208A2.4296,2.4296,0,0,0,15.714,32.865ZM5.736,10.894C8.19,6.748,11.94,4.739,15.945,3.559V4.806A15.35414,15.35414,0,0,0,5.736,10.894ZM165.714,4.625a4.27754,4.27754,0,1,0,4.295,4.251A4.26784,4.26784,0,0,0,165.714,4.625Zm.027,7.647a3.27265,3.27265,0,0,1-3.273-3.396,3.23807,3.23807,0,1,1,6.467.027A3.23175,3.23175,0,0,1,165.741,12.272Zm.947-3.265V8.954a1.085,1.085,0,0,0,.866-.985,1.18547,1.18547,0,0,0-.408-.933,2.57526,2.57526,0,0,0-1.457-.312,8.25642,8.25642,0,0,0-1.61.13v4.251h.974V9.395h.46c.536,0,.791.209.866.676a3.71947,3.71947,0,0,0,.333,1.035h1.048a3.39114,3.39114,0,0,1-.307-1.062,1.25476,1.25476,0,0,0-.765-1.037Zm-1.153-.312h-.461V7.477a2.2924,2.2924,0,0,1,.539-.053c.614,0,.895.26.895.649C166.508,8.514,166.073,8.695,165.535,8.695Z"/>
</svg>
