<svg xmlns="http://www.w3.org/2000/svg" width="288" height="67" viewBox="0 0 288 67">
    <g fill="none" fill-rule="nonzero">
        <path fill="#212121" d="M0 3h64v63H0z"/>
        <path fill="#FFF" d="M6 54h24v4H6zM84 3h29.09c8.092 0 14.364 2.25 18.546 6.39 3.546 3.51 5.455 8.46 5.455 14.4v.18c0 10.17-5.546 16.56-13.637 19.53L139 66h-16.364L109 45.84H98V66H84V3zm28.182 30.6c6.818 0 10.727-3.6 10.727-8.91v-.18c0-5.94-4.182-9-11-9H98V33.6h14.182zM139 0h15v12.206h-15V0zm.375 17.54h14.25V66h-14.25V17.54zM156 41.92v-.18c0-16.207 10.598-25.08 22.103-25.08 7.337 0 11.867 3.35 15.128 7.243V0H207v66.095h-13.769v-6.972C189.879 63.65 185.259 67 178.103 67 166.78 67 156 58.127 156 41.92zm37.412 0v-.18c0-8.059-5.345-13.401-11.776-13.401-6.432 0-11.867 5.252-11.867 13.4v.181c0 8.059 5.435 13.4 11.867 13.4 6.431 0 11.776-5.341 11.776-13.4zM209 42.18V42c0-13.71 9.947-25 24.183-25C249.517 17 257 29.455 257 43.075c0 1.075-.091 2.33-.182 3.584h-34.039c1.37 6.183 5.75 9.41 11.955 9.41 4.654 0 8.03-1.435 11.863-4.929l7.94 6.9C249.972 63.594 243.402 67 234.55 67 219.86 67 209 56.875 209 42.18zm34.494-4.033c-.82-6.093-4.471-10.215-10.311-10.215-5.75 0-9.491 4.033-10.586 10.215h20.897zM259 17.918h13.647v9.688c2.783-6.638 7.272-10.944 15.353-10.585v14.263h-.718c-9.068 0-14.635 5.472-14.635 16.954V66H259V17.918zM6 10.013h7.405a6.508 6.508 0 0 1 4.72 1.621 4.981 4.981 0 0 1 1.389 3.654v.046c.107 2.235-1.315 4.265-3.471 4.956L20 26h-4.165l-3.471-5.116h-2.8V26H6V10.013zm7.174 7.765c1.735 0 2.73-.914 2.73-2.261v-.046c0-1.507-1.064-2.284-2.8-2.284h-3.54v4.591h3.61zM21 10h6.349C32.465 10 36 13.451 36 17.954V18c0 4.503-3.535 8-8.651 8H21V10zm3.581 3.177v9.646h2.768a4.684 4.684 0 0 0 3.538-1.312 4.517 4.517 0 0 0 1.369-3.465V18a4.552 4.552 0 0 0-1.364-3.483 4.72 4.72 0 0 0-3.543-1.34H24.58z"/>
    </g>
</svg>
