<svg id="Layer_1" data-name="Layer 1" xmlns="http://www.w3.org/2000/svg" width="389" height="91" viewBox="0 0 389 91">
  <title>rider-white</title>
  <g>
    <g>
      <rect y="3.76583" width="85.03937" height="85.03941"/>
      <g id="_Group_" data-name="&lt;Group&gt;">
        <path id="_Compound_Path_" data-name="&lt;Compound Path&gt;" d="M7.96412,14.39833h9.72805a8.48068,8.48068,0,0,1,6.20193,2.15849,6.682,6.682,0,0,1,1.82432,4.864v.06189a6.61233,6.61233,0,0,1-4.56079,6.59676l5.19942,7.59927h-5.473l-4.55955-6.80964H12.64621v6.80964H7.96412Zm9.42482,10.337c2.27978,0,3.58675-1.21538,3.58675-3.01v-.06188c0-2.005-1.39856-3.03971-3.67834-3.03971H12.64621v6.11159Z" fill="#fff"/>
        <path id="_Compound_Path_2" data-name="&lt;Compound Path&gt;" d="M29.95494,14.39833h8.29978c6.68834,0,11.30854,4.59174,11.30854,10.57957v.06188c0,5.98783-4.6202,10.639-11.30854,10.639H29.95494ZM34.637,18.62372V31.45336h3.61769a6.06323,6.06323,0,0,0,6.41358-6.35417v-.05941a6.11211,6.11211,0,0,0-6.41358-6.41606Z" fill="#fff"/>
      </g>
      <rect x="7.97299" y="72.86178" width="31.88947" height="5.31449" fill="#fff"/>
    </g>
    <g>
      <path d="M106.59485,3.64551h38.88184c10.81445,0,19.19824,3.03711,24.78809,8.627,4.73828,4.73828,7.29,11.4209,7.29,19.44043v.24316c0,13.73047-7.4121,22.35743-18.22558,26.36719l20.77734,30.376H158.23548l-18.22656-27.2168H125.30677v27.2168H106.59485Zm37.667,41.31152c9.11328,0,14.33789-4.86035,14.33789-12.0293v-.24218c0-8.01953-5.58887-12.15137-14.70215-12.15137H125.30677V44.957Z" fill="#fff"/>
      <path d="M183.86731,0h19.44043V16.40332H183.86731Zm.48633,23.57227h18.46875V88.69922H184.35364Z" fill="#fff"/>
      <path d="M208.28724,56.25684v-.24219c0-21.75,14.21582-33.65723,29.64746-33.65723,9.84179,0,15.917,4.49512,20.291,9.71973V0h18.46875V88.69922H258.22571V79.34375c-4.49609,6.0752-10.69238,10.57031-20.291,10.57031C222.74622,89.91406,208.28724,78.00684,208.28724,56.25684Zm50.18164,0v-.24219c0-10.81445-7.169-17.9834-15.7959-17.9834s-15.917,7.04785-15.917,17.9834v.24219c0,10.81445,7.29,17.98339,15.917,17.98339S258.46888,67.07129,258.46888,56.25684Z" fill="#fff"/>
      <path d="M281.0636,56.5v-.24316c0-18.58985,13.24414-33.89942,32.19922-33.89942,21.749,0,31.71289,16.88867,31.71289,35.35742,0,1.458-.12207,3.15918-.24316,4.86036H299.41028c1.82325,8.38378,7.65528,12.75878,15.918,12.75878,6.19629,0,10.69238-1.94433,15.7959-6.68359l10.57031,9.35645c-6.07519,7.5332-14.82324,12.15039-26.60937,12.15039C295.52259,90.15723,281.0636,76.42676,281.0636,56.5Zm45.92871-5.46777c-1.09375-8.26172-5.95312-13.85157-13.72949-13.85157-7.65527,0-12.63672,5.46778-14.09472,13.85157Z" fill="#fff"/>
      <path d="M349.70911,23.57227h18.46875V36.69434c3.7666-8.99122,9.8418-14.82325,20.77735-14.33692V41.67676h-.97168c-12.27247,0-19.80567,7.41113-19.80567,22.96386v24.0586H349.70911Z" fill="#fff"/>
    </g>
  </g>
</svg>
