<svg version="1.1" xmlns="http://www.w3.org/2000/svg" xmlns:xlink="http://www.w3.org/1999/xlink" width="336" height="397"><style xmlns="http://www.w3.org/1999/xhtml"></style><defs/><g transform="translate(0,0)"><g><rect fill="#FFFFFF" stroke="none" x="0" y="0" width="336" height="397"/></g><g transform="translate(0.5,0.5) matrix(1,0,0,1,40,50)"><g><g transform="translate(0,0) scale(2.7,0.5)"><g><path fill="#f9cb9c" stroke="none" d="M 0 0 L 100 0 Q 100 0 100 0 L 100 100 Q 100 100 100 100 L 0 100 Q 0 100 0 100 L 0 0 Q 0 0 0 0 Z"/><g transform="scale(0.37037037037037035,2)"><path fill="none" stroke="none" d="M 0 0 L 270 0 Q 270 0 270 0 L 270 50 Q 270 50 270 50 L 0 50 Q 0 50 0 50 L 0 0 Q 0 0 0 0 Z"/><path fill="none" stroke="#000000" d="M 0 0 M 0 0 L 270 0 Q 270 0 270 0 L 270 50 Q 270 50 270 50 L 0 50 Q 0 50 0 50 L 0 0 Q 0 0 0 0 Z" stroke-miterlimit="10"/></g></g></g></g></g><g transform="matrix(1,0,0,1,50,62)"><g><g><rect fill="rgb(0,0,0)" stroke="none" x="0" y="0" width="251" height="27" fill-opacity="0"/></g></g><g><g><rect fill="rgb(0,0,0)" stroke="none" x="0" y="0" width="251" height="27" fill-opacity="0"/></g></g><g><g><rect fill="rgb(0,0,0)" stroke="none" x="23.4375" y="0" width="205" height="27" fill-opacity="0"/></g></g><g><g><rect fill="rgb(0,0,0)" stroke="none" x="23.4375" y="0" width="205" height="27" fill-opacity="0"/></g><text fill="rgb(0, 0, 0)" stroke="none" font-family="Arial" font-size="24px" font-style="normal" font-weight="normal" text-decoration="" line-height="27px" x="23.4375" y="23">Declaration</text><text fill="rgb(0, 0, 0)" stroke="none" font-family="Arial" font-size="24px" font-style="normal" font-weight="normal" text-decoration="" line-height="27px" x="151.5" y="23">section</text></g></g><g transform="matrix(1,0,0,1,2,120)"><g><g><rect fill="rgb(0,0,0)" stroke="none" x="0" y="0" width="147" height="27" fill-opacity="0"/></g></g><g><g><rect fill="rgb(0,0,0)" stroke="none" x="0" y="0" width="147" height="27" fill-opacity="0"/></g></g><g><g><rect fill="rgb(0,0,0)" stroke="none" x="0" y="0" width="75" height="27" fill-opacity="0"/></g></g><g><g><rect fill="rgb(0,0,0)" stroke="none" x="0" y="0" width="75" height="27" fill-opacity="0"/></g><text fill="rgb(0, 0, 0)" stroke="none" font-family="Arial" font-size="24px" font-style="normal" font-weight="normal" text-decoration="" line-height="27px" x="0" y="23">BEGIN</text></g></g><g transform="translate(0.5,0.5) matrix(1,0,0,1,40,160)"><g><g transform="translate(0,0) scale(2.7,0.5)"><g><path fill="#b6d7a8" stroke="none" d="M 0 0 L 100 0 Q 100 0 100 0 L 100 100 Q 100 100 100 100 L 0 100 Q 0 100 0 100 L 0 0 Q 0 0 0 0 Z"/><g transform="scale(0.37037037037037035,2)"><path fill="none" stroke="none" d="M 0 0 L 270 0 Q 270 0 270 0 L 270 50 Q 270 50 270 50 L 0 50 Q 0 50 0 50 L 0 0 Q 0 0 0 0 Z"/><path fill="none" stroke="#000000" d="M 0 0 M 0 0 L 270 0 Q 270 0 270 0 L 270 50 Q 270 50 270 50 L 0 50 Q 0 50 0 50 L 0 0 Q 0 0 0 0 Z" stroke-miterlimit="10"/></g></g></g></g></g><g transform="matrix(1,0,0,1,50,172)"><g><g><rect fill="rgb(0,0,0)" stroke="none" x="0" y="0" width="251" height="27" fill-opacity="0"/></g></g><g><g><rect fill="rgb(0,0,0)" stroke="none" x="0" y="0" width="251" height="27" fill-opacity="0"/></g></g><g><g><rect fill="rgb(0,0,0)" stroke="none" x="31.4375" y="0" width="189" height="27" fill-opacity="0"/></g></g><g><g><rect fill="rgb(0,0,0)" stroke="none" x="31.4375" y="0" width="189" height="27" fill-opacity="0"/></g><text fill="rgb(0, 0, 0)" stroke="none" font-family="Arial" font-size="24px" font-style="normal" font-weight="normal" text-decoration="" line-height="27px" x="31.4375" y="23">Execution</text><text fill="rgb(0, 0, 0)" stroke="none" font-family="Arial" font-size="24px" font-style="normal" font-weight="normal" text-decoration="" line-height="27px" x="143.5" y="23">section</text></g></g><g transform="matrix(1,0,0,1,2,350)"><g><g><rect fill="rgb(0,0,0)" stroke="none" x="0" y="0" width="147" height="27" fill-opacity="0"/></g></g><g><g><rect fill="rgb(0,0,0)" stroke="none" x="0" y="0" width="147" height="27" fill-opacity="0"/></g></g><g><g><rect fill="rgb(0,0,0)" stroke="none" x="0" y="0" width="57" height="27" fill-opacity="0"/></g></g><g><g><rect fill="rgb(0,0,0)" stroke="none" x="0" y="0" width="57" height="27" fill-opacity="0"/></g><text fill="rgb(0, 0, 0)" stroke="none" font-family="Arial" font-size="24px" font-style="normal" font-weight="normal" text-decoration="" line-height="27px" x="0" y="23">END</text><text fill="rgb(0, 0, 0)" stroke="none" font-family="Arial" font-size="24px" font-style="normal" font-weight="normal" text-decoration="" line-height="27px" x="50.671875" y="23">;</text></g></g><g transform="translate(0.5,0.5) matrix(1,0,0,1,40,280)"><g><g transform="translate(0,0) scale(2.7,0.5)"><g><path fill="#ea9999" stroke="none" d="M 0 0 L 100 0 Q 100 0 100 0 L 100 100 Q 100 100 100 100 L 0 100 Q 0 100 0 100 L 0 0 Q 0 0 0 0 Z"/><g transform="scale(0.37037037037037035,2)"><path fill="none" stroke="none" d="M 0 0 L 270 0 Q 270 0 270 0 L 270 50 Q 270 50 270 50 L 0 50 Q 0 50 0 50 L 0 0 Q 0 0 0 0 Z"/><path fill="none" stroke="#000000" d="M 0 0 M 0 0 L 270 0 Q 270 0 270 0 L 270 50 Q 270 50 270 50 L 0 50 Q 0 50 0 50 L 0 0 Q 0 0 0 0 Z" stroke-miterlimit="10"/></g></g></g></g></g><g transform="matrix(1,0,0,1,50,292)"><g><g><rect fill="rgb(0,0,0)" stroke="none" x="0" y="0" width="251" height="27" fill-opacity="0"/></g></g><g><g><rect fill="rgb(0,0,0)" stroke="none" x="0" y="0" width="251" height="27" fill-opacity="0"/></g></g><g><g><rect fill="rgb(0,0,0)" stroke="none" x="31.4375" y="0" width="189" height="27" fill-opacity="0"/></g></g><g><g><rect fill="rgb(0,0,0)" stroke="none" x="31.4375" y="0" width="189" height="27" fill-opacity="0"/></g><text fill="rgb(0, 0, 0)" stroke="none" font-family="Arial" font-size="24px" font-style="normal" font-weight="normal" text-decoration="" line-height="27px" x="31.4375" y="23">Exception</text><text fill="rgb(0, 0, 0)" stroke="none" font-family="Arial" font-size="24px" font-style="normal" font-weight="normal" text-decoration="" line-height="27px" x="143.5" y="23">section</text></g></g><g transform="matrix(1,0,0,1,21,234)"><g><g><rect fill="rgb(0,0,0)" stroke="none" x="0" y="0" width="147" height="27" fill-opacity="0"/></g></g><g><g><rect fill="rgb(0,0,0)" stroke="none" x="0" y="0" width="147" height="27" fill-opacity="0"/></g></g><g><g><rect fill="rgb(0,0,0)" stroke="none" x="0" y="0" width="139" height="27" fill-opacity="0"/></g></g><g><g><rect fill="rgb(0,0,0)" stroke="none" x="0" y="0" width="139" height="27" fill-opacity="0"/></g><text fill="rgb(0, 0, 0)" stroke="none" font-family="Arial" font-size="24px" font-style="normal" font-weight="normal" text-decoration="" line-height="27px" x="0" y="23">EXCEPTION</text></g></g><g transform="matrix(1,0,0,1,2,10)"><g><g><rect fill="rgb(0,0,0)" stroke="none" x="0" y="0" width="147" height="27" fill-opacity="0"/></g></g><g><g><rect fill="rgb(0,0,0)" stroke="none" x="0" y="0" width="147" height="27" fill-opacity="0"/></g></g><g><g><rect fill="rgb(0,0,0)" stroke="none" x="0" y="0" width="113" height="27" fill-opacity="0"/></g></g><g><g><rect fill="rgb(0,0,0)" stroke="none" x="0" y="0" width="113" height="27" fill-opacity="0"/></g><text fill="rgb(0, 0, 0)" stroke="none" font-family="Arial" font-size="24px" font-style="normal" font-weight="normal" text-decoration="" line-height="27px" x="0" y="23">DECLARE</text></g></g></g></svg>