<svg xmlns="http://www.w3.org/2000/svg" width="318" height="368" viewBox="0 0 318 368">
    <defs>
        <linearGradient id="a" x1="102.514%" x2="-25.728%" y1="-15.43%" y2="143.479%">
            <stop offset="0%" stop-color="#15DD69"/>
            <stop offset="7.55%" stop-color="#1FD178"/>
            <stop offset="21.973%" stop-color="#3AB29E"/>
            <stop offset="41.62%" stop-color="#6480DB"/>
            <stop offset="48.375%" stop-color="#746DF2"/>
            <stop offset="100%" stop-color="#B81DF5"/>
        </linearGradient>
        <linearGradient id="b" x1="18.94%" x2="109.619%" y1="41.732%" y2="72.707%">
            <stop offset="0%" stop-color="#15DD69"/>
            <stop offset="7.55%" stop-color="#1FD178"/>
            <stop offset="21.973%" stop-color="#3AB29E"/>
            <stop offset="41.62%" stop-color="#6480DB"/>
            <stop offset="48.375%" stop-color="#746DF2"/>
            <stop offset="100%" stop-color="#B81DF5"/>
        </linearGradient>
        <linearGradient id="c" x1="34.868%" x2="106.262%" y1="35.194%" y2="105.052%">
            <stop offset="0%" stop-color="#15DD69"/>
            <stop offset="7.55%" stop-color="#1FD178"/>
            <stop offset="21.973%" stop-color="#3AB29E"/>
            <stop offset="41.62%" stop-color="#6480DB"/>
            <stop offset="48.375%" stop-color="#746DF2"/>
            <stop offset="100%" stop-color="#B81DF5"/>
        </linearGradient>
        <linearGradient id="d" x1="100.204%" x2="-9.44%" y1="48.912%" y2="51.288%">
            <stop offset="0%" stop-color="#15DD69"/>
            <stop offset="7.55%" stop-color="#1FD178"/>
            <stop offset="21.973%" stop-color="#3AB29E"/>
            <stop offset="41.62%" stop-color="#6480DB"/>
            <stop offset="48.375%" stop-color="#746DF2"/>
            <stop offset="100%" stop-color="#B81DF5"/>
        </linearGradient>
        <linearGradient id="e" x1="29.37%" x2="93.455%" y1="1.198%" y2="92.74%">
            <stop offset="0%" stop-color="#15DD69"/>
            <stop offset="7.55%" stop-color="#1FD178"/>
            <stop offset="21.973%" stop-color="#3AB29E"/>
            <stop offset="41.62%" stop-color="#6480DB"/>
            <stop offset="48.375%" stop-color="#746DF2"/>
            <stop offset="100%" stop-color="#B81DF5"/>
        </linearGradient>
        <linearGradient id="f" x1="-15.987%" x2="138.572%" y1="49.044%" y2="51.283%">
            <stop offset="0%" stop-color="#15DD69"/>
            <stop offset="7.55%" stop-color="#1FD178"/>
            <stop offset="21.973%" stop-color="#3AB29E"/>
            <stop offset="41.62%" stop-color="#6480DB"/>
            <stop offset="48.375%" stop-color="#746DF2"/>
            <stop offset="100%" stop-color="#B81DF5"/>
        </linearGradient>
        <linearGradient id="g" x1="5.002%" x2="112.603%" y1="94.998%" y2="-12.603%">
            <stop offset="0%" stop-color="#15DD69"/>
            <stop offset="7.55%" stop-color="#1FD178"/>
            <stop offset="21.973%" stop-color="#3AB29E"/>
            <stop offset="41.62%" stop-color="#6480DB"/>
            <stop offset="48.375%" stop-color="#746DF2"/>
            <stop offset="100%" stop-color="#B81DF5"/>
        </linearGradient>
        <linearGradient id="h" x1="73.684%" x2="19.242%" y1="96.588%" y2="-7.175%">
            <stop offset="0%" stop-color="#15DD69"/>
            <stop offset="7.55%" stop-color="#1FD178"/>
            <stop offset="21.973%" stop-color="#3AB29E"/>
            <stop offset="41.62%" stop-color="#6480DB"/>
            <stop offset="48.375%" stop-color="#746DF2"/>
            <stop offset="100%" stop-color="#B81DF5"/>
        </linearGradient>
        <linearGradient id="i" x1="108.526%" x2="10.916%" y1="43.771%" y2="54.16%">
            <stop offset="0%" stop-color="#15DD69"/>
            <stop offset="7.55%" stop-color="#1FD178"/>
            <stop offset="21.973%" stop-color="#3AB29E"/>
            <stop offset="41.62%" stop-color="#6480DB"/>
            <stop offset="48.375%" stop-color="#746DF2"/>
            <stop offset="100%" stop-color="#B81DF5"/>
        </linearGradient>
        <linearGradient id="j" x1="107.982%" x2="-20.072%" y1="38.709%" y2="64.778%">
            <stop offset="0%" stop-color="#15DD69"/>
            <stop offset="7.55%" stop-color="#1FD178"/>
            <stop offset="21.973%" stop-color="#3AB29E"/>
            <stop offset="41.62%" stop-color="#6480DB"/>
            <stop offset="48.375%" stop-color="#746DF2"/>
            <stop offset="100%" stop-color="#B81DF5"/>
        </linearGradient>
        <linearGradient id="k" x1="114.596%" x2="-101.684%" y1="47.711%" y2="57.177%">
            <stop offset="0%" stop-color="#15DD69"/>
            <stop offset="7.55%" stop-color="#1FD178"/>
            <stop offset="21.973%" stop-color="#3AB29E"/>
            <stop offset="41.62%" stop-color="#6480DB"/>
            <stop offset="48.375%" stop-color="#746DF2"/>
            <stop offset="100%" stop-color="#B81DF5"/>
        </linearGradient>
        <linearGradient id="l" x1="100.372%" x2="-88.634%" y1="42.658%" y2="83.233%">
            <stop offset="0%" stop-color="#15DD69"/>
            <stop offset="7.55%" stop-color="#1FD178"/>
            <stop offset="21.973%" stop-color="#3AB29E"/>
            <stop offset="41.62%" stop-color="#6480DB"/>
            <stop offset="48.375%" stop-color="#746DF2"/>
            <stop offset="100%" stop-color="#B81DF5"/>
        </linearGradient>
    </defs>
    <g fill="none" fill-rule="evenodd">
        <path fill="url(#a)" fill-rule="nonzero" d="M165.265 215.368c5.927 5.928 5.927 15.538 0 21.465L62.16 339.938l-21.466-21.465L143.8 215.368c5.927-5.927 15.537-5.927 21.465 0z"/>
        <path stroke="#15DD69" stroke-linecap="round" stroke-width="1.265" d="M147.881 33.763c0-8.156-6.611-14.767-14.767-14.767H36.568c-8.155 0-14.767 6.611-14.767 14.767v75.838c0 17.896 12.965 32.612 30.088 35.355v-25.789h80.232"/>
        <path fill="url(#b)" fill-rule="nonzero" d="M149.346 104.224H96.302c-10.544 0-19.092 8.548-19.092 19.092v20.728h91.229v-20.728c0-10.544-8.548-19.092-19.093-19.092z"/>
        <path fill="url(#c)" fill-rule="nonzero" d="M250.044 108.136l2.564 2.563c5.22 5.22 5.22 13.682 0 18.902l-87.837 87.837c-5.22 5.22-13.682 5.22-18.902 0l-2.563-2.564c-5.22-5.22-5.22-13.682 0-18.901l87.837-87.837c5.22-5.22 13.682-5.22 18.901 0z"/>
        <path fill="url(#d)" fill-rule="nonzero" d="M314.363 197.19c0 8.382-6.796 15.178-15.178 15.178h-173.03c-8.382 0-15.177-6.796-15.177-15.178 0-8.383 6.795-15.178 15.178-15.178h173.029c8.382 0 15.178 6.795 15.178 15.178z"/>
        <path fill="url(#e)" fill-rule="nonzero" d="M242.921 104.224h55.426c10.544 0 19.092 8.548 19.092 19.092v100.316c0 10.544-8.548 19.092-19.092 19.092-6.95 0-13.35-3.776-16.712-9.86L226.21 132.55c-7.03-12.725 2.173-28.325 16.711-28.325z"/>
        <g fill="#000" fill-rule="nonzero">
            <path d="M276.72 63.826c5.927 0 11.282 3.287 13.974 8.578l.476.936 1.007-.296a3.86 3.86 0 0 1 1.087-.158 3.86 3.86 0 0 1 3.856 3.856 3.844 3.844 0 0 1-3.684 3.846l-1.052.046-.145 1.043c-1.07 7.694-7.741 13.496-15.52 13.496-7.776 0-14.447-5.8-15.518-13.493l-.157-1.128-1.139.038-.124.008a3.86 3.86 0 0 1-3.856-3.856 3.86 3.86 0 0 1 3.856-3.856c.45 0 .901.082 1.339.245l1.064.395.507-1.016c2.675-5.357 8.05-8.684 14.029-8.684zm0-1.265c-6.64 0-12.383 3.822-15.16 9.384a5.097 5.097 0 0 0-1.779-.324 5.12 5.12 0 1 0 0 10.242c.057 0 .111-.007.167-.009 1.147 8.24 8.217 14.584 16.772 14.584 8.556 0 15.626-6.346 16.772-14.587a5.117 5.117 0 1 0-1.67-10.02c-2.8-5.5-8.509-9.27-15.102-9.27z"/>
            <path d="M235.068.665c4.784 3.874 2.238 8.83 7.616 14.695 6.125 6.679 8.835 4.193 14.96 10.872 6.123 6.678 3.413 9.163 9.536 15.841 6.124 6.678 10.63 5.034 16.752 11.711 5.468 5.963 7.82 10.308 7.588 17.394-.041-.043-.086-.082-.128-.124-2.926-5.073-8.395-8.493-14.672-8.493a16.93 16.93 0 0 0-4.354.575c-2.073.64-4.188 1.345-6.57 3.423a17.016 17.016 0 0 0-4.236 5.386 5.097 5.097 0 0 0-1.779-.324 5.118 5.118 0 0 0-4.665 3.017c-5.05-4.686-7.797-3.19-13.361-9.258-6.124-6.678-3.413-9.164-9.537-15.842-6.123-6.677-8.834-4.192-14.957-10.87-5.741-6.26-5.848-6.809-8.596-13.791L235.068.665zM280.473 77.908l.002 2.529a1.16 1.16 0 1 0 2.32-.002l-.002-2.529a1.16 1.16 0 1 0-2.32.002zM270.25 77.908l.002 2.529a1.16 1.16 0 1 0 2.32-.002l-.002-2.529a1.16 1.16 0 1 0-2.32.002z"/>
        </g>
        <g fill="#000" fill-rule="nonzero">
            <path d="M125.566 65.246c8.204 0 14.877 6.667 14.877 14.862 0 8.196-6.673 14.863-14.877 14.863-7.381 0-13.714-5.5-14.73-12.795l-.157-1.125-1.136.036-.119.007a3.617 3.617 0 0 1-3.615-3.611 3.617 3.617 0 0 1 3.615-3.61c.422 0 .845.076 1.255.229l1.064.394.507-1.015c2.539-5.08 7.641-8.235 13.316-8.235zm0-1.265c-6.327 0-11.8 3.639-14.447 8.935a4.862 4.862 0 0 0-1.695-.309 4.878 4.878 0 0 0-4.88 4.876 4.878 4.878 0 0 0 4.88 4.876c.054 0 .106-.007.159-.008 1.093 7.845 7.83 13.885 15.983 13.885 8.915 0 16.142-7.22 16.142-16.128 0-8.906-7.227-16.127-16.142-16.127z"/>
            <path d="M125.566 63.98c-6.327 0-11.8 3.64-14.447 8.936a4.86 4.86 0 0 0-1.695-.309 4.878 4.878 0 0 0-4.88 4.876 4.878 4.878 0 0 0 4.88 4.876c.054 0 .106-.007.159-.008 1.093 7.845 7.83 13.885 15.983 13.885H92.773c-8.25 0-14.936-6.687-14.936-14.936V63.98h47.73z"/>
            <path d="M127.805 78l-.002 2.53a1.16 1.16 0 1 1-2.32-.002l.002-2.529a1.16 1.16 0 1 1 2.32.002zM138.028 78l-.002 2.53a1.16 1.16 0 1 1-2.32-.002l.002-2.529a1.16 1.16 0 1 1 2.32.002zM137.033 68.76a16.098 16.098 0 0 0-11.467-4.779 16.098 16.098 0 0 0-11.466 4.778h22.933z"/>
        </g>
        <path fill="url(#f)" fill-rule="nonzero" d="M313.73 226.958v1.176c0 8.058-6.532 14.59-14.59 14.59H150.296c-8.058 0-14.59-6.532-14.59-14.59v-1.176c0-8.058 6.532-14.59 14.59-14.59H299.14c8.058 0 14.59 6.532 14.59 14.59z"/>
        <path fill="url(#g)" fill-rule="nonzero" d="M312.993 112.707c5.928 5.927 5.928 15.537 0 21.465L182.064 265.1c-5.927 5.927-15.538 5.927-21.465 0s-5.927-15.538 0-21.465l130.93-130.93c5.927-5.927 15.537-5.927 21.464 0z"/>
        <path fill="url(#h)" fill-rule="nonzero" d="M118.57 184.048c7.259-4.192 16.542-1.704 20.733 5.555l81.415 141.015-26.29 15.178-81.414-141.015c-4.192-7.26-1.704-16.542 5.555-20.733z"/>
        <path fill="url(#i)" fill-rule="nonzero" d="M.561 355.116h61.946v12.219H.561z"/>
        <path fill="url(#j)" fill-rule="nonzero" d="M231.093 348.454l-6.11-10.582-29.867 17.244h-33.144v12.219h36.499v-.047z"/>
        <path fill="url(#k)" fill-rule="nonzero" d="M5.842 355.116h56.665v-15.178H21.02c-8.382 0-15.178 6.795-15.178 15.178z"/>
        <path fill="url(#l)" fill-rule="nonzero" d="M224.97 337.896l-7.589-13.144-28.928 16.701h-7.48c-8.383 0-15.179 6.796-15.179 15.178H192.5v-.035l.02.035 32.45-18.735z"/>
        <path fill="#000" fill-rule="nonzero" d="M169.548 66.925h6.683v24.562h-6.683zM182.913 54.864h6.683v36.623h-6.683zM196.279 41.253h6.683v50.234h-6.683z"/>
        <path stroke="#000" stroke-linecap="round" stroke-width="1.265" d="M162.751 98.04h45.914"/>
    </g>
</svg>
