<svg xmlns="http://www.w3.org/2000/svg" width="72" height="72" viewBox="0 0 72 72">
    <defs>
        <linearGradient id="a" x1="9.483%" x2="103.797%" y1="68.45%" y2="33.22%">
            <stop offset="0%" stop-color="#63C2FF"/>
            <stop offset="18.89%" stop-color="#6CB3FE"/>
            <stop offset="54.97%" stop-color="#838DFA"/>
            <stop offset="99.46%" stop-color="#A456F4"/>
        </linearGradient>
        <linearGradient id="b" x1="-21.117%" x2="50.816%" y1="-15.366%" y2="41.727%">
            <stop offset="0%" stop-color="#63C2FF"/>
            <stop offset="18.89%" stop-color="#6CB3FE"/>
            <stop offset="54.97%" stop-color="#838DFA"/>
            <stop offset="99.46%" stop-color="#A456F4"/>
        </linearGradient>
        <linearGradient id="c" x1="-30.788%" x2="53.481%" y1="27.133%" y2="50.993%">
            <stop offset="0%" stop-color="#63C2FF"/>
            <stop offset="18.89%" stop-color="#6CB3FE"/>
            <stop offset="54.97%" stop-color="#838DFA"/>
            <stop offset="99.46%" stop-color="#A456F4"/>
        </linearGradient>
    </defs>
    <g fill="none" fill-rule="nonzero">
        <path fill="url(#a)" d="M24 0C10.875 0 .3 10.65.3 23.7a23.58 23.58 0 0 0 10.8 19.875v6.75h10.05V27.6c-.15-.15-.375-.3-.525-.45-1.875-1.875-1.875-4.95 0-6.825s4.95-1.875 6.825 0 1.875 4.95 0 6.825c-.15.15-.375.3-.525.45v22.725h10.8v-7.2c6.075-4.275 10.05-11.4 10.05-19.35C47.7 10.65 37.125 0 24 0z" transform="translate(12 1.5)"/>
        <path fill="url(#b)" d="M24 69c-3 0-5.4-2.4-5.4-5.4v-3.075c0-.9.675-1.575 1.575-1.575h7.65c.9 0 1.575.675 1.575 1.575V63.6c0 3-2.4 5.4-5.4 5.4z" transform="translate(12 1.5)"/>
        <path fill="url(#c)" d="M11.1 48.9h26.625v12.225H11.1z" transform="translate(12 1.5)"/>
    </g>
</svg>
