<svg xmlns="http://www.w3.org/2000/svg" width="72" height="72" viewBox="0 0 72 72">
    <defs>
        <linearGradient id="a" x1="57.651%" x2="36.407%" y1="26.513%" y2="102.129%">
            <stop offset="0%" stop-color="#63C2FF"/>
            <stop offset="18.89%" stop-color="#6CB3FE"/>
            <stop offset="54.97%" stop-color="#838DFA"/>
            <stop offset="99.46%" stop-color="#A456F4"/>
        </linearGradient>
        <linearGradient id="b" x1="-2.287%" x2="62.346%" y1="23.049%" y2="56.364%">
            <stop offset="0%" stop-color="#63C2FF"/>
            <stop offset="18.89%" stop-color="#6CB3FE"/>
            <stop offset="54.97%" stop-color="#838DFA"/>
            <stop offset="99.46%" stop-color="#A456F4"/>
        </linearGradient>
        <linearGradient id="c" x1="26.314%" x2="55.536%" y1="40.331%" y2="95.175%">
            <stop offset="0%" stop-color="#63C2FF"/>
            <stop offset="18.89%" stop-color="#6CB3FE"/>
            <stop offset="54.97%" stop-color="#838DFA"/>
            <stop offset="99.46%" stop-color="#A456F4"/>
        </linearGradient>
    </defs>
    <g fill="none" fill-rule="nonzero">
        <path fill="url(#a)" d="M25.125 64.5H35.1L15.15 44.475a9.37 9.37 0 0 0-13.275 0L.6 45.75 19.2 64.5h5.925z" transform="translate(4.5 3.75)"/>
        <path fill="url(#b)" d="M47.625 30.75h-31.5C7.65 30.75.75 23.85.75 15.375S7.65 0 16.125 0h31.5C56.1 0 63 6.9 63 15.375S56.1 30.75 47.625 30.75z" transform="translate(4.5 3.75)"/>
        <path fill="url(#c)" d="M60.6 64.5V49.35a5.185 5.185 0 0 0-5.175-5.175c-1.575 0-3 .675-3.9 1.8v-1.95a5.185 5.185 0 0 0-5.175-5.175c-2.025 0-3.75 1.2-4.65 2.925V40.05a5.185 5.185 0 0 0-5.175-5.175c-2.025 0-3.75 1.2-4.65 2.925V13.95A5.185 5.185 0 0 0 26.7 8.775a5.185 5.185 0 0 0-5.175 5.175V64.5H60.6z" transform="translate(4.5 3.75)"/>
    </g>
</svg>
