<svg version="1.1" style="font-family:&quot;Gotham SSm A&quot;, &quot;Gotham SSm B&quot;, Helvetica, Arial, sans-serif;font-size:12px;" xmlns="http://www.w3.org/2000/svg" width="499" height="300"><desc stroke="none" fill="#000000" stroke-width="1px">Created with Highcharts 4.2.3</desc><defs><clipPath id="highcharts-15"><rect x="0" y="0" width="424" height="220"></rect></clipPath></defs><rect x="0" y="0" width="499" height="300" fill="rgba(0, 0, 0, 0)" class=" highcharts-background" stroke="none" stroke-width="1px"></rect><g class="highcharts-grid" zIndex="1" stroke="none" fill="#000000" stroke-width="1px"></g><g class="highcharts-grid" zIndex="1" stroke="none" fill="#000000" stroke-width="1px"><path fill="none" d="M 55 260.5 L 479 260.5" stroke="#d8d8d8" stroke-width="1px" zIndex="1" opacity="1"></path><path fill="none" d="M 55 216.5 L 479 216.5" stroke="#d8d8d8" stroke-width="1px" zIndex="1" opacity="1"></path><path fill="none" d="M 55 172.5 L 479 172.5" stroke="#d8d8d8" stroke-width="1px" zIndex="1" opacity="1"></path><path fill="none" d="M 55 128.5 L 479 128.5" stroke="#d8d8d8" stroke-width="1px" zIndex="1" opacity="1"></path><path fill="none" d="M 55 84.5 L 479 84.5" stroke="#d8d8d8" stroke-width="1px" zIndex="1" opacity="1"></path><path fill="none" d="M 55 40.5 L 479 40.5" stroke="#d8d8d8" stroke-width="1px" zIndex="1" opacity="1"></path></g><g class="highcharts-axis" zIndex="2" stroke="none" fill="#000000" stroke-width="1px"><path fill="none" d="M 185.5 260 L 185.5 270" stroke="#dfdfdf" stroke-width="1px" opacity="1"></path><path fill="none" d="M 462.5 260 L 462.5 270" stroke="#dfdfdf" stroke-width="1px" opacity="1"></path><path fill="none" d="M 55 260.5 L 479 260.5" stroke="#c0d0e0" stroke-width="1px" zIndex="7"></path></g><g class="highcharts-axis" zIndex="2" stroke="none" fill="#000000" stroke-width="1px"></g><g class="highcharts-series-group" zIndex="3" stroke="none" fill="#000000" stroke-width="1px"><g class="highcharts-series highcharts-series-0" zIndex="0.1" transform="translate(55,40) scale(1 1)" clip-path="url(#highcharts-15)" stroke="none" fill="#000000" stroke-width="1px"><path fill="none" d="M 4.1568627450980395 50.599999999999994 C 4.1568627450980395 50.599999999999994 419.843137254902 109.99999999999999 419.843137254902 109.99999999999999" stroke="#00cfe4" stroke-width="2px" zIndex="1" stroke-linejoin="round" stroke-linecap="round"></path><path fill="none" d="M -5.8431372549019605 50.599999999999994 L 4.1568627450980395 50.599999999999994 C 4.1568627450980395 50.599999999999994 419.843137254902 109.99999999999999 419.843137254902 109.99999999999999 L 429.843137254902 109.99999999999999" stroke-linejoin="round" visibility="visible" stroke="rgba(192, 192, 192, 0)" stroke-width="22px" zIndex="2" class=" highcharts-tracker" style=""></path></g><g class="highcharts-markers highcharts-series-0 highcharts-tracker" zIndex="0.1" transform="translate(55,40) scale(1 1)" clip-path="url(#highcharts-16)" style="" stroke="none" fill="#000000" stroke-width="1px"><path fill="#00cfe4" d="M 419 105.99999999999999 C 424.328 105.99999999999999 424.328 113.99999999999999 419 113.99999999999999 C 413.672 113.99999999999999 413.672 105.99999999999999 419 105.99999999999999 Z" stroke="none" stroke-width="1px"></path><path fill="#00cfe4" d="M 4 46.599999999999994 C 9.328 46.599999999999994 9.328 54.599999999999994 4 54.599999999999994 C -1.328 54.599999999999994 -1.328 46.599999999999994 4 46.599999999999994 Z" stroke="none" stroke-width="1px"></path></g><g class="highcharts-series highcharts-series-1" zIndex="0.1" transform="translate(55,40) scale(1 1)" clip-path="url(#highcharts-15)" stroke="none" fill="#000000" stroke-width="1px"><path fill="none" d="M 4.1568627450980395 169.4 C 4.1568627450980395 169.4 419.843137254902 109.99999999999999 419.843137254902 109.99999999999999" stroke="#60e193" stroke-width="2px" zIndex="1" stroke-linejoin="round" stroke-linecap="round"></path><path fill="none" d="M -5.8431372549019605 169.4 L 4.1568627450980395 169.4 C 4.1568627450980395 169.4 419.843137254902 109.99999999999999 419.843137254902 109.99999999999999 L 429.843137254902 109.99999999999999" stroke-linejoin="round" visibility="visible" stroke="rgba(192, 192, 192, 0)" stroke-width="22px" zIndex="2" class=" highcharts-tracker" style=""></path></g><g class="highcharts-markers highcharts-series-1 highcharts-tracker" zIndex="0.1" transform="translate(55,40) scale(1 1)" clip-path="url(#highcharts-16)" style="" stroke="none" fill="#000000" stroke-width="1px"><path fill="#60e193" d="M 419 105.99999999999999 L 423 109.99999999999999 419 113.99999999999999 415 109.99999999999999 Z" stroke="none" stroke-width="1px"></path><path fill="#60e193" d="M 4 165.4 L 8 169.4 4 173.4 0 169.4 Z" stroke="none" stroke-width="1px"></path></g></g><g class="highcharts-data-labels highcharts-series-0" zIndex="6" visibility="visible" transform="translate(55,40) scale(1 1)" opacity="1" stroke="none" fill="#000000" stroke-width="1px"><g zIndex="1" style="" transform="translate(-5,21)" stroke="none" fill="#000000" stroke-width="1px"><text x="5" zIndex="1" style="font-size: 16px; font-weight: 700; color: rgb(0, 0, 0); text-shadow: rgb(255, 255, 255) 0px 0px 6px, rgb(255, 255, 255) 0px 0px 3px; text-rendering: geometricprecision;" y="20" stroke="none" fill="#000000" stroke-width="1px"><tspan stroke="none" fill="#000000" stroke-width="1px">77%</tspan></text></g><g zIndex="1" style="" transform="translate(382,80)" stroke="none" fill="#000000" stroke-width="1px"><text x="5" zIndex="1" style="font-size: 16px; font-weight: 700; color: rgb(0, 0, 0); text-shadow: rgb(255, 255, 255) 0px 0px 6px, rgb(255, 255, 255) 0px 0px 3px; text-rendering: geometricprecision;" y="20" stroke="none" fill="#000000" stroke-width="1px"><tspan stroke="none" fill="#000000" stroke-width="1px">50%</tspan></text></g></g><g class="highcharts-data-labels highcharts-series-1" zIndex="6" visibility="visible" transform="translate(55,40) scale(1 1)" opacity="1" stroke="none" fill="#000000" stroke-width="1px"><g zIndex="1" style="" transform="translate(-5,139)" stroke="none" fill="#000000" stroke-width="1px"><text x="5" zIndex="1" style="font-size: 16px; font-weight: 700; color: rgb(0, 0, 0); text-shadow: rgb(255, 255, 255) 0px 0px 6px, rgb(255, 255, 255) 0px 0px 3px; text-rendering: geometricprecision;" y="20" stroke="none" fill="#000000" stroke-width="1px"><tspan stroke="none" fill="#000000" stroke-width="1px">23%</tspan></text></g><g zIndex="1" style="" transform="translate(382,80)" opacity="0" visibility="hidden" stroke="none" fill="#000000" stroke-width="1px"><text x="5" zIndex="1" style="font-size: 16px; font-weight: 700; color: rgb(0, 0, 0); text-shadow: rgb(255, 255, 255) 0px 0px 6px, rgb(255, 255, 255) 0px 0px 3px; text-rendering: geometricprecision;" y="20" stroke="none" fill="#000000" stroke-width="1px"><tspan stroke="none" fill="#000000" stroke-width="1px">50%</tspan></text></g></g><g class="highcharts-legend" zIndex="7" transform="translate(361,-10)" stroke="none" fill="#000000" stroke-width="1px"><g zIndex="1" stroke="none" fill="#000000" stroke-width="1px"><g stroke="none" fill="#000000" stroke-width="1px"><g class="highcharts-legend-item" zIndex="1" transform="translate(99.0625,25)" stroke="none" fill="#000000" stroke-width="1px"><path fill="none" d="M 0 17 L 12 17" stroke="#00cfe4" stroke-width="2px"></path><path fill="#00cfe4" d="M 6 13 C 11.328 13 11.328 21 6 21 C 0.6719999999999999 21 0.6719999999999999 13 6 13 Z" stroke="none" stroke-width="1px"></path><text x="-5" style="color: rgb(51, 51, 51); font-size: 14px; font-weight: 500; cursor: pointer;" text-anchor="end" zIndex="2" y="21" stroke="none" fill="#333333" stroke-width="1px"><tspan stroke="none" fill="#333333" stroke-width="1px">Python 2</tspan></text></g><g class="highcharts-legend-item" zIndex="1" transform="translate(99.0625,48)" stroke="none" fill="#000000" stroke-width="1px"><path fill="none" d="M 0 17 L 12 17" stroke="#60e193" stroke-width="2px"></path><path fill="#60e193" d="M 6 13 L 10 17 6 21 2 17 Z" stroke="none" stroke-width="1px"></path><text x="-5" y="21" style="color: rgb(51, 51, 51); font-size: 14px; font-weight: 500; cursor: pointer;" text-anchor="end" zIndex="2" stroke="none" fill="#333333" stroke-width="1px"><tspan stroke="none" fill="#333333" stroke-width="1px">Python 3</tspan></text></g></g></g></g><g class="highcharts-axis-labels highcharts-xaxis-labels" zIndex="7" stroke="none" fill="#000000" stroke-width="1px"><text x="185.9506670248008" style="color: rgb(52, 52, 52); cursor: default; font-size: 14px; width: 414px; text-overflow: clip;" text-anchor="middle" transform="translate(0,0)" y="282" opacity="1" stroke="none" fill="#343434" stroke-width="1px">2014</text><text x="463.0748500313367" style="color: rgb(52, 52, 52); cursor: default; font-size: 14px; width: 414px; text-overflow: clip;" text-anchor="middle" transform="translate(0,0)" y="282" opacity="1" stroke="none" fill="#343434" stroke-width="1px">2016</text></g><g class="highcharts-axis-labels highcharts-yaxis-labels" zIndex="7" stroke="none" fill="#000000" stroke-width="1px"><text x="40" style="color: rgb(52, 52, 52); cursor: default; font-size: 14px; width: 35px; text-overflow: clip;" text-anchor="end" transform="translate(0,0)" y="266" opacity="1" stroke="none" fill="#343434" stroke-width="1px">0%</text><text x="40" style="color: rgb(52, 52, 52); cursor: default; font-size: 14px; width: 35px; text-overflow: clip;" text-anchor="end" transform="translate(0,0)" y="222" opacity="1" stroke="none" fill="#343434" stroke-width="1px">20%</text><text x="40" style="color: rgb(52, 52, 52); cursor: default; font-size: 14px; width: 35px; text-overflow: clip;" text-anchor="end" transform="translate(0,0)" y="178" opacity="1" stroke="none" fill="#343434" stroke-width="1px">40%</text><text x="40" style="color: rgb(52, 52, 52); cursor: default; font-size: 14px; width: 35px; text-overflow: clip;" text-anchor="end" transform="translate(0,0)" y="134" opacity="1" stroke="none" fill="#343434" stroke-width="1px">60%</text><text x="40" style="color: rgb(52, 52, 52); cursor: default; font-size: 14px; width: 35px; text-overflow: clip;" text-anchor="end" transform="translate(0,0)" y="90" opacity="1" stroke="none" fill="#343434" stroke-width="1px">80%</text><text x="40" style="color: rgb(52, 52, 52); cursor: default; font-size: 14px; width: 35px; text-overflow: clip;" text-anchor="end" transform="translate(0,0)" y="45" opacity="1" stroke="none" fill="#343434" stroke-width="1px">100%</text></g><g class="highcharts-tooltip" zIndex="8" style="cursor:default;padding:0;pointer-events:none;white-space:nowrap;" transform="translate(0,-9999)" stroke="none" fill="#000000" stroke-width="1px"><path fill="none" d="M 0 0 L 16 0 C 16 0 16 0 16 0 L 16 16 C 16 16 16 16 16 16 L 0 16 C 0 16 0 16 0 16 L 0 0 C 0 0 0 0 0 0" isShadow="true" stroke="#000000" stroke-opacity="0.049999999999999996" stroke-width="5px" transform="translate(1, 1)"></path><path fill="none" d="M 0 0 L 16 0 C 16 0 16 0 16 0 L 16 16 C 16 16 16 16 16 16 L 0 16 C 0 16 0 16 0 16 L 0 0 C 0 0 0 0 0 0" isShadow="true" stroke="#000000" stroke-opacity="0.09999999999999999" stroke-width="3px" transform="translate(1, 1)"></path><path fill="none" d="M 0 0 L 16 0 C 16 0 16 0 16 0 L 16 16 C 16 16 16 16 16 16 L 0 16 C 0 16 0 16 0 16 L 0 0 C 0 0 0 0 0 0" isShadow="true" stroke="#000000" stroke-opacity="0.15" stroke-width="1px" transform="translate(1, 1)"></path><path fill="#ffffff" d="M 0 0 L 16 0 C 16 0 16 0 16 0 L 16 16 C 16 16 16 16 16 16 L 0 16 C 0 16 0 16 0 16 L 0 0 C 0 0 0 0 0 0" stroke="none" stroke-width="1px"></path><text x="8" zIndex="1" style="font-size: 16px; color: rgb(51, 51, 51);" y="23" stroke="none" fill="#333333" stroke-width="1px"></text></g></svg>