<svg version="1.1" style="font-family:&quot;Gotham SSm A&quot;, &quot;Gotham SSm B&quot;, Helvetica, Arial, sans-serif;font-size:12px;" xmlns="http://www.w3.org/2000/svg" width="499" height="530"><desc stroke="none" fill="#000000" stroke-width="1px">Created with Highcharts 4.2.3</desc><defs><clipPath id="highcharts-5"><rect x="0" y="0" width="329" height="310"></rect></clipPath></defs><rect x="0" y="0" width="499" height="530" fill="rgba(0, 0, 0, 0)" class=" highcharts-background" stroke="none" stroke-width="1px"></rect><g class="highcharts-grid" zIndex="1" stroke="none" fill="#000000" stroke-width="1px"></g><g class="highcharts-grid" zIndex="1" stroke="none" fill="#000000" stroke-width="1px"><path fill="none" d="M 150 330.5 L 479 330.5" stroke="#5e6269" stroke-width="1px" zIndex="1" opacity="1"></path><path fill="none" d="M 150 268.5 L 479 268.5" stroke="#5e6269" stroke-width="1px" zIndex="1" opacity="1"></path><path fill="none" d="M 150 206.5 L 479 206.5" stroke="#5e6269" stroke-width="1px" zIndex="1" opacity="1"></path><path fill="none" d="M 150 144.5 L 479 144.5" stroke="#5e6269" stroke-width="1px" zIndex="1" opacity="1"></path><path fill="none" d="M 150 82.5 L 479 82.5" stroke="#5e6269" stroke-width="1px" zIndex="1" opacity="1"></path><path fill="none" d="M 150 19.5 L 479 19.5" stroke="#5e6269" stroke-width="1px" zIndex="1" opacity="1"></path></g><g class="highcharts-axis" zIndex="2" stroke="none" fill="#000000" stroke-width="1px"><path fill="none" d="M 190.5 330 L 190.5 340" stroke="#3b3e43" stroke-width="1px" opacity="1"></path><path fill="none" d="M 231.5 330 L 231.5 340" stroke="#3b3e43" stroke-width="1px" opacity="1"></path><path fill="none" d="M 272.5 330 L 272.5 340" stroke="#3b3e43" stroke-width="1px" opacity="1"></path><path fill="none" d="M 314.5 330 L 314.5 340" stroke="#3b3e43" stroke-width="1px" opacity="1"></path><path fill="none" d="M 355.5 330 L 355.5 340" stroke="#3b3e43" stroke-width="1px" opacity="1"></path><path fill="none" d="M 396.5 330 L 396.5 340" stroke="#3b3e43" stroke-width="1px" opacity="1"></path><path fill="none" d="M 437.5 330 L 437.5 340" stroke="#3b3e43" stroke-width="1px" opacity="1"></path><path fill="none" d="M 479.5 330 L 479.5 340" stroke="#3b3e43" stroke-width="1px" opacity="1"></path><path fill="none" d="M 149.5 330 L 149.5 340" stroke="#3b3e43" stroke-width="1px" opacity="1"></path><path fill="none" d="M 150 330.5 L 479 330.5" stroke="#c0d0e0" stroke-width="1px" zIndex="7"></path></g><g class="highcharts-axis" zIndex="2" stroke="none" fill="#000000" stroke-width="1px"></g><g class="highcharts-series-group" zIndex="3" stroke="none" fill="#000000" stroke-width="1px"><g class="highcharts-series highcharts-series-0 highcharts-tracker" zIndex="0.1" transform="translate(150,20) scale(1 1)" style="" clip-path="url(#highcharts-5)" stroke="none" fill="#000000" stroke-width="1px"><rect x="4" y="75" width="34" height="236" fill="#00cfe4" rx="0" ry="0" stroke="none" stroke-width="1px"></rect><rect x="45" y="175" width="34" height="136" fill="#60e193" rx="0" ry="0" stroke="none" stroke-width="1px"></rect><rect x="86" y="181" width="34" height="130" fill="#e5d938" rx="0" ry="0" stroke="none" stroke-width="1px"></rect><rect x="127" y="274" width="34" height="37" fill="#9a8ef8" rx="0" ry="0" stroke="none" stroke-width="1px"></rect><rect x="168" y="286" width="34" height="25" fill="#f6a738" rx="0" ry="0" stroke="none" stroke-width="1px"></rect><rect x="210" y="299" width="34" height="12" fill="#e05ba5" rx="0" ry="0" stroke="none" stroke-width="1px"></rect><rect x="251" y="299" width="34" height="12" fill="#00c4a1" rx="0" ry="0" stroke="none" stroke-width="1px"></rect><rect x="292" y="280" width="34" height="31" fill="#d83581" rx="0" ry="0" stroke="none" stroke-width="1px"></rect></g><g class="highcharts-markers highcharts-series-0" zIndex="0.1" transform="translate(150,20) scale(1 1)" clip-path="none" stroke="none" fill="#000000" stroke-width="1px"></g></g><g class="highcharts-data-labels highcharts-series-0 highcharts-tracker" zIndex="6" visibility="visible" transform="translate(150,20) scale(1 1)" opacity="1" style="" stroke="none" fill="#000000" stroke-width="1px"><g zIndex="1" style="" transform="translate(-2,45)" stroke="none" fill="#000000" stroke-width="1px"><text x="5" zIndex="1" style="font-size: 16px; font-weight: 700; color: rgb(255, 255, 255); text-shadow: none; text-rendering: geometricprecision;" y="20" stroke="none" fill="#ffffff" stroke-width="1px"><tspan stroke="none" fill="#ffffff" stroke-width="1px">38%</tspan></text></g><g zIndex="1" style="" transform="translate(39,145)" stroke="none" fill="#000000" stroke-width="1px"><text x="5" zIndex="1" style="font-size: 16px; font-weight: 700; color: rgb(255, 255, 255); text-shadow: none; text-rendering: geometricprecision;" y="20" stroke="none" fill="#ffffff" stroke-width="1px"><tspan stroke="none" fill="#ffffff" stroke-width="1px">22%</tspan></text></g><g zIndex="1" style="" transform="translate(82,151)" stroke="none" fill="#000000" stroke-width="1px"><text x="5" zIndex="1" style="font-size: 16px; font-weight: 700; color: rgb(255, 255, 255); text-shadow: none; text-rendering: geometricprecision;" y="20" stroke="none" fill="#ffffff" stroke-width="1px"><tspan stroke="none" fill="#ffffff" stroke-width="1px">21%</tspan></text></g><g zIndex="1" style="" transform="translate(126,244)" stroke="none" fill="#000000" stroke-width="1px"><text x="5" zIndex="1" style="font-size: 16px; font-weight: 700; color: rgb(255, 255, 255); text-shadow: none; text-rendering: geometricprecision;" y="20" stroke="none" fill="#ffffff" stroke-width="1px"><tspan stroke="none" fill="#ffffff" stroke-width="1px">6%</tspan></text></g><g zIndex="1" style="" transform="translate(167,256)" stroke="none" fill="#000000" stroke-width="1px"><text x="5" zIndex="1" style="font-size: 16px; font-weight: 700; color: rgb(255, 255, 255); text-shadow: none; text-rendering: geometricprecision;" y="20" stroke="none" fill="#ffffff" stroke-width="1px"><tspan stroke="none" fill="#ffffff" stroke-width="1px">4%</tspan></text></g><g zIndex="1" style="" transform="translate(210,269)" stroke="none" fill="#000000" stroke-width="1px"><text x="5" zIndex="1" style="font-size: 16px; font-weight: 700; color: rgb(255, 255, 255); text-shadow: none; text-rendering: geometricprecision;" y="20" stroke="none" fill="#ffffff" stroke-width="1px"><tspan stroke="none" fill="#ffffff" stroke-width="1px">2%</tspan></text></g><g zIndex="1" style="" transform="translate(251,269)" stroke="none" fill="#000000" stroke-width="1px"><text x="5" zIndex="1" style="font-size: 16px; font-weight: 700; color: rgb(255, 255, 255); text-shadow: none; text-rendering: geometricprecision;" y="20" stroke="none" fill="#ffffff" stroke-width="1px"><tspan stroke="none" fill="#ffffff" stroke-width="1px">2%</tspan></text></g><g zIndex="1" style="" transform="translate(292,250)" stroke="none" fill="#000000" stroke-width="1px"><text x="5" zIndex="1" style="font-size: 16px; font-weight: 700; color: rgb(255, 255, 255); text-shadow: none; text-rendering: geometricprecision;" y="20" stroke="none" fill="#ffffff" stroke-width="1px"><tspan stroke="none" fill="#ffffff" stroke-width="1px">5%</tspan></text></g></g><g class="highcharts-axis-labels highcharts-xaxis-labels" zIndex="7" stroke="none" fill="#000000" stroke-width="1px"><text x="174.09803390593274" style="color: rgb(255, 255, 255); cursor: default; font-size: 16px; width: 530px; text-overflow: ellipsis;" text-anchor="end" transform="translate(0,0) rotate(-45 174.09803390593274 349)" y="349" opacity="1" stroke="none" fill="#ffffff" stroke-width="1px"><tspan stroke="none" fill="#ffffff" stroke-width="1px">Web Development</tspan></text><text x="215.22303390593274" style="color: rgb(255, 255, 255); cursor: default; font-size: 16px; width: 530px; text-overflow: ellipsis;" text-anchor="end" transform="translate(0,0) rotate(-45 215.22303390593274 349)" y="349" opacity="1" stroke="none" fill="#ffffff" stroke-width="1px"><tspan stroke="none" fill="#ffffff" stroke-width="1px">Software Development</tspan></text><text x="256.3480339059327" style="color: rgb(255, 255, 255); cursor: default; font-size: 16px; width: 530px; text-overflow: ellipsis;" text-anchor="end" transform="translate(0,0) rotate(-45 256.3480339059327 349)" y="349" opacity="1" stroke="none" fill="#ffffff" stroke-width="1px"><tspan stroke="none" fill="#ffffff" stroke-width="1px">Scientific/Data analysis</tspan></text><text x="297.4730339059327" style="color: rgb(255, 255, 255); cursor: default; font-size: 16px; width: 530px; text-overflow: ellipsis;" text-anchor="end" transform="translate(0,0) rotate(-45 297.4730339059327 349)" y="349" opacity="1" stroke="none" fill="#ffffff" stroke-width="1px"><tspan stroke="none" fill="#ffffff" stroke-width="1px">System administration</tspan></text><text x="338.5980339059327" style="color: rgb(255, 255, 255); cursor: default; font-size: 16px; width: 530px; text-overflow: ellipsis;" text-anchor="end" transform="translate(0,0) rotate(-45 338.5980339059327 349)" y="349" opacity="1" stroke="none" fill="#ffffff" stroke-width="1px"><tspan stroke="none" fill="#ffffff" stroke-width="1px">Testing</tspan></text><text x="379.7230339059327" style="color: rgb(255, 255, 255); cursor: default; font-size: 16px; width: 530px; text-overflow: ellipsis;" text-anchor="end" transform="translate(0,0) rotate(-45 379.7230339059327 349)" y="349" opacity="1" stroke="none" fill="#ffffff" stroke-width="1px"><tspan stroke="none" fill="#ffffff" stroke-width="1px">Games/Entertainment</tspan></text><text x="420.8480339059327" style="color: rgb(255, 255, 255); cursor: default; font-size: 16px; width: 530px; text-overflow: ellipsis;" text-anchor="end" transform="translate(0,0) rotate(-45 420.8480339059327 349)" y="349" opacity="1" stroke="none" fill="#ffffff" stroke-width="1px"><tspan stroke="none" fill="#ffffff" stroke-width="1px">Network Programming</tspan></text><text x="461.9730339059327" style="color: rgb(255, 255, 255); cursor: default; font-size: 16px; width: 530px; text-overflow: ellipsis;" text-anchor="end" transform="translate(0,0) rotate(-45 461.9730339059327 349)" y="349" opacity="1" stroke="none" fill="#ffffff" stroke-width="1px"><tspan stroke="none" fill="#ffffff" stroke-width="1px">Other</tspan></text></g><g class="highcharts-axis-labels highcharts-yaxis-labels" zIndex="7" stroke="none" fill="#000000" stroke-width="1px"><text x="135" style="color: rgb(255, 255, 255); cursor: default; font-size: 14px; width: 130px; text-overflow: clip;" text-anchor="end" transform="translate(0,0)" y="336" opacity="1" stroke="none" fill="#ffffff" stroke-width="1px">0%</text><text x="135" style="color: rgb(255, 255, 255); cursor: default; font-size: 14px; width: 130px; text-overflow: clip;" text-anchor="end" transform="translate(0,0)" y="274" opacity="1" stroke="none" fill="#ffffff" stroke-width="1px">10%</text><text x="135" style="color: rgb(255, 255, 255); cursor: default; font-size: 14px; width: 130px; text-overflow: clip;" text-anchor="end" transform="translate(0,0)" y="212" opacity="1" stroke="none" fill="#ffffff" stroke-width="1px">20%</text><text x="135" style="color: rgb(255, 255, 255); cursor: default; font-size: 14px; width: 130px; text-overflow: clip;" text-anchor="end" transform="translate(0,0)" y="150" opacity="1" stroke="none" fill="#ffffff" stroke-width="1px">30%</text><text x="135" style="color: rgb(255, 255, 255); cursor: default; font-size: 14px; width: 130px; text-overflow: clip;" text-anchor="end" transform="translate(0,0)" y="88" opacity="1" stroke="none" fill="#ffffff" stroke-width="1px">40%</text><text x="135" style="color: rgb(255, 255, 255); cursor: default; font-size: 14px; width: 130px; text-overflow: clip;" text-anchor="end" transform="translate(0,0)" y="26" opacity="1" stroke="none" fill="#ffffff" stroke-width="1px">50%</text></g><g class="highcharts-tooltip" zIndex="8" style="cursor:default;padding:0;pointer-events:none;white-space:nowrap;" transform="translate(0,-9999)" stroke="none" fill="#000000" stroke-width="1px"><path fill="none" d="M 0 0 L 16 0 C 16 0 16 0 16 0 L 16 16 C 16 16 16 16 16 16 L 0 16 C 0 16 0 16 0 16 L 0 0 C 0 0 0 0 0 0" isShadow="true" stroke="#000000" stroke-opacity="0.049999999999999996" stroke-width="5px" transform="translate(1, 1)"></path><path fill="none" d="M 0 0 L 16 0 C 16 0 16 0 16 0 L 16 16 C 16 16 16 16 16 16 L 0 16 C 0 16 0 16 0 16 L 0 0 C 0 0 0 0 0 0" isShadow="true" stroke="#000000" stroke-opacity="0.09999999999999999" stroke-width="3px" transform="translate(1, 1)"></path><path fill="none" d="M 0 0 L 16 0 C 16 0 16 0 16 0 L 16 16 C 16 16 16 16 16 16 L 0 16 C 0 16 0 16 0 16 L 0 0 C 0 0 0 0 0 0" isShadow="true" stroke="#000000" stroke-opacity="0.15" stroke-width="1px" transform="translate(1, 1)"></path><path fill="#ffffff" d="M 0 0 L 16 0 C 16 0 16 0 16 0 L 16 16 C 16 16 16 16 16 16 L 0 16 C 0 16 0 16 0 16 L 0 0 C 0 0 0 0 0 0" stroke="none" stroke-width="1px"></path><text x="8" zIndex="1" style="font-size: 16px; color: rgb(51, 51, 51);" y="23" stroke="none" fill="#333333" stroke-width="1px"></text></g></svg>