<svg version="1.1" style="font-family:&quot;Gotham SSm A&quot;, &quot;Gotham SSm B&quot;, Helvetica, Arial, sans-serif;font-size:12px;" xmlns="http://www.w3.org/2000/svg" width="1240" height="380"><desc stroke="none" fill="#000000" stroke-width="1px">Created with Highcharts 4.2.3</desc><defs><clipPath id="highcharts-25"><rect x="0" y="0" width="1170" height="300"></rect></clipPath></defs><rect x="0" y="0" width="1240" height="380" fill="rgba(0, 0, 0, 0)" class=" highcharts-background" stroke="none" stroke-width="1px"></rect><g class="highcharts-grid" zIndex="1" stroke="none" fill="#000000" stroke-width="1px"></g><g class="highcharts-grid" zIndex="1" stroke="none" fill="#000000" stroke-width="1px"><path fill="none" d="M 50 340.5 L 1220 340.5" stroke="#d8d8d8" stroke-width="1px" zIndex="1" opacity="1"></path><path fill="none" d="M 50 290.5 L 1220 290.5" stroke="#d8d8d8" stroke-width="1px" zIndex="1" opacity="1"></path><path fill="none" d="M 50 240.5 L 1220 240.5" stroke="#d8d8d8" stroke-width="1px" zIndex="1" opacity="1"></path><path fill="none" d="M 50 190.5 L 1220 190.5" stroke="#d8d8d8" stroke-width="1px" zIndex="1" opacity="1"></path><path fill="none" d="M 50 140.5 L 1220 140.5" stroke="#d8d8d8" stroke-width="1px" zIndex="1" opacity="1"></path><path fill="none" d="M 50 90.5 L 1220 90.5" stroke="#d8d8d8" stroke-width="1px" zIndex="1" opacity="1"></path><path fill="none" d="M 50 39.5 L 1220 39.5" stroke="#d8d8d8" stroke-width="1px" zIndex="1" opacity="1"></path></g><g class="highcharts-axis" zIndex="2" stroke="none" fill="#000000" stroke-width="1px"><path fill="none" d="M 439.5 340 L 439.5 350" stroke="#dfdfdf" stroke-width="1px" opacity="1"></path><path fill="none" d="M 829.5 340 L 829.5 350" stroke="#dfdfdf" stroke-width="1px" opacity="1"></path><path fill="none" d="M 1220.5 340 L 1220.5 350" stroke="#dfdfdf" stroke-width="1px" opacity="1"></path><path fill="none" d="M 49.5 340 L 49.5 350" stroke="#dfdfdf" stroke-width="1px" opacity="1"></path><path fill="none" d="M 50 340.5 L 1220 340.5" stroke="#c0d0e0" stroke-width="1px" zIndex="7"></path></g><g class="highcharts-axis" zIndex="2" stroke="none" fill="#000000" stroke-width="1px"><text x="-22.8125" zIndex="7" text-anchor="middle" transform="translate(0,0) rotate(270 -22.8125 190)" class=" highcharts-yaxis-title" style="color: rgb(0, 0, 0); font-size: 16px;" y="190" stroke="none" fill="#000000" stroke-width="1px">Values</text></g><g class="highcharts-series-group" zIndex="3" stroke="none" fill="#000000" stroke-width="1px"><g class="highcharts-series highcharts-series-0 highcharts-tracker" zIndex="0.1" transform="translate(50,40) scale(1 1)" style="" clip-path="url(#highcharts-25)" stroke="none" fill="#000000" stroke-width="1px"><rect x="37" y="166" width="99" height="135" fill="#00cfe4" rx="0" ry="0" stroke="none" stroke-width="1px"></rect><rect x="427" y="156" width="99" height="145" fill="#00cfe4" rx="0" ry="0" stroke="none" stroke-width="1px"></rect><rect x="817" y="81" width="99" height="220" fill="#00cfe4" rx="0" ry="0" stroke="none" stroke-width="1px"></rect></g><g class="highcharts-markers highcharts-series-0" zIndex="0.1" transform="translate(50,40) scale(1 1)" clip-path="none" stroke="none" fill="#000000" stroke-width="1px"></g><g class="highcharts-series highcharts-series-1 highcharts-tracker" zIndex="0.1" transform="translate(50,40) scale(1 1)" style="" clip-path="url(#highcharts-25)" stroke="none" fill="#000000" stroke-width="1px"><rect x="146" y="211" width="99" height="90" fill="#60e193" rx="0" ry="0" stroke="none" stroke-width="1px"></rect><rect x="536" y="121" width="99" height="180" fill="#60e193" rx="0" ry="0" stroke="none" stroke-width="1px"></rect><rect x="926" y="71" width="99" height="230" fill="#60e193" rx="0" ry="0" stroke="none" stroke-width="1px"></rect></g><g class="highcharts-markers highcharts-series-1" zIndex="0.1" transform="translate(50,40) scale(1 1)" clip-path="none" stroke="none" fill="#000000" stroke-width="1px"></g><g class="highcharts-series highcharts-series-2 highcharts-tracker" zIndex="0.1" transform="translate(50,40) scale(1 1)" style="" clip-path="url(#highcharts-25)" stroke="none" fill="#000000" stroke-width="1px"><rect x="255" y="271" width="99" height="30" fill="#e5d938" rx="0" ry="0" stroke="none" stroke-width="1px"></rect><rect x="645" y="111" width="99" height="190" fill="#e5d938" rx="0" ry="0" stroke="none" stroke-width="1px"></rect><rect x="1035" y="26" width="99" height="275" fill="#e5d938" rx="0" ry="0" stroke="none" stroke-width="1px"></rect></g><g class="highcharts-markers highcharts-series-2" zIndex="0.1" transform="translate(50,40) scale(1 1)" clip-path="none" stroke="none" fill="#000000" stroke-width="1px"></g></g><g class="highcharts-data-labels highcharts-series-0 highcharts-tracker" zIndex="6" visibility="visible" transform="translate(50,40) scale(1 1)" opacity="1" style="" stroke="none" fill="#000000" stroke-width="1px"><g zIndex="1" style="" transform="translate(64,136)" stroke="none" fill="#000000" stroke-width="1px"><text x="5" zIndex="1" style="font-size: 16px; font-weight: 700; color: rgb(0, 0, 0); text-shadow: rgb(255, 255, 255) 0px 0px 6px, rgb(255, 255, 255) 0px 0px 3px; text-rendering: geometricprecision;" y="20" stroke="none" fill="#000000" stroke-width="1px"><tspan stroke="none" fill="#000000" stroke-width="1px">27%</tspan></text></g><g zIndex="1" style="" transform="translate(454,126)" stroke="none" fill="#000000" stroke-width="1px"><text x="5" zIndex="1" style="font-size: 16px; font-weight: 700; color: rgb(0, 0, 0); text-shadow: rgb(255, 255, 255) 0px 0px 6px, rgb(255, 255, 255) 0px 0px 3px; text-rendering: geometricprecision;" y="20" stroke="none" fill="#000000" stroke-width="1px"><tspan stroke="none" fill="#000000" stroke-width="1px">29%</tspan></text></g><g zIndex="1" style="" transform="translate(843,51)" stroke="none" fill="#000000" stroke-width="1px"><text x="5" zIndex="1" style="font-size: 16px; font-weight: 700; color: rgb(0, 0, 0); text-shadow: rgb(255, 255, 255) 0px 0px 6px, rgb(255, 255, 255) 0px 0px 3px; text-rendering: geometricprecision;" y="20" stroke="none" fill="#000000" stroke-width="1px"><tspan stroke="none" fill="#000000" stroke-width="1px">44%</tspan></text></g></g><g class="highcharts-data-labels highcharts-series-1 highcharts-tracker" zIndex="6" visibility="visible" transform="translate(50,40) scale(1 1)" opacity="1" style="" stroke="none" fill="#000000" stroke-width="1px"><g zIndex="1" style="" transform="translate(174,181)" stroke="none" fill="#000000" stroke-width="1px"><text x="5" zIndex="1" style="font-size: 16px; font-weight: 700; color: rgb(0, 0, 0); text-shadow: rgb(255, 255, 255) 0px 0px 6px, rgb(255, 255, 255) 0px 0px 3px; text-rendering: geometricprecision;" y="20" stroke="none" fill="#000000" stroke-width="1px"><tspan stroke="none" fill="#000000" stroke-width="1px">18%</tspan></text></g><g zIndex="1" style="" transform="translate(563,91)" stroke="none" fill="#000000" stroke-width="1px"><text x="5" zIndex="1" style="font-size: 16px; font-weight: 700; color: rgb(0, 0, 0); text-shadow: rgb(255, 255, 255) 0px 0px 6px, rgb(255, 255, 255) 0px 0px 3px; text-rendering: geometricprecision;" y="20" stroke="none" fill="#000000" stroke-width="1px"><tspan stroke="none" fill="#000000" stroke-width="1px">36%</tspan></text></g><g zIndex="1" style="" transform="translate(952,41)" stroke="none" fill="#000000" stroke-width="1px"><text x="5" zIndex="1" style="font-size: 16px; font-weight: 700; color: rgb(0, 0, 0); text-shadow: rgb(255, 255, 255) 0px 0px 6px, rgb(255, 255, 255) 0px 0px 3px; text-rendering: geometricprecision;" y="20" stroke="none" fill="#000000" stroke-width="1px"><tspan stroke="none" fill="#000000" stroke-width="1px">46%</tspan></text></g></g><g class="highcharts-data-labels highcharts-series-2 highcharts-tracker" zIndex="6" visibility="visible" transform="translate(50,40) scale(1 1)" opacity="1" style="" stroke="none" fill="#000000" stroke-width="1px"><g zIndex="1" style="" transform="translate(287,241)" stroke="none" fill="#000000" stroke-width="1px"><text x="5" zIndex="1" style="font-size: 16px; font-weight: 700; color: rgb(0, 0, 0); text-shadow: rgb(255, 255, 255) 0px 0px 6px, rgb(255, 255, 255) 0px 0px 3px; text-rendering: geometricprecision;" y="20" stroke="none" fill="#000000" stroke-width="1px"><tspan stroke="none" fill="#000000" stroke-width="1px">6%</tspan></text></g><g zIndex="1" style="" transform="translate(672,81)" stroke="none" fill="#000000" stroke-width="1px"><text x="5" zIndex="1" style="font-size: 16px; font-weight: 700; color: rgb(0, 0, 0); text-shadow: rgb(255, 255, 255) 0px 0px 6px, rgb(255, 255, 255) 0px 0px 3px; text-rendering: geometricprecision;" y="20" stroke="none" fill="#000000" stroke-width="1px"><tspan stroke="none" fill="#000000" stroke-width="1px">38%</tspan></text></g><g zIndex="1" style="" transform="translate(1062,-4)" stroke="none" fill="#000000" stroke-width="1px"><text x="5" zIndex="1" style="font-size: 16px; font-weight: 700; color: rgb(0, 0, 0); text-shadow: rgb(255, 255, 255) 0px 0px 6px, rgb(255, 255, 255) 0px 0px 3px; text-rendering: geometricprecision;" y="20" stroke="none" fill="#000000" stroke-width="1px"><tspan stroke="none" fill="#000000" stroke-width="1px">55%</tspan></text></g></g><g class="highcharts-legend" zIndex="7" transform="translate(50,-2)" stroke="none" fill="#000000" stroke-width="1px"><g zIndex="1" stroke="none" fill="#000000" stroke-width="1px"><g stroke="none" fill="#000000" stroke-width="1px"><g class="highcharts-legend-item" zIndex="1" transform="translate(30,25)" stroke="none" fill="#000000" stroke-width="1px"><text x="17" style="color: rgb(51, 51, 51); font-size: 14px; font-weight: 500; cursor: pointer;" text-anchor="start" zIndex="2" y="21" stroke="none" fill="#333333" stroke-width="1px"><tspan stroke="none" fill="#333333" stroke-width="1px">Running / debugging or editing code</tspan></text><rect x="0" y="10" width="12" height="12" rx="6" ry="6" zIndex="3" fill="#00cfe4" stroke="none" stroke-width="1px"></rect></g><g class="highcharts-legend-item" zIndex="1" transform="translate(30,48)" stroke="none" fill="#000000" stroke-width="1px"><text x="17" y="21" style="color: rgb(51, 51, 51); font-size: 14px; font-weight: 500; cursor: pointer;" text-anchor="start" zIndex="2" stroke="none" fill="#333333" stroke-width="1px"><tspan stroke="none" fill="#333333" stroke-width="1px">Code coverage</tspan></text><rect x="0" y="10" width="12" height="12" rx="6" ry="6" zIndex="3" fill="#60e193" stroke="none" stroke-width="1px"></rect></g><g class="highcharts-legend-item" zIndex="1" transform="translate(30,71)" stroke="none" fill="#000000" stroke-width="1px"><text x="17" y="21" style="color: rgb(51, 51, 51); font-size: 14px; font-weight: 500; cursor: pointer;" text-anchor="start" zIndex="2" stroke="none" fill="#333333" stroke-width="1px"><tspan stroke="none" fill="#333333" stroke-width="1px">Python profiler</tspan></text><rect x="0" y="10" width="12" height="12" rx="6" ry="6" zIndex="3" fill="#e5d938" stroke="none" stroke-width="1px"></rect></g></g></g></g><g class="highcharts-axis-labels highcharts-xaxis-labels" zIndex="7" stroke="none" fill="#000000" stroke-width="1px"><text x="245" style="color: rgb(52, 52, 52); cursor: default; font-size: 14px; width: 380px; text-overflow: clip;" text-anchor="middle" transform="translate(0,0)" y="362" opacity="1" stroke="none" fill="#343434" stroke-width="1px">Often</text><text x="635" style="color: rgb(52, 52, 52); cursor: default; font-size: 14px; width: 380px; text-overflow: clip;" text-anchor="middle" transform="translate(0,0)" y="362" opacity="1" stroke="none" fill="#343434" stroke-width="1px"><tspan stroke="none" fill="#343434" stroke-width="1px">From time to time</tspan></text><text x="1025" style="color: rgb(52, 52, 52); cursor: default; font-size: 14px; width: 380px; text-overflow: clip;" text-anchor="middle" transform="translate(0,0)" y="362" opacity="1" stroke="none" fill="#343434" stroke-width="1px"><tspan stroke="none" fill="#343434" stroke-width="1px">Never or almost never</tspan></text></g><g class="highcharts-axis-labels highcharts-yaxis-labels" zIndex="7" stroke="none" fill="#000000" stroke-width="1px"><text x="35" style="color: rgb(52, 52, 52); cursor: default; font-size: 14px; width: 30px; text-overflow: clip;" text-anchor="end" transform="translate(0,0)" y="346" opacity="1" stroke="none" fill="#343434" stroke-width="1px">0%</text><text x="35" style="color: rgb(52, 52, 52); cursor: default; font-size: 14px; width: 30px; text-overflow: clip;" text-anchor="end" transform="translate(0,0)" y="296" opacity="1" stroke="none" fill="#343434" stroke-width="1px">10%</text><text x="35" style="color: rgb(52, 52, 52); cursor: default; font-size: 14px; width: 30px; text-overflow: clip;" text-anchor="end" transform="translate(0,0)" y="246" opacity="1" stroke="none" fill="#343434" stroke-width="1px">20%</text><text x="35" style="color: rgb(52, 52, 52); cursor: default; font-size: 14px; width: 30px; text-overflow: clip;" text-anchor="end" transform="translate(0,0)" y="196" opacity="1" stroke="none" fill="#343434" stroke-width="1px">30%</text><text x="35" style="color: rgb(52, 52, 52); cursor: default; font-size: 14px; width: 30px; text-overflow: clip;" text-anchor="end" transform="translate(0,0)" y="146" opacity="1" stroke="none" fill="#343434" stroke-width="1px">40%</text><text x="35" style="color: rgb(52, 52, 52); cursor: default; font-size: 14px; width: 30px; text-overflow: clip;" text-anchor="end" transform="translate(0,0)" y="96" opacity="1" stroke="none" fill="#343434" stroke-width="1px">50%</text><text x="35" style="color: rgb(52, 52, 52); cursor: default; font-size: 14px; width: 30px; text-overflow: clip;" text-anchor="end" transform="translate(0,0)" y="46" opacity="1" stroke="none" fill="#343434" stroke-width="1px">60%</text></g><g class="highcharts-tooltip" zIndex="8" style="cursor:default;padding:0;pointer-events:none;white-space:nowrap;" transform="translate(0,-9999)" stroke="none" fill="#000000" stroke-width="1px"><path fill="none" d="M 0 0 L 16 0 C 16 0 16 0 16 0 L 16 16 C 16 16 16 16 16 16 L 0 16 C 0 16 0 16 0 16 L 0 0 C 0 0 0 0 0 0" isShadow="true" stroke="#000000" stroke-opacity="0.049999999999999996" stroke-width="5px" transform="translate(1, 1)"></path><path fill="none" d="M 0 0 L 16 0 C 16 0 16 0 16 0 L 16 16 C 16 16 16 16 16 16 L 0 16 C 0 16 0 16 0 16 L 0 0 C 0 0 0 0 0 0" isShadow="true" stroke="#000000" stroke-opacity="0.09999999999999999" stroke-width="3px" transform="translate(1, 1)"></path><path fill="none" d="M 0 0 L 16 0 C 16 0 16 0 16 0 L 16 16 C 16 16 16 16 16 16 L 0 16 C 0 16 0 16 0 16 L 0 0 C 0 0 0 0 0 0" isShadow="true" stroke="#000000" stroke-opacity="0.15" stroke-width="1px" transform="translate(1, 1)"></path><path fill="#ffffff" d="M 0 0 L 16 0 C 16 0 16 0 16 0 L 16 16 C 16 16 16 16 16 16 L 0 16 C 0 16 0 16 0 16 L 0 0 C 0 0 0 0 0 0" stroke="none" stroke-width="1px"></path><text x="8" zIndex="1" style="font-size: 16px; color: rgb(51, 51, 51);" y="23" stroke="none" fill="#333333" stroke-width="1px"></text></g></svg>