<svg version="1.1" style="font-family:&quot;Gotham SSm A&quot;, &quot;Gotham SSm B&quot;, Helvetica, Arial, sans-serif;font-size:12px;" xmlns="http://www.w3.org/2000/svg" width="499" height="400"><desc stroke="none" fill="#000000" stroke-width="1px">Created with Highcharts 4.2.3</desc><defs><clipPath id="highcharts-13"><rect x="0" y="0" width="429" height="320"></rect></clipPath></defs><rect x="0" y="0" width="499" height="400" fill="rgba(0, 0, 0, 0)" class=" highcharts-background" stroke="none" stroke-width="1px"></rect><g class="highcharts-grid" zIndex="1" stroke="none" fill="#000000" stroke-width="1px"></g><g class="highcharts-grid" zIndex="1" stroke="none" fill="#000000" stroke-width="1px"><path fill="none" d="M 50 360.5 L 479 360.5" stroke="#d8d8d8" stroke-width="1px" zIndex="1" opacity="1"></path><path fill="none" d="M 50 280.5 L 479 280.5" stroke="#d8d8d8" stroke-width="1px" zIndex="1" opacity="1"></path><path fill="none" d="M 50 200.5 L 479 200.5" stroke="#d8d8d8" stroke-width="1px" zIndex="1" opacity="1"></path><path fill="none" d="M 50 120.5 L 479 120.5" stroke="#d8d8d8" stroke-width="1px" zIndex="1" opacity="1"></path><path fill="none" d="M 50 39.5 L 479 39.5" stroke="#d8d8d8" stroke-width="1px" zIndex="1" opacity="1"></path></g><g class="highcharts-axis" zIndex="2" stroke="none" fill="#000000" stroke-width="1px"><path fill="none" d="M 264.5 360 L 264.5 370" stroke="#dfdfdf" stroke-width="1px" opacity="1"></path><path fill="none" d="M 479.5 360 L 479.5 370" stroke="#dfdfdf" stroke-width="1px" opacity="1"></path><path fill="none" d="M 49.5 360 L 49.5 370" stroke="#dfdfdf" stroke-width="1px" opacity="1"></path><path fill="none" d="M 50 360.5 L 479 360.5" stroke="#c0d0e0" stroke-width="1px" zIndex="7"></path></g><g class="highcharts-axis" zIndex="2" stroke="none" fill="#000000" stroke-width="1px"><text x="-22.8125" zIndex="7" text-anchor="middle" transform="translate(0,0) rotate(270 -22.8125 200)" class=" highcharts-yaxis-title" style="color: rgb(0, 0, 0); font-size: 16px;" y="200" stroke="none" fill="#000000" stroke-width="1px">Values</text></g><g class="highcharts-series-group" zIndex="3" stroke="none" fill="#000000" stroke-width="1px"><g class="highcharts-series highcharts-series-0 highcharts-tracker" zIndex="0.1" transform="translate(50,40) scale(1 1)" style="" clip-path="url(#highcharts-13)" stroke="none" fill="#000000" stroke-width="1px"><rect x="22" y="81" width="82" height="240" fill="#00cfe4" rx="0" ry="0" stroke="none" stroke-width="1px"></rect><rect x="236" y="33" width="82" height="288" fill="#00cfe4" rx="0" ry="0" stroke="none" stroke-width="1px"></rect></g><g class="highcharts-markers highcharts-series-0" zIndex="0.1" transform="translate(50,40) scale(1 1)" clip-path="none" stroke="none" fill="#000000" stroke-width="1px"></g><g class="highcharts-series highcharts-series-1 highcharts-tracker" zIndex="0.1" transform="translate(50,40) scale(1 1)" style="" clip-path="url(#highcharts-13)" stroke="none" fill="#000000" stroke-width="1px"><rect x="112" y="161" width="82" height="160" fill="#60e193" rx="0" ry="0" stroke="none" stroke-width="1px"></rect><rect x="326" y="161" width="82" height="160" fill="#60e193" rx="0" ry="0" stroke="none" stroke-width="1px"></rect></g><g class="highcharts-markers highcharts-series-1" zIndex="0.1" transform="translate(50,40) scale(1 1)" clip-path="none" stroke="none" fill="#000000" stroke-width="1px"></g></g><g class="highcharts-data-labels highcharts-series-0 highcharts-tracker" zIndex="6" visibility="visible" transform="translate(50,40) scale(1 1)" opacity="1" style="" stroke="none" fill="#000000" stroke-width="1px"><g zIndex="1" style="" transform="translate(39,51)" stroke="none" fill="#000000" stroke-width="1px"><text x="5" zIndex="1" style="font-size: 16px; font-weight: 700; color: rgb(0, 0, 0); text-shadow: rgb(255, 255, 255) 0px 0px 6px, rgb(255, 255, 255) 0px 0px 3px; text-rendering: geometricprecision;" y="20" stroke="none" fill="#000000" stroke-width="1px"><tspan stroke="none" fill="#000000" stroke-width="1px">60%</tspan></text></g><g zIndex="1" style="" transform="translate(254,3)" stroke="none" fill="#000000" stroke-width="1px"><text x="5" zIndex="1" style="font-size: 16px; font-weight: 700; color: rgb(0, 0, 0); text-shadow: rgb(255, 255, 255) 0px 0px 6px, rgb(255, 255, 255) 0px 0px 3px; text-rendering: geometricprecision;" y="20" stroke="none" fill="#000000" stroke-width="1px"><tspan stroke="none" fill="#000000" stroke-width="1px">72%</tspan></text></g></g><g class="highcharts-data-labels highcharts-series-1 highcharts-tracker" zIndex="6" visibility="visible" transform="translate(50,40) scale(1 1)" opacity="1" style="" stroke="none" fill="#000000" stroke-width="1px"><g zIndex="1" style="" transform="translate(129,131)" stroke="none" fill="#000000" stroke-width="1px"><text x="5" zIndex="1" style="font-size: 16px; font-weight: 700; color: rgb(0, 0, 0); text-shadow: rgb(255, 255, 255) 0px 0px 6px, rgb(255, 255, 255) 0px 0px 3px; text-rendering: geometricprecision;" y="20" stroke="none" fill="#000000" stroke-width="1px"><tspan stroke="none" fill="#000000" stroke-width="1px">40%</tspan></text></g><g zIndex="1" style="" transform="translate(343,131)" stroke="none" fill="#000000" stroke-width="1px"><text x="5" zIndex="1" style="font-size: 16px; font-weight: 700; color: rgb(0, 0, 0); text-shadow: rgb(255, 255, 255) 0px 0px 6px, rgb(255, 255, 255) 0px 0px 3px; text-rendering: geometricprecision;" y="20" stroke="none" fill="#000000" stroke-width="1px"><tspan stroke="none" fill="#000000" stroke-width="1px">40%</tspan></text></g></g><g class="highcharts-legend" zIndex="7" transform="translate(361,-10)" stroke="none" fill="#000000" stroke-width="1px"><g zIndex="1" stroke="none" fill="#000000" stroke-width="1px"><g stroke="none" fill="#000000" stroke-width="1px"><g class="highcharts-legend-item" zIndex="1" transform="translate(99.0625,25)" stroke="none" fill="#000000" stroke-width="1px"><text x="-5" style="color: rgb(51, 51, 51); font-size: 14px; font-weight: 500; cursor: pointer;" text-anchor="end" zIndex="2" y="21" stroke="none" fill="#333333" stroke-width="1px"><tspan stroke="none" fill="#333333" stroke-width="1px">Python 2</tspan></text><rect x="0" y="10" width="12" height="12" rx="6" ry="6" zIndex="3" fill="#00cfe4" stroke="none" stroke-width="1px"></rect></g><g class="highcharts-legend-item" zIndex="1" transform="translate(99.0625,48)" stroke="none" fill="#000000" stroke-width="1px"><text x="-5" y="21" style="color: rgb(51, 51, 51); font-size: 14px; font-weight: 500; cursor: pointer;" text-anchor="end" zIndex="2" stroke="none" fill="#333333" stroke-width="1px"><tspan stroke="none" fill="#333333" stroke-width="1px">Python 3</tspan></text><rect x="0" y="10" width="12" height="12" rx="6" ry="6" zIndex="3" fill="#60e193" stroke="none" stroke-width="1px"></rect></g></g></g></g><g class="highcharts-axis-labels highcharts-xaxis-labels" zIndex="7" stroke="none" fill="#000000" stroke-width="1px"><text x="157.25" style="color: rgb(52, 52, 52); cursor: default; font-size: 14px; width: 205px; text-overflow: clip;" text-anchor="middle" transform="translate(0,0)" y="382" opacity="1" stroke="none" fill="#343434" stroke-width="1px">Survey*</text><text x="371.75" style="color: rgb(52, 52, 52); cursor: default; font-size: 14px; width: 205px; text-overflow: clip;" text-anchor="middle" transform="translate(0,0)" y="382" opacity="1" stroke="none" fill="#343434" stroke-width="1px"><tspan stroke="none" fill="#343434" stroke-width="1px">Internal statistics**</tspan></text></g><g class="highcharts-axis-labels highcharts-yaxis-labels" zIndex="7" stroke="none" fill="#000000" stroke-width="1px"><text x="35" style="color: rgb(52, 52, 52); cursor: default; font-size: 14px; width: 30px; text-overflow: clip;" text-anchor="end" transform="translate(0,0)" y="366" opacity="1" stroke="none" fill="#343434" stroke-width="1px">0%</text><text x="35" style="color: rgb(52, 52, 52); cursor: default; font-size: 14px; width: 30px; text-overflow: clip;" text-anchor="end" transform="translate(0,0)" y="286" opacity="1" stroke="none" fill="#343434" stroke-width="1px">20%</text><text x="35" style="color: rgb(52, 52, 52); cursor: default; font-size: 14px; width: 30px; text-overflow: clip;" text-anchor="end" transform="translate(0,0)" y="206" opacity="1" stroke="none" fill="#343434" stroke-width="1px">40%</text><text x="35" style="color: rgb(52, 52, 52); cursor: default; font-size: 14px; width: 30px; text-overflow: clip;" text-anchor="end" transform="translate(0,0)" y="126" opacity="1" stroke="none" fill="#343434" stroke-width="1px">60%</text><text x="35" style="color: rgb(52, 52, 52); cursor: default; font-size: 14px; width: 30px; text-overflow: clip;" text-anchor="end" transform="translate(0,0)" y="46" opacity="1" stroke="none" fill="#343434" stroke-width="1px">80%</text></g><g class="highcharts-tooltip" zIndex="8" style="cursor:default;padding:0;pointer-events:none;white-space:nowrap;" transform="translate(0,-9999)" stroke="none" fill="#000000" stroke-width="1px"><path fill="none" d="M 0 0 L 16 0 C 16 0 16 0 16 0 L 16 16 C 16 16 16 16 16 16 L 0 16 C 0 16 0 16 0 16 L 0 0 C 0 0 0 0 0 0" isShadow="true" stroke="#000000" stroke-opacity="0.049999999999999996" stroke-width="5px" transform="translate(1, 1)"></path><path fill="none" d="M 0 0 L 16 0 C 16 0 16 0 16 0 L 16 16 C 16 16 16 16 16 16 L 0 16 C 0 16 0 16 0 16 L 0 0 C 0 0 0 0 0 0" isShadow="true" stroke="#000000" stroke-opacity="0.09999999999999999" stroke-width="3px" transform="translate(1, 1)"></path><path fill="none" d="M 0 0 L 16 0 C 16 0 16 0 16 0 L 16 16 C 16 16 16 16 16 16 L 0 16 C 0 16 0 16 0 16 L 0 0 C 0 0 0 0 0 0" isShadow="true" stroke="#000000" stroke-opacity="0.15" stroke-width="1px" transform="translate(1, 1)"></path><path fill="#ffffff" d="M 0 0 L 16 0 C 16 0 16 0 16 0 L 16 16 C 16 16 16 16 16 16 L 0 16 C 0 16 0 16 0 16 L 0 0 C 0 0 0 0 0 0" stroke="none" stroke-width="1px"></path><text x="8" zIndex="1" style="font-size: 16px; color: rgb(51, 51, 51);" y="23" stroke="none" fill="#333333" stroke-width="1px"></text></g></svg>