<svg version="1.1" style="font-family:&quot;Gotham SSm A&quot;, &quot;Gotham SSm B&quot;, Helvetica, Arial, sans-serif;font-size:12px;" xmlns="http://www.w3.org/2000/svg" width="499" height="400"><desc stroke="none" fill="#000000" stroke-width="1px">Created with Highcharts 4.2.3</desc><defs><clipPath id="highcharts-27"><rect x="0" y="0" width="449" height="310"></rect></clipPath></defs><rect x="0" y="0" width="499" height="400" fill="rgba(0, 0, 0, 0)" class=" highcharts-background" stroke="none" stroke-width="1px"></rect><g class="highcharts-series-group" zIndex="3" stroke="none" fill="#000000" stroke-width="1px"><g class="highcharts-series highcharts-series-0 highcharts-tracker" zIndex="0.1" transform="translate(30,40) scale(1 1)" style="" stroke="none" fill="#000000" stroke-width="1px"><path fill="#00cfe4" d="M 208.4770867645843 253.99999766659394 A 112.5 112.5 0 1 1 315.54050462687377 176.1205194822986 L 208.5 141.5 A 0 0 0 1 0 208.5 141.5 Z" stroke="#ffffff" stroke-width="1px" stroke-linejoin="round" transform="translate(0,0)"></path><path fill="#60e193" d="M 315.5058305929137 176.22754265882713 A 112.5 112.5 0 0 1 236.5488939760389 250.44727874858063 L 208.5 141.5 A 0 0 0 0 0 208.5 141.5 Z" stroke="#ffffff" stroke-width="1px" stroke-linejoin="round" transform="translate(0,0)"></path><path fill="#e5d938" d="M 236.43993269100233 250.47527316424703 A 112.5 112.5 0 0 1 215.6930238575389 253.76981075865797 L 208.5 141.5 A 0 0 0 0 0 208.5 141.5 Z" stroke="#ffffff" stroke-width="1px" stroke-linejoin="round" transform="translate(0,0)"></path><path fill="#9a8ef8" d="M 215.5807504689802 253.77694764641598 A 112.5 112.5 0 0 1 208.6104338043936 253.99994579720848 L 208.5 141.5 A 0 0 0 0 0 208.5 141.5 Z" stroke="#ffffff" stroke-width="1px" stroke-linejoin="round" transform="translate(0,0)"></path></g><g class="highcharts-markers highcharts-series-0" zIndex="0.1" transform="translate(30,40) scale(1 1)" stroke="none" fill="#000000" stroke-width="1px"></g></g><g class="highcharts-data-labels highcharts-series-0 highcharts-tracker" zIndex="6" visibility="visible" transform="translate(30,40) scale(1 1)" opacity="1" style="" stroke="none" fill="#000000" stroke-width="1px"><path fill="none" d="M 119.74060154832256 26.21507830157 C 124.74060154832256 26.21507830157 129.44288356666237 32.687214256569575 135.90852134187958 41.586401194694 L 142.37415911709678 50.48558813281842" stroke="#00cfe4" stroke-width="1px"></path><path fill="none" d="M 355.2603611733548 156 C 350.2603611733548 156 300.5715857474085 239.54628038817992 293.04156758219295 231.5276254865444 L 285.5115494169774 223.50897058490887" stroke="#60e193" stroke-width="1px"></path><path fill="none" d="M 339.5317420335052 208 C 334.5317420335052 208 229.54043554791093 274.3440818100461 227.8196564324684 263.47951006349956 L 226.09887731702588 252.61493831695302" stroke="#e5d938" stroke-width="1px"></path><path fill="none" d="M 217.9760331686336 283.92968485211674 C 212.9760331686336 283.92968485211674 212.72474709600826 275.93363236919083 212.37922874614884 264.93906020516783 L 212.03371039628942 253.9444880411448" stroke="#9a8ef8" stroke-width="1px"></path><g zIndex="1" style="" transform="translate(58,6)" stroke="none" fill="#000000" stroke-width="1px"><text x="5" zIndex="1" style="font-size: 16px; font-weight: 300; color: rgb(255, 255, 255);" y="20" stroke="none" fill="#ffffff" stroke-width="1px"><tspan style="font-size: 20px; font-weight: 700; y: -2px;" stroke="none" fill="#ffffff" stroke-width="1px">80%</tspan><tspan x="5" dy="19" stroke="none" fill="#ffffff" stroke-width="1px">Daily</tspan></text></g><g zIndex="1" style="" transform="translate(360,136)" stroke="none" fill="#000000" stroke-width="1px"><text x="5" zIndex="1" style="font-size: 16px; font-weight: 300; color: rgb(255, 255, 255);" y="20" stroke="none" fill="#ffffff" stroke-width="1px"><tspan style="font-size: 20px; font-weight: 700; y: -2px;" stroke="none" fill="#ffffff" stroke-width="1px">16%</tspan><tspan x="5" dy="19" stroke="none" fill="#ffffff" stroke-width="1px">Weekly</tspan></text></g><g zIndex="1" style="" transform="translate(345,188)" stroke="none" fill="#000000" stroke-width="1px"><text x="5" zIndex="1" style="font-size: 16px; font-weight: 300; color: rgb(255, 255, 255);" y="20" stroke="none" fill="#ffffff" stroke-width="1px"><tspan style="font-size: 20px; font-weight: 700; y: -2px;" stroke="none" fill="#ffffff" stroke-width="1px">3%</tspan><tspan x="5" dy="19" stroke="none" fill="#ffffff" stroke-width="1px">Monthly</tspan></text></g><g zIndex="1" style="" transform="translate(223,264)" stroke="none" fill="#000000" stroke-width="1px"><text x="5" zIndex="1" style="font-size: 16px; font-weight: 300; color: rgb(255, 255, 255);" y="20" stroke="none" fill="#ffffff" stroke-width="1px"><tspan style="font-size: 20px; font-weight: 700; y: -2px;" stroke="none" fill="#ffffff" stroke-width="1px">1%</tspan><tspan x="5" dy="19" stroke="none" fill="#ffffff" stroke-width="1px">Less frequently</tspan></text></g></g><g class="highcharts-tooltip" zIndex="8" style="cursor:default;padding:0;pointer-events:none;white-space:nowrap;" transform="translate(0,-9999)" stroke="none" fill="#000000" stroke-width="1px"><path fill="none" d="M 0 0 L 16 0 C 16 0 16 0 16 0 L 16 16 C 16 16 16 16 16 16 L 0 16 C 0 16 0 16 0 16 L 0 0 C 0 0 0 0 0 0" isShadow="true" stroke="#000000" stroke-opacity="0.049999999999999996" stroke-width="5px" transform="translate(1, 1)"></path><path fill="none" d="M 0 0 L 16 0 C 16 0 16 0 16 0 L 16 16 C 16 16 16 16 16 16 L 0 16 C 0 16 0 16 0 16 L 0 0 C 0 0 0 0 0 0" isShadow="true" stroke="#000000" stroke-opacity="0.09999999999999999" stroke-width="3px" transform="translate(1, 1)"></path><path fill="none" d="M 0 0 L 16 0 C 16 0 16 0 16 0 L 16 16 C 16 16 16 16 16 16 L 0 16 C 0 16 0 16 0 16 L 0 0 C 0 0 0 0 0 0" isShadow="true" stroke="#000000" stroke-opacity="0.15" stroke-width="1px" transform="translate(1, 1)"></path><path fill="#ffffff" d="M 0 0 L 16 0 C 16 0 16 0 16 0 L 16 16 C 16 16 16 16 16 16 L 0 16 C 0 16 0 16 0 16 L 0 0 C 0 0 0 0 0 0" stroke="none" stroke-width="1px"></path><text x="8" zIndex="1" style="font-size: 16px; color: rgb(51, 51, 51);" y="23" stroke="none" fill="#333333" stroke-width="1px"></text></g></svg>