<svg version="1.1" style="font-family:&quot;Gotham SSm A&quot;, &quot;Gotham SSm B&quot;, Helvetica, Arial, sans-serif;font-size:12px;" xmlns="http://www.w3.org/2000/svg" width="499" height="600"><desc stroke="none" fill="#000000" stroke-width="1px">Created with Highcharts 4.2.3</desc><defs><clipPath id="highcharts-31"><rect x="0" y="0" width="429" height="440"></rect></clipPath></defs><rect x="0" y="0" width="499" height="600" fill="rgba(0, 0, 0, 0)" class=" highcharts-background" stroke="none" stroke-width="1px"></rect><g class="highcharts-grid" zIndex="1" stroke="none" fill="#000000" stroke-width="1px"></g><g class="highcharts-grid" zIndex="1" stroke="none" fill="#000000" stroke-width="1px"><path fill="none" d="M 50 480.5 L 479 480.5" stroke="#d8d8d8" stroke-width="1px" zIndex="1" opacity="1"></path><path fill="none" d="M 50 407.5 L 479 407.5" stroke="#d8d8d8" stroke-width="1px" zIndex="1" opacity="1"></path><path fill="none" d="M 50 333.5 L 479 333.5" stroke="#d8d8d8" stroke-width="1px" zIndex="1" opacity="1"></path><path fill="none" d="M 50 260.5 L 479 260.5" stroke="#d8d8d8" stroke-width="1px" zIndex="1" opacity="1"></path><path fill="none" d="M 50 187.5 L 479 187.5" stroke="#d8d8d8" stroke-width="1px" zIndex="1" opacity="1"></path><path fill="none" d="M 50 113.5 L 479 113.5" stroke="#d8d8d8" stroke-width="1px" zIndex="1" opacity="1"></path><path fill="none" d="M 50 39.5 L 479 39.5" stroke="#d8d8d8" stroke-width="1px" zIndex="1" opacity="1"></path></g><g class="highcharts-axis" zIndex="2" stroke="none" fill="#000000" stroke-width="1px"><path fill="none" d="M 121.5 480 L 121.5 490" stroke="#dfdfdf" stroke-width="1px" opacity="1"></path><path fill="none" d="M 192.5 480 L 192.5 490" stroke="#dfdfdf" stroke-width="1px" opacity="1"></path><path fill="none" d="M 264.5 480 L 264.5 490" stroke="#dfdfdf" stroke-width="1px" opacity="1"></path><path fill="none" d="M 335.5 480 L 335.5 490" stroke="#dfdfdf" stroke-width="1px" opacity="1"></path><path fill="none" d="M 407.5 480 L 407.5 490" stroke="#dfdfdf" stroke-width="1px" opacity="1"></path><path fill="none" d="M 479.5 480 L 479.5 490" stroke="#dfdfdf" stroke-width="1px" opacity="1"></path><path fill="none" d="M 49.5 480 L 49.5 490" stroke="#dfdfdf" stroke-width="1px" opacity="1"></path><path fill="none" d="M 50 480.5 L 479 480.5" stroke="#c0d0e0" stroke-width="1px" zIndex="7"></path></g><g class="highcharts-axis" zIndex="2" stroke="none" fill="#000000" stroke-width="1px"><text x="-22.8125" zIndex="7" text-anchor="middle" transform="translate(0,0) rotate(270 -22.8125 260)" class=" highcharts-yaxis-title" style="color: rgb(0, 0, 0); font-size: 16px;" y="260" stroke="none" fill="#000000" stroke-width="1px">Values</text></g><g class="highcharts-series-group" zIndex="3" stroke="none" fill="#000000" stroke-width="1px"><g class="highcharts-series highcharts-series-0 highcharts-tracker" zIndex="0.1" transform="translate(50,40) scale(1 1)" style="" clip-path="url(#highcharts-31)" stroke="none" fill="#000000" stroke-width="1px"><rect x="7" y="82" width="58" height="359" fill="#00cfe4" rx="0" ry="0" stroke="none" stroke-width="1px"></rect><rect x="78" y="96" width="58" height="345" fill="#60e193" rx="0" ry="0" stroke="none" stroke-width="1px"></rect><rect x="150" y="236" width="58" height="205" fill="#e5d938" rx="0" ry="0" stroke="none" stroke-width="1px"></rect><rect x="221" y="265" width="58" height="176" fill="#9a8ef8" rx="0" ry="0" stroke="none" stroke-width="1px"></rect><rect x="293" y="280" width="58" height="161" fill="#f6a738" rx="0" ry="0" stroke="none" stroke-width="1px"></rect><rect x="364" y="382" width="58" height="59" fill="#e05ba5" rx="0" ry="0" stroke="none" stroke-width="1px"></rect></g><g class="highcharts-markers highcharts-series-0" zIndex="0.1" transform="translate(50,40) scale(1 1)" clip-path="none" stroke="none" fill="#000000" stroke-width="1px"></g></g><g class="highcharts-data-labels highcharts-series-0 highcharts-tracker" zIndex="6" visibility="visible" transform="translate(50,40) scale(1 1)" opacity="1" style="" stroke="none" fill="#000000" stroke-width="1px"><g zIndex="1" style="" transform="translate(12,52)" stroke="none" fill="#000000" stroke-width="1px"><text x="5" zIndex="1" style="font-size: 16px; font-weight: 700; color: rgb(0, 0, 0);" y="20" stroke="none" fill="#000000" stroke-width="1px"><tspan stroke="none" fill="#000000" stroke-width="1px">49%</tspan></text></g><g zIndex="1" style="" transform="translate(84,66)" stroke="none" fill="#000000" stroke-width="1px"><text x="5" zIndex="1" style="font-size: 16px; font-weight: 700; color: rgb(0, 0, 0);" y="20" stroke="none" fill="#000000" stroke-width="1px"><tspan stroke="none" fill="#000000" stroke-width="1px">47%</tspan></text></g><g zIndex="1" style="" transform="translate(156,206)" stroke="none" fill="#000000" stroke-width="1px"><text x="5" zIndex="1" style="font-size: 16px; font-weight: 700; color: rgb(0, 0, 0);" y="20" stroke="none" fill="#000000" stroke-width="1px"><tspan stroke="none" fill="#000000" stroke-width="1px">28%</tspan></text></g><g zIndex="1" style="" transform="translate(227,235)" stroke="none" fill="#000000" stroke-width="1px"><text x="5" zIndex="1" style="font-size: 16px; font-weight: 700; color: rgb(0, 0, 0);" y="20" stroke="none" fill="#000000" stroke-width="1px"><tspan stroke="none" fill="#000000" stroke-width="1px">24%</tspan></text></g><g zIndex="1" style="" transform="translate(299,250)" stroke="none" fill="#000000" stroke-width="1px"><text x="5" zIndex="1" style="font-size: 16px; font-weight: 700; color: rgb(0, 0, 0);" y="20" stroke="none" fill="#000000" stroke-width="1px"><tspan stroke="none" fill="#000000" stroke-width="1px">22%</tspan></text></g><g zIndex="1" style="" transform="translate(376,352)" stroke="none" fill="#000000" stroke-width="1px"><text x="5" zIndex="1" style="font-size: 16px; font-weight: 700; color: rgb(0, 0, 0);" y="20" stroke="none" fill="#000000" stroke-width="1px"><tspan stroke="none" fill="#000000" stroke-width="1px">8%</tspan></text></g></g><g class="highcharts-axis-labels highcharts-xaxis-labels" zIndex="7" stroke="none" fill="#000000" stroke-width="1px"><text x="89.04983164553722" style="color: rgb(52, 52, 52); cursor: default; font-size: 14px; width: 600px; text-overflow: ellipsis;" text-anchor="end" transform="translate(0,0) rotate(-45 89.04983164553722 498)" y="498" opacity="1" stroke="none" fill="#343434" stroke-width="1px"><tspan stroke="none" fill="#343434" stroke-width="1px">JavaScript</tspan></text><text x="160.5498316455372" style="color: rgb(52, 52, 52); cursor: default; font-size: 14px; width: 600px; text-overflow: ellipsis;" text-anchor="end" transform="translate(0,0) rotate(-45 160.5498316455372 498)" y="498" opacity="1" stroke="none" fill="#343434" stroke-width="1px"><tspan stroke="none" fill="#343434" stroke-width="1px">C/C++</tspan></text><text x="232.0498316455372" style="color: rgb(52, 52, 52); cursor: default; font-size: 14px; width: 600px; text-overflow: ellipsis;" text-anchor="end" transform="translate(0,0) rotate(-45 232.0498316455372 498)" y="498" opacity="1" stroke="none" fill="#343434" stroke-width="1px"><tspan stroke="none" fill="#343434" stroke-width="1px">Java</tspan></text><text x="303.5498316455372" style="color: rgb(52, 52, 52); cursor: default; font-size: 14px; width: 600px; text-overflow: ellipsis;" text-anchor="end" transform="translate(0,0) rotate(-45 303.5498316455372 498)" y="498" opacity="1" stroke="none" fill="#343434" stroke-width="1px"><tspan stroke="none" fill="#343434" stroke-width="1px">PHP</tspan></text><text x="375.0498316455372" style="color: rgb(52, 52, 52); cursor: default; font-size: 14px; width: 600px; text-overflow: ellipsis;" text-anchor="end" transform="translate(0,0) rotate(-45 375.0498316455372 498)" y="498" opacity="1" stroke="none" fill="#343434" stroke-width="1px"><tspan stroke="none" fill="#343434" stroke-width="1px">C#</tspan></text><text x="446.5498316455372" style="color: rgb(52, 52, 52); cursor: default; font-size: 14px; width: 600px; text-overflow: ellipsis;" text-anchor="end" transform="translate(0,0) rotate(-45 446.5498316455372 498)" y="498" opacity="1" stroke="none" fill="#343434" stroke-width="1px"><tspan stroke="none" fill="#343434" stroke-width="1px">Ruby</tspan></text></g><g class="highcharts-axis-labels highcharts-yaxis-labels" zIndex="7" stroke="none" fill="#000000" stroke-width="1px"><text x="35" style="color: rgb(52, 52, 52); cursor: default; font-size: 14px; width: 30px; text-overflow: clip;" text-anchor="end" transform="translate(0,0)" y="486" opacity="1" stroke="none" fill="#343434" stroke-width="1px">0%</text><text x="35" style="color: rgb(52, 52, 52); cursor: default; font-size: 14px; width: 30px; text-overflow: clip;" text-anchor="end" transform="translate(0,0)" y="412" opacity="1" stroke="none" fill="#343434" stroke-width="1px">10%</text><text x="35" style="color: rgb(52, 52, 52); cursor: default; font-size: 14px; width: 30px; text-overflow: clip;" text-anchor="end" transform="translate(0,0)" y="339" opacity="1" stroke="none" fill="#343434" stroke-width="1px">20%</text><text x="35" style="color: rgb(52, 52, 52); cursor: default; font-size: 14px; width: 30px; text-overflow: clip;" text-anchor="end" transform="translate(0,0)" y="266" opacity="1" stroke="none" fill="#343434" stroke-width="1px">30%</text><text x="35" style="color: rgb(52, 52, 52); cursor: default; font-size: 14px; width: 30px; text-overflow: clip;" text-anchor="end" transform="translate(0,0)" y="192" opacity="1" stroke="none" fill="#343434" stroke-width="1px">40%</text><text x="35" style="color: rgb(52, 52, 52); cursor: default; font-size: 14px; width: 30px; text-overflow: clip;" text-anchor="end" transform="translate(0,0)" y="119" opacity="1" stroke="none" fill="#343434" stroke-width="1px">50%</text><text x="35" style="color: rgb(52, 52, 52); cursor: default; font-size: 14px; width: 30px; text-overflow: clip;" text-anchor="end" transform="translate(0,0)" y="46" opacity="1" stroke="none" fill="#343434" stroke-width="1px">60%</text></g><g class="highcharts-tooltip" zIndex="8" style="cursor:default;padding:0;pointer-events:none;white-space:nowrap;" transform="translate(0,-9999)" stroke="none" fill="#000000" stroke-width="1px"><path fill="none" d="M 0 0 L 16 0 C 16 0 16 0 16 0 L 16 16 C 16 16 16 16 16 16 L 0 16 C 0 16 0 16 0 16 L 0 0 C 0 0 0 0 0 0" isShadow="true" stroke="#000000" stroke-opacity="0.049999999999999996" stroke-width="5px" transform="translate(1, 1)"></path><path fill="none" d="M 0 0 L 16 0 C 16 0 16 0 16 0 L 16 16 C 16 16 16 16 16 16 L 0 16 C 0 16 0 16 0 16 L 0 0 C 0 0 0 0 0 0" isShadow="true" stroke="#000000" stroke-opacity="0.09999999999999999" stroke-width="3px" transform="translate(1, 1)"></path><path fill="none" d="M 0 0 L 16 0 C 16 0 16 0 16 0 L 16 16 C 16 16 16 16 16 16 L 0 16 C 0 16 0 16 0 16 L 0 0 C 0 0 0 0 0 0" isShadow="true" stroke="#000000" stroke-opacity="0.15" stroke-width="1px" transform="translate(1, 1)"></path><path fill="#ffffff" d="M 0 0 L 16 0 C 16 0 16 0 16 0 L 16 16 C 16 16 16 16 16 16 L 0 16 C 0 16 0 16 0 16 L 0 0 C 0 0 0 0 0 0" stroke="none" stroke-width="1px"></path><text x="8" zIndex="1" style="font-size: 16px; color: rgb(51, 51, 51);" y="23" stroke="none" fill="#333333" stroke-width="1px"></text></g></svg>