<svg version="1.1" style="font-family:&quot;Gotham SSm A&quot;, &quot;Gotham SSm B&quot;, Helvetica, Arial, sans-serif;font-size:12px;" xmlns="http://www.w3.org/2000/svg" width="1240" height="600"><desc stroke="none" fill="#000000" stroke-width="1px">Created with Highcharts 4.2.3</desc><defs><clipPath id="highcharts-19"><rect x="0" y="0" width="1170" height="380"></rect></clipPath></defs><rect x="0" y="0" width="1240" height="600" fill="rgba(0, 0, 0, 0)" class=" highcharts-background" stroke="none" stroke-width="1px"></rect><g class="highcharts-grid" zIndex="1" stroke="none" fill="#000000" stroke-width="1px"></g><g class="highcharts-grid" zIndex="1" stroke="none" fill="#000000" stroke-width="1px"><path fill="none" d="M 50 420.5 L 1220 420.5" stroke="#d8d8d8" stroke-width="1px" zIndex="1" opacity="1"></path><path fill="none" d="M 50 357.5 L 1220 357.5" stroke="#d8d8d8" stroke-width="1px" zIndex="1" opacity="1"></path><path fill="none" d="M 50 293.5 L 1220 293.5" stroke="#d8d8d8" stroke-width="1px" zIndex="1" opacity="1"></path><path fill="none" d="M 50 230.5 L 1220 230.5" stroke="#d8d8d8" stroke-width="1px" zIndex="1" opacity="1"></path><path fill="none" d="M 50 167.5 L 1220 167.5" stroke="#d8d8d8" stroke-width="1px" zIndex="1" opacity="1"></path><path fill="none" d="M 50 103.5 L 1220 103.5" stroke="#d8d8d8" stroke-width="1px" zIndex="1" opacity="1"></path><path fill="none" d="M 50 39.5 L 1220 39.5" stroke="#d8d8d8" stroke-width="1px" zIndex="1" opacity="1"></path></g><g class="highcharts-axis" zIndex="2" stroke="none" fill="#000000" stroke-width="1px"><path fill="none" d="M 111.5 420 L 111.5 430" stroke="#dfdfdf" stroke-width="1px" opacity="1"></path><path fill="none" d="M 172.5 420 L 172.5 430" stroke="#dfdfdf" stroke-width="1px" opacity="1"></path><path fill="none" d="M 234.5 420 L 234.5 430" stroke="#dfdfdf" stroke-width="1px" opacity="1"></path><path fill="none" d="M 295.5 420 L 295.5 430" stroke="#dfdfdf" stroke-width="1px" opacity="1"></path><path fill="none" d="M 357.5 420 L 357.5 430" stroke="#dfdfdf" stroke-width="1px" opacity="1"></path><path fill="none" d="M 418.5 420 L 418.5 430" stroke="#dfdfdf" stroke-width="1px" opacity="1"></path><path fill="none" d="M 480.5 420 L 480.5 430" stroke="#dfdfdf" stroke-width="1px" opacity="1"></path><path fill="none" d="M 542.5 420 L 542.5 430" stroke="#dfdfdf" stroke-width="1px" opacity="1"></path><path fill="none" d="M 603.5 420 L 603.5 430" stroke="#dfdfdf" stroke-width="1px" opacity="1"></path><path fill="none" d="M 665.5 420 L 665.5 430" stroke="#dfdfdf" stroke-width="1px" opacity="1"></path><path fill="none" d="M 726.5 420 L 726.5 430" stroke="#dfdfdf" stroke-width="1px" opacity="1"></path><path fill="none" d="M 788.5 420 L 788.5 430" stroke="#dfdfdf" stroke-width="1px" opacity="1"></path><path fill="none" d="M 850.5 420 L 850.5 430" stroke="#dfdfdf" stroke-width="1px" opacity="1"></path><path fill="none" d="M 911.5 420 L 911.5 430" stroke="#dfdfdf" stroke-width="1px" opacity="1"></path><path fill="none" d="M 973.5 420 L 973.5 430" stroke="#dfdfdf" stroke-width="1px" opacity="1"></path><path fill="none" d="M 1034.5 420 L 1034.5 430" stroke="#dfdfdf" stroke-width="1px" opacity="1"></path><path fill="none" d="M 1096.5 420 L 1096.5 430" stroke="#dfdfdf" stroke-width="1px" opacity="1"></path><path fill="none" d="M 1157.5 420 L 1157.5 430" stroke="#dfdfdf" stroke-width="1px" opacity="1"></path><path fill="none" d="M 1219.5 420 L 1219.5 430" stroke="#dfdfdf" stroke-width="1px" opacity="1"></path><path fill="none" d="M 49.5 420 L 49.5 430" stroke="#dfdfdf" stroke-width="1px" opacity="1"></path><path fill="none" d="M 50 420.5 L 1220 420.5" stroke="#c0d0e0" stroke-width="1px" zIndex="7"></path></g><g class="highcharts-axis" zIndex="2" stroke="none" fill="#000000" stroke-width="1px"><text x="-22.8125" zIndex="7" text-anchor="middle" transform="translate(0,0) rotate(270 -22.8125 230)" class=" highcharts-yaxis-title" style="color: rgb(0, 0, 0); font-size: 16px;" y="230" stroke="none" fill="#000000" stroke-width="1px">Values</text></g><g class="highcharts-series-group" zIndex="3" stroke="none" fill="#000000" stroke-width="1px"><g class="highcharts-series highcharts-series-0 highcharts-tracker" zIndex="0.1" transform="translate(50,40) scale(1 1)" style="" clip-path="url(#highcharts-19)" stroke="none" fill="#000000" stroke-width="1px"><rect x="6" y="58" width="50" height="323" fill="#00cfe4" rx="0" ry="0" stroke="none" stroke-width="1px"></rect><rect x="67" y="109" width="50" height="272" fill="#60e193" rx="0" ry="0" stroke="none" stroke-width="1px"></rect><rect x="129" y="128" width="50" height="253" fill="#e5d938" rx="0" ry="0" stroke="none" stroke-width="1px"></rect><rect x="191" y="153" width="50" height="228" fill="#9a8ef8" rx="0" ry="0" stroke="none" stroke-width="1px"></rect><rect x="252" y="197" width="50" height="184" fill="#f6a738" rx="0" ry="0" stroke="none" stroke-width="1px"></rect><rect x="314" y="254" width="50" height="127" fill="#e05ba5" rx="0" ry="0" stroke="none" stroke-width="1px"></rect><rect x="375" y="280" width="50" height="101" fill="#00c4a1" rx="0" ry="0" stroke="none" stroke-width="1px"></rect><rect x="437" y="311" width="50" height="70" fill="#d83581" rx="0" ry="0" stroke="none" stroke-width="1px"></rect><rect x="498" y="324" width="50" height="57" fill="#ff4168" rx="0" ry="0" stroke="none" stroke-width="1px"></rect><rect x="560" y="330" width="50" height="51" fill="#00cfe4" rx="0" ry="0" stroke="none" stroke-width="1px"></rect><rect x="622" y="337" width="50" height="44" fill="#60e193" rx="0" ry="0" stroke="none" stroke-width="1px"></rect><rect x="683" y="337" width="50" height="44" fill="#e5d938" rx="0" ry="0" stroke="none" stroke-width="1px"></rect><rect x="745" y="343" width="50" height="38" fill="#9a8ef8" rx="0" ry="0" stroke="none" stroke-width="1px"></rect><rect x="806" y="343" width="50" height="38" fill="#f6a738" rx="0" ry="0" stroke="none" stroke-width="1px"></rect><rect x="868" y="349" width="50" height="32" fill="#e05ba5" rx="0" ry="0" stroke="none" stroke-width="1px"></rect><rect x="930" y="349" width="50" height="32" fill="#00c4a1" rx="0" ry="0" stroke="none" stroke-width="1px"></rect><rect x="991" y="356" width="50" height="25" fill="#d83581" rx="0" ry="0" stroke="none" stroke-width="1px"></rect><rect x="1053" y="368" width="50" height="13" fill="#ff4168" rx="0" ry="0" stroke="none" stroke-width="1px"></rect><rect x="1114" y="375" width="50" height="6" fill="#00cfe4" rx="0" ry="0" stroke="none" stroke-width="1px"></rect></g><g class="highcharts-markers highcharts-series-0" zIndex="0.1" transform="translate(50,40) scale(1 1)" clip-path="none" stroke="none" fill="#000000" stroke-width="1px"></g></g><g class="highcharts-data-labels highcharts-series-0 highcharts-tracker" zIndex="6" visibility="visible" transform="translate(50,40) scale(1 1)" opacity="1" style="" stroke="none" fill="#000000" stroke-width="1px"><g zIndex="1" style="" transform="translate(10,28)" stroke="none" fill="#000000" stroke-width="1px"><text x="5" zIndex="1" style="font-size: 16px; font-weight: 700; color: rgb(0, 0, 0);" y="20" stroke="none" fill="#000000" stroke-width="1px"><tspan stroke="none" fill="#000000" stroke-width="1px">51%</tspan></text></g><g zIndex="1" style="" transform="translate(69,79)" stroke="none" fill="#000000" stroke-width="1px"><text x="5" zIndex="1" style="font-size: 16px; font-weight: 700; color: rgb(0, 0, 0);" y="20" stroke="none" fill="#000000" stroke-width="1px"><tspan stroke="none" fill="#000000" stroke-width="1px">43%</tspan></text></g><g zIndex="1" style="" transform="translate(130,98)" stroke="none" fill="#000000" stroke-width="1px"><text x="5" zIndex="1" style="font-size: 16px; font-weight: 700; color: rgb(0, 0, 0);" y="20" stroke="none" fill="#000000" stroke-width="1px"><tspan stroke="none" fill="#000000" stroke-width="1px">40%</tspan></text></g><g zIndex="1" style="" transform="translate(193,123)" stroke="none" fill="#000000" stroke-width="1px"><text x="5" zIndex="1" style="font-size: 16px; font-weight: 700; color: rgb(0, 0, 0);" y="20" stroke="none" fill="#000000" stroke-width="1px"><tspan stroke="none" fill="#000000" stroke-width="1px">36%</tspan></text></g><g zIndex="1" style="" transform="translate(254,167)" stroke="none" fill="#000000" stroke-width="1px"><text x="5" zIndex="1" style="font-size: 16px; font-weight: 700; color: rgb(0, 0, 0);" y="20" stroke="none" fill="#000000" stroke-width="1px"><tspan stroke="none" fill="#000000" stroke-width="1px">29%</tspan></text></g><g zIndex="1" style="" transform="translate(315,224)" stroke="none" fill="#000000" stroke-width="1px"><text x="5" zIndex="1" style="font-size: 16px; font-weight: 700; color: rgb(0, 0, 0);" y="20" stroke="none" fill="#000000" stroke-width="1px"><tspan stroke="none" fill="#000000" stroke-width="1px">20%</tspan></text></g><g zIndex="1" style="" transform="translate(379,250)" stroke="none" fill="#000000" stroke-width="1px"><text x="5" zIndex="1" style="font-size: 16px; font-weight: 700; color: rgb(0, 0, 0);" y="20" stroke="none" fill="#000000" stroke-width="1px"><tspan stroke="none" fill="#000000" stroke-width="1px">16%</tspan></text></g><g zIndex="1" style="" transform="translate(443,281)" stroke="none" fill="#000000" stroke-width="1px"><text x="5" zIndex="1" style="font-size: 16px; font-weight: 700; color: rgb(0, 0, 0);" y="20" stroke="none" fill="#000000" stroke-width="1px"><tspan stroke="none" fill="#000000" stroke-width="1px">11%</tspan></text></g><g zIndex="1" style="" transform="translate(505,294)" stroke="none" fill="#000000" stroke-width="1px"><text x="5" zIndex="1" style="font-size: 16px; font-weight: 700; color: rgb(0, 0, 0);" y="20" stroke="none" fill="#000000" stroke-width="1px"><tspan stroke="none" fill="#000000" stroke-width="1px">9%</tspan></text></g><g zIndex="1" style="" transform="translate(568,300)" stroke="none" fill="#000000" stroke-width="1px"><text x="5" zIndex="1" style="font-size: 16px; font-weight: 700; color: rgb(0, 0, 0);" y="20" stroke="none" fill="#000000" stroke-width="1px"><tspan stroke="none" fill="#000000" stroke-width="1px">8%</tspan></text></g><g zIndex="1" style="" transform="translate(630,307)" stroke="none" fill="#000000" stroke-width="1px"><text x="5" zIndex="1" style="font-size: 16px; font-weight: 700; color: rgb(0, 0, 0);" y="20" stroke="none" fill="#000000" stroke-width="1px"><tspan stroke="none" fill="#000000" stroke-width="1px">7%</tspan></text></g><g zIndex="1" style="" transform="translate(691,307)" stroke="none" fill="#000000" stroke-width="1px"><text x="5" zIndex="1" style="font-size: 16px; font-weight: 700; color: rgb(0, 0, 0);" y="20" stroke="none" fill="#000000" stroke-width="1px"><tspan stroke="none" fill="#000000" stroke-width="1px">7%</tspan></text></g><g zIndex="1" style="" transform="translate(752,313)" stroke="none" fill="#000000" stroke-width="1px"><text x="5" zIndex="1" style="font-size: 16px; font-weight: 700; color: rgb(0, 0, 0);" y="20" stroke="none" fill="#000000" stroke-width="1px"><tspan stroke="none" fill="#000000" stroke-width="1px">6%</tspan></text></g><g zIndex="1" style="" transform="translate(813,313)" stroke="none" fill="#000000" stroke-width="1px"><text x="5" zIndex="1" style="font-size: 16px; font-weight: 700; color: rgb(0, 0, 0);" y="20" stroke="none" fill="#000000" stroke-width="1px"><tspan stroke="none" fill="#000000" stroke-width="1px">6%</tspan></text></g><g zIndex="1" style="" transform="translate(876,319)" stroke="none" fill="#000000" stroke-width="1px"><text x="5" zIndex="1" style="font-size: 16px; font-weight: 700; color: rgb(0, 0, 0);" y="20" stroke="none" fill="#000000" stroke-width="1px"><tspan stroke="none" fill="#000000" stroke-width="1px">5%</tspan></text></g><g zIndex="1" style="" transform="translate(938,319)" stroke="none" fill="#000000" stroke-width="1px"><text x="5" zIndex="1" style="font-size: 16px; font-weight: 700; color: rgb(0, 0, 0);" y="20" stroke="none" fill="#000000" stroke-width="1px"><tspan stroke="none" fill="#000000" stroke-width="1px">5%</tspan></text></g><g zIndex="1" style="" transform="translate(998,326)" stroke="none" fill="#000000" stroke-width="1px"><text x="5" zIndex="1" style="font-size: 16px; font-weight: 700; color: rgb(0, 0, 0);" y="20" stroke="none" fill="#000000" stroke-width="1px"><tspan stroke="none" fill="#000000" stroke-width="1px">4%</tspan></text></g><g zIndex="1" style="" transform="translate(1061,338)" stroke="none" fill="#000000" stroke-width="1px"><text x="5" zIndex="1" style="font-size: 16px; font-weight: 700; color: rgb(0, 0, 0);" y="20" stroke="none" fill="#000000" stroke-width="1px"><tspan stroke="none" fill="#000000" stroke-width="1px">2%</tspan></text></g><g zIndex="1" style="" transform="translate(1123,345)" stroke="none" fill="#000000" stroke-width="1px"><text x="5" zIndex="1" style="font-size: 16px; font-weight: 700; color: rgb(0, 0, 0);" y="20" stroke="none" fill="#000000" stroke-width="1px"><tspan stroke="none" fill="#000000" stroke-width="1px">1%</tspan></text></g></g><g class="highcharts-axis-labels highcharts-xaxis-labels" zIndex="7" stroke="none" fill="#000000" stroke-width="1px"><text x="84.08930532974776" style="color: rgb(52, 52, 52); cursor: default; font-size: 14px; width: 198px; text-overflow: ellipsis;" text-anchor="end" transform="translate(0,0) rotate(-45 84.08930532974776 438)" y="438" opacity="1" stroke="none" fill="#343434" stroke-width="1px"><tspan stroke="none" fill="#343434" stroke-width="1px">Django</tspan></text><text x="145.6682526981688" style="color: rgb(52, 52, 52); cursor: default; font-size: 14px; width: 198px; text-overflow: ellipsis;" text-anchor="end" transform="translate(0,0) rotate(-45 145.6682526981688 438)" y="438" opacity="1" stroke="none" fill="#343434" stroke-width="1px"><tspan stroke="none" fill="#343434" stroke-width="1px">IPython</tspan></text><text x="207.24720006658984" style="color: rgb(52, 52, 52); cursor: default; font-size: 14px; width: 198px; text-overflow: ellipsis;" text-anchor="end" transform="translate(0,0) rotate(-45 207.24720006658984 438)" y="438" opacity="1" stroke="none" fill="#343434" stroke-width="1px"><tspan stroke="none" fill="#343434" stroke-width="1px">Flask</tspan></text><text x="268.8261474350109" style="color: rgb(52, 52, 52); cursor: default; font-size: 14px; width: 198px; text-overflow: ellipsis;" text-anchor="end" transform="translate(0,0) rotate(-45 268.8261474350109 438)" y="438" opacity="1" stroke="none" fill="#343434" stroke-width="1px"><tspan stroke="none" fill="#343434" stroke-width="1px">Anaconda / numpy / mat…</tspan><title stroke="none" fill="#343434" stroke-width="1px">Anaconda / numpy / matplotlib / scipy and similar</title></text><text x="330.40509480343195" style="color: rgb(52, 52, 52); cursor: default; font-size: 14px; width: 198px; text-overflow: ellipsis;" text-anchor="end" transform="translate(0,0) rotate(-45 330.40509480343195 438)" y="438" opacity="1" stroke="none" fill="#343434" stroke-width="1px"><tspan stroke="none" fill="#343434" stroke-width="1px">SQLAlchemy</tspan></text><text x="391.984042171853" style="color: rgb(52, 52, 52); cursor: default; font-size: 14px; width: 198px; text-overflow: ellipsis;" text-anchor="end" transform="translate(0,0) rotate(-45 391.984042171853 438)" y="438" opacity="1" stroke="none" fill="#343434" stroke-width="1px"><tspan stroke="none" fill="#343434" stroke-width="1px">Pillow</tspan></text><text x="453.5629895402741" style="color: rgb(52, 52, 52); cursor: default; font-size: 14px; width: 198px; text-overflow: ellipsis;" text-anchor="end" transform="translate(0,0) rotate(-45 453.5629895402741 438)" y="438" opacity="1" stroke="none" fill="#343434" stroke-width="1px"><tspan stroke="none" fill="#343434" stroke-width="1px">PyQT/PyGTK/wxPython</tspan></text><text x="515.1419369086951" style="color: rgb(52, 52, 52); cursor: default; font-size: 14px; width: 198px; text-overflow: ellipsis;" text-anchor="end" transform="translate(0,0) rotate(-45 515.1419369086951 438)" y="438" opacity="1" stroke="none" fill="#343434" stroke-width="1px"><tspan stroke="none" fill="#343434" stroke-width="1px">Tornado</tspan></text><text x="576.7208842771162" style="color: rgb(52, 52, 52); cursor: default; font-size: 14px; width: 198px; text-overflow: ellipsis;" text-anchor="end" transform="translate(0,0) rotate(-45 576.7208842771162 438)" y="438" opacity="1" stroke="none" fill="#343434" stroke-width="1px"><tspan stroke="none" fill="#343434" stroke-width="1px">Sphinx</tspan></text><text x="638.2998316455372" style="color: rgb(52, 52, 52); cursor: default; font-size: 14px; width: 198px; text-overflow: ellipsis;" text-anchor="end" transform="translate(0,0) rotate(-45 638.2998316455372 438)" y="438" opacity="1" stroke="none" fill="#343434" stroke-width="1px"><tspan stroke="none" fill="#343434" stroke-width="1px">Tkinter</tspan></text><text x="699.8787790139583" style="color: rgb(52, 52, 52); cursor: default; font-size: 14px; width: 198px; text-overflow: ellipsis;" text-anchor="end" transform="translate(0,0) rotate(-45 699.8787790139583 438)" y="438" opacity="1" stroke="none" fill="#343434" stroke-width="1px"><tspan stroke="none" fill="#343434" stroke-width="1px">Google App Engine</tspan></text><text x="761.4577263823793" style="color: rgb(52, 52, 52); cursor: default; font-size: 14px; width: 198px; text-overflow: ellipsis;" text-anchor="end" transform="translate(0,0) rotate(-45 761.4577263823793 438)" y="438" opacity="1" stroke="none" fill="#343434" stroke-width="1px"><tspan stroke="none" fill="#343434" stroke-width="1px">Bottle</tspan></text><text x="823.0366737508004" style="color: rgb(52, 52, 52); cursor: default; font-size: 14px; width: 198px; text-overflow: ellipsis;" text-anchor="end" transform="translate(0,0) rotate(-45 823.0366737508004 438)" y="438" opacity="1" stroke="none" fill="#343434" stroke-width="1px"><tspan stroke="none" fill="#343434" stroke-width="1px">Pygame</tspan></text><text x="884.6156211192215" style="color: rgb(52, 52, 52); cursor: default; font-size: 14px; width: 198px; text-overflow: ellipsis;" text-anchor="end" transform="translate(0,0) rotate(-45 884.6156211192215 438)" y="438" opacity="1" stroke="none" fill="#343434" stroke-width="1px"><tspan stroke="none" fill="#343434" stroke-width="1px">web2py</tspan></text><text x="946.1945684876425" style="color: rgb(52, 52, 52); cursor: default; font-size: 14px; width: 198px; text-overflow: ellipsis;" text-anchor="end" transform="translate(0,0) rotate(-45 946.1945684876425 438)" y="438" opacity="1" stroke="none" fill="#343434" stroke-width="1px"><tspan stroke="none" fill="#343434" stroke-width="1px">Kivy</tspan></text><text x="1007.7735158560637" style="color: rgb(52, 52, 52); cursor: default; font-size: 14px; width: 198px; text-overflow: ellipsis;" text-anchor="end" transform="translate(0,0) rotate(-45 1007.7735158560637 438)" y="438" opacity="1" stroke="none" fill="#343434" stroke-width="1px"><tspan stroke="none" fill="#343434" stroke-width="1px">Pyramid</tspan></text><text x="1069.3524632244846" style="color: rgb(52, 52, 52); cursor: default; font-size: 14px; width: 198px; text-overflow: ellipsis;" text-anchor="end" transform="translate(0,0) rotate(-45 1069.3524632244846 438)" y="438" opacity="1" stroke="none" fill="#343434" stroke-width="1px"><tspan stroke="none" fill="#343434" stroke-width="1px">CherryPy</tspan></text><text x="1130.9314105929059" style="color: rgb(52, 52, 52); cursor: default; font-size: 14px; width: 198px; text-overflow: ellipsis;" text-anchor="end" transform="translate(0,0) rotate(-45 1130.9314105929059 438)" y="438" opacity="1" stroke="none" fill="#343434" stroke-width="1px"><tspan stroke="none" fill="#343434" stroke-width="1px">Twisted</tspan></text><text x="1192.510357961327" style="color: rgb(52, 52, 52); cursor: default; font-size: 14px; width: 198px; text-overflow: ellipsis;" text-anchor="end" transform="translate(0,0) rotate(-45 1192.510357961327 438)" y="438" opacity="1" stroke="none" fill="#343434" stroke-width="1px"><tspan stroke="none" fill="#343434" stroke-width="1px">Buildout</tspan></text></g><g class="highcharts-axis-labels highcharts-yaxis-labels" zIndex="7" stroke="none" fill="#000000" stroke-width="1px"><text x="35" style="color: rgb(52, 52, 52); cursor: default; font-size: 14px; width: 30px; text-overflow: clip;" text-anchor="end" transform="translate(0,0)" y="426" opacity="1" stroke="none" fill="#343434" stroke-width="1px">0%</text><text x="35" style="color: rgb(52, 52, 52); cursor: default; font-size: 14px; width: 30px; text-overflow: clip;" text-anchor="end" transform="translate(0,0)" y="362" opacity="1" stroke="none" fill="#343434" stroke-width="1px">10%</text><text x="35" style="color: rgb(52, 52, 52); cursor: default; font-size: 14px; width: 30px; text-overflow: clip;" text-anchor="end" transform="translate(0,0)" y="299" opacity="1" stroke="none" fill="#343434" stroke-width="1px">20%</text><text x="35" style="color: rgb(52, 52, 52); cursor: default; font-size: 14px; width: 30px; text-overflow: clip;" text-anchor="end" transform="translate(0,0)" y="236" opacity="1" stroke="none" fill="#343434" stroke-width="1px">30%</text><text x="35" style="color: rgb(52, 52, 52); cursor: default; font-size: 14px; width: 30px; text-overflow: clip;" text-anchor="end" transform="translate(0,0)" y="172" opacity="1" stroke="none" fill="#343434" stroke-width="1px">40%</text><text x="35" style="color: rgb(52, 52, 52); cursor: default; font-size: 14px; width: 30px; text-overflow: clip;" text-anchor="end" transform="translate(0,0)" y="109" opacity="1" stroke="none" fill="#343434" stroke-width="1px">50%</text><text x="35" style="color: rgb(52, 52, 52); cursor: default; font-size: 14px; width: 30px; text-overflow: clip;" text-anchor="end" transform="translate(0,0)" y="46" opacity="1" stroke="none" fill="#343434" stroke-width="1px">60%</text></g><g class="highcharts-tooltip" zIndex="8" style="cursor:default;padding:0;pointer-events:none;white-space:nowrap;" transform="translate(0,-9999)" stroke="none" fill="#000000" stroke-width="1px"><path fill="none" d="M 0 0 L 16 0 C 16 0 16 0 16 0 L 16 16 C 16 16 16 16 16 16 L 0 16 C 0 16 0 16 0 16 L 0 0 C 0 0 0 0 0 0" isShadow="true" stroke="#000000" stroke-opacity="0.049999999999999996" stroke-width="5px" transform="translate(1, 1)"></path><path fill="none" d="M 0 0 L 16 0 C 16 0 16 0 16 0 L 16 16 C 16 16 16 16 16 16 L 0 16 C 0 16 0 16 0 16 L 0 0 C 0 0 0 0 0 0" isShadow="true" stroke="#000000" stroke-opacity="0.09999999999999999" stroke-width="3px" transform="translate(1, 1)"></path><path fill="none" d="M 0 0 L 16 0 C 16 0 16 0 16 0 L 16 16 C 16 16 16 16 16 16 L 0 16 C 0 16 0 16 0 16 L 0 0 C 0 0 0 0 0 0" isShadow="true" stroke="#000000" stroke-opacity="0.15" stroke-width="1px" transform="translate(1, 1)"></path><path fill="#ffffff" d="M 0 0 L 16 0 C 16 0 16 0 16 0 L 16 16 C 16 16 16 16 16 16 L 0 16 C 0 16 0 16 0 16 L 0 0 C 0 0 0 0 0 0" stroke="none" stroke-width="1px"></path><text x="8" zIndex="1" style="font-size: 16px; color: rgb(51, 51, 51);" y="23" stroke="none" fill="#333333" stroke-width="1px"></text></g></svg>