<svg version="1.1" style="font-family:&quot;Gotham SSm A&quot;, &quot;Gotham SSm B&quot;, Helvetica, Arial, sans-serif;font-size:12px;" xmlns="http://www.w3.org/2000/svg" width="499" height="400"><desc stroke="none" fill="#000000" stroke-width="1px">Created with Highcharts 4.2.3</desc><defs><clipPath id="highcharts-1"><rect x="0" y="0" width="449" height="360"></rect></clipPath></defs><rect x="0" y="0" width="499" height="400" fill="rgba(0, 0, 0, 0)" class=" highcharts-background" stroke="none" stroke-width="1px"></rect><g class="highcharts-series-group" zIndex="3" stroke="none" fill="#000000" stroke-width="1px"><g class="highcharts-series highcharts-series-0 highcharts-tracker" zIndex="0.1" transform="translate(30,20) scale(1 1)" style="" stroke="none" fill="#000000" stroke-width="1px"><path fill="#00cfe4" d="M 194.984622673121 232.99999843402526 A 75.5 75.5 0 1 1 199.64868967072528 82.14325057206028 L 195 157.5 A 0 0 0 1 0 195 157.5 Z" stroke="#ffffff" stroke-width="1px" stroke-linejoin="round" transform="translate(0,0)"></path><path fill="#60e193" d="M 199.72404408324914 82.1479369393278 A 75.5 75.5 0 0 1 213.8239244016972 230.61572929349188 L 195 157.5 A 0 0 0 0 0 195 157.5 Z" stroke="#ffffff" stroke-width="1px" stroke-linejoin="round" transform="translate(0,0)"></path><path fill="#e5d938" d="M 213.75079927262823 230.63451665689468 A 75.5 75.5 0 0 1 195.07411335317082 232.99996362390436 L 195 157.5 A 0 0 0 0 0 195 157.5 Z" stroke="#ffffff" stroke-width="1px" stroke-linejoin="round" transform="translate(0,0)"></path></g><g class="highcharts-markers highcharts-series-0" zIndex="0.1" transform="translate(30,20) scale(1 1)" stroke="none" fill="#000000" stroke-width="1px"></g></g><g class="highcharts-data-labels highcharts-series-0 highcharts-tracker" zIndex="6" visibility="visible" transform="translate(30,20) scale(1 1)" opacity="1" style="" stroke="none" fill="#000000" stroke-width="1px"><path fill="none" d="M 84.55205788141532 154.1861649172575 C 89.55205788141532 154.1861649172575 97.54811036434118 154.4374509898825 108.54268252836422 154.78296933974192 L 119.53725469238726 155.12848768960134" stroke="#00cfe4" stroke-width="1px"></path><path fill="none" d="M 304.3551627855565 142 C 299.3551627855565 142 292.06729154880026 148.32443945144482 281.1161099381664 149.35963089794848 L 270.16492832753255 150.39482234445214" stroke="#60e193" stroke-width="1px"></path><path fill="none" d="M 213.22265614103424 262.1681009886774 C 208.22265614103424 262.1681009886774 207.2199902725197 254.23118337816157 205.84132470331235 243.31792166370232 L 204.462659134105 232.40465994924307" stroke="#e5d938" stroke-width="1px"></path><g zIndex="1" style="" transform="translate(0,134)" stroke="none" fill="#000000" stroke-width="1px"><text x="5" zIndex="1" style="font-size: 16px; font-weight: 300; color: rgb(0, 0, 0); text-shadow: rgb(255, 255, 255) 0px 0px 6px, rgb(255, 255, 255) 0px 0px 3px; text-rendering: geometricprecision;" y="20" stroke="none" fill="#000000" stroke-width="1px"><tspan style="font-size: 20px; font-weight: 700; y: -2px;" stroke="none" fill="#000000" stroke-width="1px">51%</tspan><tspan x="5" dy="19" stroke="none" fill="#000000" stroke-width="1px">Work in </tspan><tspan x="5" dy="19" stroke="none" fill="#000000" stroke-width="1px">a team</tspan></text></g><g zIndex="1" style="" transform="translate(309,122)" stroke="none" fill="#000000" stroke-width="1px"><text x="5" zIndex="1" style="font-size: 16px; font-weight: 300; color: rgb(0, 0, 0); text-shadow: rgb(255, 255, 255) 0px 0px 6px, rgb(255, 255, 255) 0px 0px 3px; text-rendering: geometricprecision;" y="20" stroke="none" fill="#000000" stroke-width="1px"><tspan style="font-size: 20px; font-weight: 700; y: -2px;" stroke="none" fill="#000000" stroke-width="1px">45%</tspan><tspan x="5" dy="19" stroke="none" fill="#000000" stroke-width="1px">Work on </tspan><tspan x="5" dy="19" stroke="none" fill="#000000" stroke-width="1px">own project(s) </tspan><tspan x="5" dy="19" stroke="none" fill="#000000" stroke-width="1px">independently</tspan></text></g><g zIndex="1" style="" transform="translate(218,242)" stroke="none" fill="#000000" stroke-width="1px"><text x="5" zIndex="1" style="font-size: 16px; font-weight: 300; color: rgb(0, 0, 0); text-shadow: rgb(255, 255, 255) 0px 0px 6px, rgb(255, 255, 255) 0px 0px 3px; text-rendering: geometricprecision;" y="20" stroke="none" fill="#000000" stroke-width="1px"><tspan style="font-size: 20px; font-weight: 700; y: -2px;" stroke="none" fill="#000000" stroke-width="1px">4%</tspan><tspan x="5" dy="19" stroke="none" fill="#000000" stroke-width="1px">Work as an </tspan><tspan x="5" dy="19" stroke="none" fill="#000000" stroke-width="1px"> external consult </tspan><tspan x="5" dy="19" stroke="none" fill="#000000" stroke-width="1px">or trainer</tspan></text></g></g><g class="highcharts-tooltip" zIndex="8" style="cursor:default;padding:0;pointer-events:none;white-space:nowrap;" transform="translate(0,-9999)" stroke="none" fill="#000000" stroke-width="1px"><path fill="none" d="M 0 0 L 16 0 C 16 0 16 0 16 0 L 16 16 C 16 16 16 16 16 16 L 0 16 C 0 16 0 16 0 16 L 0 0 C 0 0 0 0 0 0" isShadow="true" stroke="#000000" stroke-opacity="0.049999999999999996" stroke-width="5px" transform="translate(1, 1)"></path><path fill="none" d="M 0 0 L 16 0 C 16 0 16 0 16 0 L 16 16 C 16 16 16 16 16 16 L 0 16 C 0 16 0 16 0 16 L 0 0 C 0 0 0 0 0 0" isShadow="true" stroke="#000000" stroke-opacity="0.09999999999999999" stroke-width="3px" transform="translate(1, 1)"></path><path fill="none" d="M 0 0 L 16 0 C 16 0 16 0 16 0 L 16 16 C 16 16 16 16 16 16 L 0 16 C 0 16 0 16 0 16 L 0 0 C 0 0 0 0 0 0" isShadow="true" stroke="#000000" stroke-opacity="0.15" stroke-width="1px" transform="translate(1, 1)"></path><path fill="#ffffff" d="M 0 0 L 16 0 C 16 0 16 0 16 0 L 16 16 C 16 16 16 16 16 16 L 0 16 C 0 16 0 16 0 16 L 0 0 C 0 0 0 0 0 0" stroke="none" stroke-width="1px"></path><text x="8" zIndex="1" style="font-size: 16px; color: rgb(51, 51, 51);" y="23" stroke="none" fill="#333333" stroke-width="1px"></text></g></svg>