<svg version="1.1" style="font-family:&quot;Gotham SSm A&quot;, &quot;Gotham SSm B&quot;, Helvetica, Arial, sans-serif;font-size:12px;" xmlns="http://www.w3.org/2000/svg" width="499" height="260"><desc stroke="none" fill="#000000" stroke-width="1px">Created with Highcharts 4.2.3</desc><defs><clipPath id="highcharts-11"><rect x="0" y="0" width="449" height="210"></rect></clipPath></defs><rect x="0" y="0" width="499" height="260" fill="rgba(0, 0, 0, 0)" class=" highcharts-background" stroke="none" stroke-width="1px"></rect><g class="highcharts-series-group" zIndex="3" stroke="none" fill="#000000" stroke-width="1px"><g class="highcharts-series highcharts-series-0 highcharts-tracker" zIndex="0.1" transform="translate(30,0) scale(1 1)" style="" stroke="none" fill="#000000" stroke-width="1px"><path fill="#00cfe4" d="M 215.98615022214872 172.9999985895857 A 68 68 0 1 1 283.9999522315999 104.91939913066153 L 216 105 A 0 0 0 1 0 216 105 Z" stroke="#ffffff" stroke-width="1px" stroke-linejoin="round" transform="translate(0,0)"></path><path fill="#60e193" d="M 283.99999883248245 104.98739911186026 A 68 68 0 0 1 216.06675109954458 172.9999672374238 L 216 105 A 0 0 0 0 0 216 105 Z" stroke="#ffffff" stroke-width="1px" stroke-linejoin="round" transform="translate(0,0)"></path></g><g class="highcharts-markers highcharts-series-0" zIndex="0.1" transform="translate(30,0) scale(1 1)" stroke="none" fill="#000000" stroke-width="1px"></g></g><g class="highcharts-data-labels highcharts-series-0 highcharts-tracker" zIndex="6" visibility="visible" transform="translate(30,0) scale(1 1)" opacity="1" style="" stroke="none" fill="#000000" stroke-width="1px"><path fill="none" d="M 141.70353544371832 35.70353544371835 C 146.70353544371832 35.70353544371835 152.3603896932107 41.36038969321073 160.13856428626272 49.13856428626275 L 167.91673887931475 56.91673887931477" stroke="#00cfe4" stroke-width="1px"></path><path fill="none" d="M 290.29646455628165 174.29646455628165 C 285.29646455628165 174.29646455628165 279.6396103067893 168.63961030678928 271.86143571373725 160.86143571373725 L 264.0832611206852 153.08326112068522" stroke="#60e193" stroke-width="1px"></path><g zIndex="1" style="" transform="translate(50,16)" stroke="none" fill="#000000" stroke-width="1px"><text x="5" zIndex="1" style="font-size: 16px; font-weight: 300; color: rgb(0, 0, 0);" y="20" stroke="none" fill="#000000" stroke-width="1px"><tspan style="font-size: 20px; font-weight: 700; y: -2px;" stroke="none" fill="#000000" stroke-width="1px">75%</tspan><tspan x="5" dy="19" stroke="none" fill="#000000" stroke-width="1px">Main </tspan><tspan x="5" dy="19" stroke="none" fill="#000000" stroke-width="1px">language</tspan></text></g><g zIndex="1" style="" transform="translate(295,154)" stroke="none" fill="#000000" stroke-width="1px"><text x="5" zIndex="1" style="font-size: 16px; font-weight: 300; color: rgb(0, 0, 0);" y="20" stroke="none" fill="#000000" stroke-width="1px"><tspan style="font-size: 20px; font-weight: 700; y: -2px;" stroke="none" fill="#000000" stroke-width="1px">25%</tspan><tspan x="5" dy="19" stroke="none" fill="#000000" stroke-width="1px">Supplementary </tspan><tspan x="5" dy="19" stroke="none" fill="#000000" stroke-width="1px">language</tspan></text></g></g><g class="highcharts-tooltip" zIndex="8" style="cursor:default;padding:0;pointer-events:none;white-space:nowrap;" transform="translate(0,-9999)" stroke="none" fill="#000000" stroke-width="1px"><path fill="none" d="M 0 0 L 16 0 C 16 0 16 0 16 0 L 16 16 C 16 16 16 16 16 16 L 0 16 C 0 16 0 16 0 16 L 0 0 C 0 0 0 0 0 0" isShadow="true" stroke="#000000" stroke-opacity="0.049999999999999996" stroke-width="5px" transform="translate(1, 1)"></path><path fill="none" d="M 0 0 L 16 0 C 16 0 16 0 16 0 L 16 16 C 16 16 16 16 16 16 L 0 16 C 0 16 0 16 0 16 L 0 0 C 0 0 0 0 0 0" isShadow="true" stroke="#000000" stroke-opacity="0.09999999999999999" stroke-width="3px" transform="translate(1, 1)"></path><path fill="none" d="M 0 0 L 16 0 C 16 0 16 0 16 0 L 16 16 C 16 16 16 16 16 16 L 0 16 C 0 16 0 16 0 16 L 0 0 C 0 0 0 0 0 0" isShadow="true" stroke="#000000" stroke-opacity="0.15" stroke-width="1px" transform="translate(1, 1)"></path><path fill="#ffffff" d="M 0 0 L 16 0 C 16 0 16 0 16 0 L 16 16 C 16 16 16 16 16 16 L 0 16 C 0 16 0 16 0 16 L 0 0 C 0 0 0 0 0 0" stroke="none" stroke-width="1px"></path><text x="8" zIndex="1" style="font-size: 16px; color: rgb(51, 51, 51);" y="23" stroke="none" fill="#333333" stroke-width="1px"></text></g></svg>