<svg version="1.1" style="font-family:&quot;Gotham SSm A&quot;, &quot;Gotham SSm B&quot;, Helvetica, Arial, sans-serif;font-size:12px;" xmlns="http://www.w3.org/2000/svg" width="499" height="280"><desc stroke="none" fill="#000000" stroke-width="1px">Created with Highcharts 4.2.3</desc><defs><clipPath id="highcharts-33"><rect x="0" y="0" width="424" height="140"></rect></clipPath></defs><rect x="0" y="0" width="499" height="280" fill="rgba(0, 0, 0, 0)" class=" highcharts-background" stroke="none" stroke-width="1px"></rect><g class="highcharts-grid" zIndex="1" stroke="none" fill="#000000" stroke-width="1px"></g><g class="highcharts-grid" zIndex="1" stroke="none" fill="#000000" stroke-width="1px"><path fill="none" d="M 55 180.5 L 479 180.5" stroke="#d8d8d8" stroke-width="1px" zIndex="1" opacity="1"></path><path fill="none" d="M 55 110.5 L 479 110.5" stroke="#d8d8d8" stroke-width="1px" zIndex="1" opacity="1"></path><path fill="none" d="M 55 39.5 L 479 39.5" stroke="#d8d8d8" stroke-width="1px" zIndex="1" opacity="1"></path></g><g class="highcharts-axis" zIndex="2" stroke="none" fill="#000000" stroke-width="1px"><path fill="none" d="M 266.5 180 L 266.5 190" stroke="#dfdfdf" stroke-width="1px" opacity="1"></path><path fill="none" d="M 479.5 180 L 479.5 190" stroke="#dfdfdf" stroke-width="1px" opacity="1"></path><path fill="none" d="M 54.5 180 L 54.5 190" stroke="#dfdfdf" stroke-width="1px" opacity="1"></path><path fill="none" d="M 55 180.5 L 479 180.5" stroke="#c0d0e0" stroke-width="1px" zIndex="7"></path></g><g class="highcharts-axis" zIndex="2" stroke="none" fill="#000000" stroke-width="1px"><text x="-17.8125" zIndex="7" text-anchor="middle" transform="translate(0,0) rotate(270 -17.8125 110)" class=" highcharts-yaxis-title" style="color: rgb(0, 0, 0); font-size: 16px;" y="110" stroke="none" fill="#000000" stroke-width="1px">Values</text></g><g class="highcharts-series-group" zIndex="3" stroke="none" fill="#000000" stroke-width="1px"><g class="highcharts-series highcharts-series-0 highcharts-tracker" zIndex="0.1" transform="translate(55,40) scale(1 1)" style="" clip-path="url(#highcharts-33)" stroke="none" fill="#000000" stroke-width="1px"><rect x="20" y="61" width="172" height="80" fill="#00cfe4" rx="0" ry="0" stroke="none" stroke-width="1px"></rect><rect x="232" y="29" width="172" height="112" fill="#60e193" rx="0" ry="0" stroke="none" stroke-width="1px"></rect></g><g class="highcharts-markers highcharts-series-0" zIndex="0.1" transform="translate(55,40) scale(1 1)" clip-path="none" stroke="none" fill="#000000" stroke-width="1px"></g></g><g class="highcharts-data-labels highcharts-series-0 highcharts-tracker" zIndex="6" visibility="visible" transform="translate(55,40) scale(1 1)" opacity="1" style="" stroke="none" fill="#000000" stroke-width="1px"><g zIndex="1" style="" transform="translate(83,31)" stroke="none" fill="#000000" stroke-width="1px"><text x="5" zIndex="1" style="font-size: 16px; font-weight: 700; color: rgb(0, 0, 0);" y="20" stroke="none" fill="#000000" stroke-width="1px"><tspan stroke="none" fill="#000000" stroke-width="1px">23%</tspan></text></g><g zIndex="1" style="" transform="translate(295,-1)" stroke="none" fill="#000000" stroke-width="1px"><text x="5" zIndex="1" style="font-size: 16px; font-weight: 700; color: rgb(0, 0, 0);" y="20" stroke="none" fill="#000000" stroke-width="1px"><tspan stroke="none" fill="#000000" stroke-width="1px">32%</tspan></text></g></g><g class="highcharts-axis-labels highcharts-xaxis-labels" zIndex="7" stroke="none" fill="#000000" stroke-width="1px"><text x="161" style="color: rgb(52, 52, 52); cursor: default; font-size: 14px; width: 202px; text-overflow: clip;" text-anchor="middle" transform="translate(0,0)" y="202" opacity="1" stroke="none" fill="#343434" stroke-width="1px">PyCharm</text><text x="373" style="color: rgb(52, 52, 52); cursor: default; font-size: 14px; width: 202px; text-overflow: clip;" text-anchor="middle" transform="translate(0,0)" y="202" opacity="1" stroke="none" fill="#343434" stroke-width="1px"><tspan stroke="none" fill="#343434" stroke-width="1px">Other Editors</tspan></text></g><g class="highcharts-axis-labels highcharts-yaxis-labels" zIndex="7" stroke="none" fill="#000000" stroke-width="1px"><text x="40" style="color: rgb(52, 52, 52); cursor: default; font-size: 14px; width: 35px; text-overflow: clip;" text-anchor="end" transform="translate(0,0)" y="186" opacity="1" stroke="none" fill="#343434" stroke-width="1px">0%</text><text x="40" style="color: rgb(52, 52, 52); cursor: default; font-size: 14px; width: 35px; text-overflow: clip;" text-anchor="end" transform="translate(0,0)" y="116" opacity="1" stroke="none" fill="#343434" stroke-width="1px">20%</text><text x="40" style="color: rgb(52, 52, 52); cursor: default; font-size: 14px; width: 35px; text-overflow: clip;" text-anchor="end" transform="translate(0,0)" y="46" opacity="1" stroke="none" fill="#343434" stroke-width="1px">40%</text></g><g class="highcharts-tooltip" zIndex="8" style="cursor:default;padding:0;pointer-events:none;white-space:nowrap;" transform="translate(92,-9999)" opacity="0" visibility="visible" stroke="none" fill="#000000" stroke-width="1px"><path fill="none" d="M 0 0 L 138 0 C 138 0 138 0 138 0 L 138 36 C 138 36 138 36 138 36 L 75 36 69 42 63 36 0 36 C 0 36 0 36 0 36 L 0 0 C 0 0 0 0 0 0" isShadow="true" stroke="#000000" stroke-opacity="0.049999999999999996" stroke-width="5px" transform="translate(1, 1)"></path><path fill="none" d="M 0 0 L 138 0 C 138 0 138 0 138 0 L 138 36 C 138 36 138 36 138 36 L 75 36 69 42 63 36 0 36 C 0 36 0 36 0 36 L 0 0 C 0 0 0 0 0 0" isShadow="true" stroke="#000000" stroke-opacity="0.09999999999999999" stroke-width="3px" transform="translate(1, 1)"></path><path fill="none" d="M 0 0 L 138 0 C 138 0 138 0 138 0 L 138 36 C 138 36 138 36 138 36 L 75 36 69 42 63 36 0 36 C 0 36 0 36 0 36 L 0 0 C 0 0 0 0 0 0" isShadow="true" stroke="#000000" stroke-opacity="0.15" stroke-width="1px" transform="translate(1, 1)"></path><path fill="#ffffff" d="M 0 0 L 138 0 C 138 0 138 0 138 0 L 138 36 C 138 36 138 36 138 36 L 75 36 69 42 63 36 0 36 C 0 36 0 36 0 36 L 0 0 C 0 0 0 0 0 0" stroke="none" stroke-width="1px"></path><text x="8" zIndex="1" style="font-size: 16px; color: rgb(51, 51, 51);" y="23" stroke="none" fill="#333333" stroke-width="1px"><tspan stroke="none" fill="#333333" stroke-width="1px">PyCharm: </tspan><tspan style="font-weight:bold" dx="0" stroke="none" fill="#333333" stroke-width="1px">23%</tspan></text></g></svg>