<svg version="1.1" style="font-family:&quot;Gotham SSm A&quot;, &quot;Gotham SSm B&quot;, Helvetica, Arial, sans-serif;font-size:12px;" xmlns="http://www.w3.org/2000/svg" width="499" height="300"><desc stroke="none" fill="#000000" stroke-width="1px">Created with Highcharts 4.2.3</desc><defs><clipPath id="highcharts-21"><rect x="0" y="0" width="449" height="240"></rect></clipPath></defs><rect x="0" y="0" width="499" height="300" fill="rgba(0, 0, 0, 0)" class=" highcharts-background" stroke="none" stroke-width="1px"></rect><g class="highcharts-series-group" zIndex="3" stroke="none" fill="#000000" stroke-width="1px"><g class="highcharts-series highcharts-series-0 highcharts-tracker" zIndex="0.1" transform="translate(30,40) scale(1 1)" style="" stroke="none" fill="#000000" stroke-width="1px"><path fill="#9a8ef8" d="M 209.98808511758384 182.99999878662885 A 58.5 58.5 0 0 1 151.95212415859223 117.24092910211581 L 210 124.5 A 0 0 0 0 0 210 124.5 Z" stroke="#ffffff" stroke-width="1px" stroke-linejoin="round" transform="translate(0,0)"></path><path fill="#877ae7" d="M 151.95941225221577 117.18288486548421 A 58.5 58.5 0 0 1 206.2942275442485 66.11749191319207 L 210 124.5 A 0 0 0 0 0 210 124.5 Z" stroke="#ffffff" stroke-width="1px" stroke-linejoin="round" transform="translate(0,0)"></path><path fill="#7266d1" d="M 206.35261189549098 66.11381533260555 A 58.5 58.5 0 0 1 262.8984002819267 99.51982290669146 L 210 124.5 A 0 0 0 0 0 210 124.5 Z" stroke="#ffffff" stroke-width="1px" stroke-linejoin="round" transform="translate(0,0)"></path><path fill="#5d51b9" d="M 262.9233540056587 99.57273378824452 A 58.5 58.5 0 0 1 255.1247914648767 161.72906385139697 L 210 124.5 A 0 0 0 0 0 210 124.5 Z" stroke="#ffffff" stroke-width="1px" stroke-linejoin="round" transform="translate(0,0)"></path><path fill="#4c429e" d="M 255.08753984483627 161.7741700208107 A 58.5 58.5 0 0 1 210.05742557828466 182.99997181454842 L 210 124.5 A 0 0 0 0 0 210 124.5 Z" stroke="#ffffff" stroke-width="1px" stroke-linejoin="round" transform="translate(0,0)"></path></g><g class="highcharts-markers highcharts-series-0" zIndex="0.1" transform="translate(30,40) scale(1 1)" stroke="none" fill="#000000" stroke-width="1px"></g></g><g class="highcharts-data-labels highcharts-series-0 highcharts-tracker" zIndex="6" visibility="visible" transform="translate(30,40) scale(1 1)" opacity="1" style="" stroke="none" fill="#000000" stroke-width="1px"><path fill="none" d="M 138.61517033770434 183.0261000811432 C 143.61517033770434 183.0261000811432 149.61605889474805 177.73560515855397 157.8672806606831 170.4611746399938 L 166.11850242661814 163.18674412143363" stroke="#9a8ef8" stroke-width="1px"></path><path fill="none" d="M 144.41758112531105 59.98627647320508 C 149.41758112531105 59.98627647320508 154.89395797274057 65.81802549257637 162.42397613795615 73.8366803942119 L 169.95399430317173 81.85533529584742" stroke="#877ae7" stroke-width="1px"></path><path fill="none" d="M 260.0501652939079 36 C 255.05016529390792 36 250.97783396790493 55.21026682618256 245.37837839465084 64.67842912322594 L 239.77892282139675 74.14659142026932" stroke="#7266d1" stroke-width="1px"></path><path fill="none" d="M 301.7525215771853 107 C 296.7525215771853 107 289.86523345581554 134.5893253019264 278.95197174135626 133.21065973271908 L 268.038710026897 131.83199416351175" stroke="#5d51b9" stroke-width="1px"></path><path fill="none" d="M 252.681467303509 204.57719414324268 C 247.681467303509 204.57719414324268 244.2752329709884 197.33857772351453 239.5916607637726 187.38548014638832 L 234.9080885565568 177.4323825692621" stroke="#4c429e" stroke-width="1px"></path><g zIndex="1" style="" transform="translate(10,163)" stroke="none" fill="#000000" stroke-width="1px"><text x="5" zIndex="1" style="font-size: 16px; font-weight: 300; color: rgb(0, 0, 0);" y="20" stroke="none" fill="#000000" stroke-width="1px"><tspan style="font-size: 20px; font-weight: 700; y: -2px;" stroke="none" fill="#000000" stroke-width="1px">27%</tspan><tspan x="5" dy="19" stroke="none" fill="#000000" stroke-width="1px">Scientific or</tspan><tspan x="5" dy="19" stroke="none" fill="#000000" stroke-width="1px">Data Analysis</tspan></text></g><g zIndex="1" style="" transform="translate(18,40)" stroke="none" fill="#000000" stroke-width="1px"><text x="5" zIndex="1" style="font-size: 16px; font-weight: 300; color: rgb(0, 0, 0);" y="20" stroke="none" fill="#000000" stroke-width="1px"><tspan style="font-size: 20px; font-weight: 700; y: -2px;" stroke="none" fill="#000000" stroke-width="1px">22%</tspan><tspan x="5" dy="19" stroke="none" fill="#000000" stroke-width="1px">Web </tspan><tspan x="5" dy="19" stroke="none" fill="#000000" stroke-width="1px">Development</tspan></text></g><g zIndex="1" style="" transform="translate(265,16)" stroke="none" fill="#000000" stroke-width="1px"><text x="5" zIndex="1" style="font-size: 16px; font-weight: 300; color: rgb(0, 0, 0);" y="20" stroke="none" fill="#000000" stroke-width="1px"><tspan style="font-size: 20px; font-weight: 700; y: -2px;" stroke="none" fill="#000000" stroke-width="1px">19%</tspan><tspan x="5" dy="19" stroke="none" fill="#000000" stroke-width="1px">Data </tspan><tspan x="5" dy="19" stroke="none" fill="#000000" stroke-width="1px">analysis</tspan></text></g><g zIndex="1" style="" transform="translate(307,87)" stroke="none" fill="#000000" stroke-width="1px"><text x="5" zIndex="1" style="font-size: 16px; font-weight: 300; color: rgb(0, 0, 0);" y="20" stroke="none" fill="#000000" stroke-width="1px"><tspan style="font-size: 20px; font-weight: 700; y: -2px;" stroke="none" fill="#000000" stroke-width="1px">18%</tspan><tspan x="5" dy="19" stroke="none" fill="#000000" stroke-width="1px">Software </tspan><tspan x="5" dy="19" stroke="none" fill="#000000" stroke-width="1px">Development</tspan></text></g><g zIndex="1" style="" transform="translate(258,185)" stroke="none" fill="#000000" stroke-width="1px"><text x="5" zIndex="1" style="font-size: 16px; font-weight: 300; color: rgb(0, 0, 0);" y="20" stroke="none" fill="#000000" stroke-width="1px"><tspan style="font-size: 20px; font-weight: 700; y: -2px;" stroke="none" fill="#000000" stroke-width="1px">14%</tspan><tspan x="5" dy="19" stroke="none" fill="#000000" stroke-width="1px">Other</tspan></text></g></g><g class="highcharts-tooltip" zIndex="8" style="cursor:default;padding:0;pointer-events:none;white-space:nowrap;" transform="translate(0,-9999)" stroke="none" fill="#000000" stroke-width="1px"><path fill="none" d="M 0 0 L 16 0 C 16 0 16 0 16 0 L 16 16 C 16 16 16 16 16 16 L 0 16 C 0 16 0 16 0 16 L 0 0 C 0 0 0 0 0 0" isShadow="true" stroke="#000000" stroke-opacity="0.049999999999999996" stroke-width="5px" transform="translate(1, 1)"></path><path fill="none" d="M 0 0 L 16 0 C 16 0 16 0 16 0 L 16 16 C 16 16 16 16 16 16 L 0 16 C 0 16 0 16 0 16 L 0 0 C 0 0 0 0 0 0" isShadow="true" stroke="#000000" stroke-opacity="0.09999999999999999" stroke-width="3px" transform="translate(1, 1)"></path><path fill="none" d="M 0 0 L 16 0 C 16 0 16 0 16 0 L 16 16 C 16 16 16 16 16 16 L 0 16 C 0 16 0 16 0 16 L 0 0 C 0 0 0 0 0 0" isShadow="true" stroke="#000000" stroke-opacity="0.15" stroke-width="1px" transform="translate(1, 1)"></path><path fill="#ffffff" d="M 0 0 L 16 0 C 16 0 16 0 16 0 L 16 16 C 16 16 16 16 16 16 L 0 16 C 0 16 0 16 0 16 L 0 0 C 0 0 0 0 0 0" stroke="none" stroke-width="1px"></path><text x="8" zIndex="1" style="font-size: 16px; color: rgb(51, 51, 51);" y="23" stroke="none" fill="#333333" stroke-width="1px"></text></g></svg>