<svg version="1.1" style="font-family:&quot;Gotham SSm A&quot;, &quot;Gotham SSm B&quot;, Helvetica, Arial, sans-serif;font-size:12px;" xmlns="http://www.w3.org/2000/svg" width="499" height="400"><desc stroke="none" fill="#000000" stroke-width="1px">Created with Highcharts 4.2.3</desc><defs><clipPath id="highcharts-3"><rect x="0" y="0" width="449" height="280"></rect></clipPath></defs><rect x="0" y="0" width="499" height="400" fill="rgba(0, 0, 0, 0)" class=" highcharts-background" stroke="none" stroke-width="1px"></rect><g class="highcharts-series-group" zIndex="3" stroke="none" fill="#000000" stroke-width="1px"><g class="highcharts-series highcharts-series-0 highcharts-tracker" zIndex="0.1" transform="translate(30,20) scale(1 1)" style="" stroke="none" fill="#000000" stroke-width="1px"><path fill="#00cfe4" d="M 224.47983635283418 238.99999794660266 A 99 99 0 1 1 318.6956440716489 170.46605714442276 L 224.5 140 A 0 0 0 1 0 224.5 140 Z" stroke="#ffffff" stroke-width="1px" stroke-linejoin="round" transform="translate(0,0)"></path><path fill="#60e193" d="M 318.66513092176405 170.56023753976788 A 99 99 0 0 1 224.5971817478664 238.99995230154346 L 224.5 140 A 0 0 0 0 0 224.5 140 Z" stroke="#ffffff" stroke-width="1px" stroke-linejoin="round" transform="translate(0,0)"></path></g><g class="highcharts-markers highcharts-series-0" zIndex="0.1" transform="translate(30,20) scale(1 1)" stroke="none" fill="#000000" stroke-width="1px"></g></g><g class="highcharts-data-labels highcharts-series-0 highcharts-tracker" zIndex="6" visibility="visible" transform="translate(30,20) scale(1 1)" opacity="1" style="" stroke="none" fill="#000000" stroke-width="1px"><path fill="none" d="M 143.67570245427095 35.6368077256318 C 148.67570245427095 35.6368077256318 153.37798447261073 42.10894368063137 159.84362224782794 51.00813061875579 L 166.30926002304514 59.907317556880216" stroke="#00cfe4" stroke-width="1px"></path><path fill="none" d="M 305.324297545729 244.36319227436823 C 300.324297545729 244.36319227436823 295.62201552738924 237.89105631936863 289.15637775217203 228.99186938124421 L 282.69073997695483 220.0926824431198" stroke="#60e193" stroke-width="1px"></path><g zIndex="1" style="" transform="translate(36,16)" stroke="none" fill="#000000" stroke-width="1px"><text x="5" zIndex="1" style="font-size: 16px; font-weight: 300; color: rgb(0, 0, 0); text-shadow: rgb(255, 255, 255) 0px 0px 6px, rgb(255, 255, 255) 0px 0px 3px; text-rendering: geometricprecision;" y="20" stroke="none" fill="#000000" stroke-width="1px"><tspan style="font-size: 20px; font-weight: 700; y: -2px;" stroke="none" fill="#000000" stroke-width="1px">80%</tspan><tspan x="5" dy="19" stroke="none" fill="#000000" stroke-width="1px">Work in </tspan><tspan x="5" dy="19" stroke="none" fill="#000000" stroke-width="1px">a company</tspan></text></g><g zIndex="1" style="" transform="translate(310,224)" stroke="none" fill="#000000" stroke-width="1px"><text x="5" zIndex="1" style="font-size: 16px; font-weight: 300; color: rgb(0, 0, 0); text-shadow: rgb(255, 255, 255) 0px 0px 6px, rgb(255, 255, 255) 0px 0px 3px; text-rendering: geometricprecision;" y="20" stroke="none" fill="#000000" stroke-width="1px"><tspan style="font-size: 20px; font-weight: 700; y: -2px;" stroke="none" fill="#000000" stroke-width="1px">20%</tspan><tspan x="5" dy="19" stroke="none" fill="#000000" stroke-width="1px">Work on </tspan><tspan x="5" dy="19" stroke="none" fill="#000000" stroke-width="1px">their own</tspan></text></g></g><g class="highcharts-tooltip" zIndex="8" style="cursor:default;padding:0;pointer-events:none;white-space:nowrap;" transform="translate(0,-9999)" stroke="none" fill="#000000" stroke-width="1px"><path fill="none" d="M 0 0 L 16 0 C 16 0 16 0 16 0 L 16 16 C 16 16 16 16 16 16 L 0 16 C 0 16 0 16 0 16 L 0 0 C 0 0 0 0 0 0" isShadow="true" stroke="#000000" stroke-opacity="0.049999999999999996" stroke-width="5px" transform="translate(1, 1)"></path><path fill="none" d="M 0 0 L 16 0 C 16 0 16 0 16 0 L 16 16 C 16 16 16 16 16 16 L 0 16 C 0 16 0 16 0 16 L 0 0 C 0 0 0 0 0 0" isShadow="true" stroke="#000000" stroke-opacity="0.09999999999999999" stroke-width="3px" transform="translate(1, 1)"></path><path fill="none" d="M 0 0 L 16 0 C 16 0 16 0 16 0 L 16 16 C 16 16 16 16 16 16 L 0 16 C 0 16 0 16 0 16 L 0 0 C 0 0 0 0 0 0" isShadow="true" stroke="#000000" stroke-opacity="0.15" stroke-width="1px" transform="translate(1, 1)"></path><path fill="#ffffff" d="M 0 0 L 16 0 C 16 0 16 0 16 0 L 16 16 C 16 16 16 16 16 16 L 0 16 C 0 16 0 16 0 16 L 0 0 C 0 0 0 0 0 0" stroke="none" stroke-width="1px"></path><text x="8" zIndex="1" style="font-size: 16px; color: rgb(51, 51, 51);" y="23" stroke="none" fill="#333333" stroke-width="1px"></text></g></svg>