<svg xmlns="http://www.w3.org/2000/svg" xmlns:xlink="http://www.w3.org/1999/xlink" width="60" height="36" viewBox="0 0 60 36">
    <defs>
        <path id="a" d="M0 .052h54.49v12.306H0z"/>
        <path id="c" d="M.127.153h12.845v18.601H.127z"/>
        <path id="e" d="M.023.162h11.162v10.472H.023z"/>
    </defs>
    <g fill="none" fill-rule="evenodd">
        <g transform="translate(0 23.642)">
            <mask id="b" fill="#fff">
                <use xlink:href="#a"/>
            </mask>
            <path fill="#FFD43B" d="M29.714 12.358C19.222 12.302 9.937 8.936 1.837 2.33 1.325 1.912.842 1.462.349 1.023.104.806-.144.535.1.223.342-.088.677.088.952.25 4.69 2.44 8.638 4.155 12.778 5.443A59.508 59.508 0 0 0 22.495 7.6c2.924.395 5.858.626 8.806.561 7.373-.162 14.472-1.639 21.283-4.454.214-.088.426-.182.644-.26.5-.18.993-.045 1.181.318.183.352.057.834-.38 1.108-1.578.992-3.12 2.058-4.772 2.912-4.039 2.089-8.356 3.374-12.857 4.05-1.11.167-2.227.314-3.346.38-1.104.064-2.215.014-3.323.014l-.017.13" mask="url(#b)"/>
        </g>
        <path fill="#FFD43B" d="M30.134 4.41l-1.574 6.486-1.384 5.74c-.222.914-.437 1.084-1.378 1.092-.407.003-.815.002-1.222 0-.99-.003-1.176-.136-1.463-1.07-1.118-3.64-2.234-7.281-3.35-10.922-.434-1.419-.875-2.836-1.292-4.26-.221-.756-.07-.932.717-.934h1.32c1.006.002 1.208.15 1.46 1.12.468 1.796.927 3.593 1.388 5.39.565 2.204 1.127 4.408 1.693 6.61.039.151.094.297.188.593.09-.312.148-.485.19-.662.95-3.986 1.898-7.972 2.849-11.957C28.499.7 28.688.55 29.643.543c.473-.004.946-.012 1.419.004.734.026.945.184 1.119.902.723 2.995 1.433 5.993 2.148 8.99.306 1.282.612 2.564 1.029 3.862.053-.19.11-.377.16-.567 1.05-4.01 2.097-8.022 3.147-12.032.268-1.023.452-1.159 1.53-1.16l1.418.001c.42 0 .598.212.538.615-.029.19-.077.38-.135.563a27169.22 27169.22 0 0 1-4.734 14.952c-.295.93-.46 1.05-1.42 1.055-.457.002-.914.007-1.37-.002-.804-.016-1.033-.192-1.225-.969-.787-3.195-1.567-6.392-2.351-9.588-.226-.921-.456-1.842-.684-2.763l-.098.004zM9.55 10.209l-.01.043c-.421.027-.844.035-1.263.083-2.18.253-3.287 1.88-2.728 3.998.238.903.818 1.491 1.72 1.671 1.576.315 3.032-.016 4.312-1.005a3.25 3.25 0 0 0 1.286-2.274c.058-.517.049-1.041.1-1.559.035-.35-.097-.503-.434-.547-.995-.13-1.989-.272-2.983-.41m3.713 5.797c-.297.324-.536.624-.814.879-1.863 1.706-4.06 2.244-6.46 1.74-2.73-.572-4.106-2.947-3.78-5.807.307-2.682 2.243-4.508 5-4.89 1.79-.249 3.542-.02 5.29.348.173.036.346.07.59.118.013-1.455.165-2.883-.547-4.188-.577-1.057-1.605-1.298-2.665-1.41-1.83-.193-3.559.247-5.242.94-1.186.488-1.25.404-1.32-.901-.05-.922.303-1.407 1.11-1.744C6.76.115 9.15-.258 11.648.184 14.4.671 16.084 2.5 16.215 5.37c.111 2.424.1 4.855.077 7.283-.013 1.306.199 2.521.834 3.661.29.52.216.768-.25 1.105-.387.28-.783.545-1.182.805-.415.27-.828.247-1.135-.155-.35-.458-.649-.957-.961-1.444-.113-.176-.201-.37-.335-.619"/>
        <g transform="translate(44.324)">
            <mask id="d" fill="#fff">
                <use xlink:href="#c"/>
            </mask>
            <path fill="#FFD43B" d="M6.11 18.754c-1.622-.039-3.19-.29-4.685-.913-1.126-.47-1.536-1.414-1.166-2.606.11-.355.375-.389.66-.295.322.105.628.257.944.378 1.908.731 3.862 1.04 5.874.573.952-.222 1.743-.704 2.008-1.773.229-.923-.065-1.793-.867-2.267-.566-.335-1.188-.584-1.808-.807-1-.36-2.027-.647-3.03-1.002-1.053-.371-1.987-.942-2.668-1.876C-.21 5.995.23 3.111 2.413 1.483 3.934.348 5.688.012 7.507.203c1.142.121 2.282.41 3.38.761 1.078.345 1.491 1.433 1.096 2.526-.137.379-.417.338-.72.236-.778-.26-1.546-.575-2.342-.751-1.19-.263-2.403-.283-3.593.04-1.188.323-1.751 1.053-1.726 2.176.016.742.354 1.324.975 1.655.681.363 1.405.651 2.128.92 1.059.39 2.15.692 3.198 1.11 1.759.699 2.904 1.965 3.052 3.956.15 2.035-.67 3.626-2.336 4.738-1.372.915-2.924 1.156-4.509 1.184" mask="url(#d)"/>
        </g>
        <g transform="translate(48.649 22.567)">
            <mask id="f" fill="#fff">
                <use xlink:href="#e"/>
            </mask>
            <path fill="#FFD43B" d="M4.985 2.212c-1.359.12-2.867.26-4.376.38-.191.016-.39-.075-.586-.117.093-.186.133-.444.287-.549C1.414 1.17 2.666.726 3.985.472 5.865.109 7.76.027 9.64.432c1.263.273 1.683.286 1.507 2.16a12.305 12.305 0 0 1-2.43 6.328c-.414.556-.937 1.043-1.451 1.52-.148.138-.44.133-.665.194.006-.21-.039-.438.027-.63.563-1.66 1.15-3.31 1.718-4.968.087-.256.116-.533.155-.802.165-1.16-.303-1.725-1.565-1.868-.595-.067-1.194-.096-1.95-.154" mask="url(#f)"/>
        </g>
    </g>
</svg>
