<svg xmlns="http://www.w3.org/2000/svg" xmlns:xlink="http://www.w3.org/1999/xlink" width="60" height="60" viewBox="0 0 60 60">
    <defs>
        <path id="a" d="M.339.233H20v19.726H.339z"/>
        <path id="c" d="M0 .891h12.737v12.835H0z"/>
    </defs>
    <g fill="none" fill-rule="evenodd">
        <path fill="#525356" d="M55.196 21.53c-.768 1.022-1.779 1.689-3.012 2.019-1.478.395-2.928.22-4.355-.243-2.334-.757-4.303-2.115-6.08-3.77-1.464-1.363-2.723-2.896-3.682-4.66-.946-1.741-1.573-3.568-1.439-5.59.077-1.164.45-2.214 1.162-3.144.501-.653 1.17-1.106 1.824-1.58.413-.297.834-.583 1.265-.884C32.572.105 18.294.302 8.445 11.817c-9.107 10.647-9.382 27.1.977 38.196C19.167 60.452 35.4 62.27 47.291 53.568c12.044-8.815 14.174-23.701 9.556-34.3-.558.766-1.094 1.522-1.651 2.263"/>
        <g transform="translate(40 .11)">
            <mask id="b" fill="#fff">
                <use xlink:href="#a"/>
            </mask>
            <path fill="#525356" d="M19.955 2.389c-.084-.645-.294-1.223-.835-1.638-.585-.448-1.281-.537-1.97-.515-.657.022-1.32.142-1.965.286-1.778.398-3.447 1.107-5.093 1.87-1.764.819-3.461 1.753-5.055 2.874-1.292.908-2.608 1.782-3.915 2.667-.42.284-.696.676-.748 1.168-.047.452-.051.92.017 1.369.19 1.259.757 2.375 1.46 3.415 1.486 2.193 3.359 3.973 5.72 5.205.905.47 1.854.822 3.169.865.595.046 1.25-.317 1.725-1.038 1.316-2 2.702-3.958 3.934-6.01a30.184 30.184 0 0 0 3.135-7.148c.319-1.098.573-2.211.42-3.37" mask="url(#b)"/>
        </g>
        <g transform="translate(0 -.89)">
            <mask id="d" fill="#fff">
                <use xlink:href="#c"/>
            </mask>
            <path fill="#525356" d="M3.327 13.726a32.657 32.657 0 0 1 9.41-9.45c-1.846-.965-3.68-1.872-5.62-2.545-1.444-.5-2.904-.928-4.456-.825C.946 1.02.18 1.894.028 3.414c-.086.865.035 1.726.23 2.575.368 1.624.953 3.172 1.632 4.685.453 1.008.94 2 1.437 3.052" mask="url(#d)"/>
        </g>
    </g>
</svg>
