<svg xmlns="http://www.w3.org/2000/svg" xmlns:xlink="http://www.w3.org/1999/xlink" width="60" height="55" viewBox="0 0 60 55">
    <defs>
        <path id="a" d="M.002.056h44.77v24.676H.002z"/>
        <path id="c" d="M0 .029h36.779v37.155H0z"/>
    </defs>
    <g fill="none" fill-rule="evenodd">
        <path fill="#525356" d="M30.056 33.868c-3.627.028-6.524-2.854-6.527-6.492-.004-3.623 2.851-6.486 6.482-6.5 3.616-.014 6.494 2.848 6.509 6.473.015 3.622-2.83 6.49-6.464 6.519m-.08-20.796v.002c-2.635 0-5.27.004-7.905-.005-.258 0-.408.068-.542.3-2.6 4.555-5.206 9.106-7.823 13.65-.153.267-.14.457.009.717 2.598 4.514 5.188 9.033 7.77 13.556.153.27.308.388.637.387 5.246-.012 10.492-.01 15.738-.003.262 0 .402-.084.534-.31 2.638-4.547 5.282-9.09 7.938-13.626.164-.28.15-.477-.008-.748a3501.608 3501.608 0 0 1-7.898-13.565c-.166-.287-.349-.361-.654-.36-2.598.01-5.197.005-7.796.005"/>
        <g transform="translate(6.426 .016)">
            <mask id="b" fill="#fff">
                <use xlink:href="#a"/>
            </mask>
            <path fill="#525356" d="M5.442 24.376c.062.108.132.212.222.356.097-.16.168-.27.233-.383 2.534-4.426 5.076-8.847 7.592-13.284.257-.453.526-.619 1.053-.618 9.398.02 18.795.015 28.193.016h2.037c-.084-.165-.13-.261-.18-.355-1.272-2.306-2.527-4.623-3.823-6.916C39.616 1.152 37.864.069 35.494.06c-1.817-.006-3.634 0-5.45 0-6.162 0-12.322-.014-18.483.006-2.219.008-3.928 1.04-5.02 2.937C4.35 6.81 2.234 10.657.082 14.484c-.108.192-.108.337 0 .527 1.79 3.12 3.574 6.243 5.36 9.365" mask="url(#b)"/>
        </g>
        <g transform="translate(0 17.49)">
            <mask id="d" fill="#fff">
                <use xlink:href="#c"/>
            </mask>
            <path fill="#525356" d="M36.779 26.778h-.441c-5.197 0-10.394-.003-15.591.007-.342.001-.531-.097-.703-.402a759.125 759.125 0 0 0-4.202-7.363C12.245 12.806 8.637 6.599 5.034.389 4.969.279 4.9.171 4.813.029c-.086.133-.147.22-.2.311C3.376 2.5 2.142 4.662.9 6.82-.3 8.897-.295 10.966.884 13.055c3.96 7.017 7.915 14.037 11.865 21.06 1.149 2.042 2.884 3.062 5.222 3.063 4.114.001 8.229-.002 12.343.006.26 0 .406-.074.54-.303 1.704-2.918 3.42-5.83 5.133-8.743.254-.432.504-.866.792-1.36" mask="url(#d)"/>
        </g>
        <path fill="#525356" d="M59.104 24.447a2534.43 2534.43 0 0 1-6.14-11.035c-.142-.255-.298-.346-.587-.345-3.573.01-7.147.008-10.72.01-.088 0-.176.017-.302.03.162.289.299.54.441.789 2.517 4.394 5.032 8.789 7.555 13.179.123.214.128.369-.001.584-.508.846-.993 1.705-1.485 2.56l-13.63 23.67c-.136.236-.265.475-.432.775h.446c2.527.001 5.053-.004 7.58.005 2.415.009 4.2-1.07 5.378-3.147 2.58-4.55 5.14-9.114 7.709-13.672 1.399-2.483 2.818-4.956 4.192-7.453 1.083-1.97 1.11-3.96-.004-5.95"/>
    </g>
</svg>
