<svg xmlns="http://www.w3.org/2000/svg" xmlns:xlink="http://www.w3.org/1999/xlink" width="60" height="46" viewBox="0 0 60 46">
    <defs>
        <path id="a" d="M.132.157H45.13v42.81H.132z"/>
        <path id="c" d="M0 .132h32.684v40.44H0z"/>
    </defs>
    <g fill="none" fill-rule="evenodd">
        <g transform="translate(14.727 2.706)">
            <mask id="b" fill="#fff">
                <use xlink:href="#a"/>
            </mask>
            <path fill="#525356" d="M27.359 38.202c-.328-.424-.55-.737-.798-1.03C22.13 31.92 17.7 26.666 13.256 21.423c-.365-.43-.544-.78-.32-1.386 2.385-6.444 4.731-12.902 7.09-19.355.05-.14.12-.273.232-.525l24.872 42.81H.132l27.227-4.765" mask="url(#b)"/>
        </g>
        <g>
            <mask id="d" fill="#fff">
                <use xlink:href="#c"/>
            </mask>
            <path fill="#525356" d="M32.684.22l-5.702 12.026c-4.368 9.218-8.738 18.435-13.092 27.66-.227.482-.487.67-1.04.666C8.768 40.55 4.684 40.56.6 40.56H0c.073-.187.107-.324.176-.441 4.902-8.362 9.796-16.73 14.734-25.071.373-.63 1.024-1.122 1.607-1.606 5.228-4.34 10.469-8.663 15.706-12.99.134-.111.273-.214.41-.32l.051.087" mask="url(#d)"/>
        </g>
    </g>
</svg>
