<svg xmlns="http://www.w3.org/2000/svg" width="177" height="52" viewBox="0 0 177 52">
    <defs>
        <linearGradient id="a" x1="-3.236%" x2="71.262%" y1="3.853%" y2="68.04%">
            <stop offset="0%" stop-color="#5A9FD4"/>
            <stop offset="100%" stop-color="#306998"/>
        </linearGradient>
        <linearGradient id="b" x1="64.941%" x2="38.387%" y1="71.767%" y2="34.358%">
            <stop offset="0%" stop-color="#FFD43B"/>
            <stop offset="100%" stop-color="#FFE873"/>
        </linearGradient>
        <radialGradient id="c" cx="49.976%" cy="50.12%" r="218.383%" fx="49.976%" fy="50.12%" gradientTransform="matrix(.18518 0 0 1 .407 0)">
            <stop offset="0%" stop-color="#B8B8B8" stop-opacity=".498"/>
            <stop offset="100%" stop-color="#7F7F7F" stop-opacity="0"/>
        </radialGradient>
    </defs>
    <g fill="none" fill-rule="nonzero">
        <path fill="#646464" d="M67.263 22.683c0-5.473-1.539-8.246-4.58-8.396-1.209-.075-2.381.15-3.554.6-.916.337-1.538.674-1.868 1.011v13.045c1.942 1.237 3.664 1.837 5.166 1.724 3.224-.224 4.836-2.886 4.836-7.984zm3.737.225c0 2.774-.623 5.06-1.905 6.897-1.43 2.062-3.407 3.15-5.936 3.187-1.905.075-3.846-.563-5.898-1.837V43L54 41.8V15.524a7.267 7.267 0 0 1 2.052-1.725c1.942-1.162 4.286-1.762 7.07-1.799l.037.037c2.529-.037 4.507 1.05 5.863 3.187C70.377 17.285 71 19.834 71 22.908zM91 30.75c0 3.72-.378 6.313-1.133 7.74-.756 1.429-2.191 2.594-4.307 3.42A16.085 16.085 0 0 1 79.969 43l-.567-2.104c2.04-.263 3.476-.564 4.27-.827 1.624-.564 2.757-1.39 3.361-2.517.491-.902.718-2.668.718-5.261v-.864c-2.304 1.052-4.722 1.54-7.253 1.54-1.662 0-3.136-.526-4.382-1.54C74.718 30.299 74 28.872 74 27.105v-13.94L77.362 12v14.016c0 1.503.491 2.668 1.474 3.457.982.826 2.228 1.202 3.777 1.165 1.55-.038 3.211-.64 4.95-1.804V12.488h3.361V30.75H91zM104 31.963c-.396.037-.72.037-1.044.037-1.8 0-3.24-.448-4.248-1.344-1.008-.897-1.512-2.129-1.512-3.735v-13.07H95v-2.092h2.196V6.195L100.4 5v6.76h3.6v2.09h-3.6v12.996c0 1.233.324 2.13.972 2.652.54.41 1.44.672 2.628.747v1.718zM123.926 32h-3.273V19.05c0-1.318-.294-2.448-.883-3.389-.699-1.054-1.655-1.619-2.869-1.619-1.508 0-3.384.829-5.627 2.447V32H108V1.054L111.274 0v14.08c2.096-1.544 4.377-2.334 6.878-2.334 1.728 0 3.126.602 4.23 1.807 1.066 1.205 1.618 2.673 1.618 4.442V32h-.074zM141.393 22.143c0-2.104-.405-3.832-1.178-5.222-.92-1.69-2.356-2.554-4.307-2.63-3.607.226-5.374 2.856-5.374 7.89 0 2.329.368 4.245 1.14 5.785.958 1.991 2.393 2.93 4.344 2.93 3.571-.037 5.375-2.968 5.375-8.753zm3.607.038c0 3.005-.736 5.484-2.245 7.476-1.657 2.216-3.939 3.343-6.81 3.343-2.871 0-5.117-1.127-6.736-3.343-1.473-1.992-2.209-4.471-2.209-7.476 0-2.818.81-5.185 2.393-7.1 1.693-2.03 3.865-3.081 6.589-3.081s4.932 1.014 6.662 3.08c1.546 1.916 2.356 4.283 2.356 7.1zM164 32.962h-3.304v-13.91c0-1.534-.445-2.722-1.336-3.565s-2.08-1.264-3.564-1.226c-1.56.038-3.081.575-4.492 1.571V33H148V15.41c1.893-1.417 3.638-2.375 5.271-2.797 1.523-.421 2.859-.613 3.973-.613.78 0 1.522.077 2.227.23 1.3.306 2.339.881 3.155 1.724.891.92 1.374 2.07 1.374 3.373v15.635z"/>
        <path fill="url(#a)" d="M20.718 1c-1.732 0-3.389.15-4.82.41-4.256.748-5.047 2.317-5.047 5.192v3.81h10.093v1.27H7.047c-2.937 0-5.498 1.755-6.327 5.08-.941 3.81-.979 6.2 0 10.158C1.436 29.871 3.168 32 6.068 32h3.465v-4.557c0-3.286 2.9-6.237 6.327-6.237h10.093c2.825 0 5.047-2.278 5.047-5.08V6.603c0-2.726-2.297-4.743-5.047-5.191C24.221 1.112 22.451 1 20.718 1zm-5.46 3.063c1.054 0 1.883.859 1.883 1.904 0 1.046-.867 1.905-1.883 1.905a1.889 1.889 0 0 1-1.883-1.905c-.038-1.045.828-1.904 1.883-1.904z"/>
        <path fill="url(#b)" d="M32.39 12v4.411c0 3.41-2.932 6.302-6.315 6.302H16.037c-2.744 0-5.037 2.335-5.037 5.041v9.453c0 2.706 2.368 4.263 5.037 5.041 3.196.927 6.24 1.075 10.075 0 2.557-.741 5.038-2.187 5.038-5.041v-3.781H21.075v-1.26H36.187c2.932 0 4.023-2.002 5.038-5.042 1.052-3.114 1.015-6.116 0-10.083C40.51 14.15 39.119 12 36.187 12H32.39zm-5.676 23.947a1.88 1.88 0 0 1 1.88 1.89c0 1.038-.865 1.89-1.88 1.89a1.88 1.88 0 0 1-1.88-1.89c0-1.038.865-1.89 1.88-1.89z"/>
        <path fill="#646464" d="M170.437 9h.621V5.436h1.437V5H169v.436h1.437V9m2.602 0h.505V5.764L174.67 9h.582l1.165-3.236V9H177V5h-.738l-1.281 3.418L173.893 5h-.854v4"/>
        <path fill="url(#c)" d="M35 49.5c0 1.357-6.054 2.5-13.5 2.5S8 50.893 8 49.5c0-1.357 6.054-2.5 13.5-2.5S35 48.143 35 49.5z" opacity=".444"/>
    </g>
</svg>
