<?xml version="1.0" encoding="UTF-8" standalone="no"?>
<!DOCTYPE svg PUBLIC "-//W3C//DTD SVG 1.1//EN" "http://www.w3.org/Graphics/SVG/1.1/DTD/svg11.dtd">
<svg version="1.1" xmlns="http://www.w3.org/2000/svg" xmlns:xlink="http://www.w3.org/1999/xlink"
     preserveAspectRatio="xMidYMid meet" viewBox="0 0 1181 230" width="1181" height="230">
  <defs>
    <path
      d="M887.48 45.61L889.04 45.65L890.58 45.71L892.1 45.79L893.59 45.88L895.06 45.99L896.5 46.12L897.9 46.26L899.27 46.42L900.6 46.6L901.9 46.79L904.31 47.21L906.67 47.68L909 48.2L911.27 48.76L913.51 49.37L915.7 50.03L917.84 50.74L919.95 51.49L922 52.28L924.02 53.13L925.99 54.02L927.91 54.96L929.79 55.94L931.62 56.97L933.41 58.04L935.15 59.17L936.85 60.33L938.5 61.54L940.1 62.8L941.66 64.11L943.17 65.45L944.64 66.85L946.06 68.28L947.43 69.77L948.76 71.3L950.04 72.87L951.27 74.48L952.45 76.15L953.59 77.85L954.68 79.6L955.72 81.39L956.71 83.23L957.65 85.11L958.55 87.04L959.4 89L960.2 91.02L960.95 93.07L961.65 95.17L962.3 97.31L962.9 99.49L963.05 100.09L963.2 100.74L963.35 101.43L963.5 102.17L963.65 102.94L963.79 103.75L963.94 104.61L964.08 105.49L964.23 106.41L964.37 107.36L964.51 108.34L964.65 109.34L964.78 110.38L964.91 111.43L965.04 112.51L965.17 113.61L965.3 114.73L965.42 115.86L965.54 117.01L965.65 118.17L965.76 119.34L965.87 120.52L965.97 121.71L966.07 122.9L966.16 124.1L966.25 125.29L966.33 126.49L966.41 127.69L966.49 128.88L966.56 130.06L966.62 131.24L966.68 132.41L966.73 133.57L966.77 134.71L966.81 135.84L966.84 136.95L966.87 138.05L966.89 139.12L966.9 140.17L966.9 141.19L966.9 147.89L838.9 147.89L838.9 150.89L838.91 151.2L838.93 151.54L838.96 151.89L839 152.27L839.06 152.66L839.12 153.07L839.2 153.5L839.29 153.94L839.38 154.4L839.49 154.87L839.61 155.35L839.73 155.85L839.87 156.35L840.01 156.87L840.16 157.39L840.32 157.91L840.48 158.45L840.65 158.98L840.83 159.52L841.01 160.07L841.2 160.61L841.39 161.16L841.59 161.7L841.79 162.24L842 162.78L842.21 163.31L842.42 163.84L842.64 164.36L842.86 164.87L843.08 165.38L843.3 165.87L843.52 166.36L843.74 166.83L843.97 167.28L844.19 167.73L844.42 168.16L844.64 168.57L844.86 168.96L845.08 169.34L845.3 169.69L845.69 170.3L846.1 170.91L846.52 171.51L846.96 172.09L847.42 172.68L847.89 173.25L848.37 173.82L848.87 174.38L849.39 174.93L849.92 175.47L850.47 176L851.03 176.53L851.6 177.05L852.19 177.56L852.8 178.06L853.42 178.55L854.05 179.03L854.69 179.51L855.35 179.97L856.03 180.43L856.71 180.88L857.41 181.32L858.12 181.74L858.84 182.16L859.58 182.57L860.33 182.97L861.09 183.36L861.86 183.74L862.64 184.11L863.44 184.47L864.25 184.82L865.07 185.16L865.9 185.49L866.74 185.81L867.59 186.12L868.45 186.41L869.32 186.7L870.2 186.98L871.1 187.24L872 187.49L872.38 187.6L872.77 187.71L873.15 187.81L873.54 187.91L873.93 188L874.32 188.09L874.72 188.17L875.12 188.26L875.53 188.33L875.95 188.41L876.37 188.48L876.8 188.54L877.25 188.61L877.7 188.67L878.16 188.72L878.64 188.77L879.13 188.82L879.64 188.87L880.15 188.91L880.69 188.96L881.24 188.99L881.8 189.03L882.39 189.06L882.99 189.09L883.62 189.12L884.26 189.14L884.93 189.17L885.62 189.19L886.33 189.21L887.06 189.22L887.82 189.24L888.6 189.25L889.42 189.26L890.25 189.27L891.12 189.28L892.02 189.28L892.94 189.29L893.89 189.29L894.88 189.29L895.9 189.29L897.09 189.29L898.23 189.29L899.31 189.29L900.35 189.28L901.35 189.28L902.29 189.27L903.2 189.26L904.07 189.25L904.9 189.24L905.69 189.22L906.45 189.2L907.18 189.18L907.88 189.15L908.55 189.12L909.19 189.09L909.81 189.06L910.4 189.02L910.98 188.97L911.53 188.92L912.07 188.87L912.6 188.81L913.11 188.75L913.62 188.68L914.11 188.6L914.6 188.52L915.08 188.44L915.56 188.34L916.03 188.24L916.51 188.14L916.99 188.03L917.48 187.91L917.97 187.78L918.48 187.65L918.99 187.51L919.51 187.36L920.05 187.2L920.61 187.04L921.19 186.87L921.78 186.68L922.4 186.49L923.15 186.26L923.91 186.02L924.68 185.77L925.47 185.5L926.26 185.23L927.06 184.95L927.88 184.66L928.69 184.36L929.52 184.05L930.35 183.74L931.18 183.41L932.01 183.08L932.85 182.75L933.69 182.41L934.53 182.06L935.37 181.71L936.21 181.35L937.05 180.99L937.88 180.62L938.71 180.26L939.54 179.88L940.35 179.51L941.17 179.14L941.97 178.76L942.76 178.38L943.55 178L944.32 177.63L945.09 177.25L945.84 176.87L946.57 176.49L947.3 176.12L948 175.75L948.69 175.38L949.37 175.01L950.02 174.65L950.66 174.29L951.28 173.93L951.87 173.58L952.45 173.23L953 172.89L953.19 172.77L953.38 172.64L953.57 172.52L953.77 172.4L953.97 172.28L954.17 172.16L954.37 172.04L954.57 171.93L954.78 171.82L954.98 171.71L955.19 171.6L955.39 171.5L955.6 171.39L955.8 171.29L956.01 171.2L956.21 171.1L956.41 171.01L956.61 170.92L956.81 170.84L957.01 170.76L957.21 170.68L957.4 170.6L957.59 170.53L957.78 170.46L957.97 170.39L958.15 170.33L958.33 170.27L958.5 170.22L958.67 170.17L958.84 170.12L959 170.08L959.15 170.04L959.3 170.01L959.45 169.98L959.59 169.95L959.73 169.93L959.85 169.91L959.98 169.9L960.09 169.9L960.2 169.89L962.9 169.89L962.9 214.99L958.4 216.89L957.87 217.12L957.32 217.35L956.75 217.58L956.16 217.81L955.54 218.05L954.91 218.28L954.26 218.52L953.59 218.76L952.91 219L952.21 219.24L951.49 219.48L950.76 219.73L950.02 219.97L949.26 220.21L948.49 220.45L947.71 220.69L946.92 220.94L946.12 221.18L945.31 221.42L944.49 221.66L943.66 221.89L942.83 222.13L941.99 222.36L941.14 222.6L940.29 222.83L939.44 223.05L938.58 223.28L937.72 223.5L936.86 223.72L936 223.94L935.14 224.15L934.28 224.36L933.42 224.57L932.56 224.77L931.7 224.97L930.85 225.16L930.01 225.35L929.16 225.54L928.33 225.72L927.5 225.89L926.83 226.02L926.1 226.15L925.32 226.29L924.48 226.43L923.59 226.56L922.66 226.71L921.69 226.85L920.67 226.99L919.62 227.13L918.54 227.27L917.44 227.42L916.3 227.56L915.15 227.7L913.98 227.84L912.79 227.97L911.59 228.11L910.39 228.24L909.18 228.37L907.98 228.5L906.77 228.62L905.58 228.74L904.39 228.85L903.22 228.96L902.07 229.06L900.94 229.16L899.83 229.25L898.75 229.34L897.7 229.41L896.69 229.49L895.72 229.55L894.79 229.61L893.9 229.65L893.07 229.69L892.29 229.72L891.56 229.74L890.89 229.75L890.29 229.75L889.76 229.75L889.29 229.72L888.9 229.69L888.83 229.69L888.74 229.69L888.64 229.69L888.51 229.68L888.37 229.67L888.21 229.67L888.04 229.66L887.85 229.65L887.64 229.64L887.42 229.62L887.18 229.61L886.93 229.59L886.67 229.58L886.39 229.56L886.1 229.54L885.79 229.52L885.48 229.5L885.15 229.48L884.81 229.45L884.46 229.43L884.1 229.41L883.73 229.38L883.35 229.35L882.97 229.33L882.57 229.3L882.17 229.27L881.75 229.24L881.34 229.21L880.91 229.18L880.48 229.14L880.04 229.11L879.59 229.08L879.15 229.04L878.69 229.01L878.23 228.98L877.77 228.94L877.31 228.9L876.84 228.87L876.37 228.83L875.9 228.79L873.81 228.64L871.75 228.46L869.7 228.27L867.68 228.05L865.68 227.81L863.71 227.55L861.75 227.26L859.82 226.96L857.91 226.63L856.03 226.28L854.16 225.91L852.32 225.51L850.5 225.1L848.71 224.66L846.94 224.2L845.19 223.72L843.46 223.21L841.75 222.69L840.07 222.14L838.41 221.57L836.78 220.98L835.16 220.36L833.57 219.72L832 219.07L830.46 218.38L828.93 217.68L827.43 216.96L825.95 216.21L824.5 215.44L823.07 214.65L821.66 213.83L820.27 212.99L818.91 212.14L817.57 211.25L816.25 210.35L814.95 209.42L813.68 208.47L812.43 207.5L811.2 206.51L810 205.49L809.35 204.92L808.7 204.36L808.07 203.79L807.46 203.22L806.85 202.65L806.25 202.09L805.67 201.52L805.1 200.95L804.53 200.38L803.98 199.81L803.43 199.24L802.9 198.67L802.38 198.09L801.86 197.51L801.36 196.93L800.86 196.34L800.37 195.75L799.89 195.16L799.42 194.56L798.95 193.96L798.49 193.35L798.04 192.73L797.6 192.11L797.16 191.49L796.73 190.86L796.31 190.22L795.89 189.57L795.48 188.92L795.07 188.26L794.67 187.59L794.28 186.91L793.88 186.23L793.5 185.53L793.12 184.83L792.74 184.12L792.36 183.39L791.99 182.66L791.63 181.92L791.26 181.16L790.9 180.39L790.55 179.62L790.2 178.86L789.87 178.1L789.54 177.36L789.23 176.63L788.93 175.9L788.63 175.18L788.35 174.47L788.07 173.76L787.81 173.05L787.55 172.35L787.3 171.66L787.06 170.96L786.82 170.27L786.6 169.57L786.38 168.88L786.17 168.18L785.96 167.49L785.77 166.78L785.58 166.08L785.39 165.37L785.21 164.66L785.04 163.93L784.87 163.21L784.71 162.47L784.56 161.72L784.41 160.97L784.26 160.2L784.12 159.43L783.98 158.64L783.85 157.84L783.72 157.02L783.59 156.19L783.47 155.34L783.35 154.48L783.24 153.6L783.12 152.7L783.01 151.79L782.91 150.85L782.8 149.89L782.63 148.13L782.5 146.36L782.39 144.6L782.3 142.84L782.25 141.07L782.22 139.31L782.22 137.55L782.25 135.79L782.3 134.04L782.38 132.29L782.49 130.55L782.62 128.81L782.78 127.08L782.96 125.35L783.17 123.63L783.41 121.93L783.67 120.23L783.96 118.54L784.27 116.86L784.61 115.19L784.98 113.54L785.36 111.9L785.78 110.27L786.21 108.65L786.67 107.05L787.16 105.47L787.67 103.9L788.2 102.35L788.76 100.81L789.34 99.3L789.94 97.8L790.57 96.32L791.22 94.86L791.89 93.43L792.59 92.01L793.31 90.62L794.05 89.25L794.81 87.91L795.59 86.59L796.4 85.29L797.16 84.14L797.94 83L798.74 81.87L799.57 80.75L800.43 79.65L801.31 78.55L802.21 77.47L803.14 76.4L804.09 75.34L805.06 74.29L806.05 73.26L807.06 72.25L808.09 71.24L809.14 70.25L810.22 69.28L811.31 68.32L812.42 67.38L813.54 66.46L814.69 65.55L815.85 64.66L817.03 63.78L818.22 62.92L819.43 62.09L820.66 61.27L821.9 60.47L823.15 59.68L824.42 58.92L825.7 58.18L826.99 57.46L828.29 56.76L829.61 56.08L830.94 55.42L832.28 54.79L833.62 54.18L834.98 53.59L836.35 53.02L837.73 52.48L839.11 51.96L840.5 51.46L841.9 50.99L843.06 50.62L844.26 50.27L845.5 49.92L846.79 49.59L848.12 49.27L849.48 48.96L850.88 48.66L852.31 48.38L853.77 48.11L855.25 47.85L856.77 47.6L858.31 47.37L859.86 47.15L861.44 46.95L863.04 46.75L864.65 46.58L866.27 46.41L867.9 46.26L869.54 46.13L871.19 46.01L872.84 45.9L874.49 45.81L876.14 45.73L877.78 45.66L879.43 45.62L881.06 45.58L882.68 45.57L884.3 45.56L885.89 45.58L887.48 45.61ZM876.32 80.59L875.9 80.59L874.6 80.61L873.32 80.66L872.07 80.73L870.84 80.82L869.64 80.94L868.46 81.08L867.3 81.24L866.17 81.43L865.06 81.65L863.97 81.89L862.91 82.15L861.87 82.44L860.86 82.75L859.87 83.08L858.9 83.45L857.95 83.83L857.03 84.24L856.13 84.68L855.25 85.14L854.4 85.62L853.56 86.13L852.75 86.67L851.96 87.23L851.2 87.81L850.45 88.42L849.73 89.06L849.03 89.71L848.35 90.4L847.7 91.11L847.06 91.84L846.44 92.6L845.85 93.39L845.28 94.2L844.73 95.03L844.2 95.89L843.69 96.78L843.2 97.69L842.94 98.2L842.69 98.71L842.45 99.23L842.21 99.75L841.98 100.27L841.76 100.8L841.54 101.33L841.34 101.86L841.13 102.39L840.94 102.92L840.76 103.45L840.58 103.98L840.41 104.51L840.25 105.03L840.1 105.55L839.96 106.06L839.82 106.57L839.7 107.07L839.58 107.56L839.47 108.05L839.38 108.53L839.29 109L839.22 109.46L839.15 109.9L839.09 110.34L839.05 110.76L839.01 111.18L838.99 111.57L838.98 111.95L838.98 112.32L838.99 112.67L839.01 113.01L839.04 113.32L839.09 113.62L839.15 113.9L839.22 114.16L839.3 114.39L839.35 114.5L839.42 114.59L839.52 114.69L839.64 114.78L839.79 114.86L839.98 114.94L840.19 115.02L840.45 115.09L840.74 115.16L841.08 115.22L841.46 115.28L841.88 115.34L842.36 115.39L842.89 115.44L843.47 115.49L844.12 115.53L844.82 115.58L845.58 115.61L846.41 115.65L847.31 115.68L848.27 115.71L849.31 115.73L850.43 115.76L851.62 115.78L852.9 115.8L854.25 115.82L855.7 115.83L857.23 115.84L858.85 115.86L860.56 115.87L862.37 115.87L864.28 115.88L866.3 115.88L868.41 115.89L870.63 115.89L872.96 115.89L875.4 115.89L910.9 115.89L910.9 113.29L910.73 112.41L910.56 111.55L910.38 110.7L910.21 109.87L910.04 109.06L909.88 108.27L909.71 107.5L909.54 106.74L909.37 106.01L909.21 105.29L909.04 104.59L908.88 103.9L908.71 103.24L908.55 102.6L908.39 101.97L908.23 101.36L908.07 100.77L907.9 100.2L907.75 99.64L907.59 99.11L907.43 98.59L907.27 98.09L907.11 97.61L906.96 97.15L906.8 96.7L906.65 96.28L906.5 95.87L906.34 95.48L906.19 95.11L906.04 94.75L905.89 94.42L905.74 94.1L905.59 93.8L905.44 93.52L905.29 93.26L905.15 93.02L905 92.79L904.73 92.4L904.44 92.02L904.14 91.63L903.83 91.25L903.51 90.86L903.17 90.48L902.83 90.11L902.47 89.73L902.11 89.36L901.73 89L901.35 88.64L900.96 88.28L900.56 87.92L900.15 87.58L899.73 87.23L899.31 86.9L898.88 86.57L898.45 86.24L898 85.92L897.56 85.61L897.1 85.31L896.65 85.01L896.18 84.72L895.72 84.44L895.25 84.17L894.78 83.91L894.3 83.65L893.83 83.41L893.35 83.17L892.87 82.95L892.39 82.74L891.91 82.53L891.42 82.34L890.94 82.16L890.46 81.99L889.98 81.84L889.5 81.69L889.31 81.64L889.09 81.58L888.87 81.53L888.63 81.47L888.37 81.42L888.1 81.37L887.82 81.32L887.52 81.27L887.21 81.22L886.9 81.18L886.56 81.13L886.22 81.09L885.87 81.05L885.51 81.01L885.14 80.97L884.76 80.93L884.38 80.89L883.99 80.86L883.59 80.83L883.18 80.8L882.77 80.77L882.35 80.74L881.93 80.72L881.51 80.69L881.08 80.67L880.65 80.65L880.22 80.64L879.79 80.62L879.35 80.61L878.92 80.6L878.48 80.59L878.05 80.58L877.61 80.58L877.18 80.58L876.75 80.58L876.32 80.59Z"
      id="eprubtjrz"></path>
    <path
      d="M-0.1 5.89L31.4 5.89L62.9 5.89C62.9 12.79 62.9 16.63 62.9 17.39C62.9 23.69 63.2 28.89 63.7 28.89C64.1 28.89 68.6 25.49 73.8 21.49C85 12.59 97 5.59 105.9 2.69C115 -0.21 134 -0.91 142.9 1.29C152.6 3.69 162.9 9.19 169.1 15.19C174.2 20.09 184.9 34.89 184.9 37.09C184.9 37.59 188.2 35.09 192.2 31.59C208.4 17.49 221.9 8.59 234.9 3.69C243 0.59 244 0.49 257.9 0.39C269.5 0.39 273.5 0.79 277.9 2.29C300.1 9.79 312.5 24.69 319.2 51.89C321.2 60.09 321.3 63.09 321.6 143.69C321.63 149.24 321.76 176.97 322 226.89L290.4 226.89L258.9 226.89C258.9 189.57 258.9 168.84 258.9 164.69C258.9 130.39 258.4 96.89 257.9 90.29C256 65.99 249.7 58.39 230.4 57.09C220.3 56.49 212.1 58.69 200.9 65.09C200.4 65.38 197.9 66.81 193.4 69.39L193.1 148.19L192.9 226.89L160.9 226.89L129 226.89C128.82 183.27 128.72 159.04 128.7 154.19C128.4 82.99 128.3 81.29 126.2 75.09C123.4 66.89 120.1 62.69 114.2 59.89C110.1 57.89 107.8 57.49 98.9 57.49C87 57.39 82.5 58.69 70.4 65.59C69.93 65.87 67.6 67.23 63.4 69.69L63.1 148.29L62.9 226.89L31.4 226.89L-0.1 226.89L-0.1 116.39L-0.1 5.89Z"
      id="a2ko7h1fC"></path>
    <path
      d="M567.1 51.39C584.56 51.21 594.26 51.11 596.2 51.09C616.2 50.99 625.5 51.19 625.9 51.99C626.3 52.49 635.3 78.79 645.8 110.19C656.4 141.69 665.4 167.79 665.9 168.19C666.3 168.69 675.5 142.49 686.4 109.99C687.71 106.05 694.28 86.35 706.1 50.89L735 50.89L763.9 50.89C763.36 52.27 763.06 53.04 763 53.19C755.9 71.39 698.4 220.19 697.7 222.19C697.63 222.37 697.3 223.27 696.7 224.89L665 224.89L633.4 224.89L600.2 138.19L567.1 51.39Z"
      id="aaWxVIN0h"></path>
    <path
      d="M1005.9 50.89L1033.9 50.89L1061.9 50.89C1061.9 56.29 1061.9 59.29 1061.9 59.89C1061.9 64.89 1062.1 68.89 1062.3 68.89C1062.6 68.89 1066.3 66.39 1070.7 63.39C1079.9 57.09 1093.2 50.49 1101 48.29C1109.9 45.89 1125.2 45.39 1134.9 47.29C1157.2 51.49 1171.9 65.09 1178.1 87.59C1180.2 95.19 1180.3 97.19 1180.7 160.19C1180.72 164.51 1180.82 186.07 1181 224.89L1153.1 224.89L1125.1 224.89C1124.8 192.97 1124.63 175.24 1124.6 171.69C1124.1 116.69 1123.6 109.69 1119.7 102.39C1112.8 89.39 1090.5 87.19 1069.2 97.49C1068.71 97.73 1066.28 98.89 1061.9 100.99L1061.9 162.89L1061.9 224.89L1033.9 224.89L1005.9 224.89L1005.9 137.89L1005.9 50.89Z"
      id="gYAoj2o4e"></path>
    <path
      d="M454.56 45.97L457.73 46.06L460.85 46.19L463.89 46.36L466.87 46.57L469.78 46.82L472.63 47.1L475.41 47.42L478.13 47.78L480.78 48.18L483.37 48.62L485.89 49.1L488.35 49.61L490.74 50.16L493.07 50.76L495.33 51.39L497.54 52.06L499.67 52.77L501.75 53.52L503.76 54.31L505.71 55.13L507.6 56L509.42 56.91L511.19 57.86L512.89 58.84L514.52 59.87L516.1 60.94L517.62 62.04L519.07 63.19L520.47 64.38L521.8 65.6L523.07 66.87L524.28 68.18L525.43 69.53L526.53 70.92L527.56 72.35L528.53 73.83L529.45 75.34L530.3 76.89L530.78 77.8L531.23 78.66L531.66 79.5L532.06 80.32L532.45 81.13L532.81 81.93L533.16 82.74L533.48 83.56L533.79 84.39L534.07 85.26L534.34 86.15L534.59 87.09L534.83 88.07L535.04 89.12L535.24 90.22L535.43 91.4L535.6 92.66L535.76 94.01L535.91 95.45L536.04 96.99L536.16 98.65L536.27 100.42L536.36 102.32L536.45 104.35L536.53 106.52L536.59 108.84L536.65 111.31L536.7 113.95L536.75 116.76L536.78 119.76L536.81 122.93L536.84 126.3L536.86 129.88L536.87 133.66L536.88 137.66L536.89 141.89L536.9 146.35L536.9 151.04L536.9 155.99L536.9 161.19L536.9 224.89L481.9 224.89L481.9 215.89L481.9 215.53L481.9 215.16L481.9 214.81L481.89 214.45L481.89 214.1L481.89 213.75L481.88 213.41L481.88 213.08L481.87 212.74L481.86 212.42L481.86 212.1L481.85 211.79L481.84 211.48L481.83 211.18L481.82 210.89L481.81 210.61L481.8 210.33L481.79 210.06L481.78 209.81L481.76 209.56L481.75 209.31L481.74 209.08L481.72 208.86L481.71 208.65L481.69 208.45L481.67 208.26L481.66 208.08L481.64 207.91L481.62 207.75L481.6 207.61L481.59 207.48L481.57 207.36L481.55 207.25L481.53 207.16L481.51 207.08L481.49 207.01L481.47 206.96L481.44 206.92L481.42 206.9L481.4 206.89L481.37 206.9L481.33 206.91L481.27 206.94L481.21 206.97L481.13 207.02L481.04 207.07L480.94 207.13L480.82 207.2L480.7 207.28L480.56 207.37L480.42 207.46L480.26 207.57L480.1 207.68L479.92 207.8L479.74 207.92L479.55 208.05L479.34 208.19L479.13 208.34L478.91 208.5L478.69 208.66L478.45 208.82L478.21 208.99L477.96 209.17L477.71 209.36L477.44 209.54L477.18 209.74L476.9 209.94L476.62 210.14L476.33 210.35L476.04 210.56L475.75 210.78L475.44 211L475.14 211.23L474.83 211.46L474.52 211.69L474.2 211.92L473.88 212.16L473.56 212.4L473.23 212.65L472.9 212.89L472.56 213.14L472.21 213.39L471.86 213.65L471.5 213.9L471.13 214.16L470.76 214.41L470.39 214.67L470.01 214.93L469.63 215.19L469.24 215.45L468.86 215.71L468.47 215.97L468.08 216.23L467.68 216.49L467.29 216.74L466.9 217L466.5 217.25L466.11 217.5L465.72 217.75L465.32 217.99L464.94 218.24L464.55 218.47L464.17 218.71L463.78 218.94L463.41 219.17L463.03 219.39L462.67 219.61L462.3 219.82L461.95 220.03L461.59 220.23L461.25 220.43L460.91 220.62L460.58 220.81L460.25 220.98L459.94 221.15L459.63 221.32L459.33 221.47L459.05 221.62L458.77 221.76L458.5 221.89L457.59 222.31L456.66 222.71L455.71 223.11L454.73 223.49L453.74 223.87L452.72 224.23L451.68 224.58L450.62 224.92L449.55 225.25L448.46 225.57L447.36 225.88L446.24 226.17L445.11 226.46L443.97 226.73L442.81 226.99L441.65 227.23L440.48 227.46L439.3 227.68L438.12 227.89L436.92 228.08L435.73 228.26L434.53 228.42L433.33 228.57L432.13 228.71L430.93 228.83L429.73 228.94L428.54 229.03L427.35 229.11L426.16 229.17L424.97 229.22L423.8 229.25L422.63 229.27L421.47 229.26L420.32 229.25L419.19 229.21L418.06 229.16L416.95 229.1L415.85 229.01L414.77 228.91L413.7 228.79L412.62 228.67L411.55 228.52L410.49 228.37L409.44 228.19L408.4 228L407.37 227.8L406.36 227.58L405.35 227.35L404.35 227.1L403.37 226.84L402.39 226.56L401.42 226.26L400.47 225.95L399.52 225.63L398.58 225.28L397.65 224.93L396.73 224.55L395.82 224.17L394.92 223.76L394.02 223.34L393.14 222.91L392.26 222.46L391.4 221.99L390.54 221.51L389.69 221.01L388.84 220.49L388.01 219.96L387.18 219.42L386.36 218.85L385.55 218.27L384.74 217.68L383.94 217.07L383.15 216.44L382.37 215.8L381.59 215.14L380.82 214.46L380.06 213.77L379.3 213.06L378.55 212.33L377.8 211.59L377.07 210.84L376.37 210.08L375.68 209.31L375.02 208.53L374.37 207.74L373.75 206.94L373.14 206.13L372.55 205.32L371.98 204.49L371.43 203.66L370.9 202.81L370.39 201.96L369.9 201.09L369.43 200.22L368.98 199.33L368.55 198.43L368.13 197.53L367.74 196.61L367.36 195.68L367 194.74L366.66 193.79L366.34 192.83L366.04 191.86L365.75 190.87L365.49 189.87L365.24 188.86L365.01 187.84L364.81 186.81L364.61 185.76L364.44 184.71L364.29 183.63L364.15 182.55L364.03 181.45L363.93 180.34L363.85 179.22L363.78 178.08L363.73 176.93L363.71 175.76L363.69 174.59L363.7 173.39L363.72 172.21L363.76 171.05L363.81 169.9L363.88 168.77L363.97 167.66L364.07 166.57L364.18 165.49L364.31 164.43L364.46 163.39L364.63 162.36L364.81 161.35L365.01 160.35L365.22 159.36L365.46 158.39L365.71 157.44L365.98 156.49L366.26 155.56L366.56 154.64L366.89 153.74L367.22 152.84L367.58 151.96L367.96 151.09L368.35 150.23L368.77 149.37L369.2 148.53L369.65 147.7L370.13 146.87L370.62 146.06L371.13 145.25L371.66 144.45L372.21 143.66L372.78 142.87L373.37 142.1L373.99 141.32L374.62 140.56L375.27 139.79L375.95 139.04L376.64 138.29L377.36 137.54L378.1 136.79L378.86 136.05L379.66 135.31L380.49 134.58L381.35 133.86L382.25 133.14L383.18 132.44L384.14 131.74L385.13 131.05L386.15 130.38L387.21 129.71L388.29 129.05L389.41 128.41L390.55 127.77L391.72 127.14L392.92 126.53L394.14 125.93L395.39 125.33L396.67 124.75L397.97 124.19L399.3 123.63L400.65 123.09L402.02 122.56L403.42 122.04L404.84 121.54L406.28 121.05L407.74 120.57L409.23 120.11L410.73 119.66L412.25 119.23L413.79 118.81L415.35 118.4L416.93 118.02L418.52 117.64L420.13 117.29L421.75 116.95L423.4 116.62L425.05 116.31L426.72 116.02L428.4 115.75L430.1 115.49L431.07 115.35L432.1 115.2L433.18 115.05L434.3 114.9L435.47 114.75L436.67 114.6L437.92 114.44L439.19 114.28L440.5 114.13L441.83 113.97L443.19 113.82L444.56 113.66L445.95 113.51L447.36 113.35L448.77 113.2L450.19 113.05L451.61 112.91L453.03 112.76L454.44 112.62L455.85 112.48L457.25 112.35L458.63 112.21L459.99 112.09L461.33 111.96L462.65 111.85L463.94 111.74L465.2 111.63L466.42 111.53L467.6 111.43L468.74 111.34L469.84 111.26L470.89 111.19L471.88 111.12L472.82 111.06L473.7 111.01L474.52 110.97L475.27 110.94L475.96 110.91L476.57 110.9L477.1 110.89L477.44 110.89L477.76 110.89L478.06 110.89L478.35 110.89L478.63 110.88L478.89 110.88L479.13 110.87L479.37 110.86L479.58 110.85L479.79 110.84L479.98 110.82L480.17 110.8L480.33 110.78L480.49 110.75L480.64 110.72L480.78 110.69L480.9 110.65L481.02 110.61L481.13 110.57L481.22 110.52L481.31 110.46L481.4 110.4L481.47 110.34L481.54 110.27L481.59 110.19L481.65 110.11L481.69 110.02L481.73 109.92L481.77 109.82L481.8 109.71L481.82 109.6L481.84 109.47L481.86 109.34L481.87 109.2L481.88 109.06L481.89 108.9L481.89 108.74L481.9 108.56L481.9 108.38L481.9 108.19L481.87 106.99L481.79 105.81L481.66 104.67L481.48 103.57L481.24 102.49L480.95 101.45L480.6 100.44L480.2 99.47L479.75 98.52L479.24 97.61L478.67 96.73L478.05 95.88L477.38 95.07L476.65 94.28L475.86 93.53L475.02 92.8L474.12 92.11L473.17 91.45L472.16 90.82L471.09 90.22L469.96 89.65L468.78 89.11L467.54 88.6L466.24 88.12L464.88 87.67L463.47 87.25L461.99 86.86L460.46 86.5L458.87 86.16L457.22 85.86L455.51 85.59L453.74 85.34L451.91 85.12L450.02 84.94L448.07 84.78L446.06 84.64L443.99 84.54L441.85 84.46L439.66 84.41L437.4 84.39L436.3 84.4L435.22 84.4L434.18 84.42L433.15 84.44L432.15 84.46L431.17 84.49L430.21 84.53L429.27 84.58L428.34 84.64L427.42 84.7L426.51 84.78L425.6 84.86L424.71 84.95L423.82 85.05L422.93 85.16L422.04 85.29L421.14 85.42L420.24 85.57L419.34 85.72L418.42 85.89L417.5 86.08L416.56 86.27L415.61 86.48L414.64 86.7L413.65 86.94L412.64 87.19L411.61 87.46L410.55 87.74L409.46 88.04L408.35 88.36L407.2 88.69L406.02 89.04L404.8 89.41L403.54 89.79L402.25 90.19L400.91 90.61L399.53 91.05L398.1 91.51L396.63 91.99L395.1 92.49L394.55 92.67L394 92.85L393.45 93.03L392.91 93.2L392.37 93.37L391.84 93.54L391.32 93.71L390.8 93.87L390.28 94.03L389.78 94.19L389.28 94.35L388.79 94.5L388.31 94.65L387.84 94.8L387.38 94.94L386.92 95.08L386.48 95.21L386.05 95.34L385.63 95.47L385.22 95.59L384.83 95.71L384.45 95.82L384.08 95.93L383.72 96.04L383.38 96.13L383.06 96.23L382.75 96.31L382.45 96.4L382.17 96.47L381.91 96.54L381.66 96.61L381.44 96.67L381.23 96.72L381.03 96.76L380.86 96.8L380.71 96.83L380.58 96.86L380.46 96.88L380.37 96.89L380.3 96.89L380.21 96.89L380.13 96.86L380.05 96.83L379.97 96.77L379.9 96.7L379.82 96.61L379.76 96.51L379.69 96.38L379.63 96.23L379.57 96.05L379.52 95.86L379.47 95.64L379.42 95.39L379.37 95.12L379.33 94.82L379.29 94.49L379.25 94.14L379.21 93.75L379.18 93.33L379.15 92.88L379.12 92.4L379.09 91.88L379.07 91.33L379.05 90.74L379.03 90.11L379.01 89.45L378.99 88.74L378.98 88L378.96 87.21L378.95 86.39L378.94 85.52L378.93 84.6L378.92 83.65L378.92 82.64L378.91 81.59L378.91 80.49L378.9 79.34L378.9 78.14L378.9 76.89L378.9 75.59L378.9 54.19L384.2 53.09L385.72 52.76L387.26 52.43L388.81 52.11L390.37 51.8L391.94 51.49L393.52 51.19L395.12 50.9L396.72 50.62L398.33 50.34L399.95 50.07L401.57 49.81L403.2 49.55L404.84 49.31L406.48 49.07L408.12 48.84L409.77 48.61L411.42 48.4L413.06 48.19L414.71 48L416.36 47.81L418.01 47.62L419.66 47.45L421.3 47.29L422.94 47.13L424.57 46.98L426.2 46.85L427.82 46.72L429.44 46.6L431.05 46.49L432.65 46.39L434.24 46.29L435.82 46.21L437.39 46.14L438.94 46.07L440.49 46.02L442.02 45.97L443.54 45.94L445.04 45.91L446.53 45.9L448 45.89L451.31 45.91L454.56 45.97ZM478.02 143.42L477.82 143.44L477.61 143.47L477.38 143.5L477.14 143.53L476.88 143.57L476.6 143.6L476.31 143.64L476.01 143.67L475.69 143.71L475.37 143.75L475.03 143.79L474.68 143.83L474.32 143.87L473.94 143.91L473.56 143.96L473.17 144L472.78 144.05L472.37 144.09L471.96 144.14L471.54 144.18L471.11 144.23L470.68 144.27L470.25 144.32L469.81 144.36L469.36 144.41L468.92 144.46L468.47 144.5L468.02 144.55L467.56 144.59L467.11 144.64L466.66 144.68L466.2 144.72L465.75 144.77L465.3 144.81L464.85 144.85L464.4 144.89L461.66 145.2L459.02 145.52L456.48 145.84L454.05 146.19L451.72 146.55L449.48 146.92L447.34 147.31L445.3 147.72L443.35 148.15L441.49 148.59L439.73 149.06L438.05 149.55L436.46 150.06L434.95 150.6L433.53 151.16L432.18 151.75L430.92 152.37L429.74 153.01L428.63 153.68L427.6 154.39L426.64 155.12L425.75 155.89L424.94 156.69L424.19 157.52L423.51 158.39L422.89 159.3L422.33 160.25L421.84 161.23L421.41 162.25L421.03 163.32L420.72 164.42L420.45 165.57L420.24 166.76L420.08 168L419.98 169.28L419.91 170.61L419.9 171.99L419.92 172.77L419.97 173.53L420.05 174.28L420.15 175.01L420.28 175.74L420.43 176.45L420.61 177.15L420.82 177.83L421.05 178.51L421.3 179.17L421.59 179.81L421.89 180.44L422.22 181.06L422.58 181.66L422.96 182.25L423.36 182.82L423.79 183.37L424.24 183.92L424.72 184.44L425.21 184.95L425.73 185.44L426.28 185.92L426.84 186.38L427.43 186.82L428.04 187.24L428.67 187.65L429.32 188.04L430 188.41L430.69 188.76L431.41 189.1L432.15 189.41L432.91 189.71L433.69 189.98L434.49 190.24L435.3 190.48L436.14 190.7L437 190.89L437.5 190.99L438.04 191.07L438.61 191.15L439.22 191.22L439.85 191.28L440.5 191.33L441.18 191.37L441.89 191.41L442.61 191.44L443.36 191.46L444.12 191.48L444.89 191.48L445.68 191.48L446.48 191.48L447.29 191.46L448.11 191.44L448.93 191.41L449.75 191.38L450.57 191.33L451.4 191.28L452.22 191.23L453.04 191.17L453.85 191.1L454.65 191.02L455.44 190.94L456.22 190.85L456.98 190.76L457.73 190.66L458.46 190.55L459.17 190.44L459.86 190.32L460.52 190.2L461.15 190.07L461.76 189.93L462.34 189.79L462.89 189.64L463.4 189.49L463.63 189.42L463.87 189.35L464.13 189.27L464.39 189.18L464.66 189.08L464.93 188.98L465.22 188.87L465.51 188.76L465.81 188.64L466.12 188.51L466.43 188.38L466.74 188.25L467.06 188.11L467.39 187.96L467.72 187.81L468.05 187.66L468.38 187.51L468.72 187.35L469.06 187.19L469.4 187.02L469.74 186.85L470.08 186.68L470.42 186.51L470.76 186.34L471.1 186.16L471.44 185.98L471.77 185.8L472.1 185.62L472.43 185.44L472.76 185.26L473.08 185.08L473.4 184.9L473.71 184.71L474.02 184.53L474.32 184.35L474.61 184.17L474.9 183.99L481.4 180.09L481.7 161.49L481.9 142.89L478.2 143.39L478.02 143.42Z"
      id="a79GWdtmU"></path>
  </defs>
  <g>
    <g>
      <g>
        <use xlink:href="#eprubtjrz" opacity="1" fill="#010101" fill-opacity="1"></use>
        <g>
          <use xlink:href="#eprubtjrz" opacity="1" fill-opacity="0" stroke="#000000" stroke-width="1"
               stroke-opacity="0"></use>
        </g>
      </g>
      <g>
        <use xlink:href="#a2ko7h1fC" opacity="1" fill="#010101" fill-opacity="1"></use>
        <g>
          <use xlink:href="#a2ko7h1fC" opacity="1" fill-opacity="0" stroke="#000000" stroke-width="1"
               stroke-opacity="0"></use>
        </g>
      </g>
      <g>
        <use xlink:href="#aaWxVIN0h" opacity="1" fill="#010101" fill-opacity="1"></use>
        <g>
          <use xlink:href="#aaWxVIN0h" opacity="1" fill-opacity="0" stroke="#000000" stroke-width="1"
               stroke-opacity="0"></use>
        </g>
      </g>
      <g>
        <use xlink:href="#gYAoj2o4e" opacity="1" fill="#010101" fill-opacity="1"></use>
        <g>
          <use xlink:href="#gYAoj2o4e" opacity="1" fill-opacity="0" stroke="#000000" stroke-width="1"
               stroke-opacity="0"></use>
        </g>
      </g>
      <g>
        <use xlink:href="#a79GWdtmU" opacity="1" fill="#f0692f" fill-opacity="1"></use>
        <g>
          <use xlink:href="#a79GWdtmU" opacity="1" fill-opacity="0" stroke="#000000" stroke-width="1"
               stroke-opacity="0"></use>
        </g>
      </g>
    </g>
  </g>
</svg>