<!DOCTYPE svg PUBLIC "-//W3C//DTD SVG 20010904//EN" "http://www.w3.org/TR/2001/REC-SVG-20010904/DTD/svg10.dtd">
<svg version="1.0" xmlns="http://www.w3.org/2000/svg" width="569px" height="174px" viewBox="0 0 5690 1740"
     preserveAspectRatio="xMidYMid meet">
  <g id="letters" fill="#05005f" stroke="none">
    <path
      d="M3598 1690 c-61 -11 -146 -39 -154 -51 -3 -6 4 -51 16 -100 18 -74 26 -90 39 -85 9 3 43 15 76 26 84 31 215 26 264 -9 42 -30 70 -92 71 -154 l0 -48 -22 21 c-50 48 -99 65 -183 65 -66 0 -90 -5 -136 -26 -127 -60 -199 -189 -199 -359 0 -214 124 -380 304 -408 60 -10 140 -1 178 18 13 7 37 26 55 43 l32 30 7 -42 7 -42 105 3 106 3 -3 385 c-1 212 -7 407 -12 434 -22 120 -87 210 -183 255 -99 47 -238 63 -368 41z m248 -539 c49 -30 64 -74 64 -191 0 -117 -15 -161 -64 -192 -42 -26 -117 -20 -153 13 -58 54 -84 189 -54 280 11 35 62 91 91 102 32 12 86 6 116 -12z"/>
    <path
      d="M2657 1366 c-88 -33 -145 -109 -167 -221 -7 -38 -10 -154 -8 -315 l3 -255 122 -3 122 -3 3 258 c3 239 5 261 24 293 49 85 176 66 213 -33 7 -17 11 -124 11 -273 l0 -244 120 0 c88 0 122 3 125 12 3 7 6 185 7 396 l3 383 -110 -3 -110 -3 -3 -48 -3 -49 -35 36 c-56 58 -107 79 -199 83 -52 2 -93 -2 -118 -11z"/>
    <path
      d="M4597 1364 c-185 -45 -287 -182 -287 -385 0 -272 200 -453 461 -417 185 25 295 180 287 404 l-3 79 -252 3 c-193 2 -253 5 -253 15 0 27 42 78 82 98 58 30 177 36 277 15 41 -9 76 -15 77 -13 1 1 9 38 18 81 18 89 18 88 -48 107 -114 31 -261 37 -359 13z m228 -516 c-19 -85 -55 -118 -131 -118 -61 0 -94 22 -124 81 -36 70 -37 69 121 69 l141 0 -7 -32z"/>
    <path
      d="M5392 1366 c-61 -20 -107 -58 -133 -113 -23 -45 -24 -61 -27 -270 l-4 -223 -54 0 -55 0 3 -92 3 -93 52 -3 52 -3 3 -71 3 -72 115 -31 115 -32 3 103 3 104 89 0 90 0 0 95 0 95 -91 0 -92 0 5 175 c4 157 6 178 25 203 17 24 28 27 82 30 l61 3 0 93 c0 80 -3 95 -17 101 -38 14 -188 15 -231 1z"/>
    <path
      d="M1540 965 l0 -396 108 3 107 3 3 35 c5 59 10 65 32 37 11 -14 48 -39 82 -56 124 -63 280 -33 355 67 57 76 63 114 63 424 l0 278 -125 0 -125 0 0 -253 c0 -291 -4 -310 -77 -336 -48 -17 -83 -10 -124 27 -42 38 -48 77 -49 340 l0 222 -125 0 -125 0 0 -395z"/>
  </g>

  <linearGradient x1="0%" y1="0%" x2="0%" y2="100%" id="linear-gradient">
    <stop offset="0%" stop-color="#02b3f3"/>
    <stop offset="100%" stop-color="#0049aa"/>
  </linearGradient>
  <g id="big" fill="url(#linear-gradient)" stroke="none">
    <path d="M493 1331 c-99 -34 -170 -99 -216 -198 -21 -46 -22 -59 -22 -348 l0 -300 33 -67 c40 -81 110 -148 190 -180 55 -22 68 -23 342 -23 274 0 287 1 342 23 80 32 150 99 190 180 l33 66 3 274 c3 254 2 279 -17 341 -26 81 -73 147 -137 190 -85 56 -119 61 -418 61 -234 -1 -278 -3 -323 -19z m588 -103 c127 -43 198 -166 170 -292 -34 -152 -197 -237 -339 -176 -56 24 -116 83 -138 136 -18 44 -18 142 1 187 49 119 190 185 306 145z m-482 -566 c100 -51 106 -186 11 -250 -29 -20 -44 -23 -89 -19 -48 3 -58 8 -94 46 -38 41 -39 44 -35 101 5 63 20 88 73 121 38 24 90 24 134 1z"/>
  </g>
  <g id="small" fill="url(#linear-gradient)" stroke="none">
    <path d="M83 265 c-45 -19 -73 -69 -73 -129 0 -71 55 -126 126 -126 148 0 197 174 72 250 -38 23 -80 25 -125 5z"/>
  </g>
  <g id="outline" fill="#a9d1df" stroke="none">
    <path
      d="M720 1390 c-205 -5 -218 -7 -272 -32 -105 -49 -191 -149 -223 -260 -14 -48 -16 -101 -13 -340 l3 -283 32 -67 c53 -112 148 -191 268 -222 85 -23 525 -23 610 0 119 30 215 111 269 224 l31 65 3 283 c3 239 1 291 -13 340 -32 110 -118 212 -219 258 -53 24 -164 45 -226 42 -19 -1 -132 -5 -250 -8z m416 -55 c113 -33 198 -119 235 -236 19 -62 20 -87 17 -341 l-3 -274 -33 -66 c-40 -81 -110 -148 -190 -180 -55 -22 -68 -23 -342 -23 -274 0 -287 1 -342 23 -80 32 -150 99 -190 180 l-33 67 0 300 c0 289 1 302 22 348 46 99 117 164 216 198 45 16 89 18 323 19 210 0 281 -3 320 -15z"/>
    <path
      d="M83 265 c-45 -19 -73 -69 -73 -129 0 -71 55 -126 126 -126 148 0 197 174 72 250 -38 23 -80 25 -125 5z m131 -56 c44 -52 33 -125 -24 -154 -46 -24 -78 -19 -116 19 -45 45 -47 95 -5 137 24 23 38 29 74 29 38 0 49 -5 71 -31z"/>
  </g>

</svg>