<?xml version="1.0" encoding="UTF-8" standalone="no"?>
<!DOCTYPE svg PUBLIC "-//W3C//DTD SVG 1.1//EN" "http://www.w3.org/Graphics/SVG/1.1/DTD/svg11.dtd">
<svg version="1.1" xmlns="http://www.w3.org/2000/svg" xmlns:xlink="http://www.w3.org/1999/xlink"
     preserveAspectRatio="xMidYMid meet" viewBox="0 0 682 682" width="682" height="682">
  <defs>
    <path
      d="M481.67 8.53C485.67 9.01 487.89 9.27 488.33 9.33C498.99 10.66 504.99 14.66 509.52 23.58C511.52 27.58 511.65 54.36 511.38 345.5C511.36 366.67 511.22 472.56 510.98 663.14C508.74 666.02 507.5 667.62 507.25 667.94C502.72 673.94 497.12 677 488.33 678.2C487.89 678.25 485.67 678.52 481.67 679C485.27 680.04 487.27 680.62 487.66 680.73C490.86 681.66 497.52 682.2 502.32 681.93C510.45 681.53 515.11 679.53 586 645.56C669.14 605.72 670.87 604.65 677.67 589.99C677.93 589.43 679.21 586.64 681.53 581.6C681.53 439.3 681.53 360.24 681.53 344.43C681.53 73.95 682.73 99.13 669.67 85.94C663.41 79.68 657.02 76.35 586.93 42.64C581.87 40.2 556.55 28.03 510.98 6.13C504.99 5.89 501.66 5.76 500.99 5.73C495.53 5.6 488.86 6.13 486.33 6.93C485.71 7.14 484.16 7.67 481.67 8.53Z"
      id="cG4Bcaqza"></path>
    <path
      d="M333.77 166.69C286.87 218.65 247.03 262.62 245.16 264.35C244.94 264.56 243.83 265.63 241.83 267.55C347.94 354.46 399.01 396.3 395.06 393.06C362.55 366.28 335.9 344.03 336.17 343.5C336.3 343.1 362.95 320.98 395.46 294.33C399.39 291.12 419.02 275.04 454.35 246.1L454.35 163.89L454.35 81.68C452.6 79.04 451.62 77.57 451.42 77.28C444.63 67.42 433.97 64.22 424.37 69.29C420.64 71.28 393.46 100.6 333.77 166.69Z"
      id="a9GCLC9vo"></path>
    <path
      d="M2.66 225.45C0 229.71 0 232.11 0 343.76C0 431.57 0.4 458.48 1.73 460.88C2.53 462.75 5.33 465.41 7.86 466.75C16.79 472.08 18.52 470.74 53.56 432.37C55.68 430.06 66.25 418.51 85.27 397.73L85.14 343.76L85.14 289.8C66.35 269.18 55.92 257.72 53.83 255.42C36.51 236.5 20.92 220.52 19.19 219.72C15.19 218.25 12.26 218.25 8.39 219.85C6.66 220.52 4.13 223.05 2.66 225.45Z"
      id="b1PoJi9C1q"></path>
    <path
      d="M27.18 505.25C20.25 511.38 9.33 510.85 4.13 504.05C2.53 502.19 1.33 501.39 1.33 502.45C1.33 505.92 7.33 514.85 11.59 517.78C13.86 519.24 28.91 526.04 45.04 532.7C76.88 546.02 81.41 546.96 91.27 542.43C94.2 541.09 99.27 537.63 102.6 534.7C105.93 531.77 133.64 508.85 164.29 483.8C168.01 480.75 186.62 465.52 220.12 438.1C217.72 435.54 216.38 434.12 216.12 433.84C213.99 431.57 199.46 415.58 184.01 398.39C168.42 381.2 155.23 366.95 154.56 366.68C154.03 366.41 125.65 397.06 91.54 434.63C57.56 472.21 28.51 504.05 27.18 505.25Z"
      id="f1tqjYmLzf"></path>
    <path
      d="M173.88 211.59C136.57 180.81 103 153.36 99.53 150.43C92.07 144.57 84.21 141.9 76.61 143.1C70.48 143.9 15.72 166.55 10.66 170.28C7.06 172.95 1.33 182.01 1.33 185.07C1.33 186.14 2.53 185.34 4 183.47C7.2 179.48 14.52 176.95 20.25 178.14C25.32 179.08 15.72 168.68 233.17 409.45C335.37 522.71 420.64 616.24 422.51 617.31C428.77 621.17 435.7 621.44 442.23 617.98C445.56 616.24 449.42 613.18 450.89 611.18C453.69 607.45 453.69 605.72 454.09 524.44C454.11 518.91 454.19 491.29 454.35 441.56C418.78 412.46 399.01 396.3 395.06 393.06C362.55 366.28 180.68 217.18 173.88 211.59Z"
      id="a9TxfEq6zR"></path>
  </defs>
  <g>
    <g>
      <g>
        <use xlink:href="#cG4Bcaqza" opacity="1" fill="#9164dc" fill-opacity="1"></use>
        <g>
          <use xlink:href="#cG4Bcaqza" opacity="1" fill-opacity="0" stroke="#000000" stroke-width="1"
               stroke-opacity="0"></use>
        </g>
      </g>
      <g>
        <use xlink:href="#a9GCLC9vo" opacity="1" fill="#6f42ba" fill-opacity="1"></use>
        <g>
          <use xlink:href="#a9GCLC9vo" opacity="1" fill-opacity="0" stroke="#000000" stroke-width="1"
               stroke-opacity="0"></use>
        </g>
      </g>
      <g>
        <use xlink:href="#b1PoJi9C1q" opacity="1" fill="#633ba5" fill-opacity="1"></use>
        <g>
          <use xlink:href="#b1PoJi9C1q" opacity="1" fill-opacity="0" stroke="#000000" stroke-width="1"
               stroke-opacity="0"></use>
        </g>
      </g>
      <g>
        <use xlink:href="#f1tqjYmLzf" opacity="1" fill="#6f42ba" fill-opacity="1"></use>
        <g>
          <use xlink:href="#f1tqjYmLzf" opacity="1" fill-opacity="0" stroke="#000000" stroke-width="1"
               stroke-opacity="0"></use>
        </g>
      </g>
      <g>
        <use xlink:href="#a9TxfEq6zR" opacity="1" fill="#7b50c3" fill-opacity="1"></use>
        <g>
          <use xlink:href="#a9TxfEq6zR" opacity="1" fill-opacity="0" stroke="#000000" stroke-width="1"
               stroke-opacity="0"></use>
        </g>
      </g>
    </g>
  </g>
</svg>