<svg xmlns="http://www.w3.org/2000/svg" xmlns:xlink="http://www.w3.org/1999/xlink" width="261" height="60" viewBox="0 0 261 60">
    <defs>
        <path id="a" d="M.197 52.579V.074h52.567z"/>
        <linearGradient id="b" x1="57.483%" x2="24.808%" y1="57.466%" y2="24.869%">
            <stop offset="0%" stop-color="#15DD69"/>
            <stop offset="23.34%" stop-color="#15DD69"/>
            <stop offset="88.985%" stop-color="#AF1DF5"/>
            <stop offset="100%" stop-color="#AF1DF5"/>
        </linearGradient>
    </defs>
    <g fill="none" fill-rule="evenodd">
        <g fill="#000" fill-rule="nonzero">
            <path d="M71.466 14.436l1.322-1.158c.996 1.536 2.016 2.362 3.709 2.362 1.831 0 3.176-1.346 3.176-3.968V.592h1.854v11.056c0 1.937-.556 3.402-1.484 4.347-.904.897-2.132 1.37-3.57 1.37-2.434 0-3.987-1.229-5.007-2.93zM84.263 11.058v-.048c0-3.52 2.434-6.354 5.749-6.354 3.547 0 5.587 2.882 5.587 6.449 0 .236 0 .378-.023.59H86.07c.255 2.646 2.086 4.134 4.22 4.134 1.645 0 2.804-.685 3.778-1.724l1.112 1.016c-1.205 1.37-2.665 2.291-4.937 2.291-3.292 0-5.981-2.575-5.981-6.354zm9.528-.71c-.186-2.22-1.438-4.157-3.825-4.157-2.087 0-3.663 1.772-3.895 4.158h7.72zM98.798 13.892v-7.37H97.13V4.916h1.67V1.23h1.784v3.685h3.802v1.606h-3.802v7.134c0 1.488.812 2.032 2.017 2.032.603 0 1.113-.119 1.739-.426v1.56c-.626.33-1.298.52-2.156.52-1.924 0-3.385-.97-3.385-3.45zM107.283.593h6.908c1.855 0 3.315.543 4.242 1.465.673.708 1.044 1.582 1.044 2.645v.047c0 2.15-1.299 3.26-2.574 3.827 1.924.59 3.478 1.725 3.478 3.992v.048c0 2.834-2.342 4.512-5.889 4.512h-7.209V.593zm10.339 4.37c0-1.63-1.275-2.693-3.593-2.693h-4.938v5.693h4.799c2.202 0 3.732-1.016 3.732-2.953v-.047zm-3.408 4.654h-5.123v5.834h5.448c2.457 0 3.987-1.11 3.987-2.952v-.048c0-1.795-1.484-2.834-4.312-2.834zM123.163 4.916h1.785v3.189c.88-2.032 2.62-3.496 4.891-3.402v1.96h-.139c-2.62 0-4.752 1.914-4.752 5.6v4.866h-1.785V4.916zM130.488 13.585v-.047c0-2.575 2.087-3.945 5.124-3.945 1.53 0 2.619.213 3.685.52v-.425c0-2.197-1.321-3.331-3.57-3.331-1.414 0-2.526.378-3.64.897l-.532-1.488c1.321-.614 2.62-1.016 4.358-1.016 1.692 0 2.99.45 3.871 1.347.812.827 1.229 2.008 1.229 3.567v7.465h-1.716v-1.843c-.834 1.11-2.225 2.102-4.334 2.102-2.226 0-4.475-1.299-4.475-3.803zm8.833-.945v-1.18a12.29 12.29 0 0 0-3.524-.52c-2.249 0-3.5.992-3.5 2.527v.047c0 1.536 1.39 2.433 3.013 2.433 2.202 0 4.01-1.37 4.01-3.307zM144.305.239h2.04v2.007h-2.04V.24zm.116 4.677h1.785v12.213h-1.785V4.916zM149.799 4.916h1.785v2.126c.788-1.323 2.04-2.386 4.103-2.386 2.898 0 4.59 1.984 4.59 4.89v7.583h-1.785V9.995c0-2.268-1.205-3.685-3.315-3.685-2.063 0-3.593 1.535-3.593 3.826v6.993H149.8V4.916zM162.503 15.57l.904-1.3c1.299.992 2.736 1.56 4.15 1.56 1.437 0 2.48-.757 2.48-1.938v-.047c0-1.228-1.414-1.7-2.99-2.15-1.878-.543-3.964-1.204-3.964-3.448v-.048c0-2.102 1.715-3.496 4.08-3.496 1.46 0 3.083.52 4.312 1.347l-.812 1.37c-1.113-.733-2.387-1.181-3.547-1.181-1.414 0-2.318.756-2.318 1.771v.048c0 1.157 1.484 1.606 3.083 2.102 1.855.567 3.848 1.3 3.848 3.496v.047c0 2.315-1.877 3.662-4.265 3.662-1.715 0-3.616-.685-4.96-1.796z"/>
        </g>
        <g fill="#000" fill-rule="nonzero">
            <path d="M85.12 23.84h5.855l12.37 29.173h-6.638l-2.64-6.497H81.863l-2.64 6.497H72.75l12.37-29.173zm6.68 17.048l-3.835-9.393-3.835 9.393h7.67zM104.046 42.047v-.083c0-6.33 4.824-11.545 11.587-11.545 4.165 0 6.763 1.407 8.824 3.724l-3.835 4.138c-1.402-1.49-2.804-2.441-5.03-2.441-3.134 0-5.361 2.772-5.361 6.041v.083c0 3.393 2.186 6.125 5.608 6.125 2.103 0 3.546-.91 5.072-2.36l3.67 3.725c-2.144 2.359-4.618 4.055-9.03 4.055-6.64 0-11.505-5.13-11.505-11.462zM126.354 46.64v-.083c0-4.841 3.67-7.076 8.907-7.076 2.226 0 3.835.373 5.402.91v-.372c0-2.607-1.609-4.055-4.743-4.055-2.391 0-4.082.455-6.103 1.2l-1.567-4.8c2.433-1.076 4.825-1.78 8.577-1.78 3.423 0 5.897.91 7.464 2.483 1.65 1.656 2.392 4.097 2.392 7.077v12.869h-6.062v-2.4c-1.525 1.696-3.629 2.813-6.68 2.813-4.165 0-7.587-2.4-7.587-6.786zm14.39-1.448v-1.117c-1.071-.497-2.473-.828-3.999-.828-2.68 0-4.33 1.076-4.33 3.062v.083c0 1.697 1.402 2.69 3.423 2.69 2.928 0 4.907-1.614 4.907-3.89zM150.105 41.964v-.083c0-7.407 4.824-11.462 10.061-11.462 3.34 0 5.402 1.531 6.887 3.31V22.806h6.268v30.208h-6.268v-3.187c-1.526 2.07-3.629 3.6-6.887 3.6-5.154 0-10.061-4.055-10.061-11.462zm17.03 0v-.083c0-3.682-2.433-6.124-5.36-6.124-2.928 0-5.402 2.4-5.402 6.124v.083c0 3.683 2.474 6.125 5.401 6.125 2.928 0 5.361-2.442 5.361-6.125zM176.866 42.047v-.083c0-6.33 4.494-11.545 10.927-11.545 7.382 0 10.763 5.752 10.763 12.042 0 .496-.041 1.076-.083 1.655h-15.38c.618 2.855 2.597 4.345 5.401 4.345 2.103 0 3.63-.662 5.36-2.276l3.588 3.186c-2.061 2.566-5.03 4.138-9.03 4.138-6.64 0-11.546-4.676-11.546-11.462zm15.587-1.862c-.371-2.814-2.02-4.718-4.66-4.718-2.598 0-4.288 1.863-4.783 4.718h9.443zM202.225 30.833h6.268v3.145c1.443-1.862 3.34-3.559 6.515-3.559 2.886 0 5.072 1.283 6.226 3.517 1.939-2.275 4.248-3.517 7.258-3.517 4.66 0 7.464 2.814 7.464 8.152v14.442h-6.268V40.64c0-2.98-1.32-4.51-3.67-4.51-2.35 0-3.794 1.53-3.794 4.51v12.373h-6.268V40.64c0-2.98-1.32-4.51-3.67-4.51-2.35 0-3.793 1.53-3.793 4.51v12.373h-6.268v-22.18zM254.305 30.833h6.515l-8.494 22.718c-1.691 4.51-3.505 6.207-7.258 6.207-2.268 0-3.959-.58-5.567-1.531l2.103-4.552c.825.496 1.856.869 2.68.869 1.073 0 1.65-.331 2.186-1.448l-8.66-22.263h6.64l5.03 15.104 4.825-15.104z"/>
        </g>
        <path fill="#000" fill-rule="nonzero" d="M52.821 0v52.759H0z"/>
        <path fill="#FFF" fill-rule="nonzero" d="M33.143 43.448h13.464v3.103H33.143z"/>
        <g transform="translate(0 1.034)">
            <mask id="c" fill="#fff">
                <use xlink:href="#a"/>
            </mask>
            <path fill="url(#b)" fill-rule="nonzero" d="M26.48 78.83l-52.566-52.504L26.48-26.178l52.567 52.504z" mask="url(#c)"/>
        </g>
    </g>
</svg>
