<?xml version="1.0" encoding="utf-8"?>
<!-- Generator: Adobe Illustrator 19.1.0, SVG Export Plug-In . SVG Version: 6.00 Build 0)  -->
<!DOCTYPE svg PUBLIC "-//W3C//DTD SVG 1.1 Tiny//EN" "http://www.w3.org/Graphics/SVG/1.1/DTD/svg11-tiny.dtd">
<svg version="1.1" baseProfile="tiny" xmlns="http://www.w3.org/2000/svg" xmlns:xlink="http://www.w3.org/1999/xlink" x="0px" y="0px"
	 width="16px" height="270px" viewBox="0 0 16 270" overflow="inherit" xml:space="preserve">
<style type="text/css">
	.st0{fill:#BFBFBF;}
	.st1{fill:none;stroke:#BFBFBF;stroke-linecap:round;stroke-linejoin:round;stroke-miterlimit:10;}
	.st2{fill:#FFFFFF;stroke:#BFBFBF;stroke-linecap:round;stroke-linejoin:round;stroke-miterlimit:10;}
	.st3{fill:#85C4FF;}
	.st4{fill:none;stroke:#85C4FF;stroke-linecap:round;stroke-linejoin:round;stroke-miterlimit:10;}
	.st5{fill:#FFFFFF;stroke:#85C4FF;stroke-linecap:round;stroke-linejoin:round;stroke-miterlimit:10;}
	.st6{fill:#FF8888;}
	.st7{fill:none;stroke:#FF8888;stroke-linecap:round;stroke-linejoin:round;stroke-miterlimit:10;}
	.st8{fill:#FFFFFF;stroke:#FF8888;stroke-linecap:round;stroke-linejoin:round;stroke-miterlimit:10;}
	.st9{fill:#DB2400;}
	.st10{fill:#FFFFFF;}
	.st11{fill:none;}
	.st12{opacity:0.7;fill:#FFFFFF;}
	.st13{opacity:0.3;fill:#BFBFBF;}
	.st14{fill:#999999;}
</style>
<g>
	<path class="st0" d="M14,6v7H2V6H14 M14,5H2C1.4,5,1,5.4,1,6v7c0,0.6,0.4,1,1,1h12c0.6,0,1-0.4,1-1V6C15,5.4,14.6,5,14,5L14,5z"/>
</g>
<polyline class="st1" points="2,6 8,11 14,6 "/>
<line class="st2" x1="6" y1="10" x2="3" y2="12"/>
<line class="st2" x1="10" y1="10" x2="13" y2="12"/>
<g>
	<path class="st3" d="M8,17l6,5v7H2v-7L8,17 M8,16c-0.2,0-0.5,0.1-0.6,0.2l-6,5C1.1,21.4,1,21.7,1,22v7c0,0.6,0.4,1,1,1h12
		c0.6,0,1-0.4,1-1v-7c0-0.3-0.1-0.6-0.4-0.8l-6-5C8.5,16.1,8.2,16,8,16L8,16z"/>
</g>
<polyline class="st4" points="2,22 8,27 14,22 "/>
<line class="st5" x1="6" y1="26" x2="3" y2="28"/>
<line class="st5" x1="10" y1="26" x2="13" y2="28"/>
<g>
	<path class="st6" d="M14,38v7H2v-7H14 M14,37H2c-0.6,0-1,0.4-1,1v7c0,0.6,0.4,1,1,1h12c0.6,0,1-0.4,1-1v-7C15,37.4,14.6,37,14,37
		L14,37z"/>
</g>
<polyline class="st7" points="2,38 8,43 14,38 "/>
<line class="st8" x1="6" y1="42" x2="3" y2="44"/>
<line class="st8" x1="10" y1="42" x2="13" y2="44"/>
<circle class="st9" cx="12.5" cy="37.5" r="3.5"/>
<g>
	<path class="st10" d="M12.5,38.5c-0.3,0-0.5-0.2-0.5-0.5v-2.5c0-0.3,0.2-0.5,0.5-0.5s0.5,0.2,0.5,0.5V38
		C13,38.3,12.8,38.5,12.5,38.5z"/>
</g>
<circle class="st10" cx="12.5" cy="39.5" r="0.5"/>
<polygon class="st11" points="2.8,54 5,55.8 5,54 "/>
<polygon class="st11" points="2,54.7 2,60.4 5,58.1 5,57.2 "/>
<polygon class="st11" points="2.8,61 5,61 5,59.4 "/>
<polygon class="st11" points="13.2,61 11,59.4 11,61 "/>
<polygon class="st11" points="14,60.4 14,54.7 11,57.2 11,58.1 "/>
<polygon class="st11" points="13.2,54 11,54 11,55.8 "/>
<path class="st0" d="M14,53h-3v1h2.2L11,55.8v1.3l3-2.5v5.7l-3-2.2v1.3l2.2,1.6H11H5H2.8L5,59.4v-1.3l-3,2.2v-5.7l3,2.5v-1.3L2.8,54
	H5v-1H2c-0.6,0-1,0.4-1,1v7c0,0.6,0.4,1,1,1h12c0.6,0,1-0.4,1-1v-7C15,53.4,14.6,53,14,53z"/>
<polygon class="st12" points="11,58.1 11,57.2 10.4,57.7 "/>
<polygon class="st12" points="5,57.2 5,58.1 5.6,57.7 "/>
<rect x="5" y="53" class="st13" width="6" height="1"/>
<path class="st13" d="M5,55.8v1.3l0.6,0.5L5,58.1v1.3l1.3-1c0,0,0.1-0.1,0.1-0.1l1.3,1.1c0.1,0.1,0.2,0.1,0.3,0.1s0.2,0,0.3-0.1
	l1.3-1.1c0,0,0,0.1,0.1,0.1l1.3,1v-1.3l-0.6-0.5l0.6-0.5v-1.3l-3,2.5L5,55.8z"/>
<g>
	<path class="st14" d="M7.2,57v-0.4c0-0.4,0.1-0.8,0.2-1.1c0.2-0.3,0.4-0.6,0.8-0.9C8.7,54.3,9,54,9.1,53.8c0.1-0.2,0.2-0.4,0.2-0.7
		c0-0.3-0.1-0.6-0.3-0.7c-0.2-0.2-0.5-0.3-0.9-0.3c-0.4,0-0.7,0.1-1,0.2c-0.3,0.1-0.6,0.2-0.9,0.4l-0.5-1C6.5,51.2,7.3,51,8.2,51
		c0.8,0,1.3,0.2,1.8,0.6c0.4,0.4,0.7,0.9,0.7,1.5c0,0.3,0,0.5-0.1,0.8c-0.1,0.2-0.2,0.4-0.4,0.6c-0.2,0.2-0.5,0.5-0.9,0.8
		c-0.4,0.3-0.6,0.5-0.7,0.7c-0.1,0.2-0.2,0.4-0.2,0.7V57H7.2z M7,58.8c0-0.6,0.3-0.9,0.8-0.9c0.3,0,0.5,0.1,0.6,0.2s0.2,0.4,0.2,0.6
		c0,0.3-0.1,0.5-0.2,0.6c-0.1,0.2-0.4,0.2-0.6,0.2c-0.3,0-0.5-0.1-0.6-0.2C7.1,59.3,7,59.1,7,58.8z"/>
</g>
</svg>
