<?xml version="1.0" encoding="utf-8"?>
<!-- Generator: Adobe Illustrator 23.0.1, SVG Export Plug-In . SVG Version: 6.00 Build 0)  -->
<svg version="1.1" xmlns="http://www.w3.org/2000/svg" xmlns:xlink="http://www.w3.org/1999/xlink" x="0px" y="0px"
	 viewBox="0 0 800 800" enable-background="new 0 0 800 800" xml:space="preserve" width="800px"
	 height="800px">
<g id="Layer_1" display="none">
	<rect display="inline" fill="#040466" width="37" height="508"/>
	<rect display="inline" fill="#6A6AAD" width="24" height="24"/>
	<rect y="48" display="inline" fill="#6A6AAD" width="24" height="24"/>
	<rect y="96" display="inline" fill="#6A6AAD" width="24" height="24"/>
	<rect y="144" display="inline" fill="#6A6AAD" width="24" height="24"/>
	<rect y="192" display="inline" fill="#6A6AAD" width="24" height="24"/>
	<rect y="240" display="inline" fill="#6A6AAD" width="24" height="24"/>
	<rect y="288" display="inline" fill="#6A6AAD" width="24" height="24"/>
</g>
<g id="Layer_2">
	<path fill="#B0B1B3" d="M12,27c-4.971,0-9,4.029-9,9.001C3,40.971,7.03,45,12,45c4.971,0,9-4.029,9-8.999
		C21,31.029,16.972,27,12,27z M12,43.25c-4.004,0-7.25-3.246-7.25-7.25s3.246-7.25,7.25-7.25c4.004,0,7.25,3.246,7.25,7.25
		S16.004,43.25,12,43.25z"/>
	<g>
		<path fill="#B0B1B3" d="M10.275,33.7H8.473c-0.009-0.871,0.293-1.591,0.908-2.16c0.614-0.569,1.424-0.853,2.428-0.853
			c0.647,0,1.197,0.118,1.651,0.353s0.817,0.575,1.09,1.018s0.409,0.909,0.409,1.398c0,0.267-0.043,0.529-0.13,0.787
			c-0.087,0.258-0.225,0.522-0.413,0.794c-0.11,0.159-0.374,0.425-0.791,0.801c-0.399,0.357-0.649,0.61-0.75,0.757
			c-0.101,0.147-0.186,0.343-0.254,0.587c-0.069,0.245-0.112,0.584-0.131,1.018h-1.864l-0.007-0.305
			c0-0.606,0.112-1.157,0.337-1.653c0.225-0.495,0.589-0.96,1.094-1.395c0.486-0.421,0.779-0.71,0.88-0.869
			c0.101-0.158,0.151-0.344,0.151-0.557c0-0.29-0.123-0.535-0.368-0.736c-0.245-0.201-0.574-0.302-0.987-0.302
			c-0.422,0-0.768,0.123-1.039,0.368C10.417,32.997,10.28,33.312,10.275,33.7z M11.589,38.973c0.334,0,0.62,0.113,0.856,0.339
			c0.236,0.226,0.354,0.5,0.354,0.821s-0.117,0.596-0.351,0.824s-0.516,0.343-0.846,0.343c-0.331,0-0.611-0.114-0.843-0.343
			c-0.232-0.229-0.348-0.503-0.348-0.824s0.115-0.595,0.344-0.821C10.986,39.086,11.263,38.973,11.589,38.973z"/>
	</g>
	<path fill="#B0B1B3" d="M12,5c0.833,0,2.5,0.562,2.5,3.5c0,3-1.693,3.5-2.5,3.5h0c-0.833,0-2.5-0.5-2.5-3.5
		C9.5,5.531,11.141,5,12,5 M12,3c-0.646,0-1.892,0.156-2.967,1.204C8.016,5.194,7.5,6.639,7.5,8.5c0,4.342,2.829,5.5,4.5,5.5
		c1.672,0,4.5-1.159,4.5-5.5C16.5,4.721,14.167,3,12,3L12,3z"/>
	<path fill="#B0B1B3" d="M12,15c-3.186,0-8,0-8,5v1h2v-1c0-3,2.686-3,6-3c3.314,0,6,0.031,6,3v1h2v-1C20,15,15.186,15,12,15z"/>
	<g>
		<g>
			<path fill="#00A6FD" d="M15,57v10H5V57H15 M15,55.999H5c-0.553,0-1.001,0.448-1.001,1.001v10c0,0.553,0.448,1.001,1.001,1.001h10
				c0.553,0,1.001-0.448,1.001-1.001V57C16.001,56.447,15.553,55.999,15,55.999L15,55.999z"/>
		</g>
	</g>
	<polygon fill="#FFFFFF" stroke="#4C4C4C" stroke-linecap="round" stroke-linejoin="round" stroke-miterlimit="10" points="
		8.088,64.912 9,62 19,52 21,54 11,64 	"/>
	
		<line fill="#FFFFFF" stroke="#4C4C4C" stroke-linecap="round" stroke-linejoin="round" stroke-miterlimit="10" x1="10" y1="62" x2="11" y2="63"/>
	
		<line fill="#FFFFFF" stroke="#4C4C4C" stroke-linecap="round" stroke-linejoin="round" stroke-miterlimit="10" x1="9" y1="64" x2="8" y2="65"/>
	<polygon fill="#4C4C4C" points="17,54 19,56 17,57 16,56 	"/>
	<g>
		<path fill="#B0B1B3" d="M18,80c-0.104,0-0.211-0.017-0.316-0.052c-0.524-0.175-0.807-0.741-0.632-1.265l1-3
			C18.188,75.275,18.569,75,19,75h4c0.552,0,1,0.448,1,1s-0.448,1-1,1h-3.279l-0.772,2.316C18.809,79.735,18.419,80,18,80z"/>
	</g>
	<g>
		<path fill="#B0B1B3" d="M17,90H6c-0.395,0-0.753-0.233-0.914-0.594l-4-9c-0.133-0.299-0.111-0.645,0.059-0.925
			c0.169-0.28,0.466-0.459,0.792-0.479l16-1c0.3-0.021,0.58,0.093,0.783,0.304c0.204,0.211,0.304,0.501,0.275,0.793l-1,10
			C17.944,89.611,17.514,90,17,90z M6.65,88h9.445l0.792-7.929l-13.39,0.837L6.65,88z"/>
	</g>
	<g>
		<circle fill="#B0B1B3" cx="14.5" cy="93.5" r="1.5"/>
	</g>
	<g>
		<circle fill="#B0B1B3" cx="8.5" cy="93.5" r="1.5"/>
	</g>
	<g>
		<path fill="#4C4C4C" d="M18,104c-0.104,0-0.211-0.017-0.316-0.052c-0.524-0.175-0.807-0.741-0.632-1.265l1-3
			C18.188,99.275,18.569,99,19,99h4c0.552,0,1,0.448,1,1s-0.448,1-1,1h-3.279l-0.772,2.316C18.809,103.735,18.419,104,18,104z"/>
	</g>
	<g>
		<path fill="#4C4C4C" d="M17,114H6c-0.395,0-0.753-0.233-0.914-0.594l-4-9c-0.133-0.299-0.111-0.645,0.059-0.925
			c0.169-0.28,0.466-0.459,0.792-0.479l16-1c0.3-0.02,0.58,0.093,0.783,0.304c0.204,0.211,0.304,0.501,0.275,0.793l-1,10
			C17.944,113.611,17.514,114,17,114z M6.65,112h9.445l0.792-7.929l-13.39,0.837L6.65,112z"/>
	</g>
	<g>
		<circle fill="#4C4C4C" cx="14.5" cy="117.5" r="1.5"/>
	</g>
	<g>
		<circle fill="#4C4C4C" cx="8.5" cy="117.5" r="1.5"/>
	</g>
	<g>
		<path fill-rule="evenodd" clip-rule="evenodd" fill="#72BF40" d="M11,121c-3.45,0-6,2.55-6,6v6h2v-6c0-2.587,1.413-4,4-4
			s4,1.413,4,4v6h2v-6C17,123.55,14.45,121,11,121z"/>
	</g>
	<g>
		<g>
			<path fill-rule="evenodd" clip-rule="evenodd" fill="#FFFFFF" d="M11,142c-2.23,0-4.19-0.157-5.243-0.42
				c-2.281-0.57-2.8-2.229-2.756-3.025L3,131.609c0-0.265,0.105-0.52,0.293-0.707l1-1c0.188-0.188,0.442-0.293,0.707-0.293h12
				c0.265,0,0.52,0.105,0.707,0.293l1,1c0.188,0.188,0.293,0.442,0.293,0.707v7c0.042,0.742-0.477,2.4-2.757,2.97
				C15.19,141.843,13.23,142,11,142z"/>
		</g>
		<g>
			<path fill="#72BF40" d="M17,130.61l1,1v7c0,0,0.082,1.479-2,2c-1.041,0.26-3.021,0.39-5,0.39s-3.959-0.13-5-0.39
				c-2.082-0.521-2-2-2-2v-7l1-1H17 M17,128.61H5c-0.53,0-1.039,0.211-1.414,0.586l-1,1C2.211,130.57,2,131.079,2,131.61v6.969
				c-0.024,1.109,0.67,3.26,3.515,3.971C7.14,142.956,9.892,143,11,143s3.86-0.044,5.485-0.45c2.845-0.711,3.539-2.862,3.515-3.971
				v-6.969c0-0.53-0.211-1.039-0.586-1.414l-1-1C18.039,128.82,17.53,128.61,17,128.61L17,128.61z"/>
		</g>
	</g>
	
		<path fill-rule="evenodd" clip-rule="evenodd" fill="#FFFFFF" stroke="#4C4C4C" stroke-linecap="round" stroke-linejoin="round" stroke-miterlimit="10" d="
		M15.5,126.5"/>
	<g>
		<g>
			<path fill-rule="evenodd" clip-rule="evenodd" fill="#FFFFFF" d="M11,139c-1.93,0-3.5-1.57-3.5-3.5S9.07,132,11,132
				s3.5,1.57,3.5,3.5S12.93,139,11,139z M11.083,137.077L11,136.665l-0.083,0.413H11.083z M11,133.894
				c-0.233,0-0.423,0.19-0.423,0.423c0,0.153,0.206,0.417,0.38,0.489c0.015,0.006,0.029,0.012,0.042,0.02
				c0.014-0.007,0.028-0.014,0.042-0.02c0.174-0.071,0.381-0.336,0.381-0.489C11.423,134.084,11.233,133.894,11,133.894z"/>
		</g>
		<g>
			<path fill="#72BF40" d="M11,132.5c1.657,0,3,1.343,3,3s-1.343,3-3,3c-1.657,0-3-1.343-3-3S9.343,132.5,11,132.5 M10.308,137.577
				h1.385l-0.462-2.308c0.337-0.137,0.692-0.566,0.692-0.952c0-0.51-0.414-0.923-0.923-0.923c-0.51,0-0.923,0.413-0.923,0.923
				c0,0.386,0.355,0.814,0.692,0.952L10.308,137.577 M11,131.5c-2.206,0-4,1.794-4,4s1.794,4,4,4s4-1.794,4-4S13.206,131.5,11,131.5
				L11,131.5z"/>
		</g>
	</g>
	<path fill="none" stroke="#D9D9D9" stroke-linecap="round" stroke-linejoin="round" stroke-miterlimit="10" d="M17.416,161.455
		c0.534-0.883,0.845-1.906,0.845-3c0-3.314-2.803-6-6.261-6s-6.261,2.686-6.261,6c0,1.094,0.311,2.117,0.845,3"/>
	<g>
		
			<radialGradient id="SVGID_1_" cx="12" cy="156" r="26.4908" fx="4.8431" fy="166.1324" gradientTransform="matrix(0.8914 0.4533 -0.7484 1.4719 118.0585 -79.048)" gradientUnits="userSpaceOnUse">
			<stop  offset="0.1499" style="stop-color:#2EE540"/>
			<stop  offset="0.165" style="stop-color:#42E53A"/>
			<stop  offset="0.2119" style="stop-color:#7AE329"/>
			<stop  offset="0.2574" style="stop-color:#AAE21B"/>
			<stop  offset="0.3004" style="stop-color:#CEE10F"/>
			<stop  offset="0.3404" style="stop-color:#E9E108"/>
			<stop  offset="0.3761" style="stop-color:#F8E003"/>
			<stop  offset="0.404" style="stop-color:#FEE001"/>
			<stop  offset="0.4648" style="stop-color:#FFCE00"/>
			<stop  offset="0.5256" style="stop-color:#FFB401"/>
			<stop  offset="0.6244" style="stop-color:#FF9702"/>
		</radialGradient>
		<path fill="url(#SVGID_1_)" d="M12,147c-6.616,0-12,5.139-12,11.455c0,2.002,0.559,3.984,1.619,5.73
			c0.472,0.777,1.522,1.044,2.345,0.594c0.815-0.454,1.095-1.457,0.621-2.237c-0.757-1.245-1.157-2.659-1.157-4.088
			c0-4.511,3.845-8.182,8.571-8.182s8.571,3.671,8.571,8.182c0,1.429-0.4,2.843-1.157,4.088c-0.474,0.78-0.194,1.783,0.623,2.237
			c0.261,0.144,0.559,0.221,0.86,0.221c0.609,0,1.179-0.313,1.483-0.815c1.06-1.747,1.619-3.728,1.619-5.73
			C24,152.139,18.616,147,12,147z"/>
	</g>
	<g>
		<polygon fill="#A0A0A0" points="19,152 10,160 11,161 		"/>
		<polygon fill="none" stroke="#A0A0A0" stroke-linecap="round" stroke-linejoin="round" stroke-miterlimit="10" points="19,152 
			10,160 11,161 		"/>
	</g>
	<g>
		<circle fill="#A0A0A0" cx="12" cy="159" r="3"/>
	</g>
	<g>
		<circle fill="#FFFFFF" cx="12" cy="159" r="1"/>
	</g>
	
		<path fill="#A0A0A0" stroke="#FFFFFF" stroke-width="1.5" stroke-linecap="round" stroke-linejoin="round" stroke-miterlimit="10" d="
		M13,159"/>
</g>
</svg>
