<?xml version="1.0" encoding="utf-8"?>
<!-- Generator: Adobe Illustrator 23.0.1, SVG Export Plug-In . SVG Version: 6.00 Build 0)  -->
<svg version="1.1" id="Layer_2" xmlns="http://www.w3.org/2000/svg" xmlns:xlink="http://www.w3.org/1999/xlink" x="0px" y="0px"
	 viewBox="0 0 800 800" enable-background="new 0 0 800 800" xml:space="preserve" width="800px"
	 height="800px">
		  <title>ji-small</title>
<polyline fill="none" stroke="#999999" stroke-linecap="round" stroke-linejoin="round" stroke-miterlimit="10" points="13,5 3,6 
	5,12 13,12 15,3 17,3 "/>
<g>
	<path fill="#999999" d="M14,23v9H4v-9H14 M14,22H4c-0.552,0-1,0.448-1,1v9c0,0.552,0.448,1,1,1h10c0.552,0,1-0.448,1-1v-9
		C15,22.448,14.552,22,14,22L14,22z"/>
</g>
<line fill="#FFFFFF" stroke="#999999" stroke-linecap="round" stroke-linejoin="round" stroke-miterlimit="10" x1="6" y1="21" x2="6" y2="20"/>
<line fill="#FFFFFF" stroke="#999999" stroke-linecap="round" stroke-linejoin="round" stroke-miterlimit="10" x1="12" y1="21" x2="12" y2="20"/>
<circle fill="none" stroke="#999999" stroke-linecap="round" stroke-linejoin="round" stroke-miterlimit="10" cx="9" cy="45" r="6.5"/>
<polygon fill-rule="evenodd" clip-rule="evenodd" fill="none" stroke="#308800" stroke-linecap="round" stroke-linejoin="round" stroke-miterlimit="10" points="
	7,42 7,48 12,45 "/>
<circle fill="none" stroke="#999999" stroke-linecap="round" stroke-linejoin="round" stroke-miterlimit="10" cx="9" cy="63" r="6.5"/>
<line fill-rule="evenodd" clip-rule="evenodd" fill="#FFFFFF" stroke="#DB2400" stroke-linecap="round" stroke-linejoin="round" stroke-miterlimit="10" x1="6.5" y1="60.5" x2="11.5" y2="65.5"/>
<line fill-rule="evenodd" clip-rule="evenodd" fill="#FFFFFF" stroke="#DB2400" stroke-linecap="round" stroke-linejoin="round" stroke-miterlimit="10" x1="11.5" y1="60.5" x2="6.5" y2="65.5"/>
<path fill="none" stroke="#999999" stroke-linecap="round" stroke-linejoin="round" stroke-miterlimit="10" d="M9.5,93.5
	c-2.209,0-4,1.791-4,4c0,0.423-0.122,1.617,0,2l-1,1l-1,1l-1,1v2h3v-1l0,0h1v-1l1-1h2c2.209,0,4-1.791,4-4
	C13.5,95.291,11.709,93.5,9.5,93.5z"/>
<circle fill="#999999" cx="10.5" cy="96.5" r="1"/>
<path fill="#999999" d="M13,26H5c-0.276,0-0.5-0.224-0.5-0.5S4.724,25,5,25h8c0.276,0,0.5,0.224,0.5,0.5S13.276,26,13,26z"/>
<circle fill="none" stroke="#999999" stroke-linecap="round" stroke-linejoin="round" stroke-miterlimit="10" cx="7" cy="15" r="1"/>
<circle fill="none" stroke="#999999" stroke-linecap="round" stroke-linejoin="round" stroke-miterlimit="10" cx="11" cy="15" r="1"/>
<g>
	<path fill="#999999" d="M10.5,76.5v4h3l-5,4l-5-4h3v-4H10.5 M10.5,75.5h-4c-0.552,0-1,0.448-1,1v3h-2
		c-0.425,0-0.803,0.268-0.944,0.669c-0.141,0.401-0.013,0.847,0.319,1.112l5,4C8.058,85.427,8.279,85.5,8.5,85.5
		s0.442-0.073,0.625-0.219l5-4c0.332-0.265,0.459-0.711,0.319-1.112C14.303,79.768,13.925,79.5,13.5,79.5h-2v-3
		C11.5,75.948,11.052,75.5,10.5,75.5L10.5,75.5z"/>
</g>
<line fill="#FFFFFF" x1="3.5" y1="88" x2="13.5" y2="88"/>
<path fill="#999999" d="M13.5,88.5h-10C3.224,88.5,3,88.276,3,88s0.224-0.5,0.5-0.5h10c0.276,0,0.5,0.224,0.5,0.5
	S13.776,88.5,13.5,88.5z"/>
<polyline fill="none" stroke="#999999" stroke-linecap="round" stroke-linejoin="round" stroke-miterlimit="10" points="17,118.5 
	14,121.5 11,118.5 "/>
<path fill="none" stroke="#999999" stroke-linecap="round" stroke-linejoin="round" stroke-miterlimit="10" d="M8.5,123
	c-3.037,0-5.5-2.462-5.5-5.5s2.463-5.5,5.5-5.5s5.5,2.462,5.5,5.5v1.833"/>
</svg>
