<?xml version="1.0" encoding="utf-8"?>
<!-- Generator: Adobe Illustrator 23.0.1, SVG Export Plug-In . SVG Version: 6.00 Build 0)  -->
<svg xmlns:xlink="http://www.w3.org/1999/xlink" version="1.1" baseProfile="tiny" id="icons" xmlns="http://www.w3.org/2000/svg"
	 x="0px" y="0px" width="90px" height="630px" viewBox="0 0 90 630" xml:space="preserve">
<path fill="#818181" d="M78.657,98.169h-3.259v-5.23c0-0.659-0.534-1.194-1.194-1.194s-1.194,0.534-1.194,1.194v5.23H60.795v-5.23
	c0-0.659-0.534-1.194-1.194-1.194c-0.659,0-1.194,0.534-1.194,1.194v5.23H46.194v-5.23c0-0.659-0.534-1.194-1.194-1.194
	s-1.194,0.534-1.194,1.194v5.23H31.592v-5.23c0-0.659-0.534-1.194-1.194-1.194s-1.194,0.534-1.194,1.194v5.23H16.989v-5.23
	c0-0.659-0.534-1.194-1.194-1.194c-0.659,0-1.194,0.534-1.194,1.194v5.23h-3.259C5.081,98.177,0.007,103.251,0,109.512v51.12
	c0.007,6.262,5.081,11.336,11.343,11.343h67.314c6.262-0.007,11.336-5.081,11.343-11.343v-51.12
	C89.993,103.251,84.919,98.177,78.657,98.169z M87.613,160.632c-0.006,4.944-4.012,8.95-8.956,8.956H11.343
	c-4.944-0.006-8.95-4.012-8.956-8.956V114.84h85.226V160.632z M87.613,112.453H2.387v-2.941c0.006-4.944,4.012-8.95,8.956-8.956
	h3.259v4.947c0,0.659,0.534,1.194,1.194,1.194c0.659,0,1.194-0.534,1.194-1.194v-4.947h12.216v4.947
	c0,0.659,0.534,1.194,1.194,1.194s1.194-0.534,1.194-1.194v-4.947h12.215v4.947c0,0.659,0.534,1.194,1.194,1.194
	s1.194-0.534,1.194-1.194v-4.947h12.215v4.947c0,0.659,0.534,1.194,1.194,1.194c0.659,0,1.194-0.534,1.194-1.194v-4.947h12.216
	v4.947c0,0.659,0.534,1.194,1.194,1.194s1.194-0.534,1.194-1.194v-4.947h3.259c4.944,0.006,8.95,4.012,8.956,8.956V112.453z"/>
<g>
	<path fill="#818181" d="M12.129,233.378H46.79c0.655,3.627,4.127,6.037,7.755,5.382c2.741-0.495,4.886-2.641,5.382-5.382h16.395
		c0.659,0,1.194-0.534,1.194-1.194c0-0.659-0.534-1.193-1.194-1.193H59.926c-0.656-3.627-4.128-6.037-7.755-5.381
		c-2.741,0.495-4.886,2.64-5.381,5.381H12.129c-0.659,0-1.194,0.534-1.194,1.193C10.935,232.843,11.469,233.378,12.129,233.378z
		 M53.358,227.89c2.372,0,4.294,1.922,4.294,4.294c0,2.372-1.922,4.294-4.294,4.294s-4.294-1.922-4.294-4.294
		C49.067,229.814,50.988,227.893,53.358,227.89z"/>
	<path fill="#818181" d="M34.605,195.933h-5.042c-0.659,0-1.194,0.534-1.194,1.194c0,0.659,0.534,1.193,1.194,1.193h5.042
		c0.659,0,1.194-0.534,1.194-1.193C35.798,196.467,35.264,195.933,34.605,195.933L34.605,195.933z"/>
	<path fill="#818181" d="M78.657,188.139H11.343C5.081,188.147,0.007,193.221,0,199.482v51.12
		c0.007,6.262,5.081,11.336,11.343,11.343h67.314c6.262-0.007,11.336-5.081,11.343-11.343v-51.12
		C89.993,193.221,84.919,188.147,78.657,188.139z M87.613,250.603c-0.006,4.944-4.012,8.95-8.956,8.956H11.343
		c-4.944-0.006-8.95-4.012-8.956-8.956V204.81h85.226V250.603z M87.613,202.423H2.387v-2.941c0.006-4.944,4.012-8.95,8.956-8.956
		h67.314c4.944,0.006,8.95,4.012,8.956,8.956V202.423z"/>
	<path fill="#818181" d="M25.888,195.933h-5.042c-0.659,0-1.194,0.534-1.194,1.194c0,0.659,0.534,1.193,1.194,1.193h5.042
		c0.659,0,1.194-0.534,1.194-1.193C27.081,196.467,26.547,195.933,25.888,195.933z"/>
	<path fill="#818181" d="M17.172,195.933h-5.043c-0.659,0-1.194,0.534-1.194,1.194c0,0.659,0.534,1.193,1.194,1.193h5.043
		c0.659,0,1.194-0.534,1.194-1.193C18.365,196.467,17.831,195.933,17.172,195.933z"/>
	<path fill="#818181" d="M12.129,219.094h9.726c0.764,3.609,4.309,5.916,7.918,5.152c2.585-0.547,4.605-2.567,5.152-5.152h41.397
		c0.659,0,1.194-0.534,1.194-1.193c0-0.659-0.534-1.194-1.194-1.194H34.987c-0.548-3.644-3.947-6.153-7.591-5.605
		c-2.896,0.436-5.169,2.709-5.605,5.605h-9.663c-0.659,0-1.194,0.534-1.194,1.194C10.935,218.56,11.469,219.094,12.129,219.094z
		 M28.39,213.415c2.372,0,4.294,1.923,4.294,4.295c0,2.372-1.923,4.294-4.295,4.294c-2.372,0-4.294-1.923-4.294-4.294
		C24.098,215.339,26.019,213.417,28.39,213.415L28.39,213.415z"/>
	<path fill="#818181" d="M12.129,247.662h20.816c0.655,3.627,4.127,6.037,7.755,5.382c2.741-0.495,4.886-2.641,5.382-5.382h30.241
		c0.659,0,1.194-0.534,1.194-1.193s-0.534-1.194-1.194-1.194H46.081c-0.655-3.627-4.127-6.037-7.755-5.382
		c-2.741,0.495-4.886,2.641-5.382,5.382H12.129c-0.659,0-1.194,0.534-1.194,1.194S11.469,247.662,12.129,247.662z M39.513,242.174
		c2.372,0,4.295,1.922,4.295,4.294c0,2.372-1.922,4.295-4.294,4.295c-2.372,0-4.295-1.922-4.295-4.294c0,0,0,0,0-0.001
		C35.222,244.098,37.142,242.177,39.513,242.174z"/>
</g>
<path fill="#818181" d="M44.999,360C20.146,360,0,339.852,0,314.999S20.148,270,45.001,270C69.853,270,90,290.148,90,315
	C89.972,339.842,69.841,359.973,44.999,360z M46.148,331.658v25.991c7.938-0.76,14.804-9.358,18.486-21.788
	C58.816,333.233,52.529,331.804,46.148,331.658L46.148,331.658z M25.367,335.864c3.683,12.427,10.548,21.025,18.484,21.784v-25.99
	C37.47,331.805,31.183,333.235,25.367,335.864L25.367,335.864z M13.368,343.658c5.904,6.526,13.68,11.07,22.264,13.01
	c-5.234-3.887-9.579-10.93-12.311-19.819C19.728,338.688,16.384,340.976,13.368,343.658z M66.68,336.846
	c-2.732,8.889-7.078,15.934-12.313,19.822c8.586-1.941,16.364-6.486,22.269-13.014C73.619,340.972,70.274,338.685,66.68,336.846
	L66.68,336.846z M2.313,316.149c0.244,9.411,3.606,18.474,9.558,25.767c3.266-2.9,6.899-5.36,10.805-7.315
	c-1.579-6.026-2.408-12.223-2.471-18.452L2.313,316.149z M67.326,334.598c3.907,1.955,7.54,4.414,10.807,7.314
	c5.95-7.293,9.311-16.354,9.554-25.763H69.796C69.733,322.376,68.904,328.573,67.326,334.598z M22.502,316.149
	c0.06,5.893,0.814,11.759,2.247,17.475c6.023-2.67,12.515-4.119,19.102-4.263v-13.211H22.502z M46.148,329.36
	c6.587,0.143,13.081,1.591,19.105,4.26c1.433-5.715,2.187-11.58,2.246-17.472H46.148V329.36z M69.796,313.852h17.892
	c-0.246-9.472-3.65-18.59-9.671-25.906c-3.253,2.87-6.867,5.304-10.749,7.241C68.884,301.279,69.734,307.549,69.796,313.852
	L69.796,313.852z M46.148,313.852h21.351c-0.059-5.968-0.832-11.907-2.302-17.691c-6.008,2.654-12.482,4.094-19.049,4.238
	L46.148,313.852z M22.502,313.852h21.349v-13.453c-6.566-0.144-13.039-1.583-19.047-4.237
	C23.334,301.946,22.561,307.885,22.502,313.852L22.502,313.852z M2.313,313.852h17.892c0.062-6.302,0.912-12.572,2.528-18.664
	c-3.882-1.936-7.496-4.371-10.749-7.242C5.962,295.262,2.558,304.38,2.313,313.852L2.313,313.852z M25.43,293.925
	c5.799,2.61,12.063,4.03,18.421,4.176v-25.749C35.96,273.107,29.127,281.612,25.43,293.925z M46.148,272.352v25.749
	c6.358-0.146,12.623-1.566,18.422-4.177C60.872,281.611,54.04,273.107,46.148,272.352L46.148,272.352z M13.488,286.21
	c3.003,2.652,6.328,4.915,9.897,6.734c2.735-8.79,7.053-15.756,12.247-19.613C27.107,275.258,19.378,279.753,13.488,286.21z
	 M54.367,273.332c5.193,3.857,9.512,10.822,12.248,19.612c3.569-1.82,6.894-4.082,9.896-6.734
	C70.621,279.753,62.892,275.259,54.367,273.332z"/>
<path fill="#818181" d="M79.481,31.622c-11.216-0.405-21.892-3.243-27.432-7.297V8.378l-0.676-0.27C39.075,2.703,26.643,0,14.211,0
	h-1.216v26.757v19.459v41.589c0,0.66,0.535,1.195,1.195,1.195c0.66,0,1.195-0.535,1.195-1.195h0.043V44.73
	c7.973-4.459,16.892-6.892,26.486-7.567v11.486l1.081,0.135c1.351,0.27,2.838,0.27,4.189,0.27c9.73,0,20.405-5,33.243-15.27
	l2.568-2.027L79.481,31.622z M15.292,42.027v-15.27V2.432C26.643,2.568,38.265,5.135,49.481,10v24.73
	C36.913,34.189,25.427,36.622,15.292,42.027z M44.076,37.162c1.892,0,3.514,0,5.27,0c-0.405,2.162-1.892,2.838-3.649,3.649
	c-0.541,0.27-1.081,0.541-1.622,0.811V37.162z M44.211,46.486v-0.541c0.135-0.135,0.135-0.405,0.135-0.676
	c0-1.081,0.676-1.486,2.432-2.297c2.027-0.946,4.594-2.027,5-5.811h0.135v-1.352v-8.784c6.351,3.919,15.946,5.946,24.189,6.622
	C63.535,43.378,53.4,47.432,44.211,46.486z"/>
</svg>
