<?xml version="1.0" encoding="utf-8"?>
<!-- Generator: Adobe Illustrator 19.1.0, SVG Export Plug-In . SVG Version: 6.00 Build 0)  -->
<svg version="1.1" id="Layer_2" xmlns="http://www.w3.org/2000/svg" xmlns:xlink="http://www.w3.org/1999/xlink" x="0px" y="0px"
	 viewBox="0 0 352 295" width="352px" height="295px" enable-background="new 0 0 352 295" xml:space="preserve">
<path fill="#1EB446" d="M26,254.206c-0.027-0.186-0.054-0.371-0.081-0.557c-0.19-1.287-0.617-2.489-1.285-3.605
	c-0.024-0.041-0.062-0.073-0.105-0.122c-0.74,0.426-1.473,0.844-2.203,1.267c-2.302,1.333-4.602,2.668-6.904,4.001
	c-1.923,1.113-3.846,2.226-5.771,3.336c-0.679,0.392-1.202,0.221-1.524-0.486c-0.76-1.67-1.52-3.339-2.282-5.008
	c-0.115-0.251-0.184-0.494,0.055-0.711c0.203-0.185,0.444-0.172,0.761,0.054c0.838,0.593,1.678,1.184,2.504,1.793
	c0.474,0.35,0.948,0.392,1.482,0.148c1.314-0.599,2.637-1.18,3.956-1.767c2.848-1.268,5.696-2.535,8.544-3.804
	c0.117-0.052,0.23-0.111,0.387-0.187c-0.111-0.135-0.195-0.253-0.294-0.357c-1.963-2.058-4.37-3.313-7.14-3.853
	c-1.02-0.199-2.069-0.335-3.106-0.346c-1.421-0.015-2.822,0.214-4.203,0.609c-1.464,0.419-2.821,1.034-4.07,1.889
	c-1.722,1.177-3.076,2.686-3.933,4.602c-0.445,0.995-0.727,2.042-0.789,3.139v1.407c0.019,0.118,0.037,0.237,0.053,0.355
	c0.298,2.214,1.273,4.095,2.831,5.674c0.488,0.494,1.033,0.934,1.57,1.377c0.339,0.28,0.464,0.616,0.359,1.031
	c-0.193,0.763-0.394,1.524-0.602,2.283c-0.056,0.203-0.097,0.391,0.09,0.544c0.189,0.155,0.366,0.079,0.55-0.028
	c0.877-0.513,1.761-1.014,2.634-1.534c0.457-0.272,0.911-0.334,1.427-0.175c1.031,0.318,2.098,0.439,3.173,0.513
	c1.666,0.114,3.304-0.052,4.909-0.486c2.2-0.594,4.171-1.628,5.821-3.222c1.684-1.628,2.778-3.575,3.108-5.92
	c0.024-0.172,0.05-0.344,0.077-0.516V254.206z"/>
<g>
	<path fill="#26377C" d="M8.895,75.549H6.156c0-0.45-0.053-0.751-0.158-0.905c-0.163-0.227-0.613-0.341-1.35-0.341
		c-0.715,0-1.189,0.065-1.42,0.197c-0.231,0.131-0.347,0.417-0.347,0.857c0,0.398,0.102,0.66,0.308,0.786
		c0.147,0.09,0.341,0.142,0.583,0.158l0.553,0.039c1.183,0.078,1.923,0.133,2.218,0.165C7.48,76.6,8.158,76.848,8.58,77.252
		c0.332,0.314,0.53,0.726,0.593,1.234c0.037,0.304,0.055,0.648,0.055,1.03c0,0.88-0.084,1.525-0.252,1.934
		c-0.305,0.751-0.99,1.224-2.057,1.423C6.472,82.959,5.789,83,4.87,83c-1.534,0-2.604-0.091-3.208-0.275
		c-0.74-0.225-1.229-0.68-1.465-1.366C0.065,80.977,0,80.341,0,79.451h2.739c0,0.099,0,0.175,0,0.226
		c0,0.476,0.136,0.782,0.409,0.917c0.189,0.094,0.416,0.144,0.685,0.149H4.84c0.514,0,0.842-0.026,0.983-0.079
		c0.252-0.099,0.417-0.258,0.497-0.479c0.042-0.136,0.062-0.312,0.062-0.527c0-0.481-0.175-0.774-0.527-0.879
		c-0.131-0.042-0.742-0.099-1.832-0.172C3.148,78.544,2.54,78.484,2.2,78.426c-0.897-0.168-1.495-0.513-1.793-1.037
		c-0.263-0.445-0.394-1.119-0.394-2.02c0-0.686,0.071-1.235,0.212-1.649c0.142-0.414,0.371-0.729,0.685-0.943
		c0.462-0.33,1.053-0.523,1.772-0.581c0.599-0.052,1.262-0.079,1.993-0.079c1.15,0,1.969,0.066,2.458,0.197
		c1.192,0.32,1.788,1.217,1.788,2.692C8.921,75.127,8.913,75.308,8.895,75.549z"/>
	<path fill="#26377C" d="M20.941,83V72.059h4.292h0.674h0.521c0.752,0,1.326,0.062,1.721,0.184c0.903,0.283,1.507,0.862,1.818,1.736
		c0.16,0.46,0.24,1.15,0.24,2.073c0,1.11-0.089,1.908-0.265,2.394c-0.352,0.96-1.076,1.513-2.17,1.656
		c-0.128,0.022-0.676,0.041-1.641,0.057l-0.489,0.016h-1.756V83H20.941z M23.886,77.637h1.836c0.582-0.021,0.936-0.065,1.064-0.136
		c0.173-0.095,0.29-0.287,0.348-0.574c0.037-0.191,0.057-0.476,0.057-0.854c0-0.462-0.038-0.805-0.111-1.03
		c-0.106-0.313-0.36-0.504-0.762-0.574c-0.08-0.01-0.27-0.016-0.571-0.016h-1.86L23.886,77.637L23.886,77.637z"/>
	<path fill="#26377C" d="M36.492,81.109h-3.937L32.026,83H28.98l3.288-10.941h4.442L40.036,83h-2.982L36.492,81.109z M35.907,78.978
		l-1.38-4.743l-1.338,4.743H35.907z"/>
	<path fill="#F9B300" d="M16.877,73.599c1.214,0,2.299,0.56,3.011,1.436l0.635-1.361c-0.993-0.938-2.344-1.517-3.834-1.517
		c-2.32,0-4.305,1.402-5.12,3.385h-1.238L9.6,77.108h1.592c-0.012,0.146-0.02,0.29-0.02,0.439c0,0.18,0.009,0.356,0.027,0.532h-0.8
		l-0.731,1.568h1.938c0.838,1.933,2.797,3.291,5.082,3.291c1.15,0,2.219-0.345,3.103-0.934v-1.921
		c-0.712,0.811-1.753,1.323-2.915,1.323c-1.357,0-2.551-0.7-3.246-1.759h4.058l0.731-1.568h-5.386
		c-0.028-0.189-0.042-0.381-0.042-0.578c0-0.132,0.007-0.263,0.019-0.394h5.861l0.731-1.566h-6.085
		C14.191,74.379,15.443,73.599,16.877,73.599z"/>
</g>
<path fill="#FF6E00" d="M51.136,104.192h-1.265v7.888c0,1.412-0.605,2.229-2.398,2.644l-11.464,3.24c0,0-0.977,0.266-0.977-0.621
	c0-0.736,0.873-0.827,1.008-0.959l-0.053,0.021l10.462-4.158c0.855-0.479,1.558-1.583,1.558-2.453V97.357
	c0-1.964-1.913-1.292-2.331-1.042c-0.457,0.27-12.119,6.803-12.119,6.803C32.7,103.6,32,104.705,32,105.576v12.388
	c0,0.87,1.242,2.03,2.042,2.034V120h17.093c1.025,0.003,1.864-0.709,1.864-1.581v-12.643C53,104.905,52.161,104.192,51.136,104.192z
	 M42.87,103.247c0.805-0.537,1.573-0.361,1.712,0.386c0.138,0.753-0.327,1.708-1.135,2.244c-0.804,0.535-1.573,0.364-1.712-0.389
	C41.597,104.739,42.061,103.783,42.87,103.247z"/>
<g>
	<path fill="#006DB4" d="M11.537,97.759c1.812,0,3.527,0.421,5.056,1.17c0.24,0.115,0.479,0.239,0.719,0.378l-1.062,0.95
		l-1.595-1.65l-2.694,2.402l-1.6-1.745l-5.017,4.521l3.217,3.545l-1.265,1.112l3.169,3.549L9.207,113.1l4.528,5.039l2.687-2.475
		l2.323,2.652c-0.462,0.358-0.966,0.696-1.52,1.009c-1.68,0.959-3.622,1.507-5.688,1.507C5.183,120.834,0,115.65,0,109.297
		C0,102.942,5.183,97.759,11.537,97.759L11.537,97.759z"/>
	<polygon fill="#006DB4" points="9.435,108.566 12.178,106.097 14.648,108.842 11.906,111.311 	"/>
	<polygon fill="#006DB4" points="11.386,113.309 14.129,110.837 16.6,113.582 13.856,116.053 	"/>
	<polygon fill="#006DB4" points="7.472,103.882 10.216,101.412 12.685,104.155 9.941,106.625 	"/>
	<polygon fill="#006DB4" points="12.506,102.553 14.564,100.701 16.416,102.758 14.359,104.611 	"/>
	<polygon fill="#006DB4" points="16.163,111.038 18.221,109.186 20.073,111.243 18.015,113.097 	"/>
	<polygon fill="#006DB4" points="17.972,115.195 20.029,113.342 21.883,115.399 19.825,117.252 	"/>
	<polygon fill="#006DB4" points="18.801,105.669 20.173,104.434 21.408,105.807 20.036,107.041 	"/>
	<polygon fill="#006DB4" points="17.049,101.594 18.42,100.359 19.655,101.73 18.283,102.964 	"/>
	<polygon fill="#006DB4" points="20.555,109.745 21.926,108.51 23.162,109.882 21.79,111.117 	"/>
	<polygon fill="#006DB4" points="14.403,106.691 16.461,104.838 18.313,106.896 16.256,108.747 	"/>
</g>
<g>
	<path fill="#EA5F12" d="M18.45,88.573c0.006,0.072,0.035,0.148,0.089,0.228c0.12,0.17,0.317,0.477,0.667,0.823
		c0.349,0.35,0.685,0.574,0.837,0.689c0.071,0.053,0.149,0.082,0.225,0.082c0,0,0.114,0.011,0.228-0.082
		c0.147-0.12,0.487-0.339,0.836-0.689c0.35-0.347,0.548-0.653,0.667-0.823c0.055-0.08,0.084-0.156,0.089-0.228l0,0v-0.001
		c0-0.002,0-0.004,0-0.004v-0.001c-0.005-0.072-0.035-0.147-0.089-0.225c-0.119-0.171-0.317-0.478-0.667-0.827
		c-0.349-0.35-0.682-0.575-0.836-0.687c-0.118-0.086-0.228-0.083-0.228-0.083c-0.076,0.001-0.153,0.03-0.225,0.083
		c-0.152,0.115-0.488,0.337-0.837,0.687c-0.35,0.349-0.548,0.656-0.667,0.827c-0.054,0.077-0.083,0.154-0.089,0.226h-0.002
		C18.448,88.569,18.45,88.571,18.45,88.573h-0.002H18.45z"/>
	<path fill="#EA5F12" d="M34.024,91.138c0.003,0.053,0.025,0.11,0.067,0.171c0.089,0.129,0.239,0.356,0.501,0.62
		c0.263,0.261,0.516,0.43,0.629,0.516c0.054,0.042,0.112,0.062,0.169,0.063c0,0,0.086,0.006,0.172-0.063
		c0.111-0.088,0.366-0.255,0.629-0.516c0.262-0.264,0.412-0.491,0.501-0.62c0.041-0.061,0.064-0.118,0.067-0.171h0.001
		c0-0.002,0-0.002,0-0.004l0,0h-0.001c-0.004-0.055-0.026-0.112-0.067-0.171c-0.09-0.128-0.239-0.358-0.501-0.62
		c-0.263-0.264-0.514-0.433-0.629-0.519c-0.09-0.065-0.172-0.061-0.172-0.061c-0.057,0-0.115,0.021-0.169,0.061
		c-0.114,0.086-0.367,0.255-0.629,0.519c-0.262,0.261-0.412,0.491-0.501,0.62c-0.042,0.059-0.064,0.116-0.067,0.171h-0.002h0.001
		c0,0.002-0.001,0.002-0.001,0.004H34.024z"/>
	<path fill="#EA5F12" d="M39.906,92.07c-7.458,1.518-15.007,1.613-21.132,1.312c-4.335-0.211-7.793-1.421-10.34-2.568
		c-1.054-0.476-2.073-0.759-3.042-1.033c-2.459-0.694-5.257,0.289-5.385,2.637c-0.173,3.163,4.055,3.034,4.055,3.034
		c-3.243-0.194-3.341-2.119-3.318-2.6c0.016-0.365,0.042-0.93,0.617-1.489c0.574-0.557,1.576-0.797,2.318-0.797
		c3.637,0,5.866,3.3,12.289,4.611c8.189,1.674,19.613,0.346,20.902,0.23c1.289-0.114,1.357-0.62,1.818-1.151
		c0.46-0.529,1.52-1.358,1.934-1.864C41.033,91.886,40.385,91.973,39.906,92.07z"/>
	<path fill="#10458A" d="M9.428,83.046H9.005c-1.067-0.006-1.524,0.012-1.718,0.32v0.046v1.362H3.006v0.713h4.281v1.703H4.203v0.713
		h6.492c-0.056,0.785-0.705,2.004-1.64,3.18c0.545,0.234,1.131,0.466,1.751,0.689c1.346-1.754,2.067-3.663,2.122-4.583h-3.5v-1.703
		h4.396v-0.713H9.428L9.428,83.046z"/>
	<path fill="#10458A" d="M18.513,83.046c-1.067-0.006-1.526,0.012-1.718,0.32v0.046c0,0.156-0.092,1.023-1.228,2.167
		c-1.043,1.05-1.704,1.451-1.704,1.451s0.062,0.139,0.131,0.246c0.069,0.105,0.168,0.192,0.168,0.192s0.678-0.223,1.512-0.662v6.319
		c0.69,0.118,1.403,0.215,2.141,0.28V85.22c0.544-0.603,0.936-1.326,0.96-2.173L18.513,83.046L18.513,83.046z"/>
	<path fill="#10458A" d="M36.407,83.945c-0.386,0-1.875,0.047-3.476,0.104v-1.004h-0.423c-1.067-0.006-1.524,0.012-1.717,0.32v0.046
		v0.714c-0.98,0.036-1.813,0.068-2.225,0.084v-0.412h-0.348c-1.066-0.007-1.524,0.012-1.717,0.319v0.046v2.732h4.29v1.912h-2.954
		v0.713h2.954v3.866c0.721-0.053,1.435-0.114,2.14-0.186v-3.68h3.146v-0.713h-3.146v-1.912h3.714v-0.36
		c0.18-0.006,0.449-0.062,0.529-0.505c0.093-0.507,0.123-0.83,0.138-1.059C37.328,84.742,37.328,83.945,36.407,83.945z
		 M35.456,85.157c-0.024,0.23-0.108,0.771-0.147,1.025h-6.743v-1.228c0.703-0.026,6.086-0.227,6.445-0.227
		C35.394,84.728,35.486,84.85,35.456,85.157z"/>
	<path fill="#10458A" d="M24.414,83.046h-0.423c-1.067-0.006-1.525,0.012-1.718,0.32v0.046v2.112h-4.075v0.714h4.075V93.6
		c0.662,0.01,1.32,0.021,1.969,0.021l0,0c0.057,0,0.114-0.002,0.171-0.002v-7.381h1.197v-0.714h-1.197L24.414,83.046L24.414,83.046
		L24.414,83.046z"/>
	<path fill="#10458A" d="M3.949,94.509c-1.266,0-2.578-0.62-2.578-2.14c0-1.111,1.108-1.584,1.704-1.754
		c-0.621,0.095-1.289,0.333-1.717,0.748c-0.575,0.559-0.601,1.124-0.617,1.489c-0.023,0.48,0.076,2.406,3.318,2.6
		c0,0-0.013,0-0.034,0c0.054,0.004,0.084,0.002,0.084,0.002c2.354,0,4.255-1.103,5.685-2.528c-0.567-0.295-1.095-0.588-1.6-0.862
		C6.896,93.415,5.301,94.509,3.949,94.509z"/>
</g>
<g>
	<path fill="#FFFFFF" d="M3,141c-1.299,0-2-1.03-2-2v-15c0-0.97,0.701-2,2-2h8c1.57,0,6,4.43,6,6v11c0,0.97-0.701,2-2,2H3z"/>
	<g>
		<path fill="#4C4C4C" d="M11,123c1,0,5,4,5,5v11c0,0,0,1-1,1H3c-1,0-1-1-1-1v-15c0,0,0-1,1-1H11 M11,121H3c-1.949,0-3,1.546-3,3v15
			c0,1.454,1.051,3,3,3h12c1.949,0,3-1.546,3-3v-11c0-0.472,0-1.578-2.711-4.289S11.472,121,11,121L11,121z"/>
	</g>
</g>
<polygon fill="#4C4C4C" points="12,123 12,127 16,127 15,128 11,128 11,124 "/>
<g>
	<rect y="32" fill="#00B4E8" width="23" height="15"/>
	<rect x="1" y="34" fill="#484848" width="21" height="3"/>
	<rect x="17" y="39" fill="#FFFFFF" width="4" height="3"/>
</g>
<path fill="#003087" d="M18.624,53.844c0.279-1.791-0.004-3.007-0.97-4.109C16.589,48.521,14.665,48,12.202,48H5.053
	c-0.503,0-0.931,0.367-1.01,0.863L1.067,67.739c-0.059,0.373,0.229,0.709,0.606,0.709h4.414l1.107-7.029
	C7.193,61.419,18.386,53.718,18.624,53.844z"/>
<path fill="#009CDE" d="M18.624,53.844c-0.022,0.137-0.045,0.275-0.073,0.417c-0.943,4.841-4.168,6.514-8.287,6.514H8.165
	c-0.502,0-0.927,0.367-1.005,0.863l-1.074,6.81l-0.305,1.93C5.728,70.706,5.981,71,6.311,71h3.72c0.44,0,0.815-0.32,0.884-0.756
	l0.036-0.188l0.702-4.444l0.044-0.245c0.07-0.436,0.444-0.755,0.884-0.755h0.557c3.603,0,6.424-1.465,7.249-5.698
	c0.344-1.77,0.165-3.246-0.744-4.284C19.366,54.315,19.024,54.055,18.624,53.844"/>
<path fill="#012169" d="M17.637,53.451c-0.144-0.042-0.292-0.081-0.445-0.114c-0.153-0.034-0.311-0.064-0.473-0.089
	c-0.564-0.093-1.183-0.137-1.848-0.137H9.269c-0.139,0-0.27,0.032-0.387,0.088c-0.259,0.124-0.451,0.367-0.497,0.669l-1.191,7.551
	l-0.034,0.22c0.078-0.496,0.503-0.863,1.007-0.863h2.098c4.119,0,7.344-1.673,8.287-6.514c0.029-0.142,0.051-0.281,0.073-0.417
	c-0.239-0.127-0.496-0.235-0.774-0.328C17.779,53.494,17.709,53.472,17.637,53.451"/>
<g>
	<path fill="#E31837" d="M6.267,154h7.987c1.114,0,1.809,0.909,1.547,2.027l-3.718,15.949C11.822,173.091,10.705,174,9.589,174
		H1.604c-1.113,0-1.81-0.909-1.548-2.023l3.721-15.949C4.036,154.909,5.151,154,6.267,154z"/>
	<path fill="#00447C" d="M13.589,154h9.184c1.114,0,0.614,0.909,0.352,2.027l-3.719,15.949c-0.26,1.114-0.181,2.023-1.297,2.023
		H8.923c-1.115,0-1.807-0.909-1.544-2.023l3.719-15.949C11.361,154.909,12.475,154,13.589,154z"/>
	<path fill="#007B85" d="M22.409,154h7.988c1.117,0,1.811,0.909,1.548,2.027l-3.719,15.949c-0.262,1.114-1.378,2.023-2.494,2.023
		h-7.983c-1.118,0-1.81-0.909-1.548-2.023l3.719-15.949C20.178,154.909,21.292,154,22.409,154z"/>
	<path fill="#FFFFFF" d="M21.076,169.004h0.755l0.216-0.722h-0.751L21.076,169.004z M21.678,167.008l-0.257,0.857
		c0,0,0.286-0.146,0.439-0.193c0.155-0.034,0.39-0.065,0.39-0.065l0.183-0.598L21.678,167.008 M22.053,165.777l-0.25,0.822
		c0,0,0.282-0.127,0.433-0.168c0.155-0.041,0.386-0.056,0.386-0.056l0.183-0.599L22.053,165.777 M23.72,165.777l-0.974,3.22h0.263
		l-0.205,0.665h-0.26l-0.063,0.205h-0.925l0.063-0.205h-1.882l0.19-0.617h0.192l0.984-3.268l0.198-0.659h0.945l-0.099,0.332
		c0,0,0.25-0.181,0.49-0.242c0.238-0.062,1.607-0.086,1.607-0.086l-0.202,0.655H23.72"/>
	<path fill="#FFFFFF" d="M24.135,165.122h1.011l0.009,0.374c-0.006,0.065,0.048,0.095,0.167,0.095h0.205l-0.188,0.62h-0.543
		c-0.473,0.033-0.651-0.168-0.64-0.396L24.135,165.122z"/>
	<path fill="#FFFFFF" d="M24.27,168.064h-0.962l0.165-0.554h1.099l0.156-0.503h-1.084l0.185-0.623h3.019l-0.188,0.623h-1.013
		l-0.16,0.503h1.019l-0.171,0.554H25.24l-0.198,0.231h0.445l0.109,0.696c0.014,0.068,0.014,0.113,0.035,0.143
		c0.024,0.024,0.157,0.038,0.234,0.038h0.136l-0.205,0.676h-0.344c-0.052,0-0.131-0.004-0.241-0.007
		c-0.102-0.011-0.175-0.068-0.243-0.105c-0.064-0.029-0.158-0.104-0.179-0.236l-0.108-0.693l-0.5,0.684
		c-0.159,0.217-0.374,0.381-0.735,0.381h-0.698l0.183-0.604h0.266c0.079,0,0.146-0.03,0.198-0.056
		c0.049-0.021,0.095-0.047,0.146-0.122L24.27,168.064z"/>
	<path fill="#FFFFFF" d="M13.739,166.551h2.548l-0.189,0.606h-1.019l-0.157,0.52h1.041l-0.191,0.626h-1.043l-0.25,0.842
		c-0.032,0.092,0.247,0.105,0.346,0.105l0.52-0.072l-0.207,0.693h-1.174c-0.097,0-0.166-0.014-0.267-0.036
		c-0.101-0.025-0.143-0.068-0.188-0.135c-0.042-0.068-0.109-0.125-0.062-0.272l0.335-1.114h-0.579l0.192-0.637h0.582l0.154-0.52
		h-0.578L13.739,166.551z"/>
	<path fill="#FFFFFF" d="M15.451,165.462h1.045l-0.189,0.635h-1.428l-0.153,0.132c-0.067,0.065-0.09,0.039-0.176,0.084
		c-0.081,0.042-0.25,0.122-0.467,0.122h-0.459l0.185-0.61h0.137c0.115,0,0.195-0.01,0.234-0.035
		c0.047-0.029,0.097-0.093,0.154-0.198l0.263-0.476h1.036L15.451,165.462z"/>
	<path fill="#FFFFFF" d="M17.456,166.505c0,0,0.286-0.261,0.774-0.345c0.11-0.02,0.803-0.014,0.803-0.014l0.107-0.349h-1.47
		L17.456,166.505z M18.834,166.771h-1.458l-0.09,0.292h1.262c0.149-0.017,0.181,0.005,0.192-0.004L18.834,166.771 M16.944,165.122
		h0.891l-0.13,0.448c0,0,0.281-0.225,0.479-0.306c0.194-0.071,0.64-0.139,0.64-0.139l1.441-0.008l-0.492,1.634
		c-0.083,0.278-0.179,0.459-0.238,0.541c-0.056,0.084-0.118,0.156-0.244,0.225c-0.12,0.065-0.232,0.101-0.333,0.112
		c-0.096,0.007-0.242,0.01-0.444,0.011h-1.387l-0.391,1.292c-0.037,0.128-0.057,0.188-0.031,0.225
		c0.02,0.03,0.066,0.066,0.133,0.066l0.611-0.059l-0.21,0.707h-0.682c-0.217,0-0.377-0.004-0.489-0.014
		c-0.104-0.009-0.214,0-0.29-0.055c-0.064-0.057-0.159-0.131-0.159-0.207c0.007-0.07,0.037-0.188,0.083-0.346L16.944,165.122"/>
	<path fill="#FFFFFF" d="M19.54,167.756l-0.083,0.393c-0.035,0.122-0.065,0.214-0.159,0.293c-0.097,0.083-0.21,0.168-0.477,0.168
		l-0.495,0.021l-0.003,0.444c-0.006,0.123,0.027,0.112,0.046,0.132c0.024,0.021,0.046,0.029,0.064,0.039l0.159-0.01l0.47-0.025
		l-0.194,0.646h-0.542c-0.379,0-0.66-0.009-0.752-0.079c-0.091-0.058-0.102-0.132-0.102-0.256l0.034-1.727h0.864l-0.011,0.353h0.208
		c0.071,0,0.12-0.007,0.15-0.027c0.024-0.019,0.044-0.047,0.057-0.09l0.086-0.275H19.54L19.54,167.756z"/>
	<path fill="#FFFFFF" d="M7.211,159.094c-0.029,0.143-0.583,2.696-0.585,2.697c-0.118,0.518-0.205,0.886-0.501,1.123
		c-0.167,0.139-0.362,0.205-0.589,0.205c-0.364,0-0.576-0.179-0.613-0.522l-0.006-0.117c0,0,0.111-0.694,0.111-0.696
		c0,0,0.581-2.327,0.686-2.635c0.006-0.02,0.006-0.029,0.009-0.037c-1.133,0.012-1.335,0-1.347-0.018
		c-0.008,0.025-0.037,0.17-0.037,0.17l-0.594,2.623l-0.051,0.224l-0.099,0.728c0,0.215,0.043,0.392,0.127,0.54
		c0.271,0.474,1.042,0.543,1.48,0.543c0.562,0,1.089-0.118,1.447-0.335c0.618-0.367,0.782-0.938,0.924-1.445l0.068-0.262
		c0,0,0.599-2.417,0.7-2.73c0.004-0.02,0.007-0.029,0.012-0.037C7.532,159.119,7.289,159.111,7.211,159.094z"/>
	<path fill="#FFFFFF" d="M10.528,163.895c-0.402-0.005-0.543-0.005-1.013,0.019l-0.019-0.034c0.041-0.181,0.083-0.355,0.125-0.536
		l0.057-0.245c0.087-0.38,0.171-0.819,0.181-0.956c0.011-0.079,0.038-0.283-0.196-0.283c-0.095,0-0.197,0.048-0.302,0.097
		c-0.054,0.2-0.17,0.768-0.223,1.028c-0.118,0.544-0.125,0.607-0.177,0.876l-0.034,0.035c-0.414-0.005-0.557-0.005-1.033,0.019
		l-0.023-0.039c0.079-0.324,0.161-0.651,0.237-0.975c0.198-0.88,0.247-1.213,0.3-1.661l0.04-0.025
		c0.464-0.067,0.578-0.079,1.08-0.182l0.042,0.048l-0.077,0.279c0.085-0.053,0.166-0.103,0.253-0.146
		c0.238-0.117,0.502-0.152,0.646-0.152c0.221,0,0.462,0.061,0.561,0.315c0.095,0.228,0.032,0.508-0.093,1.058l-0.064,0.281
		c-0.128,0.611-0.149,0.725-0.222,1.144L10.528,163.895z"/>
	<path fill="#FFFFFF" d="M12.159,163.895c-0.242-0.001-0.398-0.005-0.551-0.001c-0.149,0.001-0.297,0.01-0.522,0.02l-0.012-0.02
		l-0.016-0.02c0.061-0.233,0.095-0.312,0.125-0.395c0.032-0.083,0.059-0.166,0.115-0.401c0.07-0.307,0.115-0.521,0.142-0.711
		c0.034-0.182,0.05-0.337,0.076-0.517l0.018-0.014l0.019-0.017c0.239-0.035,0.395-0.055,0.551-0.081
		c0.157-0.021,0.318-0.052,0.565-0.101l0.01,0.02l0.008,0.023c-0.048,0.19-0.094,0.381-0.141,0.572
		c-0.044,0.194-0.091,0.384-0.134,0.573c-0.089,0.403-0.125,0.555-0.147,0.665c-0.021,0.102-0.026,0.158-0.061,0.367l-0.022,0.02
		L12.159,163.895z"/>
	<path fill="#FFFFFF" d="M14.715,162.47c-0.02,0.103-0.112,0.491-0.233,0.656c-0.086,0.121-0.188,0.193-0.302,0.193
		c-0.032,0-0.231,0-0.234-0.294c-0.002-0.146,0.028-0.295,0.064-0.456c0.105-0.468,0.23-0.861,0.549-0.861
		C14.808,161.708,14.825,162,14.715,162.47z M15.768,162.514c0.141-0.617,0.031-0.904-0.107-1.081
		c-0.21-0.267-0.579-0.352-0.963-0.352c-0.229,0-0.779,0.02-1.208,0.417c-0.308,0.285-0.45,0.671-0.536,1.042
		c-0.086,0.378-0.187,1.058,0.441,1.312c0.192,0.082,0.469,0.106,0.648,0.106c0.461,0,0.929-0.127,1.285-0.503
		C15.6,163.152,15.724,162.699,15.768,162.514"/>
	<path fill="#FFFFFF" d="M25.587,163.938c-0.484-0.004-0.623-0.004-1.071,0.016l-0.027-0.037c0.121-0.461,0.242-0.92,0.35-1.384
		c0.142-0.605,0.173-0.863,0.219-1.215l0.036-0.03c0.482-0.068,0.616-0.088,1.117-0.18l0.014,0.04
		c-0.092,0.381-0.181,0.759-0.27,1.141c-0.185,0.796-0.25,1.2-0.323,1.616L25.587,163.938z"/>
	<path fill="#FFFFFF" d="M24.86,162.523c-0.026,0.1-0.116,0.489-0.239,0.654c-0.082,0.115-0.278,0.187-0.391,0.187
		c-0.032,0-0.228,0-0.235-0.29c-0.001-0.144,0.028-0.293,0.064-0.457c0.108-0.458,0.232-0.846,0.551-0.846
		C24.86,161.771,24.969,162.054,24.86,162.523z M25.818,162.569c0.14-0.613-0.427-0.056-0.516-0.257
		c-0.14-0.316-0.053-0.957-0.609-1.171c-0.217-0.084-0.72,0.024-1.151,0.419c-0.305,0.28-0.451,0.664-0.532,1.035
		c-0.087,0.371-0.19,1.051,0.435,1.295c0.198,0.083,0.375,0.107,0.558,0.1c0.625-0.032,1.102-0.979,1.457-1.352
		C25.729,162.342,25.776,162.749,25.818,162.569"/>
	<path fill="#FFFFFF" d="M18.511,163.895c-0.403-0.005-0.541-0.005-1.012,0.019l-0.015-0.034c0.038-0.181,0.085-0.355,0.126-0.536
		l0.056-0.245c0.088-0.38,0.172-0.819,0.18-0.956c0.009-0.079,0.037-0.283-0.192-0.283c-0.1,0-0.2,0.048-0.304,0.097
		c-0.053,0.2-0.171,0.768-0.227,1.028c-0.112,0.544-0.122,0.607-0.173,0.876l-0.036,0.035c-0.412-0.005-0.554-0.005-1.032,0.019
		l-0.021-0.039c0.079-0.324,0.159-0.651,0.235-0.975c0.2-0.88,0.246-1.213,0.301-1.661l0.037-0.025
		c0.464-0.067,0.579-0.079,1.08-0.182l0.041,0.048l-0.072,0.279c0.083-0.053,0.167-0.103,0.25-0.146
		c0.237-0.117,0.503-0.152,0.646-0.152c0.22,0,0.462,0.061,0.564,0.315c0.094,0.228,0.031,0.508-0.095,1.058l-0.062,0.281
		c-0.132,0.611-0.152,0.725-0.222,1.144L18.511,163.895z"/>
	<path fill="#FFFFFF" d="M21.994,159.091c-0.005,0-0.337,0.003-0.337,0.003c-0.868,0.012-1.216,0.009-1.358-0.01
		c-0.012,0.064-0.034,0.177-0.034,0.177l-0.313,1.441c0,0-0.744,3.063-0.779,3.207c0.759-0.009,1.069-0.009,1.201,0.005
		c0.029-0.143,0.205-1,0.206-1c0,0,0.149-0.626,0.159-0.65c0,0,0.045-0.064,0.094-0.09h0.069c0.654,0,1.392,0,1.97-0.427
		c0.396-0.291,0.665-0.722,0.785-1.245c0.031-0.129,0.053-0.281,0.053-0.435c0-0.2-0.039-0.398-0.156-0.553
		C23.259,159.102,22.671,159.094,21.994,159.091z M22.428,160.59c-0.074,0.319-0.28,0.59-0.547,0.718
		c-0.219,0.112-0.489,0.12-0.765,0.12h-0.18l0.014-0.072c0,0,0.332-1.436,0.328-1.431l0.01-0.073l0.005-0.058l0.133,0.014
		c0,0,0.681,0.059,0.698,0.06C22.392,159.973,22.502,160.239,22.428,160.59"/>
	<path fill="#FFFFFF" d="M29.557,161.102l-0.04-0.043c-0.496,0.101-0.585,0.117-1.041,0.176l-0.033,0.036
		c-0.001,0.006-0.004,0.013-0.005,0.022v-0.009c-0.34,0.781-0.331,0.613-0.608,1.229c0-0.028,0-0.044-0.001-0.075l-0.071-1.336
		l-0.042-0.043c-0.518,0.101-0.532,0.117-1.011,0.176l-0.037,0.036c-0.005,0.015-0.005,0.033-0.009,0.052l0.003,0.009
		c0.06,0.304,0.045,0.236,0.106,0.719c0.027,0.238,0.064,0.477,0.093,0.708c0.047,0.395,0.074,0.586,0.13,1.186
		c-0.323,0.533-0.4,0.737-0.713,1.205l0.023,0.045c0.467-0.02,0.576-0.02,0.922-0.02l0.075-0.083
		C27.561,164.524,29.557,161.102,29.557,161.102z"/>
	<path fill="#FFFFFF" d="M12.599,161.433c0.267-0.185,0.299-0.439,0.076-0.57c-0.226-0.134-0.623-0.092-0.891,0.093
		c-0.268,0.182-0.298,0.438-0.073,0.573C11.934,161.658,12.333,161.619,12.599,161.433z"/>
	<path fill="#FFFFFF" d="M27.262,165.136l-0.391,0.668c-0.122,0.229-0.352,0.399-0.715,0.401l-0.621-0.012l0.183-0.6h0.12
		c0.064,0,0.109-0.004,0.145-0.023c0.031-0.009,0.054-0.035,0.08-0.07l0.229-0.364H27.262L27.262,165.136z"/>
</g>
<path fill="#253B80" d="M36.185,53.13h-5.199c-0.356,0-0.658,0.258-0.714,0.61L28.17,67.07c-0.042,0.263,0.162,0.5,0.429,0.5h2.482
	c0.356,0,0.658-0.258,0.714-0.61l0.567-3.595c0.055-0.352,0.358-0.61,0.713-0.61h1.646c3.424,0,5.401-1.657,5.917-4.941
	c0.233-1.437,0.01-2.565-0.663-3.356C39.235,53.589,37.925,53.13,36.185,53.13z M36.785,57.999c-0.284,1.865-1.71,1.865-3.088,1.865
	h-0.784l0.55-3.484c0.033-0.211,0.215-0.366,0.428-0.366h0.36c0.939,0,1.824,0,2.282,0.535
	C36.805,56.869,36.889,57.343,36.785,57.999z"/>
<path fill="#253B80" d="M51.724,57.939h-2.489c-0.212,0-0.395,0.155-0.428,0.366L48.697,59l-0.174-0.252
	c-0.539-0.782-1.741-1.044-2.94-1.044c-2.751,0-5.101,2.084-5.558,5.006c-0.238,1.458,0.1,2.852,0.927,3.824
	c0.759,0.894,1.844,1.266,3.135,1.266c2.217,0,3.446-1.425,3.446-1.425l-0.111,0.692c-0.042,0.264,0.162,0.502,0.427,0.502h2.242
	c0.357,0,0.658-0.259,0.714-0.61l1.345-8.52C52.193,58.177,51.99,57.939,51.724,57.939z M48.254,62.784
	c-0.24,1.422-1.369,2.377-2.809,2.377c-0.723,0-1.301-0.232-1.672-0.671c-0.368-0.436-0.508-1.057-0.391-1.749
	c0.224-1.41,1.372-2.396,2.79-2.396c0.707,0,1.282,0.235,1.66,0.678C48.213,61.47,48.363,62.095,48.254,62.784z"/>
<path fill="#253B80" d="M64.982,57.939H62.48c-0.239,0-0.463,0.119-0.598,0.317l-3.45,5.082l-1.462-4.884
	c-0.092-0.306-0.374-0.515-0.693-0.515h-2.458c-0.299,0-0.506,0.292-0.411,0.573l2.756,8.086l-2.59,3.657
	c-0.204,0.288,0.001,0.684,0.353,0.684h2.499c0.237,0,0.459-0.116,0.594-0.31l8.32-12.01C65.537,58.332,65.333,57.939,64.982,57.939
	z"/>
<path fill="#179BD7" d="M73.265,53.13h-5.199c-0.355,0-0.658,0.258-0.713,0.61L65.25,67.07c-0.042,0.263,0.162,0.5,0.427,0.5h2.668
	c0.248,0,0.46-0.181,0.499-0.427l0.597-3.778c0.055-0.352,0.358-0.61,0.713-0.61h1.645c3.425,0,5.401-1.657,5.918-4.941
	c0.233-1.437,0.009-2.565-0.664-3.356C76.314,53.589,75.005,53.13,73.265,53.13z M73.865,57.999
	c-0.283,1.865-1.709,1.865-3.088,1.865h-0.784l0.551-3.484c0.033-0.211,0.214-0.366,0.427-0.366h0.36c0.938,0,1.824,0,2.282,0.535
	C73.886,56.869,73.969,57.343,73.865,57.999z"/>
<path fill="#179BD7" d="M88.803,57.939h-2.488c-0.214,0-0.395,0.155-0.427,0.366L85.778,59l-0.175-0.252
	c-0.539-0.782-1.74-1.044-2.939-1.044c-2.751,0-5.1,2.084-5.557,5.006c-0.237,1.458,0.1,2.852,0.927,3.824
	c0.76,0.894,1.844,1.266,3.136,1.266c2.216,0,3.446-1.425,3.446-1.425l-0.111,0.692c-0.042,0.264,0.162,0.502,0.429,0.502h2.242
	c0.355,0,0.658-0.259,0.713-0.61l1.346-8.52C89.274,58.177,89.07,57.939,88.803,57.939z M85.333,62.784
	c-0.239,1.422-1.369,2.377-2.809,2.377c-0.721,0-1.301-0.232-1.671-0.671c-0.368-0.436-0.506-1.057-0.391-1.749
	c0.226-1.41,1.372-2.396,2.79-2.396c0.707,0,1.282,0.235,1.66,0.678C85.293,61.47,85.444,62.095,85.333,62.784z"/>
<path fill="#179BD7" d="M91.738,53.496L89.604,67.07c-0.042,0.263,0.162,0.5,0.427,0.5h2.145c0.356,0,0.659-0.258,0.714-0.61
	l2.104-13.33c0.042-0.263-0.162-0.501-0.427-0.501h-2.402C91.953,53.13,91.771,53.285,91.738,53.496z"/>
<line fill="none" stroke="#4C4C4C" stroke-linecap="round" stroke-linejoin="round" stroke-miterlimit="10" x1="1" y1="188" x2="7" y2="183"/>
<line fill="none" stroke="#4C4C4C" stroke-linecap="round" stroke-linejoin="round" stroke-miterlimit="10" x1="19" y1="188" x2="13" y2="183"/>
<g>
	<path fill="#4C4C4C" d="M18,177v10H2v-10H18 M18,175H2c-1.105,0-2,0.895-2,2v10c0,1.105,0.895,2,2,2h16c1.105,0,2-0.895,2-2v-10
		C20,175.895,19.105,175,18,175L18,175z"/>
</g>
<polyline fill="none" stroke="#4C4C4C" stroke-linecap="round" stroke-linejoin="round" stroke-miterlimit="10" points="3,178 
	10,183 17,178 "/>
<g>
	<path fill="#00B3EA" d="M30.5,177h-8c-0.276,0-0.5-0.224-0.5-0.5s0.224-0.5,0.5-0.5h8c0.276,0,0.5,0.224,0.5,0.5
		S30.776,177,30.5,177z"/>
</g>
<g>
	<path fill="#00B3EA" d="M12.5,131h-8c-0.276,0-0.5-0.224-0.5-0.5s0.224-0.5,0.5-0.5h8c0.276,0,0.5,0.224,0.5,0.5
		S12.776,131,12.5,131z"/>
</g>
<g>
	<g>
		<path fill="#00B3EA" d="M9.5,133h-5c-0.276,0-0.5-0.224-0.5-0.5s0.224-0.5,0.5-0.5h5c0.276,0,0.5,0.224,0.5,0.5S9.776,133,9.5,133
			z"/>
	</g>
	<g>
		<path fill="#00B3EA" d="M9.5,135h-5c-0.276,0-0.5-0.224-0.5-0.5s0.224-0.5,0.5-0.5h5c0.276,0,0.5,0.224,0.5,0.5S9.776,135,9.5,135
			z"/>
	</g>
</g>
<g>
	<path fill="#00B3EA" d="M27,179h-4.5c-0.276,0-0.5-0.224-0.5-0.5s0.224-0.5,0.5-0.5H27c0.276,0,0.5,0.224,0.5,0.5
		S27.276,179,27,179z"/>
</g>
<g>
	<path fill="#00B3EA" d="M24.5,181h-2c-0.276,0-0.5-0.224-0.5-0.5s0.224-0.5,0.5-0.5h2c0.276,0,0.5,0.224,0.5,0.5
		S24.776,181,24.5,181z"/>
</g>
<line fill="none" stroke="#4C4C4C" stroke-linecap="round" stroke-linejoin="round" stroke-miterlimit="10" x1="1" y1="203" x2="7" y2="198"/>
<line fill="none" stroke="#4C4C4C" stroke-linecap="round" stroke-linejoin="round" stroke-miterlimit="10" x1="19" y1="203" x2="13" y2="198"/>
<g>
	<path fill="#4C4C4C" d="M18,192v10h-4l1,5l-5-5H2v-10H18 M18,190H2c-1.105,0-2,0.895-2,2v10c0,1.105,0.895,2,2,2h7.172l4.414,4.414
		c0.384,0.385,0.897,0.586,1.415,0.586c0.322,0,0.646-0.077,0.943-0.237c0.777-0.416,1.19-1.291,1.018-2.156L16.44,204H18
		c1.105,0,2-0.895,2-2v-10C20,190.895,19.105,190,18,190L18,190z"/>
</g>
<polyline fill="none" stroke="#4C4C4C" stroke-linecap="round" stroke-linejoin="round" stroke-miterlimit="10" points="3,193 
	10,198 17,193 "/>
<g>
	<g>
		<path fill="#FA4000" d="M1.055,226.258c-0.299,0.002-0.54-0.242-0.537-0.546c0.002-0.304,0.247-0.544,0.546-0.537
			c0.299,0.007,0.54,0.251,0.537,0.546C1.599,226.015,1.355,226.256,1.055,226.258z"/>
	</g>
	<g>
		<path fill="#FA4000" d="M1.079,224.735c-0.325-0.01-0.579-0.286-0.567-0.617c0.017-0.331,0.301-0.582,0.624-0.56
			c0.325,0.022,0.569,0.298,0.552,0.616C1.677,224.494,1.404,224.745,1.079,224.735z"/>
	</g>
	<g>
		<path fill="#FA4000" d="M1.167,223.082c-0.355-0.027-0.611-0.34-0.577-0.701c0.031-0.361,0.355-0.617,0.706-0.573
			c0.35,0.044,0.597,0.356,0.568,0.7C1.832,222.851,1.517,223.108,1.167,223.082z"/>
	</g>
	<g>
		<path fill="#FA4000" d="M1.364,221.293c-0.383-0.052-0.648-0.412-0.579-0.803c0.061-0.392,0.433-0.646,0.811-0.568
			c0.375,0.077,0.618,0.433,0.561,0.8C2.092,221.087,1.742,221.344,1.364,221.293z"/>
	</g>
	<g>
		<path fill="#FA4000" d="M1.711,219.368c-0.413-0.091-0.655-0.506-0.547-0.93c0.111-0.424,0.55-0.658,0.943-0.529
			c0.401,0.131,0.618,0.538,0.517,0.922C2.528,219.217,2.115,219.457,1.711,219.368z"/>
	</g>
	<g>
		<path fill="#FA4000" d="M2.305,217.328c-0.425-0.15-0.654-0.644-0.452-1.091c0.183-0.454,0.715-0.629,1.106-0.415
			c0.406,0.22,0.557,0.679,0.402,1.07C3.188,217.272,2.737,217.48,2.305,217.328z"/>
	</g>
	<g>
		<path fill="#FA4000" d="M3.288,215.241c-0.211-0.128-0.349-0.333-0.395-0.569c-0.036-0.23,0.027-0.492,0.186-0.715
			c0.175-0.215,0.418-0.343,0.65-0.367c0.242-0.019,0.477,0.068,0.65,0.243c0.175,0.175,0.262,0.399,0.28,0.613
			c0.025,0.224-0.025,0.434-0.163,0.601c-0.126,0.179-0.322,0.282-0.544,0.316C3.739,215.402,3.499,215.37,3.288,215.241z"/>
	</g>
	<g>
		<path fill="#FA4000" d="M4.92,213.35c-0.166-0.209-0.231-0.475-0.173-0.735c0.067-0.245,0.241-0.513,0.528-0.655
			c0.285-0.146,0.592-0.172,0.844-0.065c0.25,0.097,0.428,0.292,0.506,0.548c0.078,0.257,0.051,0.524-0.03,0.74
			c-0.087,0.207-0.216,0.395-0.409,0.492c-0.195,0.094-0.408,0.127-0.644,0.059C5.316,213.683,5.087,213.562,4.92,213.35z"/>
	</g>
	<g>
		<path fill="#FA4000" d="M7.392,212.273c-0.107-0.571,0.384-1.134,1.086-1.118c0.338,0.02,0.633,0.167,0.814,0.381
			c0.18,0.226,0.253,0.508,0.2,0.795c-0.053,0.287-0.213,0.526-0.409,0.684c-0.197,0.169-0.429,0.268-0.672,0.251
			C7.944,213.254,7.5,212.849,7.392,212.273z"/>
	</g>
	<g>
		<path fill="#FA4000" d="M10.326,212.527c0.164-0.62,0.86-0.949,1.517-0.686c0.65,0.269,0.903,0.984,0.606,1.546
			c-0.295,0.558-0.952,0.794-1.474,0.579C10.455,213.757,10.165,213.132,10.326,212.527z"/>
	</g>
	<g>
		<path fill="#FA4000" d="M13.265,213.835c0.342-0.601,1.143-0.784,1.752-0.371c0.608,0.411,0.736,1.213,0.32,1.757
			c-0.421,0.551-1.18,0.673-1.713,0.312C13.092,215.172,12.925,214.432,13.265,213.835z"/>
	</g>
	<g>
		<path fill="#FA4000" d="M16.118,215.864c0.487-0.568,1.408-0.577,1.967,0.05c0.559,0.626,0.459,1.525-0.153,1.958
			c-0.61,0.432-1.424,0.347-1.863-0.144C15.632,217.235,15.629,216.433,16.118,215.864z"/>
	</g>
	<g>
		<path fill="#FA4000" d="M18.548,218.785c0.68-0.436,1.645-0.184,2.039,0.688c0.198,0.423,0.198,0.916,0.029,1.311
			c-0.084,0.195-0.209,0.365-0.37,0.491c-0.159,0.121-0.345,0.183-0.548,0.204c-0.821,0.023-1.497-0.156-1.795-0.787
			C17.63,220.075,17.858,219.225,18.548,218.785z"/>
	</g>
</g>
<g>
	<g>
		<path fill="#FA4000" d="M2.968,229.126c-0.295,0.002-0.532-0.238-0.531-0.536c0.001-0.298,0.241-0.535,0.536-0.531
			c0.294,0.005,0.532,0.244,0.531,0.536C3.502,228.887,3.262,229.124,2.968,229.126z"/>
	</g>
	<g>
		<path fill="#FA4000" d="M2.983,227.627c-0.32-0.007-0.573-0.275-0.565-0.599c0.012-0.325,0.286-0.575,0.605-0.559
			c0.321,0.016,0.565,0.284,0.554,0.599C3.569,227.383,3.303,227.634,2.983,227.627z"/>
	</g>
	<g>
		<path fill="#FA4000" d="M3.045,225.999c-0.349-0.019-0.609-0.321-0.585-0.675c0.022-0.354,0.333-0.614,0.679-0.582
			c0.346,0.033,0.598,0.334,0.577,0.674C3.693,225.757,3.391,226.018,3.045,225.999z"/>
	</g>
	<g>
		<path fill="#FA4000" d="M3.189,224.233c-0.379-0.039-0.649-0.382-0.599-0.767c0.044-0.386,0.402-0.65,0.774-0.591
			c0.375,0.059,0.626,0.399,0.584,0.765C3.902,224.006,3.563,224.271,3.189,224.233z"/>
	</g>
	<g>
		<path fill="#FA4000" d="M3.453,222.327c-0.405-0.069-0.67-0.465-0.589-0.884c0.096-0.419,0.495-0.675,0.895-0.573
			c0.397,0.102,0.65,0.496,0.562,0.878C4.246,222.136,3.858,222.395,3.453,222.327z"/>
	</g>
	<g>
		<path fill="#FA4000" d="M3.917,220.287c-0.435-0.121-0.669-0.585-0.519-1.039c0.162-0.453,0.646-0.669,1.059-0.485
			c0.403,0.18,0.608,0.632,0.468,1.021C4.795,220.178,4.343,220.405,3.917,220.287z"/>
	</g>
	<g>
		<path fill="#FA4000" d="M4.736,218.169c-0.216-0.111-0.366-0.301-0.426-0.53c-0.05-0.224-0.014-0.49,0.139-0.719
			c0.313-0.47,0.929-0.54,1.27-0.203c0.352,0.345,0.416,0.843,0.19,1.184c-0.116,0.175-0.296,0.293-0.511,0.341
			C5.192,218.295,4.952,218.28,4.736,218.169z"/>
	</g>
	<g>
		<path fill="#FA4000" d="M6.243,216.233c-0.162-0.203-0.232-0.472-0.157-0.725c0.037-0.127,0.105-0.253,0.2-0.37
			c0.1-0.111,0.234-0.203,0.384-0.276c0.31-0.131,0.639-0.125,0.878,0.007c0.24,0.118,0.387,0.343,0.423,0.607
			c0.036,0.259-0.03,0.508-0.126,0.712c-0.102,0.193-0.228,0.353-0.404,0.424C7.108,216.748,6.587,216.636,6.243,216.233z"/>
	</g>
	<g>
		<path fill="#FA4000" d="M8.745,215.441c0.015-0.286,0.152-0.534,0.395-0.698c0.239-0.162,0.577-0.218,0.903-0.126
			c0.67,0.185,0.945,0.844,0.698,1.359c-0.247,0.519-0.811,0.761-1.25,0.645c-0.225-0.064-0.401-0.215-0.535-0.42
			C8.825,215.999,8.73,215.727,8.745,215.441z"/>
	</g>
	<g>
		<path fill="#FA4000" d="M11.492,216.358c0.155-0.273,0.407-0.452,0.7-0.51c0.147-0.028,0.303-0.034,0.461,0.003
			c0.159,0.043,0.319,0.119,0.466,0.227c0.294,0.217,0.444,0.538,0.476,0.833c0.017,0.307-0.093,0.598-0.316,0.816
			c-0.223,0.218-0.511,0.329-0.781,0.345c-0.281,0.032-0.537-0.044-0.746-0.195C11.366,217.576,11.18,216.903,11.492,216.358z"/>
	</g>
	<g>
		<path fill="#FA4000" d="M13.892,218.408c0.513-0.436,1.335-0.311,1.748,0.319c0.409,0.629,0.201,1.415-0.398,1.728
			c-0.603,0.315-1.323,0.127-1.654-0.381C13.257,219.568,13.371,218.849,13.892,218.408z"/>
	</g>
	<g>
		<path fill="#FA4000" d="M15.686,221.346c0.663-0.316,1.489,0.011,1.764,0.792c0.285,0.763-0.17,1.693-0.918,1.73
			c-0.738,0.037-1.376-0.221-1.6-0.845C14.718,222.412,15.019,221.663,15.686,221.346z"/>
	</g>
</g>
<g>
	<g>
		<path fill="#56C4EF" d="M18.742,237.731c0.211,0.208,0.208,0.549-0.008,0.76c-0.214,0.214-0.557,0.207-0.761-0.011
			c-0.201-0.215-0.195-0.552,0.011-0.757C18.191,237.519,18.531,237.523,18.742,237.731z"/>
	</g>
	<g>
		<path fill="#56C4EF" d="M17.653,238.775c0.217,0.237,0.202,0.616-0.054,0.829c-0.253,0.216-0.622,0.189-0.827-0.064
			c-0.2-0.248-0.174-0.617,0.063-0.819C17.074,238.521,17.434,238.536,17.653,238.775z"/>
	</g>
	<g>
		<path fill="#56C4EF" d="M16.399,239.832c0.217,0.278,0.159,0.685-0.146,0.895c-0.296,0.22-0.712,0.128-0.892-0.167
			c-0.185-0.303-0.104-0.672,0.162-0.871C15.796,239.501,16.184,239.558,16.399,239.832z"/>
	</g>
	<g>
		<path fill="#56C4EF" d="M14.919,240.824c0.187,0.326,0.06,0.772-0.33,0.941c-0.381,0.183-0.818-0.016-0.924-0.373
			c-0.113-0.373,0.05-0.735,0.355-0.883C14.331,240.375,14.728,240.488,14.919,240.824z"/>
	</g>
	<g>
		<path fill="#56C4EF" d="M13.126,241.539c0.095,0.391-0.211,0.827-0.723,0.837c-0.248,0.014-0.476-0.102-0.613-0.243
			c-0.139-0.162-0.191-0.362-0.152-0.566c0.039-0.203,0.152-0.374,0.28-0.487c0.133-0.134,0.279-0.192,0.445-0.204
			C12.68,240.876,13.028,241.126,13.126,241.539z"/>
	</g>
	<g>
		<path fill="#56C4EF" d="M11.052,241.407c-0.139,0.424-0.697,0.613-1.167,0.316c-0.457-0.302-0.507-0.863-0.201-1.183
			c0.313-0.33,0.789-0.38,1.085-0.186C11.062,240.54,11.196,240.975,11.052,241.407z"/>
	</g>
	<g>
		<path fill="#56C4EF" d="M9.222,240.069c-0.358,0.336-0.953,0.272-1.272-0.163c-0.316-0.432-0.196-1.002,0.218-1.257
			c0.418-0.258,0.949-0.148,1.21,0.208C9.637,239.212,9.577,239.734,9.222,240.069z"/>
	</g>
	<g>
		<path fill="#56C4EF" d="M7.798,238.033c-0.456,0.267-1.062,0.089-1.313-0.405c-0.253-0.492-0.054-1.076,0.428-1.304
			c0.48-0.227,1.05-0.033,1.283,0.42C8.426,237.199,8.26,237.762,7.798,238.033z"/>
	</g>
	<g>
		<path fill="#56C4EF" d="M6.583,235.616c-0.525,0.242-1.151,0-1.385-0.539c-0.117-0.269-0.112-0.559-0.013-0.808
			c0.098-0.259,0.31-0.488,0.581-0.578c0.278-0.092,0.54-0.09,0.782,0.001c0.248,0.099,0.456,0.291,0.57,0.552
			C7.344,234.765,7.108,235.375,6.583,235.616z"/>
	</g>
	<g>
		<path fill="#56C4EF" d="M5.557,232.871c-0.308,0.059-0.612-0.017-0.856-0.211c-0.24-0.193-0.387-0.483-0.423-0.824
			c-0.052-0.679,0.455-1.218,1.078-1.227c0.633-0.009,1.146,0.471,1.19,1.044c0.031,0.283-0.08,0.561-0.253,0.774
			C6.123,232.637,5.866,232.811,5.557,232.871z"/>
	</g>
	<g>
		<path fill="#56C4EF" d="M5.355,229.686c-0.688-0.005-1.227-0.585-1.2-1.291c0.035-0.702,0.626-1.228,1.306-1.178
			c0.682,0.05,1.198,0.628,1.165,1.289C6.601,229.164,6.033,229.691,5.355,229.686z"/>
	</g>
	<g>
		<path fill="#56C4EF" d="M5.539,226.217c-0.743-0.061-1.286-0.721-1.213-1.474c0.08-0.75,0.745-1.286,1.484-1.199
			c0.735,0.087,1.268,0.746,1.19,1.472C6.931,225.74,6.276,226.277,5.539,226.217z"/>
	</g>
	<g>
		<path fill="#56C4EF" d="M5.94,222.462c-0.801-0.098-1.368-0.836-1.261-1.641c0.054-0.401,0.264-0.739,0.559-0.96
			c0.294-0.215,0.671-0.322,1.075-0.294c0.402,0.027,0.748,0.246,0.975,0.555c0.227,0.302,0.341,0.689,0.287,1.086
			C7.47,222.001,6.741,222.561,5.94,222.462z"/>
	</g>
</g>
<g>
	<g>
		<path fill="#56C4EF" d="M19.22,234.863c0.197,0.164,0.218,0.456,0.048,0.653c-0.17,0.197-0.463,0.218-0.654,0.048
			c-0.191-0.171-0.212-0.463-0.047-0.653C18.731,234.72,19.024,234.699,19.22,234.863z"/>
	</g>
	<g>
		<path fill="#56C4EF" d="M18.361,235.842c0.206,0.187,0.215,0.507,0.021,0.715c-0.191,0.211-0.52,0.21-0.716,0.014
			c-0.197-0.198-0.196-0.507-0.014-0.708C17.838,235.664,18.155,235.655,18.361,235.842z"/>
	</g>
	<g>
		<path fill="#56C4EF" d="M17.376,236.858c0.21,0.216,0.206,0.573-0.032,0.779c-0.235,0.209-0.58,0.193-0.776-0.041
			c-0.192-0.229-0.176-0.576,0.041-0.77C16.828,236.637,17.165,236.641,17.376,236.858z"/>
	</g>
	<g>
		<path fill="#56C4EF" d="M16.222,237.874c0.205,0.255,0.159,0.645-0.133,0.842c-0.282,0.208-0.671,0.125-0.839-0.157
			c-0.168-0.283-0.094-0.631,0.152-0.815C15.656,237.574,16.016,237.617,16.222,237.874z"/>
	</g>
	<g>
		<path fill="#56C4EF" d="M14.833,238.801c0.167,0.305,0.038,0.729-0.347,0.873c-0.375,0.163-0.784-0.059-0.852-0.4
			c-0.075-0.359,0.094-0.676,0.375-0.802C14.295,238.369,14.659,238.48,14.833,238.801z"/>
	</g>
	<g>
		<path fill="#56C4EF" d="M13.116,239.363c0.05,0.377-0.304,0.745-0.807,0.677c-0.505-0.086-0.741-0.549-0.567-0.891
			c0.176-0.351,0.515-0.542,0.779-0.499C12.79,238.689,13.067,238.971,13.116,239.363z"/>
	</g>
	<g>
		<path fill="#56C4EF" d="M11.249,238.863c-0.122,0.173-0.309,0.28-0.519,0.281c-0.215,0.008-0.443-0.092-0.615-0.277
			c-0.345-0.381-0.251-0.901,0.105-1.12c0.36-0.224,0.803-0.149,1.028,0.095c0.117,0.123,0.163,0.29,0.167,0.467
			C11.414,238.492,11.37,238.692,11.249,238.863z"/>
	</g>
	<g>
		<path fill="#56C4EF" d="M9.909,237.211c-0.402,0.22-0.93,0.021-1.115-0.449c-0.185-0.469,0.057-0.952,0.494-1.089
			c0.439-0.137,0.897,0.091,1.05,0.476C10.488,236.533,10.312,236.991,9.909,237.211z"/>
	</g>
	<g>
		<path fill="#56C4EF" d="M9.099,235.026c-0.479,0.146-0.999-0.209-1.072-0.744c-0.091-0.538,0.294-0.989,0.782-1.035
			c0.503-0.048,0.923,0.311,1.001,0.756C9.872,234.458,9.576,234.881,9.099,235.026z"/>
	</g>
	<g>
		<path fill="#56C4EF" d="M8.753,232.517c-0.535,0.04-1.018-0.39-1.028-0.947c-0.02-0.558,0.414-1.01,0.959-1.014
			c0.539-0.004,0.983,0.423,1.002,0.948C9.695,232.031,9.298,232.476,8.753,232.517z"/>
	</g>
	<g>
		<path fill="#56C4EF" d="M8.679,229.76c-0.591-0.001-1.06-0.488-1.052-1.088c0.013-0.599,0.508-1.066,1.096-1.045
			c0.59,0.021,1.05,0.509,1.037,1.088C9.752,229.293,9.267,229.76,8.679,229.76z"/>
	</g>
	<g>
		<path fill="#56C4EF" d="M8.757,226.762c-0.64-0.026-1.138-0.574-1.1-1.222c0.033-0.648,0.59-1.136,1.227-1.093
			c0.641,0.044,1.12,0.59,1.088,1.221C9.935,226.299,9.396,226.789,8.757,226.762z"/>
	</g>
	<g>
		<path fill="#56C4EF" d="M8.95,223.509c-0.695-0.051-1.215-0.662-1.152-1.368c0.058-0.697,0.696-1.248,1.384-1.14
			c0.687,0.107,1.184,0.676,1.126,1.366C10.247,223.046,9.643,223.56,8.95,223.509z"/>
	</g>
</g>
<g>
	<g>
		<path fill="#425EAF" d="M14.918,210.962c0.196-0.351,0.662-0.456,1.012-0.229c0.351,0.228,0.439,0.687,0.209,1.015
			c-0.231,0.328-0.675,0.414-0.997,0.205C14.819,211.743,14.722,211.311,14.918,210.962z"/>
	</g>
	<g>
		<path fill="#425EAF" d="M16.618,212.091c0.257-0.353,0.761-0.422,1.117-0.14c0.357,0.281,0.404,0.792,0.12,1.12
			c-0.287,0.331-0.772,0.376-1.1,0.118C16.428,212.929,16.362,212.443,16.618,212.091z"/>
	</g>
	<g>
		<path fill="#425EAF" d="M18.335,213.494c0.313-0.349,0.875-0.37,1.226-0.012c0.354,0.356,0.341,0.914-0.017,1.228
			c-0.354,0.312-0.884,0.3-1.198-0.016C18.035,214.375,18.016,213.85,18.335,213.494z"/>
	</g>
	<g>
		<path fill="#425EAF" d="M19.997,215.239c0.395-0.33,1.004-0.25,1.328,0.209c0.321,0.465,0.186,1.071-0.268,1.321
			c-0.448,0.247-0.998,0.128-1.262-0.255C19.526,216.133,19.601,215.569,19.997,215.239z"/>
	</g>
	<g>
		<path fill="#425EAF" d="M21.409,217.44c0.254-0.12,0.536-0.124,0.779-0.009c0.247,0.111,0.463,0.337,0.556,0.645
			c0.201,0.623-0.172,1.221-0.731,1.292c-0.552,0.071-1.055-0.234-1.201-0.677C20.674,218.244,20.906,217.687,21.409,217.44z"/>
	</g>
	<g>
		<path fill="#425EAF" d="M22.087,220.186c0.302-0.008,0.594,0.115,0.776,0.348c0.19,0.231,0.298,0.574,0.229,0.931
			c-0.044,0.362-0.275,0.643-0.517,0.802c-0.249,0.16-0.569,0.18-0.85,0.078c-0.562-0.222-0.88-0.776-0.806-1.245
			c0.049-0.242,0.18-0.45,0.387-0.617C21.521,220.318,21.781,220.193,22.087,220.186z"/>
	</g>
	<g>
		<path fill="#425EAF" d="M21.366,223.162c0.292,0.146,0.502,0.421,0.572,0.729c0.07,0.302,0.017,0.649-0.169,0.953
			c-0.398,0.596-1.164,0.738-1.688,0.336c-0.526-0.402-0.662-1.13-0.325-1.633c0.157-0.261,0.415-0.426,0.711-0.494
			C20.757,222.988,21.067,223.012,21.366,223.162z"/>
	</g>
	<g>
		<path fill="#425EAF" d="M19.479,225.943c0.562,0.454,0.609,1.297,0.091,1.864c-0.524,0.559-1.369,0.563-1.866,0.038
			c-0.491-0.519-0.497-1.323-0.037-1.813C18.118,225.537,18.923,225.493,19.479,225.943z"/>
	</g>
	<g>
		<path fill="#425EAF" d="M16.929,228.563c0.526,0.58,0.451,1.499-0.193,2.018c-0.646,0.516-1.556,0.393-2.011-0.246
			c-0.451-0.634-0.336-1.501,0.24-1.96C15.537,227.913,16.405,227.985,16.929,228.563z"/>
	</g>
	<g>
		<path fill="#425EAF" d="M13.782,230.99c0.474,0.703,0.259,1.685-0.549,2.146c-0.793,0.468-1.891,0.154-2.139-0.664
			c-0.249-0.816-0.053-1.618,0.622-2.012C12.384,230.081,13.307,230.285,13.782,230.99z"/>
	</g>
</g>
<g>
	<g>
		<path fill="#425EAF" d="M18.742,211.918c0.187-0.22,0.527-0.235,0.744-0.032c0.218,0.202,0.225,0.537,0.022,0.743
			c-0.202,0.206-0.529,0.213-0.735,0.022C18.569,212.459,18.555,212.137,18.742,211.918z"/>
	</g>
	<g>
		<path fill="#425EAF" d="M19.81,212.928c0.222-0.222,0.586-0.218,0.808,0.016c0.221,0.234,0.209,0.596-0.024,0.807
			c-0.232,0.21-0.589,0.198-0.799-0.024C19.584,213.505,19.588,213.15,19.81,212.928z"/>
	</g>
	<g>
		<path fill="#425EAF" d="M20.901,214.094c0.254-0.225,0.651-0.197,0.875,0.073c0.227,0.269,0.184,0.665-0.084,0.875
			c-0.269,0.211-0.65,0.17-0.864-0.083C20.618,214.705,20.645,214.322,20.901,214.094z"/>
	</g>
	<g>
		<path fill="#425EAF" d="M22,215.439c0.294-0.225,0.723-0.161,0.945,0.155c0.223,0.315,0.14,0.743-0.171,0.942
			c-0.314,0.202-0.721,0.122-0.927-0.168C21.643,216.077,21.705,215.665,22,215.439z"/>
	</g>
	<g>
		<path fill="#425EAF" d="M23.064,216.997c0.345-0.214,0.798-0.089,1.005,0.284c0.204,0.376,0.056,0.83-0.312,0.999
			c-0.364,0.168-0.79,0.03-0.971-0.303C22.603,217.647,22.724,217.208,23.064,216.997z"/>
	</g>
	<g>
		<path fill="#425EAF" d="M23.998,218.822c0.405-0.173,0.88,0.042,1.032,0.499c0.145,0.462-0.114,0.921-0.549,1.009
			c-0.424,0.086-0.844-0.147-0.961-0.522C23.395,219.434,23.597,218.993,23.998,218.822z"/>
	</g>
	<g>
		<path fill="#425EAF" d="M24.592,220.964c0.236-0.031,0.464,0.039,0.64,0.194c0.161,0.156,0.283,0.397,0.279,0.671
			c-0.003,0.561-0.473,0.944-0.935,0.852c-0.472-0.092-0.789-0.471-0.789-0.864c0.003-0.202,0.079-0.391,0.231-0.546
			C24.156,221.116,24.356,220.996,24.592,220.964z"/>
	</g>
	<g>
		<path fill="#425EAF" d="M24.419,223.363c0.247,0.075,0.435,0.248,0.529,0.488c0.103,0.242,0.079,0.536-0.058,0.81
			c-0.276,0.511-0.861,0.64-1.3,0.376c-0.448-0.268-0.576-0.845-0.361-1.245C23.425,223.433,23.909,223.223,24.419,223.363z"/>
	</g>
	<g>
		<path fill="#425EAF" d="M23.182,225.679c0.469,0.303,0.596,0.958,0.25,1.435c-0.35,0.471-0.993,0.571-1.435,0.222
			c-0.441-0.348-0.54-0.981-0.219-1.413C22.093,225.49,22.705,225.371,23.182,225.679z"/>
	</g>
	<g>
		<path fill="#425EAF" d="M21.477,227.979c0.476,0.386,0.537,1.102,0.114,1.574c-0.413,0.483-1.133,0.507-1.576,0.089
			c-0.447-0.422-0.469-1.104-0.088-1.551C20.321,227.652,21.003,227.595,21.477,227.979z"/>
	</g>
	<g>
		<path fill="#425EAF" d="M19.395,230.292c0.475,0.461,0.472,1.237-0.023,1.715c-0.501,0.472-1.267,0.451-1.714-0.048
			c-0.44-0.492-0.42-1.249,0.048-1.689C18.167,229.824,18.916,229.827,19.395,230.292z"/>
	</g>
	<g>
		<path fill="#425EAF" d="M16.927,232.606c0.475,0.545,0.396,1.38-0.187,1.856c-0.589,0.47-1.425,0.366-1.855-0.221
			c-0.424-0.579-0.325-1.387,0.216-1.819C15.637,231.983,16.452,232.061,16.927,232.606z"/>
	</g>
	<g>
		<path fill="#425EAF" d="M14.021,234.859c0.452,0.644,0.266,1.551-0.464,1.995c-0.379,0.211-0.785,0.272-1.166,0.161
			c-0.372-0.105-0.663-0.359-0.82-0.719c-0.157-0.36-0.162-0.753-0.071-1.084c0.091-0.32,0.291-0.632,0.599-0.801
			C12.712,234.039,13.571,234.217,14.021,234.859z"/>
	</g>
</g>
<g>
	<defs>
		<filter id="Adobe_OpacityMaskFilter" filterUnits="userSpaceOnUse" x="0" y="0" width="45" height="30">
			<feColorMatrix  type="matrix" values="1 0 0 0 0  0 1 0 0 0  0 0 1 0 0  0 0 0 1 0"/>
		</filter>
	</defs>
	<mask maskUnits="userSpaceOnUse" x="0" y="0" width="45" height="30" id="_x2D_now-b_1_">
		<g filter="url(#Adobe_OpacityMaskFilter)">
			<path id="_x2D_now-a_1_" fill="#FFFFFF" d="M2.343,0h40.312c1.294,0,2.344,1.05,2.344,2.343v25.312
				c0,1.295-1.05,2.345-2.344,2.345H2.343C1.05,30,0,28.95,0,27.655V2.343C0,1.05,1.05,0,2.343,0z"/>
		</g>
	</mask>
	<g mask="url(#_x2D_now-b_1_)">
		<rect fill="#FA82A0" width="45" height="30"/>
	</g>
	<g transform="translate(20 44)">
		<path fill="#FFFFFF" d="M-6.216-23h-1.338c0,1.113-0.504,2.129-1.38,2.798L-9.462-19.8l2.052,2.834h1.686l-1.89-2.61
			C-6.72-20.476-6.216-21.693-6.216-23z"/>
		<rect x="-11" y="-23" fill="#FFFFFF" width="1.368" height="6.034"/>
		<rect x="-5.328" y="-23" fill="#FFFFFF" width="1.29" height="6.034"/>
		<path fill="#FFFFFF" d="M7.281-21.254c-0.492,0-0.96,0.153-1.272,0.583v-0.469H4.785v4.172h1.242v-2.19
			c0-0.632,0.42-0.942,0.924-0.942c0.54,0,0.852,0.328,0.852,0.936v2.202h1.23v-2.657C9.034-20.592,8.272-21.254,7.281-21.254z
			 M-0.137-21.138v0.267c-0.348-0.243-0.768-0.383-1.224-0.383c-1.2,0-2.172,0.985-2.172,2.202c0,1.217,0.972,2.202,2.172,2.202
			c0.456,0,0.876-0.141,1.224-0.383v0.267h1.23v-4.172H-0.137z M-1.259-17.982c-0.618,0-1.116-0.481-1.116-1.071
			c0-0.59,0.498-1.071,1.116-1.071s1.116,0.481,1.116,1.071C-0.143-18.463-0.641-17.982-1.259-17.982z M3.003-20.598v-0.541h-1.26
			v4.172h1.266v-1.947c0-0.657,0.702-1.009,1.188-1.009c0.006,0,0.012,0,0.012,0v-1.217C3.711-21.138,3.248-20.92,3.003-20.598z
			 M12.862-21.138v0.267c-0.348-0.243-0.768-0.383-1.224-0.383c-1.2,0-2.172,0.985-2.172,2.202c0,1.217,0.972,2.202,2.172,2.202
			c0.456,0,0.876-0.141,1.224-0.383v0.267h1.23v-4.172H12.862z M11.74-17.982c-0.618,0-1.116-0.481-1.116-1.071
			c0-0.589,0.498-1.071,1.116-1.071s1.116,0.481,1.116,1.071C12.862-18.463,12.358-17.982,11.74-17.982z M15.408-18.444
			c-0.426,0-0.774,0.353-0.774,0.785c0,0.432,0.348,0.785,0.774,0.785s0.774-0.353,0.774-0.785
			C16.182-18.098,15.834-18.444,15.408-18.444z"/>
	</g>
	<g transform="translate(36 5)">
		<path fill="#FFFFFF" d="M-15.117,8.943c0.318,0.312,0.324,0.822,0.015,1.143l-0.061,0.064c-0.309,0.316-0.822,0.324-1.143,0.015
			l-1.8-1.784c-0.495-0.498-0.567-1.11-0.252-1.434l0.063-0.066c0.26-0.267,0.684-0.296,0.98-0.063
			c0.141,0.111,0.343,0.087,0.454-0.054c0.111-0.141,0.087-0.344-0.054-0.454c-0.557-0.438-1.353-0.384-1.846,0.123l-0.063,0.066
			c-0.583,0.6-0.467,1.611,0.261,2.342l1.804,1.788c0.582,0.559,1.502,0.546,2.062-0.029l0.063-0.068
			c0.553-0.574,0.542-1.491-0.029-2.052c-0.127-0.126-0.333-0.123-0.457,0.003C-15.246,8.613-15.245,8.818-15.117,8.943z
			 M-16.194-0.723l0.736,6.057c0.021,0.177,0.183,0.303,0.36,0.282c0.177-0.021,0.305-0.183,0.282-0.36l-0.74-6.077l-0.007-0.039
			c-0.126-0.504,0.188-1.068,0.604-1.158c0.234-0.049,0.479-0.004,0.678,0.128c0.199,0.132,0.337,0.337,0.384,0.573l1.283,5.479
			c0.04,0.174,0.214,0.282,0.388,0.242s0.282-0.215,0.242-0.388l-1.279-5.469c-0.077-0.393-0.316-0.749-0.66-0.977
			c-0.345-0.227-0.766-0.306-1.17-0.22C-15.876-2.483-16.392-1.563-16.194-0.723z"/>
		<path fill="#FFFFFF" d="M-9.424,6.394l1.456-7.262c0.17-0.781-0.296-1.566-1.068-1.796c-0.864-0.219-1.731,0.291-1.956,1.138
			l-1.613,5.525C-12.654,4.17-12.557,4.35-12.384,4.4c0.171,0.049,0.351-0.048,0.402-0.221l1.614-5.532
			c0.137-0.513,0.653-0.816,1.161-0.689c0.435,0.129,0.703,0.583,0.604,1.039l-1.458,7.266c-0.035,0.175,0.078,0.345,0.253,0.381
			C-9.63,6.684-9.459,6.57-9.424,6.394z M-13.092,13.39c-2.309,0-4.238-1.694-4.238-4.1c0-0.178-0.146-0.324-0.324-0.324
			c-0.178,0-0.324,0.146-0.324,0.324c0,2.784,2.235,4.747,4.884,4.747c0.178,0,0.324-0.146,0.324-0.324
			C-12.77,13.535-12.913,13.39-13.092,13.39z M-14.235,7.731c-0.051,0.181-0.163,0.339-0.318,0.445l-0.069,0.047
			c-0.372,0.25-0.876,0.153-1.128-0.216l-1.416-2.108c-0.387-0.586-0.336-1.203,0.036-1.458l0.069-0.047
			c0.477-0.276,0.882-0.066,1.299,0.54l1.184,1.762c0.099,0.148,0.301,0.188,0.45,0.089s0.188-0.3,0.089-0.448l-1.186-1.766
			c-0.585-0.852-1.311-1.229-2.176-0.726l-0.09,0.059c-0.696,0.477-0.779,1.492-0.213,2.352l1.419,2.11
			c0.453,0.666,1.357,0.84,2.025,0.392l0.072-0.048c0.285-0.195,0.489-0.48,0.579-0.809c0.048-0.172-0.052-0.351-0.225-0.399
			C-14.008,7.458-14.187,7.558-14.235,7.731z"/>
		<path fill="#FFFFFF" d="M-12.09,8.802c-0.674,0.375-1.09,1.083-1.143,2.152c-0.009,0.178,0.129,0.33,0.308,0.339
			c0.178,0.009,0.33-0.129,0.339-0.307c0.047-0.969,0.424-1.492,1.034-1.72c0.325-0.123,0.681-0.147,0.993-0.114
			c0.042,0.004,0.07,0.009,0.081,0.01c0.417,0.078,0.545-0.542,0.131-0.634l-2.49-0.557c-1.165-0.319-1.341-0.75-1.125-1.468
			c0.093-0.314,0.285-0.474,0.573-0.539c0.191-0.042,0.405-0.038,0.609-0.001c0.059,0.01,0.1,0.02,0.118,0.025l3.78,0.882
			c0.025,0.004,0.042,0.009,0.074,0.024c0.063,0.029,0.128,0.074,0.191,0.141c0.253,0.27,0.393,0.781,0.322,1.618
			c-0.246,2.938-1.617,4.764-4.865,4.735c-0.178-0.001-0.326,0.143-0.327,0.321c-0.002,0.178,0.143,0.326,0.321,0.327
			c3.65,0.031,5.244-2.091,5.516-5.328C-7.565,7.7-7.754,7.01-8.145,6.593C-8.361,6.364-8.587,6.26-8.763,6.235l-3.736-0.873
			c-0.024-0.008-0.087-0.022-0.17-0.036c-0.28-0.049-0.574-0.057-0.861,0.008c-0.507,0.113-0.889,0.434-1.053,0.984
			c-0.312,1.038,0.021,1.853,1.59,2.281L-12.09,8.802z"/>
	</g>
</g>
<g>
	<path d="M1.035,271.034v19.931h12.109c7.312,0,11.29-3.406,11.29-9.991c0-6.767-4.312-9.94-11.29-9.94H1.035z M13.144,270
		c10.723,0,12.324,6.876,12.324,10.974c0,7.11-4.377,11.026-12.324,11.026H0v-22H13.144z"/>
</g>
<rect x="2.659" y="282.44" width="3.876" height="6.901"/>
<path d="M7.006,278.964c0,1.331-1.078,2.409-2.409,2.409c-1.33,0-2.409-1.079-2.409-2.409c0-1.33,1.079-2.409,2.409-2.409
	C5.928,276.555,7.006,277.634,7.006,278.964"/>
<path fill="#CC0066" d="M8.487,277.843v2.249h0.69c0.478,0,0.92-0.138,0.92-1.142c0-0.981-0.492-1.107-0.92-1.107H8.487z
	 M20.002,276.724h1.117v3.368h1.655c-0.454-6.11-5.261-7.43-9.629-7.43H8.488v4.065h0.689c1.257,0,2.037,0.852,2.037,2.223
	c0,1.414-0.762,2.259-2.037,2.259H8.488v8.134h4.657c7.102,0,9.573-3.298,9.66-8.134h-2.803V276.724z M16.891,279.226h0.808
	l-0.369-1.268h-0.067L16.891,279.226z M15.148,281.209l1.352-4.486h1.588l1.352,4.486h-1.162l-0.253-0.868h-1.461l-0.254,0.868
	H15.148z M14.612,280.091v1.116H11.85v-4.482h2.673v1.116h-1.556v0.52h1.472v1.116h-1.472v0.614H14.612z"/>
</svg>
