<svg xmlns="http://www.w3.org/2000/svg" width="180" height="144" viewBox="0 0 180 144">
    <defs>
        <linearGradient id="a" x1="50%" x2="50%" y1="-15.385%" y2="65.569%">
            <stop offset="0%" stop-color="#59F098"/>
            <stop offset="13%" stop-color="#49E4AA"/>
            <stop offset="38%" stop-color="#20C6DA"/>
            <stop offset="56%" stop-color="#00AEFF"/>
            <stop offset="74%" stop-color="#3090FF"/>
            <stop offset="100%" stop-color="#7C61FF"/>
        </linearGradient>
        <linearGradient id="b" x1="17.133%" x2="99.278%" y1="50%" y2="50%">
            <stop offset="0%" stop-color="#59F098"/>
            <stop offset="13%" stop-color="#49E4AA"/>
            <stop offset="38%" stop-color="#20C6DA"/>
            <stop offset="56%" stop-color="#00AEFF"/>
            <stop offset="74%" stop-color="#3090FF"/>
            <stop offset="100%" stop-color="#7C61FF"/>
        </linearGradient>
        <linearGradient id="c" x1="-12.821%" x2="115.128%" y1="50%" y2="50%">
            <stop offset="0%" stop-color="#59F098"/>
            <stop offset="13%" stop-color="#49E4AA"/>
            <stop offset="38%" stop-color="#20C6DA"/>
            <stop offset="56%" stop-color="#00AEFF"/>
            <stop offset="74%" stop-color="#3090FF"/>
            <stop offset="100%" stop-color="#7C61FF"/>
        </linearGradient>
        <linearGradient id="d" x1="9.97%" x2="111.421%" y1="49.764%" y2="50.611%">
            <stop offset="0%" stop-color="#59F098"/>
            <stop offset="13%" stop-color="#49E4AA"/>
            <stop offset="38%" stop-color="#20C6DA"/>
            <stop offset="56%" stop-color="#00AEFF"/>
            <stop offset="74%" stop-color="#3090FF"/>
            <stop offset="100%" stop-color="#7C61FF"/>
        </linearGradient>
        <linearGradient id="e" x1="5.645%" x2="113.097%" y1="50%" y2="50%">
            <stop offset="0%" stop-color="#59F098"/>
            <stop offset="13%" stop-color="#49E4AA"/>
            <stop offset="38%" stop-color="#20C6DA"/>
            <stop offset="56%" stop-color="#00AEFF"/>
            <stop offset="74%" stop-color="#3090FF"/>
            <stop offset="100%" stop-color="#7C61FF"/>
        </linearGradient>
        <linearGradient id="f" x1="190.864%" x2="37.455%" y1="48.85%" y2="50.1%">
            <stop offset="0%" stop-color="#59F098"/>
            <stop offset="13%" stop-color="#49E4AA"/>
            <stop offset="38%" stop-color="#20C6DA"/>
            <stop offset="56%" stop-color="#00AEFF"/>
            <stop offset="74%" stop-color="#3090FF"/>
            <stop offset="100%" stop-color="#7C61FF"/>
        </linearGradient>
        <linearGradient id="g" x1="-18.994%" x2="90.712%" y1="1.413%" y2="78.678%">
            <stop offset="0%" stop-color="#59F098"/>
            <stop offset="13%" stop-color="#49E4AA"/>
            <stop offset="38%" stop-color="#20C6DA"/>
            <stop offset="56%" stop-color="#00AEFF"/>
            <stop offset="74%" stop-color="#3090FF"/>
            <stop offset="100%" stop-color="#7C61FF"/>
        </linearGradient>
    </defs>
    <g fill="none" fill-rule="evenodd">
        <path d="M-6-48h192v192H-6z"/>
        <path fill="url(#a)" d="M98 144H36.36A36.31 36.31 0 0 1 0 107.74V79h98v65z"/>
        <path fill="url(#b)" d="M135.7 118H154c14.36 0 26 11.64 26 26h-44.3v-26z"/>
        <path fill="url(#c)" d="M67.22 120.1h31.2v.16c0 13.111-10.629 23.74-23.74 23.74h-7.46v-23.9z" transform="rotate(-180 82.82 132.05)"/>
        <path fill="url(#d)" d="M131.05 0H131c-18.214.028-32.972 14.786-33 33v5H86.11A2.07 2.07 0 0 0 84 39.66 2 2 0 0 0 86 42h12v4H86.11A2.07 2.07 0 0 0 84 47.66 2 2 0 0 0 86 50h12v4H86.11A2.07 2.07 0 0 0 84 55.66 2 2 0 0 0 86 58h12v86h42.47c12.98-.038 23.492-10.55 23.53-23.53V33c-.027-18.195-14.756-32.945-32.95-33z"/>
        <path fill="#6157FF" d="M142 24.54v4.36a2 2 0 0 1-4 0v-4.36a2 2 0 0 1 4 0zM123 24.54v4.36a2 2 0 0 1-4 0v-4.36a2 2 0 0 1 4 0z"/>
        <path fill="url(#e)" d="M0 55.1h31v.24A23.66 23.66 0 0 1 7.34 79H0V55.1z"/>
        <path fill="url(#f)" fill-rule="nonzero" d="M158 42h18a2 2 0 0 0 0-4h-18a2 2 0 0 0 0 4zm18 4h-18a2 2 0 0 0 0 4h18a2 2 0 0 0 0-4zm0 8h-18a2 2 0 0 0 0 4h18a2 2 0 0 0 0-4z"/>
        <path fill="url(#g)" d="M140 38a11 11 0 0 0-9.5 5.47 11 11 0 1 0 0 11.06A11 11 0 1 0 140 38z"/>
        <path fill="#6157FF" d="M139 38l-8 8-8-8z"/>
        <path fill="#FFF" d="M122 120h42c0 13.255-10.745 24-24 24H98c0-13.255 10.745-24 24-24z"/>
    </g>
</svg>
