<?xml version="1.0" encoding="utf-8"?>
<!-- Generator: Adobe Illustrator 19.2.0, SVG Export Plug-In . SVG Version: 6.00 Build 0)  -->
<svg version="1.1" id="Layer_1" xmlns="http://www.w3.org/2000/svg" xmlns:xlink="http://www.w3.org/1999/xlink" x="0px" y="0px"
	 viewBox="0 0 232.2 188.4" enable-background="new 0 0 232.2 188.4" xml:space="preserve">
<g>
	<path fill="#3B3E43" d="M101.7,0H7.4C3.3,0,0,3.3,0,7.4v72.1C0,83.6,3.3,87,7.4,87h94.3c4.1,0,7.4-3.3,7.4-7.4V7.4
		C109.1,3.3,105.8,0,101.7,0z M7.4,5h94.3c1.3,0,2.4,1.1,2.4,2.4v14H5v-14C5,6.1,6.1,5,7.4,5z M101.7,82H7.4C6.1,82,5,80.9,5,79.6
		V26.4h99.1v53.1C104.1,80.9,103,82,101.7,82z"/>
	<circle fill="#3B3E43" cx="94" cy="14" r="3.4"/>
	<path fill="#3B3E43" d="M101.7,101.4H7.4c-4.1,0-7.4,3.3-7.4,7.4V181c0,4.1,3.3,7.4,7.4,7.4h94.3c4.1,0,7.4-3.3,7.4-7.4v-72.1
		C109.1,104.8,105.8,101.4,101.7,101.4z M7.4,106.4h94.3c1.3,0,2.4,1.1,2.4,2.4v14H5v-14C5,107.5,6.1,106.4,7.4,106.4z M101.7,183.4
		H7.4c-1.3,0-2.4-1.1-2.4-2.4v-53.1h99.1V181C104.1,182.3,103,183.4,101.7,183.4z"/>
	<circle fill="#3B3E43" cx="94" cy="115.4" r="3.4"/>
	<path fill="#3B3E43" d="M224.8,0h-94.3c-4.1,0-7.4,3.3-7.4,7.4v72.1c0,4.1,3.3,7.4,7.4,7.4h94.3c4.1,0,7.4-3.3,7.4-7.4V7.4
		C232.2,3.3,228.9,0,224.8,0z M130.5,5h94.3c1.3,0,2.4,1.1,2.4,2.4v14h-99.1v-14C128.1,6.1,129.2,5,130.5,5z M224.8,82h-94.3
		c-1.3,0-2.4-1.1-2.4-2.4V26.4h99.1v53.1C227.2,80.9,226.1,82,224.8,82z"/>
	<circle fill="#3B3E43" cx="217.1" cy="14" r="3.4"/>
</g>
</svg>
