<?xml version="1.0" encoding="utf-8"?>
<!-- Generator: Adobe Illustrator 19.2.0, SVG Export Plug-In . SVG Version: 6.00 Build 0)  -->
<svg version="1.1" id="Layer_1" xmlns="http://www.w3.org/2000/svg" xmlns:xlink="http://www.w3.org/1999/xlink" x="0px" y="0px"
	 viewBox="0 0 153 124.4" enable-background="new 0 0 153 124.4" xml:space="preserve">
<path fill="#3B3E43" d="M126.2,77.1c-1,1-1,2.6,0,3.5l17.6,17.6H37.8C19.7,98.2,5,85.5,5,69.9V2.5C5,1.1,3.9,0,2.5,0S0,1.1,0,2.5
	v67.4c0,18.4,17,33.3,37.8,33.3h105.3l-16.9,16.9c-1,1-1,2.6,0,3.5c0.5,0.5,1.1,0.7,1.8,0.7s1.3-0.2,1.8-0.7l23.3-23.3l-23.3-23.3
	C128.7,76.1,127.1,76.1,126.2,77.1z"/>
</svg>
