<?xml version="1.0" encoding="utf-8"?>
<!-- Generator: Adobe Illustrator 19.2.0, SVG Export Plug-In . SVG Version: 6.00 Build 0)  -->
<svg version="1.1" id="Layer_1" xmlns="http://www.w3.org/2000/svg" xmlns:xlink="http://www.w3.org/1999/xlink" x="0px" y="0px"
	 viewBox="0 0 147.8 140.5" enable-background="new 0 0 147.8 140.5" xml:space="preserve">
<path fill="#3B3E43" d="M103,97.5l0-14.2l-3.1,0.8c-1.8,0.5-3.6,0.7-5.4,0.7c-5.6,0-10.2-4.6-10.2-10.3V28.8
	C84.3,15.7,94.9,5,108.1,5h4v11.7h2.5c15.5,0,28.2,12.6,28.2,28.2c0,9-4.3,17.5-11.6,22.8c-5.9,4.3-9.1,11.4-8.4,18.6
	c0.1,1.1,0.3,2.2,0.6,3.2c1.5,4.9,14.9,14.1,19.5,16.8c2-0.8,1.5-1.8,3.7-4c-5.2-2.4-17.3-10.3-18.4-14.2c-0.2-0.7-0.4-1.5-0.5-2.3
	c-0.6-5.4,1.8-10.8,6.3-14.1c8.6-6.2,13.7-16.3,13.7-26.9c0-17.5-13.6-31.8-30.7-33.1V0h-9C92.2,0,79.3,12.9,79.3,28.8v45.7
	c0,8.4,6.8,15.3,15.2,15.3c1.2,0,2.4-0.1,3.5-0.2v7.2c-0.3,1.1-2.8,7.1-15.2,10.7c-16.6,4.1-29.5,10.5-41,16.1
	c-13.8,6.8-25.7,12.7-39.2,11.9c-1.4-0.1-2.6,1-2.6,2.4c-0.1,1.4,1,2.6,2.4,2.6c0.9,0,1.8,0.1,2.7,0.1c13.7,0,25.5-5.8,39-12.5
	c11.2-5.5,23.9-11.8,40.1-15.8C101.1,107.4,102.9,97.9,103,97.5z"/>
</svg>
