<?xml version="1.0" encoding="utf-8"?>
<!-- Generator: Adobe Illustrator 19.2.0, SVG Export Plug-In . SVG Version: 6.00 Build 0)  -->
<svg version="1.1" id="Layer_1" xmlns="http://www.w3.org/2000/svg" xmlns:xlink="http://www.w3.org/1999/xlink" x="0px" y="0px"
	 viewBox="0 0 373.7 247" enable-background="new 0 0 373.7 247" xml:space="preserve">
<g>
	<path fill="#3B3E43" d="M368.3,162.1l-45.2,45.2L211.3,95.4h-14.8c-1.1-8.1-8.1-14.4-16.6-14.4h-29.1c-2,0-3.9-0.6-5.6-1.7
		l-24.6-16c-3.5-2.3-7.9-3-12-1.9c-4.1,1.1-7.5,3.9-9.4,7.7l-51.9,94.5L3,218.8c-2.6,3.3-3.2,7.7-1.6,11.6l4.8,11.2
		c0.4,0.9,1.3,1.5,2.3,1.5c0.3,0,0.7-0.1,1-0.2c1.3-0.5,1.9-2,1.3-3.3L6,228.4c-0.9-2.2-0.6-4.6,0.9-6.5l44.5-55.5l0.1-0.2
		l52.1-94.9l0-0.1c1.2-2.5,3.5-4.4,6.2-5.1c2.7-0.7,5.6-0.3,8,1.3l24.6,16c2.5,1.6,5.3,2.5,8.3,2.5h29.1c5.7,0,10.4,4,11.5,9.4
		h-12.2c-1.4,0-2.5,1.1-2.5,2.5s1.1,2.5,2.5,2.5h30l113.9,113.9l48.7-48.7c1-1,1-2.6,0-3.5S369.3,161.1,368.3,162.1z"/>
	<path fill="#3B3E43" d="M286.9,197c-13.6,0-24.7,11.1-24.7,24.7s11.1,24.7,24.7,24.7s24.7-11.1,24.7-24.7S300.6,197,286.9,197z
		 M286.9,241.5c-10.9,0-19.7-8.8-19.7-19.7s8.8-19.7,19.7-19.7s19.7,8.8,19.7,19.7S297.8,241.5,286.9,241.5z"/>
	<circle fill="#3B3E43" cx="286.9" cy="221.7" r="4.3"/>
	<path fill="#3B3E43" d="M245.1,114.8l38.4,38.4l0.1-0.1l38.4,38.4l51.1-51.1l-41.5-41.5l-0.1,0.1l-38.4-38.4l-21.5,21.5l-25.4-25.4
		l-29.6,29.6L245.1,114.8L245.1,114.8z M321.9,184.4L287.5,150l44-44l34.4,34.4L321.9,184.4z M327.5,102.1l-44,44L249,111.7l44-44
		L327.5,102.1z M246.2,63.8l21.4,21.4L245,107.8l-21.4-21.4L246.2,63.8z"/>
	<path fill="#3B3E43" d="M122.2,54.6c10.6,0,19.2-8.6,19.2-19.2c0-1.4-1.1-2.5-2.5-2.5s-2.5,1.1-2.5,2.5c0,7.8-6.4,14.2-14.2,14.2
		c-7.8,0-14.2-6.4-14.2-14.2V25.2h46.7c1.4,0,2.5-1.1,2.5-2.5s-1.1-2.5-2.5-2.5h-13.4v-0.5c0-10.6-8.6-19.2-19.2-19.2
		c-10.6,0-19.2,8.6-19.2,19.2v15.7C103,46,111.6,54.6,122.2,54.6z M122.2,5.5c7.8,0,14.2,6.4,14.2,14.2v0.5H108v-0.5
		C108,11.9,114.4,5.5,122.2,5.5z"/>
	<path fill="#3B3E43" d="M124.9,96.9c-1.1-0.8-2.7-0.5-3.5,0.7l-22.8,34.2c-0.5,0.8-0.5,1.8-0.1,2.5l14.1,46.9
		c0.9,3.2-0.5,6.7-3.4,8.4l-45.1,29.4c-2.7,1.8-4.1,5-3.6,8.2l1.8,10.5c0.2,1.2,1.3,2.1,2.5,2.1c0.1,0,0.3,0,0.4,0
		c1.4-0.2,2.3-1.5,2-2.9l-1.8-10.5c-0.2-1.2,0.3-2.5,1.4-3.1l44.9-29.3c4.9-2.8,7.2-8.6,5.6-14.1l-13.9-46.3l22.2-33.1
		C126.4,99.2,126.1,97.6,124.9,96.9z"/>
</g>
</svg>
