<?xml version="1.0" encoding="utf-8"?>
<!-- Generator: Adobe Illustrator 19.2.0, SVG Export Plug-In . SVG Version: 6.00 Build 0)  -->
<svg version="1.1" id="Layer_1" xmlns="http://www.w3.org/2000/svg" xmlns:xlink="http://www.w3.org/1999/xlink" x="0px" y="0px"
	 viewBox="0 0 327.4 248.9" enable-background="new 0 0 327.4 248.9" xml:space="preserve">
<g>
	<path fill="#3B3E43" d="M324,34.3v-6L261.3,69l-23.8-15.3l-27.9,18c-1.2,0.7-1.5,2.3-0.7,3.5c0.5,0.7,1.3,1.1,2.1,1.1
		c0.5,0,0.9-0.1,1.4-0.4l25.2-16.3l23.8,15.3L324,34.3z"/>
	<path fill="#3B3E43" d="M5.5,114.7h79.6c1.4,0,2.5-1.1,2.5-2.5s-1.1-2.5-2.5-2.5H5.5c-0.4,0-0.5-0.2-0.5-0.2V5.2C5,5.2,5.2,5,5.5,5
		h141.2c1.4,0,2.5-1.1,2.5-2.5S148.1,0,146.7,0H5.5C2.5,0,0,2.4,0,5.2v104.2C0,112.3,2.5,114.7,5.5,114.7z"/>
	<path fill="#3B3E43" d="M149.8,219.2c-1.4,0-2.5,1.1-2.5,2.5l0,22c0,0.1-0.2,0.2-0.5,0.2H5.5c-0.3,0-0.5-0.2-0.5-0.2L5,143
		c0-0.1,0.2-0.2,0.5-0.2h64.7c1.4,0,2.5-1.1,2.5-2.5s-1.1-2.5-2.5-2.5H5.5c-3.1,0-5.5,2.3-5.5,5.2v100.8c0,2.8,2.5,5.2,5.5,5.2
		h141.2c3.1,0,5.5-2.3,5.5-5.2v-22.1C152.3,220.3,151.2,219.2,149.8,219.2z"/>
	<path fill="#3B3E43" d="M321.8,0H180.6c-1.4,0-2.5,1.1-2.5,2.5s1.1,2.5,2.5,2.5h141.2c0.4,0,0.5,0.2,0.5,0.2v104.2
		c0,0-0.2,0.2-0.5,0.2h-79.6c-1.4,0-2.5,1.1-2.5,2.5s1.1,2.5,2.5,2.5h79.6c3.1,0,5.5-2.4,5.5-5.2V5.2C327.4,2.4,324.9,0,321.8,0z"/>
	<path fill="#3B3E43" d="M321.8,137.8h-64.7c-1.4,0-2.5,1.1-2.5,2.5s1.1,2.5,2.5,2.5h64.7c0.3,0,0.5,0.2,0.5,0.2l0,100.8
		c0,0.1-0.2,0.2-0.5,0.2H180.6c-0.3,0-0.5-0.2-0.5-0.2v-22.1c0-1.4-1.1-2.5-2.5-2.5s-2.5,1.1-2.5,2.5v22.1c0,2.8,2.5,5.2,5.5,5.2
		h141.2c3.1,0,5.5-2.3,5.5-5.2V142.9C327.4,140.1,324.9,137.8,321.8,137.8z"/>
	<path fill="#3B3E43" d="M86.2,49.3c-1.4,0-2.5,1.1-2.5,2.5v39.7c0,1.4,1.1,2.5,2.5,2.5s2.5-1.1,2.5-2.5V51.8
		C88.7,50.4,87.6,49.3,86.2,49.3z"/>
	<path fill="#3B3E43" d="M64.4,30.5v60.9c0,1.4,1.1,2.5,2.5,2.5s2.5-1.1,2.5-2.5V30.5c0-1.4-1.1-2.5-2.5-2.5S64.4,29.2,64.4,30.5z"
		/>
	<path fill="#3B3E43" d="M25.8,58.9v32.6c0,1.4,1.1,2.5,2.5,2.5s2.5-1.1,2.5-2.5V58.9c0-1.4-1.1-2.5-2.5-2.5S25.8,57.5,25.8,58.9z"
		/>
	<path fill="#3B3E43" d="M45.1,73v18.4c0,1.4,1.1,2.5,2.5,2.5s2.5-1.1,2.5-2.5V73c0-1.4-1.1-2.5-2.5-2.5S45.1,71.6,45.1,73z"/>
	<path fill="#3B3E43" d="M21.7,186.7H38c1.4,0,2.5-1.1,2.5-2.5s-1.1-2.5-2.5-2.5H21.7c-1.4,0-2.5,1.1-2.5,2.5S20.4,186.7,21.7,186.7
		z"/>
	<path fill="#3B3E43" d="M21.7,167.4h37.4c1.4,0,2.5-1.1,2.5-2.5s-1.1-2.5-2.5-2.5H21.7c-1.4,0-2.5,1.1-2.5,2.5
		S20.4,167.4,21.7,167.4z"/>
	<path fill="#3B3E43" d="M21.7,206h18.1c1.4,0,2.5-1.1,2.5-2.5s-1.1-2.5-2.5-2.5H21.7c-1.4,0-2.5,1.1-2.5,2.5S20.4,206,21.7,206z"/>
	<path fill="#3B3E43" d="M21.7,225.3H126c1.4,0,2.5-1.1,2.5-2.5s-1.1-2.5-2.5-2.5H21.7c-1.4,0-2.5,1.1-2.5,2.5
		S20.4,225.3,21.7,225.3z"/>
</g>
</svg>
