<?xml version="1.0" encoding="utf-8"?>
<!-- Generator: Adobe Illustrator 19.2.0, SVG Export Plug-In . SVG Version: 6.00 Build 0)  -->
<svg version="1.1" id="Layer_1" xmlns="http://www.w3.org/2000/svg" xmlns:xlink="http://www.w3.org/1999/xlink" x="0px" y="0px"
	 viewBox="0 0 128.5 183.1" enable-background="new 0 0 128.5 183.1" xml:space="preserve">
<path fill="#3B3E43" d="M120.5,149.3c-8.3-21.2-20.8-36-36.2-42.8l-0.5-0.2c-11.4-2.6-10.9-8.7-10.9-9l0-7.9
	c1.1,0.2,2.3,0.2,3.5,0.2c8.4,0,15.3-6.9,15.3-15.3V29c0-16-12.9-29-28.8-29h-9v11.8c-17.1,1.3-30.7,15.6-30.7,33.1
	c0,4.3,0.8,8.4,2.4,12.2C11.4,63.5,1.9,75.6,0,89.3c1.5,1,3.2,1.5,4.8,2.4c1.1-12.8,9.8-24.3,23-30.2c3.4,5.7,8.4,10.5,14.6,13.4
	c1.2,0.6,2.7,0,3.3-1.2c0.6-1.3,0-2.7-1.2-3.3c-9.9-4.6-16.3-14.7-16.3-25.6c0-15.5,12.6-28.2,28.2-28.2h2.5V5h4
	C76,5,86.7,15.8,86.7,29v45.5c0,5.7-4.6,10.3-10.3,10.3c-1.8,0-3.6-0.2-5.3-0.7L68,83.3V97c-0.1,1.6-0.2,10.8,14.5,14.2
	c34.6,15.5,40.9,68.5,41,69.5c0.1,1.3,1.2,2.4,2.5,2.4h0c1.4,0,2.5-1.2,2.5-2.5C128.5,179.2,126.7,165.1,120.5,149.3z"/>
</svg>
