<?xml version="1.0" encoding="utf-8"?>
<!-- Generator: Adobe Illustrator 19.2.0, SVG Export Plug-In . SVG Version: 6.00 Build 0)  -->
<svg version="1.1" id="Layer_1" xmlns="http://www.w3.org/2000/svg" xmlns:xlink="http://www.w3.org/1999/xlink" x="0px" y="0px"
	 viewBox="0 0 359.2 186.9" enable-background="new 0 0 359.2 186.9" xml:space="preserve">
<g>
	<path fill="#3B3E43" d="M334.5,115c0.5,0.5,1.1,0.7,1.8,0.7s1.3-0.2,1.8-0.7l21.2-21.2L338,72.6c-1-1-2.6-1-3.5,0s-1,2.6,0,3.5
		L350,91.6h-65.2c-9.9,0-19.6-2.1-28.8-6l22.6-28.5c17-21.5,39.6-33.4,63.5-33.4h8.3l-15.9,15.9c-1,1-1,2.6,0,3.5
		c0.5,0.5,1.1,0.7,1.8,0.7s1.3-0.2,1.8-0.7l21.2-21.2l-2.4-2.4l-0.1-0.1L338,0.7c-1-1-2.6-1-3.5,0s-1,2.6,0,3.5L349,18.7h-6.9
		c-25.2,0-49.7,12.9-67.5,35.3l-23.3,29.5c-10.8-5.5-20.8-13.7-29.4-24.4c-17.9-22.2-41.6-34.4-66.8-34.4H2.5
		c-1.4,0-2.5,1.1-2.5,2.5s1.1,2.5,2.5,2.5h152.7c23.6,0,45.9,11.6,62.9,32.5c8.8,10.9,19,19.4,30.1,25.2l-28.7,36.4
		c-17.5-20.4-40.9-32.1-64.8-32.1H2.5c-1.4,0-2.5,1.1-2.5,2.5s1.1,2.5,2.5,2.5h152.1c23.1,0,44.8,11,61.6,31
		c-16.8,20-38.5,31-61.6,31H2.5c-1.4,0-2.5,1.1-2.5,2.5s1.1,2.5,2.5,2.5h152.1c23.9,0,47.3-11.6,64.8-32.1
		c17.7,22.4,42.3,35.2,67.4,35.2h63.4l-15.7,15.7c-1,1-1,2.6,0,3.5c0.5,0.5,1.1,0.7,1.8,0.7s1.3-0.2,1.8-0.7l21.2-21.2L338,143.7
		c-1-1-2.6-1-3.5,0s-1,2.6,0,3.5l14.7,14.7h-62.3c-24,0-46.5-11.9-63.5-33.4l-0.6-0.8l30.1-38.1c10.1,4.5,20.9,6.9,32,6.9h64.5
		l-14.8,14.8C333.5,112.4,333.5,114,334.5,115z"/>
</g>
</svg>
