<?xml version="1.0" encoding="utf-8"?>
<!-- Generator: Adobe Illustrator 19.2.0, SVG Export Plug-In . SVG Version: 6.00 Build 0)  -->
<svg version="1.1" id="Layer_1" xmlns="http://www.w3.org/2000/svg" xmlns:xlink="http://www.w3.org/1999/xlink" x="0px" y="0px"
	 viewBox="0 0 118.1 165.7" enable-background="new 0 0 118.1 165.7" xml:space="preserve">
<g>
	<g>
		<circle fill="#FFFFFF" cx="102.3" cy="83.3" r="13.2"/>
		<path fill="#3B3E43" d="M102.3,99.1c-8.7,0-15.8-7.1-15.8-15.8s7.1-15.8,15.8-15.8s15.8,7.1,15.8,15.8S111,99.1,102.3,99.1z
			 M102.3,72.6c-5.9,0-10.8,4.8-10.8,10.8s4.8,10.8,10.8,10.8s10.8-4.8,10.8-10.8S108.3,72.6,102.3,72.6z"/>
	</g>
	<g>
		<circle fill="#FFFFFF" cx="15.7" cy="15.8" r="13.2"/>
		<path fill="#3B3E43" d="M15.8,31.5C7.1,31.5,0,24.4,0,15.8S7.1,0,15.8,0s15.8,7.1,15.8,15.8S24.4,31.5,15.8,31.5z M15.8,5
			C9.8,5,5,9.8,5,15.8s4.8,10.8,10.8,10.8s10.8-4.8,10.8-10.8S21.7,5,15.8,5z"/>
	</g>
	<g>
		<circle fill="#FFFFFF" cx="60.2" cy="149.9" r="13.2"/>
		<path fill="#3B3E43" d="M60.2,165.7c-8.7,0-15.8-7.1-15.8-15.8s7.1-15.8,15.8-15.8s15.8,7.1,15.8,15.8S68.9,165.7,60.2,165.7z
			 M60.2,139.2c-5.9,0-10.8,4.8-10.8,10.8s4.8,10.8,10.8,10.8s10.8-4.8,10.8-10.8S66.1,139.2,60.2,139.2z"/>
	</g>
</g>
</svg>
