<?xml version="1.0" encoding="utf-8"?>
<!-- Generator: Adobe Illustrator 19.2.0, SVG Export Plug-In . SVG Version: 6.00 Build 0)  -->
<svg version="1.1" id="Layer_1" xmlns="http://www.w3.org/2000/svg" xmlns:xlink="http://www.w3.org/1999/xlink" x="0px" y="0px"
	 viewBox="0 0 197.3 113.5" enable-background="new 0 0 197.3 113.5" xml:space="preserve">
<g>
	<path fill="#3B3E43" d="M79.6,5c1.4,0,2.5-1.1,2.5-2.5S81,0,79.6,0H2.5C1.1,0,0,1.1,0,2.5S1.1,5,2.5,5H79.6z"/>
	<path fill="#3B3E43" d="M54.5,38.7c0,1.4,1.1,2.5,2.5,2.5h105.3c1.4,0,2.5-1.1,2.5-2.5s-1.1-2.5-2.5-2.5H57
		C55.7,36.2,54.5,37.3,54.5,38.7z"/>
	<path fill="#3B3E43" d="M70.7,71.7c0,1.4,1.1,2.5,2.5,2.5h105.3c1.4,0,2.5-1.1,2.5-2.5s-1.1-2.5-2.5-2.5H73.2
		C71.9,69.2,70.7,70.3,70.7,71.7z"/>
	<path fill="#3B3E43" d="M79.6,108.5H4.4c-1.4,0-2.5,1.1-2.5,2.5s1.1,2.5,2.5,2.5h75.2c1.4,0,2.5-1.1,2.5-2.5S81,108.5,79.6,108.5z"
		/>
	<path fill="#3B3E43" d="M148.3,111c0,1.4,1.1,2.5,2.5,2.5h44c1.4,0,2.5-1.1,2.5-2.5s-1.1-2.5-2.5-2.5h-44
		C149.4,108.5,148.3,109.6,148.3,111z"/>
</g>
</svg>
