<?xml version="1.0" encoding="utf-8"?>
<!-- Generator: Adobe Illustrator 19.2.0, SVG Export Plug-In . SVG Version: 6.00 Build 0)  -->
<svg version="1.1" id="Layer_1" xmlns="http://www.w3.org/2000/svg" xmlns:xlink="http://www.w3.org/1999/xlink" x="0px" y="0px"
	 viewBox="0 0 217.6 188.5" enable-background="new 0 0 217.6 188.5" xml:space="preserve">
<g>
	<path fill="#3B3E43" d="M108.8,0L0,188.5h217.6L108.8,0z M108.8,10L209,183.5H8.7L108.8,10z"/>
	<path fill="#3B3E43" d="M146.2,122.1c-11.1,7.9-24.1,12.1-37.7,12.1c-13.3,0-26.1-4-37-11.6c-1.1-0.8-2.7-0.5-3.5,0.6
		c-0.8,1.1-0.5,2.7,0.6,3.5c11.7,8.1,25.5,12.5,39.9,12.5c14.7,0,28.7-4.5,40.6-13c1.1-0.8,1.4-2.4,0.6-3.5
		C148.9,121.6,147.3,121.3,146.2,122.1z"/>
	<path fill="#3B3E43" d="M157.4,116c-13.1-12.6-30.4-19.6-48.6-19.6s-35.5,7-48.6,19.6c-1,1-1,2.5-0.1,3.5c1,1,2.5,1,3.5,0.1
		c7.2-6.9,15.8-12,25.1-15c-0.3,1.5-0.5,3-0.5,4.5c0,11.3,9.2,20.6,20.6,20.6s20.6-9.2,20.6-20.6c0-1.5-0.2-3-0.5-4.5
		c9.3,3,17.8,8.1,25.1,15c0.5,0.5,1.1,0.7,1.7,0.7c0.7,0,1.3-0.3,1.8-0.8C158.4,118.5,158.4,117,157.4,116z M124.4,109.1
		c0,8.6-7,15.6-15.6,15.6s-15.6-7-15.6-15.6c0-2.1,0.4-4.2,1.3-6.1c4.7-1,9.4-1.6,14.3-1.6c4.9,0,9.7,0.6,14.3,1.6
		C123.9,104.9,124.4,107,124.4,109.1z"/>
	<circle fill="#3B3E43" cx="108.8" cy="109.4" r="2.9"/>
</g>
</svg>
