<?xml version="1.0" encoding="utf-8"?>
<!-- Generator: Adobe Illustrator 19.2.0, SVG Export Plug-In . SVG Version: 6.00 Build 0)  -->
<svg version="1.1" id="Layer_1" xmlns="http://www.w3.org/2000/svg" xmlns:xlink="http://www.w3.org/1999/xlink" x="0px" y="0px"
	 viewBox="0 0 229.9 226.1" enable-background="new 0 0 229.9 226.1" xml:space="preserve">
<path fill="#3B3E43" d="M205.1,137.2c0-0.1,0-0.3,0-0.4c-0.1,0-0.3,0-0.5-0.1c-1.7-1-3.5-1.5-5.1-2.6c-2.5-1.2-4.9-2.3-7.3-3.2
	l-2.2-1c-16.4-7.4-17-7.9-17-13.4c0-3.3,3-8.9,5.9-13c4.6-6.7,7.9-14.8,9.4-23.6c4.6,0,8.3-3.7,8.3-8.3v-9.9c0-4.3-3.2-7.8-7.3-8.3
	V36.5c0-8.7-3.2-17.2-9.1-23.9c-7-8-17-12.6-27.5-12.6h-2.5v11c-19,1.3-34,17.1-34,36.4V53c-4.1,0.5-7.3,4-7.3,8.3v9.9
	c0,4.6,3.7,8.3,8.3,8.3c1.4,8.2,4.4,15.8,8.5,22.2c0.4,0.7,0.9,1.3,1.5,2c1.9,2.3,4.2,5.2,4.2,12.4c0,2.7-1.1,6.5-6.6,9.4
	c-6.7,3.6-12.3,5.3-18.3,7.2c-7.2,2.2-24.5,10.2-24.6,10.3c-0.1,0-0.2,0.1-0.3,0.1c0,0,0,0,0,0c0,0,0,0,0,0
	c-2.1,0.8-10.5,6.8-13.5,9c-15.1,11.2-25.8,26.8-35.1,40.5c-10.5,15.3-19.5,28.5-30.5,28.5c-1.4,0-2.5,1.1-2.5,2.5s1.1,2.5,2.5,2.5
	c13.7,0,23.4-14.2,34.7-30.7c9.2-13.4,19.6-28.6,34-39.3c16.5-12.3,26.9-15.5,36.9-18.6c6-1.8,12.1-3.8,19.2-7.5
	c8.1-4.3,9.3-10.5,9.3-13.9c0-9-3.2-12.9-5.4-15.6c-0.5-0.6-0.9-1.1-1.2-1.5c-4.1-6.3-6.9-14.1-8.1-22.4l-0.3-2.1h-4.3
	c-1.8,0-3.3-1.5-3.3-3.3v-9.9c0-1.8,1.5-3.3,3.3-3.3h3.9V47.4c0-17.4,14.1-31.5,31.5-31.5h2.5V5.1c8.2,0.7,15.8,4.5,21.2,10.8
	c5.1,5.8,7.9,13.1,7.9,20.6v21.9h4c1.8,0,3.3,1.5,3.3,3.3v9.9c0,1.8-1.5,3.3-3.3,3.3h-4.3l-0.3,2.1c-1.3,8.9-4.4,17-8.9,23.6
	c-2.5,3.6-6.8,10.5-6.8,15.8c0,8.9,3.8,10.6,20,17.9l2.2,1l0.2,0.1c15.9,5.8,34.4,20.3,34.4,41.8v45c0,1.4,1.1,2.5,2.5,2.5
	s2.5-1.1,2.5-2.5v-45C229.9,159.1,218.3,145.5,205.1,137.2z"/>
</svg>
