<svg xmlns="http://www.w3.org/2000/svg" width="900" height="600" style="background:#fff"><defs><linearGradient id="a" x1="43.99%" x2="50.443%" y1="12.291%" y2="52.779%"><stop offset="11.669%" stop-color="#002EC7"/><stop offset="24.358%" stop-color="#4B2EB2"/><stop offset="45.364%" stop-color="#C22E90"/><stop offset="54.659%" stop-color="#F22E83"/><stop offset="59.519%" stop-color="#F43A72"/><stop offset="78.631%" stop-color="#FA6635"/><stop offset="92.658%" stop-color="#FE820F"/><stop offset="100%" stop-color="#FF8C00"/></linearGradient><linearGradient id="b" x1="101.754%" x2="26.947%" y1="46.799%" y2="51.426%"><stop offset="11.669%" stop-color="#002EC7"/><stop offset="24.358%" stop-color="#4B2EB2"/><stop offset="45.364%" stop-color="#C22E90"/><stop offset="54.659%" stop-color="#F22E83"/><stop offset="59.519%" stop-color="#F43A72"/><stop offset="78.631%" stop-color="#FA6635"/><stop offset="92.658%" stop-color="#FE820F"/><stop offset="100%" stop-color="#FF8C00"/></linearGradient><linearGradient id="c" x1="105.476%" x2="18.414%" y1="50.081%" y2="49.954%"><stop offset="11.669%" stop-color="#002EC7"/><stop offset="24.358%" stop-color="#4B2EB2"/><stop offset="45.364%" stop-color="#C22E90"/><stop offset="54.659%" stop-color="#F22E83"/><stop offset="59.519%" stop-color="#F43A72"/><stop offset="78.631%" stop-color="#FA6635"/><stop offset="92.658%" stop-color="#FE820F"/><stop offset="100%" stop-color="#FF8C00"/></linearGradient><linearGradient id="d" x1="108.526%" x2="10.916%" y1="43.771%" y2="54.16%"><stop offset="0%" stop-color="#FF8C00"/><stop offset="7.342%" stop-color="#FE820F"/><stop offset="21.369%" stop-color="#FA6635"/><stop offset="40.481%" stop-color="#F43A72"/><stop offset="45.341%" stop-color="#F22E83"/><stop offset="57.16%" stop-color="#C22E90"/><stop offset="83.867%" stop-color="#4B2EB2"/><stop offset="100%" stop-color="#002EC7"/></linearGradient><linearGradient id="e" x1="-31.647%" x2="100.706%" y1="49.965%" y2="50.03%"><stop offset="0%" stop-color="#002EC7"/><stop offset="16.133%" stop-color="#4B2EB2"/><stop offset="42.84%" stop-color="#C22E90"/><stop offset="54.659%" stop-color="#F22E83"/><stop offset="59.519%" stop-color="#F43A72"/><stop offset="78.631%" stop-color="#FA6635"/><stop offset="92.658%" stop-color="#FE820F"/><stop offset="100%" stop-color="#FF8C00"/></linearGradient><linearGradient id="f" x1="128.212%" x2="-.047%" y1="48.19%" y2="51.396%"><stop offset="11.669%" stop-color="#002EC7"/><stop offset="24.358%" stop-color="#4B2EB2"/><stop offset="45.364%" stop-color="#C22E90"/><stop offset="54.659%" stop-color="#F22E83"/><stop offset="59.519%" stop-color="#F43A72"/><stop offset="78.631%" stop-color="#FA6635"/><stop offset="92.658%" stop-color="#FE820F"/><stop offset="100%" stop-color="#FF8C00"/></linearGradient><linearGradient id="g" x1="90.371%" x2="46.572%" y1="43.183%" y2="51.38%"><stop offset="11.669%" stop-color="#002EC7"/><stop offset="24.358%" stop-color="#4B2EB2"/><stop offset="45.364%" stop-color="#C22E90"/><stop offset="54.659%" stop-color="#F22E83"/><stop offset="59.519%" stop-color="#F43A72"/><stop offset="78.631%" stop-color="#FA6635"/><stop offset="92.658%" stop-color="#FE820F"/><stop offset="100%" stop-color="#FF8C00"/></linearGradient><linearGradient id="h" x1="153.784%" x2="5.87%" y1="50%" y2="50%"><stop offset="11.669%" stop-color="#002EC7"/><stop offset="24.358%" stop-color="#4B2EB2"/><stop offset="45.364%" stop-color="#C22E90"/><stop offset="54.659%" stop-color="#F22E83"/><stop offset="59.519%" stop-color="#F43A72"/><stop offset="78.631%" stop-color="#FA6635"/><stop offset="92.658%" stop-color="#FE820F"/><stop offset="100%" stop-color="#FF8C00"/></linearGradient><linearGradient id="i" x1="172.243%" x2="46.724%" y1="50%" y2="50%"><stop offset="11.669%" stop-color="#002EC7"/><stop offset="24.358%" stop-color="#4B2EB2"/><stop offset="45.364%" stop-color="#C22E90"/><stop offset="54.659%" stop-color="#F22E83"/><stop offset="59.519%" stop-color="#F43A72"/><stop offset="78.631%" stop-color="#FA6635"/><stop offset="92.658%" stop-color="#FE820F"/><stop offset="100%" stop-color="#FF8C00"/></linearGradient><linearGradient id="j" x1="88.844%" x2="48.748%" y1="41.67%" y2="49.699%"><stop offset="11.669%" stop-color="#002EC7"/><stop offset="24.358%" stop-color="#4B2EB2"/><stop offset="45.364%" stop-color="#C22E90"/><stop offset="54.659%" stop-color="#F22E83"/><stop offset="59.519%" stop-color="#F43A72"/><stop offset="78.631%" stop-color="#FA6635"/><stop offset="92.658%" stop-color="#FE820F"/><stop offset="100%" stop-color="#FF8C00"/></linearGradient><linearGradient id="k" x1="52.381%" x2="48.171%" y1="-4.348%" y2="99.708%"><stop offset="0%" stop-color="#002EC7"/><stop offset="16.133%" stop-color="#4B2EB2"/><stop offset="42.84%" stop-color="#C22E90"/><stop offset="54.659%" stop-color="#F22E83"/><stop offset="59.519%" stop-color="#F43A72"/><stop offset="78.631%" stop-color="#FA6635"/><stop offset="92.658%" stop-color="#FE820F"/><stop offset="100%" stop-color="#FF8C00"/></linearGradient><linearGradient id="l" x1="52.646%" x2="47.994%" y1="-4.364%" y2="99.924%"><stop offset="0%" stop-color="#002EC7"/><stop offset="16.133%" stop-color="#4B2EB2"/><stop offset="42.84%" stop-color="#C22E90"/><stop offset="54.659%" stop-color="#F22E83"/><stop offset="59.519%" stop-color="#F43A72"/><stop offset="78.631%" stop-color="#FA6635"/><stop offset="92.658%" stop-color="#FE820F"/><stop offset="100%" stop-color="#FF8C00"/></linearGradient><linearGradient id="m" x1="-4701.865%" x2="-4604.256%" y1="-311.629%" y2="-301.241%"><stop offset="0%" stop-color="#FF8C00"/><stop offset="7.342%" stop-color="#FE820F"/><stop offset="21.369%" stop-color="#FA6635"/><stop offset="40.481%" stop-color="#F43A72"/><stop offset="45.341%" stop-color="#F22E83"/><stop offset="57.16%" stop-color="#C22E90"/><stop offset="83.867%" stop-color="#4B2EB2"/><stop offset="100%" stop-color="#002EC7"/></linearGradient><linearGradient id="n" x1="-2354.777%" x2="-2355.02%" y1="233.171%" y2="268.623%"><stop offset="0%" stop-color="#002EC7"/><stop offset="16.133%" stop-color="#4B2EB2"/><stop offset="42.84%" stop-color="#C22E90"/><stop offset="54.659%" stop-color="#F22E83"/><stop offset="59.519%" stop-color="#F43A72"/><stop offset="78.631%" stop-color="#FA6635"/><stop offset="92.658%" stop-color="#FE820F"/><stop offset="100%" stop-color="#FF8C00"/></linearGradient><linearGradient id="o" x1="-8.526%" x2="89.084%" y1="43.771%" y2="54.16%"><stop offset="0%" stop-color="#FF8C00"/><stop offset="7.342%" stop-color="#FE820F"/><stop offset="21.369%" stop-color="#FA6635"/><stop offset="40.481%" stop-color="#F43A72"/><stop offset="45.341%" stop-color="#F22E83"/><stop offset="57.16%" stop-color="#C22E90"/><stop offset="83.867%" stop-color="#4B2EB2"/><stop offset="100%" stop-color="#002EC7"/></linearGradient><linearGradient id="p" x1="131.646%" x2="-.707%" y1="49.965%" y2="50.03%"><stop offset="0%" stop-color="#002EC7"/><stop offset="16.133%" stop-color="#4B2EB2"/><stop offset="42.84%" stop-color="#C22E90"/><stop offset="54.659%" stop-color="#F22E83"/><stop offset="59.519%" stop-color="#F43A72"/><stop offset="78.631%" stop-color="#FA6635"/><stop offset="92.658%" stop-color="#FE820F"/><stop offset="100%" stop-color="#FF8C00"/></linearGradient><linearGradient id="q" x1="7.959%" x2="120.588%" y1="37.53%" y2="104.425%"><stop offset="0%" stop-color="#FF8C00"/><stop offset="9.109%" stop-color="#FE820F"/><stop offset="26.509%" stop-color="#FA6635"/><stop offset="50.219%" stop-color="#F43A72"/><stop offset="56.248%" stop-color="#F22E83"/><stop offset="64.525%" stop-color="#C22E90"/><stop offset="83.23%" stop-color="#4B2EB2"/><stop offset="94.529%" stop-color="#002EC7"/></linearGradient><linearGradient id="r" x1="52.382%" x2="48.17%" y1="-4.348%" y2="99.708%"><stop offset="0%" stop-color="#002EC7"/><stop offset="16.133%" stop-color="#4B2EB2"/><stop offset="42.84%" stop-color="#C22E90"/><stop offset="54.659%" stop-color="#F22E83"/><stop offset="59.519%" stop-color="#F43A72"/><stop offset="78.631%" stop-color="#FA6635"/><stop offset="92.658%" stop-color="#FE820F"/><stop offset="100%" stop-color="#FF8C00"/></linearGradient><linearGradient id="s" x1="131.646%" x2="-.707%" y1="49.965%" y2="50.03%"><stop offset="0%" stop-color="#002EC7"/><stop offset="16.133%" stop-color="#4B2EB2"/><stop offset="42.84%" stop-color="#C22E90"/><stop offset="54.659%" stop-color="#F22E83"/><stop offset="59.519%" stop-color="#F43A72"/><stop offset="78.631%" stop-color="#FA6635"/><stop offset="92.658%" stop-color="#FE820F"/><stop offset="100%" stop-color="#FF8C00"/></linearGradient><linearGradient id="t" x1="-16.136%" x2="95.049%" y1="-28.561%" y2="103.513%"><stop offset="0%" stop-color="#FF8C00"/><stop offset="9.109%" stop-color="#FE820F"/><stop offset="26.509%" stop-color="#FA6635"/><stop offset="50.219%" stop-color="#F43A72"/><stop offset="56.248%" stop-color="#F22E83"/><stop offset="64.525%" stop-color="#C22E90"/><stop offset="83.23%" stop-color="#4B2EB2"/><stop offset="94.529%" stop-color="#002EC7"/></linearGradient><linearGradient id="u" x1="68.007%" x2="46.91%" y1="10.132%" y2="56.841%"><stop offset="0%" stop-color="#002EC7"/><stop offset="16.133%" stop-color="#4B2EB2"/><stop offset="42.84%" stop-color="#C22E90"/><stop offset="54.659%" stop-color="#F22E83"/><stop offset="59.519%" stop-color="#F43A72"/><stop offset="78.631%" stop-color="#FA6635"/><stop offset="92.658%" stop-color="#FE820F"/><stop offset="100%" stop-color="#FF8C00"/></linearGradient><linearGradient id="v" x1="66.008%" x2="44.911%" y1="14.558%" y2="61.267%"><stop offset="0%" stop-color="#002EC7"/><stop offset="16.133%" stop-color="#4B2EB2"/><stop offset="42.84%" stop-color="#C22E90"/><stop offset="54.659%" stop-color="#F22E83"/><stop offset="59.519%" stop-color="#F43A72"/><stop offset="78.631%" stop-color="#FA6635"/><stop offset="92.658%" stop-color="#FE820F"/><stop offset="100%" stop-color="#FF8C00"/></linearGradient><linearGradient id="w" x1="65.449%" x2="44.351%" y1="15.797%" y2="62.506%"><stop offset="0%" stop-color="#002EC7"/><stop offset="16.133%" stop-color="#4B2EB2"/><stop offset="42.84%" stop-color="#C22E90"/><stop offset="54.659%" stop-color="#F22E83"/><stop offset="59.519%" stop-color="#F43A72"/><stop offset="78.631%" stop-color="#FA6635"/><stop offset="92.658%" stop-color="#FE820F"/><stop offset="100%" stop-color="#FF8C00"/></linearGradient><linearGradient id="x" x1="7.247%" x2="118.511%" y1="40.647%" y2="56.006%"><stop offset="0%" stop-color="#FF8C00"/><stop offset="9.109%" stop-color="#FE820F"/><stop offset="26.509%" stop-color="#FA6635"/><stop offset="50.219%" stop-color="#F43A72"/><stop offset="56.248%" stop-color="#F22E83"/><stop offset="64.525%" stop-color="#C22E90"/><stop offset="83.23%" stop-color="#4B2EB2"/><stop offset="94.529%" stop-color="#002EC7"/></linearGradient></defs><g fill="none" fill-rule="evenodd"><path fill="#FFF" d="M0 0h900v600H0z"/><g transform="translate(0 -7)"><circle cx="344.911" cy="186.158" r="168.31" fill="#FF8C00" opacity=".005"/><circle cx="344.974" cy="186.297" r="168.248" fill="#FF8C00" opacity=".01"/><circle cx="345.036" cy="186.437" r="168.185" fill="#FF8C00" opacity=".015"/><circle cx="345.098" cy="186.576" r="168.123" fill="#FF8C00" opacity=".02"/><circle cx="345.161" cy="186.716" r="168.06" fill="#FF8C00" opacity=".025"/><circle cx="345.223" cy="186.855" r="167.997" fill="#FF8C00" opacity=".03"/><circle cx="345.286" cy="186.994" r="167.935" fill="#FF8C00" opacity=".035"/><circle cx="345.348" cy="187.134" r="167.872" fill="#FF8C00" opacity=".04"/><circle cx="345.41" cy="187.273" r="167.809" fill="#FF8C00" opacity=".045"/><circle cx="345.473" cy="187.413" r="167.747" fill="#FF8C00" opacity=".05"/><circle cx="345.535" cy="187.552" r="167.684" fill="#FF8C00" opacity=".055"/><circle cx="345.598" cy="187.692" r="167.622" fill="#FF8C00" opacity=".06"/><circle cx="345.66" cy="187.831" r="167.559" fill="#FF8C00" opacity=".065"/><circle cx="345.722" cy="187.971" r="167.496" fill="#FF8C00" opacity=".07"/><circle cx="345.785" cy="188.11" r="167.434" fill="#FF8C00" opacity=".075"/><circle cx="345.847" cy="188.25" r="167.371" fill="#FF8C00" opacity=".08"/><circle cx="345.91" cy="188.389" r="167.308" fill="#FF8C00" opacity=".085"/><circle cx="345.972" cy="188.529" r="167.246" fill="#FF8C00" opacity=".09"/><circle cx="346.034" cy="188.668" r="167.183" fill="#FF8C00" opacity=".095"/><circle cx="346.097" cy="188.808" r="167.121" fill="#FF8C00" opacity=".1"/><circle cx="346.159" cy="188.947" r="167.058" fill="#FF8C00" opacity=".104"/><circle cx="346.222" cy="189.087" r="166.995" fill="#FF8C00" opacity=".109"/><circle cx="346.284" cy="189.226" r="166.933" fill="#FF8C00" opacity=".114"/><circle cx="346.346" cy="189.366" r="166.87" fill="#FF8C00" opacity=".119"/><circle cx="346.409" cy="189.505" r="166.808" fill="#FF8C00" opacity=".124"/><circle cx="346.471" cy="189.645" r="166.745" fill="#FF8C00" opacity=".129"/><circle cx="346.534" cy="189.784" r="166.682" fill="#FF8C00" opacity=".134"/><circle cx="346.596" cy="189.924" r="166.62" fill="#FF8C00" opacity=".139"/><circle cx="346.659" cy="190.063" r="166.557" fill="#FF8C00" opacity=".144"/><circle cx="346.721" cy="190.203" r="166.494" fill="#FF8C00" opacity=".149"/><circle cx="346.783" cy="190.342" r="166.432" fill="#FF8C00" opacity=".154"/><circle cx="346.846" cy="190.481" r="166.369" fill="#FF8C00" opacity=".159"/><circle cx="346.908" cy="190.621" r="166.307" fill="#FF8C00" opacity=".164"/><circle cx="346.971" cy="190.76" r="166.244" fill="#FF8C00" opacity=".169"/><circle cx="347.033" cy="190.9" r="166.181" fill="#FF8C00" opacity=".174"/><circle cx="347.095" cy="191.039" r="166.119" fill="#FF8C00" opacity=".179"/><circle cx="347.158" cy="191.179" r="166.056" fill="#FF8C00" opacity=".184"/><circle cx="347.22" cy="191.318" r="165.994" fill="#FF8C00" opacity=".189"/><circle cx="347.283" cy="191.458" r="165.931" fill="#FF8C00" opacity=".194"/><circle cx="347.345" cy="191.597" r="165.868" fill="#FF8C00" opacity=".199"/><circle cx="347.407" cy="191.737" r="165.806" fill="#FF8C00" opacity=".204"/><circle cx="347.47" cy="191.876" r="165.743" fill="#FF8C00" opacity=".209"/><circle cx="347.532" cy="192.016" r="165.68" fill="#FF8C00" opacity=".214"/><circle cx="347.595" cy="192.155" r="165.618" fill="#FF8C00" opacity=".219"/><circle cx="347.657" cy="192.295" r="165.555" fill="#FF8C00" opacity=".224"/><circle cx="347.719" cy="192.434" r="165.493" fill="#FF8C00" opacity=".229"/><circle cx="347.782" cy="192.574" r="165.43" fill="#FF8C00" opacity=".234"/><circle cx="347.844" cy="192.713" r="165.367" fill="#FF8C00" opacity=".239"/><circle cx="347.907" cy="192.853" r="165.305" fill="#FF8C00" opacity=".244"/><circle cx="347.969" cy="192.992" r="165.242" fill="#FF8C00" opacity=".249"/><circle cx="348.031" cy="193.132" r="165.179" fill="#FF8C00" opacity=".254"/><circle cx="348.094" cy="193.271" r="165.117" fill="#FF8C00" opacity=".259"/><circle cx="348.156" cy="193.411" r="165.054" fill="#FF8C00" opacity=".264"/><circle cx="348.219" cy="193.55" r="164.992" fill="#FF8C00" opacity=".269"/><circle cx="348.281" cy="193.69" r="164.929" fill="#FF8C00" opacity=".274"/><circle cx="348.344" cy="193.829" r="164.866" fill="#FF8C00" opacity=".279"/><circle cx="348.406" cy="193.968" r="164.804" fill="#FF8C00" opacity=".284"/><circle cx="348.468" cy="194.108" r="164.741" fill="#FF8C00" opacity=".289"/><circle cx="348.531" cy="194.247" r="164.679" fill="#FF8C00" opacity=".294"/><circle cx="348.593" cy="194.387" r="164.616" fill="#FF8C00" opacity=".299"/><circle cx="348.656" cy="194.526" r="164.553" fill="#FF8C00" opacity=".303"/><circle cx="348.718" cy="194.666" r="164.491" fill="#FF8C00" opacity=".308"/><circle cx="348.78" cy="194.805" r="164.428" fill="#FF8C00" opacity=".313"/><circle cx="348.843" cy="194.945" r="164.365" fill="#FF8C00" opacity=".318"/><circle cx="348.905" cy="195.084" r="164.303" fill="#FF8C00" opacity=".323"/><circle cx="348.968" cy="195.224" r="164.24" fill="#FF8C00" opacity=".328"/><circle cx="349.03" cy="195.363" r="164.178" fill="#FF8C00" opacity=".333"/><circle cx="349.092" cy="195.503" r="164.115" fill="#FF8C00" opacity=".338"/><circle cx="349.155" cy="195.642" r="164.052" fill="#FF8C00" opacity=".343"/><circle cx="349.217" cy="195.782" r="163.99" fill="#FF8C00" opacity=".348"/><circle cx="349.28" cy="195.921" r="163.927" fill="#FF8C00" opacity=".353"/><circle cx="349.342" cy="196.061" r="163.865" fill="#FF8C00" opacity=".358"/><circle cx="349.404" cy="196.2" r="163.802" fill="#FF8C00" opacity=".363"/><circle cx="349.467" cy="196.34" r="163.739" fill="#FF8C00" opacity=".368"/><circle cx="349.529" cy="196.479" r="163.677" fill="#FF8C00" opacity=".373"/><circle cx="349.592" cy="196.619" r="163.614" fill="#FF8C00" opacity=".378"/><circle cx="349.654" cy="196.758" r="163.551" fill="#FF8C00" opacity=".383"/><circle cx="349.716" cy="196.898" r="163.489" fill="#FF8C00" opacity=".388"/><circle cx="349.779" cy="197.037" r="163.426" fill="#FF8C00" opacity=".393"/><circle cx="349.841" cy="197.177" r="163.364" fill="#FF8C00" opacity=".398"/><circle cx="349.904" cy="197.316" r="163.301" fill="#FF8C00" opacity=".403"/><circle cx="349.966" cy="197.455" r="163.238" fill="#FF8C00" opacity=".408"/><circle cx="350.029" cy="197.595" r="163.176" fill="#FF8C00" opacity=".413"/><circle cx="350.091" cy="197.734" r="163.113" fill="#FF8C00" opacity=".418"/><circle cx="350.153" cy="197.874" r="163.05" fill="#FF8C00" opacity=".423"/><circle cx="350.216" cy="198.013" r="162.988" fill="#FF8C00" opacity=".428"/><circle cx="350.278" cy="198.153" r="162.925" fill="#FF8C00" opacity=".433"/><circle cx="350.341" cy="198.292" r="162.863" fill="#FF8C00" opacity=".438"/><circle cx="350.403" cy="198.432" r="162.8" fill="#FF8C00" opacity=".443"/><circle cx="350.465" cy="198.571" r="162.737" fill="#FF8C00" opacity=".448"/><circle cx="350.528" cy="198.711" r="162.675" fill="#FF8C00" opacity=".453"/><circle cx="350.59" cy="198.85" r="162.612" fill="#FF8C00" opacity=".458"/><circle cx="350.653" cy="198.99" r="162.55" fill="#FF8C00" opacity=".463"/><circle cx="350.715" cy="199.129" r="162.487" fill="#FF8C00" opacity=".468"/><circle cx="350.777" cy="199.269" r="162.424" fill="#FF8C00" opacity=".473"/><circle cx="350.84" cy="199.408" r="162.362" fill="#FF8C00" opacity=".478"/><circle cx="350.902" cy="199.548" r="162.299" fill="#FF8C00" opacity=".483"/><circle cx="350.965" cy="199.687" r="162.236" fill="#FF8C00" opacity=".488"/><circle cx="351.027" cy="199.827" r="162.174" fill="#FF8C00" opacity=".493"/><circle cx="351.089" cy="199.966" r="162.111" fill="#FF8C00" opacity=".498"/><circle cx="351.152" cy="200.106" r="162.049" fill="#FF8C00" opacity=".502"/><circle cx="351.214" cy="200.245" r="161.986" fill="#FF8C00" opacity=".507"/><circle cx="351.277" cy="200.385" r="161.923" fill="#FF8C00" opacity=".512"/><circle cx="351.339" cy="200.524" r="161.861" fill="#FF8C00" opacity=".517"/><circle cx="351.401" cy="200.663" r="161.798" fill="#FF8C00" opacity=".522"/><circle cx="351.464" cy="200.803" r="161.736" fill="#FF8C00" opacity=".527"/><circle cx="351.526" cy="200.942" r="161.673" fill="#FF8C00" opacity=".532"/><circle cx="351.589" cy="201.082" r="161.61" fill="#FF8C00" opacity=".537"/><circle cx="351.651" cy="201.221" r="161.548" fill="#FF8C00" opacity=".542"/><circle cx="351.713" cy="201.361" r="161.485" fill="#FF8C00" opacity=".547"/><circle cx="351.776" cy="201.5" r="161.422" fill="#FF8C00" opacity=".552"/><circle cx="351.838" cy="201.64" r="161.36" fill="#FF8C00" opacity=".557"/><circle cx="351.901" cy="201.779" r="161.297" fill="#FF8C00" opacity=".562"/><circle cx="351.963" cy="201.919" r="161.235" fill="#FF8C00" opacity=".567"/><circle cx="352.026" cy="202.058" r="161.172" fill="#FF8C00" opacity=".572"/><circle cx="352.088" cy="202.198" r="161.109" fill="#FF8C00" opacity=".577"/><circle cx="352.15" cy="202.337" r="161.047" fill="#FF8C00" opacity=".582"/><circle cx="352.213" cy="202.477" r="160.984" fill="#FF8C00" opacity=".587"/><circle cx="352.275" cy="202.616" r="160.921" fill="#FF8C00" opacity=".592"/><circle cx="352.338" cy="202.756" r="160.859" fill="#FF8C00" opacity=".597"/><circle cx="352.4" cy="202.895" r="160.796" fill="#FF8C00" opacity=".602"/><circle cx="352.462" cy="203.035" r="160.734" fill="#FF8C00" opacity=".607"/><circle cx="352.525" cy="203.174" r="160.671" fill="#FF8C00" opacity=".612"/><circle cx="352.587" cy="203.314" r="160.608" fill="#FF8C00" opacity=".617"/><circle cx="352.65" cy="203.453" r="160.546" fill="#FF8C00" opacity=".622"/><circle cx="352.712" cy="203.593" r="160.483" fill="#FF8C00" opacity=".627"/><circle cx="352.774" cy="203.732" r="160.421" fill="#FF8C00" opacity=".632"/><circle cx="352.837" cy="203.872" r="160.358" fill="#FF8C00" opacity=".637"/><circle cx="352.899" cy="204.011" r="160.295" fill="#FF8C00" opacity=".642"/><circle cx="352.962" cy="204.15" r="160.233" fill="#FF8C00" opacity=".647"/><circle cx="353.024" cy="204.29" r="160.17" fill="#FF8C00" opacity=".652"/><circle cx="353.086" cy="204.429" r="160.107" fill="#FF8C00" opacity=".657"/><circle cx="353.149" cy="204.569" r="160.045" fill="#FF8C00" opacity=".662"/><circle cx="353.211" cy="204.708" r="159.982" fill="#FF8C00" opacity=".667"/><circle cx="353.274" cy="204.848" r="159.92" fill="#FF8C00" opacity=".672"/><circle cx="353.336" cy="204.987" r="159.857" fill="#FF8C00" opacity=".677"/><circle cx="353.398" cy="205.127" r="159.794" fill="#FF8C00" opacity=".682"/><circle cx="353.461" cy="205.266" r="159.732" fill="#FF8C00" opacity=".687"/><circle cx="353.523" cy="205.406" r="159.669" fill="#FF8C00" opacity=".692"/><circle cx="353.586" cy="205.545" r="159.607" fill="#FF8C00" opacity=".697"/><circle cx="353.648" cy="205.685" r="159.544" fill="#FF8C00" opacity=".701"/><circle cx="353.711" cy="205.824" r="159.481" fill="#FF8C00" opacity=".706"/><circle cx="353.773" cy="205.964" r="159.419" fill="#FF8C00" opacity=".711"/><circle cx="353.835" cy="206.103" r="159.356" fill="#FF8C00" opacity=".716"/><circle cx="353.898" cy="206.243" r="159.293" fill="#FF8C00" opacity=".721"/><circle cx="353.96" cy="206.382" r="159.231" fill="#FF8C00" opacity=".726"/><circle cx="354.023" cy="206.522" r="159.168" fill="#FF8C00" opacity=".731"/><circle cx="354.085" cy="206.661" r="159.106" fill="#FF8C00" opacity=".736"/><circle cx="354.147" cy="206.801" r="159.043" fill="#FF8C00" opacity=".741"/><circle cx="354.21" cy="206.94" r="158.98" fill="#FF8C00" opacity=".746"/><circle cx="354.272" cy="207.08" r="158.918" fill="#FF8C00" opacity=".751"/><circle cx="354.335" cy="207.219" r="158.855" fill="#FF8C00" opacity=".756"/><circle cx="354.397" cy="207.359" r="158.792" fill="#FF8C00" opacity=".761"/><circle cx="354.459" cy="207.498" r="158.73" fill="#FF8C00" opacity=".766"/><circle cx="354.522" cy="207.637" r="158.667" fill="#FF8C00" opacity=".771"/><circle cx="354.584" cy="207.777" r="158.605" fill="#FF8C00" opacity=".776"/><circle cx="354.647" cy="207.916" r="158.542" fill="#FF8C00" opacity=".781"/><circle cx="354.709" cy="208.056" r="158.479" fill="#FF8C00" opacity=".786"/><circle cx="354.771" cy="208.195" r="158.417" fill="#FF8C00" opacity=".791"/><circle cx="354.834" cy="208.335" r="158.354" fill="#FF8C00" opacity=".796"/><circle cx="354.896" cy="208.474" r="158.292" fill="#FF8C00" opacity=".801"/><circle cx="354.959" cy="208.614" r="158.229" fill="#FF8C00" opacity=".806"/><circle cx="355.021" cy="208.753" r="158.166" fill="#FF8C00" opacity=".811"/><circle cx="355.083" cy="208.893" r="158.104" fill="#FF8C00" opacity=".816"/><circle cx="355.146" cy="209.032" r="158.041" fill="#FF8C00" opacity=".821"/><circle cx="355.208" cy="209.172" r="157.978" fill="#FF8C00" opacity=".826"/><circle cx="355.271" cy="209.311" r="157.916" fill="#FF8C00" opacity=".831"/><circle cx="355.333" cy="209.451" r="157.853" fill="#FF8C00" opacity=".836"/><circle cx="355.396" cy="209.59" r="157.791" fill="#FF8C00" opacity=".841"/><circle cx="355.458" cy="209.73" r="157.728" fill="#FF8C00" opacity=".846"/><circle cx="355.52" cy="209.869" r="157.665" fill="#FF8C00" opacity=".851"/><circle cx="355.583" cy="210.009" r="157.603" fill="#FF8C00" opacity=".856"/><circle cx="355.645" cy="210.148" r="157.54" fill="#FF8C00" opacity=".861"/><circle cx="355.708" cy="210.288" r="157.478" fill="#FF8C00" opacity=".866"/><circle cx="355.77" cy="210.427" r="157.415" fill="#FF8C00" opacity=".871"/><circle cx="355.832" cy="210.567" r="157.352" fill="#FF8C00" opacity=".876"/><circle cx="355.895" cy="210.706" r="157.29" fill="#FF8C00" opacity=".881"/><circle cx="355.957" cy="210.846" r="157.227" fill="#FF8C00" opacity=".886"/><circle cx="356.02" cy="210.985" r="157.164" fill="#FF8C00" opacity=".891"/><circle cx="356.082" cy="211.124" r="157.102" fill="#FF8C00" opacity=".896"/><circle cx="356.144" cy="211.264" r="157.039" fill="#FF8C00" opacity=".9"/><circle cx="356.207" cy="211.403" r="156.977" fill="#FF8C00" opacity=".905"/><circle cx="356.269" cy="211.543" r="156.914" fill="#FF8C00" opacity=".91"/><circle cx="356.332" cy="211.682" r="156.851" fill="#FF8C00" opacity=".915"/><circle cx="356.394" cy="211.822" r="156.789" fill="#FF8C00" opacity=".92"/><circle cx="356.456" cy="211.961" r="156.726" fill="#FF8C00" opacity=".925"/><circle cx="356.519" cy="212.101" r="156.663" fill="#FF8C00" opacity=".93"/><circle cx="356.581" cy="212.24" r="156.601" fill="#FF8C00" opacity=".935"/><circle cx="356.644" cy="212.38" r="156.538" fill="#FF8C00" opacity=".94"/><circle cx="356.706" cy="212.519" r="156.476" fill="#FF8C00" opacity=".945"/><circle cx="356.768" cy="212.659" r="156.413" fill="#FF8C00" opacity=".95"/><circle cx="356.831" cy="212.798" r="156.35" fill="#FF8C00" opacity=".955"/><circle cx="356.893" cy="212.938" r="156.288" fill="#FF8C00" opacity=".96"/><circle cx="356.956" cy="213.077" r="156.225" fill="#FF8C00" opacity=".965"/><circle cx="357.018" cy="213.217" r="156.163" fill="#FF8C00" opacity=".97"/><circle cx="357.08" cy="213.356" r="156.1" fill="#FF8C00" opacity=".975"/><circle cx="357.143" cy="213.496" r="156.037" fill="#FF8C00" opacity=".98"/><circle cx="357.205" cy="213.635" r="155.975" fill="#FF8C00" opacity=".985"/><circle cx="357.268" cy="213.775" r="155.912" fill="#FF8C00" opacity=".99"/><circle cx="357.33" cy="213.914" r="155.849" fill="#FF8C00" opacity=".995"/><circle cx="357.393" cy="214.054" r="155.787" fill="#FF8C00"/><path fill="#FF8C00" d="M351.788 53.463A171.656 171.656 0 0 0 180.132 225.12h343.312c0-94.803-76.853-171.656-171.656-171.656z"/><path d="M1 0h896v600H1z"/><path fill="#FFF" d="M235.635 221.836l-1.633-1.154L344.116 64.776l.807 1.218 102.568 154.712-1.666 1.105L344.064 68.317zm116.153 172A171.656 171.656 0 0 0 523.444 222.18H180.132c0 94.803 76.853 171.656 171.656 171.656z"/><path fill="url(#a)" d="M698.587 246.36c13.255 0 24 10.746 24 24v213.89c0 13.254-10.745 24-24 24s-24-10.746-24-24V270.36a24 24 0 0 1 24-24z" transform="rotate(-70.222 698.587 377.305)"/><path fill="#000" d="M689.94 598.484a1 1 0 1 1 0-2c112.864 0 204.686-91.821 204.686-204.685a1 1 0 1 1 2 0c0 113.967-92.719 206.685-206.686 206.685z"/><rect width="237.734" height="48" x="126.143" y="338.053" fill="url(#b)" rx="21.654"/><path fill="url(#c)" d="M157.981 443.653H401.85c13.255 0 24 10.746 24 24 0 13.255-10.745 24-24 24H157.981c-13.255 0-24-10.745-24-24 0-13.254 10.745-24 24-24z" transform="rotate(-60 279.915 467.653)"/><path fill="url(#d)" d="M475.569 580.449h97.951v19.321h-97.951z"/><path fill="url(#e)" d="M483.92 580.45h89.6v-24h-65.6a24 24 0 0 0-24 24z"/><path fill="url(#f)" d="M125.929 241.377v-43.728c0-13.254 10.745-24 24-24h150.79c13.256 0 24 10.746 24 24v43.728H125.93z"/><path fill="url(#g)" d="M623.4 223.65v-23.922c0-13.298 10.781-24.079 24.08-24.079h151.943c13.298 0 24.079 10.78 24.079 24.08v23.92H623.4z"/><path fill="#FFF" d="M217.703 324.059h-59.986V198.506h50.621l42.846 42.871v82.056z"/><rect width="72.541" height="18.135" x="94.243" y="262.738" fill="url(#h)" rx="9.068"/><path fill="url(#i)" d="M166.784 235.535a9.094 9.094 0 0 0-9.068-9.068 9.068 9.068 0 1 0 0-18.135H103.31a9.068 9.068 0 0 0 0 18.135 9.068 9.068 0 0 0 0 18.136 9.068 9.068 0 0 0 0 18.135h54.406a9.068 9.068 0 1 0 0-18.135 9.094 9.094 0 0 0 9.068-9.068z"/><path fill="#000" fill-rule="nonzero" d="M714.811 99.87a24.665 24.665 0 0 1 22.182 13.732l.802 1.606 1.683-.625a6.093 6.093 0 1 1 2.106 11.806h-.004a4.642 4.642 0 0 0-.183-.01l-1.8-.06-.247 1.783c-1.718 12.236-12.186 21.336-24.541 21.335-12.356 0-22.822-9.104-24.537-21.34l-.23-1.649-1.663-.073a6.092 6.092 0 1 1 1.99-11.928l1.593.467.753-1.479a24.688 24.688 0 0 1 22.096-13.565zm0-2a26.775 26.775 0 0 0-23.879 14.658 8.091 8.091 0 1 0-2.641 15.845c1.852 13.224 13.164 23.063 26.518 23.064 13.353.001 24.667-9.835 26.522-23.06.088.004.175.014.263.014a8.097 8.097 0 1 0-2.812-15.683 26.779 26.779 0 0 0-23.97-14.837z"/><path fill="#000" d="M780.672 0c-7.565 6.124-3.539 13.962-12.043 23.235-9.684 10.56-13.97 6.63-23.654 17.191-9.683 10.56-5.397 14.49-15.08 25.049-9.682 10.559-16.807 7.96-26.488 18.518-8.647 9.428-12.366 16.299-11.999 27.503.066-.068.137-.129.203-.196a26.709 26.709 0 0 1 30.084-12.52 25.662 25.662 0 0 1 10.39 5.413 26.906 26.906 0 0 1 6.697 8.515 8.064 8.064 0 0 1 10.189 4.26c7.985-7.41 12.329-5.044 21.128-14.64 9.683-10.56 5.396-14.49 15.08-25.049 9.682-10.559 13.968-6.628 23.65-17.187 9.078-9.899 9.246-10.767 13.592-21.809L780.67 0zm-79.796 122.138l-.003 3.998a1.833 1.833 0 1 1-3.668-.003l.003-3.998a1.833 1.833 0 1 1 3.668.003zm16.164 0l-.003 3.998a1.833 1.833 0 1 1-3.668-.003l.003-3.998a1.833 1.833 0 1 1 3.668.003z"/><path fill="url(#j)" d="M573.672 222.404h249.83v24c0 13.255-10.746 24-24 24h-177.83c-26.51 0-48-21.49-48-48z"/><path fill="#000" fill-rule="nonzero" d="M220.76 99.982a23.797 23.797 0 0 1 21.402 13.25l.803 1.606 1.683-.625a5.83 5.83 0 1 1 2.018 11.296h-.004a4.647 4.647 0 0 0-.176-.01l-1.8-.061-.25 1.785c-1.656 11.805-11.757 20.587-23.679 20.586-11.921-.001-22.02-8.784-23.675-20.59l-.23-1.65-1.663-.073a5.83 5.83 0 1 1 1.904-11.413l1.593.467.753-1.48a23.822 23.822 0 0 1 21.32-13.088zm0-2a25.905 25.905 0 0 0-23.104 14.182 7.829 7.829 0 1 0-2.555 15.33c1.792 12.794 12.737 22.313 25.656 22.315 12.92 0 23.866-9.516 25.66-22.31.086.002.17.012.256.012a7.834 7.834 0 1 0-2.721-15.173 25.908 25.908 0 0 0-23.193-14.356z"/><path fill="#000" d="M221.212 43.404h-26.035v68.452c.091-.003.18-.013.272-.013.747 0 1.49.109 2.207.32a25.911 25.911 0 0 1 46.296.175 7.796 7.796 0 0 1 2.72-.495c.092 0 .181.01.272.013v-42.72c0-14.211-11.52-25.732-25.732-25.732zm-8.347 83.534l-.003 3.465a1.59 1.59 0 1 1-3.18-.003l.004-3.465a1.59 1.59 0 1 1 3.18.003zm15.71 0l-.002 3.465a1.59 1.59 0 1 1-3.18-.003l.003-3.465a1.59 1.59 0 1 1 3.18.003z"/><path fill="url(#k)" d="M549.539 316.535c13.255 0 24 10.745 24 24v215.914h-48V340.535c0-13.255 10.745-24 24-24z"/><path fill="url(#l)" d="M150.143 338.82c13.255 0 24 10.745 24 24v193.63h-48V362.82c0-13.255 10.745-24 24-24z"/><path fill="url(#m)" d="M523.588 580.449h97.951v19.321h-97.951z"/><path fill="url(#n)" d="M531.94 580.45h89.599v-24h-65.6a24 24 0 0 0-24 24z"/><path fill="url(#o)" d="M199.989 580.449h97.951v19.321h-97.951z"/><path fill="url(#p)" d="M289.589 580.45h-89.6v-24h65.6c13.255 0 24 10.744 24 24z"/><path fill="url(#q)" d="M688.04 222.23l23.864-23.864 23.864 23.864z"/><path fill="#000" d="M251.184 241.377h-42.846v-42.846z"/><path fill="url(#r)" d="M597.539 316.588c13.255 0 24 10.745 24 24V556.45h-48V340.59c0-13.256 10.745-24 24-24z"/><path fill="#000" d="M429.176 44.926h-85.388a1 1 0 1 1 0-2h85.388a1 1 0 1 1 0 2zm-346.788 0H1a1 1 0 1 1 0-2h81.388a1 1 0 0 1 0 2zm0 22.264H1a1 1 0 1 1 0-2h81.388a1 1 0 0 1 0 2zm0 22.264H1a1 1 0 1 1 0-2h81.388a1 1 0 0 1 0 2zM623.4 44.926H470.185a1 1 0 1 1 0-2H623.4a1 1 0 1 1 0 2z"/><path fill="url(#o)" d="M126.143 580.449h97.951v19.321h-97.951z"/><path fill="url(#s)" d="M215.743 580.45h-89.6v-24h65.6a24 24 0 0 1 24 24z"/><path fill="url(#t)" d="M687.73 222.23h48.348v48.348H687.73z"/><path fill="#FFF" d="M347.145 416.452h99.535v64.683h-99.535z"/><path fill="#FF8C00" d="M400.137 387.637a1 1 0 0 1-.287-1.958 171.998 171.998 0 0 0 87.174-60.704 169.164 169.164 0 0 0 34.42-102.795 1 1 0 1 1 2 0 171.156 171.156 0 0 1-34.825 104 174.018 174.018 0 0 1-88.195 61.415c-.093.027-.19.042-.287.042z"/><path fill="#000" fill-rule="nonzero" d="M449.68 67.19c-11.876 0-21.503-9.629-21.503-21.505s9.628-21.502 21.504-21.502c11.876 0 21.503 9.627 21.503 21.503-.014 11.87-9.634 21.49-21.504 21.503zm0-41.007c-10.771 0-19.503 8.732-19.503 19.503s8.732 19.503 19.503 19.503c10.772 0 19.504-8.731 19.504-19.503-.012-10.766-8.737-19.492-19.504-19.503z"/><path fill="#000" d="M449.68 599.662a1 1 0 0 1-1-1V66.189a1 1 0 1 1 2 0v532.473a1 1 0 0 1-1 1zM555.715 290.07a1 1 0 0 1-.968-.752l-38.351-150.033a1 1 0 1 1 1.937-.496l38.352 150.033a1 1 0 0 1-.97 1.248z"/><path fill="#000" d="M716.756 289.9H556.048l-6-19.322h186.03c0 10.671-8.65 19.322-19.322 19.322z"/><rect width="16.576" height="65.296" x="573.672" y="212.729" fill="url(#u)" rx="8.288"/><rect width="16.576" height="65.296" x="590.248" y="212.729" fill="url(#v)" rx="8.288"/><rect width="16.576" height="65.296" x="606.825" y="212.729" fill="url(#w)" rx="8.288"/><path fill="url(#x)" d="M735.768 175.649l-23.864 23.865-23.864-23.865z"/></g></g></svg>