<?xml version="1.0" encoding="utf-8"?>
<!-- Generator: Adobe Illustrator 19.2.0, SVG Export Plug-In . SVG Version: 6.00 Build 0)  -->
<svg version="1.1" id="Layer_1" xmlns="http://www.w3.org/2000/svg" xmlns:xlink="http://www.w3.org/1999/xlink" x="0px" y="0px"
	 viewBox="0 0 713.5 478.9" style="enable-background:new 0 0 713.5 478.9;" xml:space="preserve">
<style type="text/css">
	.st0{fill:#808080;}
	.st1{fill:url(#SVGID_1_);}
	.st2{fill:url(#SVGID_2_);}
	.st3{fill:url(#SVGID_3_);}
	.st4{fill:url(#SVGID_4_);}
	.st5{fill:url(#SVGID_5_);}
	.st6{fill:url(#SVGID_6_);}
	.st7{fill:url(#SVGID_7_);}
	.st8{fill:url(#SVGID_8_);}
	.st9{fill:url(#SVGID_9_);}
	.st10{fill:url(#SVGID_10_);}
	.st11{fill:url(#SVGID_11_);}
	.st12{fill:url(#SVGID_12_);}
	.st13{fill:url(#SVGID_13_);}
	.st14{fill:url(#SVGID_14_);}
	.st15{fill:url(#SVGID_15_);}
	.st16{fill:url(#SVGID_16_);}
	.st17{fill:url(#SVGID_17_);}
	.st18{fill:url(#SVGID_18_);}
	.st19{fill:url(#SVGID_19_);}
	.st20{fill:url(#SVGID_20_);}
	.st21{fill:url(#SVGID_21_);}
	.st22{fill:url(#SVGID_22_);}
	.st23{fill:url(#SVGID_23_);}
	.st24{fill:url(#SVGID_24_);}
	.st25{fill:url(#SVGID_25_);}
	.st26{fill:url(#SVGID_26_);}
	.st27{fill:url(#SVGID_27_);}
	.st28{fill:url(#SVGID_28_);}
	.st29{fill:url(#SVGID_29_);}
	.st30{fill:url(#SVGID_30_);}
	.st31{fill:url(#SVGID_31_);}
	.st32{fill:url(#SVGID_32_);}
	.st33{fill:url(#SVGID_33_);}
	.st34{fill:url(#SVGID_34_);}
	.st35{fill:url(#SVGID_35_);}
	.st36{fill:url(#SVGID_36_);}
	.st37{fill:url(#SVGID_37_);}
	.st38{fill:url(#SVGID_38_);}
	.st39{fill:url(#SVGID_39_);}
	.st40{fill:url(#SVGID_40_);}
	.st41{fill:url(#SVGID_41_);}
	.st42{fill:url(#SVGID_42_);}
	.st43{fill:url(#SVGID_43_);}
	.st44{fill:url(#SVGID_44_);}
	.st45{fill:url(#SVGID_45_);}
	.st46{fill:url(#SVGID_46_);}
	.st47{fill:url(#SVGID_47_);}
	.st48{fill:url(#SVGID_48_);}
	.st49{fill:url(#SVGID_49_);}
	.st50{fill:url(#SVGID_50_);}
	.st51{fill:url(#SVGID_51_);}
	.st52{fill:url(#SVGID_52_);}
	.st53{fill:url(#SVGID_53_);}
	.st54{fill:url(#SVGID_54_);}
	.st55{fill:url(#SVGID_55_);}
	.st56{fill:url(#SVGID_56_);}
	.st57{fill:url(#SVGID_57_);}
	.st58{fill:url(#SVGID_58_);}
	.st59{fill:url(#SVGID_59_);}
	.st60{fill:url(#SVGID_60_);}
	.st61{fill:url(#SVGID_61_);}
	.st62{fill:url(#SVGID_62_);}
	.st63{fill:url(#SVGID_63_);}
	.st64{fill:url(#SVGID_64_);}
	.st65{fill:url(#SVGID_65_);}
	.st66{fill:url(#SVGID_66_);}
	.st67{fill:url(#SVGID_67_);}
	.st68{fill:url(#SVGID_68_);}
	.st69{fill:url(#SVGID_69_);}
	.st70{fill:url(#SVGID_70_);}
	.st71{fill:url(#SVGID_71_);}
	.st72{fill:url(#SVGID_72_);}
	.st73{fill:url(#SVGID_73_);}
	.st74{fill:url(#SVGID_74_);}
	.st75{fill:url(#SVGID_75_);}
	.st76{fill:url(#SVGID_76_);}
	.st77{fill:url(#SVGID_77_);}
	.st78{fill:url(#SVGID_78_);}
	.st79{fill:url(#SVGID_79_);}
	.st80{fill:url(#SVGID_80_);}
	.st81{fill:url(#SVGID_81_);}
	.st82{fill:url(#SVGID_82_);}
	.st83{fill:url(#SVGID_83_);}
	.st84{fill:url(#SVGID_84_);}
	.st85{fill:url(#SVGID_85_);}
	.st86{fill:url(#SVGID_86_);}
	.st87{fill:url(#SVGID_87_);}
	.st88{fill:url(#SVGID_88_);}
	.st89{fill:url(#SVGID_89_);}
	.st90{fill:url(#SVGID_90_);}
	.st91{fill:url(#SVGID_91_);}
	.st92{fill:url(#SVGID_92_);}
	.st93{fill:url(#SVGID_93_);}
	.st94{fill:url(#SVGID_94_);}
	.st95{fill:url(#SVGID_95_);}
	.st96{fill:url(#SVGID_96_);}
	.st97{fill:url(#SVGID_97_);}
	.st98{fill:url(#SVGID_98_);}
	.st99{fill:url(#SVGID_99_);}
	.st100{fill:url(#SVGID_100_);}
	.st101{fill:url(#SVGID_101_);}
	.st102{fill:url(#SVGID_102_);}
	.st103{fill:url(#SVGID_103_);}
	.st104{fill:url(#SVGID_104_);}
	.st105{fill:url(#SVGID_105_);}
	.st106{fill:url(#SVGID_106_);}
	.st107{fill:url(#SVGID_107_);}
	.st108{fill:url(#SVGID_108_);}
	.st109{fill:url(#SVGID_109_);}
	.st110{fill:url(#SVGID_110_);}
	.st111{fill:url(#SVGID_111_);}
	.st112{fill:url(#SVGID_112_);}
	.st113{fill:url(#SVGID_113_);}
	.st114{fill:url(#SVGID_114_);}
	.st115{fill:url(#SVGID_115_);}
	.st116{fill:url(#SVGID_116_);}
	.st117{fill:url(#SVGID_117_);}
	.st118{fill:url(#SVGID_118_);}
	.st119{fill:url(#SVGID_119_);}
	.st120{fill:url(#SVGID_120_);}
	.st121{fill:url(#SVGID_121_);}
	.st122{fill:url(#SVGID_122_);}
	.st123{fill:url(#SVGID_123_);}
	.st124{fill:url(#SVGID_124_);}
	.st125{fill:url(#SVGID_125_);}
	.st126{fill:url(#SVGID_126_);}
	.st127{fill:url(#SVGID_127_);}
	.st128{fill:url(#SVGID_128_);}
	.st129{fill:url(#SVGID_129_);}
	.st130{fill:url(#SVGID_130_);}
	.st131{fill:url(#SVGID_131_);}
	.st132{fill:url(#SVGID_132_);}
	.st133{fill:url(#SVGID_133_);}
	.st134{fill:url(#SVGID_134_);}
	.st135{fill:url(#SVGID_135_);}
	.st136{fill:url(#SVGID_136_);}
	.st137{fill:url(#SVGID_137_);}
	.st138{fill:url(#SVGID_138_);}
	.st139{fill:url(#SVGID_139_);}
	.st140{fill:url(#SVGID_140_);}
	.st141{fill:url(#SVGID_141_);}
	.st142{fill:url(#SVGID_142_);}
	.st143{fill:url(#SVGID_143_);}
	.st144{fill:url(#SVGID_144_);}
	.st145{fill:url(#SVGID_145_);}
	.st146{fill:url(#SVGID_146_);}
	.st147{fill:url(#SVGID_147_);}
	.st148{fill:url(#SVGID_148_);}
	.st149{fill:url(#SVGID_149_);}
	.st150{fill:url(#SVGID_150_);}
	.st151{fill:url(#SVGID_151_);}
	.st152{fill:url(#SVGID_152_);}
	.st153{fill:url(#SVGID_153_);}
	.st154{fill:url(#SVGID_154_);}
	.st155{fill:url(#SVGID_155_);}
	.st156{fill:url(#SVGID_156_);}
	.st157{fill:url(#SVGID_157_);}
	.st158{fill:url(#SVGID_158_);}
	.st159{fill:url(#SVGID_159_);}
	.st160{fill:url(#SVGID_160_);}
	.st161{fill:url(#SVGID_161_);}
	.st162{fill:url(#SVGID_162_);}
	.st163{fill:url(#SVGID_163_);}
	.st164{fill:url(#SVGID_164_);}
	.st165{fill:url(#SVGID_165_);}
	.st166{fill:url(#SVGID_166_);}
	.st167{fill:url(#SVGID_167_);}
	.st168{fill:url(#SVGID_168_);}
	.st169{fill:url(#SVGID_169_);}
	.st170{fill:url(#SVGID_170_);}
	.st171{fill:url(#SVGID_171_);}
	.st172{fill:url(#SVGID_172_);}
	.st173{fill:url(#SVGID_173_);}
	.st174{fill:url(#SVGID_174_);}
	.st175{fill:url(#SVGID_175_);}
	.st176{fill:url(#SVGID_176_);}
	.st177{fill:url(#SVGID_177_);}
	.st178{fill:url(#SVGID_178_);}
	.st179{fill:url(#SVGID_179_);}
	.st180{fill:url(#SVGID_180_);}
	.st181{fill:url(#SVGID_181_);}
	.st182{fill:url(#SVGID_182_);}
	.st183{fill:url(#SVGID_183_);}
	.st184{fill:url(#SVGID_184_);}
	.st185{fill:url(#SVGID_185_);}
	.st186{fill:url(#SVGID_186_);}
	.st187{fill:url(#SVGID_187_);}
	.st188{fill:url(#SVGID_188_);}
	.st189{fill:url(#SVGID_189_);}
	.st190{fill:url(#SVGID_190_);}
	.st191{fill:url(#SVGID_191_);}
	.st192{fill:url(#SVGID_192_);}
	.st193{fill:url(#SVGID_193_);}
	.st194{fill:url(#SVGID_194_);}
	.st195{fill:url(#SVGID_195_);}
	.st196{fill:url(#SVGID_196_);}
	.st197{fill:url(#SVGID_197_);}
	.st198{fill:url(#SVGID_198_);}
	.st199{fill:url(#SVGID_199_);}
	.st200{fill:url(#SVGID_200_);}
	.st201{fill:url(#SVGID_201_);}
	.st202{fill:url(#SVGID_202_);}
	.st203{fill:url(#SVGID_203_);}
	.st204{fill:url(#SVGID_204_);}
	.st205{fill:url(#SVGID_205_);}
	.st206{fill:url(#SVGID_206_);}
	.st207{fill:url(#SVGID_207_);}
	.st208{fill:url(#SVGID_208_);}
	.st209{fill:url(#SVGID_209_);}
	.st210{fill:url(#SVGID_210_);}
	.st211{fill:url(#SVGID_211_);}
	.st212{fill:url(#SVGID_212_);}
	.st213{fill:url(#SVGID_213_);}
	.st214{fill:url(#SVGID_214_);}
	.st215{fill:url(#SVGID_215_);}
	.st216{fill:url(#SVGID_216_);}
	.st217{fill:url(#SVGID_217_);}
	.st218{fill:url(#SVGID_218_);}
	.st219{fill:url(#SVGID_219_);}
	.st220{fill:url(#SVGID_220_);}
	.st221{fill:url(#SVGID_221_);}
	.st222{fill:url(#SVGID_222_);}
	.st223{fill:url(#SVGID_223_);}
	.st224{fill:url(#SVGID_224_);}
	.st225{fill:url(#SVGID_225_);}
	.st226{fill:url(#SVGID_226_);}
	.st227{fill:url(#SVGID_227_);}
	.st228{fill:url(#SVGID_228_);}
	.st229{fill:none;stroke:#905CFB;stroke-width:0.5;stroke-linecap:round;stroke-miterlimit:10;}
	.st230{fill:none;stroke:#945AF7;stroke-width:0.6346;stroke-linecap:round;stroke-miterlimit:10;}
	.st231{fill:none;stroke:#9959F2;stroke-width:0.7692;stroke-linecap:round;stroke-miterlimit:10;}
	.st232{fill:none;stroke:#9D57EE;stroke-width:0.9038;stroke-linecap:round;stroke-miterlimit:10;}
	.st233{fill:none;stroke:#A155EA;stroke-width:1.0385;stroke-linecap:round;stroke-miterlimit:10;}
	.st234{fill:none;stroke:#A554E6;stroke-width:1.1731;stroke-linecap:round;stroke-miterlimit:10;}
	.st235{fill:none;stroke:#AA52E1;stroke-width:1.3077;stroke-linecap:round;stroke-miterlimit:10;}
	.st236{fill:none;stroke:#AE50DD;stroke-width:1.4423;stroke-linecap:round;stroke-miterlimit:10;}
	.st237{fill:none;stroke:#B24FD9;stroke-width:1.5769;stroke-linecap:round;stroke-miterlimit:10;}
	.st238{fill:none;stroke:#B64DD5;stroke-width:1.7115;stroke-linecap:round;stroke-miterlimit:10;}
	.st239{fill:none;stroke:#BB4BD0;stroke-width:1.8462;stroke-linecap:round;stroke-miterlimit:10;}
	.st240{fill:none;stroke:#BF4ACC;stroke-width:1.9808;stroke-linecap:round;stroke-miterlimit:10;}
	.st241{fill:none;stroke:#C348C8;stroke-width:2.1154;stroke-linecap:round;stroke-miterlimit:10;}
	.st242{fill:none;stroke:#C747C4;stroke-width:2.25;stroke-linecap:round;stroke-miterlimit:10;}
	.st243{fill:none;stroke:#CC45BF;stroke-width:2.3846;stroke-linecap:round;stroke-miterlimit:10;}
	.st244{fill:none;stroke:#D043BB;stroke-width:2.5192;stroke-linecap:round;stroke-miterlimit:10;}
	.st245{fill:none;stroke:#D442B7;stroke-width:2.6538;stroke-linecap:round;stroke-miterlimit:10;}
	.st246{fill:none;stroke:#D940B2;stroke-width:2.7885;stroke-linecap:round;stroke-miterlimit:10;}
	.st247{fill:none;stroke:#DD3EAE;stroke-width:2.9231;stroke-linecap:round;stroke-miterlimit:10;}
	.st248{fill:none;stroke:#E13DAA;stroke-width:3.0577;stroke-linecap:round;stroke-miterlimit:10;}
	.st249{fill:none;stroke:#E53BA6;stroke-width:3.1923;stroke-linecap:round;stroke-miterlimit:10;}
	.st250{fill:none;stroke:#EA39A1;stroke-width:3.3269;stroke-linecap:round;stroke-miterlimit:10;}
	.st251{fill:none;stroke:#EE389D;stroke-width:3.4615;stroke-linecap:round;stroke-miterlimit:10;}
	.st252{fill:none;stroke:#F23699;stroke-width:3.5962;stroke-linecap:round;stroke-miterlimit:10;}
	.st253{fill:none;stroke:#F63495;stroke-width:3.7308;stroke-linecap:round;stroke-miterlimit:10;}
	.st254{fill:none;stroke:#FB3390;stroke-width:3.8654;stroke-linecap:round;stroke-miterlimit:10;}
	.st255{fill:none;stroke:#FF318C;stroke-width:4;stroke-linecap:round;stroke-miterlimit:10;}
	.st256{fill:none;stroke:#945BF7;stroke-width:0.6129;stroke-linecap:round;stroke-miterlimit:10;}
	.st257{fill:none;stroke:#9759F4;stroke-width:0.7258;stroke-linecap:round;stroke-miterlimit:10;}
	.st258{fill:none;stroke:#9B58F0;stroke-width:0.8387;stroke-linecap:round;stroke-miterlimit:10;}
	.st259{fill:none;stroke:#9E56ED;stroke-width:0.9516;stroke-linecap:round;stroke-miterlimit:10;}
	.st260{fill:none;stroke:#A255E9;stroke-width:1.0645;stroke-linecap:round;stroke-miterlimit:10;}
	.st261{fill:none;stroke:#A554E6;stroke-width:1.1774;stroke-linecap:round;stroke-miterlimit:10;}
	.st262{fill:none;stroke:#A952E2;stroke-width:1.2903;stroke-linecap:round;stroke-miterlimit:10;}
	.st263{fill:none;stroke:#AD51DE;stroke-width:1.4032;stroke-linecap:round;stroke-miterlimit:10;}
	.st264{fill:none;stroke:#B050DB;stroke-width:1.5161;stroke-linecap:round;stroke-miterlimit:10;}
	.st265{fill:none;stroke:#B44ED7;stroke-width:1.629;stroke-linecap:round;stroke-miterlimit:10;}
	.st266{fill:none;stroke:#B74DD4;stroke-width:1.7419;stroke-linecap:round;stroke-miterlimit:10;}
	.st267{fill:none;stroke:#BB4BD0;stroke-width:1.8548;stroke-linecap:round;stroke-miterlimit:10;}
	.st268{fill:none;stroke:#BF4ACC;stroke-width:1.9677;stroke-linecap:round;stroke-miterlimit:10;}
	.st269{fill:none;stroke:#C249C9;stroke-width:2.0806;stroke-linecap:round;stroke-miterlimit:10;}
	.st270{fill:none;stroke:#C647C5;stroke-width:2.1935;stroke-linecap:round;stroke-miterlimit:10;}
	.st271{fill:none;stroke:#C946C2;stroke-width:2.3065;stroke-linecap:round;stroke-miterlimit:10;}
	.st272{fill:none;stroke:#CD44BE;stroke-width:2.4194;stroke-linecap:round;stroke-miterlimit:10;}
	.st273{fill:none;stroke:#D043BB;stroke-width:2.5323;stroke-linecap:round;stroke-miterlimit:10;}
	.st274{fill:none;stroke:#D442B7;stroke-width:2.6452;stroke-linecap:round;stroke-miterlimit:10;}
	.st275{fill:none;stroke:#D840B3;stroke-width:2.7581;stroke-linecap:round;stroke-miterlimit:10;}
	.st276{fill:none;stroke:#DB3FB0;stroke-width:2.871;stroke-linecap:round;stroke-miterlimit:10;}
	.st277{fill:none;stroke:#DF3DAC;stroke-width:2.9839;stroke-linecap:round;stroke-miterlimit:10;}
	.st278{fill:none;stroke:#E23CA9;stroke-width:3.0968;stroke-linecap:round;stroke-miterlimit:10;}
	.st279{fill:none;stroke:#E63BA5;stroke-width:3.2097;stroke-linecap:round;stroke-miterlimit:10;}
	.st280{fill:none;stroke:#EA39A1;stroke-width:3.3226;stroke-linecap:round;stroke-miterlimit:10;}
	.st281{fill:none;stroke:#ED389E;stroke-width:3.4355;stroke-linecap:round;stroke-miterlimit:10;}
	.st282{fill:none;stroke:#F1379A;stroke-width:3.5484;stroke-linecap:round;stroke-miterlimit:10;}
	.st283{fill:none;stroke:#F43597;stroke-width:3.6613;stroke-linecap:round;stroke-miterlimit:10;}
	.st284{fill:none;stroke:#F83493;stroke-width:3.7742;stroke-linecap:round;stroke-miterlimit:10;}
	.st285{fill:none;stroke:#FB3290;stroke-width:3.8871;stroke-linecap:round;stroke-miterlimit:10;}
	.st286{fill:#161616;}
	.st287{fill:#E6E6E6;}
	.st288{fill:url(#SVGID_229_);}
	.st289{fill:url(#SVGID_230_);}
	.st290{fill:url(#SVGID_231_);}
	.st291{fill:url(#SVGID_232_);}
	.st292{fill:url(#SVGID_233_);}
	.st293{fill:url(#SVGID_234_);}
	.st294{fill:url(#SVGID_235_);}
	.st295{fill:url(#SVGID_236_);}
	.st296{fill:url(#SVGID_237_);}
	.st297{fill:url(#SVGID_238_);}
	.st298{fill:#FFFFFF;}
	.st299{fill:url(#SVGID_239_);}
	.st300{fill:url(#SVGID_240_);}
	.st301{fill:url(#SVGID_241_);}
	.st302{fill:url(#SVGID_242_);}
	.st303{fill:url(#SVGID_243_);}
	.st304{fill:url(#SVGID_244_);}
	.st305{fill:url(#SVGID_245_);}
	.st306{fill:url(#SVGID_246_);}
	.st307{fill:url(#SVGID_247_);}
	.st308{fill:url(#SVGID_248_);}
	.st309{fill:#FF318C;}
	.st310{fill:#AE51DD;}
	.st311{fill:#5D7DF7;}
	.st312{fill:#0CB0F2;}
	.st313{fill:#19A8F3;}
</style>
<g>
	<g>
		<path class="st0" d="M293.6,44.8h-15.2l9.9-26.4c0.3-0.8-0.1-1.6-0.9-1.9c-0.8-0.3-1.6,0.1-1.9,0.9l-10.3,27.4h-3.4
			c-0.4-4.9-4.6-8.8-9.6-8.8h-13.5l-8.3-10.1c-2.4-3-6.3-4.2-9.8-3.2c-2.3,0.7-4,2.2-4.9,4.3l-12.6,32c-0.9,2.6-0.9,4.5-0.9,4.6
			c0,6.8,5.5,12.3,12.3,12.3h29.2v26.9c0,6.9,4.5,11.4,11.4,11.4h1.5V69.4c0-3.6-2.3-6.8-5.8-7.8c-0.6-0.2-14.5-2.5-23.9-4.1l4.2-11
			l2.3,1.3h0.2c0.1,0,0.2,0,0.2,0h49.7c0.8,0,1.5-0.7,1.5-1.5S294.5,44.8,293.6,44.8z M262.6,44.8c-0.1,0-0.2,0-0.2,0h-18.1
			l-2.6-1.5c-0.2-0.2-0.4-0.4-0.7-0.5c-0.1,0-0.2-0.1-0.4-0.1l-3.6-2c-0.7-0.4-1.6-0.2-2,0.6c-0.4,0.7-0.2,1.6,0.6,2l3,1.7
			l-5.7,14.9l1.8,0.3c9.7,1.6,24.5,4.1,25.3,4.3c2.2,0.7,3.7,2.7,3.7,5V111c-4.3-0.6-6.9-3.6-6.9-8.3V72.9h-32.2
			c-5.1,0-9.3-4.2-9.3-9.3c0,0,0-1.5,0.7-3.6l12.6-31.9c0.5-1.3,1.5-2.1,2.9-2.5c0.5-0.2,1.1-0.2,1.6-0.2c1.9,0,3.7,0.9,5,2.4
			l9.2,11.2h14.9c3.4,0,6.2,2.6,6.6,5.8H262.6z"/>
		<path class="st0" d="M204.9,46.9v27c0,5.9,4.8,10.7,10.7,10.7h15.6c0,0.1,0,0.2,0,0.2v20.6H222c-4.1,0-7.4,3.5-7.4,7.8
			c0,0.8,0.7,1.5,1.5,1.5s1.5-0.7,1.5-1.5c0-2.7,2-4.8,4.4-4.8h21.9c2.4,0,4.4,2.2,4.4,4.8c0,0.8,0.7,1.5,1.5,1.5s1.5-0.7,1.5-1.5
			c0-4.3-3.3-7.8-7.4-7.8h-9.7V84.8c0-0.1,0-0.2,0-0.2h15c0.8,0,1.5-0.7,1.5-1.5s-0.7-1.5-1.5-1.5h-33.6c-4.2,0-7.7-3.4-7.7-7.7
			V47.2c3-0.4,5.3-3,5.3-6.2V28.3c0-3.4-2.8-6.2-6.2-6.2s-6.2,2.8-6.2,6.2V41C200.8,43.7,202.5,46,204.9,46.9z M203.8,28.3
			c0-1.8,1.5-3.2,3.2-3.2s3.2,1.5,3.2,3.2V41c0,1.8-1.5,3.2-3.2,3.2s-3.2-1.5-3.2-3.2V28.3z"/>
		<path class="st0" d="M244.6,23.3c6.2,0,9.3-4.3,9.3-12.8c0-5.8-4.7-10.5-10.5-10.5c-5.8,0-10.5,4.7-10.5,10.5
			C232.9,14.3,236.9,23.3,244.6,23.3z M243.4,3c4.1,0,7.5,3.4,7.5,7.5c0,8.7-3.4,9.8-6.3,9.8c-5.7,0-8.6-7.3-8.6-9.8
			C235.9,6.4,239.3,3,243.4,3z"/>
		<path class="st0" d="M499.7,44.8h-15.2l9.9-26.4c0.3-0.8-0.1-1.6-0.9-1.9c-0.8-0.3-1.6,0.1-1.9,0.9l-10.3,27.4h-3.4
			c-0.4-4.9-4.6-8.8-9.6-8.8h-13.5l-8.3-10.1c-2.4-3-6.3-4.2-9.8-3.2c-2.3,0.7-4,2.2-4.9,4.3l-12.6,32c-0.9,2.6-0.9,4.5-0.9,4.6
			c0,6.8,5.5,12.3,12.3,12.3h29.2v26.9c0,6.9,4.5,11.4,11.4,11.4h1.5V69.4c0-3.6-2.3-6.8-5.8-7.8c-0.6-0.2-14.5-2.5-23.9-4.1l4.2-11
			l2.3,1.3h0.2c0.1,0,0.2,0,0.2,0h49.7c0.8,0,1.5-0.7,1.5-1.5S500.5,44.8,499.7,44.8z M468.6,44.8c-0.1,0-0.2,0-0.2,0h-18.1
			l-2.6-1.5c-0.2-0.2-0.4-0.4-0.7-0.5c-0.1,0-0.2-0.1-0.4-0.1l-3.6-2c-0.7-0.4-1.6-0.2-2,0.6c-0.4,0.7-0.2,1.6,0.6,2l3,1.7
			l-5.7,14.9l1.8,0.3c9.7,1.6,24.5,4.1,25.3,4.3c2.2,0.7,3.7,2.7,3.7,5V111c-4.3-0.6-6.9-3.6-6.9-8.3V72.9h-32.2
			c-5.1,0-9.3-4.2-9.3-9.3c0,0,0-1.5,0.7-3.6l12.6-31.9c0.5-1.3,1.5-2.1,2.9-2.5c0.5-0.2,1.1-0.2,1.6-0.2c1.9,0,3.7,0.9,5,2.4
			l9.2,11.2h14.9c3.4,0,6.2,2.6,6.6,5.8H468.6z"/>
		<path class="st0" d="M450.6,23.3c6.2,0,9.3-4.3,9.3-12.8c0-5.8-4.7-10.5-10.5-10.5C443.7,0,439,4.7,439,10.5
			C439,14.3,442.9,23.3,450.6,23.3z M449.5,3c4.1,0,7.5,3.4,7.5,7.5c0,8.7-3.4,9.8-6.3,9.8c-5.7,0-8.6-7.3-8.6-9.8
			C442,6.4,445.3,3,449.5,3z"/>
		<path class="st0" d="M410.9,46.9v27c0,5.9,4.8,10.7,10.7,10.7h15.6c0,0.1,0,0.2,0,0.2v20.6h-9.1c-4.1,0-7.4,3.5-7.4,7.8
			c0,0.8,0.7,1.5,1.5,1.5s1.5-0.7,1.5-1.5c0-2.7,2-4.8,4.4-4.8h21.9c2.4,0,4.4,2.2,4.4,4.8c0,0.8,0.7,1.5,1.5,1.5s1.5-0.7,1.5-1.5
			c0-4.3-3.3-7.8-7.4-7.8h-9.7V84.8c0-0.1,0-0.2,0-0.2h15c0.8,0,1.5-0.7,1.5-1.5s-0.7-1.5-1.5-1.5h-33.6c-4.2,0-7.7-3.4-7.7-7.7
			V47.2c3-0.4,5.3-3,5.3-6.2V28.3c0-3.4-2.8-6.2-6.2-6.2s-6.2,2.8-6.2,6.2V41C406.8,43.7,408.5,46,410.9,46.9z M409.8,28.3
			c0-1.8,1.5-3.2,3.2-3.2s3.2,1.5,3.2,3.2V41c0,1.8-1.5,3.2-3.2,3.2s-3.2-1.5-3.2-3.2V28.3z"/>
		<path class="st0" d="M624.3,63.6c0,6.8,5.5,12.3,12.3,12.3h29.2v26.9c0,6.9,4.5,11.4,11.4,11.4h1.5V69.4c0-3.6-2.3-6.8-5.8-7.8
			c-0.6-0.2-14.5-2.5-23.9-4.1l4.2-11l2.3,1.3h0.2c0.1,0,0.2,0,0.2,0h49.7c0.8,0,1.5-0.7,1.5-1.5s-0.7-1.5-1.5-1.5h-15.2l9.9-26.4
			c0.3-0.8-0.1-1.6-0.9-1.9c-0.8-0.3-1.6,0.1-1.9,0.9l-10.3,27.4h-3.4c-0.4-4.9-4.6-8.8-9.6-8.8h-13.5l-8.3-10.1
			c-2.4-3-6.3-4.2-9.8-3.2c-2.3,0.7-4,2.2-4.9,4.3l-12.6,32C624.4,61.6,624.3,63.5,624.3,63.6z M628,60l12.6-31.9
			c0.5-1.3,1.5-2.1,2.9-2.5c0.5-0.2,1.1-0.2,1.6-0.2c1.9,0,3.7,0.9,5,2.4l9.2,11.2h14.9c3.4,0,6.2,2.6,6.6,5.8h-6.3
			c-0.1,0-0.2,0-0.2,0h-18.1l-2.6-1.5c-0.2-0.2-0.4-0.4-0.7-0.5c-0.1,0-0.2-0.1-0.4-0.1l-3.6-2c-0.7-0.4-1.6-0.2-2,0.6
			c-0.4,0.7-0.2,1.6,0.6,2l3,1.7l-5.7,14.9l1.8,0.3c9.7,1.6,24.5,4.1,25.3,4.3c2.2,0.7,3.7,2.7,3.7,5V111c-4.3-0.6-6.9-3.6-6.9-8.3
			V72.9h-32.2c-5.1,0-9.3-4.2-9.3-9.3C627.3,63.6,627.4,62.1,628,60z"/>
		<path class="st0" d="M617,46.9v27c0,5.9,4.8,10.7,10.7,10.7h15.6c0,0.1,0,0.2,0,0.2v20.6h-9.1c-4.1,0-7.4,3.5-7.4,7.8
			c0,0.8,0.7,1.5,1.5,1.5s1.5-0.7,1.5-1.5c0-2.7,2-4.8,4.4-4.8h21.9c2.4,0,4.4,2.2,4.4,4.8c0,0.8,0.7,1.5,1.5,1.5s1.5-0.7,1.5-1.5
			c0-4.3-3.3-7.8-7.4-7.8h-9.7V84.8c0-0.1,0-0.2,0-0.2h15c0.8,0,1.5-0.7,1.5-1.5s-0.7-1.5-1.5-1.5h-33.6c-4.2,0-7.7-3.4-7.7-7.7
			V47.2c3-0.4,5.3-3,5.3-6.2V28.3c0-3.4-2.8-6.2-6.2-6.2s-6.3,2.8-6.3,6.2V41C612.8,43.7,614.6,46,617,46.9z M615.8,28.3
			c0-1.8,1.5-3.2,3.3-3.2c1.8,0,3.2,1.5,3.2,3.2V41c0,1.8-1.5,3.2-3.2,3.2c-1.8,0-3.3-1.5-3.3-3.2V28.3z"/>
		<path class="st0" d="M656.6,23.3c6.2,0,9.3-4.3,9.3-12.8C666,4.7,661.3,0,655.5,0C649.7,0,645,4.7,645,10.5
			C645,14.3,649,23.3,656.6,23.3z M655.5,3c4.1,0,7.5,3.4,7.5,7.5c0,8.7-3.4,9.8-6.3,9.8c-5.7,0-8.6-7.3-8.6-9.8
			C648,6.4,651.4,3,655.5,3z"/>
		<path class="st0" d="M232.9,192.2c0,3.8,4,12.8,11.6,12.8c6.2,0,9.3-4.3,9.3-12.8c0-5.8-4.7-10.5-10.5-10.5
			C237.6,181.7,232.9,186.4,232.9,192.2z M250.9,192.2c0,8.7-3.4,9.8-6.3,9.8c-5.7,0-8.6-7.3-8.6-9.8c0-4.1,3.4-7.5,7.5-7.5
			S250.9,188.1,250.9,192.2z"/>
		<path class="st0" d="M204.9,228.6v27c0,5.9,4.8,10.7,10.7,10.7h15.6c0,0.1,0,0.2,0,0.2v20.6H222c-4.1,0-7.4,3.5-7.4,7.8
			c0,0.8,0.7,1.5,1.5,1.5s1.5-0.7,1.5-1.5c0-2.7,2-4.8,4.4-4.8h21.9c2.4,0,4.4,2.2,4.4,4.8c0,0.8,0.7,1.5,1.5,1.5s1.5-0.7,1.5-1.5
			c0-4.3-3.3-7.8-7.4-7.8h-9.7v-20.6c0-0.1,0-0.2,0-0.2h15c0.8,0,1.5-0.7,1.5-1.5s-0.7-1.5-1.5-1.5h-33.6c-4.2,0-7.7-3.4-7.7-7.7
			v-26.7c3-0.4,5.3-3,5.3-6.2V210c0-3.4-2.8-6.2-6.2-6.2s-6.2,2.8-6.2,6.2v12.7C200.8,225.4,202.5,227.7,204.9,228.6z M203.8,210
			c0-1.8,1.5-3.2,3.2-3.2s3.2,1.5,3.2,3.2v12.7c0,1.8-1.5,3.2-3.2,3.2s-3.2-1.5-3.2-3.2V210z"/>
		<path class="st0" d="M293.6,226.5h-15.2l9.9-26.4c0.3-0.8-0.1-1.6-0.9-1.9c-0.8-0.3-1.6,0.1-1.9,0.9l-10.3,27.4h-3.4
			c-0.4-4.9-4.6-8.8-9.6-8.8h-13.5l-8.3-10.1c-2.4-3-6.3-4.2-9.8-3.2c-2.3,0.7-4,2.2-4.9,4.3l-12.6,32c-0.9,2.6-0.9,4.5-0.9,4.6
			c0,6.8,5.5,12.3,12.3,12.3h29.2v26.9c0,6.9,4.5,11.4,11.4,11.4h1.5v-44.7c0-3.6-2.3-6.8-5.8-7.8c-0.6-0.2-14.5-2.5-23.9-4.1
			l4.2-11l2.3,1.3h0.2c0.1,0,0.2,0,0.2,0h49.7c0.8,0,1.5-0.7,1.5-1.5S294.5,226.5,293.6,226.5z M262.6,226.5c-0.1,0-0.2,0-0.2,0
			h-18.1l-2.6-1.5c-0.2-0.2-0.4-0.4-0.7-0.5c-0.1,0-0.2-0.1-0.4-0.1l-3.6-2c-0.7-0.4-1.6-0.2-2,0.6c-0.4,0.7-0.2,1.6,0.6,2l3,1.7
			l-5.7,14.9l1.8,0.3c9.7,1.6,24.5,4.1,25.3,4.3c2.2,0.7,3.7,2.7,3.7,5v41.6c-4.3-0.6-6.9-3.6-6.9-8.3v-29.9h-32.2
			c-5.1,0-9.3-4.2-9.3-9.3c0,0,0-1.5,0.7-3.6l12.6-31.9c0.5-1.3,1.5-2.1,2.9-2.5c0.5-0.2,1.1-0.2,1.6-0.2c1.9,0,3.7,0.9,5,2.4
			l9.2,11.2h14.9c3.4,0,6.2,2.6,6.6,5.8H262.6z"/>
		<path class="st0" d="M410.9,228.6v27c0,5.9,4.8,10.7,10.7,10.7h15.6c0,0.1,0,0.2,0,0.2v20.6h-9.1c-4.1,0-7.4,3.5-7.4,7.8
			c0,0.8,0.7,1.5,1.5,1.5s1.5-0.7,1.5-1.5c0-2.7,2-4.8,4.4-4.8h21.9c2.4,0,4.4,2.2,4.4,4.8c0,0.8,0.7,1.5,1.5,1.5s1.5-0.7,1.5-1.5
			c0-4.3-3.3-7.8-7.4-7.8h-9.7v-20.6c0-0.1,0-0.2,0-0.2h15c0.8,0,1.5-0.7,1.5-1.5s-0.7-1.5-1.5-1.5h-33.6c-4.2,0-7.7-3.4-7.7-7.7
			v-26.7c3-0.4,5.3-3,5.3-6.2V210c0-3.4-2.8-6.2-6.2-6.2s-6.2,2.8-6.2,6.2v12.7C406.8,225.4,408.5,227.7,410.9,228.6z M409.8,210
			c0-1.8,1.5-3.2,3.2-3.2s3.2,1.5,3.2,3.2v12.7c0,1.8-1.5,3.2-3.2,3.2s-3.2-1.5-3.2-3.2V210z"/>
		<path class="st0" d="M499.7,226.5h-15.2l9.9-26.4c0.3-0.8-0.1-1.6-0.9-1.9c-0.8-0.3-1.6,0.1-1.9,0.9l-10.3,27.4h-3.4
			c-0.4-4.9-4.6-8.8-9.6-8.8h-13.5l-8.3-10.1c-2.4-3-6.3-4.2-9.8-3.2c-2.3,0.7-4,2.2-4.9,4.3l-12.6,32c-0.9,2.6-0.9,4.5-0.9,4.6
			c0,6.8,5.5,12.3,12.3,12.3h29.2v26.9c0,6.9,4.5,11.4,11.4,11.4h1.5v-44.7c0-3.6-2.3-6.8-5.8-7.8c-0.6-0.2-14.5-2.5-23.9-4.1
			l4.2-11l2.3,1.3h0.2c0.1,0,0.2,0,0.2,0h49.7c0.8,0,1.5-0.7,1.5-1.5S500.5,226.5,499.7,226.5z M468.6,226.5c-0.1,0-0.2,0-0.2,0
			h-18.1l-2.6-1.5c-0.2-0.2-0.4-0.4-0.7-0.5c-0.1,0-0.2-0.1-0.4-0.1l-3.6-2c-0.7-0.4-1.6-0.2-2,0.6c-0.4,0.7-0.2,1.6,0.6,2l3,1.7
			l-5.7,14.9l1.8,0.3c9.7,1.6,24.5,4.1,25.3,4.3c2.2,0.7,3.7,2.7,3.7,5v41.6c-4.3-0.6-6.9-3.6-6.9-8.3v-29.9h-32.2
			c-5.1,0-9.3-4.2-9.3-9.3c0,0,0-1.5,0.7-3.6l12.6-31.9c0.5-1.3,1.5-2.1,2.9-2.5c0.5-0.2,1.1-0.2,1.6-0.2c1.9,0,3.7,0.9,5,2.4
			l9.2,11.2h14.9c3.4,0,6.2,2.6,6.6,5.8H468.6z"/>
		<path class="st0" d="M439,192.2c0,3.8,4,12.8,11.6,12.8c6.2,0,9.3-4.3,9.3-12.8c0-5.8-4.7-10.5-10.5-10.5
			C443.7,181.7,439,186.4,439,192.2z M456.9,192.2c0,8.7-3.4,9.8-6.3,9.8c-5.7,0-8.6-7.3-8.6-9.8c0-4.1,3.4-7.5,7.5-7.5
			S456.9,188.1,456.9,192.2z"/>
		<path class="st0" d="M655.5,181.7c-5.8,0-10.5,4.7-10.5,10.5c0,3.8,4,12.8,11.6,12.8c6.2,0,9.3-4.3,9.3-12.8
			C666,186.4,661.3,181.7,655.5,181.7z M656.6,202c-5.7,0-8.6-7.3-8.6-9.8c0-4.1,3.4-7.5,7.5-7.5s7.5,3.4,7.5,7.5
			C663,200.9,659.6,202,656.6,202z"/>
		<path class="st0" d="M655.9,287.1h-9.7v-20.6c0-0.1,0-0.2,0-0.2h15c0.8,0,1.5-0.7,1.5-1.5s-0.7-1.5-1.5-1.5h-33.6
			c-4.2,0-7.7-3.4-7.7-7.7v-26.7c3-0.4,5.3-3,5.3-6.2V210c0-3.4-2.8-6.2-6.2-6.2s-6.3,2.8-6.3,6.2v12.7c0,2.7,1.7,5,4.2,5.9v27
			c0,5.9,4.8,10.7,10.7,10.7h15.6c0,0.1,0,0.2,0,0.2v20.6h-9.1c-4.1,0-7.4,3.5-7.4,7.8c0,0.8,0.7,1.5,1.5,1.5s1.5-0.7,1.5-1.5
			c0-2.7,2-4.8,4.4-4.8h21.9c2.4,0,4.4,2.2,4.4,4.8c0,0.8,0.7,1.5,1.5,1.5s1.5-0.7,1.5-1.5C663.3,290.6,660,287.1,655.9,287.1z
			 M615.8,222.7V210c0-1.8,1.5-3.2,3.3-3.2c1.8,0,3.2,1.5,3.2,3.2v12.7c0,1.8-1.5,3.2-3.2,3.2C617.3,226,615.8,224.5,615.8,222.7z"
			/>
		<path class="st0" d="M705.7,226.5h-15.2l9.9-26.4c0.3-0.8-0.1-1.6-0.9-1.9c-0.8-0.3-1.6,0.1-1.9,0.9l-10.3,27.4h-3.4
			c-0.4-4.9-4.6-8.8-9.6-8.8h-13.5l-8.3-10.1c-2.4-3-6.3-4.2-9.8-3.2c-2.3,0.7-4,2.2-4.9,4.3l-12.6,32c-0.9,2.6-0.9,4.5-0.9,4.6
			c0,6.8,5.5,12.3,12.3,12.3h29.2v26.9c0,6.9,4.5,11.4,11.4,11.4h1.5v-44.7c0-3.6-2.3-6.8-5.8-7.8c-0.6-0.2-14.5-2.5-23.9-4.1
			l4.2-11l2.3,1.3h0.2c0.1,0,0.2,0,0.2,0h49.7c0.8,0,1.5-0.7,1.5-1.5S706.5,226.5,705.7,226.5z M674.6,226.5c-0.1,0-0.2,0-0.2,0
			h-18.1l-2.6-1.5c-0.2-0.2-0.4-0.4-0.7-0.5c-0.1,0-0.2-0.1-0.4-0.1l-3.6-2c-0.7-0.4-1.6-0.2-2,0.6c-0.4,0.7-0.2,1.6,0.6,2l3,1.7
			l-5.7,14.9l1.8,0.3c9.7,1.6,24.5,4.1,25.3,4.3c2.2,0.7,3.7,2.7,3.7,5v41.6c-4.3-0.6-6.9-3.6-6.9-8.3v-29.9h-32.2
			c-5.1,0-9.3-4.2-9.3-9.3c0,0,0-1.5,0.7-3.6l12.6-31.9c0.5-1.3,1.5-2.1,2.9-2.5c0.5-0.2,1.1-0.2,1.6-0.2c1.9,0,3.7,0.9,5,2.4
			l9.2,11.2h14.9c3.4,0,6.2,2.6,6.6,5.8H674.6z"/>
		<path class="st0" d="M243.9,468.8h-9.7v-20.6c0-0.1,0-0.2,0-0.2h15c0.8,0,1.5-0.7,1.5-1.5s-0.7-1.5-1.5-1.5h-33.6
			c-4.2,0-7.7-3.4-7.7-7.7v-26.7c3-0.4,5.3-3,5.3-6.2v-12.7c0-3.4-2.8-6.2-6.2-6.2s-6.2,2.8-6.2,6.2v12.7c0,2.7,1.7,5,4.2,5.9v27
			c0,5.9,4.8,10.7,10.7,10.7h15.6c0,0.1,0,0.2,0,0.2v20.6H222c-4.1,0-7.4,3.5-7.4,7.8c0,0.8,0.7,1.5,1.5,1.5s1.5-0.7,1.5-1.5
			c0-2.7,2-4.8,4.4-4.8h21.9c2.4,0,4.4,2.2,4.4,4.8c0,0.8,0.7,1.5,1.5,1.5s1.5-0.7,1.5-1.5C251.3,472.3,248,468.8,243.9,468.8z
			 M203.8,404.4v-12.7c0-1.8,1.5-3.2,3.2-3.2s3.2,1.5,3.2,3.2v12.7c0,1.8-1.5,3.2-3.2,3.2S203.8,406.2,203.8,404.4z"/>
		<path class="st0" d="M293.6,408.2h-15.2l9.9-26.4c0.3-0.8-0.1-1.6-0.9-1.9c-0.8-0.3-1.6,0.1-1.9,0.9l-10.3,27.4h-3.4
			c-0.4-4.9-4.6-8.8-9.6-8.8h-13.5l-8.3-10.1c-2.4-3-6.3-4.2-9.8-3.2c-2.3,0.7-4,2.2-4.9,4.3l-12.6,32c-0.9,2.6-0.9,4.5-0.9,4.6
			c0,6.8,5.5,12.3,12.3,12.3h29.2v26.9c0,6.9,4.5,11.4,11.4,11.4h1.5v-44.7c0-3.6-2.3-6.8-5.8-7.8c-0.6-0.2-14.5-2.5-23.9-4.1
			l4.2-11l2.3,1.3h0.2c0.1,0,0.2,0,0.2,0h49.7c0.8,0,1.5-0.7,1.5-1.5S294.5,408.2,293.6,408.2z M262.6,408.2c-0.1,0-0.2,0-0.2,0
			h-18.1l-2.6-1.5c-0.2-0.2-0.4-0.4-0.7-0.5c-0.1,0-0.2-0.1-0.4-0.1l-3.6-2c-0.7-0.4-1.6-0.2-2,0.6c-0.4,0.7-0.2,1.6,0.6,2l3,1.7
			l-5.7,14.9l1.8,0.3c9.7,1.6,24.5,4.1,25.3,4.3c2.2,0.7,3.7,2.7,3.7,5v41.6c-4.3-0.6-6.9-3.6-6.9-8.3v-29.9h-32.2
			c-5.1,0-9.3-4.2-9.3-9.3c0,0,0-1.5,0.7-3.6l12.6-31.9c0.5-1.3,1.5-2.1,2.9-2.5c0.5-0.2,1.1-0.2,1.6-0.2c1.9,0,3.7,0.9,5,2.4
			l9.2,11.2h14.9c3.4,0,6.2,2.6,6.6,5.8H262.6z"/>
		<path class="st0" d="M232.9,373.9c0,3.8,4,12.8,11.6,12.8c6.2,0,9.3-4.3,9.3-12.8c0-5.8-4.7-10.5-10.5-10.5
			C237.6,363.4,232.9,368.1,232.9,373.9z M250.9,373.9c0,8.7-3.4,9.8-6.3,9.8c-5.7,0-8.6-7.3-8.6-9.8c0-4.1,3.4-7.5,7.5-7.5
			S250.9,369.7,250.9,373.9z"/>
		<path class="st0" d="M43.8,23.3c6.2,0,9.3-4.3,9.3-12.8C53.2,4.7,48.4,0,42.7,0S32.2,4.7,32.2,10.5C32.2,14.3,36.1,23.3,43.8,23.3
			z M42.7,3c4.1,0,7.5,3.4,7.5,7.5c0,8.7-3.4,9.8-6.3,9.8c-5.7,0-8.6-7.3-8.6-9.8C35.2,6.4,38.5,3,42.7,3z"/>
		<path class="st0" d="M92.9,44.8H77.7l9.9-26.4c0.3-0.8-0.1-1.6-0.9-1.9c-0.8-0.3-1.6,0.1-1.9,0.9L74.5,44.8h-3.4
			c-0.4-4.9-4.6-8.8-9.6-8.8H48l-8.3-10.1c-2.4-3-6.3-4.2-9.8-3.2c-2.3,0.7-4,2.2-4.9,4.3L12.4,59c-0.9,2.6-0.9,4.5-0.9,4.6
			c0,6.8,5.5,12.3,12.3,12.3H53v26.9c0,6.9,4.5,11.4,11.4,11.4h1.5V69.4c0-3.6-2.3-6.8-5.8-7.8c-0.6-0.2-14.5-2.5-23.9-4.1l4.2-11
			l2.3,1.3h0.2c0.1,0,0.2,0,0.2,0h49.7c0.8,0,1.5-0.7,1.5-1.5S93.7,44.8,92.9,44.8z M61.8,44.8c-0.1,0-0.2,0-0.2,0H43.5l-2.6-1.5
			c-0.2-0.2-0.4-0.4-0.7-0.5c-0.1,0-0.2-0.1-0.4-0.1l-3.6-2c-0.7-0.4-1.6-0.2-2,0.6c-0.4,0.7-0.2,1.6,0.6,2l3,1.7l-5.7,14.9l1.8,0.3
			c9.7,1.6,24.5,4.1,25.3,4.3c2.2,0.7,3.7,2.7,3.7,5V111c-4.3-0.6-6.9-3.6-6.9-8.3V72.9H23.8c-5.1,0-9.3-4.2-9.3-9.3
			c0,0,0-1.5,0.7-3.6l12.6-31.9c0.5-1.3,1.5-2.1,2.9-2.5c0.5-0.2,1.1-0.2,1.6-0.2c1.9,0,3.7,0.9,5,2.4L46.6,39h14.9
			c3.4,0,6.2,2.6,6.6,5.8H61.8z"/>
		<path class="st0" d="M4.2,46.9v27c0,5.9,4.8,10.7,10.7,10.7h15.6c0,0.1,0,0.2,0,0.2v20.6h-9.1c-4.1,0-7.4,3.5-7.4,7.8
			c0,0.8,0.7,1.5,1.5,1.5s1.5-0.7,1.5-1.5c0-2.7,2-4.8,4.4-4.8h21.9c2.4,0,4.4,2.2,4.4,4.8c0,0.8,0.7,1.5,1.5,1.5s1.5-0.7,1.5-1.5
			c0-4.3-3.3-7.8-7.4-7.8h-9.7V84.8c0-0.1,0-0.2,0-0.2h15c0.8,0,1.5-0.7,1.5-1.5s-0.7-1.5-1.5-1.5H14.8c-4.2,0-7.7-3.4-7.7-7.7V47.2
			c3-0.4,5.3-3,5.3-6.2V28.3c0-3.4-2.8-6.2-6.2-6.2S0,24.9,0,28.3V41C0,43.7,1.7,46,4.2,46.9z M3,28.3c0-1.8,1.5-3.2,3.2-3.2
			s3.2,1.5,3.2,3.2V41c0,1.8-1.5,3.2-3.2,3.2S3,42.8,3,41V28.3z"/>
		<path class="st0" d="M4.2,228.6v27c0,5.9,4.8,10.7,10.7,10.7h15.6c0,0.1,0,0.2,0,0.2v20.6h-9.1c-4.1,0-7.4,3.5-7.4,7.8
			c0,0.8,0.7,1.5,1.5,1.5s1.5-0.7,1.5-1.5c0-2.7,2-4.8,4.4-4.8h21.9c2.4,0,4.4,2.2,4.4,4.8c0,0.8,0.7,1.5,1.5,1.5s1.5-0.7,1.5-1.5
			c0-4.3-3.3-7.8-7.4-7.8h-9.7v-20.6c0-0.1,0-0.2,0-0.2h15c0.8,0,1.5-0.7,1.5-1.5s-0.7-1.5-1.5-1.5H14.8c-4.2,0-7.7-3.4-7.7-7.7
			v-26.7c3-0.4,5.3-3,5.3-6.2V210c0-3.4-2.8-6.2-6.2-6.2S0,206.6,0,210v12.7C0,225.4,1.7,227.7,4.2,228.6z M3,210
			c0-1.8,1.5-3.2,3.2-3.2s3.2,1.5,3.2,3.2v12.7c0,1.8-1.5,3.2-3.2,3.2S3,224.5,3,222.7V210z"/>
		<path class="st0" d="M32.2,192.2c0,3.8,4,12.8,11.6,12.8c6.2,0,9.3-4.3,9.3-12.8c0-5.8-4.7-10.5-10.5-10.5S32.2,186.4,32.2,192.2z
			 M50.2,192.2c0,8.7-3.4,9.8-6.3,9.8c-5.7,0-8.6-7.3-8.6-9.8c0-4.1,3.4-7.5,7.5-7.5S50.2,188.1,50.2,192.2z"/>
		<path class="st0" d="M92.9,226.5H77.7l9.9-26.4c0.3-0.8-0.1-1.6-0.9-1.9c-0.8-0.3-1.6,0.1-1.9,0.9l-10.3,27.4h-3.4
			c-0.4-4.9-4.6-8.8-9.6-8.8H48l-8.3-10.1c-2.4-3-6.3-4.2-9.8-3.2c-2.3,0.7-4,2.2-4.9,4.3l-12.6,32c-0.9,2.6-0.9,4.5-0.9,4.6
			c0,6.8,5.5,12.3,12.3,12.3H53v26.9c0,6.9,4.5,11.4,11.4,11.4h1.5v-44.7c0-3.6-2.3-6.8-5.8-7.8c-0.6-0.2-14.5-2.5-23.9-4.1l4.2-11
			l2.3,1.3h0.2c0.1,0,0.2,0,0.2,0h49.7c0.8,0,1.5-0.7,1.5-1.5S93.7,226.5,92.9,226.5z M61.8,226.5c-0.1,0-0.2,0-0.2,0H43.5l-2.6-1.5
			c-0.2-0.2-0.4-0.4-0.7-0.5c-0.1,0-0.2-0.1-0.4-0.1l-3.6-2c-0.7-0.4-1.6-0.2-2,0.6s-0.2,1.6,0.6,2l3,1.7l-5.7,14.9l1.8,0.3
			c9.7,1.6,24.5,4.1,25.3,4.3c2.2,0.7,3.7,2.7,3.7,5v41.6c-4.3-0.6-6.9-3.6-6.9-8.3v-29.9H23.8c-5.1,0-9.3-4.2-9.3-9.3
			c0,0,0-1.5,0.7-3.6l12.6-31.9c0.5-1.3,1.5-2.1,2.9-2.5c0.5-0.2,1.1-0.2,1.6-0.2c1.9,0,3.7,0.9,5,2.4l9.2,11.2h14.9
			c3.4,0,6.2,2.6,6.6,5.8H61.8z"/>
		<path class="st0" d="M92.9,408.2H77.7l9.9-26.4c0.3-0.8-0.1-1.6-0.9-1.9c-0.8-0.3-1.6,0.1-1.9,0.9l-10.3,27.4h-3.4
			c-0.4-4.9-4.6-8.8-9.6-8.8H48l-8.3-10.1c-2.4-3-6.3-4.2-9.8-3.2c-2.3,0.7-4,2.2-4.9,4.3l-12.6,32c-0.9,2.6-0.9,4.5-0.9,4.6
			c0,6.8,5.5,12.3,12.3,12.3H53v26.9c0,6.9,4.5,11.4,11.4,11.4h1.5v-44.7c0-3.6-2.3-6.8-5.8-7.8c-0.6-0.2-14.5-2.5-23.9-4.1l4.2-11
			l2.3,1.3h0.2c0.1,0,0.2,0,0.2,0h49.7c0.8,0,1.5-0.7,1.5-1.5S93.7,408.2,92.9,408.2z M61.8,408.2c-0.1,0-0.2,0-0.2,0H43.5l-2.6-1.5
			c-0.2-0.2-0.4-0.4-0.7-0.5c-0.1,0-0.2-0.1-0.4-0.1l-3.6-2c-0.7-0.4-1.6-0.2-2,0.6s-0.2,1.6,0.6,2l3,1.7l-5.7,14.9l1.8,0.3
			c9.7,1.6,24.5,4.1,25.3,4.3c2.2,0.7,3.7,2.7,3.7,5v41.6c-4.3-0.6-6.9-3.6-6.9-8.3v-29.9H23.8c-5.1,0-9.3-4.2-9.3-9.3
			c0,0,0-1.5,0.7-3.6l12.6-31.9c0.5-1.3,1.5-2.1,2.9-2.5c0.5-0.2,1.1-0.2,1.6-0.2c1.9,0,3.7,0.9,5,2.4l9.2,11.2h14.9
			c3.4,0,6.2,2.6,6.6,5.8H61.8z"/>
		<path class="st0" d="M32.2,373.9c0,3.8,4,12.8,11.6,12.8c6.2,0,9.3-4.3,9.3-12.8c0-5.8-4.7-10.5-10.5-10.5S32.2,368.1,32.2,373.9z
			 M50.2,373.9c0,8.7-3.4,9.8-6.3,9.8c-5.7,0-8.6-7.3-8.6-9.8c0-4.1,3.4-7.5,7.5-7.5S50.2,369.7,50.2,373.9z"/>
		<path class="st0" d="M43.1,468.8h-9.7v-20.6c0-0.1,0-0.2,0-0.2h15c0.8,0,1.5-0.7,1.5-1.5s-0.7-1.5-1.5-1.5H14.8
			c-4.2,0-7.7-3.4-7.7-7.7v-26.7c3-0.4,5.3-3,5.3-6.2v-12.7c0-3.4-2.8-6.2-6.2-6.2S0,388.3,0,391.7v12.7c0,2.7,1.7,5,4.2,5.9v27
			c0,5.9,4.8,10.7,10.7,10.7h15.6c0,0.1,0,0.2,0,0.2v20.6h-9.1c-4.1,0-7.4,3.5-7.4,7.8c0,0.8,0.7,1.5,1.5,1.5s1.5-0.7,1.5-1.5
			c0-2.7,2-4.8,4.4-4.8h21.9c2.4,0,4.4,2.2,4.4,4.8c0,0.8,0.7,1.5,1.5,1.5s1.5-0.7,1.5-1.5C50.5,472.3,47.2,468.8,43.1,468.8z
			 M3,404.4v-12.7c0-1.8,1.5-3.2,3.2-3.2s3.2,1.5,3.2,3.2v12.7c0,1.8-1.5,3.2-3.2,3.2S3,406.2,3,404.4z"/>
		<path class="st0" d="M449.9,468.8h-9.7v-20.6c0-0.1,0-0.2,0-0.2h15c0.8,0,1.5-0.7,1.5-1.5s-0.7-1.5-1.5-1.5h-33.6
			c-4.2,0-7.7-3.4-7.7-7.7v-26.7c3-0.4,5.3-3,5.3-6.2v-12.7c0-3.4-2.8-6.2-6.2-6.2s-6.2,2.8-6.2,6.2v12.7c0,2.7,1.7,5,4.2,5.9v27
			c0,5.9,4.8,10.7,10.7,10.7h15.6c0,0.1,0,0.2,0,0.2v20.6h-9.1c-4.1,0-7.4,3.5-7.4,7.8c0,0.8,0.7,1.5,1.5,1.5s1.5-0.7,1.5-1.5
			c0-2.7,2-4.8,4.4-4.8h21.9c2.4,0,4.4,2.2,4.4,4.8c0,0.8,0.7,1.5,1.5,1.5s1.5-0.7,1.5-1.5C457.3,472.3,454,468.8,449.9,468.8z
			 M409.8,404.4v-12.7c0-1.8,1.5-3.2,3.2-3.2s3.2,1.5,3.2,3.2v12.7c0,1.8-1.5,3.2-3.2,3.2S409.8,406.2,409.8,404.4z"/>
		<path class="st0" d="M499.7,408.2h-15.2l9.9-26.4c0.3-0.8-0.1-1.6-0.9-1.9c-0.8-0.3-1.6,0.1-1.9,0.9l-10.3,27.4h-3.4
			c-0.4-4.9-4.6-8.8-9.6-8.8h-13.5l-8.3-10.1c-2.4-3-6.3-4.2-9.8-3.2c-2.3,0.7-4,2.2-4.9,4.3l-12.6,32c-0.9,2.6-0.9,4.5-0.9,4.6
			c0,6.8,5.5,12.3,12.3,12.3h29.2v26.9c0,6.9,4.5,11.4,11.4,11.4h1.5v-44.7c0-3.6-2.3-6.8-5.8-7.8c-0.6-0.2-14.5-2.5-23.9-4.1
			l4.2-11l2.3,1.3h0.2c0.1,0,0.2,0,0.2,0h49.7c0.8,0,1.5-0.7,1.5-1.5S500.5,408.2,499.7,408.2z M468.6,408.2c-0.1,0-0.2,0-0.2,0
			h-18.1l-2.6-1.5c-0.2-0.2-0.4-0.4-0.7-0.5c-0.1,0-0.2-0.1-0.4-0.1l-3.6-2c-0.7-0.4-1.6-0.2-2,0.6s-0.2,1.6,0.6,2l3,1.7l-5.7,14.9
			l1.8,0.3c9.7,1.6,24.5,4.1,25.3,4.3c2.2,0.7,3.7,2.7,3.7,5v41.6c-4.3-0.6-6.9-3.6-6.9-8.3v-29.9h-32.2c-5.1,0-9.3-4.2-9.3-9.3
			c0,0,0-1.5,0.7-3.6l12.6-31.9c0.5-1.3,1.5-2.1,2.9-2.5c0.5-0.2,1.1-0.2,1.6-0.2c1.9,0,3.7,0.9,5,2.4l9.2,11.2h14.9
			c3.4,0,6.2,2.6,6.6,5.8H468.6z"/>
		<path class="st0" d="M439,373.9c0,3.8,4,12.8,11.6,12.8c6.2,0,9.3-4.3,9.3-12.8c0-5.8-4.7-10.5-10.5-10.5
			C443.7,363.4,439,368.1,439,373.9z M456.9,373.9c0,8.7-3.4,9.8-6.3,9.8c-5.7,0-8.6-7.3-8.6-9.8c0-4.1,3.4-7.5,7.5-7.5
			S456.9,369.7,456.9,373.9z"/>
	</g>
	<g>
		<path class="st309" d="M689.9,434.8c0.6,0,1.2-0.4,1.3-1c0.2-0.7-0.2-1.5-0.9-1.8c-0.5-0.1-13.4-1.5-38.5-4.1l-4.3-8.8
			c-0.3-0.7-1.2-1-1.9-0.6c-0.7,0.3-1,1.2-0.7,1.9l5,10.2l0.8,0.1c14.9,1.5,37.5,3.9,38.8,4.1C689.7,434.8,689.8,434.8,689.9,434.8z
			"/>
		<path class="st309" d="M706.5,478.8c1.9,0,3.8-0.5,5.7-1.5l1.3-0.6l-9.1-17.6c-0.4-0.7-1.2-1-1.9-0.6c-0.7,0.4-1,1.2-0.6,1.9
			l7.8,15c-2.4,0.9-4.7,0.8-6.6-0.3c-0.7-0.4-1.5-0.2-1.9,0.5c-0.4,0.7-0.2,1.5,0.5,1.9C703.1,478.4,704.7,478.8,706.5,478.8z"/>
		<path class="st309" d="M691.6,462.6c0.3,0,0.5-0.1,0.7-0.2c0.7-0.4,0.9-1.3,0.4-1.9l-10.9-17.5l-30.6,0c0,0,0,0,0,0
			c-6,0-11.7-3.5-14.3-8.9l-13.5-27.6c-0.7-1.3-0.3-3.3,0.3-4.7c0.3-0.7,0-1.5-0.7-1.9c-0.7-0.3-1.5,0-1.9,0.7
			c-0.9,2-1.5,4.9-0.3,7.1l13.5,27.5c3.1,6.4,9.8,10.5,16.9,10.5c0,0,0,0,0,0l29,0l10.1,16.1C690.7,462.3,691.1,462.6,691.6,462.6z"
			/>
		<path class="st309" d="M701.1,426c-0.6-0.6-3.7-3.4-13.3-1.7c-2.3,0.4-5.2,0.9-6.9,1.2c-0.8,0.2-1.3,1-1.1,1.8l0,0
			c0.2,0.7,0.9,1.1,1.6,0.9c2.5-0.4,4.8-0.9,6.9-1.2c8.4-1.4,10.8,0.8,10.8,0.9c1.9,1.9,2.4,3.2,2.4,5.8l-0.4,41.7
			c-2-0.2-3.6-1-4.8-2.2c-1.5-1.5-2.2-3.6-2.2-6.2l0-0.1l-2.7-33.5c-0.1-0.8-0.7-1.4-1.5-1.3c-0.8,0.1-1.4,0.7-1.3,1.5l2.7,33.4
			c0,3.3,1,6.2,3,8.2c2,2,4.8,3.1,8.2,3.1l1.4,0l0.4-44.6C704.3,430.4,703.4,428.3,701.1,426z"/>
		<path class="st309" d="M664,429.6c-0.9-0.1-1.8-0.2-2.7-0.4c-0.4,0.3-0.6,0.8-0.5,1.3c0.1,0.8,0.9,1.3,1.6,1.1c0.1,0,3-0.5,7-1.3
			C667.6,430.1,665.8,429.8,664,429.6z"/>
		<path class="st309" d="M620,380.2c0-5.7,4.7-10.4,10.4-10.4c5.7,0,10.4,4.7,10.4,10.4c0,8.4-3.1,12.7-9.2,12.7
			C624,392.9,620,384,620,380.2z M622.9,380.2c0,2.5,3,9.9,8.7,9.9c3,0,6.4-1.1,6.4-9.9c0-4.2-3.4-7.6-7.6-7.6
			C626.3,372.6,622.9,376,622.9,380.2z"/>
		<g>
			<path class="st309" d="M632.9,417.5c-0.7-0.4-0.9-1.3-0.5-1.9c0.4-0.7,1.3-0.9,1.9-0.5l5.3,3.3h47.2c0.8,0,1.4,0.6,1.4,1.4
				s-0.6,1.4-1.4,1.4h-48L632.9,417.5z M664.4,419.8v-0.7c0-3.7-3-6.7-6.7-6.7h-14.9l-9.2-11.2c-1.7-2.1-4.3-2.9-6.7-2.2
				c-1.5,0.4-2.5,1.3-3,2.6c-0.3,0.7-1.1,1.1-1.8,0.8c-0.7-0.3-1.1-1.1-0.8-1.8c0.8-2.1,2.5-3.6,4.8-4.3c3.5-1,7.3,0.2,9.7,3.1
				l8.3,10.1h13.6c5.3,0,9.5,4.3,9.5,9.5v0.7c0,0.8-0.6,1.4-1.4,1.4S664.4,420.6,664.4,419.8z"/>
		</g>
		<path class="st309" d="M666.1,396.8H693l-13.5,13.5L666.1,396.8z M672.9,399.6l6.6,6.6l6.6-6.6H672.9z"/>
		<path class="st309" d="M679.5,419.5c0.8,0,1.4-0.6,1.4-1.4v-10.4c0-0.8-0.6-1.4-1.4-1.4s-1.4,0.6-1.4,1.4v10.4
			C678.1,418.9,678.7,419.5,679.5,419.5z"/>
		<path class="st309" d="M635.3,454.9h41.5c0.8,0,1.4-0.6,1.4-1.4c0-0.8-0.6-1.4-1.4-1.4H637l-31.3-63c-0.3-0.7-1.2-1-1.9-0.6
			c-0.7,0.3-1,1.2-0.6,1.9L635.3,454.9z"/>
		<path class="st309" d="M605.6,478.9c0.5,0,1-0.3,1.3-0.8l19.7-42.8c0.3-0.7,0-1.5-0.7-1.9c-0.7-0.3-1.5,0-1.9,0.7l-19.7,42.8
			c-0.3,0.7,0,1.5,0.7,1.9C605.2,478.9,605.4,478.9,605.6,478.9z"/>
		<path class="st309" d="M684.4,393.5c0.5,0,1-0.3,1.3-0.8l4-7.6c0.4-0.7,0.1-1.5-0.6-1.9c-0.7-0.4-1.5-0.1-1.9,0.6l-4,7.6
			c-0.4,0.7-0.1,1.5,0.6,1.9C684,393.4,684.2,393.5,684.4,393.5z"/>
	</g>
</g>
</svg>
