<?xml version="1.0" encoding="utf-8"?>
<!-- Generator: Adobe Illustrator 19.2.0, SVG Export Plug-In . SVG Version: 6.00 Build 0)  -->
<svg version="1.1" id="Layer_1" xmlns="http://www.w3.org/2000/svg" xmlns:xlink="http://www.w3.org/1999/xlink" x="0px" y="0px"
	 viewBox="0 0 2063.3 1963.1" style="enable-background:new 0 0 2063.3 1963.1;" xml:space="preserve">
<style type="text/css">
	.st0{fill:#808080;}
	.st1{fill:url(#SVGID_1_);}
	.st2{fill:url(#SVGID_2_);}
	.st3{fill:url(#SVGID_3_);}
	.st4{fill:url(#SVGID_4_);}
	.st5{fill:url(#SVGID_5_);}
	.st6{fill:url(#SVGID_6_);}
	.st7{fill:url(#SVGID_7_);}
	.st8{fill:url(#SVGID_8_);}
	.st9{fill:url(#SVGID_9_);}
	.st10{fill:url(#SVGID_10_);}
	.st11{fill:url(#SVGID_11_);}
	.st12{fill:url(#SVGID_12_);}
	.st13{fill:url(#SVGID_13_);}
	.st14{fill:url(#SVGID_14_);}
	.st15{fill:url(#SVGID_15_);}
	.st16{fill:url(#SVGID_16_);}
	.st17{fill:url(#SVGID_17_);}
	.st18{fill:url(#SVGID_18_);}
	.st19{fill:url(#SVGID_19_);}
	.st20{fill:url(#SVGID_20_);}
	.st21{fill:url(#SVGID_21_);}
	.st22{fill:url(#SVGID_22_);}
	.st23{fill:url(#SVGID_23_);}
	.st24{fill:url(#SVGID_24_);}
	.st25{fill:url(#SVGID_25_);}
	.st26{fill:url(#SVGID_26_);}
	.st27{fill:url(#SVGID_27_);}
	.st28{fill:url(#SVGID_28_);}
	.st29{fill:url(#SVGID_29_);}
	.st30{fill:url(#SVGID_30_);}
	.st31{fill:url(#SVGID_31_);}
	.st32{fill:url(#SVGID_32_);}
	.st33{fill:url(#SVGID_33_);}
	.st34{fill:url(#SVGID_34_);}
	.st35{fill:url(#SVGID_35_);}
	.st36{fill:url(#SVGID_36_);}
	.st37{fill:url(#SVGID_37_);}
	.st38{fill:url(#SVGID_38_);}
	.st39{fill:url(#SVGID_39_);}
	.st40{fill:url(#SVGID_40_);}
	.st41{fill:url(#SVGID_41_);}
	.st42{fill:url(#SVGID_42_);}
	.st43{fill:url(#SVGID_43_);}
	.st44{fill:url(#SVGID_44_);}
	.st45{fill:url(#SVGID_45_);}
	.st46{fill:url(#SVGID_46_);}
	.st47{fill:url(#SVGID_47_);}
	.st48{fill:url(#SVGID_48_);}
	.st49{fill:url(#SVGID_49_);}
	.st50{fill:url(#SVGID_50_);}
	.st51{fill:url(#SVGID_51_);}
	.st52{fill:url(#SVGID_52_);}
	.st53{fill:url(#SVGID_53_);}
	.st54{fill:url(#SVGID_54_);}
	.st55{fill:url(#SVGID_55_);}
	.st56{fill:url(#SVGID_56_);}
	.st57{fill:url(#SVGID_57_);}
	.st58{fill:url(#SVGID_58_);}
	.st59{fill:url(#SVGID_59_);}
	.st60{fill:url(#SVGID_60_);}
	.st61{fill:url(#SVGID_61_);}
	.st62{fill:url(#SVGID_62_);}
	.st63{fill:url(#SVGID_63_);}
	.st64{fill:url(#SVGID_64_);}
	.st65{fill:url(#SVGID_65_);}
	.st66{fill:url(#SVGID_66_);}
	.st67{fill:url(#SVGID_67_);}
	.st68{fill:url(#SVGID_68_);}
	.st69{fill:url(#SVGID_69_);}
	.st70{fill:url(#SVGID_70_);}
	.st71{fill:url(#SVGID_71_);}
	.st72{fill:url(#SVGID_72_);}
	.st73{fill:url(#SVGID_73_);}
	.st74{fill:url(#SVGID_74_);}
	.st75{fill:url(#SVGID_75_);}
	.st76{fill:url(#SVGID_76_);}
	.st77{fill:url(#SVGID_77_);}
	.st78{fill:url(#SVGID_78_);}
	.st79{fill:url(#SVGID_79_);}
	.st80{fill:url(#SVGID_80_);}
	.st81{fill:url(#SVGID_81_);}
	.st82{fill:url(#SVGID_82_);}
	.st83{fill:url(#SVGID_83_);}
	.st84{fill:url(#SVGID_84_);}
	.st85{fill:url(#SVGID_85_);}
	.st86{fill:url(#SVGID_86_);}
	.st87{fill:url(#SVGID_87_);}
	.st88{fill:url(#SVGID_88_);}
	.st89{fill:url(#SVGID_89_);}
	.st90{fill:url(#SVGID_90_);}
	.st91{fill:url(#SVGID_91_);}
	.st92{fill:url(#SVGID_92_);}
	.st93{fill:url(#SVGID_93_);}
	.st94{fill:url(#SVGID_94_);}
	.st95{fill:url(#SVGID_95_);}
	.st96{fill:url(#SVGID_96_);}
	.st97{fill:url(#SVGID_97_);}
	.st98{fill:url(#SVGID_98_);}
	.st99{fill:url(#SVGID_99_);}
	.st100{fill:url(#SVGID_100_);}
	.st101{fill:url(#SVGID_101_);}
	.st102{fill:url(#SVGID_102_);}
	.st103{fill:url(#SVGID_103_);}
	.st104{fill:url(#SVGID_104_);}
	.st105{fill:url(#SVGID_105_);}
	.st106{fill:url(#SVGID_106_);}
	.st107{fill:url(#SVGID_107_);}
	.st108{fill:url(#SVGID_108_);}
	.st109{fill:url(#SVGID_109_);}
	.st110{fill:url(#SVGID_110_);}
	.st111{fill:url(#SVGID_111_);}
	.st112{fill:url(#SVGID_112_);}
	.st113{fill:url(#SVGID_113_);}
	.st114{fill:url(#SVGID_114_);}
	.st115{fill:url(#SVGID_115_);}
	.st116{fill:url(#SVGID_116_);}
	.st117{fill:url(#SVGID_117_);}
	.st118{fill:url(#SVGID_118_);}
	.st119{fill:url(#SVGID_119_);}
	.st120{fill:url(#SVGID_120_);}
	.st121{fill:url(#SVGID_121_);}
	.st122{fill:url(#SVGID_122_);}
	.st123{fill:url(#SVGID_123_);}
	.st124{fill:url(#SVGID_124_);}
	.st125{fill:url(#SVGID_125_);}
	.st126{fill:url(#SVGID_126_);}
	.st127{fill:url(#SVGID_127_);}
	.st128{fill:url(#SVGID_128_);}
	.st129{fill:url(#SVGID_129_);}
	.st130{fill:url(#SVGID_130_);}
	.st131{fill:url(#SVGID_131_);}
	.st132{fill:url(#SVGID_132_);}
	.st133{fill:url(#SVGID_133_);}
	.st134{fill:url(#SVGID_134_);}
	.st135{fill:url(#SVGID_135_);}
	.st136{fill:url(#SVGID_136_);}
	.st137{fill:url(#SVGID_137_);}
	.st138{fill:url(#SVGID_138_);}
	.st139{fill:url(#SVGID_139_);}
	.st140{fill:url(#SVGID_140_);}
	.st141{fill:url(#SVGID_141_);}
	.st142{fill:url(#SVGID_142_);}
	.st143{fill:url(#SVGID_143_);}
	.st144{fill:url(#SVGID_144_);}
	.st145{fill:url(#SVGID_145_);}
	.st146{fill:url(#SVGID_146_);}
	.st147{fill:url(#SVGID_147_);}
	.st148{fill:url(#SVGID_148_);}
	.st149{fill:url(#SVGID_149_);}
	.st150{fill:url(#SVGID_150_);}
	.st151{fill:url(#SVGID_151_);}
	.st152{fill:url(#SVGID_152_);}
	.st153{fill:url(#SVGID_153_);}
	.st154{fill:url(#SVGID_154_);}
	.st155{fill:url(#SVGID_155_);}
	.st156{fill:url(#SVGID_156_);}
	.st157{fill:url(#SVGID_157_);}
	.st158{fill:url(#SVGID_158_);}
	.st159{fill:url(#SVGID_159_);}
	.st160{fill:url(#SVGID_160_);}
	.st161{fill:url(#SVGID_161_);}
	.st162{fill:url(#SVGID_162_);}
	.st163{fill:url(#SVGID_163_);}
	.st164{fill:url(#SVGID_164_);}
	.st165{fill:url(#SVGID_165_);}
	.st166{fill:url(#SVGID_166_);}
	.st167{fill:url(#SVGID_167_);}
	.st168{fill:url(#SVGID_168_);}
	.st169{fill:url(#SVGID_169_);}
	.st170{fill:url(#SVGID_170_);}
	.st171{fill:url(#SVGID_171_);}
	.st172{fill:url(#SVGID_172_);}
	.st173{fill:url(#SVGID_173_);}
	.st174{fill:url(#SVGID_174_);}
	.st175{fill:url(#SVGID_175_);}
	.st176{fill:url(#SVGID_176_);}
	.st177{fill:url(#SVGID_177_);}
	.st178{fill:url(#SVGID_178_);}
	.st179{fill:url(#SVGID_179_);}
	.st180{fill:url(#SVGID_180_);}
	.st181{fill:url(#SVGID_181_);}
	.st182{fill:url(#SVGID_182_);}
	.st183{fill:url(#SVGID_183_);}
	.st184{fill:url(#SVGID_184_);}
	.st185{fill:url(#SVGID_185_);}
	.st186{fill:url(#SVGID_186_);}
	.st187{fill:url(#SVGID_187_);}
	.st188{fill:url(#SVGID_188_);}
	.st189{fill:url(#SVGID_189_);}
	.st190{fill:url(#SVGID_190_);}
	.st191{fill:url(#SVGID_191_);}
	.st192{fill:url(#SVGID_192_);}
	.st193{fill:url(#SVGID_193_);}
	.st194{fill:url(#SVGID_194_);}
	.st195{fill:url(#SVGID_195_);}
	.st196{fill:url(#SVGID_196_);}
	.st197{fill:url(#SVGID_197_);}
	.st198{fill:url(#SVGID_198_);}
	.st199{fill:url(#SVGID_199_);}
	.st200{fill:url(#SVGID_200_);}
	.st201{fill:url(#SVGID_201_);}
	.st202{fill:url(#SVGID_202_);}
	.st203{fill:url(#SVGID_203_);}
	.st204{fill:url(#SVGID_204_);}
	.st205{fill:url(#SVGID_205_);}
	.st206{fill:url(#SVGID_206_);}
	.st207{fill:url(#SVGID_207_);}
	.st208{fill:url(#SVGID_208_);}
	.st209{fill:url(#SVGID_209_);}
	.st210{fill:url(#SVGID_210_);}
	.st211{fill:url(#SVGID_211_);}
	.st212{fill:url(#SVGID_212_);}
	.st213{fill:url(#SVGID_213_);}
	.st214{fill:url(#SVGID_214_);}
	.st215{fill:url(#SVGID_215_);}
	.st216{fill:url(#SVGID_216_);}
	.st217{fill:url(#SVGID_217_);}
	.st218{fill:url(#SVGID_218_);}
	.st219{fill:url(#SVGID_219_);}
	.st220{fill:url(#SVGID_220_);}
	.st221{fill:url(#SVGID_221_);}
	.st222{fill:url(#SVGID_222_);}
	.st223{fill:url(#SVGID_223_);}
	.st224{fill:url(#SVGID_224_);}
	.st225{fill:url(#SVGID_225_);}
	.st226{fill:url(#SVGID_226_);}
	.st227{fill:url(#SVGID_227_);}
	.st228{fill:url(#SVGID_228_);}
	.st229{fill:none;stroke:#905CFB;stroke-width:0.5;stroke-linecap:round;stroke-miterlimit:10;}
	.st230{fill:none;stroke:#945AF7;stroke-width:0.6346;stroke-linecap:round;stroke-miterlimit:10;}
	.st231{fill:none;stroke:#9959F2;stroke-width:0.7692;stroke-linecap:round;stroke-miterlimit:10;}
	.st232{fill:none;stroke:#9D57EE;stroke-width:0.9038;stroke-linecap:round;stroke-miterlimit:10;}
	.st233{fill:none;stroke:#A155EA;stroke-width:1.0385;stroke-linecap:round;stroke-miterlimit:10;}
	.st234{fill:none;stroke:#A554E6;stroke-width:1.1731;stroke-linecap:round;stroke-miterlimit:10;}
	.st235{fill:none;stroke:#AA52E1;stroke-width:1.3077;stroke-linecap:round;stroke-miterlimit:10;}
	.st236{fill:none;stroke:#AE50DD;stroke-width:1.4423;stroke-linecap:round;stroke-miterlimit:10;}
	.st237{fill:none;stroke:#B24FD9;stroke-width:1.5769;stroke-linecap:round;stroke-miterlimit:10;}
	.st238{fill:none;stroke:#B64DD5;stroke-width:1.7115;stroke-linecap:round;stroke-miterlimit:10;}
	.st239{fill:none;stroke:#BB4BD0;stroke-width:1.8462;stroke-linecap:round;stroke-miterlimit:10;}
	.st240{fill:none;stroke:#BF4ACC;stroke-width:1.9808;stroke-linecap:round;stroke-miterlimit:10;}
	.st241{fill:none;stroke:#C348C8;stroke-width:2.1154;stroke-linecap:round;stroke-miterlimit:10;}
	.st242{fill:none;stroke:#C747C4;stroke-width:2.25;stroke-linecap:round;stroke-miterlimit:10;}
	.st243{fill:none;stroke:#CC45BF;stroke-width:2.3846;stroke-linecap:round;stroke-miterlimit:10;}
	.st244{fill:none;stroke:#D043BB;stroke-width:2.5192;stroke-linecap:round;stroke-miterlimit:10;}
	.st245{fill:none;stroke:#D442B7;stroke-width:2.6538;stroke-linecap:round;stroke-miterlimit:10;}
	.st246{fill:none;stroke:#D940B2;stroke-width:2.7885;stroke-linecap:round;stroke-miterlimit:10;}
	.st247{fill:none;stroke:#DD3EAE;stroke-width:2.9231;stroke-linecap:round;stroke-miterlimit:10;}
	.st248{fill:none;stroke:#E13DAA;stroke-width:3.0577;stroke-linecap:round;stroke-miterlimit:10;}
	.st249{fill:none;stroke:#E53BA6;stroke-width:3.1923;stroke-linecap:round;stroke-miterlimit:10;}
	.st250{fill:none;stroke:#EA39A1;stroke-width:3.3269;stroke-linecap:round;stroke-miterlimit:10;}
	.st251{fill:none;stroke:#EE389D;stroke-width:3.4615;stroke-linecap:round;stroke-miterlimit:10;}
	.st252{fill:none;stroke:#F23699;stroke-width:3.5962;stroke-linecap:round;stroke-miterlimit:10;}
	.st253{fill:none;stroke:#F63495;stroke-width:3.7308;stroke-linecap:round;stroke-miterlimit:10;}
	.st254{fill:none;stroke:#FB3390;stroke-width:3.8654;stroke-linecap:round;stroke-miterlimit:10;}
	.st255{fill:none;stroke:#FF318C;stroke-width:4;stroke-linecap:round;stroke-miterlimit:10;}
	.st256{fill:none;stroke:#945BF7;stroke-width:0.6129;stroke-linecap:round;stroke-miterlimit:10;}
	.st257{fill:none;stroke:#9759F4;stroke-width:0.7258;stroke-linecap:round;stroke-miterlimit:10;}
	.st258{fill:none;stroke:#9B58F0;stroke-width:0.8387;stroke-linecap:round;stroke-miterlimit:10;}
	.st259{fill:none;stroke:#9E56ED;stroke-width:0.9516;stroke-linecap:round;stroke-miterlimit:10;}
	.st260{fill:none;stroke:#A255E9;stroke-width:1.0645;stroke-linecap:round;stroke-miterlimit:10;}
	.st261{fill:none;stroke:#A554E6;stroke-width:1.1774;stroke-linecap:round;stroke-miterlimit:10;}
	.st262{fill:none;stroke:#A952E2;stroke-width:1.2903;stroke-linecap:round;stroke-miterlimit:10;}
	.st263{fill:none;stroke:#AD51DE;stroke-width:1.4032;stroke-linecap:round;stroke-miterlimit:10;}
	.st264{fill:none;stroke:#B050DB;stroke-width:1.5161;stroke-linecap:round;stroke-miterlimit:10;}
	.st265{fill:none;stroke:#B44ED7;stroke-width:1.629;stroke-linecap:round;stroke-miterlimit:10;}
	.st266{fill:none;stroke:#B74DD4;stroke-width:1.7419;stroke-linecap:round;stroke-miterlimit:10;}
	.st267{fill:none;stroke:#BB4BD0;stroke-width:1.8548;stroke-linecap:round;stroke-miterlimit:10;}
	.st268{fill:none;stroke:#BF4ACC;stroke-width:1.9677;stroke-linecap:round;stroke-miterlimit:10;}
	.st269{fill:none;stroke:#C249C9;stroke-width:2.0806;stroke-linecap:round;stroke-miterlimit:10;}
	.st270{fill:none;stroke:#C647C5;stroke-width:2.1935;stroke-linecap:round;stroke-miterlimit:10;}
	.st271{fill:none;stroke:#C946C2;stroke-width:2.3065;stroke-linecap:round;stroke-miterlimit:10;}
	.st272{fill:none;stroke:#CD44BE;stroke-width:2.4194;stroke-linecap:round;stroke-miterlimit:10;}
	.st273{fill:none;stroke:#D043BB;stroke-width:2.5323;stroke-linecap:round;stroke-miterlimit:10;}
	.st274{fill:none;stroke:#D442B7;stroke-width:2.6452;stroke-linecap:round;stroke-miterlimit:10;}
	.st275{fill:none;stroke:#D840B3;stroke-width:2.7581;stroke-linecap:round;stroke-miterlimit:10;}
	.st276{fill:none;stroke:#DB3FB0;stroke-width:2.871;stroke-linecap:round;stroke-miterlimit:10;}
	.st277{fill:none;stroke:#DF3DAC;stroke-width:2.9839;stroke-linecap:round;stroke-miterlimit:10;}
	.st278{fill:none;stroke:#E23CA9;stroke-width:3.0968;stroke-linecap:round;stroke-miterlimit:10;}
	.st279{fill:none;stroke:#E63BA5;stroke-width:3.2097;stroke-linecap:round;stroke-miterlimit:10;}
	.st280{fill:none;stroke:#EA39A1;stroke-width:3.3226;stroke-linecap:round;stroke-miterlimit:10;}
	.st281{fill:none;stroke:#ED389E;stroke-width:3.4355;stroke-linecap:round;stroke-miterlimit:10;}
	.st282{fill:none;stroke:#F1379A;stroke-width:3.5484;stroke-linecap:round;stroke-miterlimit:10;}
	.st283{fill:none;stroke:#F43597;stroke-width:3.6613;stroke-linecap:round;stroke-miterlimit:10;}
	.st284{fill:none;stroke:#F83493;stroke-width:3.7742;stroke-linecap:round;stroke-miterlimit:10;}
	.st285{fill:none;stroke:#FB3290;stroke-width:3.8871;stroke-linecap:round;stroke-miterlimit:10;}
	.st286{fill:#161616;}
	.st287{fill:#E6E6E6;}
	.st288{fill:url(#SVGID_229_);}
	.st289{fill:url(#SVGID_230_);}
	.st290{fill:url(#SVGID_231_);}
	.st291{fill:url(#SVGID_232_);}
	.st292{fill:url(#SVGID_233_);}
	.st293{fill:url(#SVGID_234_);}
	.st294{fill:url(#SVGID_235_);}
	.st295{fill:url(#SVGID_236_);}
	.st296{fill:url(#SVGID_237_);}
	.st297{fill:url(#SVGID_238_);}
	.st298{fill:#FFFFFF;}
	.st299{fill:url(#SVGID_239_);}
	.st300{fill:url(#SVGID_240_);}
	.st301{fill:url(#SVGID_241_);}
	.st302{fill:url(#SVGID_242_);}
	.st303{fill:url(#SVGID_243_);}
	.st304{fill:url(#SVGID_244_);}
	.st305{fill:url(#SVGID_245_);}
	.st306{fill:url(#SVGID_246_);}
	.st307{fill:url(#SVGID_247_);}
	.st308{fill:url(#SVGID_248_);}
	.st309{fill:#FF318C;}
	.st310{fill:#AE51DD;}
	.st311{fill:#5D7DF7;}
	.st312{fill:#0CB0F2;}
	.st313{fill:#19A8F3;}
</style>
<g>
	<path class="st229" d="M402.6,235.9c79.5-55,96.5-69.6,146-99.5C704.5,42.1,775.1,11.9,891.1,3.5L945.6,1
		c177.6-11.3,378.3,113.2,506.3,237.9l241.5,222.3c0,0,126.4,102.4,254.3,252.7c124.5,146.3,115.2,334.3,115.2,334.3
		s-172,752-556.6,872.7s-995.6-41.2-1169.1-204.1C-53.2,1350.5,3.1,478,3.1,478l0,0c82.1-80.5,91.5-115.1,243-175.1L402.6,235.9z"/>
	<path class="st256" d="M421.2,263.2c76.7-55.1,93.1-71.8,141.3-101.4C712.8,69.3,781.8,40.8,894.4,32.7l52.7-2.5
		c172.1-11,366.7,109.7,490.5,230.7l234.1,217.8c0,0,123.2,99,247.9,244.7c121.4,141.9,112.8,324.2,112.8,324.2
		s-165.9,731-539.9,848.4s-966.8-40.5-1135.6-198.9C-21.6,1342,32,496.7,32,496.7l0,0c79.8-78.2,89.5-111.8,236.6-169.6L421.2,263.2
		z"/>
	<path class="st257" d="M439.7,290.4c73.9-55.1,89.7-74,136.5-103.3C721,96.5,788.6,69.7,897.6,61.8l51-2.4
		c166.7-10.6,355,106.2,474.7,223.5L1650,496.2c0,0,120,95.6,241.4,236.7c118.2,137.4,110.4,314.2,110.4,314.2
		s-159.8,710.1-523.1,824c-363.3,114-938-39.8-1102-193.6C9.9,1333.5,61,515.4,61,515.4l0,0c77.6-76,87.5-108.5,230.1-164
		L439.7,290.4z"/>
	<path class="st258" d="M458.3,317.7c71.2-55.2,86.3-76.2,131.8-105.2C729.2,123.7,795.3,98.6,900.9,91l49.2-2.3
		c161.2-10.3,343.3,102.7,459,216.2l219.2,208.7c0,0,116.9,92.3,235,228.8c115,132.9,108,304.2,108,304.2s-153.7,689.1-506.3,799.7
		s-909.2-39.1-1068.5-188.3C41.5,1325,89.9,534.1,89.9,534.1l0,0c75.3-73.8,85.5-105.2,223.6-158.5L458.3,317.7z"/>
	<path class="st259" d="M476.9,344.9c68.4-55.2,82.9-78.4,127-107.1c133.6-86.9,198.2-110.3,300.3-117.7l47.5-2.2
		c155.8-9.9,331.6,99.3,443.2,209l211.8,204.2c0,0,113.7,88.9,228.5,220.8c111.8,128.4,105.6,294.1,105.6,294.1
		s-147.6,668.1-489.6,775.4c-341.9,107.3-880.5-38.4-1034.9-183.1C73.1,1316.5,118.9,552.8,118.9,552.8l0,0
		c73-71.5,83.5-101.9,217.1-152.9L476.9,344.9z"/>
	<path class="st260" d="M495.5,372.2c65.6-55.3,79.5-80.6,122.3-109c128-84.9,191.1-106.8,289.7-113.9l45.7-2.2
		c150.3-9.6,319.9,95.8,427.4,201.8l204.4,199.7c0,0,110.6,85.5,222.1,212.8c108.6,123.9,103.2,284.1,103.2,284.1
		s-141.5,647.1-472.8,751S585.7,1758.9,436,1618.7C104.6,1308.1,147.9,571.5,147.9,571.5l0,0c70.7-69.3,81.5-98.6,210.7-147.4
		L495.5,372.2z"/>
	<path class="st261" d="M514.1,399.4c62.9-55.4,76-82.7,117.5-110.9c122.4-83,184-103.2,279.1-110.1l43.9-2.1
		c144.8-9.2,308.2,92.3,411.6,194.6L1563.2,566c0,0,107.4,82.1,215.6,204.8c105.4,119.4,100.8,274.1,100.8,274.1
		s-135.4,626.1-456,726.7s-822.9-36.9-967.8-172.5c-319.6-299.6-279-1008.9-279-1008.9l0,0c68.4-67.1,79.5-95.3,204.2-141.8
		L514.1,399.4z"/>
	<path class="st262" d="M532.6,426.6c60.1-55.4,72.6-84.9,112.8-112.8c116.8-81,176.9-99.7,268.6-106.3l42.2-2
		c139.4-8.9,296.5,88.9,395.8,187.3l189.5,190.6c0,0,104.3,78.8,209.2,196.8c102.3,115,98.5,264,98.5,264s-129.3,605.1-439.3,702.4
		c-309.9,97.2-794.2-36.2-934.3-167.2C167.7,1291.1,205.8,609,205.8,609l0,0c66.2-64.8,77.5-92,197.7-136.3L532.6,426.6z"/>
	<path class="st263" d="M551.2,453.9c57.3-55.5,69.1-87.1,108.1-114.7c111.3-78.9,169.8-96.1,258-102.5l40.4-1.9
		c133.9-8.5,284.8,85.4,380,180.1l182.1,186.1c0,0,101.1,75.4,202.7,188.9c99.1,110.5,96.1,254,96.1,254s-123.3,584.1-422.5,678
		s-765.4-35.5-900.7-162c-296.1-277.3-260.6-932.3-260.6-932.3l0,0c63.9-62.6,75.5-88.6,191.3-130.7L551.2,453.9z"/>
	<path class="st264" d="M569.8,481.2c54.5-55.6,65.7-89.2,103.3-116.6C778.8,287.8,835.9,272,920.6,266l38.7-1.8
		c128.5-8.2,273.1,81.9,364.3,172.9l174.6,181.5c0,0,98,72,196.3,180.9c95.9,106,93.7,244,93.7,244s-117.2,563.2-405.8,653.7
		c-288.6,90.5-736.6-34.8-867.1-156.7c-284.3-266.2-251.5-894-251.5-894l0,0c61.6-60.4,73.5-85.3,184.8-125.2L569.8,481.2z"/>
	<path class="st265" d="M588.4,508.5c51.8-55.6,62.2-91.4,98.6-118.5c100.2-74.7,155.7-89,236.9-94.9l36.9-1.7
		c123-7.8,261.4,78.4,348.5,165.7l167.2,177c0,0,94.8,68.7,189.8,172.9c92.7,101.5,91.3,233.9,91.3,233.9s-111.1,542.2-389,629.4
		s-707.8-34.1-833.6-151.4c-272.5-255.1-242.3-855.7-242.3-855.7l0,0c59.3-58.2,71.5-82,178.3-119.6L588.4,508.5z"/>
	<path class="st266" d="M607,535.7c49-55.7,58.7-93.5,93.8-120.4c94.7-72.4,148.6-85.5,226.3-91.1l35.1-1.7
		c117.6-7.5,249.7,75,332.7,158.4l159.8,172.5c0,0,91.6,65.3,183.4,164.9c89.5,97,88.9,223.9,88.9,223.9s-105,521.2-372.2,605
		c-267.3,83.8-679.1-33.4-800-146.1c-260.8-244-233.1-817.4-233.1-817.4l0,0c57.1-55.9,69.5-78.7,171.9-114.1L607,535.7z"/>
	<path class="st267" d="M625.6,563c46.2-55.7,55.2-95.6,89.1-122.3c89.2-70.2,141.5-81.9,215.8-87.3l33.4-1.6
		c112.1-7.1,238,71.5,316.9,151.2L1433.1,671c0,0,88.5,61.9,176.9,156.9c86.4,92.6,86.5,213.9,86.5,213.9s-98.9,500.2-355.5,580.7
		c-256.6,80.5-650.3-32.6-766.5-140.9c-249-232.9-223.9-779.1-223.9-779.1l0,0c54.8-53.7,67.5-75.4,165.4-108.5L625.6,563z"/>
	<path class="st268" d="M644.2,590.2c43.4-55.8,51.7-97.7,84.3-124.2c83.8-67.8,134.4-78.4,205.2-83.5l31.6-1.5
		c106.7-6.8,226.3,68,301.1,144l144.9,163.4c0,0,85.3,58.5,170.5,148.9c83.2,88.1,84.1,203.8,84.1,203.8s-92.8,479.2-338.7,556.4
		c-245.9,77.2-621.5-31.9-732.9-135.6c-237.2-221.8-214.8-740.7-214.8-740.7l0,0c52.5-51.5,65.5-72.1,158.9-103L644.2,590.2z"/>
	<path class="st269" d="M662.8,617.5c40.7-55.9,48.1-99.8,79.6-126.1c78.4-65.4,127.4-74.8,194.6-79.7l29.9-1.4
		c101.2-6.4,214.7,64.6,285.3,136.8l137.5,158.9c0,0,82.2,55.2,164,141c80,83.6,81.8,193.8,81.8,193.8s-86.7,458.2-321.9,532
		c-235.3,73.8-592.7-31.2-699.4-130.3C388.7,1231.8,408.6,740,408.6,740l0,0c50.2-49.2,63.5-68.8,152.5-97.4L662.8,617.5z"/>
	<path class="st270" d="M681.4,644.7c37.9-55.9,44.6-101.9,74.9-128c73-62.9,120.3-71.3,184.1-75.9l28.1-1.3
		c95.7-6.1,203,61.1,269.6,129.5L1368,723.4c0,0,79,51.8,157.6,133c76.8,79.1,79.4,183.8,79.4,183.8s-80.6,437.2-305.2,507.7
		s-564-30.5-665.8-125.1c-213.7-199.5-196.4-664.1-196.4-664.1l0,0c47.9-47,61.5-65.5,146-91.9L681.4,644.7z"/>
	<path class="st271" d="M700,672c35.1-56,41.1-103.9,70.1-129.9c67.6-60.4,113.2-67.8,173.5-72.1l26.4-1.2
		c90.3-5.7,191.3,57.6,253.8,122.3l122.6,149.8c0,0,75.9,48.4,151.1,125c73.6,74.6,77,173.7,77,173.7s-74.5,416.2-288.4,483.4
		c-213.9,67.1-535.2-29.8-632.3-119.8c-201.9-188.4-187.3-625.8-187.3-625.8l0,0c45.7-44.8,59.5-62.2,139.5-86.3L700,672z"/>
	<path class="st272" d="M718.6,699.2c32.3-56.1,37.5-106,65.4-131.8c62.3-57.7,106.1-64.2,163-68.3l24.6-1.2
		c84.8-5.4,179.6,54.1,238,115.1l115.2,145.3c0,0,72.7,45.1,144.7,117c70.4,70.1,74.6,163.7,74.6,163.7s-68.4,395.3-271.7,459
		s-506.4-29.1-598.7-114.5c-190.2-177.3-178.1-587.5-178.1-587.5l0,0c43.4-42.5,57.5-58.9,133-80.8L718.6,699.2z"/>
	<path class="st273" d="M737.2,726.5c29.6-56.1,33.9-108,60.6-133.7c57.1-54.9,99-60.7,152.4-64.5l22.8-1.1
		c79.4-5.1,167.9,50.7,222.2,107.9l107.8,140.7c0,0,69.6,41.7,138.2,109c67.3,65.7,72.2,153.7,72.2,153.7s-62.3,374.3-254.9,434.7
		c-192.6,60.4-477.6-28.3-565.1-109.2c-178.4-166.2-168.9-549.2-168.9-549.2l0,0c41.1-40.3,55.5-55.6,126.6-75.2L737.2,726.5z"/>
	<path class="st274" d="M755.9,753.7c26.8-56.2,35.5-105.7,55.9-135.6c60.7-41.5,92-57.1,141.8-60.7l21.1-1
		c73.9-4.7,156.2,47.2,206.4,100.6l100.3,136.2c0,0,66.4,38.3,131.8,101.1c64.1,61.2,69.8,143.6,69.8,143.6s-56.2,353.3-238.1,410.4
		s-449-27.4-531.6-104c-166.9-154.7-159.7-510.9-159.7-510.9l0,0c38.8-38.1,53.5-52.3,120.1-69.7L755.9,753.7z"/>
	<path class="st275" d="M774.5,781c24-56.2,32.3-107.6,51.1-137.5c55.7-38.7,84.9-53.6,131.3-56.9l19.3-0.9
		c68.5-4.4,144.5,43.7,190.6,93.4l92.9,131.7c0,0,63.2,35,125.3,93.1c60.9,56.7,67.5,133.6,67.5,133.6s-50.1,332.3-221.4,386
		s-420.3-26.7-498-98.7C578,1181.3,582.6,852.2,582.6,852.2l0,0c36.6-35.8,51.5-49,113.6-64.1L774.5,781z"/>
	<path class="st276" d="M793.2,808.2c21.2-56.3,29.1-109.4,46.4-139.4c50.7-35.9,77.8-50,120.7-53.1l17.6-0.8
		c63-4,132.8,40.3,174.9,86.2l85.5,127.1c0,0,60.1,31.6,118.9,85.1c57.7,52.2,65.1,123.6,65.1,123.6s-44,311.3-204.6,361.7
		c-160.6,50.4-391.5-26-464.5-93.4c-143.4-132.5-141.4-434.3-141.4-434.3l0,0c34.3-33.6,49.5-45.6,107.2-58.6L793.2,808.2z"/>
	<path class="st277" d="M811.8,835.5c18.5-56.4,25.9-111.3,41.7-141.3c45.7-33.1,70.7-46.5,110.2-49.3l15.8-0.7
		c57.6-3.7,121.1,36.8,159.1,79l78,122.6c0,0,56.9,28.2,112.5,77.1c54.5,47.7,62.7,113.5,62.7,113.5s-37.9,290.3-187.8,337.4
		s-362.7-25.3-430.9-88.1c-131.6-121.3-132.2-396-132.2-396l0,0c32-31.4,47.5-42.3,100.7-53L811.8,835.5z"/>
	<path class="st278" d="M830.5,862.7c15.7-56.4,22.7-113.2,36.9-143.2c40.6-30.3,63.6-42.9,99.6-45.5l14.1-0.7
		c52.1-3.3,109.4,33.3,143.3,71.7l70.6,118.1c0,0,53.8,24.8,106,69.1c51.3,43.3,60.3,103.5,60.3,103.5s-31.8,269.3-171.1,313
		c-139.2,43.7-333.9-24.6-397.4-82.9c-119.9-110.2-123-357.7-123-357.7l0,0c29.7-29.1,45.5-39,94.2-47.5L830.5,862.7z"/>
	<path class="st279" d="M849.2,890c12.9-56.5,19.5-115.1,32.2-145.1c35.6-27.6,56.6-39.4,89-41.7l12.3-0.6
		c46.6-3,97.7,29.8,127.5,64.5l63.2,113.5c0,0,50.6,21.5,99.6,61.2c48.2,38.8,57.9,93.5,57.9,93.5s-25.7,248.4-154.3,288.7
		s-305.2-23.8-363.8-77.6C704.6,1147.3,698.8,927,698.8,927v0c27.4-26.9,43.5-35.7,87.8-41.9L849.2,890z"/>
	<path class="st280" d="M867.8,917.2c10.1-56.6,16.3-117,27.4-147c30.6-24.8,49.5-35.8,78.5-37.9l10.5-0.5
		c41.2-2.6,86,26.4,111.7,57.3l55.8,109c0,0,47.5,18.1,93.1,53.2c45,34.3,55.5,83.4,55.5,83.4s-19.7,227.4-137.6,264.4
		c-117.9,37-276.4-23.1-330.3-72.3c-96.3-88-104.7-281.1-104.7-281.1l0,0c25.2-24.7,41.5-32.4,81.3-36.4L867.8,917.2z"/>
	<path class="st281" d="M886.5,944.4c7.4-56.6,13.1-118.9,22.7-148.8c25.6-22,42.4-32.3,67.9-34.1l8.8-0.4
		c35.7-2.3,74.3,22.9,95.9,50.1l48.3,104.5c0,0,44.3,14.7,86.7,45.2c41.8,29.8,53.1,73.4,53.1,73.4s-13.6,206.4-120.8,240
		c-107.2,33.6-247.6-22.4-296.7-67c-84.5-76.9-95.5-242.8-95.5-242.8l0,0c22.9-22.4,39.5-29.1,74.8-30.8L886.5,944.4z"/>
	<path class="st282" d="M905.1,971.7c4.6-56.7,9.8-120.8,17.9-150.7c20.6-19.2,35.3-28.7,57.3-30.3l7-0.3
		c30.3-1.9,62.7,19.4,80.2,42.8l40.9,99.9c0,0,41.1,11.4,80.2,37.2c38.6,25.4,50.8,63.4,50.8,63.4s-7.5,185.4-104,215.7
		s-218.8-21.7-263.1-61.8c-72.7-65.8-86.4-204.5-86.4-204.5l0,0c20.6-20.2,37.5-25.8,68.4-25.3L905.1,971.7z"/>
	<path class="st283" d="M923.8,998.9c1.8-56.7,6.6-122.7,13.2-152.6c15.6-16.4,28.2-25.2,46.8-26.5l5.3-0.2
		c24.8-1.6,51,16,64.4,35.6l33.5,95.4c0,0,38,8.1,73.8,29.2c35.4,20.9,48.4,53.3,48.4,53.3s-1.4,164.4-87.3,191.4
		c-85.9,26.9-190.1-21-229.6-56.5c-60.9-54.7-77.2-166.2-77.2-166.2h0c18.3-18,35.5-22.5,61.9-19.7L923.8,998.9z"/>
	<path class="st284" d="M942.4,1026.1c-1-56.8,3.4-124.6,8.5-154.5c10.6-13.7,21.2-21.6,36.2-22.7l3.5-0.2
		c19.4-1.2,39.3,12.5,48.6,28.4l26,90.9c0,0,34.8,4.6,67.3,21.2c32.3,16.4,46,43.3,46,43.3s4.7,143.4-70.5,167
		c-75.2,23.6-161.3-20.3-196-51.2c-49.1-43.7-68-127.9-68-127.9v0c16.1-15.7,33.5-19.2,55.4-14.1L942.4,1026.1z"/>
	<path class="st285" d="M960.8,1053.4c-3.7-56.9,0.2-126.5,3.7-156.4c5.5-10.9,14.1-18.1,25.7-18.9l1.8-0.1
		c13.9-0.9,27.6,9,32.8,21.2l18.6,86.3c0,0,31.7,1.3,60.9,13.3c29.1,11.9,43.6,33.3,43.6,33.3s10.8,122.4-53.7,142.7
		c-64.6,20.3-132.4-19.6-162.5-46c-37.3-32.6-58.8-89.6-58.8-89.6h0c13.8-13.5,31.5-15.9,49-8.6L960.8,1053.4z"/>
	<path class="st255" d="M978.5,1080.6c-6.5-56.9-3-128.4-1-158.3c0.5-8.1,7-14.6,15.1-15.1h0c8.5-0.5,15.9,5.5,17,13.9l11.2,81.8
		c0,0,28.5-2.1,54.4,5.3c25.9,7.4,41.2,23.2,41.2,23.2s16.9,101.5-37,118.4c-53.9,16.9-103.6-19-128.9-40.7
		c-25.4-21.7-49.7-51.3-49.7-51.3l0,0c11.5-11.3,29.5-12.6,42.5-3L978.5,1080.6z"/>
</g>
</svg>
