<?xml version="1.0" encoding="utf-8"?>
<!-- Generator: Adobe Illustrator 19.2.0, SVG Export Plug-In . SVG Version: 6.00 Build 0)  -->
<svg version="1.1" id="Layer_1" xmlns="http://www.w3.org/2000/svg" xmlns:xlink="http://www.w3.org/1999/xlink" x="0px" y="0px"
	 viewBox="0 0 1426.7 1147" style="enable-background:new 0 0 1426.7 1147;" xml:space="preserve">
<style type="text/css">
	.st0{fill:#808080;}
	.st1{fill:url(#SVGID_1_);}
	.st2{fill:url(#SVGID_2_);}
	.st3{fill:url(#SVGID_3_);}
	.st4{fill:url(#SVGID_4_);}
	.st5{fill:url(#SVGID_5_);}
	.st6{fill:url(#SVGID_6_);}
	.st7{fill:url(#SVGID_7_);}
	.st8{fill:url(#SVGID_8_);}
	.st9{fill:url(#SVGID_9_);}
	.st10{fill:url(#SVGID_10_);}
	.st11{fill:url(#SVGID_11_);}
	.st12{fill:url(#SVGID_12_);}
	.st13{fill:url(#SVGID_13_);}
	.st14{fill:url(#SVGID_14_);}
	.st15{fill:url(#SVGID_15_);}
	.st16{fill:url(#SVGID_16_);}
	.st17{fill:url(#SVGID_17_);}
	.st18{fill:url(#SVGID_18_);}
	.st19{fill:url(#SVGID_19_);}
	.st20{fill:url(#SVGID_20_);}
	.st21{fill:url(#SVGID_21_);}
	.st22{fill:url(#SVGID_22_);}
	.st23{fill:url(#SVGID_23_);}
	.st24{fill:url(#SVGID_24_);}
	.st25{fill:url(#SVGID_25_);}
	.st26{fill:url(#SVGID_26_);}
	.st27{fill:url(#SVGID_27_);}
	.st28{fill:url(#SVGID_28_);}
	.st29{fill:url(#SVGID_29_);}
	.st30{fill:url(#SVGID_30_);}
	.st31{fill:url(#SVGID_31_);}
	.st32{fill:url(#SVGID_32_);}
	.st33{fill:url(#SVGID_33_);}
	.st34{fill:url(#SVGID_34_);}
	.st35{fill:url(#SVGID_35_);}
	.st36{fill:url(#SVGID_36_);}
	.st37{fill:url(#SVGID_37_);}
	.st38{fill:url(#SVGID_38_);}
	.st39{fill:url(#SVGID_39_);}
	.st40{fill:url(#SVGID_40_);}
	.st41{fill:url(#SVGID_41_);}
	.st42{fill:url(#SVGID_42_);}
	.st43{fill:url(#SVGID_43_);}
	.st44{fill:url(#SVGID_44_);}
	.st45{fill:url(#SVGID_45_);}
	.st46{fill:url(#SVGID_46_);}
	.st47{fill:url(#SVGID_47_);}
	.st48{fill:url(#SVGID_48_);}
	.st49{fill:url(#SVGID_49_);}
	.st50{fill:url(#SVGID_50_);}
	.st51{fill:url(#SVGID_51_);}
	.st52{fill:url(#SVGID_52_);}
	.st53{fill:url(#SVGID_53_);}
	.st54{fill:url(#SVGID_54_);}
	.st55{fill:url(#SVGID_55_);}
	.st56{fill:url(#SVGID_56_);}
	.st57{fill:url(#SVGID_57_);}
	.st58{fill:url(#SVGID_58_);}
	.st59{fill:url(#SVGID_59_);}
	.st60{fill:url(#SVGID_60_);}
	.st61{fill:url(#SVGID_61_);}
	.st62{fill:url(#SVGID_62_);}
	.st63{fill:url(#SVGID_63_);}
	.st64{fill:url(#SVGID_64_);}
	.st65{fill:url(#SVGID_65_);}
	.st66{fill:url(#SVGID_66_);}
	.st67{fill:url(#SVGID_67_);}
	.st68{fill:url(#SVGID_68_);}
	.st69{fill:url(#SVGID_69_);}
	.st70{fill:url(#SVGID_70_);}
	.st71{fill:url(#SVGID_71_);}
	.st72{fill:url(#SVGID_72_);}
	.st73{fill:url(#SVGID_73_);}
	.st74{fill:url(#SVGID_74_);}
	.st75{fill:url(#SVGID_75_);}
	.st76{fill:url(#SVGID_76_);}
	.st77{fill:url(#SVGID_77_);}
	.st78{fill:url(#SVGID_78_);}
	.st79{fill:url(#SVGID_79_);}
	.st80{fill:url(#SVGID_80_);}
	.st81{fill:url(#SVGID_81_);}
	.st82{fill:url(#SVGID_82_);}
	.st83{fill:url(#SVGID_83_);}
	.st84{fill:url(#SVGID_84_);}
	.st85{fill:url(#SVGID_85_);}
	.st86{fill:url(#SVGID_86_);}
	.st87{fill:url(#SVGID_87_);}
	.st88{fill:url(#SVGID_88_);}
	.st89{fill:url(#SVGID_89_);}
	.st90{fill:url(#SVGID_90_);}
	.st91{fill:url(#SVGID_91_);}
	.st92{fill:url(#SVGID_92_);}
	.st93{fill:url(#SVGID_93_);}
	.st94{fill:url(#SVGID_94_);}
	.st95{fill:url(#SVGID_95_);}
	.st96{fill:url(#SVGID_96_);}
	.st97{fill:url(#SVGID_97_);}
	.st98{fill:url(#SVGID_98_);}
	.st99{fill:url(#SVGID_99_);}
	.st100{fill:url(#SVGID_100_);}
	.st101{fill:url(#SVGID_101_);}
	.st102{fill:url(#SVGID_102_);}
	.st103{fill:url(#SVGID_103_);}
	.st104{fill:url(#SVGID_104_);}
	.st105{fill:url(#SVGID_105_);}
	.st106{fill:url(#SVGID_106_);}
	.st107{fill:url(#SVGID_107_);}
	.st108{fill:url(#SVGID_108_);}
	.st109{fill:url(#SVGID_109_);}
	.st110{fill:url(#SVGID_110_);}
	.st111{fill:url(#SVGID_111_);}
	.st112{fill:url(#SVGID_112_);}
	.st113{fill:url(#SVGID_113_);}
	.st114{fill:url(#SVGID_114_);}
	.st115{fill:url(#SVGID_115_);}
	.st116{fill:url(#SVGID_116_);}
	.st117{fill:url(#SVGID_117_);}
	.st118{fill:url(#SVGID_118_);}
	.st119{fill:url(#SVGID_119_);}
	.st120{fill:url(#SVGID_120_);}
	.st121{fill:url(#SVGID_121_);}
	.st122{fill:url(#SVGID_122_);}
	.st123{fill:url(#SVGID_123_);}
	.st124{fill:url(#SVGID_124_);}
	.st125{fill:url(#SVGID_125_);}
	.st126{fill:url(#SVGID_126_);}
	.st127{fill:url(#SVGID_127_);}
	.st128{fill:url(#SVGID_128_);}
	.st129{fill:url(#SVGID_129_);}
	.st130{fill:url(#SVGID_130_);}
	.st131{fill:url(#SVGID_131_);}
	.st132{fill:url(#SVGID_132_);}
	.st133{fill:url(#SVGID_133_);}
	.st134{fill:url(#SVGID_134_);}
	.st135{fill:url(#SVGID_135_);}
	.st136{fill:url(#SVGID_136_);}
	.st137{fill:url(#SVGID_137_);}
	.st138{fill:url(#SVGID_138_);}
	.st139{fill:url(#SVGID_139_);}
	.st140{fill:url(#SVGID_140_);}
	.st141{fill:url(#SVGID_141_);}
	.st142{fill:url(#SVGID_142_);}
	.st143{fill:url(#SVGID_143_);}
	.st144{fill:url(#SVGID_144_);}
	.st145{fill:url(#SVGID_145_);}
	.st146{fill:url(#SVGID_146_);}
	.st147{fill:url(#SVGID_147_);}
	.st148{fill:url(#SVGID_148_);}
	.st149{fill:url(#SVGID_149_);}
	.st150{fill:url(#SVGID_150_);}
	.st151{fill:url(#SVGID_151_);}
	.st152{fill:url(#SVGID_152_);}
	.st153{fill:url(#SVGID_153_);}
	.st154{fill:url(#SVGID_154_);}
	.st155{fill:url(#SVGID_155_);}
	.st156{fill:url(#SVGID_156_);}
	.st157{fill:url(#SVGID_157_);}
	.st158{fill:url(#SVGID_158_);}
	.st159{fill:url(#SVGID_159_);}
	.st160{fill:url(#SVGID_160_);}
	.st161{fill:url(#SVGID_161_);}
	.st162{fill:url(#SVGID_162_);}
	.st163{fill:url(#SVGID_163_);}
	.st164{fill:url(#SVGID_164_);}
	.st165{fill:url(#SVGID_165_);}
	.st166{fill:url(#SVGID_166_);}
	.st167{fill:url(#SVGID_167_);}
	.st168{fill:url(#SVGID_168_);}
	.st169{fill:url(#SVGID_169_);}
	.st170{fill:url(#SVGID_170_);}
	.st171{fill:url(#SVGID_171_);}
	.st172{fill:url(#SVGID_172_);}
	.st173{fill:url(#SVGID_173_);}
	.st174{fill:url(#SVGID_174_);}
	.st175{fill:url(#SVGID_175_);}
	.st176{fill:url(#SVGID_176_);}
	.st177{fill:url(#SVGID_177_);}
	.st178{fill:url(#SVGID_178_);}
	.st179{fill:url(#SVGID_179_);}
	.st180{fill:url(#SVGID_180_);}
	.st181{fill:url(#SVGID_181_);}
	.st182{fill:url(#SVGID_182_);}
	.st183{fill:url(#SVGID_183_);}
	.st184{fill:url(#SVGID_184_);}
	.st185{fill:url(#SVGID_185_);}
	.st186{fill:url(#SVGID_186_);}
	.st187{fill:url(#SVGID_187_);}
	.st188{fill:url(#SVGID_188_);}
	.st189{fill:url(#SVGID_189_);}
	.st190{fill:url(#SVGID_190_);}
	.st191{fill:url(#SVGID_191_);}
	.st192{fill:url(#SVGID_192_);}
	.st193{fill:url(#SVGID_193_);}
	.st194{fill:url(#SVGID_194_);}
	.st195{fill:url(#SVGID_195_);}
	.st196{fill:url(#SVGID_196_);}
	.st197{fill:url(#SVGID_197_);}
	.st198{fill:url(#SVGID_198_);}
	.st199{fill:url(#SVGID_199_);}
	.st200{fill:url(#SVGID_200_);}
	.st201{fill:url(#SVGID_201_);}
	.st202{fill:url(#SVGID_202_);}
	.st203{fill:url(#SVGID_203_);}
	.st204{fill:url(#SVGID_204_);}
	.st205{fill:url(#SVGID_205_);}
	.st206{fill:url(#SVGID_206_);}
	.st207{fill:url(#SVGID_207_);}
	.st208{fill:url(#SVGID_208_);}
	.st209{fill:url(#SVGID_209_);}
	.st210{fill:url(#SVGID_210_);}
	.st211{fill:url(#SVGID_211_);}
	.st212{fill:url(#SVGID_212_);}
	.st213{fill:url(#SVGID_213_);}
	.st214{fill:url(#SVGID_214_);}
	.st215{fill:url(#SVGID_215_);}
	.st216{fill:url(#SVGID_216_);}
	.st217{fill:url(#SVGID_217_);}
	.st218{fill:url(#SVGID_218_);}
	.st219{fill:url(#SVGID_219_);}
	.st220{fill:url(#SVGID_220_);}
	.st221{fill:url(#SVGID_221_);}
	.st222{fill:url(#SVGID_222_);}
	.st223{fill:url(#SVGID_223_);}
	.st224{fill:url(#SVGID_224_);}
	.st225{fill:url(#SVGID_225_);}
	.st226{fill:url(#SVGID_226_);}
	.st227{fill:url(#SVGID_227_);}
	.st228{fill:url(#SVGID_228_);}
	.st229{fill:none;stroke:#905CFB;stroke-width:0.5;stroke-linecap:round;stroke-miterlimit:10;}
	.st230{fill:none;stroke:#945AF7;stroke-width:0.6346;stroke-linecap:round;stroke-miterlimit:10;}
	.st231{fill:none;stroke:#9959F2;stroke-width:0.7692;stroke-linecap:round;stroke-miterlimit:10;}
	.st232{fill:none;stroke:#9D57EE;stroke-width:0.9038;stroke-linecap:round;stroke-miterlimit:10;}
	.st233{fill:none;stroke:#A155EA;stroke-width:1.0385;stroke-linecap:round;stroke-miterlimit:10;}
	.st234{fill:none;stroke:#A554E6;stroke-width:1.1731;stroke-linecap:round;stroke-miterlimit:10;}
	.st235{fill:none;stroke:#AA52E1;stroke-width:1.3077;stroke-linecap:round;stroke-miterlimit:10;}
	.st236{fill:none;stroke:#AE50DD;stroke-width:1.4423;stroke-linecap:round;stroke-miterlimit:10;}
	.st237{fill:none;stroke:#B24FD9;stroke-width:1.5769;stroke-linecap:round;stroke-miterlimit:10;}
	.st238{fill:none;stroke:#B64DD5;stroke-width:1.7115;stroke-linecap:round;stroke-miterlimit:10;}
	.st239{fill:none;stroke:#BB4BD0;stroke-width:1.8462;stroke-linecap:round;stroke-miterlimit:10;}
	.st240{fill:none;stroke:#BF4ACC;stroke-width:1.9808;stroke-linecap:round;stroke-miterlimit:10;}
	.st241{fill:none;stroke:#C348C8;stroke-width:2.1154;stroke-linecap:round;stroke-miterlimit:10;}
	.st242{fill:none;stroke:#C747C4;stroke-width:2.25;stroke-linecap:round;stroke-miterlimit:10;}
	.st243{fill:none;stroke:#CC45BF;stroke-width:2.3846;stroke-linecap:round;stroke-miterlimit:10;}
	.st244{fill:none;stroke:#D043BB;stroke-width:2.5192;stroke-linecap:round;stroke-miterlimit:10;}
	.st245{fill:none;stroke:#D442B7;stroke-width:2.6538;stroke-linecap:round;stroke-miterlimit:10;}
	.st246{fill:none;stroke:#D940B2;stroke-width:2.7885;stroke-linecap:round;stroke-miterlimit:10;}
	.st247{fill:none;stroke:#DD3EAE;stroke-width:2.9231;stroke-linecap:round;stroke-miterlimit:10;}
	.st248{fill:none;stroke:#E13DAA;stroke-width:3.0577;stroke-linecap:round;stroke-miterlimit:10;}
	.st249{fill:none;stroke:#E53BA6;stroke-width:3.1923;stroke-linecap:round;stroke-miterlimit:10;}
	.st250{fill:none;stroke:#EA39A1;stroke-width:3.3269;stroke-linecap:round;stroke-miterlimit:10;}
	.st251{fill:none;stroke:#EE389D;stroke-width:3.4615;stroke-linecap:round;stroke-miterlimit:10;}
	.st252{fill:none;stroke:#F23699;stroke-width:3.5962;stroke-linecap:round;stroke-miterlimit:10;}
	.st253{fill:none;stroke:#F63495;stroke-width:3.7308;stroke-linecap:round;stroke-miterlimit:10;}
	.st254{fill:none;stroke:#FB3390;stroke-width:3.8654;stroke-linecap:round;stroke-miterlimit:10;}
	.st255{fill:none;stroke:#FF318C;stroke-width:4;stroke-linecap:round;stroke-miterlimit:10;}
	.st256{fill:none;stroke:#945BF7;stroke-width:0.6129;stroke-linecap:round;stroke-miterlimit:10;}
	.st257{fill:none;stroke:#9759F4;stroke-width:0.7258;stroke-linecap:round;stroke-miterlimit:10;}
	.st258{fill:none;stroke:#9B58F0;stroke-width:0.8387;stroke-linecap:round;stroke-miterlimit:10;}
	.st259{fill:none;stroke:#9E56ED;stroke-width:0.9516;stroke-linecap:round;stroke-miterlimit:10;}
	.st260{fill:none;stroke:#A255E9;stroke-width:1.0645;stroke-linecap:round;stroke-miterlimit:10;}
	.st261{fill:none;stroke:#A554E6;stroke-width:1.1774;stroke-linecap:round;stroke-miterlimit:10;}
	.st262{fill:none;stroke:#A952E2;stroke-width:1.2903;stroke-linecap:round;stroke-miterlimit:10;}
	.st263{fill:none;stroke:#AD51DE;stroke-width:1.4032;stroke-linecap:round;stroke-miterlimit:10;}
	.st264{fill:none;stroke:#B050DB;stroke-width:1.5161;stroke-linecap:round;stroke-miterlimit:10;}
	.st265{fill:none;stroke:#B44ED7;stroke-width:1.629;stroke-linecap:round;stroke-miterlimit:10;}
	.st266{fill:none;stroke:#B74DD4;stroke-width:1.7419;stroke-linecap:round;stroke-miterlimit:10;}
	.st267{fill:none;stroke:#BB4BD0;stroke-width:1.8548;stroke-linecap:round;stroke-miterlimit:10;}
	.st268{fill:none;stroke:#BF4ACC;stroke-width:1.9677;stroke-linecap:round;stroke-miterlimit:10;}
	.st269{fill:none;stroke:#C249C9;stroke-width:2.0806;stroke-linecap:round;stroke-miterlimit:10;}
	.st270{fill:none;stroke:#C647C5;stroke-width:2.1935;stroke-linecap:round;stroke-miterlimit:10;}
	.st271{fill:none;stroke:#C946C2;stroke-width:2.3065;stroke-linecap:round;stroke-miterlimit:10;}
	.st272{fill:none;stroke:#CD44BE;stroke-width:2.4194;stroke-linecap:round;stroke-miterlimit:10;}
	.st273{fill:none;stroke:#D043BB;stroke-width:2.5323;stroke-linecap:round;stroke-miterlimit:10;}
	.st274{fill:none;stroke:#D442B7;stroke-width:2.6452;stroke-linecap:round;stroke-miterlimit:10;}
	.st275{fill:none;stroke:#D840B3;stroke-width:2.7581;stroke-linecap:round;stroke-miterlimit:10;}
	.st276{fill:none;stroke:#DB3FB0;stroke-width:2.871;stroke-linecap:round;stroke-miterlimit:10;}
	.st277{fill:none;stroke:#DF3DAC;stroke-width:2.9839;stroke-linecap:round;stroke-miterlimit:10;}
	.st278{fill:none;stroke:#E23CA9;stroke-width:3.0968;stroke-linecap:round;stroke-miterlimit:10;}
	.st279{fill:none;stroke:#E63BA5;stroke-width:3.2097;stroke-linecap:round;stroke-miterlimit:10;}
	.st280{fill:none;stroke:#EA39A1;stroke-width:3.3226;stroke-linecap:round;stroke-miterlimit:10;}
	.st281{fill:none;stroke:#ED389E;stroke-width:3.4355;stroke-linecap:round;stroke-miterlimit:10;}
	.st282{fill:none;stroke:#F1379A;stroke-width:3.5484;stroke-linecap:round;stroke-miterlimit:10;}
	.st283{fill:none;stroke:#F43597;stroke-width:3.6613;stroke-linecap:round;stroke-miterlimit:10;}
	.st284{fill:none;stroke:#F83493;stroke-width:3.7742;stroke-linecap:round;stroke-miterlimit:10;}
	.st285{fill:none;stroke:#FB3290;stroke-width:3.8871;stroke-linecap:round;stroke-miterlimit:10;}
	.st286{fill:#161616;}
	.st287{fill:#E6E6E6;}
	.st288{fill:url(#SVGID_229_);}
	.st289{fill:url(#SVGID_230_);}
	.st290{fill:url(#SVGID_231_);}
	.st291{fill:url(#SVGID_232_);}
	.st292{fill:url(#SVGID_233_);}
	.st293{fill:url(#SVGID_234_);}
	.st294{fill:url(#SVGID_235_);}
	.st295{fill:url(#SVGID_236_);}
	.st296{fill:url(#SVGID_237_);}
	.st297{fill:url(#SVGID_238_);}
	.st298{fill:#FFFFFF;}
	.st299{fill:url(#SVGID_239_);}
	.st300{fill:url(#SVGID_240_);}
	.st301{fill:url(#SVGID_241_);}
	.st302{fill:url(#SVGID_242_);}
	.st303{fill:url(#SVGID_243_);}
	.st304{fill:url(#SVGID_244_);}
	.st305{fill:url(#SVGID_245_);}
	.st306{fill:url(#SVGID_246_);}
	.st307{fill:url(#SVGID_247_);}
	.st308{fill:url(#SVGID_248_);}
	.st309{fill:#FF318C;}
	.st310{fill:#AE51DD;}
	.st311{fill:#5D7DF7;}
	.st312{fill:#0CB0F2;}
	.st313{fill:#19A8F3;}
</style>
<g>
	<path class="st229" d="M0.2,1134.1c0.3-101.6,16-201.3,46.7-296.1c6.7-20.6,14-40.8,22-60.6c3.8-44.9,11.1-89.2,21.6-132.3
		c8.5-57.8,22.4-114.3,41.4-169c32.3-93.1,78.2-176.5,136.3-247.9c29-35.6,84.8-106,200.7-166.5C547.8,20.7,631,0,716.5,0.3
		l177.2,0.6c181.9,0,389.5,205,388.7,456.5v0c5.6,14.2,10.9,28.6,15.9,43.2c11.9,35,21.6,70.7,29.3,107.1
		c15.4,52.7,25.6,106.9,30.7,162.3c4.8,12.1,9.4,24.3,13.8,36.7c37.5,106.7,55.7,221.1,54.3,340"/>
	<path class="st230" d="M24.1,1122.7L24.1,1122.7c0.2-72.3,9.1-143.5,25.9-212c6.5-25.6,13.7-50.7,21.8-75.5
		c2-6.2,4.1-12.3,6.1-18.4c4.7-13.8,9.6-27.3,14.8-40.7c0.4-5.9,0.9-11.7,1.5-17.5c2.4-24.6,5.8-48.8,10.4-72.9
		c0.5-2.4,0.8-4.7,1.3-7.1c2-10.3,4.1-20.7,6.6-31.1c6.6-44.8,16.5-89.4,29.7-132.3c3.2-10.4,6.6-20.7,10.2-31
		c7.4-21.3,15.6-42,24.5-62.1l0,0c28.4-64.9,64.2-125,106.9-177.4c27.9-34.7,81.7-102.8,193.5-161.3c76-39.8,156.5-59.9,239.1-59.7
		l79.1,0.7c0.2,0,91.6,0.3,91.8,0.4c121.3,17.3,256.8,96.5,326.6,237c18.4,36.9,32.4,77.6,40.5,119.7c0.9,4.5,1.7,9.1,2.5,13.7
		c3.8,23,5.8,46.8,5.8,71c0,0,0,0,0,0c2.1,5.3,4.2,10.6,6.2,16c3.2,8.5,6.2,17.1,9.2,25.8c11.4,33.7,20.8,68.6,28.1,103.5
		c3.2,11.1,6,22.2,8.6,33.3c0.6,2.5,1.1,5.1,1.7,7.6c6.5,28.1,11.4,56.3,14.8,85c1.3,10.5,2.3,21.1,3.2,31.8
		c3.5,8.9,6.8,17.9,10.1,27c1,2.9,2.1,5.8,3.1,8.8c10.7,30.7,20,61.8,28.2,93.8c3.7,15.4,7.3,31,10.2,46.6
		c11.2,60.7,17.4,123.8,16.6,189.5"/>
	<path class="st231" d="M47.9,1111.2L47.9,1111.2c0.2-70.5,9.6-139.7,26.7-205.9c6.9-24.8,14-49,21.9-73c2-6,4-12,6-18
		c4.5-13.5,9.1-26.7,14-39.6c0.4-5.7,0.8-11.4,1.3-17c2.1-23.9,5.2-47.4,9.6-71c0.4-2.3,0.7-4.6,1.2-6.8c1.7-9.9,3.7-20,6.1-30.2
		c6.4-43,15.9-86.5,28.5-127.7c3-10,6.3-20,9.8-29.9c7.2-20.5,15.2-40.4,23.9-59.8l0,0C224,370,258.4,311.2,299.3,260.9
		c26.8-33.8,78.7-99.6,186.3-156.1c73.3-38.5,151-58,230.8-57.8l75.9,1.1c0.3,0,88.3,0.4,88.6,0.4C998,65.3,1128.7,142,1195.6,277.7
		c17.7,35.5,31.1,75.2,38.9,115.6c0.8,4.4,1.7,8.7,2.5,13.1c3.8,22.1,5.8,45,5.9,68.4c0,0,0,0,0,0c2,5.1,4,10.3,5.9,15.4
		c3,8.1,6,16.6,8.8,24.9c11,32.3,20,66.4,27,99.9c3.1,10.8,5.6,21.6,8,32.3c0.6,2.4,1,4.9,1.6,7.3c6.1,27.4,10.6,54.8,13.8,82.6
		c1.2,10.2,2.1,20.5,2.9,30.9c3.3,8.6,6.5,17.4,9.6,26.3c1,2.8,2,5.7,3,8.5c10.3,29.7,19.4,59.7,28.1,90.8
		c3.7,14.8,7.5,30,10.4,45.1c11,58.3,18,119.3,17.2,183.9"/>
	<path class="st232" d="M71.7,1099.7L71.7,1099.7c0.2-68.7,10.1-136,27.5-199.7c7.2-24.1,14.3-47.4,22-70.6
		c1.9-5.8,3.8-11.6,5.8-17.5c4.3-13.2,8.6-26.1,13.2-38.6c0.3-5.6,0.6-11.1,1.1-16.5c1.9-23.2,4.6-45.9,8.7-69
		c0.4-2.2,0.6-4.4,1-6.5c1.5-9.5,3.2-19.4,5.5-29.2c6.1-41.2,15.2-83.7,27.3-123.1c2.9-9.7,6.1-19.3,9.5-28.8
		c7-19.7,14.8-38.9,23.2-57.4l0,0c26.1-59.7,59.1-117.2,98.3-165.4c25.7-32.9,75.6-96.4,179-150.8c70.6-37.3,145.5-56.1,222.4-55.9
		l72.7,1.5c0.5,0,85,0.4,85.4,0.5c113,16.3,238.8,90.5,303,221.4c17,34,29.8,72.7,37.2,111.5c0.8,4.2,1.8,8.4,2.4,12.6
		c3.8,21.2,5.9,43.2,5.9,65.7c0,0,0,0,0,0c2,4.9,3.8,9.9,5.7,14.9c2.9,7.8,5.7,16.1,8.4,24c10.5,31,19.1,64.2,25.9,96.3
		c2.9,10.5,5.3,21,7.3,31.2c0.6,2.3,0.8,4.7,1.4,7c5.8,26.8,9.9,53.2,12.7,80.3c1,9.8,1.8,19.8,2.5,30c3.1,8.4,6.1,16.9,9.1,25.6
		c1,2.8,1.9,5.5,2.9,8.3c9.9,28.8,18.9,57.6,28,87.7c3.7,14.2,7.7,29,10.5,43.5c10.7,55.8,18.6,114.7,17.8,178.4"/>
	<path class="st233" d="M95.6,1088.3L95.6,1088.3c0.2-66.9,10.6-132.2,28.3-193.6c7.6-23.4,14.7-45.8,22.1-68.1
		c1.9-5.6,3.7-11.3,5.6-17c4.1-12.9,8.1-25.4,12.4-37.6c0.2-5.4,0.5-10.8,0.9-16c1.6-22.6,4-44.5,7.9-67.1c0.4-2.1,0.4-4.2,0.8-6.3
		c1.2-9.1,2.7-18.7,4.9-28.3c5.8-39.4,14.5-80.8,26.1-118.6c2.8-9.3,5.9-18.6,9.1-27.8c6.8-19,14.4-37.4,22.5-55.1l0,0
		c25-57.1,56.5-113.3,94-159.4c24.5-32,72.5-93.2,171.8-145.6c67.9-36,140-54.2,214.1-54l69.6,1.8c0.6,0,81.6,0.4,82.2,0.5
		c108.8,15.8,229.8,87.5,291.2,213.6c16.2,32.5,28.5,70.3,35.6,107.4c0.8,4,1.8,8,2.4,12c3.8,20.3,5.9,41.4,6,63.1c0,0,0,0,0,0
		c1.9,4.7,3.7,9.5,5.5,14.3c2.8,7.4,5.5,15.5,8.1,23.1c10.1,29.6,18.3,62,24.8,92.8c2.8,10.2,4.9,20.4,6.7,30.2
		c0.6,2.2,0.7,4.5,1.2,6.7c5.5,26.1,9.1,51.7,11.6,77.9c0.9,9.5,1.6,19.1,2.1,29.1c2.9,8.1,5.8,16.4,8.6,24.9
		c0.9,2.7,1.8,5.4,2.7,8.1c9.5,27.8,18.3,55.5,27.9,84.7c3.6,13.7,8,28,10.7,41.9c10.5,53.3,19.2,110.1,18.4,172.9"/>
	<path class="st234" d="M119.4,1076.8L119.4,1076.8c0.2-65,11.1-128.5,29.1-187.5c8-22.6,15-44.2,22.3-65.7c1.9-5.5,3.6-11,5.4-16.6
		c4-12.6,7.6-24.8,11.6-36.5c0.1-5.3,0.3-10.5,0.7-15.6c1.3-21.9,3.4-43.1,7-65.2c0.4-2,0.3-4,0.7-6c1-8.7,2.3-18,4.4-27.3
		c5.6-37.6,13.9-78,24.9-114c2.7-9,5.6-17.9,8.8-26.7c6.5-18.2,13.9-35.8,21.9-52.7l0,0c23.8-54.5,53.9-109.4,89.8-153.4
		c23.4-31.1,69.5-90,164.6-140.4c65.1-34.7,134.5-52.3,205.7-52.1l66.4,2.2c0.8,0,78.3,0.5,79,0.6
		c104.7,15.4,220.8,84.6,279.4,205.8c15.5,31,27.2,67.9,34,103.3c0.7,3.8,1.8,7.6,2.4,11.5c3.7,19.4,5.9,39.6,6,60.5c0,0,0,0,0,0
		c1.8,4.6,3.5,9.2,5.2,13.8c2.7,7.1,5.2,15,7.7,22.2c9.6,28.3,17.5,59.9,23.6,89.2c2.7,10,4.5,19.9,6,29.2c0.5,2.1,0.5,4.3,1,6.4
		c5.2,25.5,8.4,50.2,10.6,75.6c0.8,9.2,1.3,18.5,1.7,28.2c2.7,7.9,5.4,15.9,8.2,24.2c0.9,2.6,1.7,5.2,2.6,7.9
		c9.1,26.9,17.7,53.4,27.9,81.7c3.6,13.1,8.2,26.9,10.9,40.4c10.2,50.9,19.8,105.6,19,167.3"/>
	<path class="st235" d="M143.2,1065.3L143.2,1065.3c0.2-63.2,11.6-124.7,30-181.3c8.4-21.9,15.3-42.6,22.4-63.3
		c1.8-5.3,3.5-10.6,5.2-16.1c3.8-12.3,7.2-24.1,10.8-35.5c0-5.1,0.2-10.1,0.4-15.1c1-21.3,2.8-41.7,6.2-63.2
		c0.4-1.9,0.1-3.8,0.5-5.7c0.7-8.3,1.8-17.3,3.8-26.4c5.3-35.8,13.2-75.1,23.7-109.4c2.5-8.6,5.4-17.1,8.4-25.6
		c6.3-17.4,13.5-34.3,21.2-50.4l0,0c22.7-51.9,51.3-105.5,85.5-147.4c22.3-30.2,66.4-86.8,157.4-135.2
		c62.4-33.4,128.9-50.4,197.4-50.3l63.2,2.6c1,0,74.9,0.5,75.8,0.6c100.5,14.9,211.7,81.6,267.6,198c14.7,29.5,25.9,65.4,32.4,99.2
		c0.7,3.6,1.8,7.3,2.3,10.9c3.7,18.4,5.9,37.9,6.1,57.8c0,0,0,0,0,0c1.7,4.4,3.4,8.8,5,13.2c2.5,6.8,5,14.4,7.3,21.3
		c9.1,26.9,16.6,57.7,22.5,85.6c2.6,9.7,4.1,19.3,5.4,28.1c0.5,2,0.4,4.1,0.9,6.1c4.8,24.9,7.6,48.6,9.5,73.2
		c0.7,8.8,1.1,17.8,1.4,27.2c2.5,7.6,5.1,15.4,7.7,23.5c0.8,2.6,1.7,5.1,2.5,7.6c8.7,26,17.2,51.2,27.8,78.7
		c3.6,12.5,8.4,25.9,11,38.8c9.9,48.4,20.4,101,19.6,161.8"/>
	<path class="st236" d="M167,1053.9L167,1053.9c0.2-61.4,12.1-120.9,30.8-175.2c8.7-21.2,15.7-41,22.5-60.8c1.8-5.1,3.4-10.3,5-15.6
		c3.6-12,6.7-23.5,10-34.5c0-5,0-9.8,0.2-14.6c0.8-20.6,2.2-40.3,5.3-61.3c0.4-1.8,0-3.6,0.4-5.4c0.5-7.9,1.3-16.6,3.2-25.4
		c5-34,12.6-72.2,22.6-104.8c2.4-8.2,5.1-16.4,8.1-24.5c6.1-16.7,13.1-32.8,20.5-48.1l0,0c21.6-49.3,48.8-101.6,81.2-141.4
		c21.2-29.3,63.3-83.7,150.2-130c59.7-32.1,123.4-48.6,189-48.4l60.1,3c1.1,0,71.6,0.5,72.6,0.7c96.4,14.4,202.7,78.6,255.7,190.1
		c14,28.1,24.6,63,30.8,95c0.7,3.4,1.8,6.9,2.3,10.4c3.7,17.5,5.9,36.1,6.1,55.2c0,0,0,0,0,0c1.7,4.2,3.2,8.4,4.8,12.7
		c2.4,6.4,4.7,13.9,7,20.5c8.7,25.6,15.8,55.5,21.4,82.1c2.4,9.4,3.8,18.7,4.7,27.1c0.5,1.9,0.2,3.9,0.7,5.8
		c4.5,24.2,6.9,47.1,8.4,70.9c0.5,8.5,0.8,17.2,1,26.3c2.4,7.4,4.7,15,7.2,22.8c0.8,2.5,1.6,5,2.4,7.4c8.3,25,16.6,49.1,27.7,75.6
		c3.6,12,8.6,24.9,11.2,37.2c9.7,45.9,21,96.4,20.3,156.3"/>
	<path class="st237" d="M190.9,1042.4L190.9,1042.4c0.2-59.6,12.6-117.2,31.6-169.1c9.1-20.4,16-39.4,22.7-58.4
		c1.7-5,3.3-10,4.8-15.2c3.4-11.7,6.2-22.8,9.2-33.4c-0.1-4.8-0.1-9.5,0-14.1c0.5-20,1.6-38.9,4.5-59.4c0.3-1.7-0.2-3.4,0.2-5.1
		c0.3-7.4,0.8-15.9,2.6-24.5c4.8-32.2,11.9-69.4,21.4-100.2c2.3-7.9,4.9-15.7,7.8-23.4c5.9-15.9,12.7-31.2,19.8-45.7l0,0
		c20.4-46.7,46.2-97.7,76.9-135.4c20.1-28.4,60.4-80.3,142.9-124.8c57-30.7,117.9-46.7,180.7-46.5l56.9,3.4c1.3,0,68.2,0.6,69.4,0.7
		c92.2,13.9,193.7,75.6,243.9,182.3c13.3,26.6,23.3,60.6,29.1,90.9c0.6,3.3,1.8,6.6,2.3,9.9c3.7,16.6,5.9,34.3,6.2,52.6c0,0,0,0,0,0
		c1.6,4,3.1,8.1,4.5,12.1c2.3,6.1,4.5,13.4,6.6,19.6c8.2,24.2,15,53.3,20.3,78.5c2.3,9.1,3.4,18.1,4.1,26.1c0.5,1.8,0.1,3.7,0.5,5.5
		c4.2,23.6,6.1,45.5,7.4,68.6c0.4,8.1,0.5,16.5,0.6,25.4c2.2,7.1,4.4,14.5,6.7,22.1c0.8,2.4,1.5,4.8,2.3,7.2
		c7.9,24.1,16,47,27.6,72.6c3.5,11.4,8.8,23.9,11.4,35.7c9.4,43.5,21.6,91.9,20.9,150.7"/>
	<path class="st238" d="M214.7,1030.9L214.7,1030.9c0.1-57.8,13.1-113.4,32.4-162.9c9.5-19.7,16.4-37.7,22.8-55.9
		c1.7-4.8,3.2-9.6,4.6-14.7c3.2-11.4,5.7-22.2,8.4-32.4c-0.2-4.7-0.3-9.2-0.2-13.6c0.2-19.4,1-37.5,3.6-57.4c0.3-1.6-0.3-3.2,0-4.8
		c0-7,0.4-15.2,2.1-23.5c4.5-30.4,11.2-66.5,20.2-95.7c2.2-7.5,4.7-15,7.4-22.3c5.7-15.1,12.3-29.7,19.2-43.4l0,0
		c19.3-44.1,43.6-93.7,72.7-129.4c19-27.5,57.3-77.1,135.7-119.5c54.3-29.4,112.4-44.8,172.4-44.6l53.8,3.8c1.4,0,64.9,0.6,66.3,0.8
		c88.1,13.4,184.7,72.6,232.1,174.5c12.5,25.1,22,58.1,27.5,86.8c0.6,3.1,1.8,6.2,2.3,9.3c3.7,15.7,5.9,32.5,6.2,49.9c0,0,0,0,0,0
		c1.5,3.8,2.9,7.7,4.3,11.6c2.2,5.8,4.2,12.8,6.2,18.7c7.8,22.9,14.2,51.2,19.1,74.9c2.2,8.9,3,17.5,3.5,25c0.4,1.7-0.1,3.5,0.3,5.2
		c3.8,22.9,5.4,44,6.3,66.2c0.3,7.8,0.3,15.8,0.3,24.5c2,6.9,4,14,6.2,21.4c0.7,2.3,1.4,4.7,2.2,7c7.5,23.1,15.5,44.9,27.6,69.6
		c3.5,10.8,9,22.9,11.5,34.1c9.1,41,22.2,87.3,21.5,145.2"/>
	<path class="st239" d="M238.5,1019.5L238.5,1019.5c0.1-55.9,13.6-109.7,33.2-156.8c9.9-19,16.7-36.1,22.9-53.5
		c1.7-4.6,3.1-9.3,4.5-14.3c3-11.1,5.2-21.5,7.6-31.4c-0.3-4.5-0.4-8.9-0.4-13.1c-0.1-18.7,0.4-36,2.8-55.5c0.3-1.5-0.4-3-0.1-4.5
		c-0.2-6.6-0.1-14.5,1.5-22.6c4.2-28.7,10.6-63.6,19-91.1c2-7.2,4.4-14.3,7.1-21.2c5.4-14.4,11.8-28.2,18.5-41l0,0
		c18.2-41.5,41.1-89.8,68.4-123.4c17.8-26.6,54.2-73.8,128.5-114.3c51.6-28.1,106.9-42.9,164-42.7l50.6,4.2c1.6,0,61.6,0.6,63.1,0.8
		c83.9,12.9,175.7,69.7,220.3,166.7c11.8,23.6,20.7,55.7,25.9,82.7c0.6,2.9,1.8,5.8,2.2,8.8c3.6,14.8,5.9,30.7,6.3,47.3c0,0,0,0,0,0
		c1.4,3.6,2.8,7.3,4.1,11c2,5.4,4,12.3,5.9,17.8c7.3,21.5,13.3,49,18,71.3c2,8.6,2.6,16.9,2.8,24c0.4,1.6-0.2,3.3,0.1,4.9
		c3.5,22.3,4.7,42.4,5.2,63.9c0.2,7.4,0,15.2-0.1,23.6c1.8,6.6,3.7,13.5,5.7,20.7c0.7,2.3,1.3,4.5,2,6.7
		c7.1,22.2,14.9,42.8,27.5,66.6c3.5,10.2,9.3,21.8,11.7,32.5c8.9,38.5,22.8,82.7,22.1,139.7"/>
	<path class="st240" d="M262.3,1008L262.3,1008c0.1-54.1,14.1-105.9,34-150.6c10.3-18.2,17-34.5,23-51c1.6-4.5,3-9,4.3-13.8
		c2.8-10.8,4.7-20.9,6.8-30.3c-0.3-4.4-0.6-8.6-0.6-12.6c-0.4-18.1-0.2-34.6,1.9-53.6c0.3-1.4-0.6-2.8-0.3-4.3
		c-0.5-6.2-0.6-13.8,0.9-21.6c4-26.9,9.9-60.8,17.8-86.5c1.9-6.8,4.2-13.5,6.7-20.2c5.2-13.6,11.4-26.6,17.8-38.7l0,0
		c17-38.9,38.5-85.9,64.1-117.4c16.7-25.6,51.2-70.6,121.3-109.1c48.9-26.8,101.4-41,155.7-40.8l47.4,4.6c1.8,0,58.2,0.6,59.9,0.9
		c79.8,12.4,166.7,66.7,208.5,158.9c11.1,22.2,19.4,53.3,24.3,78.6c0.5,2.7,1.8,5.5,2.2,8.2c3.6,13.8,6,28.9,6.3,44.7c0,0,0,0,0,0
		c1.4,3.5,2.6,7,3.8,10.5c1.9,5.1,3.7,11.7,5.5,16.9c6.9,20.2,12.5,46.8,16.9,67.8c1.9,8.3,2.3,16.3,2.2,23c0.4,1.5-0.4,3,0,4.6
		c3.2,21.6,3.9,40.9,4.1,61.5c0.1,7.1-0.2,14.5-0.5,22.7c1.6,6.4,3.3,13,5.3,20c0.6,2.2,1.3,4.4,1.9,6.5
		c6.7,21.2,14.4,40.7,27.4,63.5c3.5,9.7,9.5,20.8,11.9,30.9c8.6,36.1,23.4,78.2,22.7,134.1"/>
	<path class="st241" d="M286.2,996.5L286.2,996.5c0.1-52.3,14.6-102.1,34.8-144.5c10.6-17.5,17.4-32.9,23.2-48.6
		c1.6-4.3,2.9-8.6,4.1-13.3c2.6-10.5,4.2-20.2,6-29.3c-0.4-4.2-0.7-8.3-0.8-12.1c-0.7-17.4-0.8-33.2,1.1-51.7c0.3-1.3-0.7-2.7-0.5-4
		c-0.7-5.8-1-13.1,0.4-20.7c3.7-25.1,9.3-57.9,16.6-81.9c1.8-6.4,3.9-12.8,6.4-19.1c5-12.9,11-25.1,17.2-36.4l0,0
		c15.9-36.3,35.9-82,59.8-111.4c15.6-24.7,48.1-67.4,114.1-103.9c46.1-25.5,95.8-39.1,147.3-38.9l44.3,5c1.9,0,54.9,0.7,56.7,1
		c75.7,11.9,157.6,63.7,196.7,151.1c10.3,20.7,18.1,50.8,22.7,74.4c0.5,2.5,1.8,5.1,2.2,7.7c3.6,12.9,6,27.2,6.4,42c0,0,0,0,0,0
		c1.3,3.3,2.5,6.6,3.6,9.9c1.8,4.7,3.5,11.2,5.1,16c6.4,18.9,11.7,44.6,15.8,64.2c1.8,8,1.9,15.7,1.5,21.9c0.4,1.4-0.6,2.8-0.2,4.3
		c2.9,21,3.2,39.3,3.1,59.2c0,6.7-0.5,13.9-0.9,21.7c1.4,6.1,2.9,12.5,4.8,19.3c0.6,2.1,1.2,4.2,1.8,6.3
		c6.3,20.3,13.8,38.5,27.3,60.5c3.4,9.1,9.7,19.8,12.1,29.4c8.3,33.6,24,73.6,23.3,128.6"/>
	<path class="st242" d="M310,985.1L310,985.1c0.1-50.5,15.1-98.4,35.6-138.4c11-16.8,17.7-31.3,23.3-46.1c1.5-4.1,2.8-8.3,3.9-12.9
		c2.4-10.2,3.7-19.6,5.2-28.3c-0.5-4.1-0.9-7.9-1.1-11.6c-0.9-16.8-1.4-31.8,0.2-49.7c0.2-1.2-0.9-2.5-0.6-3.7
		c-0.9-5.4-1.5-12.4-0.2-19.8c3.4-23.3,8.6-55,15.4-77.3c1.7-6.1,3.7-12.1,6.1-18c4.8-12.1,10.6-23.6,16.5-34l0,0
		c14.8-33.7,33.4-78.1,55.6-105.4c14.5-23.8,45.1-64.2,106.9-98.7c43.4-24.2,90.3-37.2,139-37l41.1,5.4c2.1,0,51.5,0.7,53.5,1
		c71.5,11.5,148.6,60.7,184.9,143.3c9.6,19.2,16.8,48.4,21,70.3c0.5,2.4,1.8,4.7,2.2,7.1c3.6,12,6,25.4,6.4,39.4c0,0,0,0,0,0
		c1.2,3.1,2.3,6.2,3.4,9.4c1.6,4.4,3.2,10.6,4.8,15.1c5.9,17.5,10.8,42.5,14.6,60.6c1.7,7.7,1.5,15.1,0.9,20.9
		c0.3,1.3-0.7,2.6-0.4,4c2.5,20.3,2.5,37.8,2,56.8c-0.2,6.4-0.8,13.2-1.2,20.8c1.3,5.8,2.6,12,4.3,18.6c0.5,2.1,1.1,4.1,1.7,6
		c5.9,19.3,13.2,36.4,27.3,57.5c3.4,8.5,9.9,18.8,12.2,27.8c8,31.1,24.6,69,23.9,123.1"/>
	<path class="st243" d="M333.8,973.6L333.8,973.6c0.1-48.6,15.6-94.6,36.4-132.2c11.4-16,18.1-29.7,23.4-43.7c1.5-4,2.7-8,3.7-12.4
		c2.3-9.9,3.2-18.9,4.3-27.2c-0.6-3.9-1-7.6-1.3-11.1c-1.2-16.1-2-30.4-0.6-47.8c0.2-1.1-1-2.3-0.8-3.4c-1.2-5-2-11.7-0.8-18.8
		c3.2-21.5,7.9-52.2,14.2-72.8c1.5-5.7,3.5-11.4,5.7-16.9c4.5-11.3,10.1-22,15.8-31.7l0,0c13.6-31.1,30.8-74.2,51.3-99.4
		c13.4-22.9,42-61,99.6-93.5c40.7-22.9,84.8-35.3,130.6-35.2l37.9,5.8c2.2,0,48.2,0.7,50.3,1.1c67.4,11,139.6,57.7,173.1,135.4
		c8.8,17.7,15.5,46,19.4,66.2c0.4,2.2,1.8,4.4,2.1,6.6c3.6,11.1,6,23.6,6.5,36.8c0,0,0,0,0,0c1.1,2.9,2.2,5.9,3.1,8.8
		c1.5,4.1,3,10.1,4.4,14.2c5.5,16.2,10,40.3,13.5,57.1c1.5,7.5,1.1,14.5,0.3,19.9c0.3,1.2-0.9,2.4-0.6,3.7
		c2.2,19.7,1.7,36.2,0.9,54.5c-0.3,6-1,12.5-1.6,19.9c1.1,5.6,2.2,11.5,3.8,17.9c0.5,2,1,3.9,1.6,5.8c5.5,18.4,12.7,34.3,27.2,54.5
		c3.4,8,10.1,17.7,12.4,26.2c7.6,28.6,25.2,64.5,24.5,117.5"/>
	<path class="st244" d="M357.6,962.1L357.6,962.1c0.1-46.8,16.1-90.9,37.2-126.1c11.8-15.3,18.4-28,23.6-41.2
		c1.5-3.8,2.6-7.7,3.5-12c2.1-9.6,2.7-18.3,3.5-26.2c-0.7-3.8-1.2-7.3-1.5-10.6c-1.5-15.5-2.6-29-1.5-45.9c0.2-1-1.1-2.1-0.9-3.1
		c-1.4-4.5-2.4-11-1.3-17.9c2.9-19.7,7.3-49.3,13.1-68.2c1.4-5.4,3.2-10.7,5.4-15.8c4.3-10.6,9.7-20.5,15.1-29.3l0,0
		c12.5-28.5,28.2-70.3,47-93.3c12.3-22,38.9-57.8,92.4-88.2c38-21.6,79.3-33.4,122.3-33.3l34.8,6.2c2.4,0,44.8,0.7,47.1,1.1
		C860.6,368.7,928,413,958.7,485.9c8.1,16.3,14.3,43.5,17.8,62.1c0.4,2,1.8,4,2.1,6c3.5,10.1,6,21.8,6.5,34.2c0,0,0,0,0,0
		c1,2.7,2,5.5,2.9,8.3c1.4,3.7,2.7,9.6,4,13.4c5,14.8,9.2,38.1,12.4,53.5c1.4,7.2,0.8,14-0.4,18.8c0.3,1.1-1,2.2-0.7,3.4
		c1.9,19.1,1,34.6-0.1,52.1c-0.4,5.7-1.3,11.9-2,19c0.9,5.3,1.9,11.1,3.3,17.2c0.5,1.9,0.9,3.8,1.5,5.6
		c5.1,17.4,12.1,32.2,27.1,51.4c3.4,7.4,10.3,16.7,12.6,24.7c7.3,26.2,25.8,59.9,25.1,112"/>
	<path class="st245" d="M381.5,950.7L381.5,950.7c0.1-45,16.6-87.1,38-119.9c12.1-14.6,18.8-26.4,23.7-38.8
		c1.4-3.6,2.5-7.3,3.3-11.5c1.9-9.3,2.2-17.6,2.7-25.2c-0.7-3.6-1.3-7-1.7-10.1c-1.8-14.9-3.2-27.5-2.3-43.9
		c0.2-0.9-1.3-1.9-1.1-2.8c-1.7-4.1-2.9-10.3-1.9-16.9c2.6-17.9,6.6-46.4,11.9-63.6c1.3-5,3-9.9,5-14.7c4.1-9.8,9.3-18.9,14.5-27
		l0,0c11.4-25.9,25.7-66.4,42.7-87.3c11.2-21.1,35.9-54.6,85.2-83c35.3-20.3,73.8-31.5,113.9-31.4l31.6,6.6c2.6,0,41.5,0.8,43.9,1.2
		c59.1,10,121.6,51.8,149.5,119.8c7.4,14.8,13,41.1,16.2,58c0.3,1.8,1.8,3.6,2.1,5.5c3.5,9.2,6,20,6.6,31.5c0,0,0,0,0,0
		c1,2.5,1.9,5.1,2.7,7.7c1.3,3.4,2.5,9,3.7,12.5c4.6,13.5,8.3,35.9,11.3,49.9c1.3,6.9,0.4,13.4-1,17.8c0.3,1-1.2,2-0.9,3.1
		c1.6,18.4,0.3,33.1-1.2,49.8c-0.5,5.3-1.5,11.2-2.3,18.1c0.7,5.1,1.5,10.6,2.8,16.5c0.4,1.9,0.8,3.6,1.3,5.4
		c4.7,16.5,11.6,30.1,27,48.4c3.3,6.8,10.6,15.7,12.7,23.1c7,23.7,26.4,55.3,25.8,106.5"/>
	<path class="st246" d="M405.3,939.2L405.3,939.2c0.1-43.2,17.1-83.4,38.8-113.8c12.5-13.8,19.1-24.8,23.8-36.4
		c1.4-3.4,2.4-7,3.1-11c1.7-9,1.7-17,1.9-24.1c-0.8-3.5-1.5-6.7-1.9-9.7c-2.1-14.2-3.8-26.1-3.2-42c0.2-0.9-1.4-1.7-1.3-2.6
		c-1.9-3.7-3.4-9.6-2.5-16c2.4-16.1,5.9-43.6,10.7-59c1.1-4.6,2.8-9.2,4.7-13.6c3.9-9,8.9-17.4,13.8-24.7l0,0
		c10.2-23.3,23.1-62.5,38.5-81.3c10-20.2,32.8-51.4,78-77.8c32.6-19,68.3-29.6,105.6-29.5l28.5,7c2.7,0,38.2,0.8,40.7,1.2
		c55,9.5,112.6,48.8,137.7,112c6.6,13.3,11.7,38.7,14.6,53.8c0.3,1.6,1.8,3.3,2.1,4.9c3.5,8.3,6,18.3,6.6,28.9c0,0,0,0,0,0
		c0.9,2.4,1.7,4.8,2.4,7.2c1.1,3,2.2,8.5,3.3,11.6c4.1,12.1,7.5,33.8,10.1,46.3c1.1,6.6,0,12.8-1.7,16.8c0.2,0.9-1.3,1.8-1.1,2.7
		c1.2,17.8-0.4,31.5-2.3,47.4c-0.6,5-1.8,10.6-2.7,17.1c0.5,4.8,1.2,10.1,2.4,15.8c0.4,1.8,0.8,3.5,1.2,5.1c4.3,15.6,11,28,27,45.4
		c3.3,6.3,10.8,14.6,12.9,21.5c6.6,21.2,27,50.8,26.4,101"/>
	<path class="st247" d="M429.1,927.7L429.1,927.7c0.1-41.4,17.6-79.6,39.6-107.7c12.9-13.1,19.5-23.2,24-33.9
		c1.4-3.3,2.3-6.7,3-10.6c1.5-8.7,1.2-16.3,1.1-23.1c-0.9-3.3-1.6-6.4-2.1-9.2c-2.5-13.6-4.4-24.7-4-40.1c0.1-0.8-1.6-1.5-1.4-2.3
		c-2.2-3.3-3.8-8.9-3-15c2.1-14.3,5.3-40.7,9.5-54.4c1-4.3,2.5-8.5,4.3-12.6c3.7-8.3,8.4-15.9,13.1-22.3l0,0
		c9.1-20.8,20.5-58.6,34.2-75.3c8.9-19.3,29.8-48.2,70.8-72.6c29.8-17.8,62.8-27.7,97.2-27.6l25.3,7.4c2.9,0,34.8,0.8,37.5,1.3
		c50.8,9,103.5,45.8,125.9,104.2c5.9,11.8,10.4,36.2,13,49.7c0.3,1.5,1.8,2.9,2,4.4c3.5,7.4,6.1,16.5,6.7,26.3c0,0,0,0,0,0
		c0.8,2.2,1.6,4.4,2.2,6.6c1,2.7,2,7.9,2.9,10.7c3.7,10.8,6.7,31.6,9,42.8c1,6.3-0.4,12.2-2.3,15.7c0.2,0.8-1.5,1.6-1.3,2.4
		c0.9,17.1-1.1,30-3.3,45.1c-0.7,4.6-2.1,9.9-3.1,16.2c0.3,4.6,0.8,9.6,1.9,15.1c0.3,1.7,0.7,3.3,1.1,4.9
		c3.9,14.6,10.4,25.9,26.9,42.4c3.3,5.7,11,13.6,13.1,19.9c6.2,18.8,27.6,46.2,27,95.4"/>
	<path class="st248" d="M452.9,916.3L452.9,916.3c0.1-39.5,18.1-75.8,40.4-101.5c13.3-12.4,19.8-21.6,24.1-31.5
		c1.3-3.1,2.2-6.3,2.8-10.1c1.3-8.4,0.7-15.7,0.3-22.1c-1-3.2-1.8-6.1-2.3-8.7c-2.8-12.9-5-23.3-4.9-38.1c0.1-0.7-1.7-1.3-1.6-2
		c-2.4-2.9-4.3-8.2-3.6-14.1c1.9-12.5,4.6-37.8,8.3-49.9c0.9-3.9,2.3-7.8,4-11.5c3.5-7.5,8-14.3,12.4-20l0,0
		c7.9-18.2,18-54.6,29.9-69.3c7.8-18.4,26.7-45,63.6-67.4c27.1-16.5,57.2-25.8,88.9-25.7l22.1,7.7c3,0,31.5,0.8,34.3,1.3
		c46.7,8.6,94.5,42.8,114,96.4c5.2,10.3,9.1,33.8,11.3,45.6c0.2,1.3,1.8,2.5,2,3.8c3.5,6.5,6.1,14.7,6.7,23.6c0,0,0,0,0,0
		c0.7,2,1.4,4,2,6.1c0.9,2.4,1.7,7.4,2.6,9.8c3.2,9.4,5.8,29.4,7.9,39.2c0.9,6.1-0.7,11.6-3,14.7c0.2,0.7-1.6,1.4-1.5,2.1
		c0.6,16.5-1.8,28.4-4.4,42.7c-0.8,4.3-2.3,9.2-3.5,15.3c0.1,4.3,0.5,9.1,1.4,14.4c0.3,1.6,0.6,3.2,1,4.7
		c3.5,13.7,9.9,23.7,26.8,39.3c3.3,5.1,11.2,12.5,13.2,18.4c5.7,16.3,28.2,41.7,27.6,89.9"/>
	<path class="st249" d="M476.8,904.8L476.8,904.8c0.1-37.7,18.6-72.1,41.2-95.4c13.7-11.6,20.2-19.9,24.2-29c1.3-2.9,2.1-6,2.6-9.7
		c1.1-8.1,0.2-15-0.5-21.1c-1-3-2-5.8-2.6-8.2c-3.1-12.3-5.6-21.9-5.7-36.2c0.1-0.6-1.9-1.1-1.7-1.7c-2.6-2.5-4.8-7.5-4.2-13.1
		c1.6-10.7,4-35,7.1-45.3c0.8-3.6,2.1-7.1,3.7-10.4c3.2-6.7,7.6-12.8,11.8-17.6l0,0c6.8-15.6,15.4-50.7,25.6-63.3
		c6.7-17.5,23.6-41.8,56.3-62.2c24.4-15.2,51.7-23.9,80.5-23.8l19,8.1c3.2,0,28.1,0.8,31.1,1.4c42.6,8.1,85.5,39.9,102.2,88.6
		c4.4,8.9,7.8,31.4,9.7,41.5c0.2,1.1,1.8,2.2,2,3.3c3.4,5.5,6.1,12.9,6.8,21c0,0,0,0,0,0c0.7,1.8,1.3,3.7,1.7,5.5
		c0.8,2,1.5,6.9,2.2,8.9c2.7,8.1,5,27.2,6.8,35.6c0.8,5.8-1.1,11-3.6,13.7c0.2,0.6-1.8,1.2-1.6,1.8c0.2,15.8-2.5,26.8-5.5,40.4
		c-0.9,3.9-2.6,8.6-3.8,14.4c0,4.1,0.1,8.6,0.9,13.7c0.2,1.6,0.5,3.1,0.9,4.5c3.1,12.7,9.3,21.6,26.7,36.3
		c3.2,4.5,10.5,11.9,13.4,16.8c2.6,14.6,28.8,37.1,28.2,84.4"/>
	<path class="st250" d="M500.6,893.3L500.6,893.3c0-35.9,19.1-68.3,42-89.2c14-10.9,20.6-18.3,24.3-26.6c1.3-2.8,2-5.7,2.4-9.2
		c0.9-7.8-0.3-14.4-1.3-20c-1.1-2.9-2.1-5.5-2.8-7.7c-3.4-11.7-6.2-20.5-6.5-34.3c0.1-0.5-2-0.9-1.9-1.4c-2.9-2.1-5.3-6.8-4.8-12.2
		c1.3-9,3.3-32.1,5.9-40.7c0.6-3.2,1.8-6.3,3.3-9.3c3-6,7.2-11.3,11.1-15.3l0,0c5.7-13,12.8-46.8,21.4-57.3
		c5.6-16.6,20.6-38.6,49.1-56.9c21.7-13.9,46.2-22,72.2-21.9l15.8,8.5c3.4,0,24.8,0.8,27.9,1.4c38.4,7.6,76.5,36.9,90.4,80.7
		c3.7,7.4,6.5,28.9,8.1,37.4c0.2,0.9,1.8,1.8,2,2.7c3.4,4.6,6.1,11.1,6.8,18.4c0,0,0,0,0,0c0.6,1.6,1.1,3.3,1.5,5
		c0.6,1.7,1.2,6.3,1.8,8c2.3,6.7,4.2,25.1,5.6,32.1c0.6,5.5-1.5,10.4-4.2,12.6c0.1,0.5-1.9,1-1.8,1.5c-0.1,15.2-3.1,25.3-6.6,38
		c-1,3.6-2.8,7.9-4.2,13.5c-0.2,3.8-0.2,8.1,0.4,13c0.2,1.5,0.4,2.9,0.8,4.2c2.8,11.8,8.7,19.5,26.7,33.3c3.2,4,10.6,10.9,13.6,15.2
		c2.2,12.2,29.4,32.5,28.8,78.8"/>
	<path class="st251" d="M524.4,881.9L524.4,881.9c0-34.1,19.5-64.6,42.8-83.1c14.4-10.2,20.9-16.7,24.5-24.1
		c1.2-2.6,1.9-5.3,2.2-8.7c0.8-7.5-0.8-13.7-2.1-19c-1.2-2.7-2.3-5.1-3-7.2c-3.8-11-6.8-19.1-7.4-32.3c0.1-0.4-2.1-0.8-2.1-1.1
		c-3.1-1.7-5.7-6.1-5.3-11.2c1.1-7.2,2.6-29.3,4.7-36.1c0.5-2.9,1.6-5.6,3-8.2c2.8-5.2,6.7-9.7,10.4-13l0,0
		c4.5-10.4,10.3-42.9,17.1-51.3c4.5-15.7,17.5-35.5,41.9-51.7c18.9-12.6,40.7-20.1,63.8-20.1l12.6,8.9c3.5,0,21.5,0.8,24.7,1.5
		c34.3,7.1,67.5,33.9,78.6,72.9c2.9,5.9,5.2,26.5,6.5,33.2c0.1,0.7,1.8,1.5,1.9,2.2c3.4,3.7,6.1,9.3,6.9,15.7c0,0,0,0,0,0
		c0.5,1.4,1,2.9,1.3,4.4c0.5,1.4,1,5.8,1.5,7.1c1.8,5.4,3.3,22.9,4.5,28.5c0.5,5.2-1.9,9.8-4.9,11.6c0.1,0.4-2.1,0.8-2,1.2
		c-0.4,14.6-3.7,23.7-7.6,35.7c-1,3.2-3.1,7.3-4.6,12.6c-0.4,3.6-0.6,7.6-0.1,12.3c0.2,1.4,0.4,2.8,0.6,4
		c2.4,10.8,8.2,17.4,26.6,30.3c3.2,3.4,10.8,9.9,13.7,13.7c1.8,9.7,30,28,29.4,73.3"/>
	<path class="st252" d="M548.2,870.4L548.2,870.4c0-32.2,20-60.8,43.6-77c14.8-9.4,21.3-15.1,24.6-21.7c1.2-2.4,1.8-5,2-8.3
		c0.6-7.2-1.2-13.1-2.9-18c-1.3-2.6-2.5-4.8-3.2-6.7c-4.2-10.4-7.4-17.6-8.2-30.4c0.1-0.3-2.3-0.6-2.2-0.9
		c-3.4-1.2-6.2-5.4-5.9-10.3c0.8-5.4,2-26.4,3.6-31.5c0.4-2.5,1.3-4.9,2.6-7.1c2.6-4.4,6.3-8.2,9.8-10.6l0,0
		c3.4-7.8,7.7-39,12.8-45.3c3.3-14.8,14.4-32.3,34.7-46.5c16.2-11.4,35.2-18.2,55.5-18.2l9.5,9.3c3.7,0,18.1,0.8,21.6,1.5
		c30.2,6.6,58.4,30.9,66.8,65.1c2.2,4.4,3.9,24.1,4.9,29.1c0.1,0.5,1.8,1.1,1.9,1.6c3.4,2.8,6.1,7.6,7,13.1c0,0,0,0,0,0
		c0.4,1.3,0.8,2.6,1,3.9c0.4,1,0.7,5.2,1.1,6.3c1.4,4,2.5,20.7,3.4,24.9c0.4,4.9-2.2,9.2-5.5,10.6c0.1,0.3-2.2,0.6-2.2,0.9
		c-0.7,13.9-4.4,22.2-8.7,33.3c-1.1,2.9-3.4,6.6-4.9,11.6c-0.6,3.3-0.9,7.1-0.5,11.6c0.1,1.4,0.3,2.6,0.5,3.8
		c2,9.8,7.6,15.3,26.5,27.2c3.2,2.8,11,8.9,13.9,12.1c1.3,7.3,30.6,23.4,30,67.8"/>
	<path class="st253" d="M572.1,858.9L572.1,858.9c0-30.4,20.5-57.1,44.4-70.8c15.2-8.7,21.7-13.4,24.7-19.2c1.2-2.2,1.7-4.7,1.8-7.8
		c0.4-6.9-1.7-12.5-3.7-16.9c-1.4-2.4-2.6-4.5-3.4-6.2c-4.5-9.7-8-16.2-9.1-28.5c0-0.2-2.4-0.4-2.4-0.6c-3.6-0.8-6.7-4.7-6.5-9.3
		c0.5-3.6,1.3-23.5,2.4-27c0.3-2.1,1.1-4.2,2.3-6c2.3-3.7,5.9-6.7,9.1-8.3l0,0c2.3-5.2,5.1-35.1,8.5-39.3
		c2.2-13.9,11.3-29.2,27.5-41.3c13.5-10.1,29.7-16.3,47.1-16.3l6.3,9.7c3.8,0,14.8,0.7,18.4,1.6c26.2,6.2,49.4,27.9,55,57.3
		c1.5,3,2.6,21.6,3.2,25c0.1,0.4,1.8,0.7,1.9,1.1c3.4,1.8,6.1,5.8,7,10.5c0,0,0,0,0,0c0.4,1.1,0.6,2.2,0.8,3.3
		c0.3,0.7,0.5,4.7,0.7,5.4c0.9,2.7,1.7,18.5,2.3,21.3c0.3,4.7-2.6,8.6-6.2,9.5c0.1,0.2-2.4,0.4-2.3,0.6c-1.1,13.3-4.9,20.6-9.8,31
		c-1.2,2.5-3.6,5.9-5.3,10.7c-0.8,3.1-1.3,6.7-1,10.9c0.1,1.3,0.2,2.5,0.4,3.6c1.6,8.9,7.1,13.2,26.4,24.2
		c3.1,2.3,11.1,7.9,14.1,10.5c0.9,4.9,31.2,18.8,30.6,62.2"/>
	<path class="st254" d="M595.9,847.5L595.9,847.5c0-28.6,21-53.3,45.2-64.7c15.5-8,22.1-11.8,24.9-16.8c1.1-2.1,1.6-4.3,1.6-7.4
		c0.2-6.6-2.2-11.8-4.5-15.9c-1.4-2.3-2.8-4.2-3.6-5.7c-4.9-9-8.6-14.8-9.9-26.5c0-0.1-2.6-0.2-2.5-0.3c-3.9-0.4-7.1-4-7-8.4
		c0.3-1.8,0.7-20.7,1.2-22.4c0.1-1.8,0.9-3.5,1.9-4.9c2.1-2.9,5.5-5.1,8.4-5.9l0,0c1.1-2.6,2.6-31.2,4.3-33.3
		c1.1-13,8.2-26,20.2-36.1c10.7-8.9,24.1-14.4,38.8-14.4l3.2,10.1c4,0,11.5,0.7,15.2,1.6c22.1,5.7,40.4,25,43.2,49.5
		c0.7,1.5,1.3,19.2,1.6,20.9c0,0.2,1.8,0.4,1.9,0.5c3.3,0.9,6.1,4,7.1,7.9c0,0,0,0,0,0c0.3,0.9,0.5,1.8,0.6,2.8
		c0.1,0.3,0.2,4.1,0.4,4.5c0.5,1.3,0.8,16.4,1.1,17.8c0.1,4.4-3,8-6.8,8.5c0,0.1-2.5,0.2-2.5,0.3c-1.4,12.6-5.5,19.2-10.8,28.6
		c-1.3,2.2-3.9,5.3-5.7,9.8c-1,2.8-1.6,6.2-1.5,10.2c0,1.2,0.1,2.3,0.3,3.3c1.3,7.9,6.5,11.1,26.3,21.2c3.1,1.7,11.3,6.9,14.3,9
		c0.4,2.4,31.8,14.3,31.3,56.7"/>
	<path class="st255" d="M619.7,836L619.7,836c0-26.8,21.5-49.5,46-58.6c23-10.5,26.4-11.9,26.4-21.3c0-9.9-6.8-16.4-9.2-20.1
		c-5.4-8.3-9.2-13.4-10.8-24.6h-2.7c-4.1,0-7.6-3.4-7.6-7.5v-17.8c0-4.1,5.2-7.5,9.3-7.5l0,0v-27.3c0-23.9,19.6-43.4,43.5-43.4v10.5
		c23.9,0,43.4,19.5,43.4,43.4v16.8h1.8c4.1,0,7.5,3.4,7.5,7.5V704c0,4.1-3.4,7.5-7.5,7.5h-2.7c-1.7,12-6,17.7-11.9,26.3
		c-2.1,3-8.1,8.2-8.1,18.4c0,9.7,3.4,10.8,26.4,21.3c3.1,1.1,11.5,5.9,14.4,7.4c0,0,32.4,9.7,31.9,51.2"/>
</g>
</svg>
