<svg id="Layer_1" data-name="Layer 1" xmlns="http://www.w3.org/2000/svg" xmlns:xlink="http://www.w3.org/1999/xlink" viewBox="0 0 896 600"><defs><style>.cls-1{fill:url(#linear-gradient);}.cls-2{fill:url(#linear-gradient-2);}.cls-3{fill:url(#linear-gradient-3);}.cls-4{fill:url(#linear-gradient-4);}.cls-5{fill:url(#linear-gradient-5);}.cls-6{fill:url(#linear-gradient-6);}.cls-7{fill:url(#linear-gradient-7);}.cls-8{fill:url(#linear-gradient-8);}.cls-9{fill:url(#linear-gradient-9);}.cls-10{fill:url(#linear-gradient-10);}.cls-11{fill:url(#linear-gradient-11);}.cls-12{fill:#ff8c00;}</style><linearGradient id="linear-gradient" x1="518.9" y1="607.84" x2="429.7" y2="450.73" gradientUnits="userSpaceOnUse"><stop offset="0" stop-color="#5e00ec"/><stop offset="0.55" stop-color="#ff0080"/><stop offset="0.62" stop-color="#ff1a68"/><stop offset="0.8" stop-color="#ff5730"/><stop offset="0.93" stop-color="#ff7d0d"/><stop offset="1" stop-color="#ff8c00"/></linearGradient><linearGradient id="linear-gradient-2" x1="561.26" y1="594.31" x2="460.91" y2="501.06" xlink:href="#linear-gradient"/><linearGradient id="linear-gradient-3" x1="569.03" y1="615.05" x2="432.19" y2="380.9" xlink:href="#linear-gradient"/><linearGradient id="linear-gradient-4" x1="580.27" y1="588.72" x2="510.33" y2="476.21" xlink:href="#linear-gradient"/><linearGradient id="linear-gradient-5" x1="820.76" y1="527.91" x2="442.34" y2="511.69" xlink:href="#linear-gradient"/><linearGradient id="linear-gradient-6" x1="844.59" y1="518.28" x2="574.29" y2="327.72" gradientTransform="translate(627.39 -409.44) rotate(51.81)" xlink:href="#linear-gradient"/><linearGradient id="linear-gradient-7" x1="606.46" y1="205.39" x2="657.14" y2="377.7" xlink:href="#linear-gradient"/><linearGradient id="linear-gradient-8" x1="640.85" y1="201.92" x2="476.64" y2="503.98" xlink:href="#linear-gradient"/><linearGradient id="linear-gradient-9" x1="667.77" y1="447.46" x2="446.13" y2="270.41" gradientTransform="translate(621.18 -360.99) rotate(51.81)" xlink:href="#linear-gradient"/><linearGradient id="linear-gradient-10" x1="606.58" y1="531.78" x2="430.21" y2="472.99" xlink:href="#linear-gradient"/><linearGradient id="linear-gradient-11" x1="474.69" y1="511.87" x2="386.5" y2="472.34" xlink:href="#linear-gradient"/></defs><title>for People Page</title><rect class="cls-1" x="475.6" y="498.44" width="20.04" height="101.58"/><path class="cls-2" d="M495.64,591.36h0V498.44h24.89v68A24.89,24.89,0,0,1,495.64,591.36Z"/><rect class="cls-3" x="520.54" y="498.44" width="20.04" height="101.58"/><path class="cls-4" d="M540.58,591.36h0V498.44h24.89v68A24.89,24.89,0,0,1,540.58,591.36Z"/><path class="cls-5" d="M837,545.24H520.53v-46.8H837a23.39,23.39,0,0,1,23.4,23.4h0A23.4,23.4,0,0,1,837,545.24Z"/><rect class="cls-6" x="711.81" y="287.68" width="46.8" height="306.98" rx="23.4" transform="translate(-66.1 746.25) rotate(-51.81)"/><path class="cls-7" d="M680.34,242.15H605.13a24.26,24.26,0,0,0-24.26,24.26V391.08a24.26,24.26,0,0,0,24.26,24.26h0a24.25,24.25,0,0,0,20.77-11.73l75.21-124.67A24.25,24.25,0,0,0,680.34,242.15Z"/><path class="cls-8" d="M636.2,294.54,523.36,481.74A34.57,34.57,0,0,1,475.9,493.5l-29.61-17.85L577,258.84a34.58,34.58,0,0,1,47.46-11.76h0A34.57,34.57,0,0,1,636.2,294.54Z"/><rect class="cls-9" x="658.83" y="333.83" width="46.8" height="250.33" rx="23.4" transform="translate(-100.34 711.41) rotate(-51.81)"/><rect class="cls-10" x="421.25" y="470.29" width="86.16" height="28.15" rx="14.08"/><path class="cls-11" d="M419.18,484.36a16.15,16.15,0,0,1,8.26-14.07H402.22a14.07,14.07,0,0,0-14.07,14.07h0a14.08,14.08,0,0,0,14.07,14.08h25.22A16.16,16.16,0,0,1,419.18,484.36Z"/><path d="M706.2,184.16a19.28,19.28,0,0,1,17.34,10.73l.6,1.2,1.26-.47a4.87,4.87,0,0,1,1.67-.3,4.81,4.81,0,1,1,0,9.61h-.14l-1.36-.05-.18,1.34a19.36,19.36,0,0,1-38.35,0l-.18-1.23-1.24-.06a4.8,4.8,0,0,1,.21-9.6,4.57,4.57,0,0,1,1.36.2l1.19.35.56-1.11a19.3,19.3,0,0,1,17.27-10.6m0-1.5a20.85,20.85,0,0,0-18.6,11.42,6.18,6.18,0,0,0-1.78-.26,6.3,6.3,0,0,0-.28,12.6,20.86,20.86,0,0,0,41.32,0h.21a6.31,6.31,0,0,0,0-12.62,6.12,6.12,0,0,0-2.19.4,20.87,20.87,0,0,0-18.68-11.56Z"/><path d="M726.1,127.45l-37.16,64.36a20.86,20.86,0,0,1,35.94,2.41,6.12,6.12,0,0,1,2.19-.4,6.29,6.29,0,0,1,5.75,3.73l40.48-70.1Zm.76,79a20.56,20.56,0,0,1-.44,2.21l1.29-2.24c-.21,0-.42,0-.64,0Zm-41.32,0h-.07a20.33,20.33,0,0,0,6.93,12.75A20.79,20.79,0,0,1,685.54,206.42Z"/><path d="M694.31,201.56v3.12a1.44,1.44,0,0,1-1.43,1.43h0a1.44,1.44,0,0,1-1.43-1.43v-3.12a1.43,1.43,0,0,1,1.43-1.43h0A1.44,1.44,0,0,1,694.31,201.56Z"/><path d="M706.9,201.56v3.12a1.43,1.43,0,0,1-1.43,1.43h0a1.44,1.44,0,0,1-1.43-1.43v-3.12a1.44,1.44,0,0,1,1.43-1.43h0A1.44,1.44,0,0,1,706.9,201.56Z"/><polygon points="372.21 163.09 265.9 163.09 210.03 80.65 316.35 80.65 372.21 163.09"/><path d="M444.19,82.23A19.27,19.27,0,0,1,461.52,93l.6,1.2,1.26-.47a4.87,4.87,0,0,1,1.67-.3,4.81,4.81,0,1,1,0,9.61h-.14l-1.35,0-.19,1.34a19.36,19.36,0,0,1-38.35,0l-.17-1.24-1.25-.06a4.8,4.8,0,0,1,.21-9.6,4.87,4.87,0,0,1,1.36.2l1.19.35.57-1.11a19.29,19.29,0,0,1,17.27-10.6m0-1.5a20.86,20.86,0,0,0-18.61,11.42,6.13,6.13,0,0,0-1.78-.26,6.3,6.3,0,0,0-.28,12.6,20.87,20.87,0,0,0,41.33,0h.2a6.31,6.31,0,0,0,0-12.62,6.17,6.17,0,0,0-2.19.4,20.85,20.85,0,0,0-18.67-11.56Z"/><path d="M433.33,99.63v3.12a1.43,1.43,0,0,1-1.43,1.43h0a1.43,1.43,0,0,1-1.43-1.43V99.63a1.41,1.41,0,0,1,1.43-1.42h0A1.43,1.43,0,0,1,433.33,99.63Z"/><path d="M445.92,99.63v3.12a1.43,1.43,0,0,1-1.43,1.43h0a1.43,1.43,0,0,1-1.43-1.43V99.63a1.41,1.41,0,0,1,1.43-1.42h0A1.43,1.43,0,0,1,445.92,99.63Z"/><path d="M464.77,104.94c.05-.15.11-.29.16-.44h-.08C464.83,104.65,464.79,104.79,464.77,104.94ZM479.54,0c-6,3.94-12.19,8.08-15.86,14.24-6.56,11-3.84,26.37-12.27,36-3.06,3.51-7.26,5.79-11,8.61-7.24,5.5-18.69,21.3-18.89,33.44a6.19,6.19,0,0,1,2.24-.42,6.13,6.13,0,0,1,1.78.26,20.86,20.86,0,0,1,37.28.14,6.17,6.17,0,0,1,2.19-.4,6.31,6.31,0,0,1,5.74,3.69C480.6,85.39,497.4,79.42,502,65.7c1.61-4.8,1.46-10,2-15a54.31,54.31,0,0,1,7.8-22.61A264.24,264.24,0,0,1,479.54,0Z"/><path d="M186.19,309.38a19.26,19.26,0,0,1,17.33,10.73l.6,1.2,1.27-.46a4.58,4.58,0,0,1,1.67-.31,4.81,4.81,0,0,1,0,9.62h-.14l-1.35,0-.18,1.34a19.37,19.37,0,0,1-38.36,0l-.17-1.24-1.25-.05a4.81,4.81,0,1,1,1.57-9.41l1.2.35.56-1.11a19.29,19.29,0,0,1,17.27-10.6m0-1.5a20.87,20.87,0,0,0-18.61,11.42,6.11,6.11,0,0,0-1.77-.26,6.3,6.3,0,0,0-.28,12.6,20.86,20.86,0,0,0,41.32,0h.21a6.31,6.31,0,1,0-2.19-12.22,20.88,20.88,0,0,0-18.68-11.56Z"/><path d="M165.53,331.64h-.08a20.45,20.45,0,0,0,6.93,12.75A20.82,20.82,0,0,1,165.53,331.64Zm66.38-82.83h0A20.44,20.44,0,0,0,204,256.29L168.93,317a20.86,20.86,0,0,1,35.94,2.4,6.27,6.27,0,0,1,7.94,3.33l26.58-46A20.43,20.43,0,0,0,231.91,248.81Zm-25.06,82.84a20.09,20.09,0,0,1-.44,2.21l1.29-2.23c-.21,0-.43,0-.64,0Z"/><path d="M175.33,325.75v3.11a1.43,1.43,0,0,1-1.43,1.43h0a1.43,1.43,0,0,1-1.43-1.43v-3.11a1.43,1.43,0,0,1,1.43-1.43h0A1.43,1.43,0,0,1,175.33,325.75Z"/><path d="M187.93,325.75v3.11a1.43,1.43,0,0,1-1.43,1.43h0a1.41,1.41,0,0,1-1.42-1.43v-3.11a1.43,1.43,0,0,1,1.43-1.43h0A1.43,1.43,0,0,1,187.93,325.75Z"/><path d="M837.76,128.2a.75.75,0,0,1,0-1.5,22.65,22.65,0,1,0,0-45.3H580.11a22.67,22.67,0,0,0-22.65,22.65.75.75,0,0,1-1.5,0A24.17,24.17,0,0,1,580.11,79.9H837.76a24.15,24.15,0,1,1,0,48.3Z"/><path d="M450.77,470.63a.74.74,0,0,1-.64-.37L265.2,163.47a.72.72,0,0,1,0-.75.73.73,0,0,1,.65-.38H635.7a.73.73,0,0,1,.65.38.75.75,0,0,1,0,.75L451.41,470.26A.74.74,0,0,1,450.77,470.63ZM267.17,163.84l183.6,304.58,183.6-304.58Z"/><rect class="cls-12" x="568.63" y="67.36" width="17.12" height="68.48" rx="8.56"/><rect class="cls-12" x="551.51" y="67.36" width="17.12" height="68.48" rx="8.56"/><rect class="cls-12" x="534.39" y="67.36" width="17.12" height="68.48" rx="8.56"/><path d="M177.82,82.15a15.52,15.52,0,0,1,15.51,15.51v80.22c0,8.28-5.72,16.66-16.66,16.66H82.75V224A39.54,39.54,0,0,1,51.09,185V97.66A15.52,15.52,0,0,1,66.6,82.15H177.82m0-1.5H66.6a17,17,0,0,0-17,17V185a41.14,41.14,0,0,0,34.66,40.72V196h92.42c11.56,0,18.16-8.76,18.16-18.16V97.66a17,17,0,0,0-17-17Z"/><path class="cls-12" d="M90.49,127.42a10.15,10.15,0,1,0,10.15,10.15A10.14,10.14,0,0,0,90.49,127.42Zm31.5,0a10.15,10.15,0,1,0,10.15,10.15A10.15,10.15,0,0,0,122,127.42Zm32.05,0a10.15,10.15,0,1,0,10.15,10.15A10.14,10.14,0,0,0,154,127.42Z"/><path d="M274,552.21a9.32,9.32,0,0,1-9.3-9.31V500.1a9.31,9.31,0,1,1,18.61,0v42.8A9.32,9.32,0,0,1,274,552.21Zm0-59.92a7.81,7.81,0,0,0-7.8,7.81v42.8a7.81,7.81,0,1,0,15.61,0V500.1A7.81,7.81,0,0,0,274,492.29Z"/><path d="M291.12,552.21a9.33,9.33,0,0,1-9.31-9.31V500.1a9.31,9.31,0,0,1,18.62,0v42.8A9.32,9.32,0,0,1,291.12,552.21Zm0-59.92a7.82,7.82,0,0,0-7.81,7.81v42.8a7.81,7.81,0,1,0,15.62,0V500.1A7.81,7.81,0,0,0,291.12,492.29Z"/><path d="M308.24,552.21a9.33,9.33,0,0,1-9.31-9.31V500.1a9.31,9.31,0,0,1,18.62,0v42.8A9.32,9.32,0,0,1,308.24,552.21Zm0-59.92a7.82,7.82,0,0,0-7.81,7.81v42.8a7.81,7.81,0,1,0,15.62,0V500.1A7.81,7.81,0,0,0,308.24,492.29Z"/><path d="M358.44,500.31h-33L390,393.18a23.4,23.4,0,0,0-.79-25.38L360,319.28a34.56,34.56,0,0,0-60-1.37L191.36,498.1h74.33a8.56,8.56,0,0,1,8.31-6.56h0a8.79,8.79,0,0,1,1.56.14L341.1,383a1,1,0,1,1,1.71,1L277.53,492.3a8.57,8.57,0,0,1,4.79,5.8h.49a8.55,8.55,0,0,1,16.86,1.76h0a8.56,8.56,0,0,1,8.55-8.33h0a8.56,8.56,0,0,1,8.56,8.56v42.8a8.65,8.65,0,0,1-.33,2.34H392v-20h-8.66A24.89,24.89,0,0,0,358.44,500.31ZM250.24,374.57a22,22,0,0,0-19.38-11.31H164.72a24.15,24.15,0,0,1,2.52,1.31,23.4,23.4,0,0,1,8,32.12l-41.82,69.38v32h55.55l61-101.08A22,22,0,0,0,250.24,374.57Z"/><path d="M118.25,499.58H93.92a.75.75,0,0,1,0-1.5h24.33a.75.75,0,0,1,0,1.5Z"/><path d="M155.19,362.71a21.91,21.91,0,0,1,18.73,33.21L112.8,497.32l-1.37,2.28H264.5v43.8H73.14a22.42,22.42,0,0,1-18.88-33.81l82.15-136.28a21.75,21.75,0,0,1,18.78-10.6m0-1.5a23.39,23.39,0,0,0-20.07,11.32L53,508.81A23.92,23.92,0,0,0,73.14,544.9H266V498.1H114.08l61.13-101.41a23.41,23.41,0,0,0-20-35.48Z"/></svg>