<svg id="Layer_1" data-name="Layer 1" xmlns="http://www.w3.org/2000/svg" xmlns:xlink="http://www.w3.org/1999/xlink" width="896" height="603.29104" viewBox="0 0 896 603.29104"><defs><linearGradient id="linear-gradient" x1="184.92564" y1="221.65515" x2="-268.57571" y2="435.37417" gradientTransform="translate(239.07953 -43.58087) rotate(45)" gradientUnits="userSpaceOnUse"><stop offset="0" stop-color="#63c2ff"/><stop offset="0.13283" stop-color="#6ab3fd"/><stop offset="0.38538" stop-color="#7c8df8"/><stop offset="0.56248" stop-color="#8b6ff4"/><stop offset="0.79333" stop-color="#5c51ed"/><stop offset="1" stop-color="#2e34e6"/></linearGradient><linearGradient id="linear-gradient-2" x1="223.08451" y1="235.48563" x2="-110.52568" y2="-126.79419" gradientUnits="userSpaceOnUse"><stop offset="0" stop-color="#63c2ff"/><stop offset="0.10707" stop-color="#6ab3fd"/><stop offset="0.31065" stop-color="#7c8df8"/><stop offset="0.45341" stop-color="#8b6ff4"/><stop offset="0.74181" stop-color="#5c51ed"/><stop offset="1" stop-color="#2e34e6"/></linearGradient><linearGradient id="linear-gradient-3" x1="290.42843" y1="432.44752" x2="755.65827" y2="435.05385" gradientUnits="userSpaceOnUse"><stop offset="0" stop-color="#2e34e6"/><stop offset="0.25819" stop-color="#5c51ed"/><stop offset="0.54659" stop-color="#8b6ff4"/><stop offset="0.68935" stop-color="#7c8df8"/><stop offset="0.89293" stop-color="#6ab3fd"/><stop offset="1" stop-color="#63c2ff"/></linearGradient><linearGradient id="linear-gradient-4" x1="787.4427" y1="460.28972" x2="707.04645" y2="415.1035" gradientTransform="translate(-18.88434 -121.84592)" xlink:href="#linear-gradient-3"/><linearGradient id="linear-gradient-5" x1="787.4427" y1="476.25534" x2="707.04645" y2="431.06913" gradientTransform="translate(-2.91871 -137.81154)" xlink:href="#linear-gradient-3"/><linearGradient id="linear-gradient-6" x1="786.49144" y1="492.22097" x2="706.09518" y2="447.03476" gradientTransform="translate(13.99818 -152.8259)" xlink:href="#linear-gradient-3"/><linearGradient id="linear-gradient-7" x1="-1302.57254" y1="1245.10046" x2="-1352.28477" y2="1217.16001" gradientTransform="matrix(1, 0, 0, -1, 2035.47638, 1535.02395)" xlink:href="#linear-gradient-3"/><linearGradient id="linear-gradient-8" x1="920.25813" y1="207.96041" x2="732.30437" y2="321.18557" gradientTransform="matrix(-0.70711, 0.74658, -0.70711, -0.74658, 1484.5839, -138.31228)" xlink:href="#linear-gradient-3"/><linearGradient id="linear-gradient-9" x1="536.6916" y1="262.55365" x2="247.38902" y2="542.73408" gradientTransform="translate(379.6283 -209.61471) rotate(45)" xlink:href="#linear-gradient-3"/><linearGradient id="linear-gradient-10" x1="502.85239" y1="90.4197" x2="340.43115" y2="188.26382" gradientTransform="matrix(0.80201, 0.70711, -0.80201, 0.70711, 236.01518, -218.39622)" xlink:href="#linear-gradient-3"/><linearGradient id="linear-gradient-11" x1="414.17383" y1="142.92289" x2="565.34095" y2="213.29379" gradientTransform="matrix(1, 0, 0, 1, 0, 0)" xlink:href="#linear-gradient"/><linearGradient id="linear-gradient-12" x1="438.51126" y1="109.23643" x2="717.38853" y2="104.02377" xlink:href="#linear-gradient-3"/><linearGradient id="linear-gradient-13" x1="113.03558" y1="136.78777" x2="257.68687" y2="242.34412" xlink:href="#linear-gradient-3"/><linearGradient id="linear-gradient-14" x1="647.54528" y1="271.36798" x2="203.16609" y2="280.49013" xlink:href="#linear-gradient-3"/><linearGradient id="linear-gradient-15" x1="-1936.43908" y1="-402.19054" x2="-1840.83017" y2="-350.603" gradientTransform="matrix(0, 1, 1, 0, 1119.28342, 2338.09943)" xlink:href="#linear-gradient-2"/><linearGradient id="linear-gradient-16" x1="-1561.10316" y1="-143.8617" x2="-1561.32036" y2="-25.27371" gradientTransform="translate(-834.87317 383.94285) rotate(180)" xlink:href="#linear-gradient-3"/><linearGradient id="linear-gradient-17" x1="217.49804" y1="486.2431" x2="145.82397" y2="269.91775" xlink:href="#linear-gradient-3"/><linearGradient id="linear-gradient-18" x1="-1852.98519" y1="-1206.70604" x2="-1757.37628" y2="-1155.1185" gradientTransform="matrix(0, -1, -1, 0, -1133.65745, -1339.42352)" xlink:href="#linear-gradient-2"/><linearGradient id="linear-gradient-19" x1="-756.58766" y1="-227.3156" x2="-756.80486" y2="-108.7276" gradientTransform="translate(704.59112 17.91098) rotate(-45)" xlink:href="#linear-gradient-3"/><linearGradient id="linear-gradient-20" x1="125.31717" y1="222.40885" x2="44.81648" y2="177.16393" xlink:href="#linear-gradient-3"/><linearGradient id="linear-gradient-21" x1="125.31717" y1="238.98496" x2="44.81648" y2="193.74004" xlink:href="#linear-gradient-3"/><linearGradient id="linear-gradient-22" x1="125.31717" y1="255.56107" x2="44.81648" y2="210.31616" xlink:href="#linear-gradient-3"/><linearGradient id="linear-gradient-23" x1="-1540.7957" y1="582.9089" x2="-1590.50792" y2="554.96845" gradientTransform="matrix(1, 0, 0, -1, 1648.98804, 742.50955)" xlink:href="#linear-gradient-3"/><linearGradient id="linear-gradient-24" x1="-2231.27515" y1="85.29309" x2="-2135.66624" y2="136.88063" gradientTransform="translate(2981.09398 476.28887)" xlink:href="#linear-gradient-2"/><linearGradient id="linear-gradient-25" x1="-2048.60373" y1="150.95587" x2="-2048.82092" y2="269.54366" gradientTransform="matrix(0, -1, -1, 0, 1026.93739, -1477.86772)" xlink:href="#linear-gradient-3"/><linearGradient id="linear-gradient-26" x1="-2192.37028" y1="85.29309" x2="-2096.76137" y2="136.88063" gradientTransform="translate(2981.09398 476.28887)" xlink:href="#linear-gradient-2"/><linearGradient id="linear-gradient-27" x1="-2048.60373" y1="112.05106" x2="-2048.82092" y2="230.63886" gradientTransform="matrix(0, -1, -1, 0, 1026.93739, -1477.86772)" xlink:href="#linear-gradient-3"/></defs><title>YT_teams</title><path d="M797.54121,117.92965a.99943.99943,0,0,1-1-1v-24a23.02556,23.02556,0,0,0-23-23H622.7502a23.02556,23.02556,0,0,0-23,23v24a1,1,0,1,1-2,0v-24a25.02817,25.02817,0,0,1,25-25h150.791a25.02817,25.02817,0,0,1,25,25v24A.99942.99942,0,0,1,797.54121,117.92965Z"/><circle cx="188.86721" cy="222.97908" r="182.20943" fill="#63c2ff" opacity="0"/><circle cx="188.70939" cy="222.98319" r="182.07947" fill="#63c2ff" opacity="0.00498"/><circle cx="188.55158" cy="222.98729" r="181.9495" fill="#63c2ff" opacity="0.00995"/><circle cx="188.39376" cy="222.9914" r="181.81954" fill="#63c2ff" opacity="0.01493"/><circle cx="188.23595" cy="222.9955" r="181.68958" fill="#63c2ff" opacity="0.0199"/><circle cx="188.07813" cy="222.9996" r="181.55962" fill="#63c2ff" opacity="0.02488"/><circle cx="187.92032" cy="223.00371" r="181.42966" fill="#63c2ff" opacity="0.02985"/><circle cx="187.76251" cy="223.00781" r="181.2997" fill="#63c2ff" opacity="0.03483"/><circle cx="187.60469" cy="223.01192" r="181.16974" fill="#63c2ff" opacity="0.0398"/><circle cx="187.44688" cy="223.01602" r="181.03978" fill="#63c2ff" opacity="0.04478"/><circle cx="187.28906" cy="223.02013" r="180.90981" fill="#63c2ff" opacity="0.04975"/><circle cx="187.13125" cy="223.02423" r="180.77985" fill="#63c2ff" opacity="0.05473"/><circle cx="186.97343" cy="223.02833" r="180.64989" fill="#63c2ff" opacity="0.0597"/><circle cx="186.81562" cy="223.03244" r="180.51993" fill="#63c2ff" opacity="0.06468"/><circle cx="186.6578" cy="223.03654" r="180.38997" fill="#63c2ff" opacity="0.06965"/><circle cx="186.49999" cy="223.04065" r="180.26001" fill="#63c2ff" opacity="0.07463"/><circle cx="186.34218" cy="223.04475" r="180.13005" fill="#63c2ff" opacity="0.0796"/><circle cx="186.18436" cy="223.04886" r="180.00009" fill="#63c2ff" opacity="0.08458"/><circle cx="186.02655" cy="223.05296" r="179.87012" fill="#63c2ff" opacity="0.08955"/><circle cx="185.86873" cy="223.05707" r="179.74016" fill="#63c2ff" opacity="0.09453"/><circle cx="185.71092" cy="223.06117" r="179.6102" fill="#63c2ff" opacity="0.0995"/><circle cx="185.5531" cy="223.06527" r="179.48024" fill="#63c2ff" opacity="0.10448"/><circle cx="185.39529" cy="223.06938" r="179.35028" fill="#63c2ff" opacity="0.10945"/><circle cx="185.23748" cy="223.07348" r="179.22032" fill="#63c2ff" opacity="0.11443"/><circle cx="185.07966" cy="223.07759" r="179.09036" fill="#63c2ff" opacity="0.1194"/><circle cx="184.92185" cy="223.08169" r="178.9604" fill="#63c2ff" opacity="0.12438"/><circle cx="184.76403" cy="223.0858" r="178.83043" fill="#63c2ff" opacity="0.12935"/><circle cx="184.60622" cy="223.0899" r="178.70047" fill="#63c2ff" opacity="0.13433"/><circle cx="184.4484" cy="223.094" r="178.57051" fill="#63c2ff" opacity="0.1393"/><circle cx="184.29059" cy="223.09811" r="178.44055" fill="#63c2ff" opacity="0.14428"/><circle cx="184.13278" cy="223.10221" r="178.31059" fill="#63c2ff" opacity="0.14925"/><circle cx="183.97496" cy="223.10632" r="178.18063" fill="#63c2ff" opacity="0.15423"/><circle cx="183.81715" cy="223.11042" r="178.05067" fill="#63c2ff" opacity="0.1592"/><circle cx="183.65933" cy="223.11453" r="177.9207" fill="#63c2ff" opacity="0.16418"/><circle cx="183.50152" cy="223.11863" r="177.79074" fill="#63c2ff" opacity="0.16915"/><circle cx="183.3437" cy="223.12274" r="177.66078" fill="#63c2ff" opacity="0.17413"/><circle cx="183.18589" cy="223.12684" r="177.53082" fill="#63c2ff" opacity="0.1791"/><circle cx="183.02807" cy="223.13094" r="177.40086" fill="#63c2ff" opacity="0.18408"/><circle cx="182.87026" cy="223.13505" r="177.2709" fill="#63c2ff" opacity="0.18905"/><circle cx="182.71245" cy="223.13915" r="177.14094" fill="#63c2ff" opacity="0.19403"/><circle cx="182.55463" cy="223.14326" r="177.01098" fill="#63c2ff" opacity="0.199"/><circle cx="182.39682" cy="223.14736" r="176.88101" fill="#63c2ff" opacity="0.20398"/><circle cx="182.239" cy="223.15147" r="176.75105" fill="#63c2ff" opacity="0.20896"/><circle cx="182.08119" cy="223.15557" r="176.62109" fill="#63c2ff" opacity="0.21393"/><circle cx="181.92337" cy="223.15967" r="176.49113" fill="#63c2ff" opacity="0.21891"/><circle cx="181.76556" cy="223.16378" r="176.36117" fill="#63c2ff" opacity="0.22388"/><circle cx="181.60775" cy="223.16788" r="176.23121" fill="#63c2ff" opacity="0.22886"/><circle cx="181.44993" cy="223.17199" r="176.10125" fill="#63c2ff" opacity="0.23383"/><circle cx="181.29212" cy="223.17609" r="175.97129" fill="#63c2ff" opacity="0.23881"/><circle cx="181.1343" cy="223.1802" r="175.84132" fill="#63c2ff" opacity="0.24378"/><circle cx="180.97649" cy="223.1843" r="175.71136" fill="#63c2ff" opacity="0.24876"/><circle cx="180.81867" cy="223.1884" r="175.5814" fill="#63c2ff" opacity="0.25373"/><circle cx="180.66086" cy="223.19251" r="175.45144" fill="#63c2ff" opacity="0.25871"/><circle cx="180.50305" cy="223.19661" r="175.32148" fill="#63c2ff" opacity="0.26368"/><circle cx="180.34523" cy="223.20072" r="175.19152" fill="#63c2ff" opacity="0.26866"/><circle cx="180.18742" cy="223.20482" r="175.06156" fill="#63c2ff" opacity="0.27363"/><circle cx="180.0296" cy="223.20893" r="174.9316" fill="#63c2ff" opacity="0.27861"/><circle cx="179.87179" cy="223.21303" r="174.80163" fill="#63c2ff" opacity="0.28358"/><circle cx="179.71397" cy="223.21714" r="174.67167" fill="#63c2ff" opacity="0.28856"/><circle cx="179.55616" cy="223.22124" r="174.54171" fill="#63c2ff" opacity="0.29353"/><circle cx="179.39835" cy="223.22534" r="174.41175" fill="#63c2ff" opacity="0.29851"/><circle cx="179.24053" cy="223.22945" r="174.28179" fill="#63c2ff" opacity="0.30348"/><circle cx="179.08272" cy="223.23355" r="174.15183" fill="#63c2ff" opacity="0.30846"/><circle cx="178.9249" cy="223.23766" r="174.02187" fill="#63c2ff" opacity="0.31343"/><circle cx="178.76709" cy="223.24176" r="173.89191" fill="#63c2ff" opacity="0.31841"/><circle cx="178.60927" cy="223.24587" r="173.76194" fill="#63c2ff" opacity="0.32338"/><circle cx="178.45146" cy="223.24997" r="173.63198" fill="#63c2ff" opacity="0.32836"/><circle cx="178.29364" cy="223.25407" r="173.50202" fill="#63c2ff" opacity="0.33333"/><circle cx="178.13583" cy="223.25818" r="173.37206" fill="#63c2ff" opacity="0.33831"/><circle cx="177.97802" cy="223.26228" r="173.2421" fill="#63c2ff" opacity="0.34328"/><circle cx="177.8202" cy="223.26639" r="173.11214" fill="#63c2ff" opacity="0.34826"/><circle cx="177.66239" cy="223.27049" r="172.98218" fill="#63c2ff" opacity="0.35323"/><circle cx="177.50457" cy="223.2746" r="172.85221" fill="#63c2ff" opacity="0.35821"/><circle cx="177.34676" cy="223.2787" r="172.72225" fill="#63c2ff" opacity="0.36318"/><circle cx="177.18894" cy="223.28281" r="172.59229" fill="#63c2ff" opacity="0.36816"/><circle cx="177.03113" cy="223.28691" r="172.46233" fill="#63c2ff" opacity="0.37313"/><circle cx="176.87332" cy="223.29101" r="172.33237" fill="#63c2ff" opacity="0.37811"/><circle cx="176.7155" cy="223.29512" r="172.20241" fill="#63c2ff" opacity="0.38308"/><circle cx="176.55769" cy="223.29922" r="172.07245" fill="#63c2ff" opacity="0.38806"/><circle cx="176.39987" cy="223.30333" r="171.94249" fill="#63c2ff" opacity="0.39303"/><circle cx="176.24206" cy="223.30743" r="171.81252" fill="#63c2ff" opacity="0.39801"/><circle cx="176.08424" cy="223.31154" r="171.68256" fill="#63c2ff" opacity="0.40299"/><circle cx="175.92643" cy="223.31564" r="171.5526" fill="#63c2ff" opacity="0.40796"/><circle cx="175.76862" cy="223.31974" r="171.42264" fill="#63c2ff" opacity="0.41294"/><circle cx="175.6108" cy="223.32385" r="171.29268" fill="#63c2ff" opacity="0.41791"/><circle cx="175.45299" cy="223.32795" r="171.16272" fill="#63c2ff" opacity="0.42289"/><circle cx="175.29517" cy="223.33206" r="171.03276" fill="#63c2ff" opacity="0.42786"/><circle cx="175.13736" cy="223.33616" r="170.9028" fill="#63c2ff" opacity="0.43284"/><circle cx="174.97954" cy="223.34027" r="170.77283" fill="#63c2ff" opacity="0.43781"/><circle cx="174.82173" cy="223.34437" r="170.64287" fill="#63c2ff" opacity="0.44279"/><circle cx="174.66392" cy="223.34847" r="170.51291" fill="#63c2ff" opacity="0.44776"/><circle cx="174.5061" cy="223.35258" r="170.38295" fill="#63c2ff" opacity="0.45274"/><circle cx="174.34829" cy="223.35668" r="170.25299" fill="#63c2ff" opacity="0.45771"/><circle cx="174.19047" cy="223.36079" r="170.12303" fill="#63c2ff" opacity="0.46269"/><circle cx="174.03266" cy="223.36489" r="169.99307" fill="#63c2ff" opacity="0.46766"/><circle cx="173.87484" cy="223.369" r="169.86311" fill="#63c2ff" opacity="0.47264"/><circle cx="173.71703" cy="223.3731" r="169.73314" fill="#63c2ff" opacity="0.47761"/><circle cx="173.55921" cy="223.37721" r="169.60318" fill="#63c2ff" opacity="0.48259"/><circle cx="173.4014" cy="223.38131" r="169.47322" fill="#63c2ff" opacity="0.48756"/><circle cx="173.24359" cy="223.38541" r="169.34326" fill="#63c2ff" opacity="0.49254"/><circle cx="173.08577" cy="223.38952" r="169.2133" fill="#63c2ff" opacity="0.49751"/><circle cx="172.92796" cy="223.39362" r="169.08334" fill="#63c2ff" opacity="0.50249"/><circle cx="172.77014" cy="223.39773" r="168.95338" fill="#63c2ff" opacity="0.50746"/><circle cx="172.61233" cy="223.40183" r="168.82341" fill="#63c2ff" opacity="0.51244"/><circle cx="172.45451" cy="223.40594" r="168.69345" fill="#63c2ff" opacity="0.51741"/><circle cx="172.2967" cy="223.41004" r="168.56349" fill="#63c2ff" opacity="0.52239"/><circle cx="172.13889" cy="223.41414" r="168.43353" fill="#63c2ff" opacity="0.52736"/><circle cx="171.98107" cy="223.41825" r="168.30357" fill="#63c2ff" opacity="0.53234"/><circle cx="171.82326" cy="223.42235" r="168.17361" fill="#63c2ff" opacity="0.53731"/><circle cx="171.66544" cy="223.42646" r="168.04365" fill="#63c2ff" opacity="0.54229"/><circle cx="171.50763" cy="223.43056" r="167.91369" fill="#63c2ff" opacity="0.54726"/><circle cx="171.34981" cy="223.43467" r="167.78372" fill="#63c2ff" opacity="0.55224"/><circle cx="171.192" cy="223.43877" r="167.65376" fill="#63c2ff" opacity="0.55721"/><circle cx="171.03419" cy="223.44288" r="167.5238" fill="#63c2ff" opacity="0.56219"/><circle cx="170.87637" cy="223.44698" r="167.39384" fill="#63c2ff" opacity="0.56716"/><circle cx="170.71856" cy="223.45108" r="167.26388" fill="#63c2ff" opacity="0.57214"/><circle cx="170.56074" cy="223.45519" r="167.13392" fill="#63c2ff" opacity="0.57711"/><circle cx="170.40293" cy="223.45929" r="167.00396" fill="#63c2ff" opacity="0.58209"/><circle cx="170.24511" cy="223.4634" r="166.874" fill="#63c2ff" opacity="0.58706"/><circle cx="170.0873" cy="223.4675" r="166.74403" fill="#63c2ff" opacity="0.59204"/><circle cx="169.92949" cy="223.47161" r="166.61407" fill="#63c2ff" opacity="0.59701"/><circle cx="169.77167" cy="223.47571" r="166.48411" fill="#63c2ff" opacity="0.60199"/><circle cx="169.61386" cy="223.47981" r="166.35415" fill="#63c2ff" opacity="0.60697"/><circle cx="169.45604" cy="223.48392" r="166.22419" fill="#63c2ff" opacity="0.61194"/><circle cx="169.29823" cy="223.48802" r="166.09423" fill="#63c2ff" opacity="0.61692"/><circle cx="169.14041" cy="223.49213" r="165.96427" fill="#63c2ff" opacity="0.62189"/><circle cx="168.9826" cy="223.49623" r="165.83431" fill="#63c2ff" opacity="0.62687"/><circle cx="168.82478" cy="223.50034" r="165.70434" fill="#63c2ff" opacity="0.63184"/><circle cx="168.66697" cy="223.50444" r="165.57438" fill="#63c2ff" opacity="0.63682"/><circle cx="168.50916" cy="223.50854" r="165.44442" fill="#63c2ff" opacity="0.64179"/><circle cx="168.35134" cy="223.51265" r="165.31446" fill="#63c2ff" opacity="0.64677"/><circle cx="168.19353" cy="223.51675" r="165.1845" fill="#63c2ff" opacity="0.65174"/><circle cx="168.03571" cy="223.52086" r="165.05454" fill="#63c2ff" opacity="0.65672"/><circle cx="167.8779" cy="223.52496" r="164.92458" fill="#63c2ff" opacity="0.66169"/><circle cx="167.72008" cy="223.52907" r="164.79461" fill="#63c2ff" opacity="0.66667"/><circle cx="167.56227" cy="223.53317" r="164.66465" fill="#63c2ff" opacity="0.67164"/><circle cx="167.40446" cy="223.53728" r="164.53469" fill="#63c2ff" opacity="0.67662"/><circle cx="167.24664" cy="223.54138" r="164.40473" fill="#63c2ff" opacity="0.68159"/><circle cx="167.08883" cy="223.54548" r="164.27477" fill="#63c2ff" opacity="0.68657"/><circle cx="166.93101" cy="223.54959" r="164.14481" fill="#63c2ff" opacity="0.69154"/><circle cx="166.7732" cy="223.55369" r="164.01485" fill="#63c2ff" opacity="0.69652"/><circle cx="166.61538" cy="223.5578" r="163.88489" fill="#63c2ff" opacity="0.70149"/><circle cx="166.45757" cy="223.5619" r="163.75492" fill="#63c2ff" opacity="0.70647"/><circle cx="166.29976" cy="223.56601" r="163.62496" fill="#63c2ff" opacity="0.71144"/><circle cx="166.14194" cy="223.57011" r="163.495" fill="#63c2ff" opacity="0.71642"/><circle cx="165.98413" cy="223.57421" r="163.36504" fill="#63c2ff" opacity="0.72139"/><circle cx="165.82631" cy="223.57832" r="163.23508" fill="#63c2ff" opacity="0.72637"/><circle cx="165.6685" cy="223.58242" r="163.10512" fill="#63c2ff" opacity="0.73134"/><circle cx="165.51068" cy="223.58653" r="162.97516" fill="#63c2ff" opacity="0.73632"/><circle cx="165.35287" cy="223.59063" r="162.8452" fill="#63c2ff" opacity="0.74129"/><circle cx="165.19505" cy="223.59474" r="162.71523" fill="#63c2ff" opacity="0.74627"/><circle cx="165.03724" cy="223.59884" r="162.58527" fill="#63c2ff" opacity="0.75124"/><circle cx="164.87943" cy="223.60294" r="162.45531" fill="#63c2ff" opacity="0.75622"/><circle cx="164.72161" cy="223.60705" r="162.32535" fill="#63c2ff" opacity="0.76119"/><circle cx="164.5638" cy="223.61115" r="162.19539" fill="#63c2ff" opacity="0.76617"/><circle cx="164.40598" cy="223.61526" r="162.06543" fill="#63c2ff" opacity="0.77114"/><circle cx="164.24817" cy="223.61936" r="161.93547" fill="#63c2ff" opacity="0.77612"/><circle cx="164.09035" cy="223.62347" r="161.80551" fill="#63c2ff" opacity="0.78109"/><circle cx="163.93254" cy="223.62757" r="161.67554" fill="#63c2ff" opacity="0.78607"/><circle cx="163.77473" cy="223.63168" r="161.54558" fill="#63c2ff" opacity="0.79104"/><circle cx="163.61691" cy="223.63578" r="161.41562" fill="#63c2ff" opacity="0.79602"/><circle cx="163.4591" cy="223.63988" r="161.28566" fill="#63c2ff" opacity="0.801"/><circle cx="163.30128" cy="223.64399" r="161.1557" fill="#63c2ff" opacity="0.80597"/><circle cx="163.14347" cy="223.64809" r="161.02574" fill="#63c2ff" opacity="0.81095"/><circle cx="162.98565" cy="223.6522" r="160.89578" fill="#63c2ff" opacity="0.81592"/><circle cx="162.82784" cy="223.6563" r="160.76582" fill="#63c2ff" opacity="0.8209"/><circle cx="162.67003" cy="223.66041" r="160.63585" fill="#63c2ff" opacity="0.82587"/><circle cx="162.51221" cy="223.66451" r="160.50589" fill="#63c2ff" opacity="0.83085"/><circle cx="162.3544" cy="223.66861" r="160.37593" fill="#63c2ff" opacity="0.83582"/><circle cx="162.19658" cy="223.67272" r="160.24597" fill="#63c2ff" opacity="0.8408"/><circle cx="162.03877" cy="223.67682" r="160.11601" fill="#63c2ff" opacity="0.84577"/><circle cx="161.88095" cy="223.68093" r="159.98605" fill="#63c2ff" opacity="0.85075"/><circle cx="161.72314" cy="223.68503" r="159.85609" fill="#63c2ff" opacity="0.85572"/><circle cx="161.56533" cy="223.68914" r="159.72612" fill="#63c2ff" opacity="0.8607"/><circle cx="161.40751" cy="223.69324" r="159.59616" fill="#63c2ff" opacity="0.86567"/><circle cx="161.2497" cy="223.69735" r="159.4662" fill="#63c2ff" opacity="0.87065"/><circle cx="161.09188" cy="223.70145" r="159.33624" fill="#63c2ff" opacity="0.87562"/><circle cx="160.93407" cy="223.70555" r="159.20628" fill="#63c2ff" opacity="0.8806"/><circle cx="160.77625" cy="223.70966" r="159.07632" fill="#63c2ff" opacity="0.88557"/><circle cx="160.61844" cy="223.71376" r="158.94636" fill="#63c2ff" opacity="0.89055"/><circle cx="160.46062" cy="223.71787" r="158.8164" fill="#63c2ff" opacity="0.89552"/><circle cx="160.30281" cy="223.72197" r="158.68643" fill="#63c2ff" opacity="0.9005"/><circle cx="160.145" cy="223.72608" r="158.55647" fill="#63c2ff" opacity="0.90547"/><circle cx="159.98718" cy="223.73018" r="158.42651" fill="#63c2ff" opacity="0.91045"/><circle cx="159.82937" cy="223.73428" r="158.29655" fill="#63c2ff" opacity="0.91542"/><circle cx="159.67155" cy="223.73839" r="158.16659" fill="#63c2ff" opacity="0.9204"/><circle cx="159.51374" cy="223.74249" r="158.03663" fill="#63c2ff" opacity="0.92537"/><circle cx="159.35592" cy="223.7466" r="157.90667" fill="#63c2ff" opacity="0.93035"/><circle cx="159.19811" cy="223.7507" r="157.77671" fill="#63c2ff" opacity="0.93532"/><circle cx="159.0403" cy="223.75481" r="157.64674" fill="#63c2ff" opacity="0.9403"/><circle cx="158.88248" cy="223.75891" r="157.51678" fill="#63c2ff" opacity="0.94527"/><circle cx="158.72467" cy="223.76301" r="157.38682" fill="#63c2ff" opacity="0.95025"/><circle cx="158.56685" cy="223.76712" r="157.25686" fill="#63c2ff" opacity="0.95522"/><circle cx="158.40904" cy="223.77122" r="157.1269" fill="#63c2ff" opacity="0.9602"/><circle cx="158.25122" cy="223.77533" r="156.99694" fill="#63c2ff" opacity="0.96517"/><circle cx="158.09341" cy="223.77943" r="156.86698" fill="#63c2ff" opacity="0.97015"/><circle cx="157.9356" cy="223.78354" r="156.73702" fill="#63c2ff" opacity="0.97512"/><circle cx="157.77778" cy="223.78764" r="156.60705" fill="#63c2ff" opacity="0.9801"/><circle cx="157.61997" cy="223.79175" r="156.47709" fill="#63c2ff" opacity="0.98507"/><circle cx="157.46215" cy="223.79585" r="156.34713" fill="#63c2ff" opacity="0.99005"/><circle cx="157.30434" cy="223.79995" r="156.21717" fill="#63c2ff" opacity="0.99502"/><circle cx="157.14652" cy="223.80406" r="156.08721" fill="#63c2ff"/><circle cx="157.14652" cy="223.80406" r="156.08721" fill="url(#linear-gradient)"/><path d="M147.27108,565.42136V555.36673c1.98244-2.44471,3.93645-4.91267,5.895-7.37666,1.23333-1.55153,1.2718-2.07056.308-3.74482q-2.47251-4.29491-4.94941-8.58709c-.93644-1.62325-1.47616-1.89578-3.309-1.62393q-4.49154.66627-8.97962,1.35616l-9.223-5.32486c-1.10746-2.87968-2.24295-5.74864-3.3779-8.61766a2.48083,2.48083,0,0,0-2.844-1.93571q-5.11044-.007-10.221-.00058c-1.78862.00162-2.30985.35637-2.968,2.03571q-1.77081,4.5181-3.52426,9.04307l-.00961.02138-8.46123,4.885c-.88678-.07448-1.769-.27738-2.6544-.41088q-3.8226-.5761-7.64605-1.14468a2.51049,2.51049,0,0,0-2.45954,1.53649c-1.72173,2.97355-3.45913,5.938-5.18483,8.90916-.86577,1.49054-.82511,2.13637.25988,3.50241,1.6981,2.13809,3.39494,4.2777,5.12148,6.39264v12.26026q-2.60862,3.21992-5.1865,6.46478c-1.006,1.26557-1.05175,1.93106-.24315,3.33608,1.714,2.97795,3.47042,5.9319,5.15221,8.92778a2.69337,2.69337,0,0,0,3.09691,1.5311c3.04077-.5012,6.094-.926,9.1359-1.42066l9.132,5.27232c1.11123,2.91606,2.25371,5.82026,3.39881,8.72325.60914,1.54412,1.17677,1.91705,2.84874,1.91946q4.96164.0072,9.92328.00125c2.082-.00042,2.5069-.28894,3.25486-2.19434,1.17228-2.98589,2.36128-5.96535,3.51077-8.95981l8.4123-4.85684.04161.00538c3.22789.52865,6.46707.98783,9.6958,1.5115a2.585,2.585,0,0,0,2.96812-1.40393c1.74169-3.0761,3.54537-6.117,5.30452-9.18331.82-1.42907.76124-2.06712-.25131-3.34Q150.26607,569.13976,147.27108,565.42136Zm-34.93629-.48232a4.50342,4.50342,0,0,1-1.79816-1.7985,5.87583,5.87583,0,0,1,8.07988-8.07989,4.50224,4.50224,0,0,1,1.79845,1.79816A5.87587,5.87587,0,0,1,112.33479,564.939Z" fill="#63c2ff"/><path d="M617.33809,585.455H111.68086a25,25,0,1,1,0-50H617.33809a25,25,0,0,1,0,50Zm-505.65723-48a23,23,0,1,0,0,46H617.33809a23,23,0,0,0,0-46Z" fill="#63c2ff"/><path d="M1.05931,203.18841V33.35957A29.18661,29.18661,0,0,1,30.24592,4.173H200.07475c26.00249,0,39.02459,31.43812,20.638,49.82466L50.884,223.82646C32.49743,242.213,1.05931,229.1909,1.05931,203.18841Z" fill="url(#linear-gradient-2)"/><path d="M142.68379,63.15426c18.48047,0,31.09375,11.43945,31.09375,26.54687,0,11.5127-5.93945,19.65332-15.32617,25.29981-9.31348,5.5-11.9541,9.60644-11.9541,17.30664v4.7666h-12.833v-6.74609c-.07324-9.68067,4.62012-16.28028,14.667-22.294,8.50586-5.207,11.80664-9.82617,11.80664-17.67383,0-9.09277-7.04-15.7666-17.9668-15.7666-11.07324,0-18.11328,6.52735-18.91992,17.01367h-12.541C111.51777,75.76754,122.07734,63.15426,142.68379,63.15426Zm-11.80664,97.7539a9.83949,9.83949,0,0,1,10.19336-10.2666c5.94043,0,10.12012,4.25293,10.12012,10.2666a10.15681,10.15681,0,1,1-20.31348,0Z" fill="#fff"/><path d="M362.63868,409.87125H726.4868a24,24,0,0,1,24,24v.00005a24,24,0,0,1-24,24H362.63868a24,24,0,0,1-24-24v0a24,24,0,0,1,24-24Z" fill="url(#linear-gradient-3)"/><rect x="684.56565" y="301.91609" width="66.41005" height="15.96563" rx="7.98281" transform="translate(407.87178 1027.66958) rotate(-90)" fill="url(#linear-gradient-4)"/><rect x="700.53128" y="301.91609" width="66.41005" height="15.96563" rx="7.98281" transform="translate(423.8374 1043.63521) rotate(-90)" fill="url(#linear-gradient-5)"/><rect x="716.49691" y="302.86735" width="66.41005" height="15.96563" rx="7.98281" transform="translate(438.85176 1060.5521) rotate(-90)" fill="url(#linear-gradient-6)"/><path d="M701.49977,284.5046h8.28806a0,0,0,0,1,0,0v37.85064a8.288,8.288,0,0,1-8.288,8.288h-8.28806a0,0,0,0,1,0,0V292.79265A8.288,8.288,0,0,1,701.49977,284.5046Z" fill="url(#linear-gradient-7)"/><path d="M733.68469,81.6938h0a24,24,0,0,1,24,24V285.15572h-48V105.69378A24,24,0,0,1,733.68469,81.6938Z" fill="url(#linear-gradient-8)"/><path d="M329.48729,329.44453h226.7084a24,24,0,0,1,24,24v.00005a24,24,0,0,1-24,24H329.48728a24,24,0,0,1-24-24v0a24,24,0,0,1,24-24Z" transform="translate(-120.21775 416.65773) rotate(-45)" fill="url(#linear-gradient-9)"/><path d="M301.96381,135.10213H447.5584a24,24,0,0,1,24,24v.00005a24,24,0,0,1-24,24H301.96381a24,24,0,0,1-24-24v0a24,24,0,0,1,24-24Z" transform="translate(-2.73717 311.59616) rotate(-45.00002)" fill="url(#linear-gradient-10)"/><path d="M325.458,385.82349V375.76886c1.98244-2.44471,3.93645-4.91267,5.895-7.37666,1.23333-1.55153,1.2718-2.07056.308-3.74482q-2.47251-4.2949-4.94941-8.58709c-.93644-1.62325-1.47617-1.89578-3.309-1.62393q-4.49154.66627-8.97963,1.35616l-9.223-5.32486c-1.10747-2.87968-2.243-5.74864-3.3779-8.61766a2.48083,2.48083,0,0,0-2.844-1.93571q-5.11044-.007-10.221-.00058c-1.78863.00162-2.30985.35637-2.968,2.03571q-1.77081,4.51811-3.52426,9.04307l-.00961.02138-8.46123,4.885c-.88679-.07448-1.769-.27739-2.6544-.41088q-3.8226-.57611-7.64605-1.14468a2.51049,2.51049,0,0,0-2.45954,1.53649c-1.72173,2.97355-3.45913,5.938-5.18483,8.90916-.86577,1.49054-.82511,2.13637.25988,3.50241,1.6981,2.13809,3.39494,4.2777,5.12148,6.39264v12.26026q-2.60862,3.21992-5.1865,6.46478c-1.006,1.26557-1.05175,1.931-.24315,3.33608,1.714,2.978,3.47041,5.9319,5.15221,8.92778a2.69337,2.69337,0,0,0,3.0969,1.5311c3.04078-.5012,6.094-.926,9.13591-1.42066l9.132,5.27232c1.11123,2.91606,2.25371,5.82026,3.39881,8.72325.60914,1.54412,1.17677,1.91705,2.84874,1.91946q4.96164.0072,9.92327.00125c2.082-.00042,2.50691-.28894,3.25487-2.19434,1.17228-2.98589,2.36128-5.96535,3.51077-8.95981l8.4123-4.85684.0416.00538c3.2279.52865,6.46708.98783,9.69581,1.5115a2.585,2.585,0,0,0,2.96812-1.40393c1.74169-3.0761,3.54537-6.117,5.30452-9.18331.82-1.42907.76124-2.06712-.25131-3.34Q328.453,389.54189,325.458,385.82349Zm-34.93629-.48232a4.50332,4.50332,0,0,1-1.79816-1.79851,5.87583,5.87583,0,0,1,8.07988-8.07988,4.50224,4.50224,0,0,1,1.79845,1.79816A5.87587,5.87587,0,0,1,290.52171,385.34117Z" fill="#63c2ff"/><path d="M430.21832,81.69383h87.64032A30.18918,30.18918,0,0,1,548.04782,111.883V270.50465a30.18918,30.18918,0,0,1-30.18918,30.18918h0a30.18917,30.18917,0,0,1-26.42416-15.58952L403.79416,126.48266A30.18917,30.18917,0,0,1,430.21832,81.69383Z" fill="url(#linear-gradient-11)"/><path d="M430.823,6.07516a23.41321,23.41321,0,0,1,21.05566,13.02173l.80225,1.60546,1.68262-.62451A5.70721,5.70721,0,1,1,456.344,31.13277h-.00342c-.05957-.00415-.11963-.00781-.18018-.00976l-1.79687-.05737-.248,1.78027A23.52122,23.52122,0,1,1,430.823,6.07516m0-2A25.50123,25.50123,0,1,0,456.09639,33.122c.084.00269.166.0127.251.0127a7.70974,7.70974,0,1,0-2.67968-14.93189A25.52207,25.52207,0,0,0,430.823,4.07516Z"/><path d="M430.823,4.07505a25.52179,25.52179,0,0,1,22.84454,14.12781,7.7079,7.7079,0,1,1,2.68,14.93171c-.08483,0-.16706-.01-.25111-.01271A25.51793,25.51793,0,0,1,430.823,55.07741h51.85374a23.61729,23.61729,0,0,0,23.61733-23.61734V4.07505Z"/><path d="M427.2829,26.24372l.00318,3.99812a1.83329,1.83329,0,0,0,1.83558,1.831h0a1.8333,1.8333,0,0,0,1.83268-1.83393l-.00318-3.99812a1.83329,1.83329,0,0,0-1.83559-1.831h0A1.83328,1.83328,0,0,0,427.2829,26.24372Z"/><path d="M411.11808,26.24372l.00317,3.99812a1.83331,1.83331,0,0,0,1.83559,1.831h0a1.83328,1.83328,0,0,0,1.83267-1.83393l-.00317-3.99812a1.8333,1.8333,0,0,0-1.83559-1.831h0A1.83328,1.83328,0,0,0,411.11808,26.24372Z"/><path d="M412.69189,11.63105a25.53179,25.53179,0,0,1,36.26236,0Z"/><path d="M731.33711,6.57174a23.50123,23.50123,0,1,1-23.292,26.771l-.24805-1.78052-1.79687.05737c-.06055.002-.12061.00562-.187.01172a5.70975,5.70975,0,1,1,1.98438-11.05664l1.68213.624.80224-1.60522A23.413,23.413,0,0,1,731.33711,6.57174m0-2a25.52187,25.52187,0,0,0-22.84424,14.12768,7.708,7.708,0,1,0-2.67969,14.93189c.08448,0,.167-.01.251-.0127a25.521,25.521,0,1,0,25.273-29.04687Z"/><path d="M731.33737,4.57164a25.5218,25.5218,0,0,0-22.84455,14.1278,7.7079,7.7079,0,1,0-2.68,14.93172c.08483,0,.16707-.01.25111-.01271A25.51794,25.51794,0,0,0,731.33737,55.574H679.48363A23.61727,23.61727,0,0,1,655.8663,31.95666V4.57164Z"/><path d="M734.87745,26.74031l-.00318,3.99812a1.8333,1.8333,0,0,1-1.83559,1.831h0a1.8333,1.8333,0,0,1-1.83267-1.83393l.00318-3.99812a1.8333,1.8333,0,0,1,1.83558-1.831h0A1.83331,1.83331,0,0,1,734.87745,26.74031Z"/><path d="M751.04227,26.74031l-.00318,3.99812a1.83329,1.83329,0,0,1-1.83558,1.831h0a1.8333,1.8333,0,0,1-1.83268-1.83393l.00318-3.99812a1.8333,1.8333,0,0,1,1.83558-1.831h0A1.83331,1.83331,0,0,1,751.04227,26.74031Z"/><path d="M749.46846,12.12764a25.53178,25.53178,0,0,0-36.26237,0Z"/><path d="M522.39564,81.69383H733.68474a24,24,0,0,1,24,24v.00005a24,24,0,0,1-24,24H522.39563a24,24,0,0,1-24-24v0A24,24,0,0,1,522.39564,81.69383Z" fill="url(#linear-gradient-12)"/><path d="M97.85776,234.46483v-48H322.3146a24,24,0,0,1,24,24v0a24,24,0,0,1-24,24Z" fill="url(#linear-gradient-13)"/><path d="M257.4417,252.69382h261.318a24,24,0,0,1,24,24v.00005a24,24,0,0,1-24,24H257.4417a24,24,0,0,1-24-24v0a24,24,0,0,1,24-24Z" fill="url(#linear-gradient-14)"/><rect x="738.36394" y="410.01133" width="19.32078" height="97.95061" fill="url(#linear-gradient-15)"/><path d="M738.36394,499.47069h0V409.87108h-24v65.59973A23.99991,23.99991,0,0,0,738.36394,499.47069Z" fill="url(#linear-gradient-16)"/><path d="M99.71028,468.09415,65.76915,434.153,240.2599,259.66226a24,24,0,0,1,33.9411,0l0,0a24,24,0,0,1,0,33.94108Z" fill="url(#linear-gradient-17)"/><rect x="32.45676" y="407.26008" width="19.32078" height="97.95061" transform="translate(-310.27131 163.40957) rotate(-45)" fill="url(#linear-gradient-18)"/><path d="M20.32152,420.77791h0L83.678,484.1344l16.97057-16.97057-46.386-46.386A23.99991,23.99991,0,0,0,20.32152,420.77791Z" fill="url(#linear-gradient-19)"/><rect x="41.25848" y="185.53881" width="66.41005" height="16.57611" rx="8.28805" fill="url(#linear-gradient-20)"/><rect x="41.25848" y="202.11492" width="66.41005" height="16.57611" rx="8.28805" fill="url(#linear-gradient-21)"/><rect x="41.25848" y="218.69103" width="66.41005" height="16.57611" rx="8.28805" fill="url(#linear-gradient-22)"/><path d="M76.7884,154.18141h8.28806a0,0,0,0,1,0,0v37.85064a8.288,8.288,0,0,1-8.288,8.288H68.50035a0,0,0,0,1,0,0V162.46946a8.288,8.288,0,0,1,8.288-8.288Z" transform="translate(254.03914 100.46231) rotate(89.99999)" fill="url(#linear-gradient-23)"/><path d="M96.57539,308.02633l-1.1582-.18555a79.48182,79.48182,0,0,1-67.126-78.87695V61.8857a33.57123,33.57123,0,0,1,33.5332-33.5332H274.52168a33.57123,33.57123,0,0,1,33.5332,33.5332V215.31832c0,17.75-12.26953,35.71973-35.7207,35.71973H96.57539ZM61.82441,30.3525a31.56862,31.56862,0,0,0-31.5332,31.5332V228.96383a77.48321,77.48321,0,0,0,64.28418,76.708V249.03805H272.33418c22.1377,0,33.7207-16.96289,33.7207-33.71973V61.8857a31.56862,31.56862,0,0,0-31.5332-31.5332Z" fill="#63c2ff"/><path d="M845.97969,566.69234h-49a1,1,0,0,1,0-2h47V253.122a23,23,0,0,0-46,0v88.40625a1,1,0,1,1-2,0V253.122a25,25,0,0,1,50,0Z"/><rect x="758.1698" y="582.85302" width="97.95061" height="19.32078" fill="url(#linear-gradient-24)"/><path d="M847.62917,582.853H758.02956v-24h65.59973A23.99991,23.99991,0,0,1,847.62917,582.853Z" fill="url(#linear-gradient-25)"/><rect x="797.07467" y="582.85302" width="97.95061" height="19.32078" fill="url(#linear-gradient-26)"/><path d="M886.534,582.853h-89.5996v-24h65.59973A23.9999,23.9999,0,0,1,886.534,582.853Z" fill="url(#linear-gradient-27)"/><path d="M113.01973,586.5732A24.83526,24.83526,0,0,1,95.342,579.25094h0a24.99915,24.99915,0,0,1,0-35.35449L275.94746,363.29a25.00009,25.00009,0,0,1,35.35547,35.35547L130.69648,579.25094A24.83465,24.83465,0,0,1,113.01973,586.5732ZM293.6252,357.96774a22.84825,22.84825,0,0,0-16.26368,6.73632L96.75605,545.31051a22.99989,22.99989,0,0,0,0,32.52637h0a22.99989,22.99989,0,0,0,32.52637,0L309.88887,397.23141a23,23,0,0,0-16.26367-39.26367Z"/><path d="M410.632,60.15231a3.00005,3.00005,0,0,1-1.67773-5.48926L453.343,24.789V3a3,3,0,1,1,6,0V26.3857a3.002,3.002,0,0,1-1.3252,2.48926l-45.71386,30.7666A2.98438,2.98438,0,0,1,410.632,60.15231Z" fill="#fff"/><circle cx="455.79641" cy="26.93283" r="11.28156"/><path d="M410.632,60.15231a3.00005,3.00005,0,0,1-1.67773-5.48926l45.71386-30.7666a3.00023,3.00023,0,1,1,3.34961,4.97851l-45.71386,30.7666A2.98438,2.98438,0,0,1,410.632,60.15231Z"/><path d="M141.22462,149.50471a10.567,10.567,0,1,0,10.56708,10.56708A10.56706,10.56706,0,0,0,141.22462,149.50471Z" fill="#fff"/><path d="M181.13889,149.50471A10.567,10.567,0,1,0,191.706,160.07179,10.56706,10.56706,0,0,0,181.13889,149.50471Z" fill="#fff"/><path d="M221.05315,149.50471a10.567,10.567,0,1,0,10.56708,10.56708A10.5672,10.5672,0,0,0,221.05315,149.50471Z" fill="#fff"/><path d="M293.3706,369.65539a10.567,10.567,0,1,0,10.56708,10.56708A10.56707,10.56707,0,0,0,293.3706,369.65539Z"/><path d="M115.75411,549.27188A10.567,10.567,0,1,0,126.32119,559.839,10.56707,10.56707,0,0,0,115.75411,549.27188Z" fill="#fff"/><rect y="3.29104" width="896" height="600" fill="none"/></svg>