<?xml version="1.0" encoding="utf-8"?>
<!-- Generator: Adobe Illustrator 19.1.0, SVG Export Plug-In . SVG Version: 6.00 Build 0)  -->
<svg version="1.1" xmlns="http://www.w3.org/2000/svg" xmlns:xlink="http://www.w3.org/1999/xlink" x="0px" y="0px"
	 viewBox="264 -124 540 260" style="enable-background:new 264 -124 540 260;" xml:space="preserve">
<style type="text/css">
	.st0{fill:#FFFFFF;}
	.st1{fill:#EEEEEE;}
	.st2{fill:#4C4C4C;}
	.st3{fill:#E2F8DC;}
	.st4{fill:#F9F1DC;}
	.st5{fill:#E5E5E5;}
	.st6{fill:#F2F2F2;}
	.st7{fill:#999999;}
	.st8{fill:#363636;}
</style>
<g id="Layer_1">
	<g>
		<rect x="264.5" y="-123.5" class="st0" width="539" height="259"/>
		<path class="st1" d="M803-123v258H265v-258H803 M804-124H264v260h540V-124L804-124z"/>
	</g>
	<g>
		<path d="M288-91.6l1.5-1.7c1,0.8,2.1,1.4,3.3,1.4c1,0,1.6-0.4,1.6-1.1v0c0-0.6-0.4-0.9-2.3-1.4c-2.3-0.6-3.7-1.2-3.7-3.4v0
			c0-2,1.6-3.4,3.9-3.4c1.6,0,3,0.5,4.2,1.4l-1.3,1.9c-1-0.7-2-1.1-2.9-1.1s-1.4,0.4-1.4,1v0c0,0.7,0.5,1,2.4,1.5
			c2.3,0.6,3.6,1.4,3.6,3.4v0c0,2.2-1.7,3.5-4.1,3.5C291-89.8,289.3-90.4,288-91.6z"/>
		<path d="M298.7-93v-5.6h2.4v4.8c0,1.2,0.5,1.7,1.5,1.7c0.9,0,1.5-0.6,1.5-1.7v-4.8h2.4v8.6h-2.4v-1.2c-0.6,0.7-1.3,1.4-2.5,1.4
			C299.7-89.8,298.7-91.1,298.7-93z"/>
		<path d="M311.1-91.1v1.1h-2.4v-11.7h2.4v4.3c0.6-0.8,1.4-1.4,2.7-1.4c2,0,3.9,1.6,3.9,4.4v0c0,2.9-1.9,4.4-3.9,4.4
			C312.5-89.8,311.7-90.4,311.1-91.1z M315.3-94.3L315.3-94.3c0-1.5-1-2.4-2.1-2.4c-1.1,0-2.1,0.9-2.1,2.4v0c0,1.4,0.9,2.4,2.1,2.4
			C314.3-91.9,315.3-92.8,315.3-94.3z"/>
		<path d="M318.8-91.1l1-1.6c0.9,0.7,1.9,1,2.7,1c0.7,0,1-0.3,1-0.6v0c0-0.5-0.8-0.7-1.8-1c-1.2-0.4-2.6-0.9-2.6-2.6v0
			c0-1.7,1.4-2.7,3.1-2.7c1.1,0,2.3,0.4,3.2,1l-0.9,1.7c-0.8-0.5-1.7-0.8-2.3-0.8c-0.6,0-0.9,0.3-0.9,0.6v0c0,0.5,0.8,0.7,1.7,1
			c1.2,0.4,2.6,1,2.6,2.5v0c0,1.9-1.4,2.8-3.3,2.8C321.3-89.8,319.9-90.2,318.8-91.1z"/>
		<path d="M327.1-94.2L327.1-94.2c0-2.5,1.9-4.5,4.5-4.5c1.6,0,2.6,0.5,3.4,1.4l-1.5,1.6c-0.5-0.6-1.1-0.9-2-0.9
			c-1.2,0-2.1,1.1-2.1,2.3v0c0,1.3,0.8,2.4,2.2,2.4c0.8,0,1.4-0.4,2-0.9l1.4,1.4c-0.8,0.9-1.8,1.6-3.5,1.6
			C329-89.8,327.1-91.8,327.1-94.2z"/>
		<path d="M336.7-98.6h2.4v1.7c0.5-1.2,1.3-2,2.7-1.9v2.5h-0.1c-1.6,0-2.6,1-2.6,3v3.2h-2.4V-98.6z"/>
		<path d="M343.4-101.7h2.6v2.2h-2.6V-101.7z M343.5-98.6h2.4v8.6h-2.4V-98.6z"/>
		<path d="M348.2-98.6h2.4v1.2c0.6-0.8,1.4-1.4,2.7-1.4c2,0,3.9,1.6,3.9,4.4v0c0,2.9-1.9,4.4-3.9,4.4c-1.3,0-2.1-0.6-2.7-1.3v3.7
			h-2.4V-98.6z M354.8-94.3L354.8-94.3c0-1.5-1-2.4-2.1-2.4c-1.1,0-2.1,0.9-2.1,2.4v0c0,1.4,0.9,2.4,2.1,2.4
			C353.8-91.9,354.8-92.8,354.8-94.3z"/>
		<path d="M359.4-92.4v-4.1h-1v-2.1h1v-2.2h2.4v2.2h2v2.1h-2v3.7c0,0.6,0.2,0.8,0.8,0.8c0.4,0,0.8-0.1,1.2-0.3v2
			c-0.5,0.3-1.1,0.5-1.9,0.5C360.4-89.9,359.4-90.4,359.4-92.4z"/>
		<path d="M365.7-101.7h2.6v2.2h-2.6V-101.7z M365.7-98.6h2.4v8.6h-2.4V-98.6z"/>
		<path d="M370-94.2L370-94.2c0-2.5,2-4.5,4.7-4.5c2.7,0,4.6,2,4.6,4.4v0c0,2.5-2,4.5-4.7,4.5C372-89.8,370-91.8,370-94.2z
			 M376.9-94.2L376.9-94.2c0-1.3-0.9-2.4-2.3-2.4c-1.4,0-2.2,1.1-2.2,2.3v0c0,1.3,0.9,2.4,2.3,2.4C376.1-91.9,376.9-93,376.9-94.2z"
			/>
		<path d="M381.1-98.6h2.4v1.2c0.6-0.7,1.3-1.4,2.5-1.4c1.8,0,2.9,1.2,2.9,3.2v5.6h-2.4v-4.8c0-1.2-0.5-1.7-1.5-1.7
			s-1.5,0.6-1.5,1.7v4.8h-2.4V-98.6z"/>
		<path d="M396.1-101.2h4.6c2.7,0,4.3,1.6,4.3,3.9v0c0,2.6-2,3.9-4.5,3.9h-1.9v3.4h-2.5V-101.2z M400.5-95.6c1.2,0,2-0.7,2-1.7v0
			c0-1.1-0.8-1.7-2-1.7h-1.9v3.4H400.5z"/>
		<path d="M405.9-92.5L405.9-92.5c0-1.9,1.4-2.8,3.5-2.8c0.9,0,1.5,0.1,2.1,0.4V-95c0-1-0.6-1.6-1.8-1.6c-0.9,0-1.6,0.2-2.4,0.5
			l-0.6-1.9c0.9-0.4,1.9-0.7,3.3-0.7c1.3,0,2.3,0.4,2.9,1c0.6,0.6,0.9,1.6,0.9,2.7v5h-2.4v-0.9c-0.6,0.7-1.4,1.1-2.6,1.1
			C407.2-89.8,405.9-90.8,405.9-92.5z M411.4-93v-0.4c-0.4-0.2-1-0.3-1.6-0.3c-1,0-1.7,0.4-1.7,1.2v0c0,0.7,0.5,1,1.3,1
			C410.7-91.5,411.4-92.1,411.4-93z"/>
		<path d="M415.4-94.2L415.4-94.2c0-2.5,1.9-4.5,4.5-4.5c1.6,0,2.6,0.5,3.4,1.4l-1.5,1.6c-0.5-0.6-1.1-0.9-2-0.9
			c-1.2,0-2.1,1.1-2.1,2.3v0c0,1.3,0.8,2.4,2.2,2.4c0.8,0,1.4-0.4,2-0.9l1.4,1.4c-0.8,0.9-1.8,1.6-3.5,1.6
			C417.3-89.8,415.4-91.8,415.4-94.2z"/>
		<path d="M425-101.7h2.4v6.2l2.8-3.1h2.9l-3.3,3.4l3.4,5.2h-2.8l-2.2-3.5l-0.9,0.9v2.6H425V-101.7z"/>
		<path d="M439.2-98.6h2.4v1.2c0.6-0.8,1.4-1.4,2.7-1.4c2,0,3.9,1.6,3.9,4.4v0c0,2.9-1.9,4.4-3.9,4.4c-1.3,0-2.1-0.6-2.7-1.3v3.7
			h-2.4V-98.6z M445.8-94.3L445.8-94.3c0-1.5-1-2.4-2.1-2.4c-1.1,0-2.1,0.9-2.1,2.4v0c0,1.4,0.9,2.4,2.1,2.4
			C444.9-91.9,445.8-92.8,445.8-94.3z"/>
		<path d="M449.5-92.5L449.5-92.5c0-1.9,1.4-2.8,3.5-2.8c0.9,0,1.5,0.1,2.1,0.4V-95c0-1-0.6-1.6-1.8-1.6c-0.9,0-1.6,0.2-2.4,0.5
			l-0.6-1.9c0.9-0.4,1.9-0.7,3.3-0.7c1.3,0,2.3,0.4,2.9,1c0.6,0.6,0.9,1.6,0.9,2.7v5h-2.4v-0.9c-0.6,0.7-1.4,1.1-2.6,1.1
			C450.9-89.8,449.5-90.8,449.5-92.5z M455.1-93v-0.4c-0.4-0.2-1-0.3-1.6-0.3c-1,0-1.7,0.4-1.7,1.2v0c0,0.7,0.5,1,1.3,1
			C454.3-91.5,455.1-92.1,455.1-93z"/>
		<path d="M464.8-98.6h2.5l-3.3,8.8c-0.7,1.7-1.4,2.4-2.8,2.4c-0.9,0-1.5-0.2-2.2-0.6l0.8-1.8c0.3,0.2,0.7,0.3,1,0.3
			c0.4,0,0.6-0.1,0.8-0.6l-3.4-8.6h2.6l2,5.8L464.8-98.6z"/>
		<path d="M468.8-98.6h2.4v1.2c0.6-0.7,1.3-1.4,2.5-1.4c1.1,0,2,0.5,2.4,1.4c0.8-0.9,1.6-1.4,2.8-1.4c1.8,0,2.9,1.1,2.9,3.2v5.6
			h-2.4v-4.8c0-1.2-0.5-1.7-1.4-1.7c-0.9,0-1.5,0.6-1.5,1.7v4.8h-2.4v-4.8c0-1.2-0.5-1.7-1.4-1.7c-0.9,0-1.5,0.6-1.5,1.7v4.8h-2.4
			V-98.6z"/>
		<path d="M483.6-94.2L483.6-94.2c0-2.5,1.7-4.5,4.2-4.5c2.9,0,4.2,2.2,4.2,4.7c0,0.2,0,0.4,0,0.6h-6c0.2,1.1,1,1.7,2.1,1.7
			c0.8,0,1.4-0.3,2.1-0.9l1.4,1.2c-0.8,1-2,1.6-3.5,1.6C485.5-89.8,483.6-91.6,483.6-94.2z M489.6-95c-0.1-1.1-0.8-1.8-1.8-1.8
			c-1,0-1.7,0.7-1.9,1.8H489.6z"/>
		<path d="M493.8-98.6h2.4v1.2c0.6-0.7,1.3-1.4,2.5-1.4c1.8,0,2.9,1.2,2.9,3.2v5.6h-2.4v-4.8c0-1.2-0.5-1.7-1.5-1.7
			s-1.5,0.6-1.5,1.7v4.8h-2.4V-98.6z"/>
		<path d="M504.2-92.4v-4.1h-1v-2.1h1v-2.2h2.4v2.2h2v2.1h-2v3.7c0,0.6,0.2,0.8,0.8,0.8c0.4,0,0.8-0.1,1.2-0.3v2
			c-0.5,0.3-1.1,0.5-1.9,0.5C505.2-89.9,504.2-90.4,504.2-92.4z"/>
		<path d="M514.8-94.3L514.8-94.3c0-2.9,1.9-4.5,3.9-4.5c1.3,0,2.1,0.6,2.7,1.3v-4.2h2.4V-90h-2.4v-1.2c-0.6,0.8-1.4,1.4-2.7,1.4
			C516.7-89.8,514.8-91.4,514.8-94.3z M521.4-94.3L521.4-94.3c0-1.5-0.9-2.4-2.1-2.4c-1.1,0-2.1,0.9-2.1,2.4v0c0,1.4,1,2.4,2.1,2.4
			C520.5-91.9,521.4-92.8,521.4-94.3z"/>
		<path d="M525.5-92.5L525.5-92.5c0-1.9,1.4-2.8,3.5-2.8c0.9,0,1.5,0.1,2.1,0.4V-95c0-1-0.6-1.6-1.8-1.6c-0.9,0-1.6,0.2-2.4,0.5
			l-0.6-1.9c0.9-0.4,1.9-0.7,3.3-0.7c1.3,0,2.3,0.4,2.9,1c0.6,0.6,0.9,1.6,0.9,2.7v5H531v-0.9c-0.6,0.7-1.4,1.1-2.6,1.1
			C526.8-89.8,525.5-90.8,525.5-92.5z M531.1-93v-0.4c-0.4-0.2-1-0.3-1.6-0.3c-1,0-1.7,0.4-1.7,1.2v0c0,0.7,0.5,1,1.3,1
			C530.3-91.5,531.1-92.1,531.1-93z"/>
		<path d="M535.8-92.4v-4.1h-1v-2.1h1v-2.2h2.4v2.2h2v2.1h-2v3.7c0,0.6,0.2,0.8,0.8,0.8c0.4,0,0.8-0.1,1.2-0.3v2
			c-0.5,0.3-1.1,0.5-1.9,0.5C536.8-89.9,535.8-90.4,535.8-92.4z"/>
		<path d="M541.4-94.2L541.4-94.2c0-2.5,1.7-4.5,4.2-4.5c2.9,0,4.2,2.2,4.2,4.7c0,0.2,0,0.4,0,0.6h-6c0.2,1.1,1,1.7,2.1,1.7
			c0.8,0,1.4-0.3,2.1-0.9l1.4,1.2c-0.8,1-2,1.6-3.5,1.6C543.3-89.8,541.4-91.6,541.4-94.2z M547.4-95c-0.1-1.1-0.8-1.8-1.8-1.8
			c-1,0-1.7,0.7-1.9,1.8H547.4z"/>
		<path d="M555.9-92.5L555.9-92.5c0-1.9,1.4-2.8,3.5-2.8c0.9,0,1.5,0.1,2.1,0.4V-95c0-1-0.6-1.6-1.8-1.6c-0.9,0-1.6,0.2-2.4,0.5
			l-0.6-1.9c0.9-0.4,1.9-0.7,3.3-0.7c1.3,0,2.3,0.4,2.9,1c0.6,0.6,0.9,1.6,0.9,2.7v5h-2.4v-0.9c-0.6,0.7-1.4,1.1-2.6,1.1
			C557.2-89.8,555.9-90.8,555.9-92.5z M561.5-93v-0.4c-0.4-0.2-1-0.3-1.6-0.3c-1,0-1.7,0.4-1.7,1.2v0c0,0.7,0.5,1,1.3,1
			C560.7-91.5,561.5-92.1,561.5-93z"/>
		<path d="M565.9-98.6h2.4v1.2c0.6-0.7,1.3-1.4,2.5-1.4c1.8,0,2.9,1.2,2.9,3.2v5.6h-2.4v-4.8c0-1.2-0.5-1.7-1.5-1.7
			s-1.5,0.6-1.5,1.7v4.8h-2.4V-98.6z"/>
		<path d="M575.5-94.3L575.5-94.3c0-2.9,1.9-4.5,3.9-4.5c1.3,0,2.1,0.6,2.7,1.3v-4.2h2.4V-90H582v-1.2c-0.6,0.8-1.4,1.4-2.7,1.4
			C577.4-89.8,575.5-91.4,575.5-94.3z M582.1-94.3L582.1-94.3c0-1.5-0.9-2.4-2.1-2.4c-1.1,0-2.1,0.9-2.1,2.4v0c0,1.4,1,2.4,2.1,2.4
			C581.1-91.9,582.1-92.8,582.1-94.3z"/>
		<path d="M591.6-101.7h2.4V-90h-2.4V-101.7z"/>
		<path d="M596.3-101.7h2.6v2.2h-2.6V-101.7z M596.4-98.6h2.4v8.6h-2.4V-98.6z"/>
		<path d="M600.7-94.2L600.7-94.2c0-2.5,1.9-4.5,4.5-4.5c1.6,0,2.6,0.5,3.4,1.4l-1.5,1.6c-0.5-0.6-1.1-0.9-2-0.9
			c-1.2,0-2.1,1.1-2.1,2.3v0c0,1.3,0.8,2.4,2.2,2.4c0.8,0,1.4-0.4,2-0.9l1.4,1.4c-0.8,0.9-1.8,1.6-3.5,1.6
			C602.6-89.8,600.7-91.8,600.7-94.2z"/>
		<path d="M609.6-94.2L609.6-94.2c0-2.5,1.7-4.5,4.2-4.5c2.9,0,4.2,2.2,4.2,4.7c0,0.2,0,0.4,0,0.6h-6c0.2,1.1,1,1.7,2.1,1.7
			c0.8,0,1.4-0.3,2.1-0.9l1.4,1.2c-0.8,1-2,1.6-3.5,1.6C611.5-89.8,609.6-91.6,609.6-94.2z M615.6-95c-0.1-1.1-0.8-1.8-1.8-1.8
			c-1,0-1.7,0.7-1.9,1.8H615.6z"/>
		<path d="M619.8-98.6h2.4v1.2c0.6-0.7,1.3-1.4,2.5-1.4c1.8,0,2.9,1.2,2.9,3.2v5.6h-2.4v-4.8c0-1.2-0.5-1.7-1.5-1.7
			s-1.5,0.6-1.5,1.7v4.8h-2.4V-98.6z"/>
		<path d="M629.1-91.1l1-1.6c0.9,0.7,1.9,1,2.7,1c0.7,0,1-0.3,1-0.6v0c0-0.5-0.8-0.7-1.8-1c-1.2-0.4-2.6-0.9-2.6-2.6v0
			c0-1.7,1.4-2.7,3.1-2.7c1.1,0,2.3,0.4,3.2,1L635-96c-0.8-0.5-1.7-0.8-2.3-0.8c-0.6,0-0.9,0.3-0.9,0.6v0c0,0.5,0.8,0.7,1.7,1
			c1.2,0.4,2.6,1,2.6,2.5v0c0,1.9-1.4,2.8-3.3,2.8C631.6-89.8,630.2-90.2,629.1-91.1z"/>
		<path d="M637.4-94.2L637.4-94.2c0-2.5,1.7-4.5,4.2-4.5c2.9,0,4.2,2.2,4.2,4.7c0,0.2,0,0.4,0,0.6h-6c0.2,1.1,1,1.7,2.1,1.7
			c0.8,0,1.4-0.3,2.1-0.9l1.4,1.2c-0.8,1-2,1.6-3.5,1.6C639.3-89.8,637.4-91.6,637.4-94.2z M643.4-95c-0.1-1.1-0.8-1.8-1.8-1.8
			c-1,0-1.7,0.7-1.9,1.8H643.4z"/>
		<path d="M647-91.1l1-1.6c0.9,0.7,1.9,1,2.7,1c0.7,0,1-0.3,1-0.6v0c0-0.5-0.8-0.7-1.8-1c-1.2-0.4-2.6-0.9-2.6-2.6v0
			c0-1.7,1.4-2.7,3.1-2.7c1.1,0,2.3,0.4,3.2,1l-0.9,1.7c-0.8-0.5-1.7-0.8-2.3-0.8c-0.6,0-0.9,0.3-0.9,0.6v0c0,0.5,0.8,0.7,1.7,1
			c1.2,0.4,2.6,1,2.6,2.5v0c0,1.9-1.4,2.8-3.3,2.8C649.4-89.8,648.1-90.2,647-91.1z"/>
		<path d="M660-94.2L660-94.2c0-2.5,1.7-4.5,4.2-4.5c2.9,0,4.2,2.2,4.2,4.7c0,0.2,0,0.4,0,0.6h-6c0.2,1.1,1,1.7,2.1,1.7
			c0.8,0,1.4-0.3,2.1-0.9l1.4,1.2c-0.8,1-2,1.6-3.5,1.6C661.9-89.8,660-91.6,660-94.2z M666.1-95c-0.1-1.1-0.8-1.8-1.8-1.8
			c-1,0-1.7,0.7-1.9,1.8H666.1z"/>
		<path d="M673.4-96.1l1.6-2.5h2.5l-2.9,4.2l3,4.4h-2.6l-1.7-2.7l-1.7,2.7h-2.5l3-4.4l-2.9-4.2h2.6L673.4-96.1z"/>
		<path d="M679.1-98.6h2.4v1.2c0.6-0.8,1.4-1.4,2.7-1.4c2,0,3.9,1.6,3.9,4.4v0c0,2.9-1.9,4.4-3.9,4.4c-1.3,0-2.1-0.6-2.7-1.3v3.7
			h-2.4V-98.6z M685.7-94.3L685.7-94.3c0-1.5-1-2.4-2.1-2.4s-2.1,0.9-2.1,2.4v0c0,1.4,0.9,2.4,2.1,2.4S685.7-92.8,685.7-94.3z"/>
		<path d="M690-101.7h2.6v2.2H690V-101.7z M690-98.6h2.4v8.6H690V-98.6z"/>
		<path d="M694.8-98.6h2.4v1.7c0.5-1.2,1.3-2,2.7-1.9v2.5h-0.1c-1.6,0-2.6,1-2.6,3v3.2h-2.4V-98.6z"/>
		<path d="M700.5-92.5L700.5-92.5c0-1.9,1.4-2.8,3.5-2.8c0.9,0,1.5,0.1,2.1,0.4V-95c0-1-0.6-1.6-1.8-1.6c-0.9,0-1.6,0.2-2.4,0.5
			l-0.6-1.9c0.9-0.4,1.9-0.7,3.3-0.7c1.3,0,2.3,0.4,2.9,1c0.6,0.6,0.9,1.6,0.9,2.7v5h-2.4v-0.9c-0.6,0.7-1.4,1.1-2.6,1.1
			C701.9-89.8,700.5-90.8,700.5-92.5z M706.1-93v-0.4c-0.4-0.2-1-0.3-1.6-0.3c-1,0-1.7,0.4-1.7,1.2v0c0,0.7,0.5,1,1.3,1
			C705.4-91.5,706.1-92.1,706.1-93z"/>
		<path d="M710.8-92.4v-4.1h-1v-2.1h1v-2.2h2.4v2.2h2v2.1h-2v3.7c0,0.6,0.2,0.8,0.8,0.8c0.4,0,0.8-0.1,1.2-0.3v2
			c-0.5,0.3-1.1,0.5-1.9,0.5C711.8-89.9,710.8-90.4,710.8-92.4z"/>
		<path d="M717.1-101.7h2.6v2.2h-2.6V-101.7z M717.2-98.6h2.4v8.6h-2.4V-98.6z"/>
		<path d="M721.5-94.2L721.5-94.2c0-2.5,2-4.5,4.7-4.5c2.7,0,4.6,2,4.6,4.4v0c0,2.5-2,4.5-4.7,4.5C723.5-89.8,721.5-91.8,721.5-94.2
			z M728.4-94.2L728.4-94.2c0-1.3-0.9-2.4-2.3-2.4c-1.4,0-2.2,1.1-2.2,2.3v0c0,1.3,0.9,2.4,2.3,2.4C727.5-91.9,728.4-93,728.4-94.2z
			"/>
		<path d="M732.5-98.6h2.4v1.2c0.6-0.7,1.3-1.4,2.5-1.4c1.8,0,2.9,1.2,2.9,3.2v5.6H738v-4.8c0-1.2-0.5-1.7-1.5-1.7s-1.5,0.6-1.5,1.7
			v4.8h-2.4V-98.6z"/>
		<path d="M746.9-94.3L746.9-94.3c0-2.9,1.9-4.5,3.9-4.5c1.3,0,2.1,0.6,2.7,1.3v-4.2h2.4V-90h-2.4v-1.2c-0.6,0.8-1.4,1.4-2.7,1.4
			C748.8-89.8,746.9-91.4,746.9-94.3z M753.5-94.3L753.5-94.3c0-1.5-0.9-2.4-2.1-2.4c-1.1,0-2.1,0.9-2.1,2.4v0c0,1.4,1,2.4,2.1,2.4
			C752.6-91.9,753.5-92.8,753.5-94.3z"/>
		<path d="M757.6-92.5L757.6-92.5c0-1.9,1.4-2.8,3.5-2.8c0.9,0,1.5,0.1,2.1,0.4V-95c0-1-0.6-1.6-1.8-1.6c-0.9,0-1.6,0.2-2.4,0.5
			l-0.6-1.9c0.9-0.4,1.9-0.7,3.3-0.7c1.3,0,2.3,0.4,2.9,1c0.6,0.6,0.9,1.6,0.9,2.7v5h-2.4v-0.9c-0.6,0.7-1.4,1.1-2.6,1.1
			C758.9-89.8,757.6-90.8,757.6-92.5z M763.2-93v-0.4c-0.4-0.2-1-0.3-1.6-0.3c-1,0-1.7,0.4-1.7,1.2v0c0,0.7,0.5,1,1.3,1
			C762.4-91.5,763.2-92.1,763.2-93z"/>
		<path d="M767.9-92.4v-4.1h-1v-2.1h1v-2.2h2.4v2.2h2v2.1h-2v3.7c0,0.6,0.2,0.8,0.8,0.8c0.4,0,0.8-0.1,1.2-0.3v2
			c-0.5,0.3-1.1,0.5-1.9,0.5C768.9-89.9,767.9-90.4,767.9-92.4z"/>
		<path d="M773.5-94.2L773.5-94.2c0-2.5,1.7-4.5,4.2-4.5c2.9,0,4.2,2.2,4.2,4.7c0,0.2,0,0.4,0,0.6h-6c0.2,1.1,1,1.7,2.1,1.7
			c0.8,0,1.4-0.3,2.1-0.9l1.4,1.2c-0.8,1-2,1.6-3.5,1.6C775.4-89.8,773.5-91.6,773.5-94.2z M779.5-95c-0.1-1.1-0.8-1.8-1.8-1.8
			c-1,0-1.7,0.7-1.9,1.8H779.5z"/>
	</g>
	<rect x="319" y="1" class="st2" width="474" height="1"/>
	<rect x="633" y="-19" class="st3" width="151" height="20"/>
	<rect x="633" y="-40" class="st3" width="151" height="20"/>
	<rect x="633" y="-61" class="st3" width="151" height="20"/>
	<rect x="480" y="-19" class="st4" width="153" height="20"/>
	<rect x="328" y="-19" class="st5" width="153" height="20"/>
	<rect x="348" y="-40" class="st6" width="153" height="20"/>
	<rect x="502" y="-40" class="st4" width="131" height="20"/>
	<rect x="519" y="-61" class="st4" width="114" height="20"/>
	<g>
		<rect x="633" y="-61" class="st7" width="1" height="71"/>
	</g>
	<g>
		<rect x="784" y="-61" class="st7" width="1" height="71"/>
	</g>
	<g>
		<rect x="481" y="-61" class="st7" width="1" height="71"/>
	</g>
	<g>
		<rect x="328" y="-61" class="st7" width="1" height="71"/>
	</g>
	<polygon class="st5" points="519,-61 367,-61 366,-61 366,-60 366,-40 367,-40 367,-60 519,-60 	"/>
	<g>
		<path class="st8" d="M332.6-6.1l0.5-0.6c0.8,0.7,1.6,1.1,2.6,1.1c1,0,1.7-0.5,1.7-1.3v0c0-0.7-0.4-1.1-2-1.5
			c-1.8-0.4-2.6-1-2.6-2.2v0c0-1.2,1.1-2.1,2.5-2.1c1.1,0,1.9,0.3,2.7,0.9l-0.5,0.7c-0.7-0.6-1.4-0.8-2.2-0.8c-1,0-1.6,0.6-1.6,1.2
			v0c0,0.7,0.4,1.1,2.1,1.5c1.7,0.4,2.5,1,2.5,2.2v0c0,1.3-1.1,2.2-2.6,2.2C334.5-4.9,333.5-5.3,332.6-6.1z"/>
		<path class="st8" d="M339.9-7.1v-3.5h0.8v3.3c0,1.1,0.6,1.7,1.6,1.7c1,0,1.7-0.7,1.7-1.8v-3.3h0.8V-5H344v-1
			c-0.4,0.6-1,1.1-1.9,1.1C340.7-4.8,339.9-5.8,339.9-7.1z"/>
		<path class="st8" d="M347.6-6.1V-5h-0.8v-8h0.8v3.5c0.5-0.7,1.1-1.3,2.2-1.3c1.4,0,2.7,1.1,2.7,2.9v0c0,1.9-1.3,3-2.7,3
			C348.7-4.8,348-5.4,347.6-6.1z M351.6-7.8L351.6-7.8c0-1.4-0.9-2.2-2-2.2c-1.1,0-2.1,0.9-2.1,2.2v0c0,1.3,1,2.2,2.1,2.2
			C350.7-5.6,351.6-6.4,351.6-7.8z"/>
		<path class="st8" d="M353.6-5.7l0.4-0.6c0.6,0.5,1.3,0.7,2,0.7c0.7,0,1.2-0.4,1.2-0.9v0c0-0.6-0.7-0.8-1.4-1
			c-0.9-0.3-1.9-0.6-1.9-1.6v0c0-1,0.8-1.6,1.9-1.6c0.7,0,1.5,0.2,2,0.6l-0.4,0.6c-0.5-0.3-1.1-0.5-1.7-0.5c-0.7,0-1.1,0.4-1.1,0.8
			v0c0,0.5,0.7,0.7,1.5,1C357-8,358-7.6,358-6.6v0c0,1.1-0.9,1.7-2,1.7C355.1-4.9,354.2-5.2,353.6-5.7z"/>
		<path class="st8" d="M359.2-7.8L359.2-7.8c0-1.6,1.3-3,2.9-3c1.1,0,1.7,0.5,2.3,1l-0.6,0.6c-0.5-0.5-1-0.9-1.7-0.9
			c-1.2,0-2,1-2,2.2v0c0,1.2,0.9,2.2,2.1,2.2c0.7,0,1.3-0.4,1.7-0.8l0.5,0.5c-0.6,0.6-1.3,1.1-2.3,1.1
			C360.4-4.8,359.2-6.2,359.2-7.8z"/>
		<path class="st8" d="M365.8-10.7h0.8v1.5c0.4-0.9,1.2-1.6,2.3-1.6v0.9h-0.1c-1.2,0-2.3,0.9-2.3,2.6V-5h-0.8V-10.7z"/>
		<path class="st8" d="M370.3-12.8h1v0.9h-1V-12.8z M370.4-10.7h0.8V-5h-0.8V-10.7z"/>
		<path class="st8" d="M373.2-10.7h0.8v1.1c0.5-0.7,1.1-1.3,2.2-1.3c1.4,0,2.7,1.1,2.7,2.9v0c0,1.9-1.3,3-2.7,3
			c-1.1,0-1.7-0.6-2.2-1.2v2.8h-0.8V-10.7z M378-7.8L378-7.8c0-1.4-0.9-2.2-2-2.2c-1.1,0-2.1,0.9-2.1,2.2v0c0,1.3,1,2.2,2.1,2.2
			C377.1-5.6,378-6.4,378-7.8z"/>
		<path class="st8" d="M380.8-6.5v-3.4H380v-0.7h0.8v-1.7h0.8v1.7h1.8v0.7h-1.8v3.3c0,0.7,0.4,0.9,1,0.9c0.3,0,0.5-0.1,0.8-0.2v0.7
			c-0.3,0.2-0.6,0.2-1,0.2C381.5-4.9,380.8-5.3,380.8-6.5z"/>
		<path class="st8" d="M384.9-12.8h1v0.9h-1V-12.8z M385-10.7h0.8V-5H385V-10.7z"/>
		<path class="st8" d="M387.5-7.8L387.5-7.8c0-1.6,1.3-3,3-3c1.7,0,3,1.3,3,2.9v0c0,1.6-1.3,3-3,3C388.7-4.8,387.5-6.2,387.5-7.8z
			 M392.5-7.8L392.5-7.8c0-1.2-0.9-2.2-2.1-2.2c-1.2,0-2.1,1-2.1,2.2v0c0,1.2,0.9,2.2,2.1,2.2C391.7-5.6,392.5-6.6,392.5-7.8z"/>
		<path class="st8" d="M394.9-10.7h0.8v1c0.4-0.6,1-1.1,1.9-1.1c1.4,0,2.2,0.9,2.2,2.3V-5H399v-3.3c0-1.1-0.6-1.7-1.6-1.7
			c-1,0-1.7,0.7-1.7,1.8V-5h-0.8V-10.7z"/>
		<path class="st8" d="M410.8-6.9h-1.4L409.1-5h-0.8l0.3-1.9h-2.1L406.2-5h-0.8l0.3-1.9h-1.2v-0.8h1.3l0.4-2.3H405v-0.8h1.4l0.3-1.9
			h0.8l-0.3,1.9h2.1l0.3-1.9h0.8l-0.3,1.9h1.2v0.8h-1.3l-0.4,2.3h1.3V-6.9z M406.6-7.7h2.1l0.4-2.4h-2.1L406.6-7.7z"/>
		<path class="st8" d="M413.7-11.8l-1.5,0.5l-0.2-0.7l1.9-0.6h0.6V-5h-0.9V-11.8z"/>
	</g>
	<g>
		<path class="st8" d="M352.6-27.1l0.5-0.6c0.8,0.7,1.6,1.1,2.6,1.1c1,0,1.7-0.5,1.7-1.3v0c0-0.7-0.4-1.1-2-1.5
			c-1.8-0.4-2.6-1-2.6-2.2v0c0-1.2,1.1-2.1,2.5-2.1c1.1,0,1.9,0.3,2.7,0.9l-0.5,0.7c-0.7-0.6-1.4-0.8-2.2-0.8c-1,0-1.6,0.6-1.6,1.2
			v0c0,0.7,0.4,1.1,2.1,1.5c1.7,0.4,2.5,1,2.5,2.2v0c0,1.3-1.1,2.2-2.6,2.2C354.5-25.9,353.5-26.3,352.6-27.1z"/>
		<path class="st8" d="M359.9-28.1v-3.5h0.8v3.3c0,1.1,0.6,1.7,1.6,1.7c1,0,1.7-0.7,1.7-1.8v-3.3h0.8v5.7H364v-1
			c-0.4,0.6-1,1.1-1.9,1.1C360.7-25.8,359.9-26.8,359.9-28.1z"/>
		<path class="st8" d="M367.6-27.1v1.1h-0.8v-8h0.8v3.5c0.5-0.7,1.1-1.3,2.2-1.3c1.4,0,2.7,1.1,2.7,2.9v0c0,1.9-1.3,3-2.7,3
			C368.7-25.8,368-26.4,367.6-27.1z M371.6-28.8L371.6-28.8c0-1.4-0.9-2.2-2-2.2c-1.1,0-2.1,0.9-2.1,2.2v0c0,1.3,1,2.2,2.1,2.2
			C370.7-26.6,371.6-27.4,371.6-28.8z"/>
		<path class="st8" d="M373.6-26.7l0.4-0.6c0.6,0.5,1.3,0.7,2,0.7c0.7,0,1.2-0.4,1.2-0.9v0c0-0.6-0.7-0.8-1.4-1
			c-0.9-0.3-1.9-0.6-1.9-1.6v0c0-1,0.8-1.6,1.9-1.6c0.7,0,1.5,0.2,2,0.6l-0.4,0.6c-0.5-0.3-1.1-0.5-1.7-0.5c-0.7,0-1.1,0.4-1.1,0.8
			v0c0,0.5,0.7,0.7,1.5,1c0.9,0.3,1.8,0.6,1.8,1.6v0c0,1.1-0.9,1.7-2,1.7C375.1-25.9,374.2-26.2,373.6-26.7z"/>
		<path class="st8" d="M379.2-28.8L379.2-28.8c0-1.6,1.3-3,2.9-3c1.1,0,1.7,0.5,2.3,1l-0.6,0.6c-0.5-0.5-1-0.9-1.7-0.9
			c-1.2,0-2,1-2,2.2v0c0,1.2,0.9,2.2,2.1,2.2c0.7,0,1.3-0.4,1.7-0.8l0.5,0.5c-0.6,0.6-1.3,1.1-2.3,1.1
			C380.4-25.8,379.2-27.2,379.2-28.8z"/>
		<path class="st8" d="M385.8-31.7h0.8v1.5c0.4-0.9,1.2-1.6,2.3-1.6v0.9h-0.1c-1.2,0-2.3,0.9-2.3,2.6v2.3h-0.8V-31.7z"/>
		<path class="st8" d="M390.3-33.8h1v0.9h-1V-33.8z M390.4-31.7h0.8v5.7h-0.8V-31.7z"/>
		<path class="st8" d="M393.2-31.7h0.8v1.1c0.5-0.7,1.1-1.3,2.2-1.3c1.4,0,2.7,1.1,2.7,2.9v0c0,1.9-1.3,3-2.7,3
			c-1.1,0-1.7-0.6-2.2-1.2v2.8h-0.8V-31.7z M398-28.8L398-28.8c0-1.4-0.9-2.2-2-2.2c-1.1,0-2.1,0.9-2.1,2.2v0c0,1.3,1,2.2,2.1,2.2
			C397.1-26.6,398-27.4,398-28.8z"/>
		<path class="st8" d="M400.8-27.5v-3.4H400v-0.7h0.8v-1.7h0.8v1.7h1.8v0.7h-1.8v3.3c0,0.7,0.4,0.9,1,0.9c0.3,0,0.5-0.1,0.8-0.2v0.7
			c-0.3,0.2-0.6,0.2-1,0.2C401.5-25.9,400.8-26.3,400.8-27.5z"/>
		<path class="st8" d="M404.9-33.8h1v0.9h-1V-33.8z M405-31.7h0.8v5.7H405V-31.7z"/>
		<path class="st8" d="M407.5-28.8L407.5-28.8c0-1.6,1.3-3,3-3c1.7,0,3,1.3,3,2.9v0c0,1.6-1.3,3-3,3
			C408.7-25.8,407.5-27.2,407.5-28.8z M412.5-28.8L412.5-28.8c0-1.2-0.9-2.2-2.1-2.2c-1.2,0-2.1,1-2.1,2.2v0c0,1.2,0.9,2.2,2.1,2.2
			C411.7-26.6,412.5-27.6,412.5-28.8z"/>
		<path class="st8" d="M414.9-31.7h0.8v1c0.4-0.6,1-1.1,1.9-1.1c1.4,0,2.2,0.9,2.2,2.3v3.5H419v-3.3c0-1.1-0.6-1.7-1.6-1.7
			c-1,0-1.7,0.7-1.7,1.8v3.3h-0.8V-31.7z"/>
		<path class="st8" d="M430.8-27.9h-1.4l-0.3,1.9h-0.8l0.3-1.9h-2.1l-0.3,1.9h-0.8l0.3-1.9h-1.2v-0.8h1.3l0.4-2.3H425v-0.8h1.4
			l0.3-1.9h0.8l-0.3,1.9h2.1l0.3-1.9h0.8l-0.3,1.9h1.2v0.8h-1.3l-0.4,2.3h1.3V-27.9z M426.6-28.7h2.1l0.4-2.4h-2.1L426.6-28.7z"/>
		<path class="st8" d="M432.3-26.6l2.8-2.5c1.2-1.1,1.6-1.7,1.6-2.4c0-0.9-0.7-1.5-1.6-1.5c-0.9,0-1.5,0.5-2.1,1.3l-0.6-0.5
			c0.7-1,1.4-1.6,2.8-1.6c1.4,0,2.4,0.9,2.4,2.2v0c0,1.1-0.6,1.8-1.9,3l-2.1,1.8h4.1v0.8h-5.4V-26.6z"/>
	</g>
	<g>
		<path class="st8" d="M370.6-47.1l0.5-0.6c0.8,0.7,1.6,1.1,2.6,1.1c1,0,1.7-0.5,1.7-1.3v0c0-0.7-0.4-1.1-2-1.5
			c-1.8-0.4-2.6-1-2.6-2.2v0c0-1.2,1.1-2.1,2.5-2.1c1.1,0,1.9,0.3,2.7,0.9l-0.5,0.7c-0.7-0.6-1.4-0.8-2.2-0.8c-1,0-1.6,0.6-1.6,1.2
			v0c0,0.7,0.4,1.1,2.1,1.5c1.7,0.4,2.5,1,2.5,2.2v0c0,1.3-1.1,2.2-2.6,2.2C372.5-45.9,371.5-46.3,370.6-47.1z"/>
		<path class="st8" d="M377.9-48.1v-3.5h0.8v3.3c0,1.1,0.6,1.7,1.6,1.7c1,0,1.7-0.7,1.7-1.8v-3.3h0.8v5.7H382v-1
			c-0.4,0.6-1,1.1-1.9,1.1C378.7-45.8,377.9-46.8,377.9-48.1z"/>
		<path class="st8" d="M385.6-47.1v1.1h-0.8v-8h0.8v3.5c0.5-0.7,1.1-1.3,2.2-1.3c1.4,0,2.7,1.1,2.7,2.9v0c0,1.9-1.3,3-2.7,3
			C386.7-45.8,386-46.4,385.6-47.1z M389.6-48.8L389.6-48.8c0-1.4-0.9-2.2-2-2.2c-1.1,0-2.1,0.9-2.1,2.2v0c0,1.3,1,2.2,2.1,2.2
			C388.7-46.6,389.6-47.4,389.6-48.8z"/>
		<path class="st8" d="M391.6-46.7l0.4-0.6c0.6,0.5,1.3,0.7,2,0.7c0.7,0,1.2-0.4,1.2-0.9v0c0-0.6-0.7-0.8-1.4-1
			c-0.9-0.3-1.9-0.6-1.9-1.6v0c0-1,0.8-1.6,1.9-1.6c0.7,0,1.5,0.2,2,0.6l-0.4,0.6c-0.5-0.3-1.1-0.5-1.7-0.5c-0.7,0-1.1,0.4-1.1,0.8
			v0c0,0.5,0.7,0.7,1.5,1c0.9,0.3,1.8,0.6,1.8,1.6v0c0,1.1-0.9,1.7-2,1.7C393.1-45.9,392.2-46.2,391.6-46.7z"/>
		<path class="st8" d="M397.2-48.8L397.2-48.8c0-1.6,1.3-3,2.9-3c1.1,0,1.7,0.5,2.3,1l-0.6,0.6c-0.5-0.5-1-0.9-1.7-0.9
			c-1.2,0-2,1-2,2.2v0c0,1.2,0.9,2.2,2.1,2.2c0.7,0,1.3-0.4,1.7-0.8l0.5,0.5c-0.6,0.6-1.3,1.1-2.3,1.1
			C398.4-45.8,397.2-47.2,397.2-48.8z"/>
		<path class="st8" d="M403.8-51.7h0.8v1.5c0.4-0.9,1.2-1.6,2.3-1.6v0.9h-0.1c-1.2,0-2.3,0.9-2.3,2.6v2.3h-0.8V-51.7z"/>
		<path class="st8" d="M408.3-53.8h1v0.9h-1V-53.8z M408.4-51.7h0.8v5.7h-0.8V-51.7z"/>
		<path class="st8" d="M411.2-51.7h0.8v1.1c0.5-0.7,1.1-1.3,2.2-1.3c1.4,0,2.7,1.1,2.7,2.9v0c0,1.9-1.3,3-2.7,3
			c-1.1,0-1.7-0.6-2.2-1.2v2.8h-0.8V-51.7z M416-48.8L416-48.8c0-1.4-0.9-2.2-2-2.2c-1.1,0-2.1,0.9-2.1,2.2v0c0,1.3,1,2.2,2.1,2.2
			C415.1-46.6,416-47.4,416-48.8z"/>
		<path class="st8" d="M418.8-47.5v-3.4H418v-0.7h0.8v-1.7h0.8v1.7h1.8v0.7h-1.8v3.3c0,0.7,0.4,0.9,1,0.9c0.3,0,0.5-0.1,0.8-0.2v0.7
			c-0.3,0.2-0.6,0.2-1,0.2C419.5-45.9,418.8-46.3,418.8-47.5z"/>
		<path class="st8" d="M422.9-53.8h1v0.9h-1V-53.8z M423-51.7h0.8v5.7H423V-51.7z"/>
		<path class="st8" d="M425.5-48.8L425.5-48.8c0-1.6,1.3-3,3-3c1.7,0,3,1.3,3,2.9v0c0,1.6-1.3,3-3,3
			C426.7-45.8,425.5-47.2,425.5-48.8z M430.5-48.8L430.5-48.8c0-1.2-0.9-2.2-2.1-2.2c-1.2,0-2.1,1-2.1,2.2v0c0,1.2,0.9,2.2,2.1,2.2
			C429.7-46.6,430.5-47.6,430.5-48.8z"/>
		<path class="st8" d="M432.9-51.7h0.8v1c0.4-0.6,1-1.1,1.9-1.1c1.4,0,2.2,0.9,2.2,2.3v3.5H437v-3.3c0-1.1-0.6-1.7-1.6-1.7
			c-1,0-1.7,0.7-1.7,1.8v3.3h-0.8V-51.7z"/>
		<path class="st8" d="M448.8-47.9h-1.4l-0.3,1.9h-0.8l0.3-1.9h-2.1l-0.3,1.9h-0.8l0.3-1.9h-1.2v-0.8h1.3l0.4-2.3H443v-0.8h1.4
			l0.3-1.9h0.8l-0.3,1.9h2.1l0.3-1.9h0.8l-0.3,1.9h1.2v0.8h-1.3l-0.4,2.3h1.3V-47.9z M444.6-48.7h2.1l0.4-2.4h-2.1L444.6-48.7z"/>
		<path class="st8" d="M450.3-47.2l0.6-0.6c0.6,0.7,1.3,1.1,2.2,1.1c0.9,0,1.7-0.6,1.7-1.5v0c0-1-0.9-1.5-2.2-1.5h-0.5l-0.2-0.5
			l2.4-2.7h-3.8v-0.8h4.9v0.6l-2.4,2.7c1.3,0.1,2.5,0.8,2.5,2.2v0c0,1.4-1.1,2.3-2.6,2.3C451.9-45.8,450.9-46.4,450.3-47.2z"/>
	</g>
	<rect x="329" y="111.7" class="st1" width="456" height="1"/>
	<g>
		<rect x="656" y="106.7" class="st0" width="101" height="11.5"/>
		<path class="st8" d="M665.3,107.6h-2.9V107h6.5v0.6H666v7.8h-0.6V107.6z"/>
		<path class="st8" d="M670.7,107h0.6v3.9h5.4V107h0.6v8.4h-0.6v-3.9h-5.4v3.9h-0.6V107z"/>
		<path class="st8" d="M680,107h0.6v8.4H680V107z"/>
		<path class="st8" d="M683.3,107h3.5c1,0,1.9,0.3,2.4,0.8c0.4,0.4,0.6,1,0.6,1.6v0c0,1.4-1,2.2-2.5,2.4l2.8,3.6h-0.8l-2.7-3.5h-2.7
			v3.5h-0.6V107z M686.7,111.4c1.4,0,2.4-0.7,2.4-1.9v0c0-1.1-0.9-1.8-2.4-1.8h-2.9v3.8H686.7z"/>
		<path class="st8" d="M692,107h2.8c2.6,0,4.5,1.8,4.5,4.2v0c0,2.4-1.8,4.2-4.5,4.2H692V107z M692.6,107.6v7.2h2.2
			c2.3,0,3.8-1.6,3.8-3.6v0c0-2-1.5-3.6-3.8-3.6H692.6z"/>
		<path class="st8" d="M705,107h3c1.8,0,3.1,0.9,3.1,2.6v0c0,1.8-1.5,2.7-3.3,2.7h-2.3v3.1H705V107z M707.9,111.7
			c1.6,0,2.6-0.8,2.6-2.1v0c0-1.3-1-2-2.5-2h-2.4v4.1H707.9z"/>
		<path class="st8" d="M712.9,107h6v0.6h-5.3v3.3h4.8v0.6h-4.8v3.4h5.4v0.6h-6V107z"/>
		<path class="st8" d="M720.8,107h3.5c1,0,1.9,0.3,2.4,0.8c0.4,0.4,0.6,1,0.6,1.6v0c0,1.4-1,2.2-2.5,2.4l2.8,3.6h-0.8l-2.7-3.5h-2.7
			v3.5h-0.6V107z M724.3,111.4c1.4,0,2.4-0.7,2.4-1.9v0c0-1.1-0.9-1.8-2.4-1.8h-2.9v3.8H724.3z"/>
		<path class="st8" d="M729.6,107h0.6v8.4h-0.6V107z"/>
		<path class="st8" d="M732.5,111.3L732.5,111.3c0-2.3,1.7-4.4,4.2-4.4c2.5,0,4.2,2,4.2,4.3v0c0,2.3-1.7,4.3-4.2,4.3
			C734.1,115.6,732.5,113.5,732.5,111.3z M740.3,111.3L740.3,111.3c0-2.1-1.5-3.8-3.6-3.8c-2.1,0-3.6,1.7-3.6,3.8v0
			c0,2.1,1.5,3.8,3.6,3.8C738.8,115,740.3,113.3,740.3,111.3z"/>
		<path class="st8" d="M743.1,107h2.8c2.6,0,4.5,1.8,4.5,4.2v0c0,2.4-1.8,4.2-4.5,4.2h-2.8V107z M743.7,107.6v7.2h2.2
			c2.3,0,3.8-1.6,3.8-3.6v0c0-2-1.5-3.6-3.8-3.6H743.7z"/>
	</g>
	<g>
		<rect x="498" y="106.7" class="st0" width="119" height="11.5"/>
		<path class="st8" d="M505.9,114.2l0.4-0.5c0.9,0.9,1.8,1.2,3,1.2c1.3,0,2.1-0.7,2.1-1.7v0c0-0.9-0.5-1.4-2.4-1.8
			c-2-0.4-2.8-1.1-2.8-2.4v0c0-1.2,1.1-2.2,2.7-2.2c1.2,0,2,0.3,2.9,1l-0.4,0.5c-0.8-0.7-1.6-0.9-2.5-0.9c-1.2,0-2.1,0.7-2.1,1.6v0
			c0,0.9,0.5,1.4,2.4,1.8c1.9,0.4,2.8,1.1,2.8,2.3v0c0,1.4-1.2,2.3-2.8,2.3C508,115.5,506.9,115.1,505.9,114.2z"/>
		<path class="st8" d="M514.2,107h6v0.6h-5.3v3.3h4.8v0.6h-4.8v3.4h5.4v0.6h-6V107z"/>
		<path class="st8" d="M521.6,111.3L521.6,111.3c0-2.4,1.8-4.4,4.2-4.4c1.5,0,2.4,0.6,3.3,1.3l-0.4,0.5c-0.7-0.7-1.6-1.2-2.8-1.2
			c-2,0-3.5,1.6-3.5,3.8v0c0,2.1,1.5,3.8,3.5,3.8c1.2,0,2-0.5,2.9-1.3l0.4,0.4c-0.9,0.9-1.8,1.5-3.3,1.5
			C523.4,115.6,521.6,113.7,521.6,111.3z"/>
		<path class="st8" d="M530.3,111.3L530.3,111.3c0-2.3,1.7-4.4,4.2-4.4c2.5,0,4.2,2,4.2,4.3v0c0,2.3-1.7,4.3-4.2,4.3
			C531.9,115.6,530.3,113.5,530.3,111.3z M538.1,111.3L538.1,111.3c0-2.1-1.5-3.8-3.6-3.8c-2.1,0-3.6,1.7-3.6,3.8v0
			c0,2.1,1.5,3.8,3.6,3.8C536.6,115,538.1,113.3,538.1,111.3z"/>
		<path class="st8" d="M540.9,107h0.6l5.8,7.3V107h0.6v8.4h-0.5l-5.9-7.5v7.5h-0.6V107z"/>
		<path class="st8" d="M550.5,107h2.8c2.6,0,4.5,1.8,4.5,4.2v0c0,2.4-1.8,4.2-4.5,4.2h-2.8V107z M551.2,107.6v7.2h2.2
			c2.3,0,3.8-1.6,3.8-3.6v0c0-2-1.5-3.6-3.8-3.6H551.2z"/>
		<path class="st8" d="M563.5,107h3c1.8,0,3.1,0.9,3.1,2.6v0c0,1.8-1.5,2.7-3.3,2.7h-2.3v3.1h-0.6V107z M566.4,111.7
			c1.6,0,2.6-0.8,2.6-2.1v0c0-1.3-1-2-2.5-2h-2.4v4.1H566.4z"/>
		<path class="st8" d="M571.5,107h6v0.6h-5.3v3.3h4.8v0.6h-4.8v3.4h5.4v0.6h-6V107z"/>
		<path class="st8" d="M579.4,107h3.5c1,0,1.9,0.3,2.4,0.8c0.4,0.4,0.6,1,0.6,1.6v0c0,1.4-1,2.2-2.5,2.4l2.8,3.6h-0.8l-2.7-3.5H580
			v3.5h-0.6V107z M582.8,111.4c1.4,0,2.4-0.7,2.4-1.9v0c0-1.1-0.9-1.8-2.4-1.8H580v3.8H582.8z"/>
		<path class="st8" d="M588.1,107h0.6v8.4h-0.6V107z"/>
		<path class="st8" d="M591,111.3L591,111.3c0-2.3,1.7-4.4,4.2-4.4c2.5,0,4.2,2,4.2,4.3v0c0,2.3-1.7,4.3-4.2,4.3
			C592.7,115.6,591,113.5,591,111.3z M598.8,111.3L598.8,111.3c0-2.1-1.5-3.8-3.6-3.8c-2.1,0-3.6,1.7-3.6,3.8v0
			c0,2.1,1.5,3.8,3.6,3.8C597.3,115,598.8,113.3,598.8,111.3z"/>
		<path class="st8" d="M601.7,107h2.8c2.6,0,4.5,1.8,4.5,4.2v0c0,2.4-1.8,4.2-4.5,4.2h-2.8V107z M602.3,107.6v7.2h2.2
			c2.3,0,3.8-1.6,3.8-3.6v0c0-2-1.5-3.6-3.8-3.6H602.3z"/>
	</g>
	<g>
		<rect x="352" y="105.7" class="st0" width="102" height="25.3"/>
		<path class="st8" d="M361.1,106.1h5.9v0.6h-5.3v3.4h4.7v0.6h-4.7v3.8h-0.6V106.1z"/>
		<path class="st8" d="M368.9,106.1h0.6v8.4h-0.6V106.1z"/>
		<path class="st8" d="M372.2,106.1h3.5c1,0,1.9,0.3,2.4,0.8c0.4,0.4,0.6,1,0.6,1.6v0c0,1.4-1,2.2-2.5,2.4l2.8,3.6h-0.8l-2.7-3.5
			h-2.7v3.5h-0.6V106.1z M375.7,110.4c1.4,0,2.4-0.7,2.4-1.9v0c0-1.1-0.9-1.8-2.4-1.8h-2.9v3.8H375.7z"/>
		<path class="st8" d="M380.3,113.2l0.4-0.5c0.9,0.9,1.8,1.2,3,1.2c1.3,0,2.1-0.7,2.1-1.7v0c0-0.9-0.5-1.4-2.4-1.8
			c-2-0.4-2.8-1.1-2.8-2.4v0c0-1.2,1.1-2.2,2.7-2.2c1.2,0,2,0.3,2.9,1l-0.4,0.5c-0.8-0.7-1.6-0.9-2.5-0.9c-1.2,0-2.1,0.7-2.1,1.6v0
			c0,0.9,0.5,1.4,2.4,1.8c1.9,0.4,2.8,1.1,2.8,2.3v0c0,1.4-1.2,2.3-2.8,2.3C382.3,114.6,381.3,114.1,380.3,113.2z"/>
		<path class="st8" d="M390.8,106.6h-2.9v-0.6h6.5v0.6h-2.9v7.8h-0.6V106.6z"/>
		<path class="st8" d="M399.8,106.1h3c1.8,0,3.1,0.9,3.1,2.6v0c0,1.8-1.5,2.7-3.3,2.7h-2.3v3.1h-0.6V106.1z M402.8,110.8
			c1.6,0,2.6-0.8,2.6-2.1v0c0-1.3-1-2-2.5-2h-2.4v4.1H402.8z"/>
		<path class="st8" d="M407.8,106.1h6v0.6h-5.3v3.3h4.8v0.6h-4.8v3.4h5.4v0.6h-6V106.1z"/>
		<path class="st8" d="M415.7,106.1h3.5c1,0,1.9,0.3,2.4,0.8c0.4,0.4,0.6,1,0.6,1.6v0c0,1.4-1,2.2-2.5,2.4l2.8,3.6h-0.8l-2.7-3.5
			h-2.7v3.5h-0.6V106.1z M419.2,110.4c1.4,0,2.4-0.7,2.4-1.9v0c0-1.1-0.9-1.8-2.4-1.8h-2.9v3.8H419.2z"/>
		<path class="st8" d="M424.5,106.1h0.6v8.4h-0.6V106.1z"/>
		<path class="st8" d="M427.3,110.3L427.3,110.3c0-2.3,1.7-4.4,4.2-4.4c2.5,0,4.2,2,4.2,4.3v0c0,2.3-1.7,4.3-4.2,4.3
			C429,114.6,427.3,112.6,427.3,110.3z M435.1,110.3L435.1,110.3c0-2.1-1.5-3.8-3.6-3.8c-2.1,0-3.6,1.7-3.6,3.8v0
			c0,2.1,1.5,3.8,3.6,3.8C433.6,114,435.1,112.4,435.1,110.3z"/>
		<path class="st8" d="M438,106.1h2.8c2.6,0,4.5,1.8,4.5,4.2v0c0,2.4-1.8,4.2-4.5,4.2H438V106.1z M438.6,106.6v7.2h2.2
			c2.3,0,3.8-1.6,3.8-3.6v0c0-2-1.5-3.6-3.8-3.6H438.6z"/>
	</g>
	<g>
		<rect x="633" y="45.7" class="st1" width="1" height="66"/>
	</g>
	<g>
		<rect x="784" y="45.7" class="st1" width="1" height="66"/>
	</g>
	<g>
		<rect x="481" y="45.7" class="st1" width="1" height="66"/>
	</g>
	<g>
		<rect x="329" y="45.7" class="st1" width="1" height="66"/>
	</g>
	<g>
		<rect x="554" y="26.4" class="st0" width="167" height="69.8"/>
		<path class="st8" d="M598.4,32.2h-2.9v-1h2.9v-2.9h1v2.9h2.9v1h-2.9v2.9h-1V32.2z"/>
		<path class="st8" d="M604,35.8l3.6-3.1c1.5-1.3,2-2.1,2-3.1c0-1.1-0.9-1.9-2-1.9c-1.1,0-1.8,0.6-2.6,1.7l-0.8-0.6
			c0.9-1.3,1.8-2.1,3.5-2.1c1.8,0,3,1.2,3,2.8v0c0,1.4-0.8,2.3-2.5,3.8l-2.6,2.3h5.2v1H604V35.8z"/>
		<path class="st8" d="M617.3,26.9h3.7c2.2,0,3.7,1.2,3.7,3.1v0c0,2.1-1.8,3.2-3.9,3.2h-2.4v3.5h-1.1V26.9z M620.8,32.2
			c1.6,0,2.7-0.9,2.7-2.2v0c0-1.4-1.1-2.1-2.6-2.1h-2.5v4.3H620.8z"/>
		<path class="st8" d="M626.6,26.9h7.1v1h-6v3.3h5.4v1h-5.4v3.4h6.1v1h-7.2V26.9z"/>
		<path class="st8" d="M636,26.9h4.2c1.2,0,2.2,0.4,2.8,1c0.5,0.5,0.8,1.2,0.8,1.9v0c0,1.6-1.1,2.6-2.7,2.9l3,4h-1.4l-2.8-3.8h-2.8
			v3.8H636V26.9z M640.1,31.9c1.5,0,2.5-0.8,2.5-2v0c0-1.2-0.9-1.9-2.5-1.9h-3v4H640.1z"/>
		<path class="st8" d="M646.2,26.9h1.1v9.8h-1.1V26.9z"/>
		<path class="st8" d="M649.8,31.8L649.8,31.8c0-2.7,2-5.1,5-5.1c3,0,5,2.3,5,5v0c0,2.7-2,5.1-5,5.1S649.8,34.5,649.8,31.8z
			 M658.6,31.8L658.6,31.8c0-2.3-1.6-4.1-3.9-4.1s-3.8,1.8-3.8,4v0c0,2.2,1.6,4,3.9,4S658.6,34,658.6,31.8z"/>
		<path class="st8" d="M662.1,26.9h3.4c3.1,0,5.2,2.1,5.2,4.9v0c0,2.8-2.1,4.9-5.2,4.9h-3.4V26.9z M663.2,27.9v7.8h2.3
			c2.5,0,4.1-1.7,4.1-3.9v0c0-2.2-1.6-3.9-4.1-3.9H663.2z"/>
		<path class="st8" d="M672.2,35.2l0.7-0.8c1,0.9,2,1.4,3.4,1.4c1.3,0,2.2-0.7,2.2-1.7v0c0-0.9-0.5-1.4-2.5-1.9
			c-2.3-0.5-3.3-1.2-3.3-2.8v0c0-1.5,1.4-2.7,3.2-2.7c1.4,0,2.5,0.4,3.4,1.2l-0.6,0.9c-0.9-0.7-1.8-1.1-2.8-1.1
			c-1.3,0-2.1,0.7-2.1,1.6v0c0,0.9,0.5,1.4,2.7,1.9c2.2,0.5,3.2,1.3,3.2,2.8v0c0,1.7-1.4,2.8-3.3,2.8
			C674.7,36.8,673.4,36.3,672.2,35.2z"/>
		<path class="st8" d="M568.6,53.5l0.5-0.6c0.8,0.7,1.6,1.1,2.6,1.1c1,0,1.7-0.6,1.7-1.3v0c0-0.7-0.4-1.1-2-1.5
			c-1.8-0.4-2.6-1-2.6-2.2v0c0-1.2,1.1-2.1,2.5-2.1c1.1,0,1.9,0.3,2.7,0.9l-0.5,0.7c-0.7-0.6-1.4-0.8-2.2-0.8c-1,0-1.6,0.6-1.6,1.2
			v0c0,0.7,0.4,1.1,2.1,1.5c1.7,0.4,2.5,1,2.5,2.2v0c0,1.3-1.1,2.2-2.6,2.2C570.5,54.8,569.5,54.4,568.6,53.5z"/>
		<path class="st8" d="M575.9,52.5V49h0.8v3.3c0,1.1,0.6,1.7,1.6,1.7c1,0,1.7-0.7,1.7-1.8V49h0.8v5.7H580v-1c-0.4,0.6-1,1.1-1.9,1.1
			C576.7,54.8,575.9,53.9,575.9,52.5z"/>
		<path class="st8" d="M583.6,53.6v1.1h-0.8v-8h0.8v3.5c0.5-0.7,1.1-1.3,2.2-1.3c1.4,0,2.7,1.1,2.7,2.9v0c0,1.9-1.3,3-2.7,3
			C584.8,54.8,584.1,54.2,583.6,53.6z M587.7,51.8L587.7,51.8c0-1.4-0.9-2.2-2-2.2c-1.1,0-2.1,0.9-2.1,2.2v0c0,1.3,1,2.2,2.1,2.2
			C586.8,54,587.7,53.2,587.7,51.8z"/>
		<path class="st8" d="M589.6,53.9l0.4-0.6c0.6,0.5,1.3,0.7,2,0.7c0.7,0,1.2-0.4,1.2-0.9v0c0-0.6-0.7-0.8-1.4-1
			c-0.9-0.3-1.9-0.6-1.9-1.6v0c0-1,0.8-1.6,1.9-1.6c0.7,0,1.5,0.2,2,0.6l-0.4,0.6c-0.5-0.3-1.1-0.5-1.7-0.5c-0.7,0-1.1,0.4-1.1,0.8
			v0c0,0.5,0.7,0.7,1.5,1c0.9,0.3,1.8,0.6,1.8,1.6v0c0,1.1-0.9,1.7-2,1.7C591.2,54.8,590.3,54.5,589.6,53.9z"/>
		<path class="st8" d="M595.2,51.9L595.2,51.9c0-1.6,1.3-3,2.9-3c1.1,0,1.7,0.5,2.3,1l-0.6,0.6c-0.5-0.5-1-0.9-1.7-0.9
			c-1.2,0-2,1-2,2.2v0c0,1.2,0.9,2.2,2.1,2.2c0.7,0,1.3-0.4,1.7-0.8l0.5,0.5c-0.6,0.6-1.3,1.1-2.3,1.1
			C596.5,54.8,595.2,53.4,595.2,51.9z"/>
		<path class="st8" d="M601.8,49h0.8v1.5c0.4-0.9,1.2-1.6,2.3-1.6v0.9h-0.1c-1.2,0-2.3,0.9-2.3,2.6v2.3h-0.8V49z"/>
		<path class="st8" d="M606.3,46.8h1v0.9h-1V46.8z M606.4,49h0.8v5.7h-0.8V49z"/>
		<path class="st8" d="M609.2,49h0.8v1.1c0.5-0.7,1.1-1.3,2.2-1.3c1.4,0,2.7,1.1,2.7,2.9v0c0,1.9-1.3,3-2.7,3
			c-1.1,0-1.7-0.6-2.2-1.2v2.8h-0.8V49z M614.1,51.8L614.1,51.8c0-1.4-0.9-2.2-2-2.2c-1.1,0-2.1,0.9-2.1,2.2v0c0,1.3,1,2.2,2.1,2.2
			C613.2,54,614.1,53.2,614.1,51.8z"/>
		<path class="st8" d="M616.8,53.2v-3.4H616V49h0.8v-1.7h0.8V49h1.8v0.7h-1.8v3.3c0,0.7,0.4,0.9,1,0.9c0.3,0,0.5-0.1,0.8-0.2v0.7
			c-0.3,0.2-0.6,0.2-1,0.2C617.5,54.8,616.8,54.3,616.8,53.2z"/>
		<path class="st8" d="M621,46.8h1v0.9h-1V46.8z M621,49h0.8v5.7H621V49z"/>
		<path class="st8" d="M623.5,51.9L623.5,51.9c0-1.6,1.3-3,3-3c1.7,0,3,1.3,3,2.9v0c0,1.6-1.3,3-3,3
			C624.7,54.8,623.5,53.5,623.5,51.9z M628.5,51.9L628.5,51.9c0-1.2-0.9-2.2-2.1-2.2c-1.2,0-2.1,1-2.1,2.2v0c0,1.2,0.9,2.2,2.1,2.2
			C627.7,54,628.5,53.1,628.5,51.9z"/>
		<path class="st8" d="M630.9,49h0.8v1c0.4-0.6,1-1.1,1.9-1.1c1.4,0,2.2,0.9,2.2,2.3v3.5h-0.8v-3.3c0-1.1-0.6-1.7-1.6-1.7
			c-1,0-1.7,0.7-1.7,1.8v3.3h-0.8V49z"/>
		<path class="st8" d="M641.2,47h2.9c1.7,0,2.9,0.9,2.9,2.4v0c0,1.7-1.4,2.5-3,2.5H642v2.7h-0.9V47z M643.9,51.2
			c1.3,0,2.1-0.7,2.1-1.7v0c0-1.1-0.8-1.7-2.1-1.7H642v3.4H643.9z"/>
		<path class="st8" d="M647.8,53L647.8,53c0-1.2,1-1.9,2.4-1.9c0.7,0,1.2,0.1,1.7,0.2v-0.2c0-1-0.6-1.6-1.7-1.6
			c-0.7,0-1.2,0.2-1.7,0.4l-0.3-0.7c0.6-0.3,1.2-0.5,2.1-0.5c0.8,0,1.4,0.2,1.8,0.6c0.4,0.4,0.6,0.9,0.6,1.7v3.5H652v-0.9
			c-0.4,0.5-1.1,1-2.1,1C648.9,54.8,647.8,54.2,647.8,53z M652,52.6V52c-0.4-0.1-1-0.2-1.7-0.2c-1.1,0-1.7,0.5-1.7,1.2v0
			c0,0.7,0.7,1.1,1.4,1.1C651.2,54.1,652,53.5,652,52.6z"/>
		<path class="st8" d="M654.3,51.9L654.3,51.9c0-1.6,1.3-3,2.9-3c1.1,0,1.7,0.5,2.3,1l-0.6,0.6c-0.5-0.5-1-0.9-1.7-0.9
			c-1.2,0-2,1-2,2.2v0c0,1.2,0.9,2.2,2.1,2.2c0.7,0,1.3-0.4,1.7-0.8l0.5,0.5c-0.6,0.6-1.3,1.1-2.3,1.1
			C655.5,54.8,654.3,53.4,654.3,51.9z"/>
		<path class="st8" d="M660.9,46.6h0.8v5.5l3.1-3.2h1.1l-2.4,2.4l2.5,3.2h-1l-2-2.7l-1.2,1.2v1.5h-0.8V46.6z"/>
		<path class="st8" d="M670.1,51.9L670.1,51.9c0-1.6,1.3-3,2.9-3c1.1,0,1.7,0.5,2.3,1l-0.6,0.6c-0.5-0.5-1-0.9-1.7-0.9
			c-1.2,0-2,1-2,2.2v0c0,1.2,0.9,2.2,2.1,2.2c0.7,0,1.3-0.4,1.7-0.8l0.5,0.5c-0.6,0.6-1.3,1.1-2.3,1.1
			C671.4,54.8,670.1,53.4,670.1,51.9z"/>
		<path class="st8" d="M676.7,46.6h0.8V50c0.4-0.6,1-1.1,1.9-1.1c1.4,0,2.2,0.9,2.2,2.3v3.5h-0.8v-3.3c0-1.1-0.6-1.7-1.6-1.7
			c-1,0-1.7,0.7-1.7,1.8v3.3h-0.8V46.6z"/>
		<path class="st8" d="M683.1,53L683.1,53c0-1.2,1-1.9,2.4-1.9c0.7,0,1.2,0.1,1.7,0.2v-0.2c0-1-0.6-1.6-1.7-1.6
			c-0.7,0-1.2,0.2-1.7,0.4l-0.3-0.7c0.6-0.3,1.2-0.5,2.1-0.5c0.8,0,1.4,0.2,1.8,0.6c0.4,0.4,0.6,0.9,0.6,1.7v3.5h-0.8v-0.9
			c-0.4,0.5-1.1,1-2.1,1C684.2,54.8,683.1,54.2,683.1,53z M687.3,52.6V52c-0.4-0.1-1-0.2-1.7-0.2c-1.1,0-1.7,0.5-1.7,1.2v0
			c0,0.7,0.7,1.1,1.4,1.1C686.4,54.1,687.3,53.5,687.3,52.6z"/>
		<path class="st8" d="M689.9,49h0.8v1.5c0.4-0.9,1.2-1.6,2.3-1.6v0.9H693c-1.2,0-2.3,0.9-2.3,2.6v2.3h-0.8V49z"/>
		<path class="st8" d="M694,55.7l0.4-0.7c0.6,0.5,1.4,0.7,2.2,0.7c1.3,0,2.1-0.7,2.1-2V53c-0.5,0.7-1.2,1.2-2.2,1.2
			c-1.4,0-2.7-1-2.7-2.7v0c0-1.7,1.3-2.7,2.7-2.7c1.1,0,1.8,0.5,2.2,1.1v-1h0.8v4.7c0,0.9-0.3,1.6-0.7,2c-0.5,0.5-1.3,0.8-2.2,0.8
			C695.7,56.5,694.8,56.2,694,55.7z M698.7,51.6L698.7,51.6c0-1.2-1-1.9-2.1-1.9s-2,0.7-2,1.9v0c0,1.1,0.9,1.9,2,1.9
			C697.7,53.5,698.7,52.7,698.7,51.6z"/>
		<path class="st8" d="M701.1,51.8L701.1,51.8c0-1.7,1.2-3,2.7-3c1.7,0,2.7,1.3,2.7,3c0,0.1,0,0.2,0,0.3h-4.5c0.1,1.2,1,1.9,2,1.9
			c0.8,0,1.3-0.3,1.8-0.8l0.5,0.5c-0.6,0.6-1.3,1.1-2.3,1.1C702.3,54.8,701.1,53.6,701.1,51.8z M705.6,51.5c-0.1-1-0.7-1.9-1.8-1.9
			c-1,0-1.7,0.8-1.8,1.9H705.6z"/>
	</g>
	<g>
		<rect x="274" y="25.7" class="st0" width="120" height="69.8"/>
		<path class="st8" d="M287.4,27l-1.6,0.5l-0.2-0.8l2.1-0.7h0.7v8.5h-0.9V27z"/>
		<path class="st8" d="M290,33.6l0.5-0.7c0.7,0.5,1.4,0.8,2.1,0.8c0.7,0,1.3-0.4,1.3-1v0c0-0.6-0.7-0.9-1.5-1.1
			c-1-0.3-2.1-0.6-2.1-1.8v0c0-1.1,0.9-1.8,2.1-1.8c0.8,0,1.6,0.3,2.2,0.7l-0.4,0.7c-0.6-0.4-1.2-0.6-1.8-0.6
			c-0.7,0-1.2,0.4-1.2,0.9v0c0,0.6,0.8,0.8,1.6,1.1c1,0.3,2,0.7,2,1.8v0c0,1.2-1,1.9-2.2,1.9C291.7,34.5,290.7,34.2,290,33.6z"/>
		<path class="st8" d="M296.7,32.8V29h-0.9v-0.8h0.9v-1.9h0.9v1.9h2V29h-2v3.6c0,0.8,0.4,1,1,1c0.3,0,0.6-0.1,0.9-0.2v0.8
			c-0.3,0.2-0.7,0.3-1.1,0.3C297.5,34.5,296.7,34,296.7,32.8z"/>
		<path class="st8" d="M304.9,28.2h0.9v1.2c0.5-0.7,1.2-1.4,2.4-1.4c1.5,0,3,1.2,3,3.2v0c0,2-1.5,3.2-3,3.2c-1.2,0-1.9-0.6-2.4-1.3
			v3.1h-0.9V28.2z M310.2,31.3L310.2,31.3c0-1.5-1-2.4-2.2-2.4c-1.2,0-2.2,1-2.2,2.4v0c0,1.4,1.1,2.4,2.2,2.4
			C309.2,33.7,310.2,32.8,310.2,31.3z"/>
		<path class="st8" d="M312.7,32.1v-3.8h0.9v3.6c0,1.2,0.6,1.9,1.7,1.9c1.1,0,1.9-0.8,1.9-1.9v-3.6h0.9v6.2h-0.9v-1.1
			c-0.4,0.7-1.1,1.2-2.1,1.2C313.6,34.6,312.7,33.6,312.7,32.1z"/>
		<path class="st8" d="M320.2,28.2h0.9v1.6c0.5-1,1.4-1.8,2.5-1.7v1h-0.1c-1.4,0-2.5,1-2.5,2.8v2.5h-0.9V28.2z"/>
		<path class="st8" d="M324.4,31.4L324.4,31.4c0-1.8,1.4-3.3,3.2-3.3c1.2,0,1.9,0.5,2.5,1.1l-0.6,0.6c-0.5-0.5-1-0.9-1.9-0.9
			c-1.3,0-2.2,1.1-2.2,2.4v0c0,1.3,1,2.4,2.3,2.4c0.8,0,1.4-0.4,1.9-0.9l0.6,0.6c-0.6,0.7-1.4,1.2-2.5,1.2
			C325.8,34.6,324.4,33.1,324.4,31.4z"/>
		<path class="st8" d="M331.7,25.7h0.9v3.6c0.4-0.7,1.1-1.2,2.1-1.2c1.5,0,2.4,1,2.4,2.5v3.8h-0.9v-3.6c0-1.2-0.6-1.9-1.7-1.9
			c-1.1,0-1.9,0.8-1.9,1.9v3.6h-0.9V25.7z"/>
		<path class="st8" d="M338.6,32.6L338.6,32.6c0-1.3,1.1-2,2.7-2c0.8,0,1.4,0.1,1.9,0.3v-0.2c0-1.1-0.7-1.7-1.8-1.7
			c-0.7,0-1.3,0.2-1.9,0.5l-0.3-0.8c0.7-0.3,1.4-0.5,2.3-0.5c0.9,0,1.5,0.2,2,0.7c0.4,0.4,0.6,1,0.6,1.8v3.8h-0.9v-0.9
			c-0.4,0.6-1.2,1.1-2.2,1.1C339.8,34.6,338.6,33.9,338.6,32.6z M343.2,32.1v-0.6c-0.5-0.1-1.1-0.3-1.8-0.3c-1.2,0-1.8,0.5-1.8,1.3
			v0c0,0.8,0.7,1.2,1.6,1.2C342.2,33.8,343.2,33.1,343.2,32.1z"/>
		<path class="st8" d="M345.5,33.6L346,33c0.7,0.5,1.4,0.8,2.1,0.8c0.7,0,1.3-0.4,1.3-1v0c0-0.6-0.7-0.9-1.5-1.1
			c-1-0.3-2.1-0.6-2.1-1.8v0c0-1.1,0.9-1.8,2.1-1.8c0.8,0,1.6,0.3,2.2,0.7l-0.4,0.7c-0.6-0.4-1.2-0.6-1.8-0.6
			c-0.7,0-1.2,0.4-1.2,0.9v0c0,0.6,0.8,0.8,1.6,1.1c1,0.3,2,0.7,2,1.8v0c0,1.2-1,1.9-2.2,1.9C347.2,34.5,346.2,34.2,345.5,33.6z"/>
		<path class="st8" d="M351.6,31.3L351.6,31.3c0-1.8,1.3-3.2,3-3.2c1.8,0,2.9,1.5,2.9,3.3c0,0.1,0,0.2,0,0.3h-4.9
			c0.1,1.3,1.1,2.1,2.2,2.1c0.9,0,1.5-0.3,2-0.9l0.6,0.5c-0.6,0.7-1.4,1.2-2.6,1.2C353,34.6,351.6,33.3,351.6,31.3z M356.5,31
			c-0.1-1.1-0.7-2.1-2-2.1c-1.1,0-1.9,0.9-2,2.1H356.5z"/>
		<path class="st8" d="M362.7,25.9h1.1v1h-1.1V25.9z M362.8,28.2h0.9v6.2h-0.9V28.2z"/>
		<path class="st8" d="M365.9,28.2h0.9v1.1c0.4-0.7,1.1-1.2,2.1-1.2c1.5,0,2.4,1,2.4,2.5v3.8h-0.9v-3.6c0-1.2-0.6-1.9-1.7-1.9
			c-1.1,0-1.9,0.8-1.9,1.9v3.6h-0.9V28.2z"/>
		<path class="st8" d="M376.4,32.6L376.4,32.6c0-1.3,1.1-2,2.7-2c0.8,0,1.4,0.1,1.9,0.3v-0.2c0-1.1-0.7-1.7-1.8-1.7
			c-0.7,0-1.3,0.2-1.9,0.5l-0.3-0.8c0.7-0.3,1.4-0.5,2.3-0.5c0.9,0,1.5,0.2,2,0.7c0.4,0.4,0.6,1,0.6,1.8v3.8h-0.9v-0.9
			c-0.4,0.6-1.2,1.1-2.2,1.1C377.5,34.6,376.4,33.9,376.4,32.6z M380.9,32.1v-0.6c-0.5-0.1-1.1-0.3-1.8-0.3c-1.2,0-1.8,0.5-1.8,1.3
			v0c0,0.8,0.7,1.2,1.6,1.2C380,33.8,380.9,33.1,380.9,32.1z"/>
		<path class="st8" d="M281.1,47.2l0.6-0.7c0.9,0.8,1.7,1.2,2.9,1.2c1.1,0,1.9-0.6,1.9-1.4v0c0-0.8-0.4-1.2-2.2-1.6
			c-1.9-0.4-2.8-1-2.8-2.4v0c0-1.3,1.2-2.3,2.8-2.3c1.2,0,2.1,0.3,3,1l-0.6,0.7c-0.8-0.6-1.6-0.9-2.4-0.9c-1.1,0-1.8,0.6-1.8,1.4v0
			c0,0.8,0.4,1.2,2.3,1.6c1.9,0.4,2.7,1.1,2.7,2.4v0c0,1.4-1.2,2.4-2.9,2.4C283.2,48.5,282.1,48.1,281.1,47.2z"/>
		<path class="st8" d="M289.1,46.1v-3.8h0.9v3.6c0,1.2,0.6,1.9,1.7,1.9c1.1,0,1.9-0.8,1.9-1.9v-3.6h0.9v6.2h-0.9v-1.1
			c-0.4,0.7-1.1,1.2-2.1,1.2C289.9,48.6,289.1,47.6,289.1,46.1z"/>
		<path class="st8" d="M297.5,47.2v1.2h-0.9v-8.8h0.9v3.8c0.5-0.7,1.2-1.4,2.4-1.4c1.5,0,3,1.2,3,3.2v0c0,2-1.5,3.2-3,3.2
			C298.7,48.6,297.9,47.9,297.5,47.2z M301.9,45.3L301.9,45.3c0-1.5-1-2.4-2.2-2.4c-1.2,0-2.2,1-2.2,2.4v0c0,1.4,1.1,2.4,2.2,2.4
			C300.9,47.7,301.9,46.8,301.9,45.3z"/>
		<path class="st8" d="M304,47.6l0.5-0.7c0.7,0.5,1.4,0.8,2.1,0.8c0.7,0,1.3-0.4,1.3-1v0c0-0.6-0.7-0.9-1.5-1.1
			c-1-0.3-2.1-0.6-2.1-1.8v0c0-1.1,0.9-1.8,2.1-1.8c0.8,0,1.6,0.3,2.2,0.7l-0.4,0.7c-0.6-0.4-1.2-0.6-1.8-0.6
			c-0.7,0-1.2,0.4-1.2,0.9v0c0,0.6,0.8,0.8,1.6,1.1c1,0.3,2,0.7,2,1.8v0c0,1.2-1,1.9-2.2,1.9C305.7,48.5,304.7,48.2,304,47.6z"/>
		<path class="st8" d="M310.1,45.4L310.1,45.4c0-1.8,1.4-3.3,3.2-3.3c1.2,0,1.9,0.5,2.5,1.1l-0.6,0.6c-0.5-0.5-1-0.9-1.9-0.9
			c-1.3,0-2.2,1.1-2.2,2.4v0c0,1.3,1,2.4,2.3,2.4c0.8,0,1.4-0.4,1.9-0.9l0.6,0.6c-0.6,0.7-1.4,1.2-2.5,1.2
			C311.5,48.6,310.1,47.1,310.1,45.4z"/>
		<path class="st8" d="M317.3,42.2h0.9v1.6c0.5-1,1.4-1.8,2.5-1.7v1h-0.1c-1.4,0-2.5,1-2.5,2.8v2.5h-0.9V42.2z"/>
		<path class="st8" d="M322.2,39.9h1.1v1h-1.1V39.9z M322.3,42.2h0.9v6.2h-0.9V42.2z"/>
		<path class="st8" d="M325.4,42.2h0.9v1.2c0.5-0.7,1.2-1.4,2.4-1.4c1.5,0,3,1.2,3,3.2v0c0,2-1.5,3.2-3,3.2c-1.2,0-1.9-0.6-2.4-1.3
			v3.1h-0.9V42.2z M330.7,45.3L330.7,45.3c0-1.5-1-2.4-2.2-2.4c-1.2,0-2.2,1-2.2,2.4v0c0,1.4,1.1,2.4,2.2,2.4
			C329.7,47.7,330.7,46.8,330.7,45.3z"/>
		<path class="st8" d="M333.6,46.8V43h-0.9v-0.8h0.9v-1.9h0.9v1.9h2V43h-2v3.6c0,0.8,0.4,1,1,1c0.3,0,0.6-0.1,0.9-0.2v0.8
			c-0.3,0.2-0.7,0.3-1.1,0.3C334.4,48.5,333.6,48,333.6,46.8z"/>
		<path class="st8" d="M338.2,39.9h1.1v1h-1.1V39.9z M338.3,42.2h0.9v6.2h-0.9V42.2z"/>
		<path class="st8" d="M340.9,45.4L340.9,45.4c0-1.8,1.4-3.3,3.2-3.3c1.9,0,3.2,1.5,3.2,3.2v0c0,1.8-1.4,3.2-3.2,3.2
			C342.3,48.6,340.9,47.1,340.9,45.4z M346.5,45.4L346.5,45.4c0-1.4-1-2.4-2.3-2.4c-1.3,0-2.3,1.1-2.3,2.4v0c0,1.3,1,2.4,2.3,2.4
			C345.5,47.7,346.5,46.7,346.5,45.4z"/>
		<path class="st8" d="M349.1,42.2h0.9v1.1c0.4-0.7,1.1-1.2,2.1-1.2c1.5,0,2.4,1,2.4,2.5v3.8h-0.9v-3.6c0-1.2-0.6-1.9-1.7-1.9
			c-1.1,0-1.9,0.8-1.9,1.9v3.6h-0.9V42.2z"/>
		<path class="st8" d="M360.2,40h3.1c1.9,0,3.1,1,3.1,2.7v0c0,1.8-1.5,2.7-3.3,2.7h-2v3h-0.9V40z M363.2,44.6c1.4,0,2.3-0.7,2.3-1.8
			v0c0-1.2-0.9-1.8-2.3-1.8h-2.1v3.7H363.2z"/>
		<path class="st8" d="M367.5,46.6L367.5,46.6c0-1.3,1.1-2,2.7-2c0.8,0,1.4,0.1,1.9,0.3v-0.2c0-1.1-0.7-1.7-1.8-1.7
			c-0.7,0-1.3,0.2-1.9,0.5l-0.3-0.8c0.7-0.3,1.4-0.5,2.3-0.5c0.9,0,1.5,0.2,2,0.7c0.4,0.4,0.6,1,0.6,1.8v3.8h-0.9v-0.9
			c-0.4,0.6-1.2,1.1-2.2,1.1C368.7,48.6,367.5,47.9,367.5,46.6z M372.1,46.1v-0.6c-0.5-0.1-1.1-0.3-1.8-0.3c-1.2,0-1.8,0.5-1.8,1.3
			v0c0,0.8,0.7,1.2,1.6,1.2C371.1,47.8,372.1,47.1,372.1,46.1z"/>
		<path class="st8" d="M374.5,45.4L374.5,45.4c0-1.8,1.4-3.3,3.2-3.3c1.2,0,1.9,0.5,2.5,1.1l-0.6,0.6c-0.5-0.5-1-0.9-1.9-0.9
			c-1.3,0-2.2,1.1-2.2,2.4v0c0,1.3,1,2.4,2.3,2.4c0.8,0,1.4-0.4,1.9-0.9l0.6,0.6c-0.6,0.7-1.4,1.2-2.5,1.2
			C375.9,48.6,374.5,47.1,374.5,45.4z"/>
		<path class="st8" d="M381.8,39.7h0.9v6l3.3-3.5h1.2l-2.6,2.7l2.7,3.5h-1.1l-2.2-2.9l-1.3,1.3v1.6h-0.9V39.7z"/>
		<path class="st8" d="M281.5,58.7h2.9c1.7,0,2.9,0.9,2.9,2.4v0c0,1.7-1.4,2.5-3,2.5h-1.9v2.7h-0.9V58.7z M284.3,62.9
			c1.3,0,2.1-0.7,2.1-1.7v0c0-1.1-0.8-1.7-2.1-1.7h-1.9v3.4H284.3z"/>
		<path class="st8" d="M288.2,64.8L288.2,64.8c0-1.2,1-1.9,2.4-1.9c0.7,0,1.2,0.1,1.7,0.2V63c0-1-0.6-1.6-1.7-1.6
			c-0.7,0-1.2,0.2-1.7,0.4l-0.3-0.7c0.6-0.3,1.2-0.5,2.1-0.5c0.8,0,1.4,0.2,1.8,0.6c0.4,0.4,0.6,0.9,0.6,1.7v3.5h-0.8v-0.9
			c-0.4,0.5-1.1,1-2.1,1C289.2,66.5,288.2,65.9,288.2,64.8z M292.3,64.3v-0.6c-0.4-0.1-1-0.2-1.7-0.2c-1.1,0-1.7,0.5-1.7,1.2v0
			c0,0.7,0.7,1.1,1.4,1.1C291.5,65.9,292.3,65.2,292.3,64.3z"/>
		<path class="st8" d="M299,60.7h0.9l-2.4,5.9c-0.5,1.2-1,1.6-1.9,1.6c-0.5,0-0.8-0.1-1.2-0.3l0.3-0.7c0.3,0.1,0.5,0.2,0.9,0.2
			c0.5,0,0.8-0.3,1.2-1.1l-2.6-5.7h0.9l2.1,4.7L299,60.7z"/>
		<path class="st8" d="M301.2,60.7h0.8v1c0.4-0.6,0.9-1.1,1.8-1.1c0.9,0,1.5,0.5,1.8,1.1c0.4-0.6,1-1.1,2-1.1c1.3,0,2.1,0.9,2.1,2.3
			v3.5H309v-3.3c0-1.1-0.6-1.7-1.5-1.7c-0.9,0-1.6,0.6-1.6,1.8v3.3h-0.8v-3.3c0-1.1-0.6-1.7-1.5-1.7c-0.9,0-1.6,0.7-1.6,1.8v3.2
			h-0.8V60.7z"/>
		<path class="st8" d="M311.3,63.6L311.3,63.6c0-1.7,1.2-3,2.7-3c1.7,0,2.7,1.3,2.7,3c0,0.1,0,0.2,0,0.3h-4.5c0.1,1.2,1,1.9,2,1.9
			c0.8,0,1.3-0.3,1.8-0.8l0.5,0.5c-0.6,0.6-1.3,1.1-2.3,1.1C312.6,66.6,311.3,65.4,311.3,63.6z M315.9,63.3c-0.1-1-0.7-1.9-1.8-1.9
			c-1,0-1.7,0.8-1.8,1.9H315.9z"/>
		<path class="st8" d="M318.2,60.7h0.8v1c0.4-0.6,1-1.1,1.9-1.1c1.4,0,2.2,0.9,2.2,2.3v3.5h-0.8v-3.3c0-1.1-0.6-1.7-1.6-1.7
			c-1,0-1.7,0.7-1.7,1.8v3.3h-0.8V60.7z"/>
		<path class="st8" d="M325.3,64.9v-3.4h-0.8v-0.7h0.8V59h0.8v1.7h1.8v0.7h-1.8v3.3c0,0.7,0.4,0.9,1,0.9c0.3,0,0.5-0.1,0.8-0.2v0.7
			c-0.3,0.2-0.6,0.2-1,0.2C326,66.5,325.3,66.1,325.3,64.9z"/>
		<path class="st8" d="M332.4,63.6L332.4,63.6c0-1.9,1.4-3,2.7-3c1.1,0,1.7,0.6,2.2,1.2v-3.4h0.8v8h-0.8v-1.1
			c-0.5,0.7-1.1,1.3-2.2,1.3C333.8,66.5,332.4,65.5,332.4,63.6z M337.3,63.6L337.3,63.6c0-1.3-1-2.2-2.1-2.2c-1.1,0-2,0.8-2,2.2v0
			c0,1.3,0.9,2.2,2,2.2C336.3,65.8,337.3,64.9,337.3,63.6z"/>
		<path class="st8" d="M339.6,64.8L339.6,64.8c0-1.2,1-1.9,2.4-1.9c0.7,0,1.2,0.1,1.7,0.2V63c0-1-0.6-1.6-1.7-1.6
			c-0.7,0-1.2,0.2-1.7,0.4l-0.3-0.7c0.6-0.3,1.2-0.5,2.1-0.5c0.8,0,1.4,0.2,1.8,0.6c0.4,0.4,0.6,0.9,0.6,1.7v3.5h-0.8v-0.9
			c-0.4,0.5-1.1,1-2.1,1C340.7,66.5,339.6,65.9,339.6,64.8z M343.8,64.3v-0.6c-0.4-0.1-1-0.2-1.7-0.2c-1.1,0-1.7,0.5-1.7,1.2v0
			c0,0.7,0.7,1.1,1.4,1.1C342.9,65.9,343.8,65.2,343.8,64.3z"/>
		<path class="st8" d="M346.6,64.9v-3.4h-0.8v-0.7h0.8V59h0.8v1.7h1.8v0.7h-1.8v3.3c0,0.7,0.4,0.9,1,0.9c0.3,0,0.5-0.1,0.8-0.2v0.7
			c-0.3,0.2-0.6,0.2-1,0.2C347.3,66.5,346.6,66.1,346.6,64.9z"/>
		<path class="st8" d="M350.3,63.6L350.3,63.6c0-1.7,1.2-3,2.7-3c1.7,0,2.7,1.3,2.7,3c0,0.1,0,0.2,0,0.3h-4.5c0.1,1.2,1,1.9,2,1.9
			c0.8,0,1.3-0.3,1.8-0.8l0.5,0.5c-0.6,0.6-1.3,1.1-2.3,1.1C351.6,66.6,350.3,65.4,350.3,63.6z M354.8,63.3c-0.1-1-0.7-1.9-1.8-1.9
			c-1,0-1.7,0.8-1.8,1.9H354.8z"/>
		<path class="st8" d="M360.5,58.6h1v0.9h-1V58.6z M360.5,60.7h0.8v5.7h-0.8V60.7z"/>
		<path class="st8" d="M362.9,65.7l0.4-0.6c0.6,0.5,1.3,0.7,2,0.7c0.7,0,1.2-0.4,1.2-0.9v0c0-0.6-0.7-0.8-1.4-1
			c-0.9-0.3-1.9-0.6-1.9-1.6v0c0-1,0.8-1.6,1.9-1.6c0.7,0,1.5,0.2,2,0.6l-0.4,0.6c-0.5-0.3-1.1-0.6-1.7-0.6c-0.7,0-1.1,0.4-1.1,0.8
			v0c0,0.5,0.7,0.7,1.5,1c0.9,0.3,1.8,0.6,1.8,1.6v0c0,1.1-0.9,1.7-2,1.7C364.4,66.5,363.5,66.2,362.9,65.7z"/>
		<path class="st8" d="M371.6,65.7l0.4-0.6c0.6,0.5,1.3,0.7,2,0.7c0.7,0,1.2-0.4,1.2-0.9v0c0-0.6-0.7-0.8-1.4-1
			c-0.9-0.3-1.9-0.6-1.9-1.6v0c0-1,0.8-1.6,1.9-1.6c0.7,0,1.5,0.2,2,0.6l-0.4,0.6c-0.5-0.3-1.1-0.6-1.7-0.6c-0.7,0-1.1,0.4-1.1,0.8
			v0c0,0.5,0.7,0.7,1.5,1c0.9,0.3,1.8,0.6,1.8,1.6v0c0,1.1-0.9,1.7-2,1.7C373.2,66.5,372.3,66.2,371.6,65.7z"/>
		<path class="st8" d="M377.2,63.6L377.2,63.6c0-1.7,1.2-3,2.7-3c1.7,0,2.7,1.3,2.7,3c0,0.1,0,0.2,0,0.3h-4.5c0.1,1.2,1,1.9,2,1.9
			c0.8,0,1.3-0.3,1.8-0.8l0.5,0.5c-0.6,0.6-1.3,1.1-2.3,1.1C378.5,66.6,377.2,65.4,377.2,63.6z M381.8,63.3c-0.1-1-0.7-1.9-1.8-1.9
			c-1,0-1.7,0.8-1.8,1.9H381.8z"/>
		<path class="st8" d="M384.4,64.9v-3.4h-0.8v-0.7h0.8V59h0.8v1.7h1.8v0.7h-1.8v3.3c0,0.7,0.4,0.9,1,0.9c0.3,0,0.5-0.1,0.8-0.2v0.7
			c-0.3,0.2-0.6,0.2-1,0.2C385.1,66.5,384.4,66.1,384.4,64.9z"/>
	</g>
	<g>
		<rect x="406" y="26.4" class="st0" width="144" height="69.8"/>
		<path class="st8" d="M445,32.2h-2.9v-1h2.9v-2.9h1v2.9h2.9v1H446v2.9h-1V32.2z"/>
		<path class="st8" d="M452.4,27.9l-1.8,0.6l-0.3-0.9l2.4-0.8h0.8v9.9h-1.1V27.9z"/>
		<path class="st8" d="M460.5,26.9h3.7c2.2,0,3.7,1.2,3.7,3.1v0c0,2.1-1.8,3.2-3.9,3.2h-2.4v3.5h-1.1V26.9z M464,32.2
			c1.6,0,2.7-0.9,2.7-2.2v0c0-1.4-1.1-2.1-2.6-2.1h-2.5v4.3H464z"/>
		<path class="st8" d="M469.8,26.9h7.1v1h-6v3.3h5.4v1h-5.4v3.4h6.1v1h-7.2V26.9z"/>
		<path class="st8" d="M479.2,26.9h4.2c1.2,0,2.2,0.4,2.8,1c0.5,0.5,0.8,1.2,0.8,1.9v0c0,1.6-1.1,2.6-2.7,2.9l3,4H486l-2.8-3.8h-2.8
			v3.8h-1.1V26.9z M483.3,31.9c1.5,0,2.5-0.8,2.5-2v0c0-1.2-0.9-1.9-2.5-1.9h-3v4H483.3z"/>
		<path class="st8" d="M489.4,26.9h1.1v9.8h-1.1V26.9z"/>
		<path class="st8" d="M493,31.8L493,31.8c0-2.7,2-5.1,5-5.1c3,0,5,2.3,5,5v0c0,2.7-2,5.1-5,5.1S493,34.5,493,31.8z M501.8,31.8
			L501.8,31.8c0-2.3-1.6-4.1-3.9-4.1s-3.8,1.8-3.8,4v0c0,2.2,1.6,4,3.9,4S501.8,34,501.8,31.8z"/>
		<path class="st8" d="M505.3,26.9h3.4c3.1,0,5.2,2.1,5.2,4.9v0c0,2.8-2.1,4.9-5.2,4.9h-3.4V26.9z M506.4,27.9v7.8h2.3
			c2.5,0,4.1-1.7,4.1-3.9v0c0-2.2-1.6-3.9-4.1-3.9H506.4z"/>
		<path class="st8" d="M409.1,53.5l0.5-0.6c0.8,0.7,1.6,1.1,2.6,1.1c1,0,1.7-0.6,1.7-1.3v0c0-0.7-0.4-1.1-2-1.5
			c-1.8-0.4-2.6-1-2.6-2.2v0c0-1.2,1.1-2.1,2.5-2.1c1.1,0,1.9,0.3,2.7,0.9l-0.5,0.7c-0.7-0.6-1.4-0.8-2.2-0.8c-1,0-1.6,0.6-1.6,1.2
			v0c0,0.7,0.4,1.1,2.1,1.5c1.7,0.4,2.5,1,2.5,2.2v0c0,1.3-1.1,2.2-2.6,2.2C411,54.8,410,54.4,409.1,53.5z"/>
		<path class="st8" d="M416.4,52.5V49h0.8v3.3c0,1.1,0.6,1.7,1.6,1.7c1,0,1.7-0.7,1.7-1.8V49h0.8v5.7h-0.8v-1
			c-0.4,0.6-1,1.1-1.9,1.1C417.2,54.8,416.4,53.9,416.4,52.5z"/>
		<path class="st8" d="M424.1,53.6v1.1h-0.8v-8h0.8v3.5c0.5-0.7,1.1-1.3,2.2-1.3c1.4,0,2.7,1.1,2.7,2.9v0c0,1.9-1.3,3-2.7,3
			C425.3,54.8,424.6,54.2,424.1,53.6z M428.2,51.8L428.2,51.8c0-1.4-0.9-2.2-2-2.2c-1.1,0-2.1,0.9-2.1,2.2v0c0,1.3,1,2.2,2.1,2.2
			C427.3,54,428.2,53.2,428.2,51.8z"/>
		<path class="st8" d="M430.1,53.9l0.4-0.6c0.6,0.5,1.3,0.7,2,0.7c0.7,0,1.2-0.4,1.2-0.9v0c0-0.6-0.7-0.8-1.4-1
			c-0.9-0.3-1.9-0.6-1.9-1.6v0c0-1,0.8-1.6,1.9-1.6c0.7,0,1.5,0.2,2,0.6l-0.4,0.6c-0.5-0.3-1.1-0.5-1.7-0.5c-0.7,0-1.1,0.4-1.1,0.8
			v0c0,0.5,0.7,0.7,1.5,1c0.9,0.3,1.8,0.6,1.8,1.6v0c0,1.1-0.9,1.7-2,1.7C431.7,54.8,430.8,54.5,430.1,53.9z"/>
		<path class="st8" d="M435.7,51.9L435.7,51.9c0-1.6,1.3-3,2.9-3c1.1,0,1.7,0.5,2.3,1l-0.6,0.6c-0.5-0.5-1-0.9-1.7-0.9
			c-1.2,0-2,1-2,2.2v0c0,1.2,0.9,2.2,2.1,2.2c0.7,0,1.3-0.4,1.7-0.8l0.5,0.5c-0.6,0.6-1.3,1.1-2.3,1.1
			C437,54.8,435.7,53.4,435.7,51.9z"/>
		<path class="st8" d="M442.3,49h0.8v1.5c0.4-0.9,1.2-1.6,2.3-1.6v0.9h-0.1c-1.2,0-2.3,0.9-2.3,2.6v2.3h-0.8V49z"/>
		<path class="st8" d="M446.8,46.8h1v0.9h-1V46.8z M446.9,49h0.8v5.7h-0.8V49z"/>
		<path class="st8" d="M449.7,49h0.8v1.1c0.5-0.7,1.1-1.3,2.2-1.3c1.4,0,2.7,1.1,2.7,2.9v0c0,1.9-1.3,3-2.7,3
			c-1.1,0-1.7-0.6-2.2-1.2v2.8h-0.8V49z M454.6,51.8L454.6,51.8c0-1.4-0.9-2.2-2-2.2c-1.1,0-2.1,0.9-2.1,2.2v0c0,1.3,1,2.2,2.1,2.2
			C453.7,54,454.6,53.2,454.6,51.8z"/>
		<path class="st8" d="M457.3,53.2v-3.4h-0.8V49h0.8v-1.7h0.8V49h1.8v0.7h-1.8v3.3c0,0.7,0.4,0.9,1,0.9c0.3,0,0.5-0.1,0.8-0.2v0.7
			c-0.3,0.2-0.6,0.2-1,0.2C458,54.8,457.3,54.3,457.3,53.2z"/>
		<path class="st8" d="M461.5,46.8h1v0.9h-1V46.8z M461.5,49h0.8v5.7h-0.8V49z"/>
		<path class="st8" d="M464,51.9L464,51.9c0-1.6,1.3-3,3-3c1.7,0,3,1.3,3,2.9v0c0,1.6-1.3,3-3,3C465.2,54.8,464,53.5,464,51.9z
			 M469,51.9L469,51.9c0-1.2-0.9-2.2-2.1-2.2c-1.2,0-2.1,1-2.1,2.2v0c0,1.2,0.9,2.2,2.1,2.2C468.2,54,469,53.1,469,51.9z"/>
		<path class="st8" d="M471.4,49h0.8v1c0.4-0.6,1-1.1,1.9-1.1c1.4,0,2.2,0.9,2.2,2.3v3.5h-0.8v-3.3c0-1.1-0.6-1.7-1.6-1.7
			c-1,0-1.7,0.7-1.7,1.8v3.3h-0.8V49z"/>
		<path class="st8" d="M481.7,47h2.9c1.7,0,2.9,0.9,2.9,2.4v0c0,1.7-1.4,2.5-3,2.5h-1.9v2.7h-0.9V47z M484.4,51.2
			c1.3,0,2.1-0.7,2.1-1.7v0c0-1.1-0.8-1.7-2.1-1.7h-1.9v3.4H484.4z"/>
		<path class="st8" d="M488.3,53L488.3,53c0-1.2,1-1.9,2.4-1.9c0.7,0,1.2,0.1,1.7,0.2v-0.2c0-1-0.6-1.6-1.7-1.6
			c-0.7,0-1.2,0.2-1.7,0.4l-0.3-0.7c0.6-0.3,1.2-0.5,2.1-0.5c0.8,0,1.4,0.2,1.8,0.6c0.4,0.4,0.6,0.9,0.6,1.7v3.5h-0.8v-0.9
			c-0.4,0.5-1.1,1-2.1,1C489.4,54.8,488.3,54.2,488.3,53z M492.5,52.6V52c-0.4-0.1-1-0.2-1.7-0.2c-1.1,0-1.7,0.5-1.7,1.2v0
			c0,0.7,0.7,1.1,1.4,1.1C491.7,54.1,492.5,53.5,492.5,52.6z"/>
		<path class="st8" d="M494.8,51.9L494.8,51.9c0-1.6,1.3-3,2.9-3c1.1,0,1.7,0.5,2.3,1l-0.6,0.6c-0.5-0.5-1-0.9-1.7-0.9
			c-1.2,0-2,1-2,2.2v0c0,1.2,0.9,2.2,2.1,2.2c0.7,0,1.3-0.4,1.7-0.8l0.5,0.5c-0.6,0.6-1.3,1.1-2.3,1.1
			C496,54.8,494.8,53.4,494.8,51.9z"/>
		<path class="st8" d="M501.4,46.6h0.8v5.5l3.1-3.2h1.1l-2.4,2.4l2.5,3.2h-1l-2-2.7l-1.2,1.2v1.5h-0.8V46.6z"/>
		<path class="st8" d="M510.6,51.9L510.6,51.9c0-1.6,1.3-3,2.9-3c1.1,0,1.7,0.5,2.3,1l-0.6,0.6c-0.5-0.5-1-0.9-1.7-0.9
			c-1.2,0-2,1-2,2.2v0c0,1.2,0.9,2.2,2.1,2.2c0.7,0,1.3-0.4,1.7-0.8l0.5,0.5c-0.6,0.6-1.3,1.1-2.3,1.1
			C511.9,54.8,510.6,53.4,510.6,51.9z"/>
		<path class="st8" d="M517.2,46.6h0.8V50c0.4-0.6,1-1.1,1.9-1.1c1.4,0,2.2,0.9,2.2,2.3v3.5h-0.8v-3.3c0-1.1-0.6-1.7-1.6-1.7
			c-1,0-1.7,0.7-1.7,1.8v3.3h-0.8V46.6z"/>
		<path class="st8" d="M523.6,53L523.6,53c0-1.2,1-1.9,2.4-1.9c0.7,0,1.2,0.1,1.7,0.2v-0.2c0-1-0.6-1.6-1.7-1.6
			c-0.7,0-1.2,0.2-1.7,0.4l-0.3-0.7c0.6-0.3,1.2-0.5,2.1-0.5c0.8,0,1.4,0.2,1.8,0.6c0.4,0.4,0.6,0.9,0.6,1.7v3.5h-0.8v-0.9
			c-0.4,0.5-1.1,1-2.1,1C524.7,54.8,523.6,54.2,523.6,53z M527.8,52.6V52c-0.4-0.1-1-0.2-1.7-0.2c-1.1,0-1.7,0.5-1.7,1.2v0
			c0,0.7,0.7,1.1,1.4,1.1C526.9,54.1,527.8,53.5,527.8,52.6z"/>
		<path class="st8" d="M530.4,49h0.8v1.5c0.4-0.9,1.2-1.6,2.3-1.6v0.9h-0.1c-1.2,0-2.3,0.9-2.3,2.6v2.3h-0.8V49z"/>
		<path class="st8" d="M534.5,55.7l0.4-0.7c0.6,0.5,1.4,0.7,2.2,0.7c1.3,0,2.1-0.7,2.1-2V53c-0.5,0.7-1.2,1.2-2.2,1.2
			c-1.4,0-2.7-1-2.7-2.7v0c0-1.7,1.3-2.7,2.7-2.7c1.1,0,1.8,0.5,2.2,1.1v-1h0.8v4.7c0,0.9-0.3,1.6-0.7,2c-0.5,0.5-1.3,0.8-2.2,0.8
			C536.2,56.5,535.3,56.2,534.5,55.7z M539.2,51.6L539.2,51.6c0-1.2-1-1.9-2.1-1.9s-2,0.7-2,1.9v0c0,1.1,0.9,1.9,2,1.9
			C538.2,53.5,539.2,52.7,539.2,51.6z"/>
		<path class="st8" d="M541.6,51.8L541.6,51.8c0-1.7,1.2-3,2.7-3c1.7,0,2.7,1.3,2.7,3c0,0.1,0,0.2,0,0.3h-4.5c0.1,1.2,1,1.9,2,1.9
			c0.8,0,1.3-0.3,1.8-0.8l0.5,0.5c-0.6,0.6-1.3,1.1-2.3,1.1C542.8,54.8,541.6,53.6,541.6,51.8z M546.1,51.5c-0.1-1-0.7-1.9-1.8-1.9
			c-1,0-1.7,0.8-1.8,1.9H546.1z"/>
	</g>
	<g>
		<rect x="580" y="58.4" class="st3" width="111" height="10.7"/>
		<path class="st8" d="M588.3,61.5h-0.8v-0.7h0.8v-0.5c0-0.6,0.2-1.1,0.5-1.5c0.3-0.3,0.7-0.4,1.2-0.4c0.4,0,0.7,0,0.9,0.1v0.7
			c-0.3-0.1-0.5-0.1-0.8-0.1c-0.7,0-1,0.4-1,1.2v0.5h1.8v0.7h-1.8v4.9h-0.8V61.5z"/>
		<path class="st8" d="M591.5,63.7L591.5,63.7c0-1.6,1.3-3,3-3c1.7,0,3,1.3,3,2.9v0c0,1.6-1.3,3-3,3
			C592.8,66.6,591.5,65.3,591.5,63.7z M596.6,63.7L596.6,63.7c0-1.2-0.9-2.2-2.1-2.2c-1.2,0-2.1,1-2.1,2.2v0c0,1.2,0.9,2.2,2.1,2.2
			C595.7,65.9,596.6,64.9,596.6,63.7z"/>
		<path class="st8" d="M599,60.8h0.8v1.5c0.4-0.9,1.2-1.6,2.3-1.6v0.9h-0.1c-1.2,0-2.3,0.9-2.3,2.6v2.3H599V60.8z"/>
		<path class="st8" d="M607,65v-3.4h-0.8v-0.7h0.8v-1.7h0.8v1.7h1.8v0.7h-1.8v3.3c0,0.7,0.4,0.9,1,0.9c0.3,0,0.5-0.1,0.8-0.2v0.7
			c-0.3,0.2-0.6,0.2-1,0.2C607.7,66.6,607,66.1,607,65z"/>
		<path class="st8" d="M611.2,58.4h0.8v3.3c0.4-0.6,1-1.1,1.9-1.1c1.4,0,2.2,0.9,2.2,2.3v3.5h-0.8v-3.3c0-1.1-0.6-1.7-1.6-1.7
			c-1,0-1.7,0.7-1.7,1.8v3.3h-0.8V58.4z"/>
		<path class="st8" d="M617.6,63.7L617.6,63.7c0-1.7,1.2-3,2.7-3c1.7,0,2.7,1.3,2.7,3c0,0.1,0,0.2,0,0.3h-4.5c0.1,1.2,1,1.9,2,1.9
			c0.8,0,1.3-0.3,1.8-0.8l0.5,0.5c-0.6,0.6-1.3,1.1-2.3,1.1C618.9,66.6,617.6,65.4,617.6,63.7z M622.1,63.3c-0.1-1-0.7-1.9-1.8-1.9
			c-1,0-1.7,0.8-1.8,1.9H622.1z"/>
		<path class="st8" d="M627.4,65.2l0.6-0.6c0.6,0.7,1.3,1.1,2.2,1.1c0.9,0,1.7-0.6,1.7-1.5v0c0-1-0.9-1.5-2.2-1.5h-0.5l-0.2-0.5
			l2.4-2.7h-3.8v-0.8h4.9v0.6l-2.4,2.7c1.3,0.1,2.5,0.8,2.5,2.2v0c0,1.4-1.1,2.3-2.6,2.3C629,66.6,628,66.1,627.4,65.2z"/>
		<path class="st8" d="M634.5,60.8h0.8v1.5c0.4-0.9,1.2-1.6,2.3-1.6v0.9h-0.1c-1.2,0-2.3,0.9-2.3,2.6v2.3h-0.8V60.8z"/>
		<path class="st8" d="M638.4,63.7L638.4,63.7c0-1.9,1.4-3,2.7-3c1.1,0,1.7,0.6,2.2,1.2v-3.4h0.8v8h-0.8v-1.1
			c-0.5,0.7-1.1,1.3-2.2,1.3C639.8,66.6,638.4,65.5,638.4,63.7z M643.4,63.6L643.4,63.6c0-1.3-1-2.2-2.1-2.2c-1.1,0-2,0.8-2,2.2v0
			c0,1.3,0.9,2.2,2,2.2C642.4,65.8,643.4,64.9,643.4,63.6z"/>
		<path class="st8" d="M649.4,60.8h0.8v1.1c0.5-0.7,1.1-1.3,2.2-1.3c1.4,0,2.7,1.1,2.7,2.9v0c0,1.9-1.3,3-2.7,3
			c-1.1,0-1.7-0.6-2.2-1.2v2.8h-0.8V60.8z M654.2,63.7L654.2,63.7c0-1.4-0.9-2.2-2-2.2c-1.1,0-2.1,0.9-2.1,2.2v0
			c0,1.3,1,2.2,2.1,2.2C653.3,65.8,654.2,65,654.2,63.7z"/>
		<path class="st8" d="M656.3,63.7L656.3,63.7c0-1.7,1.2-3,2.7-3c1.7,0,2.7,1.3,2.7,3c0,0.1,0,0.2,0,0.3h-4.5c0.1,1.2,1,1.9,2,1.9
			c0.8,0,1.3-0.3,1.8-0.8l0.5,0.5c-0.6,0.6-1.3,1.1-2.3,1.1C657.6,66.6,656.3,65.4,656.3,63.7z M660.8,63.3c-0.1-1-0.7-1.9-1.8-1.9
			c-1,0-1.7,0.8-1.8,1.9H660.8z"/>
		<path class="st8" d="M663.2,60.8h0.8v1.5c0.4-0.9,1.2-1.6,2.3-1.6v0.9h-0.1c-1.2,0-2.3,0.9-2.3,2.6v2.3h-0.8V60.8z"/>
		<path class="st8" d="M667.6,58.6h1v0.9h-1V58.6z M667.7,60.8h0.8v5.7h-0.8V60.8z"/>
		<path class="st8" d="M670.2,63.7L670.2,63.7c0-1.6,1.3-3,3-3c1.7,0,3,1.3,3,2.9v0c0,1.6-1.3,3-3,3
			C671.4,66.6,670.2,65.3,670.2,63.7z M675.2,63.7L675.2,63.7c0-1.2-0.9-2.2-2.1-2.2c-1.2,0-2.1,1-2.1,2.2v0c0,1.2,0.9,2.2,2.1,2.2
			C674.4,65.9,675.2,64.9,675.2,63.7z"/>
		<path class="st8" d="M677.3,63.7L677.3,63.7c0-1.9,1.4-3,2.7-3c1.1,0,1.7,0.6,2.2,1.2v-3.4h0.8v8h-0.8v-1.1
			c-0.5,0.7-1.1,1.3-2.2,1.3C678.6,66.6,677.3,65.5,677.3,63.7z M682.2,63.6L682.2,63.6c0-1.3-1-2.2-2.1-2.2c-1.1,0-2,0.8-2,2.2v0
			c0,1.3,0.9,2.2,2,2.2C681.2,65.8,682.2,64.9,682.2,63.6z"/>
	</g>
	<g>
		<rect x="424" y="58.4" class="st4" width="111" height="10.7"/>
		<path class="st8" d="M431.1,61.5h-0.8v-0.7h0.8v-0.5c0-0.6,0.2-1.1,0.5-1.5c0.3-0.3,0.7-0.4,1.2-0.4c0.4,0,0.7,0,0.9,0.1v0.7
			c-0.3-0.1-0.5-0.1-0.8-0.1c-0.7,0-1,0.4-1,1.2v0.5h1.8v0.7h-1.8v4.9h-0.8V61.5z"/>
		<path class="st8" d="M434.3,63.7L434.3,63.7c0-1.6,1.3-3,3-3c1.7,0,3,1.3,3,2.9v0c0,1.6-1.3,3-3,3
			C435.6,66.6,434.3,65.3,434.3,63.7z M439.4,63.7L439.4,63.7c0-1.2-0.9-2.2-2.1-2.2c-1.2,0-2.1,1-2.1,2.2v0c0,1.2,0.9,2.2,2.1,2.2
			C438.5,65.9,439.4,64.9,439.4,63.7z"/>
		<path class="st8" d="M441.8,60.8h0.8v1.5c0.4-0.9,1.2-1.6,2.3-1.6v0.9h-0.1c-1.2,0-2.3,0.9-2.3,2.6v2.3h-0.8V60.8z"/>
		<path class="st8" d="M449.9,65v-3.4h-0.8v-0.7h0.8v-1.7h0.8v1.7h1.8v0.7h-1.8v3.3c0,0.7,0.4,0.9,1,0.9c0.3,0,0.5-0.1,0.8-0.2v0.7
			c-0.3,0.2-0.6,0.2-1,0.2C450.5,66.6,449.9,66.1,449.9,65z"/>
		<path class="st8" d="M454,58.4h0.8v3.3c0.4-0.6,1-1.1,1.9-1.1c1.4,0,2.2,0.9,2.2,2.3v3.5h-0.8v-3.3c0-1.1-0.6-1.7-1.6-1.7
			c-1,0-1.7,0.7-1.7,1.8v3.3H454V58.4z"/>
		<path class="st8" d="M460.4,63.7L460.4,63.7c0-1.7,1.2-3,2.7-3c1.7,0,2.7,1.3,2.7,3c0,0.1,0,0.2,0,0.3h-4.5c0.1,1.2,1,1.9,2,1.9
			c0.8,0,1.3-0.3,1.8-0.8l0.5,0.5c-0.6,0.6-1.3,1.1-2.3,1.1C461.7,66.6,460.4,65.4,460.4,63.7z M464.9,63.3c-0.1-1-0.7-1.9-1.8-1.9
			c-1,0-1.7,0.8-1.8,1.9H464.9z"/>
		<path class="st8" d="M470.2,65.8l2.8-2.5c1.2-1.1,1.6-1.7,1.6-2.4c0-0.9-0.7-1.5-1.6-1.5c-0.9,0-1.5,0.5-2.1,1.3l-0.6-0.5
			c0.7-1,1.4-1.6,2.8-1.6c1.4,0,2.4,0.9,2.4,2.2v0c0,1.1-0.6,1.8-1.9,3l-2.1,1.8h4.1v0.8h-5.4V65.8z"/>
		<path class="st8" d="M477.2,60.8h0.8v1c0.4-0.6,1-1.1,1.9-1.1c1.4,0,2.2,0.9,2.2,2.3v3.5h-0.8v-3.3c0-1.1-0.6-1.7-1.6-1.7
			c-1,0-1.7,0.7-1.7,1.8v3.3h-0.8V60.8z"/>
		<path class="st8" d="M483.6,63.7L483.6,63.7c0-1.9,1.4-3,2.7-3c1.1,0,1.7,0.6,2.2,1.2v-3.4h0.8v8h-0.8v-1.1
			c-0.5,0.7-1.1,1.3-2.2,1.3C485,66.6,483.6,65.5,483.6,63.7z M488.5,63.6L488.5,63.6c0-1.3-1-2.2-2.1-2.2c-1.1,0-2,0.8-2,2.2v0
			c0,1.3,0.9,2.2,2,2.2C487.5,65.8,488.5,64.9,488.5,63.6z"/>
		<path class="st8" d="M494.6,60.8h0.8v1.1c0.5-0.7,1.1-1.3,2.2-1.3c1.4,0,2.7,1.1,2.7,2.9v0c0,1.9-1.3,3-2.7,3
			c-1.1,0-1.7-0.6-2.2-1.2v2.8h-0.8V60.8z M499.4,63.7L499.4,63.7c0-1.4-0.9-2.2-2-2.2c-1.1,0-2.1,0.9-2.1,2.2v0
			c0,1.3,1,2.2,2.1,2.2C498.5,65.8,499.4,65,499.4,63.7z"/>
		<path class="st8" d="M501.5,63.7L501.5,63.7c0-1.7,1.2-3,2.7-3c1.7,0,2.7,1.3,2.7,3c0,0.1,0,0.2,0,0.3h-4.5c0.1,1.2,1,1.9,2,1.9
			c0.8,0,1.3-0.3,1.8-0.8l0.5,0.5c-0.6,0.6-1.3,1.1-2.3,1.1C502.8,66.6,501.5,65.4,501.5,63.7z M506,63.3c-0.1-1-0.7-1.9-1.8-1.9
			c-1,0-1.7,0.8-1.8,1.9H506z"/>
		<path class="st8" d="M508.4,60.8h0.8v1.5c0.4-0.9,1.2-1.6,2.3-1.6v0.9h-0.1c-1.2,0-2.3,0.9-2.3,2.6v2.3h-0.8V60.8z"/>
		<path class="st8" d="M512.8,58.6h1v0.9h-1V58.6z M512.9,60.8h0.8v5.7h-0.8V60.8z"/>
		<path class="st8" d="M515.4,63.7L515.4,63.7c0-1.6,1.3-3,3-3c1.7,0,3,1.3,3,2.9v0c0,1.6-1.3,3-3,3
			C516.6,66.6,515.4,65.3,515.4,63.7z M520.4,63.7L520.4,63.7c0-1.2-0.9-2.2-2.1-2.2c-1.2,0-2.1,1-2.1,2.2v0c0,1.2,0.9,2.2,2.1,2.2
			C519.6,65.9,520.4,64.9,520.4,63.7z"/>
		<path class="st8" d="M522.5,63.7L522.5,63.7c0-1.9,1.4-3,2.7-3c1.1,0,1.7,0.6,2.2,1.2v-3.4h0.8v8h-0.8v-1.1
			c-0.5,0.7-1.1,1.3-2.2,1.3C523.8,66.6,522.5,65.5,522.5,63.7z M527.4,63.6L527.4,63.6c0-1.3-1-2.2-2.1-2.2c-1.1,0-2,0.8-2,2.2v0
			c0,1.3,0.9,2.2,2,2.2C526.4,65.8,527.4,64.9,527.4,63.6z"/>
	</g>
</g>
<g id="Layer_2">
</g>
</svg>
