<svg xmlns="http://www.w3.org/2000/svg" width="385" height="390" viewBox="0 0 385 390">
    <defs>
        <linearGradient id="a" x1="139.538%" x2="-13.866%" y1="-52.274%" y2="114.501%">
            <stop offset="0%" stop-color="#6E6EF4"/>
            <stop offset="0%" stop-color="#B81DF5"/>
            <stop offset="59.571%" stop-color="#746DF2"/>
            <stop offset="76.125%" stop-color="#4D9BBA"/>
            <stop offset="100%" stop-color="#15DD69"/>
        </linearGradient>
        <linearGradient id="b" x1="-52.666%" x2="46.046%" y1="-55.257%" y2="45.942%">
            <stop offset="0%" stop-color="#6E6EF4"/>
            <stop offset="0%" stop-color="#B81DF5"/>
            <stop offset="59.571%" stop-color="#746DF2"/>
            <stop offset="100%" stop-color="#15DD69"/>
        </linearGradient>
        <linearGradient id="c" x1="8.138%" x2="84.003%" y1="59.72%" y2="44.23%">
            <stop offset="0%" stop-color="#6E6EF4"/>
            <stop offset="0%" stop-color="#B81DF5"/>
            <stop offset="59.571%" stop-color="#746DF2"/>
            <stop offset="100%" stop-color="#15DD69"/>
        </linearGradient>
        <linearGradient id="d" x1="5.269%" x2="81.6%" y1="1.15%" y2="77.006%">
            <stop offset="0%" stop-color="#6E6EF4"/>
            <stop offset="0%" stop-color="#B81DF5"/>
            <stop offset="59.571%" stop-color="#746DF2"/>
            <stop offset="100%" stop-color="#15DD69"/>
        </linearGradient>
    </defs>
    <g fill="none" fill-rule="evenodd">
        <path fill="url(#a)" fill-rule="nonzero" d="M179.912 381.411l-.404-60.235 67.69-68.655 1.097-1.112h.001c5.756-5.565 13.558-9.037 22.195-9.15 17.983-.236 32.753 14.15 32.989 32.134.125 9.52-3.85 18.137-10.284 24.176l-72.787 73.778-.534.54c-5.789 5.771-31.145 8.409-39.963 8.524" transform="translate(4)"/>
        <path fill="url(#b)" fill-rule="nonzero" d="M371.449 326.658l-.534-.54-72.815-73.751c-5.955-6.513-14.52-10.6-24.04-10.6-17.985 0-32.564 14.58-32.564 32.564 0 8.638 3.369 16.484 8.857 22.313l1.098 1.112 72.3 73.207c5.966 6.707 14.656 10.937 24.338 10.937 17.985 0 32.565-14.58 32.565-32.564 0-8.82-3.511-16.814-9.205-22.678z" transform="translate(4)"/>
        <path fill="url(#c)" fill-rule="nonzero" d="M371.045 326.56a31.978 31.978 0 0 0-22.394-9.364h-.753l-102.64.085c-1.538-.058-3.077 0-4.608.162-33.862 1.951-60.726 30.292-60.726 64.972h128.91l-.001-.112 37.906-.037a31.996 31.996 0 0 0 24.634-9.654c12.504-12.809 12.357-33.427-.328-46.052z" transform="translate(4)"/>
        <path fill="#000" fill-rule="nonzero" d="M229.329 204.342h.089c6.305.034 11.955 3.572 14.746 9.236a.681.681 0 0 0 .845.34 4.535 4.535 0 0 1 1.572-.278 4.489 4.489 0 0 1 3.19 1.34 4.493 4.493 0 0 1 1.308 3.205c-.014 2.48-2.041 4.497-4.545 4.497-.018 0-.035-.002-.052-.003a2.068 2.068 0 0 0-.095-.006h-.027a.681.681 0 0 0-.674.584c-1.166 8.063-8.196 14.144-16.353 14.144h-.089c-8.202-.043-15.207-6.2-16.292-14.319a.683.683 0 0 0-.642-.592 4.507 4.507 0 0 1-4.297-4.533c.014-2.48 2.041-4.497 4.545-4.497.426.002.855.067 1.273.192a.682.682 0 0 0 .802-.341c2.852-5.532 8.483-8.969 14.696-8.969m0-.682c-6.66 0-12.442 3.791-15.302 9.338a5.215 5.215 0 0 0-1.465-.22h-.028a5.204 5.204 0 0 0-5.203 5.176 5.198 5.198 0 0 0 4.945 5.218c1.12 8.38 8.27 14.865 16.964 14.91l.093.001c8.651 0 15.822-6.392 17.027-14.729.058.002.112.01.17.01h.027a5.204 5.204 0 0 0 .027-10.407h-.026c-.627 0-1.226.116-1.782.32-2.792-5.667-8.609-9.58-15.354-9.616h-.093"/>
        <path fill="#000" fill-rule="nonzero" d="M220.389 222.445l-.015 2.57a1.178 1.178 0 0 1-2.358-.015l.016-2.57a1.177 1.177 0 1 1 2.357.014M230.777 222.5l-.016 2.57a1.178 1.178 0 0 1-2.358-.015l.017-2.57a1.178 1.178 0 1 1 2.357.014"/>
        <path stroke="#000" stroke-linecap="round" stroke-linejoin="round" d="M183.924 383.194H34.908l-.69-102.881h149.017z"/>
        <path fill="#000" fill-rule="nonzero" d="M113.048 331.753a3.976 3.976 0 1 1-7.953 0 3.976 3.976 0 1 1 7.953 0"/>
        <path stroke="#FFF" stroke-linecap="round" stroke-linejoin="round" d="M248.319 349.693c-17.858.27-32.253 14.823-32.253 32.745M248.319 349.693c-17.858.27-32.253 14.823-32.253 32.745M249.51 333.124c-27.236 0-49.315 22.078-49.315 49.314"/>
        <path stroke="#000" stroke-linecap="round" stroke-linejoin="round" stroke-width="8" d="M4.466 385.296H249.51"/>
        <path fill="url(#d)" fill-rule="nonzero" d="M156.17 173.073H86.314c-5.563 0-10.073 4.51-10.073 10.073v56.731a24.36 24.36 0 0 0 20.523 24.117v-17.591h59.411c6.398.243 10.068-5.174 9.97-9.57l.098-53.687c0-5.563-4.51-10.073-10.073-10.073zm-57.574 51.883a3.976 3.976 0 1 1 0-7.953 3.976 3.976 0 0 1 0 7.953zm16.67 0a3.976 3.976 0 1 1-.001-7.953 3.976 3.976 0 0 1 .001 7.953zm16.393.054a3.976 3.976 0 1 1 0-7.952 3.976 3.976 0 0 1 0 7.952z" transform="translate(4)"/>
        <path stroke="#000" stroke-linecap="round" stroke-linejoin="round" d="M9.225 143.251l49.028 49.547M68.767 61.077c12.988-12.851 34.13-12.74 46.98.247l51.51 50.897"/>
        <path stroke="#000" stroke-linecap="round" stroke-linejoin="round" d="M69.498 60.337l-60.28 59.65c-6.521 6.452-6.223 16.97.23 23.49M167.257 112.22l.509-45.513"/>
        <path fill="#FFF" fill-rule="nonzero" d="M234.137 49.398l-.653 60.801"/>
        <path stroke="#000" stroke-linecap="round" stroke-linejoin="round" d="M234.137 49.398l-.121 69.72M57.3 279.441l.515-160.069-19.74 19.569M167.687 66.707C167.88 30.143 197.677.657 234.241.85M200.676 65.672c.37-18.117 15.211-32.644 33.395-32.547M200.676 65.672c.37-18.117 15.211-32.644 33.395-32.547M234.071 33.124a8.052 8.052 0 0 1-.084 16.104"/>
        <path stroke="#000" stroke-linecap="round" stroke-linejoin="round" d="M234.1 17.02a8.052 8.052 0 0 1 8.009 8.095 8.052 8.052 0 0 1-8.093 8.01M234.185.917a8.052 8.052 0 0 1-.085 16.104M183.858 66.792c.146-27.633 22.665-49.916 50.298-49.771"/>
        <path fill="#000" fill-rule="nonzero" d="M42.056 9.564c5.052-2.945 11.048-3.055 16.535-1.35 3.096.961 5.813 2.567 8.815 3.514 1.118.353 2.276.614 3.508.717 4.163.345 8.278-.79 11.865-2.881 4.124-2.404 8.409-2.759 11.983-2.38 0 0-18.201.498-20.078 15.355-1.632 12.926 8.791 18.578 8.791 18.578-3.587 2.09-8.398 3.673-12.56 3.328-4.538-.377-8.074-2.911-12.324-4.231-5.487-1.705-11.483-1.595-16.535 1.35-11.365 6.625-17.361 0-17.361 0v-32s5.996 6.625 17.361 0z"/>
        <g fill="#000" fill-rule="nonzero">
            <path d="M80.826 11.506c2.955-2.316 6.817-3.724 11.052-3.724 4.235 0 8.098 1.408 11.053 3.724H80.826z"/>
            <path d="M92.051 7.877c6.687 0 12.728 3.708 15.766 9.678l.344.677.73-.214a4.712 4.712 0 0 1 1.326-.193 4.712 4.712 0 0 1 4.707 4.707 4.693 4.693 0 0 1-4.497 4.695l-.762.034-.105.755c-1.206 8.68-8.734 15.226-17.509 15.226-8.773 0-16.3-6.544-17.508-15.223l-.114-.817-.824.028-.152.009a4.712 4.712 0 0 1-4.707-4.707 4.712 4.712 0 0 1 4.707-4.707c.55 0 1.1.1 1.634.298l.77.286.368-.735c3.017-6.043 9.081-9.797 15.826-9.797zm0-.916c-7.29 0-13.596 4.197-16.645 10.304a5.597 5.597 0 0 0-1.953-.356 5.623 5.623 0 1 0 0 11.246c.062 0 .122-.008.183-.01 1.26 9.047 9.022 16.013 18.415 16.013 9.395 0 17.158-6.967 18.416-16.016a5.618 5.618 0 1 0-1.834-11.003C105.56 11.101 99.29 6.961 92.05 6.961z"/>
            <path d="M96.91 23.812l.001 2.777a1.273 1.273 0 1 0 2.547-.002l-.002-2.777a1.273 1.273 0 1 0-2.547.002zM85.684 23.812l.003 2.777a1.273 1.273 0 1 0 2.547-.002l-.002-2.777a1.273 1.273 0 1 0-2.547.002z"/>
        </g>
        <path fill="#000" fill-rule="nonzero" d="M217.75 208.616l59.413-58.792c6.426-6.36 16.792-6.305 23.152.122 6.36 6.427 6.305 16.792-.122 23.152l-56.436 55.844a16.24 16.24 0 0 0 1.705-6.273c.168.019.332.05.506.05a4.468 4.468 0 0 0 0-8.935 4.42 4.42 0 0 0-2.196.599c-2.673-5.352-8.188-9.037-14.577-9.037-6.197 0-11.577 3.46-14.328 8.554l-1.036-.248 3.919-5.036z"/>
    </g>
</svg>
