<?xml version="1.0" encoding="utf-8"?>
<!-- Generator: Adobe Illustrator 23.0.0, SVG Export Plug-In . SVG Version: 6.00 Build 0)  -->
<svg version="1.1" id="Layer_1" xmlns="http://www.w3.org/2000/svg" xmlns:xlink="http://www.w3.org/1999/xlink" x="0px" y="0px"
	 width="73.135925px" height="85.039368px" viewBox="0 0 73.135925 85.039368" enable-background="new 0 0 73.135925 85.039368"
	 xml:space="preserve">
<g>
	<path d="M72.864365,54.928013l-10.922157-11.87088c-0.113121-0.12236-0.254902-0.203117-0.404854-0.258675l0.003643-0.009804
		L36.92543,33.686527c-0.229263-0.085472-0.484669-0.085472-0.713932,0l-24.616575,9.102127l0.003771,0.010181
		c-0.149825,0.05537-0.29148,0.136002-0.40498,0.258297L0.271561,54.928013c-0.232279,0.252892-0.322778,0.604832-0.24334,0.938671
		c0.080443,0.333836,0.322778,0.605331,0.64455,0.724487l10.249448,3.789936v13.045788
		c0,0.431374,0.268478,0.816498,0.672705,0.965317l24.616575,9.102127c0.007416,0.002769,0.015335,0.001511,0.022877,0.004089
		c0.108093,0.037331,0.220211,0.060265,0.334087,0.060265c0.11388,0,0.225994-0.022934,0.334091-0.060265
		c0.007542-0.002579,0.015461-0.00132,0.022877-0.004089l24.615566-9.102127c0.404228-0.148819,0.672707-0.533943,0.672707-0.965317
		V60.381107l10.249447-3.789936c0.321777-0.119156,0.56411-0.390652,0.644554-0.724487
		C73.187141,55.532845,73.096642,55.180904,72.864365,54.928013z M36.568462,35.750393l21.646469,8.004082l-21.646469,8.00383
		l-21.64747-8.00383L36.568462,35.750393z M12.24249,44.959614l22.528072,8.329372l-9.415857,10.23336L2.827638,55.192471
		L12.24249,44.959614z M12.98156,61.142612l12.30678,4.550686c0.116642,0.043243,0.237307,0.063858,0.356966,0.063858
		c0.282555,0,0.559078-0.116646,0.758175-0.332336l9.135311-9.928303V81.05088L12.98156,72.709946V61.142612z M60.154362,72.709946
		L37.598133,81.05088V55.496643l9.134308,9.928177c0.199097,0.215691,0.47562,0.332336,0.758175,0.332336
		c0.119659,0,0.240326-0.020615,0.356968-0.063858l12.306778-4.550686V72.709946z M47.781216,63.522346l-9.414848-10.23336
		l22.527065-8.329372l9.414848,10.232857L47.781216,63.522346z"/>
	<path d="M15.456189,26.123877c4.286609,0,7.773814,3.487206,7.773814,7.773813c0,0.56863,0.460535,1.029671,1.029671,1.029671
		c0.569134,0,1.029671-0.46104,1.029671-1.029671c0-4.286608,3.488211-7.773813,7.774818-7.773813
		c0.569134,0,1.029671-0.46104,1.029671-1.029673c0-0.56863-0.460537-1.029671-1.029671-1.029671
		c-4.286608,0-7.774818-3.487707-7.774818-7.774317c0-0.568631-0.460537-1.02967-1.029671-1.02967
		c-0.569136,0-1.029671,0.461039-1.029671,1.02967c0,4.28661-3.487206,7.774317-7.773814,7.774317
		c-0.569135,0-1.029671,0.46104-1.029671,1.029671C14.426518,25.662836,14.887054,26.123877,15.456189,26.123877z
		 M24.259674,20.64426c0.95702,1.926735,2.523272,3.49305,4.450134,4.449944
		c-1.926863,0.956833-3.493114,2.523148-4.450134,4.449759c-0.95677-1.926611-2.523146-3.492926-4.449757-4.449759
		C21.736528,24.13731,23.302904,22.570995,24.259674,20.64426z"/>
	<path d="M31.47843,16.29273c7.280096,0,13.202715,5.923122,13.202715,13.203217c0,0.568632,0.460537,1.029671,1.029671,1.029671
		s1.029671-0.461039,1.029671-1.029671c0-7.280094,5.923622-13.203217,13.203716-13.203217
		c0.569138,0,1.029671-0.461039,1.029671-1.02967c0-0.568632-0.460533-1.029671-1.029671-1.029671
		c-7.280094,0-13.203716-5.923121-13.203716-13.203719C46.740486,0.461039,46.279949,0,45.710815,0
		s-1.029671,0.461039-1.029671,1.029671c0,7.280598-5.922619,13.203719-13.202715,13.203719
		c-0.569134,0-1.029671,0.461039-1.029671,1.029671C30.448759,15.831692,30.909296,16.29273,31.47843,16.29273z M45.710815,6.496906
		c1.549534,4.019638,4.746265,7.216369,8.766029,8.766154c-4.019764,1.549659-7.216496,4.746076-8.766029,8.765714
		c-1.549534-4.019638-4.74614-7.216055-8.765526-8.765714C40.964676,13.713275,44.161282,10.516544,45.710815,6.496906z"/>
</g>
</svg>
