<?xml version="1.0" encoding="utf-8"?>
<!-- Generator: Adobe Illustrator 23.0.0, SVG Export Plug-In . SVG Version: 6.00 Build 0)  -->
<svg version="1.1" id="Layer_1" xmlns="http://www.w3.org/2000/svg" xmlns:xlink="http://www.w3.org/1999/xlink" x="0px" y="0px"
	 viewBox="0 0 597.4 756.8" style="enable-background:new 0 0 597.4 756.8;" xml:space="preserve">
<style type="text/css">
	.st0{fill:url(#SVGID_1_);}
	.st1{fill:url(#SVGID_2_);}
	.st2{fill:#FFFFFF;}
	.st3{fill:#FF8B00;}
</style>
<g>
	<g>
		<linearGradient id="SVGID_1_" gradientUnits="userSpaceOnUse" x1="186.3039" y1="275.0056" x2="477.5612" y2="513.4847">
			<stop  offset="0" style="stop-color:#571EE9"/>
			<stop  offset="0.6378" style="stop-color:#FF127F"/>
			<stop  offset="0.6957" style="stop-color:#FF1F72"/>
			<stop  offset="0.8037" style="stop-color:#FF404E"/>
			<stop  offset="0.9492" style="stop-color:#FF7715"/>
			<stop  offset="1" style="stop-color:#FF8B00"/>
		</linearGradient>
		<path class="st0" d="M415.9,541.3L233.4,358.8c-18.7-18.7-18.7-49.2,0-67.9l0,0c18.7-18.7,49.2-18.7,67.9,0l182.5,182.5
			c18.7,18.7,18.7,49.2,0,67.9l0,0C465.1,559.9,434.6,559.9,415.9,541.3z"/>
	</g>
	<g>
		<linearGradient id="SVGID_2_" gradientUnits="userSpaceOnUse" x1="168.0367" y1="758.0347" x2="500.3437" y2="482.4153">
			<stop  offset="0" style="stop-color:#571EE9"/>
			<stop  offset="0.6378" style="stop-color:#FF127F"/>
			<stop  offset="0.6957" style="stop-color:#FF1F72"/>
			<stop  offset="0.8037" style="stop-color:#FF404E"/>
			<stop  offset="0.9492" style="stop-color:#FF7715"/>
			<stop  offset="1" style="stop-color:#FF8B00"/>
		</linearGradient>
		<path class="st1" d="M483.8,541L282.1,742.7c-18.7,18.7-49.2,18.7-67.9,0l0,0c-18.7-18.7-18.7-49.2,0-67.9l201.7-201.7
			c18.7-18.7,49.2-18.7,67.9,0l0,0C502.5,491.8,502.5,522.4,483.8,541z"/>
	</g>
	<path d="M422.9,171h88.5c15.8,0,28.5,12.8,28.5,28.5v146.7c0,15.8-12.8,28.5-28.5,28.5h0c-10,0-19.3-5.2-24.4-13.8l-88.5-146.7
		C387,195.3,400.7,171,422.9,171z"/>
	<path d="M474.4,360.8l-137-137c-18.7-18.7-18.7-49.2,0-67.9l0,0c18.7-18.7,49.2-18.7,67.9,0l137,137c18.7,18.7,18.7,49.2,0,67.9
		l0,0C523.6,379.4,493.1,379.4,474.4,360.8z"/>
	<path d="M460.2,326.8V219c0-26.4,21.6-48,48-48h0c26.4,0,48,21.6,48,48v107.7c0,26.4-21.6,48-48,48h0
		C481.8,374.8,460.2,353.2,460.2,326.8z"/>
	<g>
		<path class="st2" d="M225,513.6c18.7-18.7,49.2-18.7,67.9,0"/>
		<path d="M292.9,514.1c-0.1,0-0.3,0-0.4-0.1c-8.9-8.9-20.9-13.9-33.6-13.9s-24.7,4.9-33.6,13.9c-0.2,0.2-0.5,0.2-0.7,0
			s-0.2-0.5,0-0.7c9.1-9.1,21.3-14.1,34.3-14.1s25.2,5,34.3,14.1c0.2,0.2,0.2,0.5,0,0.7C293.2,514.1,293,514.1,292.9,514.1z"/>
	</g>
	<g>
		<g>
			<g>
				<path d="M406.7,157L406.7,157c-37.5-37.5-98.4-37.5-135.9,0l66.7,66.7L406.7,157z"/>
				<g>
					<path d="M270.8,157c37.5-37.5,98.4-37.5,135.9,0l0,0l53.7,53.7"/>
					<path class="st2" d="M460.5,211.2c-0.1,0-0.3,0-0.4-0.1l-53.7-53.7c-37.3-37.3-97.9-37.3-135.2,0c-0.2,0.2-0.5,0.2-0.7,0
						s-0.2-0.5,0-0.7c37.7-37.7,99-37.7,136.6,0l53.7,53.7c0.2,0.2,0.2,0.5,0,0.7C460.7,211.1,460.6,211.2,460.5,211.2z"/>
				</g>
				<g>
					<path d="M287.5,173.5c-4.6,4.6-12,4.6-16.5,0c-4.6-4.6-4.6-12,0-16.5"/>
					<path class="st2" d="M279.2,177.4c-3.3,0-6.3-1.3-8.6-3.6s-3.6-5.4-3.6-8.6s1.3-6.3,3.6-8.6c0.2-0.2,0.5-0.2,0.7,0
						s0.2,0.5,0,0.7c-4.4,4.4-4.4,11.5,0,15.8c4.4,4.4,11.5,4.4,15.8,0c0.2-0.2,0.5-0.2,0.7,0s0.2,0.5,0,0.7
						C285.5,176.2,282.5,177.4,279.2,177.4z"/>
				</g>
				<g>
					<path d="M371.6,189.6c-18.9-18.3-49-18.2-67.7,0.5"/>
					<path class="st2" d="M303.9,190.6c-0.1,0-0.3,0-0.4-0.1c-0.2-0.2-0.2-0.5,0-0.7c18.7-18.7,49.4-18.9,68.4-0.5
						c0.2,0.2,0.2,0.5,0,0.7c-0.2,0.2-0.5,0.2-0.7,0c-18.6-18.1-48.7-17.8-67,0.5C304.2,190.6,304.1,190.6,303.9,190.6z"/>
				</g>
				<g>
					<path d="M371.6,189.6c-18.9-18.3-49-18.2-67.7,0.5"/>
					<path class="st2" d="M303.9,190.6c-0.1,0-0.3,0-0.4-0.1c-0.2-0.2-0.2-0.5,0-0.7c18.7-18.7,49.4-18.9,68.4-0.5
						c0.2,0.2,0.2,0.5,0,0.7c-0.2,0.2-0.5,0.2-0.7,0c-18.6-18.1-48.7-17.8-67,0.5C304.2,190.6,304.1,190.6,303.9,190.6z"/>
				</g>
				<g>
					<path d="M303.9,190.1c-4.6,4.6-4.6,12,0,16.5c4.6,4.6,12,4.6,16.5,0"/>
					<path class="st2" d="M312.2,210.6c-3.3,0-6.3-1.3-8.6-3.6s-3.6-5.4-3.6-8.6s1.3-6.3,3.6-8.6c0.2-0.2,0.5-0.2,0.7,0
						s0.2,0.5,0,0.7c-4.4,4.4-4.4,11.5,0,15.8c2.1,2.1,4.9,3.3,7.9,3.3c3,0,5.8-1.2,7.9-3.3c0.2-0.2,0.5-0.2,0.7,0s0.2,0.5,0,0.7
						C318.5,209.3,315.5,210.6,312.2,210.6z"/>
				</g>
				<g>
					<path d="M287.5,173.5c-4.6,4.6-4.6,12,0,16.5c4.6,4.6,12,4.6,16.5,0"/>
					<path class="st2" d="M295.7,194c-3.1,0-6.2-1.2-8.6-3.6c-2.3-2.3-3.6-5.4-3.6-8.6s1.3-6.3,3.6-8.6c0.2-0.2,0.5-0.2,0.7,0
						s0.2,0.5,0,0.7c-4.4,4.4-4.4,11.5,0,15.8c2.1,2.1,4.9,3.3,7.9,3.3s5.8-1.2,7.9-3.3c0.2-0.2,0.5-0.2,0.7,0s0.2,0.5,0,0.7
						C302,192.8,298.9,194,295.7,194z"/>
				</g>
				<g>
					<path d="M390.1,173.6L390.1,173.6c-28.4-28.4-74.4-28.4-102.7,0"/>
					<path class="st2" d="M390.1,174.1c-0.1,0-0.3,0-0.4-0.1c-28.1-28.1-73.9-28.1-102,0c-0.2,0.2-0.5,0.2-0.7,0s-0.2-0.5,0-0.7
						c13.8-13.8,32.2-21.4,51.7-21.4c19.5,0,37.9,7.6,51.7,21.4c0.2,0.2,0.2,0.5,0,0.7C390.4,174,390.3,174.1,390.1,174.1z"/>
				</g>
			</g>
		</g>
	</g>
	<g>
		<path class="st2" d="M556,468.5c9.2-9.2,24.3-9.2,33.5,0l0.4,0.4c9.2,9.2,9.2,24.3,0,33.5L409.5,682.9"/>
		<path d="M409.5,683.4c-0.1,0-0.3,0-0.4-0.1c-0.2-0.2-0.2-0.5,0-0.7l180.5-180.5c4.4-4.4,6.8-10.2,6.8-16.4s-2.4-12-6.8-16.4
			l-0.4-0.4c-4.4-4.4-10.2-6.8-16.4-6.8s-12,2.4-16.4,6.8c-0.2,0.2-0.5,0.2-0.7,0s-0.2-0.5,0-0.7c4.6-4.6,10.6-7.1,17.1-7.1
			c6.5,0,12.6,2.5,17.1,7.1l0.4,0.4c4.5,4.5,7.1,10.6,7.1,17.1s-2.5,12.6-7.1,17.1L409.8,683.3C409.8,683.4,409.6,683.4,409.5,683.4
			z"/>
	</g>
	<g>
		<g>
			<path d="M539.7,756.8H359.4c-2.2,0-4-1.8-4-4s1.8-4,4-4h180.3c2.2,0,4,1.8,4,4S541.9,756.8,539.7,756.8z"/>
		</g>
		<g>
			<path d="M531.4,749.8c-0.3,0-0.5-0.2-0.5-0.5c0-28.8-23.4-52.3-52.3-52.3c-0.3,0-0.5-0.2-0.5-0.5s0.2-0.5,0.5-0.5
				c29.4,0,53.3,23.9,53.3,53.3C531.9,749.5,531.7,749.8,531.4,749.8z"/>
			<g>
				<line class="st2" x1="478.7" y1="714.7" x2="503.2" y2="690.1"/>
				<path d="M478.7,715.2c-0.1,0-0.3,0-0.4-0.1c-0.2-0.2-0.2-0.5,0-0.7l24.5-24.5c0.2-0.2,0.5-0.2,0.7,0s0.2,0.5,0,0.7L479,715
					C478.9,715.1,478.8,715.2,478.7,715.2z"/>
			</g>
			<g>
				<line class="st2" x1="460.7" y1="713.5" x2="493.6" y2="680.6"/>
				<path d="M460.7,714c-0.1,0-0.3,0-0.4-0.1c-0.2-0.2-0.2-0.5,0-0.7l32.9-32.9c0.2-0.2,0.5-0.2,0.7,0s0.2,0.5,0,0.7L461,713.8
					C460.9,713.9,460.8,714,460.7,714z"/>
			</g>
		</g>
		<g>
			<path d="M449.7,749.8c-0.3,0-0.5-0.2-0.5-0.5c0-28.8-23.4-52.3-52.3-52.3c-0.3,0-0.5-0.2-0.5-0.5s0.2-0.5,0.5-0.5
				c29.4,0,53.3,23.9,53.3,53.3C450.2,749.5,450,749.8,449.7,749.8z"/>
			<g>
				<line class="st2" x1="396.9" y1="714.7" x2="421.5" y2="690.1"/>
				<path d="M396.9,715.2c-0.1,0-0.3,0-0.4-0.1c-0.2-0.2-0.2-0.5,0-0.7l24.5-24.5c0.2-0.2,0.5-0.2,0.7,0s0.2,0.5,0,0.7L397.3,715
					C397.2,715.1,397.1,715.2,396.9,715.2z"/>
			</g>
			<g>
				<line class="st2" x1="379" y1="713.5" x2="411.9" y2="680.6"/>
				<path d="M379,714c-0.1,0-0.3,0-0.4-0.1c-0.2-0.2-0.2-0.5,0-0.7l32.9-32.9c0.2-0.2,0.5-0.2,0.7,0s0.2,0.5,0,0.7l-32.9,32.9
					C379.2,713.9,379.1,714,379,714z"/>
			</g>
		</g>
	</g>
	<g>
		<path d="M428.6,127.6L428.6,127.6c-9.4-9.4-9.4-24.6,0-33.9L515.2,7c9.4-9.4,24.6-9.4,33.9,0l0,0c9.4,9.4,9.4,24.6,0,33.9
			l-86.6,86.6C453.2,137,438,137,428.6,127.6z"/>
		<g>
			<g>
				<g>
					<path class="st2" d="M470.9,99.8c-0.9,0-1.8,0.2-2.6,0.5c-4.1-8.3-12.7-14-22.6-14c-9.8,0-18.3,5.6-22.5,13.8
						c-0.7-0.2-1.4-0.3-2.1-0.3c-4.2,0-7.6,3.4-7.6,7.6c0,4.1,3.2,7.4,7.3,7.6c1.7,12.3,12.2,21.7,25,21.7c12.7,0,23.3-9.5,25-21.7
						c0.1,0,0.2,0,0.2,0c4.2,0,7.6-3.4,7.6-7.6C478.5,103.2,475.1,99.8,470.9,99.8z"/>
					<path d="M445.7,87.3c9.2,0,17.6,5.1,21.7,13.4c0.2,0.3,0.5,0.6,0.9,0.6c0.1,0,0.2,0,0.3-0.1c0.8-0.3,1.5-0.4,2.3-0.4
						c3.7,0,6.6,3,6.6,6.6c0,3.7-3,6.6-6.6,6.6c0,0-0.1,0-0.1,0l-0.1,0c0,0,0,0,0,0c-0.5,0-0.9,0.4-1,0.9c-1.7,11.9-12,20.9-24,20.9
						c-12,0-22.3-9-24-20.9c-0.1-0.5-0.5-0.8-0.9-0.9c-3.6-0.2-6.3-3.1-6.3-6.6c0-3.7,3-6.6,6.6-6.6c0.6,0,1.3,0.1,1.9,0.3
						c0.1,0,0.2,0,0.3,0c0.4,0,0.7-0.2,0.9-0.5C428.2,92.4,436.5,87.3,445.7,87.3 M445.7,86.3c-9.8,0-18.3,5.6-22.5,13.8
						c-0.7-0.2-1.4-0.3-2.1-0.3c-4.2,0-7.6,3.4-7.6,7.6c0,4.1,3.2,7.4,7.3,7.6c1.7,12.3,12.2,21.7,25,21.7c12.7,0,23.3-9.5,25-21.7
						c0.1,0,0.2,0,0.2,0c4.2,0,7.6-3.4,7.6-7.6c0-4.2-3.4-7.6-7.6-7.6c-0.9,0-1.8,0.2-2.6,0.5C464.1,92,455.6,86.3,445.7,86.3
						L445.7,86.3z"/>
				</g>
				<path d="M432.5,107.9l0,3.8c0,1-0.8,1.7-1.7,1.7l0,0c-1,0-1.7-0.8-1.7-1.7l0-3.8c0-1,0.8-1.7,1.7-1.7l0,0
					C431.8,106.2,432.5,107,432.5,107.9z"/>
				<path d="M447.8,107.9l0,3.8c0,1-0.8,1.7-1.7,1.7l0,0c-1,0-1.7-0.8-1.7-1.7l0-3.8c0-1,0.8-1.7,1.7-1.7l0,0
					C447,106.2,447.8,107,447.8,107.9z"/>
			</g>
		</g>
	</g>
	<path d="M238.2,650.3c-1,0-2-0.4-2.8-1.2c-1.6-1.6-1.6-4.1,0-5.7l138.7-138.7V380.4c0-2.2,1.8-4,4-4s4,1.8,4,4v126.1
		c0,1.1-0.4,2.1-1.2,2.8L241.1,649.2C240.3,649.9,239.3,650.3,238.2,650.3z"/>
	<path d="M349.2,301.8c-0.1,0-0.3,0-0.4-0.1L218.5,171.2c-0.1-0.1-0.1-0.2-0.1-0.4V48.7c0-0.3,0.2-0.5,0.5-0.5s0.5,0.2,0.5,0.5v122
		L349.6,301c0.2,0.2,0.2,0.5,0,0.7C349.5,301.8,349.4,301.8,349.2,301.8z"/>
	<g>
		<path class="st3" d="M237,157.9c-0.3,0-0.5-0.2-0.5-0.5V48.7c0-0.3,0.2-0.5,0.5-0.5s0.5,0.2,0.5,0.5v108.7
			C237.5,157.6,237.3,157.9,237,157.9z"/>
	</g>
	<g>
		<path d="M111.8,429.6L111.8,429.6c9.4-9.4,9.4-24.6,0-33.9l-67.7-67.7c-9.4-9.4-24.6-9.4-33.9,0l0,0c-9.4,9.4-9.4,24.6,0,33.9
			l67.7,67.7C87.3,438.9,102.4,438.9,111.8,429.6z"/>
		<g>
			<g>
				<g>
					<path class="st2" d="M69.9,400.5c0.9,0,1.8,0.2,2.6,0.5c4.1-8.3,12.7-14,22.6-14c9.8,0,18.3,5.6,22.5,13.8
						c0.7-0.2,1.4-0.3,2.1-0.3c4.2,0,7.6,3.4,7.6,7.6c0,4.1-3.2,7.4-7.3,7.6c-1.7,12.3-12.2,21.7-25,21.7c-12.7,0-23.3-9.5-25-21.7
						c-0.1,0-0.2,0-0.2,0c-4.2,0-7.6-3.4-7.6-7.6C62.3,403.9,65.7,400.5,69.9,400.5z"/>
					<path d="M95.1,388c9.2,0,17.4,5.1,21.6,13.3c0.2,0.3,0.5,0.5,0.9,0.5c0.1,0,0.2,0,0.3,0c0.6-0.2,1.2-0.3,1.9-0.3
						c3.7,0,6.6,3,6.6,6.6c0,3.6-2.8,6.5-6.3,6.6c-0.5,0-0.9,0.4-0.9,0.9c-1.7,11.9-12,20.9-24,20.9c-12,0-22.3-9-24-20.9
						c-0.1-0.5-0.5-0.9-1-0.9c0,0,0,0,0,0c0,0-0.1,0-0.1,0c0,0,0,0-0.1,0c-3.7,0-6.6-3-6.6-6.6s3-6.6,6.6-6.6c0.8,0,1.6,0.1,2.3,0.4
						c0.1,0,0.2,0.1,0.3,0.1c0.4,0,0.7-0.2,0.9-0.6C77.6,393.1,85.9,388,95.1,388 M95.1,387c-9.9,0-18.4,5.7-22.6,14
						c-0.8-0.3-1.7-0.5-2.6-0.5c-4.2,0-7.6,3.4-7.6,7.6c0,4.2,3.4,7.6,7.6,7.6c0.1,0,0.2,0,0.2,0c1.7,12.3,12.2,21.7,25,21.7
						c12.7,0,23.3-9.5,25-21.7c4.1-0.2,7.3-3.5,7.3-7.6c0-4.2-3.4-7.6-7.6-7.6c-0.7,0-1.5,0.1-2.1,0.3C113.5,392.6,105,387,95.1,387
						L95.1,387z"/>
				</g>
				<path d="M108.3,414l0,3.8c0,1,0.8,1.7,1.7,1.7l0,0c1,0,1.7-0.8,1.7-1.7l0-3.8c0-1-0.8-1.7-1.7-1.7l0,0
					C109,412.2,108.3,413,108.3,414z"/>
				<path d="M93,414l0,3.8c0,1,0.8,1.7,1.7,1.7l0,0c1,0,1.7-0.8,1.7-1.7l0-3.8c0-1-0.8-1.7-1.7-1.7l0,0C93.8,412.2,93,413,93,414z"
					/>
			</g>
		</g>
	</g>
	<g>
		<path class="st2" d="M48.5,752.8L48.5,752.8c-26.4,0-48-21.6-48-48l0-196.6c0-26.4,21.6-48,48-48h0c26.4,0,48,21.6,48,48v80.7"/>
		<path d="M48.5,753.3C21.8,753.3,0,731.6,0,704.8V508.2c0-26.7,21.8-48.5,48.5-48.5c26.7,0,48.5,21.8,48.5,48.5v80.7
			c0,0.3-0.2,0.5-0.5,0.5s-0.5-0.2-0.5-0.5v-80.7c0-26.2-21.3-47.5-47.5-47.5S1,482,1,508.2v196.6c0,26.2,21.3,47.5,47.5,47.5
			c0.3,0,0.5,0.2,0.5,0.5S48.8,753.3,48.5,753.3z"/>
	</g>
	<g>
		<path class="st2" d="M255.7,565.5L82.4,738.8c-18.7,18.7-49.2,18.7-67.9,0l0,0"/>
		<path d="M48.4,753.4c-12.4,0-24.8-4.7-34.3-14.2c-0.2-0.2-0.2-0.5,0-0.7s0.5-0.2,0.7,0c18.5,18.5,48.7,18.5,67.2,0l173.3-173.3
			c0.2-0.2,0.5-0.2,0.7,0s0.2,0.5,0,0.7L82.7,739.2C73.3,748.6,60.9,753.4,48.4,753.4z"/>
	</g>
	<g>
		<g>
			<g>
				<g>
					<path class="st2" d="M169.6,515.8L169.6,515.8c37.4-37.4,97.9-37.4,135.3,0"/>
					<path d="M304.9,516.3c-0.1,0-0.3,0-0.4-0.1c-37.1-37.1-97.5-37.1-134.6,0l-0.7-0.7c37.5-37.5,98.5-37.5,136,0
						c0.2,0.2,0.2,0.5,0,0.7C305.1,516.2,305,516.3,304.9,516.3z"/>
				</g>
				<g>
					<path class="st2" d="M204.5,548.3c18.8-18.2,48.8-18.1,67.4,0.5"/>
					<path d="M271.9,549.3c-0.1,0-0.3,0-0.4-0.1c-18.2-18.2-48.2-18.5-66.7-0.5c-0.2,0.2-0.5,0.2-0.7,0c-0.2-0.2-0.2-0.5,0-0.7
						c18.9-18.3,49.5-18.1,68.1,0.5c0.2,0.2,0.2,0.5,0,0.7C272.2,549.2,272,549.3,271.9,549.3z"/>
				</g>
				<g>
					<path class="st2" d="M204.5,548.3c18.8-18.2,48.8-18.1,67.4,0.5"/>
					<path d="M271.9,549.3c-0.1,0-0.3,0-0.4-0.1c-18.2-18.2-48.2-18.5-66.7-0.5c-0.2,0.2-0.5,0.2-0.7,0c-0.2-0.2-0.2-0.5,0-0.7
						c18.9-18.3,49.5-18.1,68.1,0.5c0.2,0.2,0.2,0.5,0,0.7C272.2,549.2,272,549.3,271.9,549.3z"/>
				</g>
				<g>
					<path class="st2" d="M271.9,548.8c4.5,4.5,4.5,11.9,0,16.5c-4.5,4.5-11.9,4.5-16.5,0"/>
					<path d="M263.7,569.1c-3.2,0-6.3-1.3-8.6-3.6c-0.2-0.2-0.2-0.5,0-0.7s0.5-0.2,0.7,0c2.1,2.1,4.9,3.3,7.9,3.3
						c3,0,5.8-1.2,7.9-3.3c4.3-4.3,4.3-11.4,0-15.7c-0.2-0.2-0.2-0.5,0-0.7s0.5-0.2,0.7,0c4.7,4.7,4.7,12.4,0,17.2
						C270,567.9,266.9,569.1,263.7,569.1z"/>
				</g>
				<g>
					<path class="st2" d="M288.3,532.3c4.5,4.5,4.5,11.9,0,16.5c-4.5,4.5-11.9,4.5-16.5,0"/>
					<path d="M280.1,552.6c-3.1,0-6.2-1.2-8.6-3.5c-0.2-0.2-0.2-0.5,0-0.7s0.5-0.2,0.7,0c4.3,4.3,11.4,4.3,15.7,0
						c2.1-2.1,3.3-4.9,3.3-7.9c0-3-1.2-5.8-3.3-7.9c-0.2-0.2-0.2-0.5,0-0.7s0.5-0.2,0.7,0c2.3,2.3,3.6,5.3,3.6,8.6s-1.3,6.3-3.6,8.6
						C286.3,551.4,283.2,552.6,280.1,552.6z"/>
				</g>
				<g>
					<path class="st2" d="M304.7,515.8c4.5,4.5,4.5,11.9,0,16.5c-4.5,4.5-11.9,4.5-16.5,0"/>
					<path d="M296.5,536.2c-3.1,0-6.2-1.2-8.6-3.5c-0.2-0.2-0.2-0.5,0-0.7s0.5-0.2,0.7,0c4.3,4.3,11.4,4.3,15.7,0
						c4.3-4.3,4.3-11.4,0-15.7c-0.2-0.2-0.2-0.5,0-0.7s0.5-0.2,0.7,0c4.7,4.7,4.7,12.4,0,17.2C302.7,535,299.6,536.2,296.5,536.2z"
						/>
				</g>
				<g>
					<path class="st2" d="M186.1,532.3L186.1,532.3c28.2-28.2,74-28.2,102.2,0"/>
					<path d="M288.4,532.8c-0.1,0-0.3,0-0.4-0.1c-28-28-73.5-28-101.5,0c-0.2,0.2-0.5,0.2-0.7,0s-0.2-0.5,0-0.7
						c28.4-28.4,74.6-28.4,102.9,0c0.2,0.2,0.2,0.5,0,0.7C288.6,532.8,288.5,532.8,288.4,532.8z"/>
				</g>
			</g>
		</g>
	</g>
	<g>
		<line class="st2" x1="171.8" y1="513.6" x2="77.9" y2="607.5"/>
		<path d="M77.9,608c-0.1,0-0.3,0-0.4-0.1c-0.2-0.2-0.2-0.5,0-0.7l93.9-93.9c0.2-0.2,0.5-0.2,0.7,0s0.2,0.5,0,0.7l-93.9,93.9
			C78.2,608,78.1,608,77.9,608z"/>
	</g>
</g>
</svg>
