<svg xmlns="http://www.w3.org/2000/svg" width="33" height="28" viewBox="0 0 33 28">
    <g fill="none" fill-rule="evenodd" stroke="#FFF">
        <path fill="#97999C" stroke-width=".3" d="M.79 24.521V6.566a2 2 0 0 1 .29-1.038l2.46-4.053a1 1 0 0 1 .855-.481h9.82a1 1 0 0 1 .851.476l2.5 4.06a1 1 0 0 0 .851.476h10.361a3 3 0 0 1 3 3v15.515a3 3 0 0 1-3 3H3.79a3 3 0 0 1-3-3z"/>
        <path fill="#3B3E44" d="M5.12 6.5c-1.144 0-1.603.088-2.076.342a2.226 2.226 0 0 0-.929.929c-.253.473-.342.931-.342 2.075v14.308c0 1.144.089 1.602.342 2.075.215.402.527.715.929.93.473.253.932.341 2.075.341h23.309c1.143 0 1.602-.088 2.075-.342.402-.214.714-.527.929-.929.253-.473.341-.931.341-2.075V9.846c0-1.144-.088-1.602-.341-2.075a2.226 2.226 0 0 0-.93-.93c-.472-.253-.93-.341-2.074-.341H5.119z"/>
    </g>
</svg>
