<?xml version="1.0" encoding="UTF-8"?>
<svg width="55px" height="54px" viewBox="0 0 55 54" version="1.1" xmlns="http://www.w3.org/2000/svg" xmlns:xlink="http://www.w3.org/1999/xlink">
    <!-- Generator: Sketch 50.2 (55047) - http://www.bohemiancoding.com/sketch -->
    <title>Slice</title>
    <desc>Created with Sketch.</desc>
    <defs>
        <path d="M2.49,19 L2.49,5 L3.17,5 L3.17,19 L2.49,19 Z M7.47,19 L7.47,5 L12.03,5 C16.43,5 19.47,8.04 19.47,11.98 L19.47,12.02 C19.47,15.96 16.43,19 12.03,19 L7.47,19 Z M12.03,5.62 L8.15,5.62 L8.15,18.38 L12.05,18.38 C16.07,18.38 18.77,15.58 18.77,12.04 L18.77,12 C18.77,8.46 16.07,5.62 12.03,5.62 Z M23.01,19 L23.01,5 L32.87,5 L32.87,5.62 L23.69,5.62 L23.69,11.64 L31.99,11.64 L31.99,12.26 L23.69,12.26 L23.69,18.38 L32.97,18.38 L32.97,19 L23.01,19 Z" id="path-1"></path>
    </defs>
    <g id="Page-1" stroke="none" stroke-width="1" fill="none" fill-rule="evenodd">
        <g id="ide" transform="translate(1.000000, 0.000000)">
            <rect id="Rectangle-path" stroke="#FFF" stroke-width="1.7" x="0.1" y="0.85" width="52.3" height="52.3" rx="7"></rect>
            <g id="Group" transform="translate(10.250000, 15.000000)" fill="#000000">
                <g id="IDE">
                    <use xlink:href="#path-1" fill="#fff"></use>
                    <use fill-opacity="0.973137455" fill="#fff" xlink:href="#path-1"></use>
                </g>
            </g>
        </g>
    </g>
</svg>