<svg xmlns="http://www.w3.org/2000/svg" width="48" height="54" viewBox="0 0 48 54">
    <path fill="#FFF" fill-rule="evenodd" d="M42.033 42.66a21.002 21.002 0 0 0-6.138-3.473l-.666-.295c-5.077-2.248-5.273-2.4-5.273-4.086 0-1.023.938-2.709 1.815-3.946a17.658 17.658 0 0 0 2.879-7.058l.012-.064h.064a2.465 2.465 0 0 0 2.481-2.432v-2.97a2.457 2.457 0 0 0-2.17-2.413l-.069-.008V10.89C34.892 4.81 29.91-.06 23.831 0h-.695v3.303l-.074.005a11.022 11.022 0 0 0-10.369 10.863v1.744l-.07.008a2.457 2.457 0 0 0-2.169 2.413v2.97a2.465 2.465 0 0 0 2.48 2.432h.065l.013.064a17.92 17.92 0 0 0 2.594 6.643l.02.028c1.38 2.091 2.08 3.55 2.08 4.333 0 1.664-.272 1.866-5.812 4.324l-.122.055C6.454 41.105.25 45.89.25 53.072c.005.38.316.683.695.679.38.003.69-.3.694-.679 0-4.06 2.785-9.803 10.634-12.623l.197-.086c1.091-.484 2.033-.902 2.826-1.276l.083-.039.026.088a8.702 8.702 0 0 0 3.309 4.624 8.528 8.528 0 0 0 4.97 1.548 9.38 9.38 0 0 0 3.146-.547 8.745 8.745 0 0 0 5.509-5.578l.026-.087.081.038c.656.304 1.445.653 2.209.992l.735.324c7.846 2.819 10.632 8.562 10.632 12.622a.695.695 0 0 0 1.389 0c0-4.546-2.493-7.797-4.584-9.724l-.794-.688zm-10.948-4.125a7.307 7.307 0 0 1-4.73 4.953 7.983 7.983 0 0 1-2.671.466 7.16 7.16 0 0 1-4.153-1.29 7.392 7.392 0 0 1-2.863-4.198l-.014-.058.053-.029c1.876-1.03 2.389-1.798 2.389-3.573 0-1.398-1.23-3.442-2.303-5.067l-.018-.028a16.681 16.681 0 0 1-2.494-6.747l-.085-.581h-1.252a1.09 1.09 0 0 1-1.1-1.077v-2.97c.007-.601.499-1.083 1.1-1.077h1.139V14.17a9.653 9.653 0 0 1 9.748-9.533h.694V1.38l.086.007a9.666 9.666 0 0 1 8.968 9.503v6.369h1.14a1.09 1.09 0 0 1 1.1 1.077v2.97a1.09 1.09 0 0 1-1.1 1.077h-1.253l-.086.581a16.466 16.466 0 0 1-2.752 7.125c-.77 1.085-2.061 3.142-2.061 4.717 0 1.819.531 2.6 2.478 3.64l.054.03-.014.06z"/>
</svg>
