<svg xmlns="http://www.w3.org/2000/svg" width="588" height="394" viewBox="0 0 588 394">
    <g fill="none" fill-rule="evenodd">
        <path fill="#525356" d="M52.4.5h1v376.1h-1z" opacity=".7"/>
        <path fill="#525356" d="M45.8 367.9h540.3v1H45.8z" opacity=".7"/>
        <path fill="#525356" d="M45.8 7.7h540.5v1H45.8zM45.8 79.7h541.9v1H45.8zM45.8 151.7h540.5v1H45.8zM45.8 223.8h540.5v1H45.8zM45.8 295.8h540.5v1H45.8z" opacity=".1"/>
        <path fill="#525356" d="M100.6 291.9h72v77h-72zM188.6 247h72v122h-72zM276.6 224.3h72v144.6h-72zM420.9 94.9h72v274h-72z"/>
        <path fill="#1672BC" d="M508.8 68.9h72v300h-72z"/>
        <g fill="#1672BC" fill-rule="nonzero">
            <path d="M524.4 51.1c0-1.7.9-2.8 2.4-3.4-1.1-.6-1.9-1.5-1.9-3.1 0-2.2 2.1-3.9 5.3-3.9 3.2 0 5.3 1.7 5.3 3.9 0 1.5-.8 2.5-1.9 3.1 1.4.7 2.4 1.6 2.4 3.3 0 2.5-2.4 4.1-5.8 4.1-3.4.1-5.8-1.5-5.8-4zm7.8-.3c0-1-.8-1.6-2-1.6s-2 .6-2 1.5c0 .8.7 1.6 2 1.6 1.2 0 2-.7 2-1.5zm-.3-5.7c0-.8-.7-1.5-1.7-1.5-1.1 0-1.7.7-1.7 1.5 0 .9.7 1.5 1.7 1.5 1 .1 1.7-.6 1.7-1.5zM544.1 52.3h-6.8l-.6-2.7L544 41h3.9v8.5h1.8v2.9h-1.8V55h-3.7v-2.7h-.1zm0-2.9v-4l-3.4 4h3.4zM550.9 44.6c0-2.1 1.4-3.8 3.6-3.8s3.6 1.7 3.6 3.7-1.5 3.7-3.6 3.7c-2.1.1-3.6-1.6-3.6-3.6zm12.4-3.6h2.7l-6 7.6-4.8 6.4h-2.7l5.9-7.5 4.9-6.5zm-9.9 3.5c0 .9.5 1.6 1.2 1.6s1.2-.7 1.2-1.5c0-.9-.5-1.6-1.2-1.6-.8 0-1.2.6-1.2 1.5zm6.9 7c0-2.1 1.4-3.8 3.6-3.8s3.6 1.7 3.6 3.7-1.5 3.8-3.6 3.8-3.6-1.7-3.6-3.7zm4.8 0c0-.9-.5-1.6-1.2-1.6s-1.2.7-1.2 1.6c0 .9.5 1.6 1.2 1.6.7-.1 1.2-.8 1.2-1.6z"/>
        </g>
        <g fill="#525356">
            <path d="M447.3 72.1h-7.7v-1.4h9.5v1.2l-6.4 12.8H441zM449.7 82.7l1-1.1c1.2 1.2 2.6 1.9 4 1.9 2 0 3.4-1.3 3.4-3.1 0-1.7-1.4-2.9-3.5-2.9-1.2 0-2.1.4-2.9.8l-1.1-.7.4-6.8h8.1v1.5h-6.7l-.3 4.5c.8-.4 1.6-.6 2.8-.6 2.7 0 4.8 1.6 4.8 4.3 0 2.7-2.1 4.6-5 4.6-2-.2-3.7-1.2-5-2.4z"/>
            <path fill-rule="nonzero" d="M461 74.1c0-1.9 1.3-3.6 3.2-3.6 1.9 0 3.1 1.7 3.1 3.5 0 1.9-1.3 3.6-3.2 3.6-1.9 0-3.1-1.6-3.1-3.5zm1.3-.1c0 1.4.8 2.5 1.9 2.5 1.1 0 1.8-1.1 1.8-2.4 0-1.4-.8-2.5-1.9-2.5-1.1 0-1.8 1.1-1.8 2.4zm10.4-3.4h1.4l-5.4 7.3-4.9 6.7h-1.4l5.4-7.3 4.9-6.7zm-3.5 10.7c0-1.9 1.3-3.6 3.2-3.6 1.9 0 3.1 1.7 3.1 3.5 0 1.9-1.3 3.6-3.2 3.6-1.8 0-3.1-1.7-3.1-3.5zm5 0c0-1.4-.8-2.5-1.9-2.5-1.1 0-1.8 1.1-1.8 2.4 0 1.4.8 2.5 1.9 2.5 1.1 0 1.8-1.1 1.8-2.4z"/>
        </g>
        <g fill="#525356">
            <path d="M121.1 280.4l5.1-4.5c2.1-1.9 2.9-3 2.9-4.4 0-1.6-1.3-2.7-2.8-2.7-1.6 0-2.6.8-3.8 2.4l-1.2-.8c1.3-1.9 2.6-3 5-3 2.5 0 4.3 1.7 4.3 4 0 2-1.1 3.3-3.5 5.4l-3.7 3.3h7.4v1.4H121v-1.1h.1zM132 280.4l5.1-4.5c2.1-1.9 2.9-3 2.9-4.4 0-1.6-1.3-2.7-2.8-2.7-1.6 0-2.6.8-3.8 2.4l-1.2-.8c1.3-1.9 2.6-3 5-3 2.5 0 4.3 1.7 4.3 4 0 2-1.1 3.3-3.5 5.4l-3.7 3.3h7.4v1.4H132v-1.1z"/>
            <path fill-rule="nonzero" d="M143.1 271c0-1.9 1.3-3.6 3.2-3.6 1.9 0 3.1 1.7 3.1 3.5 0 1.9-1.3 3.6-3.2 3.6-1.9 0-3.1-1.6-3.1-3.5zm1.3 0c0 1.4.8 2.5 1.9 2.5 1.1 0 1.8-1.1 1.8-2.4 0-1.4-.8-2.5-1.9-2.5-1-.1-1.8 1-1.8 2.4zm10.4-3.4h1.4l-5.4 7.3-4.9 6.7h-1.4l5.4-7.3 4.9-6.7zm-3.4 10.6c0-1.9 1.3-3.6 3.2-3.6 1.9 0 3.1 1.7 3.1 3.5 0 1.9-1.3 3.6-3.2 3.6-1.9.1-3.1-1.6-3.1-3.5zm5 0c0-1.4-.8-2.5-1.9-2.5-1.1 0-1.8 1.1-1.8 2.4 0 1.4.8 2.5 1.9 2.5 1 0 1.8-1 1.8-2.4z"/>
        </g>
        <g fill="#525356">
            <path d="M206.2 234.4l1.1-1c1.1 1.3 2.4 2.1 4.1 2.1 1.7 0 3.1-1.1 3.1-2.7 0-1.7-1.6-2.7-3.9-2.7h-.9l-.3-.9 4.4-5H207v-1.4h8.9v1.2l-4.4 4.9c2.4.2 4.6 1.4 4.6 3.9s-2.1 4.2-4.7 4.2c-2.3-.1-4.1-1.1-5.2-2.6z"/>
            <path fill-rule="nonzero" d="M225.1 233.4h-7.4l-.4-1.1 7.9-9.6h1.4v9.5h2.2v1.3h-2.2v3.3h-1.5v-3.4zm0-1.4v-7.2l-5.9 7.2h5.9zM229.9 226.1c0-1.9 1.3-3.6 3.2-3.6 1.9 0 3.1 1.7 3.1 3.5 0 1.9-1.3 3.6-3.2 3.6-1.9 0-3.1-1.6-3.1-3.5zm1.4 0c0 1.4.8 2.5 1.9 2.5 1.1 0 1.8-1.1 1.8-2.4 0-1.4-.8-2.5-1.9-2.5-1.1-.1-1.8 1-1.8 2.4zm10.3-3.4h1.4l-5.4 7.3-4.9 6.7h-1.4l5.4-7.3 4.9-6.7zm-3.4 10.6c0-1.9 1.3-3.6 3.2-3.6 1.9 0 3.1 1.7 3.1 3.5 0 1.9-1.3 3.6-3.2 3.6-1.9 0-3.1-1.6-3.1-3.5zm5 0c0-1.4-.8-2.5-1.9-2.5-1.1 0-1.8 1.1-1.8 2.4 0 1.4.8 2.5 1.9 2.5 1.1 0 1.8-1.1 1.8-2.4z"/>
        </g>
        <g fill="#525356" fill-rule="nonzero">
            <path d="M301.2 210.5h-7.4l-.4-1.1 7.9-9.6h1.4v9.5h2.2v1.3h-2.2v3.3h-1.5v-3.4zm0-1.3V202l-5.9 7.2h5.9zM306.2 206.9c0-4 2.3-7.3 5.9-7.3 3.6 0 5.9 3.3 5.9 7.2 0 3.9-2.3 7.2-5.9 7.2-3.6.1-5.9-3.2-5.9-7.1zm10.2 0c0-3.1-1.7-5.8-4.3-5.8-2.6 0-4.3 2.7-4.3 5.8 0 3.1 1.7 5.8 4.3 5.8 2.6 0 4.3-2.7 4.3-5.8zM319.3 203.3c0-1.9 1.3-3.6 3.2-3.6 1.9 0 3.1 1.7 3.1 3.5 0 1.9-1.3 3.6-3.2 3.6-1.9 0-3.1-1.6-3.1-3.5zm1.3-.1c0 1.4.8 2.5 1.9 2.5 1.1 0 1.8-1.1 1.8-2.4 0-1.4-.8-2.5-1.9-2.5-1.1 0-1.8 1.1-1.8 2.4zm10.4-3.3h1.4l-5.4 7.3-4.9 6.7h-1.4l5.4-7.3 4.9-6.7zm-3.5 10.6c0-1.9 1.3-3.6 3.2-3.6 1.9 0 3.1 1.7 3.1 3.5 0 1.9-1.3 3.6-3.2 3.6-1.8 0-3.1-1.6-3.1-3.5zm5 0c0-1.4-.8-2.5-1.9-2.5-1.1 0-1.8 1.1-1.8 2.4 0 1.4.8 2.5 1.9 2.5 1.1 0 1.8-1.1 1.8-2.4z"/>
        </g>
        <g fill="#525356">
            <path d="M9.6 291.8c1.5 0 2.6 1 2.6 2.4 0 1-.4 1.7-1.9 3.3l-1.9 2v.1h4v.9H6.8v-.7l2.9-3.1c1.1-1.2 1.4-1.6 1.4-2.3 0-.9-.6-1.6-1.6-1.6s-1.7.7-1.7 1.7h-1c0-1.6 1.2-2.7 2.8-2.7z"/>
            <path fill-rule="nonzero" d="M13.9 296.3c0-2.8 1.1-4.4 3-4.4s3 1.6 3 4.4c0 2.8-1.1 4.4-3 4.4s-3-1.6-3-4.4zm5 0c0-2.2-.7-3.5-1.9-3.5s-2 1.2-2 3.5.7 3.5 1.9 3.5 2-1.3 2-3.5zM21.1 293.9c0-1.2.7-2 1.8-2s1.8.8 1.8 2-.7 2-1.8 2-1.8-.8-1.8-2zm2.8 0c0-.8-.3-1.2-.9-1.2-.6 0-.9.5-.9 1.2 0 .8.3 1.2.9 1.2.6 0 .9-.4.9-1.2zm-1.5 6.6l5.8-8.5h1l-5.8 8.5h-1zm4.3-1.9c0-1.2.7-2 1.8-2s1.8.8 1.8 2-.7 2-1.8 2-1.8-.8-1.8-2zm2.8 0c0-.8-.3-1.2-.9-1.2-.6 0-.9.5-.9 1.2 0 .8.3 1.2.9 1.2.6 0 .9-.4.9-1.2z"/>
        </g>
        <g fill="#525356" fill-rule="nonzero">
            <path d="M10.2 226.8H6.1v-1c1.1-1.9 2.4-4 3.6-5.7h1.5v5.8h1.2v.9h-1.2v1.8h-1v-1.8zm-3-.9h3v-4.8h-.1c-.9 1.4-2 3.1-2.9 4.8zM13.9 224.3c0-2.8 1.1-4.4 3-4.4s3 1.6 3 4.4c0 2.8-1.1 4.4-3 4.4s-3-1.6-3-4.4zm5 0c0-2.2-.7-3.5-1.9-3.5s-1.9 1.3-1.9 3.5c0 2.3.7 3.5 1.9 3.5s1.9-1.2 1.9-3.5zM21.1 221.9c0-1.2.7-2 1.8-2s1.8.8 1.8 2-.7 2-1.8 2-1.8-.7-1.8-2zm2.8 0c0-.8-.3-1.2-.9-1.2-.6 0-.9.5-.9 1.2 0 .8.3 1.2.9 1.2.6 0 .9-.4.9-1.2zm-1.5 6.6l5.8-8.5h1l-5.8 8.5h-1zm4.3-1.9c0-1.2.7-2 1.8-2s1.8.8 1.8 2-.7 2-1.8 2-1.8-.7-1.8-2zm2.8 0c0-.8-.3-1.2-.9-1.2-.6 0-.9.5-.9 1.2 0 .8.3 1.2.9 1.2.6 0 .9-.4.9-1.2z"/>
        </g>
        <g fill="#525356">
            <path fill-rule="nonzero" d="M114.9 384.7c2.5 0 4 1.6 4 4.2 0 2.7-1.5 4.2-4 4.2H112v-8.5h2.9v.1zm-1.8 7.5h1.8c1.9 0 3-1.2 3-3.3 0-2.1-1.1-3.3-3-3.3h-1.8v6.6zM125.5 391.5c-.3 1.1-1.3 1.7-2.7 1.7-1.8 0-2.8-1.3-2.8-3.3 0-2 1.1-3.3 2.8-3.3 1.7 0 2.7 1.2 2.7 3.2v.4H121c.1 1.2.8 2 1.8 2 .8 0 1.4-.3 1.6-.9h1.1v.2zm-4.4-2h3.5c0-1.1-.7-1.9-1.7-1.9-1.1 0-1.8.8-1.8 1.9z"/>
            <path d="M131.1 388.8c-.2-.6-.7-1.1-1.6-1.1-1.1 0-1.9.9-1.9 2.3 0 1.5.7 2.4 1.9 2.4.8 0 1.4-.4 1.6-1.1h1c-.2 1.2-1.1 2-2.6 2-1.8 0-2.9-1.3-2.9-3.3 0-2 1.1-3.2 2.9-3.2 1.5 0 2.5.9 2.6 2h-1zM139.1 384.5c1.5 0 2.6 1 2.6 2.4 0 1-.4 1.7-1.9 3.3l-1.9 2v.1h4v.9h-5.5v-.7l2.9-3.1c1.1-1.2 1.4-1.6 1.4-2.3 0-.9-.6-1.6-1.6-1.6s-1.7.7-1.7 1.7h-1c-.1-1.6 1.1-2.7 2.7-2.7z"/>
            <path fill-rule="nonzero" d="M143.2 388.9c0-2.8 1.1-4.4 3-4.4s3 1.6 3 4.4c0 2.8-1.1 4.4-3 4.4-1.9.1-3-1.5-3-4.4zm4.9 0c0-2.2-.7-3.5-1.9-3.5s-1.9 1.3-1.9 3.5c0 2.3.7 3.5 1.9 3.5s1.9-1.2 1.9-3.5z"/>
            <path d="M152.6 385.9l-2.2 1.6v-1.1l2.2-1.6h1v8.5h-1.1v-7.4zM157.7 388.4h1c1 0 1.7-.6 1.7-1.5 0-.8-.6-1.4-1.6-1.4s-1.7.5-1.8 1.5h-1c.1-1.4 1.2-2.4 2.9-2.4s2.6 1.1 2.6 2.2c0 1-.6 1.7-1.5 1.9v.1c1.1.2 1.8.9 1.8 2.1 0 1.4-1.3 2.5-3 2.5s-2.9-.9-3-2.4h1c.1.9.9 1.5 1.9 1.5 1.1 0 1.9-.6 1.9-1.6s-.7-1.6-1.9-1.6h-1v-.9z"/>
        </g>
        <g fill="#525356">
            <path fill-rule="nonzero" d="M202.8 384.8c2.5 0 4 1.6 4 4.2 0 2.7-1.5 4.2-4 4.2h-2.9v-8.5h2.9v.1zm-1.8 7.5h1.8c1.9 0 3-1.2 3-3.3 0-2.1-1.1-3.3-3-3.3H201v6.6zM213.4 391.6c-.3 1.1-1.3 1.7-2.7 1.7-1.8 0-2.8-1.3-2.8-3.3 0-2 1.1-3.3 2.8-3.3 1.7 0 2.7 1.2 2.7 3.2v.4H209c.1 1.2.8 2 1.8 2 .8 0 1.4-.3 1.6-.9h1v.2zm-4.4-2h3.5c0-1.1-.7-1.9-1.7-1.9s-1.8.8-1.8 1.9z"/>
            <path d="M219 388.9c-.2-.6-.7-1.1-1.6-1.1-1.1 0-1.9.9-1.9 2.3 0 1.5.7 2.4 1.9 2.4.8 0 1.4-.4 1.6-1.1h1c-.2 1.2-1.1 2-2.6 2-1.8 0-2.9-1.3-2.9-3.3 0-2 1.1-3.2 2.9-3.2 1.5 0 2.5.9 2.6 2h-1zM227 384.6c1.5 0 2.6 1 2.6 2.4 0 1-.4 1.7-1.9 3.3l-1.9 2v.1h4v.9h-5.5v-.7l2.9-3.1c1.1-1.2 1.4-1.6 1.4-2.3 0-.9-.6-1.6-1.6-1.6s-1.7.7-1.7 1.7h-1c-.1-1.6 1.1-2.7 2.7-2.7z"/>
            <path fill-rule="nonzero" d="M231.1 389c0-2.8 1.1-4.4 3-4.4s3 1.6 3 4.4c0 2.8-1.1 4.4-3 4.4-1.9.1-3-1.5-3-4.4zm4.9 0c0-2.2-.7-3.5-1.9-3.5s-1.9 1.3-1.9 3.5c0 2.3.7 3.5 1.9 3.5s1.9-1.2 1.9-3.5z"/>
            <path d="M240.5 386l-2.2 1.6v-1.1l2.2-1.6h1v8.5h-1.1V386z"/>
            <path fill-rule="nonzero" d="M247.7 391.5h-4.1v-1c1.1-1.9 2.4-4 3.6-5.7h1.5v5.8h1.2v.9h-1.2v1.8h-1v-1.8zm-3.1-.9h3v-4.8h-.1c-.9 1.4-2 3.2-2.9 4.8z"/>
        </g>
        <g fill="#525356">
            <path d="M289.5 391.2c0 .7.6 1.2 1.4 1.2.9 0 1.4-.6 1.4-1.6v-6.1h1.1v6.1c0 1.6-.9 2.6-2.5 2.6-1.4 0-2.4-.9-2.4-2.2h1z"/>
            <path fill-rule="nonzero" d="M294.7 391.4c0-1.1.8-1.8 2.3-1.9l1.8-.1v-.6c0-.8-.5-1.2-1.4-1.2-.8 0-1.3.3-1.4.8h-1c.1-1 1.1-1.7 2.5-1.7 1.5 0 2.4.8 2.4 2.1v4.3h-1v-.9h-.1c-.4.7-1.1 1-1.9 1-1.3.1-2.2-.6-2.2-1.8zm4.2-.6v-.6l-1.7.1c-1 .1-1.4.4-1.4 1s.5 1 1.3 1c1 .1 1.8-.6 1.8-1.5z"/>
            <path d="M301.4 386.9h1v1h.1c.3-.7.9-1.1 1.9-1.1 1.4 0 2.2.8 2.2 2.3v4.1h-1v-3.8c0-1.1-.5-1.7-1.5-1.7s-1.7.7-1.7 1.8v3.7h-1v-6.3zM313.9 384.5c1.5 0 2.6 1 2.6 2.4 0 1-.4 1.7-1.9 3.3l-1.9 2v.1h4v.9h-5.5v-.7l2.9-3.1c1.1-1.2 1.4-1.6 1.4-2.3 0-.9-.6-1.6-1.6-1.6s-1.7.7-1.7 1.7h-1c0-1.6 1.1-2.7 2.7-2.7z"/>
            <path fill-rule="nonzero" d="M318 388.9c0-2.8 1.1-4.4 3-4.4s3 1.6 3 4.4c0 2.8-1.1 4.4-3 4.4-1.9.1-3-1.5-3-4.4zm4.9 0c0-2.2-.7-3.5-1.9-3.5s-1.9 1.3-1.9 3.5c0 2.3.7 3.5 1.9 3.5s1.9-1.2 1.9-3.5z"/>
            <path d="M327.4 385.9l-2.2 1.6v-1.1l2.2-1.6h1v8.5h-1.1v-7.4z"/>
            <path fill-rule="nonzero" d="M330.5 389.1c0-2.9 1.3-4.6 3.3-4.6 1.5 0 2.6.8 2.8 2.2h-1.1c-.2-.8-.8-1.2-1.7-1.2-1.4 0-2.2 1.2-2.3 3.5h.1c.4-.8 1.2-1.3 2.2-1.3 1.6 0 2.8 1.2 2.8 2.8 0 1.7-1.2 2.9-3 2.9-1.7 0-3.1-1.5-3.1-4.3zm5.1 1.4c0-1.2-.8-2-1.9-2-1.1 0-1.9.8-1.9 1.9 0 1.1.8 2 1.9 2 1.1 0 1.9-.8 1.9-1.9z"/>
        </g>
        <g fill="#525356">
            <path fill-rule="nonzero" d="M441.1 388.9c0 2.7-1.5 4.4-3.9 4.4s-3.9-1.7-3.9-4.4 1.5-4.4 3.9-4.4 3.9 1.7 3.9 4.4zm-6.7 0c0 2.1 1 3.5 2.8 3.5 1.7 0 2.8-1.4 2.8-3.5s-1.1-3.5-2.8-3.5c-1.7.1-2.8 1.4-2.8 3.5z"/>
            <path d="M446.7 388.8c-.2-.6-.7-1.1-1.6-1.1-1.1 0-1.9.9-1.9 2.3 0 1.5.7 2.4 1.9 2.4.8 0 1.4-.4 1.6-1.1h1c-.2 1.2-1.1 2-2.6 2-1.8 0-2.9-1.3-2.9-3.3 0-2 1.1-3.2 2.9-3.2 1.5 0 2.5.9 2.6 2h-1zM450.4 385.2v1.6h1.4v.8h-1.4v3.6c0 .7.3 1.1.9 1.1h.5v.8c-.2 0-.4.1-.6.1-1.3 0-1.8-.5-1.8-1.7v-3.8h-1v-.8h1v-1.6h1v-.1zM458.9 384.5c1.5 0 2.6 1 2.6 2.4 0 1-.4 1.7-1.9 3.3l-1.9 2v.1h4v.9h-5.5v-.7l2.9-3.1c1.1-1.2 1.4-1.6 1.4-2.3 0-.9-.6-1.6-1.6-1.6s-1.7.7-1.7 1.7h-1c-.1-1.6 1-2.7 2.7-2.7z"/>
            <path fill-rule="nonzero" d="M462.9 388.9c0-2.8 1.1-4.4 3-4.4s3 1.6 3 4.4c0 2.8-1.1 4.4-3 4.4-1.9.1-3-1.5-3-4.4zm5 0c0-2.2-.7-3.5-1.9-3.5s-1.9 1.3-1.9 3.5c0 2.3.7 3.5 1.9 3.5s1.9-1.2 1.9-3.5z"/>
            <path d="M472.4 385.9l-2.2 1.6v-1.1l2.2-1.6h1v8.5h-1.1v-7.4zM479.8 385.7l-4.5-.1v-.9h5.6v1l-3.8 7.5H476z"/>
        </g>
        <g fill="#1672BC">
            <path fill-rule="nonzero" d="M527.3 388.2c0 2.7-1.6 4.4-4.1 4.4-2.5 0-4.1-1.7-4.1-4.4s1.6-4.4 4.1-4.4c2.5 0 4.1 1.7 4.1 4.4zm-6.3 0c0 1.8.9 2.9 2.3 2.9s2.3-1.1 2.3-2.9c0-1.8-.9-2.9-2.3-2.9s-2.3 1.2-2.3 2.9z"/>
            <path d="M532.7 388.3c-.1-.6-.6-1-1.3-1-.9 0-1.4.7-1.4 2s.5 2 1.4 2c.7 0 1.2-.3 1.3-1h1.6c-.1 1.4-1.2 2.4-2.9 2.4-2 0-3.2-1.2-3.2-3.4 0-2.1 1.1-3.4 3.2-3.4 1.7 0 2.7.9 2.9 2.4h-1.6zM537.5 384.5v1.6h1.3v1.3h-1.3v2.9c0 .6.3.8.8.8h.5v1.3c-.2 0-.5.1-.9.1-1.6 0-2.2-.5-2.2-1.8v-3.3h-1v-1.3h1v-1.6h1.8zM545.8 383.8c1.8 0 2.9 1 2.9 2.5 0 1-.4 1.7-1.8 3l-1.8 1.6v.1h3.7v1.5h-6.1v-1.2l3-2.8c1.1-1 1.3-1.4 1.3-2 0-.7-.5-1.2-1.3-1.2-.9 0-1.4.6-1.4 1.4h-1.6c0-1.8 1.3-2.9 3.1-2.9z"/>
            <path fill-rule="nonzero" d="M550.1 388.2c0-2.8 1.3-4.4 3.4-4.4 2.1 0 3.4 1.6 3.4 4.4 0 2.8-1.3 4.5-3.4 4.5-2.1 0-3.4-1.7-3.4-4.5zm4.9 0c0-2-.6-3-1.6-3s-1.6 1-1.6 3 .6 3 1.6 3 1.6-1 1.6-3z"/>
            <path d="M560.2 385.7h-.1l-2.1 1.4v-1.6l2.2-1.5h1.8v8.5h-1.8z"/>
            <path fill-rule="nonzero" d="M563.9 390.2c0-1.1.7-1.9 1.9-2.2v-.1c-.9-.2-1.5-.9-1.5-1.8 0-1.3 1.3-2.3 3.1-2.3s3.1 1 3.1 2.3c0 .9-.6 1.6-1.5 1.8v.1c1.1.2 1.9 1.1 1.9 2.1 0 1.5-1.4 2.5-3.4 2.5s-3.6-.9-3.6-2.4zm5-.2c0-.8-.6-1.3-1.6-1.3-.9 0-1.6.5-1.6 1.3s.6 1.3 1.6 1.3c.9 0 1.6-.5 1.6-1.3zm-.3-3.7c0-.7-.5-1.2-1.3-1.2s-1.3.5-1.3 1.2.5 1.2 1.3 1.2c.8-.1 1.3-.5 1.3-1.2z"/>
        </g>
        <g fill="#525356" fill-rule="nonzero">
            <path d="M6.3 152.5c0-2.9 1.3-4.6 3.3-4.6 1.5 0 2.6.8 2.8 2.2h-1.1c-.2-.8-.8-1.2-1.7-1.2-1.4 0-2.2 1.2-2.3 3.5h.1c.4-.8 1.2-1.3 2.2-1.3 1.6 0 2.8 1.2 2.8 2.8 0 1.7-1.2 2.9-3 2.9s-3.1-1.4-3.1-4.3zm5 1.4c0-1.2-.8-2-1.9-2-1.1 0-1.9.8-1.9 1.9 0 1.1.8 2 1.9 2 1.1 0 1.9-.8 1.9-1.9zM13.9 152.4c0-2.8 1.1-4.4 3-4.4s3 1.6 3 4.4c0 2.8-1.1 4.4-3 4.4s-3-1.6-3-4.4zm5 0c0-2.2-.7-3.5-1.9-3.5s-1.9 1.3-1.9 3.5c0 2.3.7 3.5 1.9 3.5s1.9-1.3 1.9-3.5zM21.1 150c0-1.2.7-2 1.8-2s1.8.8 1.8 2-.7 2-1.8 2-1.8-.8-1.8-2zm2.8 0c0-.8-.3-1.2-.9-1.2-.6 0-.9.5-.9 1.2 0 .8.3 1.2.9 1.2.6 0 .9-.5.9-1.2zm-1.5 6.6l5.8-8.5h1l-5.8 8.5h-1zm4.3-1.9c0-1.2.7-2 1.8-2s1.8.8 1.8 2-.7 2-1.8 2-1.8-.8-1.8-2zm2.8 0c0-.8-.3-1.2-.9-1.2-.6 0-.9.5-.9 1.2 0 .8.3 1.2.9 1.2.6 0 .9-.4.9-1.2z"/>
        </g>
        <g fill="#525356" fill-rule="nonzero">
            <path d="M6.3 82.4c0-1.1.7-2 1.8-2.2v-.1c-.9-.2-1.4-1-1.4-1.9 0-1.3 1.1-2.3 2.7-2.3s2.7.9 2.7 2.3c0 .9-.5 1.6-1.4 1.9v.1c1.1.2 1.8 1.1 1.8 2.2 0 1.4-1.3 2.5-3 2.5s-3.2-1.1-3.2-2.5zm5-.1c0-1-.8-1.6-2-1.6s-2 .7-2 1.6c0 .9.8 1.6 2 1.6s2-.6 2-1.6zm-.3-4c0-.9-.7-1.5-1.7-1.5s-1.7.6-1.7 1.5.7 1.4 1.7 1.4 1.7-.5 1.7-1.4zM13.9 80.4c0-2.8 1.1-4.4 3-4.4s3 1.6 3 4.4c0 2.8-1.1 4.4-3 4.4s-3-1.6-3-4.4zm5 0c0-2.2-.7-3.5-1.9-3.5s-2 1.3-2 3.5c0 2.3.7 3.5 1.9 3.5s2-1.2 2-3.5zM21.1 78c0-1.2.7-2 1.8-2s1.8.8 1.8 2-.7 2-1.8 2-1.8-.7-1.8-2zm2.8 0c0-.8-.3-1.2-.9-1.2-.6 0-.9.5-.9 1.2 0 .8.3 1.2.9 1.2.6 0 .9-.4.9-1.2zm-1.5 6.6l5.8-8.5h1l-5.8 8.5h-1zm4.3-1.9c0-1.2.7-2 1.8-2s1.8.8 1.8 2-.7 2-1.8 2-1.8-.7-1.8-2zm2.8 0c0-.8-.3-1.2-.9-1.2-.6 0-.9.5-.9 1.2 0 .8.3 1.2.9 1.2.6 0 .9-.4.9-1.2z"/>
        </g>
        <g fill="#525356">
            <path d="M3 5.4L.7 7V5.9L3 4.2h1v8.5H3z"/>
            <path fill-rule="nonzero" d="M6.4 8.5c0-2.8 1.1-4.4 3-4.4s3 1.6 3 4.4c0 2.8-1.1 4.4-3 4.4s-3-1.6-3-4.4zm4.9 0c0-2.2-.7-3.5-1.9-3.5s-2 1.2-2 3.5.7 3.5 1.9 3.5 2-1.3 2-3.5zM13.9 8.5c0-2.8 1.1-4.4 3-4.4s3 1.6 3 4.4c0 2.8-1.1 4.4-3 4.4s-3-1.6-3-4.4zm5 0c0-2.2-.7-3.5-1.9-3.5s-2 1.2-2 3.5.7 3.5 1.9 3.5 2-1.3 2-3.5zM21.1 6.1c0-1.2.7-2 1.8-2s1.8.8 1.8 2-.7 2-1.8 2-1.8-.8-1.8-2zm2.8 0c0-.8-.3-1.2-.9-1.2-.6 0-.9.5-.9 1.2 0 .8.3 1.2.9 1.2.6 0 .9-.5.9-1.2zm-1.5 6.6l5.8-8.5h1l-5.8 8.5h-1zm4.3-1.9c0-1.2.7-2 1.8-2s1.8.8 1.8 2-.7 2-1.8 2-1.8-.8-1.8-2zm2.8 0c0-.8-.3-1.2-.9-1.2-.6 0-.9.4-.9 1.2 0 .8.3 1.2.9 1.2.6 0 .9-.4.9-1.2z"/>
        </g>
        <g fill="#525356" fill-rule="nonzero">
            <path d="M13.9 368.2c0-2.8 1.1-4.4 3-4.4s3 1.6 3 4.4c0 2.8-1.1 4.4-3 4.4-1.9.1-3-1.6-3-4.4zm5 0c0-2.2-.7-3.5-1.9-3.5s-2 1.3-2 3.5c0 2.3.7 3.5 1.9 3.5s2-1.2 2-3.5zM21.1 365.8c0-1.2.7-2 1.8-2s1.8.8 1.8 2-.7 2-1.8 2-1.8-.7-1.8-2zm2.8 0c0-.8-.3-1.2-.9-1.2-.6 0-.9.5-.9 1.2 0 .8.3 1.2.9 1.2.6 0 .9-.4.9-1.2zm-1.5 6.7l5.8-8.5h1l-5.8 8.5h-1zm4.3-2c0-1.2.7-2 1.8-2s1.8.8 1.8 2-.7 2-1.8 2-1.8-.7-1.8-2zm2.8.1c0-.8-.3-1.2-.9-1.2-.6 0-.9.5-.9 1.2 0 .8.3 1.2.9 1.2.6 0 .9-.5.9-1.2z"/>
        </g>
    </g>
</svg>
