<?xml version="1.0" encoding="utf-8"?>
<!-- Generator: Adobe Illustrator 21.0.2, SVG Export Plug-In . SVG Version: 6.00 Build 0)  -->
<svg version="1.1" id="Layer_1" xmlns="http://www.w3.org/2000/svg" xmlns:xlink="http://www.w3.org/1999/xlink" x="0px" y="0px"
	 viewBox="0 0 960 1081" style="enable-background:new 0 0 960 1081;" xml:space="preserve">
<style type="text/css">
	.st0{fill:none;}
	.st1{fill:#1672BC;}
	.st2{fill:#FFD43B;}
</style>
<polyline class="st0" points="0,785.4 0,0 960,0 960,1082.2 0,1082.2 0,785.4 "/>
<path class="st1" d="M816-0.3c-13.3,48-32,91.2-57.3,132c-22.5,36.3-49.8,69.9-83.3,102.6c-62.2,60.8-137,109.2-209.4,156
	c-39.3,25.4-79.2,51.2-117.3,79.2c37.5-28.4,76.6-54.6,115.1-80.4c70.5-47.2,143.5-96.1,203.8-156.7c32.5-32.6,58.9-66,80.7-102
	C772.7,90,790.8,47.4,803.5,0l-1.9-0.5c-12.6,47.2-30.6,89.6-55,129.9c-21.7,35.9-48,69.1-80.4,101.6
	C606,291.5,533.1,340.2,462.7,387.4c-39,26.1-78.6,52.6-116.5,81.4c37.2-29.1,75.9-56,114.2-82.5c68.7-47.6,139.7-96.8,198.1-157.1
	c31.4-32.4,56.9-65.5,77.8-101c23.5-39.8,40.8-81.8,52.8-128.3l-1.9-0.5c-12,46.3-29.2,88.1-52.6,127.8
	c-20.9,35.4-46.2,68.3-77.6,100.6C599,288.3,528,337.5,459.4,385c-38.6,26.8-77.7,53.9-115.3,83.4c36.8-29.8,75.1-57.2,112.8-84.3
	c70-50.2,136.1-97.7,192.5-157.6c30.4-32.2,54.9-65,75-100c22.5-39.3,39.1-80.6,50.5-126.2l-1.8-0.5
	c-11.4,45.5-27.8,86.6-50.3,125.7c-20.1,34.9-44.5,67.6-74.8,99.7C591.7,285,525.7,332.4,455.8,382.6c-38.1,27.3-76.7,55-113.8,85.1
	c36.3-30.3,74-58.3,111-85.9c68.1-50.7,132.5-98.6,187.1-158.3c29.3-32.1,53-64.5,72.3-99.1C734,85.6,749.8,45,760.6,0.2l-1.8-0.4
	c-10.8,44.6-26.5,85.1-48,123.8c-19.3,34.5-42.8,66.8-72,98.8c-54.4,59.5-118.7,107.4-186.8,158c-37.4,27.8-75.4,56.1-112,86.7
	c35.7-30.8,72.6-59.3,109-87.3C580.1,278.6,704,183.1,746.3,0.2l-1.7-0.4c-42.2,182.3-165.8,277.6-296.7,378.6
	c-36.7,28.3-73.9,57-109.9,88.1c35.1-31.2,71.1-60,106.6-88.4C571.9,276.2,692.2,179.9,732,0.2l-1.7-0.4
	C690.7,178.9,570.6,275,443.5,376.7c-35.8,28.6-72.1,57.7-107.4,89.2c34.2-31.4,69.2-60.5,103.8-89.2
	c63.1-52.4,122.6-101.9,171.8-160.9c55.3-66.5,89-135,106-215.6L716-0.1c-16.9,80.3-50.5,148.6-105.6,214.8
	c-49.1,58.9-108.6,108.4-171.5,160.7c-34.8,28.9-70,58.2-104.5,89.9c33.2-31.5,67.1-60.7,100.5-89.6
	c61.5-53.1,119.6-103.2,167.1-162.2c53.3-66.2,85.5-134,101.4-213.3l-1.6-0.3C686,79,653.9,146.6,600.8,212.5
	c-47.4,58.8-105.4,108.9-166.9,161.9c-33.6,29-67.7,58.4-101.2,90.2c32.1-31.4,64.7-60.6,96.8-89.4
	c60.1-53.9,116.8-104.8,162.7-163.7c51.4-66,82.2-133.2,96.9-211.4l-1.6-0.3c-14.6,77.9-45.3,144.9-96.5,210.7
	C545.2,269.3,488.5,320.1,428.5,374c-32.3,28.9-65,58.3-97.3,89.9c30.8-31,61.8-60,92.5-88.6C542.5,264.5,645.2,168.7,674.8,0.1
	l-1.5-0.3c-29.5,168.1-132,263.7-250.6,374.3c-25.3,23.6-50.8,47.4-76.3,72.4c20.3-20.8,43.8-44.1,70.9-70.4
	C533.2,263.6,633.3,166.5,660.4,0l-1.5-0.2c-27,165.9-127,262.9-242.7,375.2c-28.3,27.5-58.2,56.5-88.4,88
	c28.2-30.4,56-58.4,82.4-85.1c56.6-57.2,110-111.1,151.6-170.6C608,141.3,634.7,75.4,646,0l-1.5-0.2
	c-11.2,75.1-37.9,140.8-83.9,206.7c-41.5,59.3-94.9,113.3-151.4,170.4c-26.5,26.8-54.4,55-82.8,85.5c26.2-29,51.8-55.9,76.1-81.5
	c55.8-58.7,108.5-114.1,148.8-174c44.7-66.3,70.2-132,80.3-206.8l-1.4-0.2c-10.1,74.5-35.5,140-80.1,206.2
	c-40.3,59.8-92.9,115.2-148.6,173.8c-24.5,25.8-50.4,53-76.7,82.2c23.8-27.2,47.1-52.7,69.2-76.9C507.9,260.5,597.8,162,617.3,0.1
	l-1.4-0.2C596.5,161.3,506.7,259.7,393,384.2c-22.2,24.3-45.5,49.8-69.4,77.1c21-24.7,41.3-47.9,60.8-70.1
	C497.1,262.7,586,161.3,602.9,0.1L601.6,0C584.4,160.7,495.5,262,383,390.3c-19.6,22.3-40.1,45.7-61.2,70.6
	c17.7-21.4,34.8-41.8,51.3-61.3c57.6-68.4,107.4-127.5,145.1-190.2c41.2-68.6,63.4-135.1,70-209.3L586.9,0
	c-6.5,74-28.7,140.3-69.8,208.8c-37.6,62.7-87.4,121.7-145,190.1c-16.6,19.6-33.8,40.1-51.6,61.7c13.7-17.1,27-33.6,39.9-49.4
	c117.2-144.6,202-249.1,213.4-411l-1.2-0.1c-11.4,161.5-96,265.8-213.1,410.3c-13,16-26.4,32.6-40.3,49.9
	c9-11.5,17.7-22.7,26.2-33.6c60.1-76.9,112-143.2,149.3-210c40.2-72.1,60.8-140.8,64.8-216.4l-1.2-0.1
	c-3.9,75.4-24.5,144-64.6,215.9c-37.2,66.7-89.1,133-149.2,209.9c-8.6,11-17.5,22.3-26.5,33.9c3.1-4.1,6.2-8.1,9.2-12.1
	c128-169.3,212.6-281.1,217.9-447.5h-1.2c-5.4,166-89.9,277.8-217.7,446.8c-3.1,4.2-6.3,8.4-9.6,12.6
	c64.2-87.5,115.4-158.2,152.1-227.9c42-79.7,61.1-151.1,62-231.5h-1.1c-0.9,80.3-20,151.5-61.9,231C431,301,379.8,371.9,315.4,459.5
	c58.1-81.4,104.9-150,138.7-215.2c44-85,63.2-160.3,62.3-244.1h-1.1c0.9,83.6-18.3,158.7-62.1,243.6
	c-33.9,65.5-81,134.4-139.5,216.4c51.4-74,93.3-138.5,124-198c23.6-45.9,40.1-88.2,50.5-129.2c11-43.3,15.5-86.7,13.9-132.7h-1
	c1.6,45.9-3,89.3-13.9,132.5c-10.4,41-26.9,83.1-50.4,129c-30,58.3-70.9,121.4-120.9,193.6C439,272.1,496.8,151,487.7,0l-1,0.1
	C495.9,152.8,436.5,275,310,461.9c46.8-71.2,84.4-134.8,111.3-193.5C465.1,173,481.2,90.3,473.3,0l-0.9,0.1
	c7.9,90.1-8.1,172.7-51.9,267.9c-26.6,57.9-63.6,120.7-109.6,190.8c48.6-76,82.1-137.7,105.8-193.7C456.4,171.2,469.4,89.4,459,0
	l-0.9,0.1c10.4,89.3-2.6,170.9-42.2,264.6c-23.4,55.5-56.5,116.5-104.4,191.5c46-74.1,78.3-136.9,100.5-194.5
	c35.7-92.5,45.7-173.2,32.6-261.8L443.8,0c13.1,88.4,3,169-32.6,261.3c-22.8,59-56.2,123.5-104,200.1
	c46.4-76.2,79-142.5,100.1-203.1c31.8-91.1,38.9-170.9,23-258.4L429.5,0c15.9,87.4,8.9,167-22.9,258
	c-21.7,62.1-55.5,130.3-103.7,209c47-78.6,80-148.7,99.8-212c14.7-47,22.7-91,24.4-134.6c1.6-39.6-2.1-79.1-11.2-120.5l-0.8,0.2
	c9.1,41.4,12.7,80.8,11.2,120.4c-1.7,43.5-9.7,87.5-24.4,134.4c-18.9,60.3-49.7,126.8-93.3,200.9c42.5-74.3,72-141.8,89.3-204
	c24.3-87.6,25.5-167.6,3.6-251.8l-0.7,0.2c21.8,84.1,20.7,164-3.6,251.4c-17.4,62.5-47.1,130.4-90,205.1c42-75.1,70.4-144,86-208.3
	c21-86.6,19.1-165.6-6.1-248.5l-0.7,0.2c25.1,82.8,27,161.6,6.1,248.1c-16.1,66.6-46.1,138.3-90.7,216.6
	c10.6-19.1,20.3-37.8,29.1-56c27.5-57.3,46.9-112.4,57.6-163.8c17.8-86,12.8-163.9-15.7-245.2L372.2,0
	c28.5,81.2,33.5,159,15.7,244.8c-10.6,51.3-30,106.4-57.5,163.6c-8.4,17.5-17.7,35.5-27.9,53.8c10.2-18.9,19.5-37.4,27.9-55.6
	c26.5-57.5,44.5-113,53.5-165.1c8-46.5,9.2-90.2,3.6-133.6c-4.7-36.3-14.2-71.7-29-108.2l-0.6,0.2c14.8,36.5,24.2,71.8,28.9,108.1
	c5.6,43.3,4.5,87-3.6,133.4c-9,52-26.9,107.4-53.4,164.9c-8.5,18.5-18,37.3-28.4,56.6c10.5-19.8,19.9-39.3,28.3-58.3
	c25.5-57.8,42.1-113.8,49.4-166.4c11.7-84.3,0.2-162.3-35.1-238.5l-0.5,0.2c35.2,76.1,46.7,154,35,238.2
	c-7.3,52.5-23.9,108.5-49.3,166.2c-8.6,19.4-18.2,39.3-28.9,59.5c10.8-20.8,20.4-41.2,28.9-61.3c24.5-58.1,39.7-114.5,45.3-167.7
	c8.8-84.5-5.8-161.4-44.8-235.2l-0.4,0.2c38.9,73.7,53.5,150.5,44.7,234.9c-5.6,53.1-20.8,109.4-45.2,167.5
	c-8.7,20.7-18.7,41.7-29.8,63.2c11.2-22,21.1-43.7,29.7-65c23.5-58.5,37.4-115.3,41.2-169c6-83.9-12.4-161.9-54.4-231.9l-0.4,0.2
	c42,69.9,60.3,147.8,54.4,231.6c-3.8,53.6-17.6,110.4-41.1,168.8c-8.6,21.5-18.7,43.4-30,65.6c41.7-83.3,64.1-162.9,66.9-237.7
	c1.8-46.3-4.1-90.9-17.3-132.6c-10.8-34-26.5-66.3-46.8-95.9l-0.3,0.2c20.2,29.6,36,61.8,46.7,95.8c13.2,41.7,19,86.3,17.3,132.5
	c-2.8,74.5-25.1,153.7-66.4,236.6c40.9-83.8,61.8-164.1,62.1-239.9c0.2-46.5-7.4-91-22.5-132.4c-12.4-33.8-29.6-65-51.2-92.8
	l-0.3,0.2c21.6,27.8,38.8,59,51.2,92.7c15.2,41.3,22.7,85.8,22.5,132.3c-0.4,79.2-23.2,163.4-67.9,251.4
	c13.8-27.7,25.4-55,34.7-81.9c20.7-59.7,30.4-117.8,28.9-172.8c-3.2-114.5-53.6-188.2-83.4-221.9l-0.2,0.2
	c29.8,33.7,80.2,107.3,83.4,221.7c1.5,55-8.2,113.1-28.9,172.7c-9,25.9-20.1,52.2-33.2,78.9c13.2-27.3,24.2-54.2,32.9-80.8
	c19.8-60.1,28.1-118.7,24.8-174.1c-2.8-47-13.9-91.4-33-131.9C298.7,44.4,274.8,16,258.3-0.5l-0.2,0.2
	c16.6,16.4,40.4,44.8,60.1,86.6c19,40.5,30.1,84.8,32.9,131.8c3.3,55.4-5,113.9-24.8,174c-8.9,27.2-20.3,54.8-33.9,82.7
	c13.7-28.5,24.9-56.8,33.6-84.7c18.8-60.6,25.8-119.6,20.7-175.4c-4.3-47.3-17.2-91.6-38.2-131.7c-21.9-41.7-47.2-68.5-64.6-83.6
	l-0.2,0.2c17.4,15.1,42.7,41.8,64.5,83.5c21,40,33.8,84.3,38.2,131.6c5.1,55.8-1.8,114.8-20.7,175.3c-9,29-20.8,58.5-35.3,88.3
	c14.6-30.4,26.3-60.5,35-90.2c17.9-61.1,23.5-120.5,16.6-176.7c-3-24.7-8.6-48.8-16.4-71.7c-7.1-20.9-16.2-41-27.1-59.7
	c-9.9-17-21.1-32.8-33.5-47c-11.3-13-23.3-24.3-35.6-33.6l-0.1,0.2c12.3,9.3,24.2,20.6,35.5,33.5C277.1,47.2,288.4,63,298.2,80
	c10.8,18.7,19.9,38.7,27,59.7c7.8,22.9,13.3,47,16.3,71.7c6.9,56.2,1.4,115.6-16.6,176.6c-11.9,40.5-29.3,81.7-51.9,123.4
	c-0.4,0.7-0.8,1.4-1.2,2.2c-0.4,0.6-0.7,1.3-1.1,1.9c-1.1,1.9-2.1,3.7-3.2,5.6c-0.8,1.3-1.6,2.6-2.4,4c-0.4,0.7-0.8,1.3-1.2,2
	c-0.4,0.6-0.8,1.3-1.2,1.9c-0.6,1-1.2,1.9-1.8,2.9c-0.7,1.1-1.5,2.3-2.2,3.4c-1.7,2.6-3.4,5.2-5.2,7.8c-0.8,1.1-1.5,2.2-2.3,3.4
	c-0.3,0.4-0.5,0.8-0.8,1.2c-0.7,1-1.4,2-2.1,2.9c-0.6,0.8-1.1,1.6-1.7,2.4c-0.4,0.5-0.8,1.1-1.2,1.6c-0.2,0.3-0.4,0.6-0.6,0.9
	c-0.5,0.7-1,1.3-1.5,2s-1.1,1.4-1.6,2.1c-0.5,0.6-1,1.3-1.5,1.9c-0.3,0.5-0.7,0.9-1,1.4c-0.3,0.4-0.7,0.9-1,1.3
	c-0.3,0.4-0.7,0.9-1,1.3c-1.3,1.6-2.5,3.2-3.8,4.8c-0.4,0.6-0.9,1.1-1.3,1.7c-0.4,0.5-0.8,1-1.2,1.5c-0.2,0.3-0.4,0.5-0.6,0.8
	c-0.4,0.5-0.9,1.1-1.3,1.6s-0.9,1.1-1.3,1.6s-0.9,1.1-1.3,1.6c-0.5,0.6-1,1.2-1.4,1.7s-0.9,1.1-1.3,1.6s-0.8,1-1.3,1.5
	c-10.6,12.5-20.7,25.5-30.1,39.2c-42.2,61.2-90.4,133.1-128.1,211.6C21,924.9,0,1005.7,0,1082.2h2C2,972,45.9,865.4,102.7,766.6
	c-12.3,22.1-24.1,44.9-35,68.3c-41.9,90.1-61.5,171-60,247.3h2c-1.5-76,18.1-156.6,59.9-246.4c13.6-29.3,28.7-57.7,44.4-84.9
	c-15.3,27.3-29.7,55.2-42.5,83.9c-40.7,90.5-59,171.5-56,247.5l1.9-0.1c-3-75.7,15.3-156.4,55.8-246.6
	c13.1-29.2,27.8-57.6,43.4-85.3c-14.9,27.4-29,55.5-41.5,84.4c-39.4,90.9-56.4,171.9-51.9,247.7l1.9-0.1
	c-4.5-75.5,12.5-156.2,51.8-246.9c13.4-30.9,28.6-61,44.7-90.2c-15.5,28.9-30,58.6-42.8,89.2c-38.2,91.3-53.9,172.4-47.9,247.9
	l1.8-0.1c-6-75.2,9.7-156.1,47.7-247.1c13.6-32.5,29.2-64.1,45.7-94.6c-15.9,30.2-30.8,61.5-43.8,93.7
	c-37,91.7-51.3,172.9-43.8,248.2l1.8-0.2c-7.4-75,6.9-155.9,43.7-247.3c13.8-34.1,29.6-67.2,46.6-99.1
	C114.3,767.4,99.1,800.1,86,834c-35.7,92.1-48.7,173.3-39.8,248.4l1.7-0.2c-8.9-74.7,4-155.7,39.7-247.5
	c13.9-35.9,30.2-70.6,47.6-104c-16.7,33.1-32.3,67.5-45.6,103.1c-34.5,92.5-46.2,173.8-35.7,248.6l1.7-0.2
	c-10.4-74.5,1.2-155.5,35.6-247.8c14-37.5,30.5-73.6,48.2-108.3c-17,34.5-32.9,70.3-46.2,107.5c-33.2,92.9-43.6,174.3-31.7,248.8
	l1.6-0.3c-11.9-74.2-1.6-155.3,31.6-248c14-39.1,30.8-76.7,48.8-112.8c-17.3,35.9-33.4,73.2-46.7,112.1c-32,93.3-41,174.8-27.6,249
	l1.6-0.3c-13.4-74-4.4-155.1,27.6-248.2c14-40.9,31.1-80.1,49.5-117.7c-17.7,37.4-34.1,76.4-47.4,117
	c-30.7,93.7-38.5,175.3-23.6,249.2l1.5-0.3c-14.8-73.7-7.1-155,23.5-248.4c13.9-42.4,31.2-83.2,49.9-122.2
	c-18,38.8-34.5,79.4-47.7,121.5C90.5,876.4,81.7,918,78,956.7c-4.3,44.5-2.1,86.8,6.6,125.7l1.5-0.3c-8.6-38.8-10.8-80.9-6.6-125.2
	c3.7-38.6,12.5-80.1,26-123.4c13.8-44,31.3-86.3,50.1-126.7c-18.2,40.3-34.9,82.3-48,126c-13,43.6-21.2,85.3-24.3,124
	c-3.6,44.6-0.6,86.8,8.8,125.6l1.4-0.3c-9.4-38.6-12.3-80.8-8.8-125.2c3.1-38.6,11.2-80.3,24.2-123.7
	c13.6-45.6,31.2-89.4,50.4-131.3c-18.4,41.8-35.3,85.4-48.1,130.7c-12.4,43.7-20,85.5-22.5,124.3c-2.9,44.6,0.9,86.9,11.1,125.6
	l1.4-0.4c-10.2-38.5-13.9-80.6-11-125.1c2.5-38.7,10-80.4,22.4-124c12.9-45.4,29.8-89.1,48.3-131c-17.3,40.6-33.6,84.3-46.1,130.4
	C103,876.3,96,918.2,94.1,957c-2.2,44.7,2.3,86.9,13.3,125.5l1.3-0.4c-10.9-38.4-15.4-80.5-13.2-125c1.9-38.7,8.8-80.5,20.6-124.3
	c13.4-49.9,31.5-96.9,50.3-140.4c-18.2,43.4-35.4,90.3-48,139.8c-11.2,44-17.6,86.1-18.8,124.9c-1.5,44.8,3.8,87,15.5,125.4l1.3-0.4
	c-11.7-38.3-16.9-80.3-15.5-125c1.3-38.7,7.6-80.6,18.8-124.6c13.1-51.3,31.2-100,50.2-144.8c-18.2,44.8-35.6,93.3-47.8,144.2
	c-10.6,44.2-16.4,86.3-17,125.1c-0.8,44.9,5.2,87.1,17.8,125.3l1.2-0.4c-45.5-138.7,5.7-295.1,51-403.8
	c-17.6,44.3-36.8,98.1-49.4,153.5c-10.1,44.4-15.2,86.6-15.2,125.4c0,45,6.7,87.1,20,125.3l1.2-0.4c-13.3-38-20-80-19.9-124.8
	c0-38.8,5.1-80.9,15.2-125.2c12.3-54.3,31-107.1,48.3-150.8c-16.8,44.1-34.4,96.1-45.9,150.4c-9.5,44.6-14,86.8-13.4,125.7
	c0.7,45.1,8.1,87.2,22.2,125.2l1.1-0.4c-14.1-37.9-21.5-79.9-22.2-124.8c-0.6-38.8,3.9-81,13.4-125.4
	c12.2-57.5,31.2-112.4,48.9-158.1c-17,45.9-35.2,100.8-46.5,157.7c-8.9,44.7-12.8,87.1-11.6,126c1.4,45.1,9.6,87.2,24.5,125.1
	l1.1-0.4c-14.8-37.8-23-79.7-24.4-124.7c-1.2-38.8,2.7-81.1,11.6-125.7c11.4-57.7,30-113.4,47.2-159.7
	c-41.1,114.8-84.7,273.3-27.8,410.6l1-0.4c-57.9-139.7-11.4-301.6,30.3-416.7c-40,115.6-84.3,278.2-23.7,417.2l1-0.4
	c-61.1-140-15.3-304.5,25-420.1c-38.5,115.7-82.3,280.9-18.3,420.5l0.9-0.4c-64.7-141.1-18.9-308.7,19.9-424.4
	c-37,115.7-80.8,284.1-13.1,424.8l0.9-0.4c-68.4-142.2-22.6-313,14.6-428.7c-35.4,115.6-79.2,287.3-7.9,429.1l0.8-0.4
	c-72.2-143.3-26.2-317.4,9.3-432.9c-33.7,115.4-77.6,290.5-2.5,433.3l0.8-0.4c-75.9-144.4-30-321.9,3.8-437.1
	c-31.9,115-75.9,293.6,3.1,437.5l0.8-0.4c-79.8-145.5-33.7-326.6-1.8-441.2c-30,114.4-74.2,296.7,8.7,441.7l0.7-0.4
	c-83.7-146.5-37.5-331.4-7.5-445.3c-13.7,55.6-31.8,130.3-35.8,207.8c-2.3,43.5,0.1,84.2,7.1,121.1c8.1,42.9,22.6,82.2,43.2,116.8
	l0.7-0.4c-20.6-34.6-35.1-73.8-43.1-116.6c-6.9-36.8-9.3-77.5-7.1-120.9c4.1-79.4,23-155.9,36.9-211.9c-0.1,0.5-0.2,1-0.4,1.6
	c-13,56-30.7,132.8-33.5,212.2c-1.5,43.2,1.5,83.7,9.1,120.3c8.8,42.5,24,81.5,45.1,115.7l0.6-0.4c-21.1-34.2-36.3-73-45-115.5
	c-7.6-36.6-10.6-77-9.1-120.2c2.8-79.3,20.5-156,33.5-212c0.4-1.9,0.9-3.8,1.3-5.7c-0.6,2.6-1.1,5.2-1.7,7.9
	c-12,56-28.5,132.6-30,211.6c-0.8,43,2.9,83.2,11.1,119.6c9.5,42.2,25.3,80.8,47,114.6l0.6-0.4c-21.7-33.8-37.4-72.3-46.9-114.4
	c-8.2-36.3-11.9-76.5-11.1-119.4c1.5-78.9,18-155.5,30-211.5c0.9-4.1,1.7-8.1,2.6-12c-0.9,4.6-1.9,9.4-2.8,14.2
	c-11.1,55.9-26.4,132.5-26.6,211.1c-0.1,42.8,4.3,82.8,13,118.8c10.2,41.9,26.6,80.1,48.8,113.5l0.5-0.4
	c-22.2-33.4-38.6-71.5-48.8-113.3c-8.7-36-13.1-75.9-13-118.7c0.2-78.5,15.4-155.1,26.5-210.9c1.2-6.3,2.4-12.3,3.6-18.1
	c-1.2,6.5-2.4,13.3-3.7,20.4c-10.8,59-24.2,132.3-23.1,210.5c0.6,42.6,5.6,82.3,15,118.1c10.8,41.5,27.9,79.4,50.6,112.5l0.5-0.3
	c-22.7-33-39.7-70.8-50.6-112.3c-9.3-35.7-14.4-75.4-14.9-117.9c-1.1-78.1,12.3-151.5,23.1-210.4c1.5-8.4,3-16.5,4.4-24.2
	c-1.3,8.3-2.8,17.2-4.4,26.4c-9.8,58.9-22.1,132.2-19.7,210c1.3,42.3,7,81.8,16.9,117.3c11.5,41.2,29.1,78.7,52.4,111.4l0.4-0.3
	c-23.2-32.7-40.9-70.1-52.3-111.2c-9.9-35.5-15.6-74.9-16.9-117.2c-2.3-77.8,9.9-151,19.7-209.9c1.8-10.6,3.5-20.7,4.9-30.2
	c-1.4,10.1-3,21-4.8,32.4c-8.9,58.8-20,132-16.4,209.5c2,42.1,8.3,81.3,18.7,116.6c12.2,40.9,30.4,78,54.2,110.3l0.4-0.3
	c-23.8-32.3-42-69.4-54.1-110.2c-10.5-35.2-16.8-74.4-18.7-116.4c-3.6-77.4,7.5-150.5,16.4-209.4c1.9-12.8,3.8-24.9,5.3-36
	c-1.4,11.7-3.1,24.6-5,38.2c-8,58.8-17.9,131.9-13.1,208.9c2.6,41.9,9.6,80.9,20.6,115.8c12.8,40.5,31.6,77.3,55.9,109.3l0.4-0.3
	c-24.3-32-43-68.7-55.8-109.2c-11-34.9-17.9-73.9-20.6-115.7c-4.8-77,5.1-150.1,13.1-208.8c2-14.5,3.8-28.2,5.2-40.4l0,0
	c-1.2,12.8-3,27.3-4.8,42.7c-7.1,58.7-15.9,131.8-9.8,208.4c3.3,41.7,10.8,80.4,22.4,115.1c13.4,40.2,32.8,76.7,57.6,108.3l0.3-0.3
	c-24.8-31.6-44.1-68-57.5-108.2c-11.6-34.7-19.1-73.4-22.4-115c-6-76.6,2.7-149.6,9.8-208.3c1.9-15.5,3.6-30.2,4.9-43.1l0.1-0.1
	c-1.1,13.6-2.7,29.1-4.4,45.4c-6.2,58.6-13.8,131.6-6.6,207.9c3.9,41.4,12.1,79.9,24.2,114.4c14.1,39.9,34,76,59.3,107.3l0.3-0.2
	c-25.2-31.3-45.2-67.3-59.2-107.2c-12.1-34.4-20.3-72.9-24.2-114.3c-7.2-76.2,0.4-149.2,6.6-207.8c1.7-16.5,3.4-32.2,4.4-45.8
	c0-0.1,0.1-0.1,0.1-0.2c-0.8,14.3-2.3,30.8-3.9,48.2c-5.3,58.6-11.8,131.5-3.4,207.4c4.6,41.2,13.3,79.5,26,113.7
	c14.7,39.6,35.2,75.4,60.9,106.3l0.3-0.2c-25.7-30.9-46.2-66.7-60.9-106.2c-12.7-34.2-21.4-72.4-26-113.6
	c-8.4-75.9-1.9-148.7,3.4-207.3c1.6-17.6,3.1-34.1,3.9-48.5c0.1-0.1,0.1-0.2,0.2-0.3c-0.6,15-1.9,32.4-3.3,50.9
	c-4.4,58.5-9.8,131.3-0.2,206.9c5.2,41,14.5,79,27.7,113c15.3,39.3,36.3,74.7,62.5,105.4l0.2-0.2c-26.2-30.6-47.2-66-62.5-105.3
	c-13.2-33.9-22.5-71.9-27.7-112.9c-9.6-75.5-4.1-148.3,0.2-206.8c1.4-18.6,2.7-36.1,3.3-51.1c0.1-0.1,0.2-0.2,0.2-0.3
	c-0.3,15.6-1.4,34-2.6,53.5c-3.5,58.5-7.8,131.2,2.9,206.4c5.8,40.8,15.7,78.6,29.4,112.3c15.9,39,37.4,74.1,64.1,104.4l0.2-0.2
	c-26.7-30.3-48.2-65.4-64.1-104.4c-13.7-33.7-23.6-71.4-29.4-112.2c-10.7-75.1-6.4-147.9-2.9-206.3c1.2-19.6,2.3-38,2.6-53.7
	c0.1-0.1,0.2-0.3,0.3-0.4c0,16.2-0.8,34.7-1.8,56.1c-2.6,58.4-5.9,131.1,6,205.9c6.4,40.6,16.9,78.2,31.1,111.6
	c8,18.8,17.3,36.7,27.8,53.4c11.2,17.8,23.9,34.6,37.9,50.1l0.1-0.1c-14-15.5-26.8-32.3-37.9-50.1c-10.5-16.7-19.8-34.6-27.8-53.4
	c-14.2-33.4-24.7-71-31.1-111.6c-11.9-74.8-8.6-147.4-6-205.8c1-21.4,1.8-40,1.8-56.2c9.1-12.6,17.8-25.2,25.9-37.8
	c65.1-70.3,147.2-123.4,227.1-175.1c72.4-46.9,147.3-95.3,209.7-156.3c33.6-32.9,61-66.5,83.6-103c25.4-41,44.2-84.3,57.6-132.5
	L816-0.3z"/>
<g>
	<path class="st1" d="M962.9,728.8L962.9,728.8c0-0.4,0-0.8,0-1.1c0-6.6-0.1-12.9-0.1-18.9h0.1c0-1-0.1-2-0.1-3
		c0-5.9-0.1-11.6-0.2-17h0.3c-0.1-1.7-0.2-3.4-0.3-5c-0.1-5.3-0.1-10.3-0.2-15h0.5c-0.2-2.3-0.4-4.7-0.6-7.1
		c-0.1-4.6-0.1-8.9-0.2-12.9l0.8-0.1c-0.3-3-0.6-6.1-1-9.3c-0.1-3.8-0.2-7.3-0.2-10.6l1.2-0.1c-0.5-4.1-1-8.1-1.5-12
		c-0.1-3.5-0.2-6.7-0.3-9.6c0.1,0.6,0.2,1.2,0.3,1.8l1.5-0.2c-0.8-5.4-1.6-10.6-2.4-15.6c-0.3-6.1-0.6-10.6-0.8-13.9
		c0.6,3.2,1.1,6.4,1.7,9.7l1.5-0.2c-14.5-85-30.8-129.3-47.2-128c-9.4,0.7-17.8,17.1-24.2,45.5c0.2,0.5,0.4,1,0.5,1.5
		c0.1,0.3,0.3,0.6,0.4,0.9c6.3-28.9,14.4-45.8,23.4-46.5c8.3-0.6,24.4,13,42.1,106.9c-0.3-0.2-0.8-0.2-1.1,0c-0.1,0-0.1,0.1-0.2,0.1
		c-11.4-64.1-24-97.2-36.7-96.4c-8.7,0.6-16.2,17.5-21.9,46.7c0.4,0.9,0.8,1.8,1.2,2.7l0,0c5.5-29.7,12.7-47.4,20.8-47.9
		c4.4-0.3,11.5,4.8,20,30.7c4.4,13.4,8.6,30.8,12.8,52c-0.1,0-0.3-0.1-0.4-0.1c-2.8-15-5.6-27.7-8.5-38.2
		c-6.3-22.4-12.7-33.8-19.2-33.8c-0.1,0-0.2,0-0.3,0c-7.9,0.5-14.6,18.5-19.5,49.4l0,0c0.2,0.5,0.4,1,0.6,1.5
		c0.2,0.4,0.4,0.8,0.5,1.2c5-32.9,11.8-50,18.5-50.4c3.1-0.2,9,3.5,16.1,26.3c-3.5-9.9-7.4-15.8-11.5-15.8c-0.1,0-0.2,0-0.2,0
		c-7.4,0.4-13.5,20.2-17.6,53.9c0.3,0.8,0.5,1.6,0.7,2.4c-0.1-0.5-0.2-1.1-0.3-1.6c0.4,1,0.6,1.9,0.9,2.9
		c4.2-36.5,10.3-55.7,16.4-56c2.1-0.1,5.9,2.3,10.7,16.3c-1.9-3.8-4-5.9-6.1-5.9c-0.1,0-0.1,0-0.2,0c-6.4,0.3-11.4,18.7-14.8,54.6
		c-0.2,1.7-0.3,3.5-0.5,5.3c0.2,0.4,0.3,0.9,0.5,1.3c0.1,0.3,0.2,0.7,0.3,1c0.2,0.5,0.5,0.9,0.6,1.4c0.2-3,0.5-6,0.8-8.8
		c4.7-48.8,11.3-53,13.2-53c1.3-0.1,4,1.4,7.6,11.9c-1.4-1.7-2.4-1.7-3-1.6c-5.5,0.2-9.6,18.7-12.2,54.8c-0.3,4.7-0.6,9.6-0.9,14.7
		c0.4,0.9,0.7,1.9,1,2.9c0.2,0.4,0.4,0.8,0.6,1.2c2.3-47,7.1-71.6,11.6-71.8l0,0c0.8,0,2.8,1.1,5.6,10.3c-0.4-0.2-0.7-0.1-1-0.1
		c-1.7,0.1-3.9,1.8-6,15c-1.5,9.5-2.7,22.9-3.6,40c-0.4,8.9-0.8,18.6-1,28.9c0.7,1.9,1.2,3.7,1.7,5.5c0.2-12.3,0.6-23.8,1.1-34.3
		c2.6-52.5,7.7-53.3,7.9-53.3l0,0c0.1,0,1,0.2,2.4,3.8c0.5,2,1,4.2,1.5,6.6c-4.7,3.5-7,46.7-6.5,106.4c0.6,1.9,1.3,3.8,1.9,5.7
		c-0.8-66.3,2.1-103.7,5.1-109.7c0.8,3.9,1.5,8.3,2.3,13.4c0.1,0.9,0.3,1.8,0.4,2.7c-1.5,10.6-1.9,31.8-2,50.2
		c-0.1,25.9,0.5,56.6,1.7,89.5c1,3.1,1.8,6.4,2.3,9.7c-2.9-70.3-2.5-119.4-0.9-141.5c1.4,10.4,2.8,22.3,4.1,35.6
		c0,5.6,0.1,11.7,0.2,18.1c0.6,41.3,2.8,92.3,6,143.8l2-0.1C963,754.6,963,741.2,962.9,728.8z M959.2,612.4L959.2,612.4
		C959.2,612.4,959.2,612.4,959.2,612.4C959.2,612.3,959.2,612.4,959.2,612.4z M958.4,657.4c0.6,13.2,1.2,27.9,1.8,44.2
		c0.2,9,0.4,18.4,0.5,28.4c-1.9-36.6-3-67.7-3.6-92.5C957.6,643.8,958,650.4,958.4,657.4z M958.5,596.2c-0.2-1.4-0.4-2.7-0.6-4
		c-0.2-3.4-0.5-6.4-0.7-9.1c0.3,1.8,0.6,3.6,0.9,5.4C958.3,590.8,958.4,593.3,958.5,596.2z"/>
	<path class="st1" d="M911.6,449.4c0.2,0,0.5,0,0.7,0c9.8,0,28.6,16.3,49,119.1l1.4-0.3C942.6,467,923.7,447,911.5,448
		c-10.1,0.8-19.2,16.1-26.7,44.4c0.4,0.6,0.7,1.2,1,1.8C893,466,902.1,450.2,911.6,449.4z"/>
	<path class="st1" d="M907.6,437c17.8-1.6,36.8,37.9,53.7,111.4l1.3-0.3c-21.9-95.1-42.1-113.7-55.2-112.4
		c-11.2,1-21.5,16.8-29.8,45.8c0.4,0.5,0.7,1,1,1.5C886.7,454.7,896.6,438.1,907.6,437z"/>
	<path class="st1" d="M903.8,424.6c18.9-2,39.4,34.9,57.6,103.8l1.3-0.3c-23.6-89.2-45.1-106.2-59-104.7
		c-12.6,1.3-23.9,18.1-33,46.9c0.3,0.5,0.6,1,0.9,1.5C880.7,442.1,891.8,425.9,903.8,424.6z"/>
	<path class="st1" d="M900,412.1c14.2-1.6,36.4,13.7,61.4,96.2l1.2-0.4c-20-66-41.6-99.5-62.7-97.1c-13.9,1.6-26.4,19.2-36.6,49.1
		c0.3,0.4,0.5,0.8,0.8,1.2C874.1,431.3,886.4,413.7,900,412.1z"/>
	<path class="st1" d="M896.4,399.6c15-1.9,38.5,11.9,65,88.7l1.1-0.4c-21.2-61.4-44.2-92.4-66.3-89.5c-15.1,2-29.1,19.8-40.5,51.6
		c0.3,0.3,0.6,0.7,0.9,1.1C867.7,420,881.4,401.5,896.4,399.6z"/>
	<path class="st1" d="M892.9,386.9c15.8-2.3,40.5,10,68.6,81.3l1.1-0.4c-22.5-57-46.6-85.4-69.8-82c-16.7,2.4-32.2,21.4-44.8,54.9
		c0.3,0.3,0.6,0.7,0.9,1C861,409,876.2,389.3,892.9,386.9z"/>
	<path class="st1" d="M889.4,374.2c23.7-3.9,48.6,21.7,72.1,74l1-0.4c-23.7-52.7-49.1-78.5-73.3-74.6c-17.9,2.9-34.6,22.2-48.2,55.7
		c-0.4,1-0.8,2-1.2,3.1c0.3,0.3,0.6,0.5,0.8,0.8c0.5-1.2,0.9-2.3,1.4-3.5C855.4,396.1,871.8,377.1,889.4,374.2z"/>
	<path class="st1" d="M885.9,361.5c24.8-4.5,50.9,18.5,75.6,66.7l0.9-0.5c-24.9-48.6-51.4-71.8-76.7-67.2
		c-20.8,3.8-39.6,26.3-54.4,63.2c0.3,0.2,0.5,0.4,0.8,0.6C846.8,387.6,865.4,365.2,885.9,361.5z"/>
	<path class="st1" d="M882.5,348.7c25.8-5.3,53.2,15.2,79.1,59.4l0.8-0.5c-26.1-44.6-53.9-65.3-80.1-59.9c-22.9,4.7-43.5,29-59.6,68
		c0.3,0.2,0.5,0.4,0.8,0.6C839.4,377.5,859.9,353.3,882.5,348.7z"/>
	<path class="st1" d="M879,335.8c26.9-6.2,55.5,11.9,82.7,52.2l0.7-0.5c-27.4-40.7-56.3-58.9-83.6-52.6c-21.5,5-41.6,25-58.2,58.1
		c-2.4,4.8-4.8,10-7,15.3c0.3,0.2,0.5,0.4,0.8,0.6C831.7,367.7,854.2,341.5,879,335.8z"/>
	<path class="st1" d="M875.3,323c28-7.2,57.9,8.3,86.4,45l0.7-0.5c-28.7-37-58.9-52.6-87.3-45.3c-22.7,5.9-43.9,26.3-61.4,59.2
		c-3.4,6.4-6.6,13.2-9.7,20.4c0.2,0.2,0.5,0.3,0.7,0.5c3.1-7.3,6.3-14.1,9.7-20.5C831.8,349.1,852.9,328.8,875.3,323z"/>
	<path class="st1" d="M871.4,310.2c29.2-8.5,60.5,4.6,90.3,37.8l0.6-0.5c-30.1-33.4-61.6-46.5-91.1-38c-23.8,6.9-46,27.8-64.4,60.5
		c-4.4,7.8-8.5,16.3-12.4,25.3c0.3,0.2,0.5,0.3,0.7,0.4c3.9-9,8-17.5,12.4-25.3C825.7,337.8,847.8,317,871.4,310.2z"/>
	<path class="st1" d="M867.1,297.4c30.5-9.9,63.3,0.6,94.7,30.4l0.5-0.5c-31.6-30-64.6-40.6-95.4-30.6
		c-32.6,10.6-61.4,43.5-82.7,92.6c0.2,0.1,0.4,0.2,0.6,0.4C806,340.8,834.6,308,867.1,297.4z"/>
	<path class="st1" d="M862.3,284.9c31.9-11.6,66.3-3.7,99.5,22.9l0.4-0.5c-33.3-26.7-68-34.6-100.1-23
		c-25.7,9.3-49.8,31.3-69.7,63.5c-6.8,11-13.1,23.3-18.8,36.5c0.2,0.1,0.3,0.1,0.5,0.2c0.1,0,0.1,0.1,0.2,0.1
		C796.5,333.1,827.3,297.6,862.3,284.9z"/>
	<path class="st1" d="M856.8,272.7c33.5-13.6,69.8-8.4,105,15l0.3-0.5c-35.3-23.5-71.8-28.7-105.5-15.1
		c-26.5,10.7-51.4,33.2-71.8,65.1c-8.2,12.8-15.7,27.1-22.4,42.7c0.2,0.1,0.4,0.1,0.6,0.2c6.7-15.5,14.2-29.8,22.4-42.6
		C805.7,305.8,830.4,283.4,856.8,272.7z"/>
	<path class="st1" d="M850.6,260.9c35.3-15.8,73.8-13.5,111.3,6.7l0.3-0.5c-37.6-20.3-76.3-22.6-111.8-6.7
		c-27.2,12.2-52.5,35.2-73.4,66.6c-9.8,14.7-18.5,31.1-26.1,48.8c0.2,0,0.4,0.1,0.6,0.1c7.6-17.7,16.3-33.9,26-48.6
		C798.2,296,823.5,273.1,850.6,260.9z"/>
	<path class="st1" d="M843.4,249.7c37.4-18.5,78.4-19.3,118.5-2.2l0.2-0.5c-40.3-17.1-81.4-16.4-118.9,2.2
		c-43,21.3-79.4,64.9-104.2,123.3c0.2,0,0.3,0.1,0.5,0.1C764.1,314.5,800.5,271,843.4,249.7z"/>
	<path class="st1" d="M835.1,239.3c39.7-21.5,83.5-25.6,126.9-11.8l0.1-0.4c-43.5-13.8-87.4-9.7-127.2,11.9
		c-28.1,15.3-53.3,38.6-74.8,69.2c-13,18.6-24.3,39.3-33.7,62c0.1,0,0.3,0.1,0.4,0.1c9.4-22.6,20.6-43.3,33.6-61.8
		C781.9,277.8,807,254.6,835.1,239.3z"/>
	<path class="st1" d="M804,244.4c23.1-17.8,48.3-30,74.7-36.4c27.2-6.6,55.2-6.8,83.3-0.6l0.1-0.4c-28.1-6.2-56.2-6-83.5,0.6
		c-26.4,6.4-51.6,18.7-74.8,36.4c-23,17.7-43.5,40.3-61,67.4c-11.2,17.3-20.9,36.2-29.1,56.4c0.1,0,0.3,0,0.4,0.1
		c8.2-20.2,17.9-39,29.1-56.3C760.5,284.7,781,262,804,244.4z"/>
	<path class="st1" d="M798.5,232.7c23.9-18.1,49.8-31.3,77.2-39c28.1-7.9,57.1-10.1,86.2-6.4V187c-29.2-3.7-58.3-1.6-86.4,6.4
		c-27.4,7.8-53.4,20.9-77.3,39.1c-23.8,18.1-45.1,40.9-63.1,67.6c-13.7,20.2-25.3,42.5-34.7,66.4c0.1,0,0.2,0,0.3,0
		c9.4-23.9,21-46.1,34.6-66.3C753.5,273.5,774.7,250.8,798.5,232.7z"/>
	<path class="st1" d="M793,221c24.6-18.5,51.4-32.5,79.8-41.7c28.9-9.3,58.9-13.4,89.2-12.1v-0.3c-30.3-1.2-60.4,2.8-89.3,12.2
		c-28.4,9.1-55.3,23.2-79.9,41.7c-24.7,18.6-46.6,41.4-65.3,67.8c-16.6,23.5-30.2,49.5-40.8,77.4c0.1,0,0.2,0,0.3,0
		c10.6-27.9,24.2-53.9,40.8-77.3C746.4,262.4,768.4,239.6,793,221z"/>
	<path class="st1" d="M787.6,209.3c25.3-18.9,53-33.8,82.3-44.3c29.7-10.6,60.7-16.7,92.1-17.9v-0.2c-31.5,1.2-62.5,7.3-92.2,17.9
		c-29.4,10.5-57.1,25.5-82.4,44.4c-52.1,38.9-91.7,93.2-114.5,156.8l0.2,0.1C695.9,302.4,735.5,248.3,787.6,209.3z"/>
</g>
<g>
	<g>
		<path class="st0" d="M611,374c56-10,306-75,348,408C1224-75,867-7,611,374z"/>
	</g>
</g>
<g>
	<path class="st2" d="M216.5,897.4c17.9,75.1,48.2,135.5,92.5,183.6h2.7c-44.7-48.1-75.3-108.6-93.3-184.1
		c-13.7-57.8-19.1-119-22.1-180c3.4,55.9,9.2,111.8,22,164.8c20.2,83.7,56,149,109.2,199.3h2.8c-53.8-50.2-89.8-115.7-110.1-199.8
		c-14.8-61.3-20.1-126.6-23.4-191.3c3.6,59.7,9.4,119.6,23.3,176.1c21.4,87.2,59.6,154.3,116.9,205.1c3.8,3.3,7.6,6.6,11.6,9.8h3
		c-4.6-3.7-9-7.4-13.3-11.3c-57-50.6-95-117.4-116.3-204.2c-16-65.3-21.3-135.2-24.8-204c3.8,63.9,9.6,128.3,24.7,188.9
		c21.5,86.4,59.6,153,116.4,203.5c10.8,9.6,22.2,18.6,34.5,27.1h3.3c-13-8.9-25.2-18.4-36.5-28.5c-56.5-50.2-94.4-116.5-115.8-202.5
		c-17.5-70.1-22.5-145.5-26.4-219.2c4.1,68.8,9.8,138.7,26.4,204c21.7,85.6,59.6,151.6,115.8,201.8c18.3,16.3,38.8,31.1,61.4,44.4
		h3.6c-23.6-13.6-44.8-28.8-63.8-45.7c-56-49.9-93.7-115.6-115.3-200.9c-19.1-75.6-23.7-157.5-28.2-236.7c0-0.7-0.1-1.5-0.1-2.2
		c8.7,140.4,19.7,284.3,111.3,391c33.2,38.6,74.7,69.9,125.6,94.5h4.1c-52.2-24.7-94.6-56.4-128.4-95.6
		C216.1,876.2,207,727.8,198.2,584.2c-0.8-13-1.6-26-2.5-38.9c0.6,8.5,1.1,17,1.7,25.6c9.4,141.8,19.1,288.5,111,397
		c41.5,49,96.3,86.3,166.4,113.1h4.9c-72-26.9-127.8-64.4-170-114.2c-91.5-108.1-101.2-254.4-110.6-396
		c-11.8-179-23-348.2-200.6-414.6l-0.6,1.6C152,215.5,180.1,351.3,192.6,503.6c-12.5-148.2-42.8-279-194.1-335l-0.6,1.7
		c143.2,53,177.4,173.9,191.1,313C175,348.5,138.8,232.5-1.5,181.1l-0.6,1.7C135.3,233.1,172.2,346.1,186.6,478
		C171.7,350.5,132.9,242.2-1.5,193.6l-0.6,1.8C131,243.5,169.7,350.8,184.7,477.2c-15.6-122-56.1-224.6-186.2-271.1l-0.6,1.8
		c43.1,15.4,77.5,37.2,104.9,66.5c24.6,26.3,43.2,58.2,56.8,97.6c12,34.6,19.2,72.2,24,111.9C167.8,364.1,126.8,264-1.6,218.6
		l-0.7,1.8c43.3,15.3,77.7,37,105.2,66.4c24.6,26.3,43.2,58.3,56.7,97.8c10.9,31.9,17.8,66.3,22.4,102.7
		c-16.3-116-58.3-212.4-183.7-256.2l-0.7,1.9c43.5,15.2,78,36.9,105.5,66.2c24.6,26.3,43.1,58.3,56.6,98
		c25.1,74,28.4,162.2,31.9,255.5C194.7,734.3,197.9,819,216.5,897.4z"/>
	<path class="st2" d="M836.8,704.9c-4.8-1.5-9.1-0.3-12.9,3.4c-13.5,13.4-18.8,59.7-14.2,123.9c5.3,72.5,22.6,160.2,48.8,247.2
		c-74,1.5-141.9-1.5-202.1-8.9c-57.4-7-109.5-18.3-154.8-33.5c-83.2-27.9-146-69.1-192-125.8c-85.1-105-96.4-245-107.4-380.5
		c-14.4-176.8-27.9-343.9-203.6-412l-0.6,1.5C172.8,188,186.3,354.5,200.6,530.8c11,135.7,22.4,276,107.8,381.3
		c46.2,57,109.2,98.3,192.8,126.3c45.4,15.2,97.6,26.6,155.1,33.6c39.4,4.8,82.2,7.8,127.9,8.8h76.5l-0.3-1
		c-26.3-87.2-43.8-175.2-49.1-247.9c-4.7-63.7,0.5-109.5,13.7-122.6c3.3-3.3,7.1-4.3,11.3-3c22,6.8,57.3,77.9,96.9,250.5
		c-14.6-60.2-28.9-110.6-43-150.6c-19.5-55.6-37.2-87.1-51-91.2c-3.8-1.1-7.2-0.2-10.1,2.8c-12,12.2-15.2,58.3-8.4,123.4
		c7.3,69.8,25.1,154.3,50.6,239.6h1.7c-25.5-85.3-43.4-169.9-50.7-239.8c-10-95.8,3.5-117.7,7.9-122.1c2.5-2.5,5.3-3.3,8.5-2.3
		c19.6,5.8,53.1,75.1,93.9,245.2c-41.7-165-73.5-231.6-90.9-236.5c-2.9-0.8-5.5-0.1-7.7,2.2c-10.5,10.8-11.5,56.7-2.5,122.8
		c9.1,66.9,27.3,147.7,52,230.5h1.8c-57.3-192.3-68.4-333.3-50-352.2c1.8-1.8,3.8-2.4,6-1.7c6.6,1.9,21.3,15.7,46.4,87.1
		c13.4,38,27.7,87.2,42.5,145.3c-41.9-157-71.2-219.8-85.9-223.7c-2.1-0.6-4.1,0-5.7,1.7c-9,9.4-7.7,55,3.5,122.1
		c10.7,64,29.4,141.3,53.4,221.5h1.8c-24.1-80.4-42.8-157.7-53.5-221.8c-11-65.5-12.5-111.8-4-120.6c1.2-1.2,2.5-1.6,4-1.2
		c13.9,3.8,43.8,68.2,86.8,230.8c-15.6-56-30.2-103.4-43-140c-12.7-36-30-79.4-40.7-82.2c-1.6-0.4-3,0-4.1,1.2
		c-12.8,13.6,6.7,143.9,64.5,333.8h1.9c-23.6-77.7-42.7-151.5-55-212.9c-15.8-79.4-15.6-113.9-10.1-119.7c0.7-0.7,1.4-1,2.4-0.7
		c3.6,0.9,14.7,10.7,39.5,81.1c13,37.1,27.8,85.3,43.7,142.2c-38.3-130.6-68.2-211.9-80-214.7c-1.1-0.3-2.1,0-2.8,0.9
		c-9.9,10.8,13.6,135.7,72.2,323.8h1.9c-61.5-197.3-80.9-313.8-72.7-322.6c0.3-0.3,0.6-0.4,1.1-0.3c7.3,1.8,31.7,51.9,79.8,216.9
		c-39.2-127.5-68-206.4-76.7-208.4c-0.7-0.2-1.4,0-1.9,0.6c-6.4,7.1,15.5,92.9,22.4,119c14.7,56,34.6,123,57.5,194.8h2
		c-23.5-73.3-43.6-141.5-58.5-198.3c-9-34.4-15.7-63.4-19.5-83.7c-5.2-28.4-2.8-30.4-2.5-30.6c0.6-0.1,6.5,1.3,31.7,72.9
		c12.3,34.9,27.1,80.4,43.6,134.2c-16-49.6-30.1-91.9-41.7-124.8c-25.6-72.8-29.3-73.6-30.5-73.8c-0.5-0.1-1,0.1-1.3,0.4
		c-0.7,0.7-2.2,2.5,5.4,33.1c5.1,20.7,13.2,49.9,23.5,84.6c15.8,53.5,36,117.3,58.7,186h2c-60.6-183.1-89.7-291.5-88.3-301.9
		c4.1,4.6,21.1,46.1,60.6,166.8c-3.3-9.1-6.5-18-9.6-26.6c-7.8-22.8-14.9-43.3-21.2-61c-24.9-70.7-26.3-71-27.2-71.2l-0.6-0.1
		l-0.4,0.4c-0.5,0.6-1.1,1.3,8.2,31.5c6.3,20.5,15.7,49.8,27.3,84.8c16.8,51,37.3,111.6,59.8,177.2h2.1
		c-33.5-97.5-58.6-172.9-74.6-222.7c1,2.9,2.1,6,3.2,9.1c17.7,50.3,44,124.2,76.1,213.6h2.1c-0.1-0.2-0.2-0.5-0.3-0.7l0,0v-0.1l0,0
		l0,0v-0.1c0-0.1,0-0.1,0-0.2l0,0c0,0,0,0,0-0.1v-0.1c0,0,0,0,0-0.1c0,0,0,0,0-0.1v-0.1c0-0.1,0-0.1,0-0.2v-0.1v-0.1v-0.1v-0.1v-0.1
		v-0.1c0-0.1,0-0.1,0-0.2c0,0,0,0,0-0.1c0-0.2,0-0.3,0-0.5c0-0.1,0-0.2,0-0.2c0-0.1,0-0.2,0-0.3c0-0.1,0-0.2,0-0.3
		c0-0.1,0-0.2,0-0.3c0-0.1,0-0.2,0-0.2c0-0.1,0-0.2,0-0.3c0-0.1,0-0.2,0-0.2c0.6,1.6,1.2,3.3,1.8,5h2.1c-1.2-3.4-2.4-6.8-3.6-10.1
		c5.7-106,5.2-201.5-1.6-283.9c-6.5-79.4-18.9-148.6-37-205.7c-8.5-26.9-18.4-51.7-29.5-73.7c-10.6-21-22.5-40-35.4-56.4
		c-12.4-15.7-25.9-29.4-40.4-40.8c-13.8-10.8-28.7-19.9-44.3-26.8c-21.6-9.6-45.3-15.4-70.4-17.5c-23-1.9-47.7-0.5-73.5,4
		c-44.4,7.8-92.6,25.1-143.3,51.4c-68.5,35.5-125.6,79-157.8,106.5c-1.3-3-2.5-6-3.8-9.1c-6.9-18.5-13.2-38.3-19.1-60
		c-0.5-2.2-1.1-4.4-1.6-6.6c-3.5-14.8-6.7-29.8-9.6-45c-2.4-14.6-4.6-29.4-6.8-44.4c-1.4-12.1-2.7-24.3-4.1-36.6
		c-0.1-1.3-0.3-2.6-0.4-3.9c-8.1-106.4-19-214.6-52.7-314.5c-0.9-2.7-1.9-5.4-2.8-8.1h-0.2c1,2.7,1.9,5.4,2.8,8.1
		c33.1,98,44.2,204,52.3,308.5C269.9,209.5,257.1,99.7,220.4-0.4h-0.3c37.6,102.3,50.2,214.9,62.2,323.9c0.4,4.8,0.7,9.6,1.1,14.4
		c-1.6-11.8-3.3-23.7-4.9-35.7C264.7,200.3,250.4,95,213.9-0.5h-0.3c36.5,95.5,50.8,200.8,64.6,302.7c1.8,13.5,3.6,26.9,5.5,40.1
		c0.4,5.2,0.8,10.4,1.1,15.6c-3.9-23.2-7.5-46.9-11.3-71.1c-14.9-96.9-30.3-196.9-66.2-287.3h-0.4c35.9,90.4,51.3,190.5,66.2,287.4
		c3.9,25.5,7.7,50.3,11.9,74.6c0,0.4,0.1,0.8,0.1,1.2c0.4,5.1,0.7,10.1,1.1,15.1c-6.4-32.5-11.9-65.9-17.7-100.3
		c-15.8-94.7-31.8-191-67.7-278h-0.4c35.9,87,52,183.3,67.8,278c5.9,35.5,11.6,69.9,18.3,103.4c0.4,5.5,0.8,11.1,1.2,16.6
		c-9.2-41.1-16.7-83.5-23.9-125c-16.3-93.2-32.9-187.9-69.5-273h-0.5c36.6,85.1,53.3,179.9,69.6,273.1c7.4,42.4,15,85.8,24.6,127.7
		c0.4,5.8,0.9,11.6,1.3,17.4c-12.1-47.9-21.2-98-30-146.9c-16.4-90.9-33.4-184.9-70.1-268c-0.5-1.1-1-2.2-1.5-3.3h-0.5
		c0.5,1.2,1.1,2.3,1.6,3.5c36.6,83,53.6,177,70.1,267.9c9,49.8,18.2,100.8,30.7,149.5c0.5,6,1,12,1.5,17.9
		c-15.2-53.8-25.7-110.9-36-166.6C238.5,183,221.5,91,185.4,9.9c-1.5-3.3-3-6.6-4.5-9.9h-0.6c1.6,3.3,3.1,6.7,4.6,10.1
		c36.1,81,53,173.1,69.4,262.1c10.4,56.6,21.1,114.6,36.7,169.2c0.5,6.1,1.1,12.2,1.6,18.3c-18.5-59.1-30.3-122.8-41.8-184.7
		c-16.2-87.6-33-178.1-68.6-257.5c-2.7-5.9-5.4-11.7-8.2-17.4h-0.6c2.8,5.8,5.6,11.6,8.3,17.6C217.2,97,234,187.5,250.3,275.1
		c11.7,62.9,23.6,127.5,42.6,187.3c0.6,6.3,1.2,12.6,1.8,18.8c-22-63.9-35-133.9-47.6-201.8c-16-86.4-32.6-175.7-67.6-253.7
		c-4-8.8-8.1-17.4-12.4-25.7h-0.7c4.4,8.4,8.5,17,12.6,25.9c35,77.9,51.6,167.2,67.6,253.5c12.8,68.8,25.9,139.7,48.4,204.3
		c0.7,6.5,1.4,13,2.1,19.4c-25.8-68.4-39.8-144.3-53.4-218.1c-15.7-85.4-32-173.7-66.5-250.5C171.8,22.5,166.1,11,160,0h-0.7
		c6.1,11.1,11.9,22.6,17.4,34.7c34.5,76.7,50.8,165,66.5,250.4c13.8,74.6,27.9,151.5,54.4,220.6c0.8,6.7,1.6,13.4,2.5,20.1
		c-30-72.5-45-154.5-59.5-234c-15.4-84.6-31.4-172.1-65.4-248c-7-15.5-14.5-30.1-22.5-43.8h-0.8c8.1,13.8,15.7,28.5,22.7,44.1
		c34,75.8,49.9,163.2,65.4,247.8c14.7,80.4,29.8,163.3,60.5,236.5c0.9,7,1.9,13.9,3,20.8c-34.7-76.4-50.5-164.4-65.8-249.7
		c-15.1-84-30.7-170.8-64.2-245.9c-8.6-19.3-18.1-37-28.5-53.5h-0.9c10.5,16.6,20,34.5,28.7,53.8c33.5,74.9,49.1,161.8,64.2,245.7
		c16.1,89.6,32.7,182.3,71.2,261.4c20.7,42.6,46,77.9,77.1,108c35,33.8,76.5,60.1,126.8,80.4l0.5,0.2v-0.5
		c-0.2-35.1,16-80.2,44.3-123.7c29.3-45,67.3-82.6,107.1-105.8c36-21,90.2-39.6,143.7-8.9c100,57.2,137,247.9,148.1,435.3
		C937,654.1,867.3,551.8,808,519c-51.4-28.5-102.4-9.9-136.2,10.8c-38.5,23.6-74.9,61.7-102.3,107.5c-26.7,44.5-41.3,91-40.2,127.8
		c-54.7-19.5-99.6-45.4-137.3-79.1c-33.7-30.2-60.8-66-82.9-109.4c-41-80.8-57.9-176.2-74.1-268.6c-14.7-83.5-29.9-169.9-63.1-244.2
		c-10.4-23.3-22-44.4-35.1-63.6h-0.9c13.2,19.3,24.9,40.5,35.3,63.9c33.1,74.3,48.3,160.6,63,244c16.3,92.4,33.1,187.9,74.2,268.8
		c22.1,43.6,49.3,79.4,83.1,109.7c37.9,34,83.1,60,138.1,79.5l0.5,0.2v-0.6c-1.2-36.8,13.4-83.4,40.1-128
		c27.4-45.7,63.6-83.8,102.1-107.3c33.6-20.5,84.3-39.1,135.4-10.8c60.1,33.3,131.2,138.6,148.4,442.5
		c-7.1-111.7-21.8-204-43.9-275.2c-25.5-82.1-60.5-135.5-103.8-158.8c-48.8-26.2-96.4-7.9-127.7,12.1c-37.3,23.8-72,62.5-97.7,109.1
		c-25.2,45.6-38.4,93.8-36.2,132.4c-59.3-18.6-108-44.1-148.6-78c-36.3-30.3-65.3-66.6-88.8-111C265.8,510.2,248.9,412,232.5,317
		c-14.3-83.1-29.2-169.1-61.9-242.9c-12.2-27.6-26.2-52-42.4-74h-1c16.3,22,30.4,46.6,42.7,74.3c32.7,73.7,47.5,159.6,61.8,242.7
		c16.4,95.1,33.3,193.4,77,275.9c23.5,44.5,52.6,80.9,89,111.2c40.9,34.1,89.8,59.7,149.5,78.4l0.6,0.2v-0.6
		c-2.3-38.6,10.8-86.9,36.1-132.6c25.3-45.7,60.8-85.4,97.4-108.8c31.1-19.9,78.4-38.1,126.9-12.1c43.2,23.2,78,76.5,103.5,158.4
		c21.7,69.8,36.3,159.9,43.5,268.7C947.4,849,932.6,760.6,911,692.2c-25.4-80.7-59.7-132.8-102-154.9c-36.5-19-77.7-14.5-119.1,13
		c-75,49.8-132.3,163.2-125.5,248c-64-17.6-116.4-42.7-160-76.7C365,691,334,654.2,309.2,609c-46.1-84.1-63-185-79.5-282.5
		c-13.9-82.9-28.4-168.5-60.6-241.8c-14.2-32.2-30.8-60.1-50.6-84.6h-1.1C137.3,24.7,154,52.7,168.3,85
		c32.2,73.2,46.6,158.8,60.6,241.6c16.4,97.7,33.4,198.6,79.6,282.8c24.9,45.4,55.9,82.2,94.9,112.6c43.8,34.2,96.4,59.4,160.8,77.1
		l0.6,0.2l-0.1-0.6c-7.1-84.6,50.2-198,125.1-247.8c41.2-27.3,82-31.8,118.2-12.9c42,21.9,76.2,73.9,101.6,154.4
		c21.4,67.8,36.1,155.2,43.9,260.6c-8.4-103.4-23.3-189-44.5-255.4c-13.1-41-28.6-74.7-46.2-100.4c-16.2-23.7-34.3-40.7-53.8-50.6
		c-34.3-17.4-72.5-12.7-110.5,13.5c-34.4,23.7-66.8,64.6-89,112.2c-22.7,48.8-32.8,99.4-28.4,142.5
		c-68.7-16.6-124.8-41.3-171.3-75.3c-41.5-30.4-74.4-67.5-100.5-113.6c-48.5-85.6-65.5-189.1-81.9-289.2
		c-13.5-82.7-27.5-168.1-59.4-241c-16.2-37.1-35.8-68.4-59.7-95.4h-1.2c24.1,27.1,43.8,58.5,60.1,95.8
		c31.8,72.8,45.8,158.2,59.4,240.8c16.4,100.2,33.4,203.8,82,289.5c26.2,46.2,59.2,83.5,100.8,113.9c46.8,34.2,103.1,59,172.3,75.6
		l0.6,0.2l-0.1-0.6C572.9,727.6,626.4,611,699.1,561c37.8-26,75.7-30.6,109.6-13.4c40.8,20.7,74.3,71.3,99.5,150.4
		c21.1,66.3,36,151.6,44.4,254.7c-9-101-24-184.5-44.9-249.4c-25.1-78-58.1-127.5-97.8-147.1c-32-15.8-67.3-11-102.1,13.7
		c-33.3,23.7-64.2,65.1-84.9,113.7c-21.3,50.1-30,102.6-24.5,147.9c-73.5-15.6-133.3-39.7-182.8-73.8
		c-44.1-30.4-78.9-67.9-106.4-114.8c-51-87.1-67.8-193.1-84.2-295.7c-13.1-82.5-26.7-167.9-58.2-240.5c-17-39-37.6-71.5-63.3-99.4
		c-2.2-2.4-4.5-4.8-6.8-7.1h-1.3c2.5,2.5,5,5.1,7.4,7.7c25.5,27.7,46.2,60.2,63.1,99.1c31.5,72.5,45,157.7,58.2,240.2
		c16.3,102.6,33.2,208.8,84.3,296c27.5,47,62.4,84.7,106.7,115.1c49.7,34.2,109.8,58.4,183.7,74.1l0.7,0.1l-0.1-0.7
		c-5.7-45.3,2.9-97.9,24.3-148.1c20.6-48.4,51.4-89.7,84.5-113.3c34.5-24.5,69.4-29.2,101.1-13.6c39.5,19.5,72.3,68.8,97.4,146.6
		c20.7,64.3,35.7,147.1,44.7,247c-9.5-97.7-24.6-178.7-45.1-241.6c-25-76.7-57.1-124.9-95.6-143.3c-29.7-14.2-62.2-9.5-93.7,13.6
		c-32.1,23.6-61.5,65.5-80.7,115.2c-19.9,51.5-27.2,106-20.5,153.5c-78.2-14.5-141.8-38.1-194.2-72.1
		c-46.7-30.3-83.4-68.2-112.2-115.9c-53.4-88.5-70.1-197-86.3-302c-12.7-82.5-25.9-167.8-57-240.1c-16.8-38.9-37.3-71.2-62.8-98.9
		C97.3,12.2,90.9,6,84.4,0h-1.5c6.8,6.2,13.4,12.6,19.7,19.5c25.4,27.5,45.9,59.8,62.6,98.6c31.1,72.2,44.2,157.4,57,239.8
		c32.6,211.6,66.4,430.4,394.2,491l0.7,0.1l-0.1-0.7c-6.8-47.5,0.4-102.1,20.3-153.7c19.1-49.5,48.4-91.3,80.4-114.7
		c31.3-22.9,63.3-27.6,92.7-13.6c38.2,18.3,70.2,66.3,95.1,142.7c20.3,62.5,35.3,142.7,44.9,239.6c-10-94.6-25.2-173-45.2-234.1
		c-12.7-38.8-27.5-70.4-43.9-94.2c-15.1-21.9-31.7-37.2-49.3-45.4c-27.5-12.8-57.1-8.2-85.7,13.4c-31,23.4-58.9,65.9-76.6,116.6
		c-18.5,53-24.3,109.5-16.5,159.3c-346.4-56-379.8-279.4-412-495.4c-12.9-86.3-25-167.8-55.8-239.9c-16.6-38.8-36.9-71-62.3-98.4
		C92.9,19.5,82,9.3,70.3,0h-1.6c12,9.6,23.2,19.9,33.6,31.2c25.3,27.4,45.6,59.5,62.1,98.1c30.7,72,42.9,153.4,55.8,239.6
		c32.3,216.6,65.8,440.5,413.6,496.4l0.7,0.1l-0.1-0.7c-8-49.8-2.2-106.5,16.3-159.5c17.6-50.5,45.4-92.8,76.3-116.1
		c28.2-21.3,57.5-25.9,84.6-13.3c17.4,8.1,33.9,23.3,48.9,45c16.3,23.6,31,55.2,43.8,93.9c19.9,60.6,35,138.5,45,232.3
		c-10.5-91.6-25.6-167.5-45.3-226.7c-12.6-38-27.1-69-43-92.1c-14.7-21.3-30.8-36.1-47.7-43.7c-25.2-11.4-52.2-7-77.8,12.9
		c-29.8,23.1-56.2,66.1-72.5,117.9c-17.1,54.4-21.4,113.1-12.3,165.3C284.3,829.4,251.3,600.9,219.5,380
		c-12.4-86.3-24.2-167.9-54.7-239.8c-16.4-38.7-36.6-70.8-61.9-98.1C88.2,26.2,72,12.2,54.1-0.3h-1.9c18.4,12.6,34.9,26.9,49.9,43.1
		c25.2,27.2,45.3,59.2,61.7,97.8c30.4,71.8,42.2,153.3,54.6,239.6c31.9,221.5,64.9,450.5,432.9,501.6l0.7,0.1l-0.1-0.7
		c-9.2-52.3-4.9-111.1,12.2-165.6c16.2-51.6,42.5-94.4,72.1-117.3c25.3-19.6,51.9-24.1,76.7-12.8c39.4,17.9,104.8,90.2,135.7,365
		c-11-90.6-26.3-165.7-45.8-224.1c-23.9-71.6-54.4-117.3-88.1-132.1c-23-10.2-47.4-5.9-70.3,12.4c-28.7,22.8-53.5,66.2-68.3,119.1
		c-15.6,55.9-18.4,116.8-8.1,171.5C281.5,851,249,617.5,217.7,391.8c-12-86.4-23.4-168.1-53.5-239.9c-16.2-38.6-36.3-70.6-61.5-97.8
		C83.1,32.9,60.7,15,35-0.1h-2.2c26.3,15.3,49.2,33.4,69.1,55C127,82,147,113.8,163.2,152.3c30.1,71.7,41.4,153.3,53.4,239.6
		c15.6,112,31.7,227.9,92.3,320.5c32.7,50,75.2,89,129.9,119.1c61.6,33.9,136.8,55.8,229.9,66.9l0.8,0.1l-0.1-0.8
		c-10.5-54.8-7.6-115.8,7.9-171.8c14.7-52.7,39.4-95.9,67.9-118.5c22.6-18,46.5-22.2,69.2-12.2c33.4,14.7,63.7,60.2,87.5,131.5
		c19.2,57.5,34.4,131.3,45.3,220.3c-11.4-86.6-26.6-158.4-45.4-214.5c-23.6-70.2-53.2-114.7-85.4-128.5c-20.9-9-42.7-4.9-63.1,11.7
		c-27.5,22.3-50.8,66.2-64,120.2c-14,57.4-15.3,120.5-3.7,177.8c-97.5-9.9-176.1-31.1-240.3-64.7c-57.2-29.9-101.4-69-135.3-119.6
		c-62.8-93.7-78.6-211.7-93.8-325.9c-11.6-86.6-22.5-168.4-52.3-240.1c-16-38.6-36-70.5-61.1-97.5C77.6,38.7,47.8,17,12.1-0.2H9
		c36.6,17.4,66.9,39.3,92.5,66.9c25,26.9,44.9,58.7,60.9,97.2c29.8,71.6,40.7,153.3,52.3,239.8c15.3,114.3,31.1,232.5,94,326.4
		c34,50.7,78.3,89.9,135.7,120c64.5,33.8,143.5,55,241.5,64.9l0.8,0.1l-0.2-0.8c-11.7-57.3-10.5-120.6,3.6-178.1
		c13.1-53.8,36.3-97.4,63.6-119.6c20-16.3,41.5-20.3,61.9-11.5c31.9,13.7,61.2,57.9,84.7,127.8c18.8,55.9,34,127.4,45.3,213.6
		c-11.8-83.8-26.9-153.3-45.4-207.7c-23.4-68.9-51.9-112.1-82.6-124.9c-18.8-7.9-38.3-4.1-56.3,10.9c-26.2,21.8-48,66-59.6,121.2
		c-12.4,58.9-12.2,124.3,0.8,184.3c-102.3-8.7-184.7-29.2-251.9-62.7c-59.8-29.8-105.9-69.1-141-120.3
		c-65.1-94.9-80.5-215.3-95.5-331.6C203,328.9,192.4,247,162.9,175.3c-15.9-38.6-35.7-70.4-60.8-97.3C74.1,47.8,40.3,24.5-1.1,6.5
		l-0.5,1.1c41.3,17.9,74.9,41.1,102.8,71.2c24.9,26.8,44.7,58.6,60.5,97c29.5,71.6,40,153.4,51.1,240.1
		c15,116.5,30.4,237,95.7,332.2c35.2,51.4,81.5,90.9,141.4,120.7c67.5,33.6,150.3,54.2,253.1,62.9l0.8,0.1l-0.2-0.8
		c-13-60-13.4-125.6-0.9-184.6c11.6-54.9,33.2-98.8,59.2-120.5c17.6-14.7,36.7-18.4,55.1-10.7c30.4,12.7,58.7,55.6,81.9,124.2
		c18.4,54.2,33.5,123.6,45.3,207.2c-12.1-81.1-27.3-148.4-45.2-201.2c-23-67.6-50.6-109.5-79.7-121.3c-16.8-6.8-34.1-3.3-49.9,10.1
		c-25,21.2-45.1,65.7-55.1,122.1c-10.8,60.4-8.9,128.2,5.4,190.9c-107.1-7.5-193.3-27.3-263.5-60.6
		c-62.4-29.6-110.4-69.2-146.7-121.1c-67.3-96.1-82.4-218.7-97-337.3c-10.7-87-20.8-169.1-50-240.8c-15.7-38.5-35.5-70.3-60.4-97.2
		C74.2,60.1,40.4,36.9-1,19.2l-0.5,1.2C39.8,38,73.4,61.2,101.2,91.1c24.9,26.7,44.5,58.4,60.2,96.8c29.2,71.5,39.3,153.6,50,240.5
		c14.6,118.7,29.7,241.5,97.3,337.9c36.5,52,84.6,91.8,147.2,121.5c70.5,33.5,157.1,53.3,264.8,60.8l0.8,0.1l-0.2-0.8
		c-14.4-62.7-16.4-130.6-5.6-191.2c10-56,29.9-100.3,54.7-121.3c15.4-13.1,32.2-16.5,48.6-9.9c28.8,11.7,56.1,53.4,79,120.6
		c18,52.7,33.1,120.1,45.2,201.1c-12.5-78.5-27.6-143.9-45.1-195.1c-22.7-66.2-49.3-107-76.8-117.8c-14.9-5.9-30.1-2.7-43.8,9.2
		c-23.7,20.6-42.1,65.3-50.5,122.8c-9,62-5.4,132.1,10.2,197.6c-112-6.2-202-25.3-275.1-58.4c-65-29.4-114.8-69.3-152.4-121.8
		c-69.6-97.3-84.3-222.1-98.5-342.9c-10.3-87.2-20-169.6-48.9-241.3c-15.6-38.5-35.2-70.3-60.1-97.1c-27.9-30-61.6-53-103.1-70.6
		L-1.4,33c41.4,17.5,75,40.4,102.7,70.3c24.8,26.7,44.4,58.3,59.9,96.7c28.9,71.5,38.6,153.8,48.8,240.9
		c14.2,120.9,29,245.9,98.8,343.5c37.7,52.7,87.7,92.7,152.9,122.2c73.4,33.3,163.9,52.5,276.4,58.6h0.9l-0.2-0.8
		c-34-141.3-6.9-279.5,39.7-319.9c13.5-11.7,27.8-14.8,42.5-9c27.2,10.7,53.5,51.2,76,117c17.6,51.4,32.7,117,45.2,195.9
		c-12.8-76.4-27.9-140-45.1-189.8c-22.4-64.9-47.9-104.4-73.8-114.3c-13.3-5.1-26.2-2.3-38.1,8.3C740.7,692,717.9,833,754.7,980.4
		C637.8,975.5,544,957.1,468,924.1c-67.6-29.3-119.3-69.3-158.1-122.4c-71.9-98.4-86.1-225.5-100-348.4
		c-9.8-87.5-19.1-170.1-47.8-241.8c-15.4-38.6-35-70.3-59.8-97C74.4,84.3,40.6,61.4-1,44l-0.5,1.2c41.4,17.3,75,40.1,102.7,69.9
		c24.8,26.6,44.2,58.2,59.6,96.6c28.6,71.6,37.9,154.1,47.7,241.5c13.8,123.1,28.2,250.3,100.2,349c38.9,53.3,90.8,93.5,158.6,122.9
		c76.4,33.1,170.6,51.5,288.1,56.4h0.9l-0.2-0.9c-36.9-147.2-14.3-288.1,29.9-327.3c11.6-10.3,23.9-13,36.8-8.1
		c25.5,9.8,50.7,49,73,113.5c17.2,50,32.3,113.8,45.2,190.6c-13.1-74.2-28.2-135.9-45-184.4C874,701.3,849.6,663,825.3,654
		c-11.6-4.3-22.7-1.8-32.9,7.4c-21,19-35.9,64.1-40.8,123.8c-5.4,65,1.8,140,20.3,211.3c-121.7-3.6-219.4-21.3-298.4-54
		c-70.2-29.1-123.8-69.3-163.8-123.1c-74.1-99.6-87.9-228.8-101.3-353.9c-9.4-87.8-18.3-170.7-46.7-242.5
		c-15.3-38.6-34.7-70.3-59.6-97C74.3,96.2,40.6,73.4-1.1,56.2l-0.5,1.3C39.9,74.6,73.5,97.3,101.2,127
		c24.7,26.5,44.1,58.1,59.3,96.5c28.3,71.6,37.2,154.4,46.6,242.1c13.4,125.2,27.3,254.7,101.6,354.5c40.2,54,93.9,94.4,164.3,123.5
		c79.4,32.9,177.4,50.6,299.8,54.2h0.9l-0.2-0.9c-18.6-71.4-25.9-146.6-20.5-211.7c4.9-59.4,19.6-104.2,40.4-122.9
		c9.8-8.9,20.4-11.3,31.5-7.2c16.6,6.2,42.2,30.3,69.8,110c16.8,48.5,31.9,110.4,45,184.8c-13.4-71.7-28.4-131.5-44.7-178.5
		c-21.6-62.2-45-99.4-67.5-107.5c-10-3.6-19.4-1.4-28.1,6.6c-19.6,18.1-32.7,63.3-35.8,124.1c-3.4,66.5,5.7,144,25.6,218.3
		c-126.6-2.3-228.1-19.3-310-51.8c-72.8-28.9-128.2-69.3-169.4-123.7c-76.3-100.7-89.7-232.1-102.7-359.3
		c-9-88.1-17.5-171.3-45.6-243.2c-15.1-38.6-34.5-70.4-59.3-97C74.5,108.2,40.7,85.4-1.1,68.4l-0.5,1.3
		C171.3,140,188,304.3,205.7,478.1c13,127.3,26.4,259,102.9,360c41.4,54.6,97,95.2,170,124.1c82.4,32.6,184.2,49.6,311.5,51.9h1
		l-0.2-0.9c-20.1-74.4-29.3-152.1-25.8-218.8c3.1-59.6,16.3-105.6,35.3-123.2c8.2-7.6,17.2-9.7,26.6-6.3
		c15.4,5.5,39.5,28.5,66.7,106.6c16.4,47.1,31.4,107.1,44.8,179.2c-13.7-69.4-28.6-127.3-44.5-172.9
		c-21.2-60.9-43.5-96.9-64.3-104.1c-8.5-2.9-16.4-1-23.6,5.7c-17.9,16.8-29.4,63.3-30.6,124.3c-1.4,68,9.7,148.1,31.1,225.4
		c-131.5-1-236.8-17.2-321.7-49.5c-75.4-28.6-132.7-69.3-175.1-124.2C231.3,753.6,218.4,620,205.9,490.8
		c-8.5-88.4-16.6-171.9-44.5-243.9c-15-38.7-34.3-70.4-59.1-97C74.6,120.2,40.8,97.6-1.2,80.7l-0.5,1.4
		c173.3,69.7,189.2,234.4,206.1,408.8c12.5,129.4,25.5,263.3,104.2,365.4c42.6,55.2,100.1,96,175.7,124.7
		c85.3,32.4,191,48.6,323.2,49.6h1l-0.3-0.9c-21.6-77.5-32.7-157.7-31.4-225.9c1.2-60.6,12.5-106.7,30.1-123.3
		c6.8-6.3,14.2-8.2,22.1-5.4c14.2,4.9,36.8,26.9,63.4,103.2c16,45.8,30.9,104,44.6,173.8c-14-67.2-28.7-123.2-44.2-167.4
		c-26.3-75.2-47.7-96.4-61-100.8c-7.1-2.4-13.7-0.7-19.6,4.9c-16.5,15.8-25.9,62.2-25.3,124.3c0.8,69.5,13.8,152.1,36.8,232.6
		c-69,0.2-132.4-3.9-188.6-12.1c-53.6-7.8-102.4-19.6-144.8-35.1c-78-28.4-137.1-69.2-180.7-124.8
		c-80.7-102.8-93.1-238.6-105.1-369.9C188.4,328.3,173.3,162.5-1.3,93.2l-0.6,1.4C171.9,163.6,187,328.9,203,503.9
		c12,131.5,24.5,267.6,105.5,370.7c43.8,55.8,103.1,96.8,181.4,125.3c42.5,15.5,91.4,27.3,145.1,35.1
		c56.5,8.2,120.4,12.3,189.8,12.1h1l-0.3-1c-23.1-80.7-36.3-163.5-37.1-233.2c-0.7-61.7,8.6-107.7,24.8-123.2
		c5.5-5.2,11.6-6.8,18.1-4.6c13,4.4,34,25.2,60.1,99.9c15.5,44.5,30.4,100.9,44.4,168.7c-14.2-65-28.9-119.3-43.9-162.2
		c-25.8-73.6-45.6-93.7-57.7-97.6c-5.9-1.9-11.3-0.5-16,4.1c-15,14.6-22.4,61-19.8,124.2c3,71,18.2,156.2,42.7,239.9
		c-71.5,0.8-137.2-2.7-195.3-10.5c-55.5-7.4-105.9-19-149.8-34.3c-80.6-28.2-141.6-69.2-186.4-125.3
		c-82.9-103.9-94.8-241.8-106.3-375.2C188.1,340.7,173.7,174.3-1.4,105.5L-2,107c174.2,68.4,188.6,234.3,203.7,409.9
		c11.5,133.6,23.5,271.8,106.7,376.1c45,56.4,106.2,97.5,187.1,125.8c44,15.4,94.5,26.9,150.1,34.4c58.5,7.8,124.6,11.4,196.6,10.5
		h1l-0.3-1c-24.7-83.9-40-169.3-43-240.5c-2.6-62.7,4.6-108.7,19.3-123c4.3-4.2,9.2-5.5,14.5-3.8c16.6,5.4,36.8,39.7,56.7,96.6
		c15.1,43.2,29.9,98,44.3,163.7c-14.5-63-29.1-115.6-43.7-157.2C866,727.4,847.7,708.3,836.8,704.9z M860.6,797.5
		c-0.2-0.6-0.3-1.1-0.5-1.7c0.3,0.6,0.5,1.3,0.8,2C860.8,797.6,860.7,797.5,860.6,797.5z M878.1,848.3c7,19.1,16,43.8,27,73.8
		c6.2,18.1,13,38.1,20.5,60C904.3,922.8,888.6,878.5,878.1,848.3z M302.2,457c1.4,7.1,2.9,14.2,4.5,21.2c0-0.1-0.1-0.3-0.1-0.4
		c-3.2-9.4-6.1-19.1-9-28.8c-0.9-6.2-1.8-12.5-2.6-18.8C297.2,439.3,299.6,448.2,302.2,457z M294.4,426.6
		c-0.8-5.8-1.5-11.5-2.2-17.4c1.7,7.8,3.5,15.5,5.3,23.2c1.2,6.5,2.4,13,3.7,19.4C298.8,443.5,296.6,435.1,294.4,426.6z
		 M384.2,625.6c-3.3-3.8-6.5-7.7-9.7-11.7c0.1-0.2,0.2-0.4,0.3-0.6C377.8,617.5,380.9,621.6,384.2,625.6z M375,612.9
		C375,612.9,375,612.8,375,612.9c5.1,6.5,10.4,12.8,15.8,19c-0.1,0.2-0.2,0.5-0.3,0.7C385.1,626.2,379.9,619.7,375,612.9z
		 M374.7,612.6c-0.9-1.2-1.8-2.5-2.7-3.7C372.9,610,373.8,611.3,374.7,612.6C374.7,612.5,374.7,612.5,374.7,612.6z M374.5,613
		c-0.1,0.2-0.2,0.4-0.3,0.6c-5.1-6.4-9.9-13-14.7-19.9c0.3-0.4,0.6-0.9,0.9-1.3c0.2,0.4,0.5,0.7,0.7,1
		C365.4,600.1,369.9,606.7,374.5,613z M374,614.1c-0.3,0.7-0.6,1.3-0.9,1.9c-4.8-7.1-9.5-14.3-13.9-21.8c0,0,0-0.1,0.1-0.1
		C364,601,368.9,607.7,374,614.1z M359.4,593.4c-1.5-2.2-3-4.4-4.5-6.7c-2.7-4.8-5.3-9.7-7.9-14.7c0.2-0.2,0.3-0.4,0.5-0.6
		c4.1,7.1,8.4,14,12.8,20.6C359.9,592.5,359.6,592.9,359.4,593.4z M344.7,577.5c-0.3-0.6-0.5-1.1-0.8-1.7c0.6-0.8,1.3-1.6,2-2.5
		c2.5,4.1,5,8.2,7.6,12.1c0.7,1,1.4,2,2,3.1c1.1,1.9,2.2,3.8,3.3,5.7c-0.5,0.8-1,1.6-1.4,2.4C353,590.5,348.8,584.1,344.7,577.5z
		 M357,597.2c-0.5,0.8-0.9,1.6-1.3,2.3c-3.1-5.8-6.1-11.7-9-17.7C350.1,587.1,353.5,592.2,357,597.2z M331.3,564.3
		c-0.8-2.2-1.5-4.3-2.3-6.5c0.7-0.8,1.5-1.6,2.3-2.4c3.8,7.2,7.8,14.1,11.9,20.9c-1,1.3-1.9,2.5-2.7,3.7
		C337.4,574.8,334.3,569.6,331.3,564.3z M340.2,580.4c-0.6,0.9-1.2,1.8-1.7,2.6c-2.1-5.1-4-10.3-5.9-15.5
		C335,571.9,337.5,576.2,340.2,580.4z M316,546.9c-0.5-2.2-1.1-4.5-1.6-6.8c0.8-0.8,1.7-1.6,2.6-2.4c3.4,7.3,7,14.3,10.7,21.1
		c-1.3,1.4-2.5,2.7-3.5,3.9C321.4,557.6,318.6,552.3,316,546.9z M323.7,563.3c-1,1.2-1.9,2.2-2.6,3.2c-1.5-5.5-3-11.1-4.4-16.7
		C319,554.4,321.3,558.9,323.7,563.3z M317.5,537.3c1.1-0.9,2.2-1.9,3.3-2.9c0.4,0.8,0.8,1.6,1.1,2.4c2.2,7.1,4.4,14,6.8,20.9
		c-0.2,0.2-0.4,0.4-0.6,0.7C324.4,551.6,320.9,544.5,317.5,537.3z M331.3,546.9c0.8,2,1.5,3.9,2.3,5.8c-0.7,0.7-1.3,1.4-2,2
		c-3.4-6.4-6.7-13-9.9-19.8c-0.1-0.3-0.2-0.7-0.3-1c0.8-0.7,1.7-1.5,2.6-2.2C326.3,536.8,328.7,541.9,331.3,546.9z M324.3,531.3
		c0.3-0.3,0.6-0.5,0.9-0.8c1.4,3.9,2.8,7.7,4.2,11.5C327.7,538.5,326,534.9,324.3,531.3z M332.8,549.8c0.4,0.8,0.8,1.6,1.3,2.4
		c-0.1,0.1-0.1,0.1-0.2,0.2C333.5,551.5,333.1,550.6,332.8,549.8z M343.2,575c-4-6.5-7.8-13.2-11.5-20.1c0.6-0.7,1.3-1.3,2-2
		C336.7,560.5,339.9,567.9,343.2,575z M331.2,555.1c-0.8,0.8-1.5,1.6-2.2,2.4c-2.2-6.3-4.2-12.6-6.2-19
		C325.5,544.2,328.3,549.7,331.2,555.1z M321.3,533.7c-2.2-7.5-4.4-15.1-6.4-22.7c2.9,7,5.9,13.9,8.9,20.5
		C323,532.2,322.1,532.9,321.3,533.7z M328.8,558c0.5,1.6,1.1,3.1,1.6,4.7c-0.7-1.3-1.5-2.7-2.2-4.1
		C328.4,558.4,328.6,558.2,328.8,558z M333.9,552.7c0.1-0.1,0.1-0.2,0.2-0.2c3.7,7.1,7.6,14,11.6,20.6c-0.7,0.8-1.3,1.7-1.9,2.5
		C340.4,568.1,337.1,560.5,333.9,552.7z M341.1,560.1c1.8,3.4,3.7,6.7,5.6,10c0.2,0.3,0.4,0.7,0.6,1c-0.2,0.2-0.3,0.4-0.5,0.6
		C344.9,567.9,343,564,341.1,560.1z M351.8,582c-1.9-3-3.8-6-5.6-9.1c0.2-0.2,0.3-0.4,0.5-0.6C348.4,575.6,350.1,578.8,351.8,582z
		 M346.6,572c-0.2,0.2-0.3,0.4-0.5,0.6c-4-6.7-7.8-13.5-11.6-20.6c0.5-0.5,1-1,1.6-1.6c0.5,1,1,2,1.5,3
		C340.5,559.8,343.5,566,346.6,572z M358.6,593.1c0.2,0.2,0.3,0.5,0.5,0.7c0,0,0,0,0,0.1C358.9,593.7,358.7,593.4,358.6,593.1z
		 M347.8,571L347.8,571c0.9,1.4,1.8,2.9,2.6,4.4C349.5,574,348.6,572.5,347.8,571z M340.1,555.3c-1-2-2-4-2.9-6
		c10.5-10.5,25.2-23.8,43.7-38.7c24.1-19.5,62.6-48.1,109.6-74.2c47.5-26.3,93.1-44.2,135.6-53.3c51.2-10.9,97.6-8.7,138,6.5
		c32.7,12.3,61.8,33.4,86.7,62.6C878,484.3,900.6,526.9,918,579c18.9,56.5,32.1,125.5,39.2,205.1c6.3,69.9,8,149.4,5.2,237
		c2.4-88.7,0.2-168.9-6.6-239.1c-7.8-79.6-21.7-148.3-41.3-204.1C880,479.6,827,418.6,757,396.4c-39.2-12.4-83.7-12.6-132.4-0.6
		c-40.8,10.1-84,28.6-128.5,54.9c-45.1,26.8-80.8,55.3-102.7,74.5c-18.4,16.1-34.6,32.3-45.4,45.1
		C345.3,565.5,342.7,560.5,340.1,555.3z M339.7,555.5c2.6,5.2,5.2,10.2,8,15.2l-0.1,0.1c-0.2-0.3-0.3-0.6-0.5-0.9
		c-3.4-6-6.7-12.1-9.9-18.4c-0.2-0.5-0.4-1-0.7-1.5c0.1-0.1,0.3-0.3,0.4-0.4C337.8,551.6,338.8,553.6,339.7,555.5z M336.4,549.8
		c-1.2-2.7-2.4-5.4-3.6-8.2c-1.1-2.7-2.3-5.4-3.4-8.1c2.4,5.4,4.8,10.7,7.3,15.9C336.6,549.6,336.5,549.7,336.4,549.8z M334.4,551.8
		c-1.2-2.2-2.3-4.5-3.5-6.8c-1.9-4.8-3.7-9.7-5.4-14.8c0.2-0.2,0.5-0.4,0.7-0.6c3.2,7,6.4,13.9,9.8,20.6
		C335.4,550.8,334.9,551.3,334.4,551.8z M325.4,530.1c-1.1-3.2-2.2-6.4-3.3-9.7c1.3,3.1,2.6,6.1,4,9.2
		C325.9,529.7,325.6,529.9,325.4,530.1z M325.2,530.3c-0.3,0.3-0.6,0.5-0.9,0.8c-3.6-7.7-7-15.7-10.3-23.9
		c-1.9-7.4-3.7-14.8-5.4-22.3c3.8,11,7.8,21.5,12,31.5C322,521.2,323.6,525.8,325.2,530.3z M307.5,480.8c-1.5-6.8-3-13.7-4.4-20.7
		c0.7,2.5,1.5,5,2.2,7.5c2.1,6.9,4.3,13.7,6.5,20.3c2.2,7.9,4.5,15.5,6.8,22.9C314.8,501.1,311.1,491.2,307.5,480.8z M306.1,478
		c0.5,1.5,1,3,1.5,4.5c1.7,7.6,3.6,15.2,5.5,22.7c-2-5.1-4-10.3-5.9-15.6c-2.1-5.7-4.1-11.5-6-17.3c-1.1-6.6-2.1-13.2-3.1-19.8
		C300.6,461.1,303.3,469.6,306.1,478z M306.7,489.7c2.4,6.6,4.9,13,7.4,19.2c2.1,8.2,4.4,16.2,6.8,24.2c-4.6-9.9-9-20.1-13.2-30.8
		c-0.8-2-1.6-4.1-2.4-6.1c-1.3-6.9-2.5-13.8-3.6-20.8C303.3,480.2,304.9,485,306.7,489.7z M307.1,502.5c4.3,11,8.8,21.5,13.6,31.7
		c-1.1,1-2.3,2-3.3,2.9c-2.5-5.3-4.9-10.6-7.2-16.1c-1.5-7.2-3-14.5-4.3-21.8C306.2,500.3,306.7,501.4,307.1,502.5z M316.9,537.5
		c-0.9,0.8-1.8,1.6-2.6,2.3c-1.2-5.3-2.4-10.6-3.6-15.9C312.8,528.6,314.8,533.1,316.9,537.5z M315.5,545.8
		c-0.8-1.6-1.5-3.1-2.2-4.7c0.3-0.3,0.6-0.6,0.9-0.8C314.6,542.1,315.1,544,315.5,545.8z M316.2,548.7c1.5,6.1,3,12.1,4.7,18
		l0.1,0.2l0.1-0.2c0.8-1,1.7-2.1,2.7-3.3c14.2,26.4,30.4,49.8,49,71c29.1,33.1,63.3,59.8,104.5,81.6l0.4,0.2v-0.5
		c1.3-21.2,10.3-47.1,26-75s36.9-55.7,61.3-80.5c26.2-26.5,55.2-48.4,83.8-63.4c32.4-16.9,63.8-24.9,93.4-23.9
		c30.2,1.1,58.1,11.8,82.7,31.7c27.4,22.2,51.1,56,70.4,100.5c36.3,83.8,57.4,205.5,63,362.6c-6.4-154.6-27.7-274.3-63.6-356.5
		c-19.1-43.8-42.5-77-69.4-98.5c-24.3-19.4-51.6-29.5-81-29.9c-0.7,0-1.3,0-2,0c-53.8,0-114.7,32.6-167.2,89.7
		c-47.5,51.7-79.1,114-80.6,159.1c-45.5-21-83.1-47.5-114.9-80.8c-28.4-29.7-51.6-64.3-70.9-105.7c1.3-1.2,2.6-2.5,4.1-3.8
		C313.9,544,315.1,546.4,316.2,548.7z M895.9,605.1c-19.3-44.6-43.1-78.5-70.6-100.8c-24.8-20.1-52.8-30.8-83.1-31.9
		c-29.7-1.1-61.2,7-93.7,23.9c-28.7,15-57.7,36.9-84,63.5c-24.5,24.8-45.7,52.7-61.4,80.6c-15.6,27.8-24.6,53.6-26.1,74.8
		c-40.9-21.7-74.9-48.3-103.9-81.2c-18.6-21.1-34.7-44.6-49-71.1c1.1-1.2,2.2-2.5,3.5-3.9c1.3,2.3,2.5,4.7,3.8,7
		c2.1,5.8,4.3,11.6,6.6,17.3l0.1,0.3l0.2-0.2c0.6-0.9,1.2-1.8,1.8-2.7c8.1,13.1,16.8,25.4,26.1,37.1c26.2,32.7,56.7,59.4,93.4,81.8
		l0.4,0.2v-0.5c4.3-41.5,42.3-102.5,94.5-151.9c27.9-26.4,58.5-48,88.3-62.5c34-16.6,66.9-24,97.6-22.2c31,1.8,59.5,13.2,84.6,33.9
		c27.9,23,51.9,57.6,71.3,102.9c36.9,86.2,57.8,211.2,62.3,372.6C953.7,812.9,932.5,689.7,895.9,605.1z M897.3,599.2
		c-19.5-45.4-43.5-80.1-71.5-103.2c-25.2-20.8-53.8-32.2-85-34c-30.8-1.8-63.7,5.7-97.9,22.3c-29.9,14.6-60.5,36.2-88.5,62.6
		c-52.2,49.3-90.1,110.3-94.7,151.9c-36.4-22.3-66.8-48.9-92.9-81.4c-9.4-11.7-18.1-24.1-26.2-37.2c0.8-1.2,1.7-2.4,2.7-3.7
		c0.6,1,1.2,2,1.8,3c3.3,7,6.8,13.8,10.4,20.5l0.1,0.3l0.1-0.3c0.4-0.8,0.9-1.6,1.3-2.5c0.9,1.3,1.8,2.6,2.8,3.9
		c23.3,32.1,50.2,58.8,82.5,81.5l0.4,0.3l0.1-0.4c5.9-39.6,47.9-100.7,102.1-148.6c29.7-26.3,61.9-47.6,93.1-61.7
		c35.8-16.2,70.1-23,102-20.3c31.8,2.7,60.8,14.9,86.3,36.4c28.3,23.8,52.6,59.3,72.1,105.5c37.4,88.5,57.9,216.8,61.3,382.2
		C955.5,812.7,934.6,686.2,897.3,599.2z M898.9,593.8c-19.5-46.3-43.8-81.8-72.2-105.7c-25.6-21.5-54.7-33.8-86.6-36.5
		s-66.3,4.2-102.2,20.4c-31.2,14.1-63.5,35.4-93.2,61.7c-54.1,47.8-96,108.7-102.2,148.5c-32-22.7-58.8-49.2-82-81.2
		c-1-1.4-1.9-2.7-2.9-4.1c0.4-0.8,0.9-1.6,1.4-2.4c4.5,7.6,9.1,14.9,14,22l0.2,0.3l0.1-0.3c0.3-0.7,0.6-1.4,0.9-2.1
		c15.2,19.2,32,36.3,50.9,51.9l0.3,0.3l0.1-0.4c3.6-18,16.3-42.2,35.5-68c20.2-27.1,46-53.9,74.5-77.4
		c31.7-26.2,65.6-47.2,98.1-60.7c37.7-15.7,73.5-21.8,106.5-18.1c32.4,3.6,61.9,16.8,87.7,39.1c28.6,24.8,53,61.2,72.5,108.2
		c37.8,91,57.9,222.7,60.1,392.3C957.4,813.5,936.8,683.3,898.9,593.8z M900.8,589c-19.5-47.1-44-83.6-72.7-108.4
		c-25.9-22.4-55.4-35.6-87.9-39.2c-33.1-3.7-69,2.4-106.8,18.1c-32.6,13.6-66.5,34.6-98.3,60.8c-28.5,23.5-54.3,50.3-74.6,77.5
		c-19.2,25.7-31.8,49.7-35.5,67.8c-12.3-10.2-23.7-21-34.4-32.7c0.1-0.3,0.2-0.5,0.3-0.8c5.4,6,10.9,11.9,16.7,17.5l0.3,0.3l0.1-0.4
		c4.5-17.1,18.3-40.5,39-65.8c22.1-27,49.5-53.5,79.4-76.6c43.2-33.4,128.6-87.7,214.7-75.3c32.9,4.7,62.7,18.9,88.7,42.2
		c28.8,25.8,53.2,63.1,72.7,111c37.9,93.5,57.5,228.3,58.5,401.6C959.2,814.6,939,681.1,900.8,589z M961.5,992.5
		C961,816.4,941.3,679.6,903,585c-19.5-47.9-43.9-85.4-72.8-111.2c-26-23.3-55.9-37.6-88.9-42.3c-86.2-12.4-171.8,41.9-215.1,75.4
		c-29.9,23.1-57.4,49.6-79.4,76.7c-20.6,25.2-34.4,48.4-39,65.6c-5.7-5.6-11.2-11.4-16.6-17.4c11-30.7,58.6-88.9,126.8-138.2
		c36.5-26.4,73.2-46.2,109.1-58.7c41.7-14.6,80.8-18.8,116.2-12.4c70.5,12.6,124.9,66.3,161.7,159.6
		C942.9,677.9,961.9,815.7,961.5,992.5z M961.9,998.9c0.8-179.9-18.1-320-56.5-417.2c-36.9-93.4-91.4-147.2-162-159.8
		c-35.5-6.4-74.7-2.2-116.4,12.4c-35.9,12.6-72.7,32.4-109.2,58.8C449.7,542.3,402.2,600.5,391,631.3c-5.4-6.1-10.6-12.5-15.7-19
		c15.5-31.4,68.3-87.8,134.8-132.8c39-26.4,77.7-45.8,115.1-57.6c43.9-13.9,84.7-16.8,121.4-8.8c70.7,15.5,124.9,71.5,161.2,166.4
		c20.7,54.2,35.7,121.8,44.5,201C959.4,844.9,962.7,918.1,961.9,998.9z M952.7,780.4c-8.8-79.2-23.8-146.8-44.5-201.1
		c-36.3-95-90.7-151.1-161.5-166.6c-36.7-8.1-77.6-5.1-121.6,8.8c-37.5,11.9-76.2,31.2-115.2,57.7C443.5,524.2,390.7,580.5,375,612
		c-4.9-6.5-9.7-13.2-14.3-20.1c20.7-31.5,76.9-85.3,142.1-126.6c41.6-26.4,82.5-45.3,121.6-56.3c46.2-13,88.9-14.6,126.7-4.5
		c70.5,18.7,124.3,77.2,159.8,173.7c20.2,55,34.7,123.2,43,202.7c6.9,66.3,9.7,141.7,8.3,224.9C963.2,922.2,960,846.7,952.7,780.4z
		 M954.2,780.8c-8.3-79.5-22.8-147.7-43.1-202.8c-35.6-96.7-89.4-155.2-160-173.9c-38-10.1-80.7-8.6-126.9,4.5
		c-39.1,11-80,30-121.6,56.4c-43.3,27.4-76.2,55.8-96.2,74.8c-20.1,19.1-36.6,37.7-45.9,51.7c-0.1-0.1-0.1-0.2-0.2-0.3
		c-4.2-6.7-8.3-13.6-12.2-20.7c10.8-12.9,27-29,45.5-45.2c21.9-19.2,57.5-47.7,102.7-74.4c124.4-73.8,210.4-70.3,260.7-54.3
		c69.9,22.2,122.8,83.2,157.4,181.4c19.6,55.8,33.5,124.5,41.3,204.1c6.6,68.1,8.9,145.6,6.8,231.1
		C964.1,927,961.4,849.1,954.2,780.8z M485.5,421.8c50.7-26.3,98.9-43.6,143.3-51.4c25.7-4.5,50.4-5.9,73.4-4
		c25,2,48.7,7.9,70.3,17.4c15.6,6.9,30.5,15.9,44.3,26.8c14.4,11.4,28,25.1,40.3,40.7c12.9,16.4,24.8,35.3,35.4,56.3
		c11,21.9,20.9,46.7,29.4,73.6c18,57.1,30.5,126.3,37,205.7c5.9,71.5,7,152.7,3.5,242.2c3.2-90.8,1.5-173.1-5-245.1
		c-7.2-79.6-20.4-148.6-39.3-205.1c-17.4-52.1-40.1-94.8-67.3-126.9c-24.8-29.3-54-50.3-86.8-62.6c-40.4-15.2-86.9-17.4-138.1-6.5
		c-42.6,9-88.2,27-135.7,53.3c-47,26.1-85.5,54.7-109.6,74.2c-18.5,14.9-33.1,28.2-43.7,38.7c-3.2-6.7-6.4-13.6-9.4-20.8
		C359.9,500.9,416.9,457.4,485.5,421.8z M332.5,541.8c0.4,1,0.9,2,1.3,3c-2.5-5-4.9-10.2-7.3-15.5c0.2-0.2,0.4-0.4,0.6-0.5
		C328.9,533.2,330.7,537.6,332.5,541.8z M324.1,520.7c1,2.7,2,5.3,3,7.9c-0.2,0.2-0.4,0.4-0.6,0.5c-2.1-4.7-4.2-9.5-6.2-14.4
		c-2.2-6.9-4.4-14-6.5-21.3C317.1,502.9,320.5,512,324.1,520.7z M318.4,504.9c-2.3-6.1-4.5-12.3-6.6-18.7c-1.3-4.8-2.6-9.6-3.9-14.5
		C311.2,483.3,314.7,494.3,318.4,504.9z M304.3,458.9c0.2,0.6,0.3,1.2,0.5,1.7c1.6,6.7,3.3,13.3,5,19.7c-1.4-4.2-2.7-8.5-4.1-12.9
		c-1.2-4-2.4-8-3.5-12c-1.2-5.9-2.3-11.9-3.4-17.9C300.5,444.7,302.3,451.8,304.3,458.9z M301.7,447.7c-1.4-5.5-2.8-11.1-4.2-16.7
		c-0.8-4.2-1.5-8.5-2.2-12.8C297.3,428.1,299.4,437.9,301.7,447.7z M296.4,426.4c-1.7-7-3.2-14.1-4.8-21.2c-0.7-5.3-1.3-10.6-1.9-16
		c1.2,6.7,2.5,13.3,3.8,19.9C294.4,414.9,295.4,420.6,296.4,426.4z M291.7,397.9c-0.9-4.6-1.7-9.3-2.6-14c-0.5-3.9-0.9-7.9-1.4-11.9
		C289,380.7,290.3,389.3,291.7,397.9z M282.8,329.8c0.9,8.5,1.9,17,2.8,25.4c-0.7-4.6-1.3-9.2-1.9-13.8
		C283.3,337.6,283,333.7,282.8,329.8z M283.9,345.8c0.9,6.3,1.8,12.5,2.7,18.7c0.6,5.2,1.2,10.3,1.8,15.4
		c-1.1-6.4-2.3-12.9-3.4-19.4C284.7,355.7,284.3,350.7,283.9,345.8z M285.3,364c1.2,7.1,2.5,14.2,3.7,21.3
		c0.7,5.7,1.4,11.4,2.1,17.1c-1.6-7.5-3.1-15-4.6-22.5C286.1,374.6,285.7,369.4,285.3,364z M286.7,383c1.6,7.9,3.2,15.8,4.9,23.6
		c0.7,6,1.5,12,2.3,17.9c-2.1-8.3-4.1-16.8-6-25.2C287.5,393.9,287.1,388.5,286.7,383z M288.1,402.1c2,8.7,4.1,17.4,6.3,26
		c0.9,6.4,1.8,12.8,2.7,19.2c-2.7-9.2-5.2-18.6-7.6-28C289,413.6,288.5,407.9,288.1,402.1z M289.7,422c2.5,9.7,5.1,19.3,7.9,28.7
		c1,6.8,2,13.5,3.1,20.2c-3.4-10.2-6.5-20.6-9.5-31.1C290.6,433.8,290.1,427.9,289.7,422z M291.4,442.4c3.1,10.7,6.3,21.2,9.8,31.5
		c1.2,7,2.4,14,3.6,21c-4.2-11.2-8.1-22.7-11.8-34.3C292.4,454.6,291.9,448.5,291.4,442.4z M293.2,463.2
		c3.7,11.8,7.8,23.4,12.1,34.7c1.4,7.4,2.8,14.7,4.3,21.9c-0.6-1.3-1.1-2.6-1.7-3.9c-4.6-11.1-8.9-22.5-12.9-34
		C294.4,475.7,293.8,469.5,293.2,463.2z M297.5,503.9c-0.8-6.4-1.5-12.9-2.1-19.3c3.8,10.7,7.8,21.3,12.1,31.7
		c0.9,2.2,1.9,4.5,2.8,6.7c1.2,5.8,2.5,11.5,3.8,17.2c-0.3,0.3-0.6,0.6-1,0.9c-1.6-3.5-3.3-7-4.9-10.7
		C304.5,521.6,300.9,512.8,297.5,503.9z M300.3,526.5c-0.9-6.6-1.7-13.3-2.5-20c3.1,8.1,6.4,16.2,9.9,24.1c1.6,3.7,3.3,7.3,5,10.8
		c-1.5,1.4-2.9,2.7-4.1,3.8l0,0C305.7,539,302.9,532.8,300.3,526.5z M303.7,549.8c-1.1-6.9-2.1-13.8-3-20.7c2.3,5.5,4.7,11,7.2,16.4
		c0,0.1,0.1,0.2,0.1,0.2c-1.7,1.6-3.1,3-4.3,4.2C303.7,549.9,303.7,549.8,303.7,549.8z M914.9,676.8
		c-25.6-84.8-61.6-140.9-107-166.9c-53.8-30.8-108.3-12.1-144.4,8.9c-39.9,23.2-78,60.9-107.3,106c-28.2,43.4-44.4,88.4-44.4,123.6
		c-50.1-20.3-91.3-46.5-126.1-80.1c-31.1-30-56.3-65.3-77-107.8c-1.7-3.5-3.3-6.9-4.9-10.5c1.2-1.2,2.6-2.6,4.3-4.2
		c19.3,41.3,42.5,75.9,70.9,105.6c32,33.5,69.9,60,115.6,81.1l0.5,0.2v-0.5c1.2-45,32.8-107.4,80.4-159.2
		c52.4-57,113.1-89.5,166.7-89.5c0.7,0,1.3,0,2,0c29.3,0.4,56.4,10.5,80.6,29.8c26.8,21.5,50.1,54.5,69.2,98.2
		c35.9,82.2,57.1,201.7,63.6,356.2C952,849.8,937.7,752.1,914.9,676.8z"/>
	<path class="st2" d="M198.5,557.5c9.9,139.8,20.2,284.4,110,391.8c48.5,58.1,115.3,99.8,204.1,127.3c4.9,1.5,9.8,3,14.8,4.4h6.3
		c-7-1.9-13.9-3.9-20.6-6c-88.4-27.4-154.9-68.9-203.3-126.8c-89.4-107-99.7-251.3-109.6-390.9C187.5,379,175.5,210.6-1.4,143.6
		l-0.6,1.6C173.9,211.9,185.9,379.7,198.5,557.5z"/>
	<path class="st2" d="M199.6,544.1c10.5,137.8,21.3,280.2,108.9,386.6c47.4,57.5,112.3,99,198.4,126.8c29.2,9.4,61,17.2,95.3,23.4
		h9.6c-37.7-6.4-72.6-14.8-104.3-25c-85.8-27.7-150.5-69-197.6-126.3c-87.2-106-98.1-248.2-108.5-385.7
		C187.9,366.4,175.1,198.7-1.2,131.1l-0.6,1.5C173.4,199.9,186.1,367.1,199.6,544.1z"/>
</g>
</svg>
