<?xml version="1.0" encoding="UTF-8"?>
<svg width="1398px" height="789px" viewBox="0 0 1398 789" version="1.1" xmlns="http://www.w3.org/2000/svg" xmlns:xlink="http://www.w3.org/1999/xlink">
    <!-- Generator: sketchtool 48.2 (47327) - http://www.bohemiancoding.com/sketch -->
    <title>4F6C6372-EC41-41EE-9DC4-CB208A99F298</title>
    <desc>Created with sketchtool.</desc>
    <defs></defs>
    <g id="Python-developers-survey-2017-Copy-2" stroke="none" stroke-width="1" fill="none" fill-rule="evenodd" transform="translate(-42.000000, 0.000000)">
        <g id="background-01-01" transform="translate(42.000000, -332.000000)">
            <path d="M1549.93074,573.96989 C1549.93074,573.96989 1738.7358,425.98229 1501.04745,458.54234 C1433.63145,467.77741 1284.85291,477.66034 1501.04745,330.97782 C1733.63423,173.17359 1472.60567,251.00488 1165.50712,325.44297 C635.87965,453.8202 444.07726,183.54354 462.362,0.04958" id="Shape" stroke="#1C72BA"></path>
            <path d="M1549.32724,580.11819 C1549.32724,580.11819 1559.24515,570.85906 1573.33104,557.33695 C1584.49504,546.01646 1598.54835,530.86395 1606.24553,514.31009 C1623.63427,476.91309 1613.0208,449.78429 1487.72837,464.495 C1420.62558,472.37361 1273.71894,482.38871 1487.25216,337.081 C1716.98272,180.36785 1459.43354,256.539 1154.25664,329.56572 C628.245,455.5883 438.4601,187.49419 456.69405,4.99762" id="Shape" stroke="#2273BB" stroke-width="0.99383"></path>
            <path d="M1548.72374,586.2665 C1548.72374,586.2665 1556.40101,577.27826 1570.31083,563.92517 C1580.03965,553.37902 1593.89937,538.54095 1600.35015,520.19664 C1614.36862,480.33177 1600.9758,458.03215 1474.40929,470.44764 C1407.64315,476.99705 1262.58496,487.11705 1473.45686,343.18418 C1700.3312,187.56211 1446.26142,262.07318 1143.00616,333.68846 C620.61024,457.35641 432.843,191.44484 451.02606,9.94566" id="Shape" stroke="#2675BB" stroke-width="0.98765"></path>
            <path d="M1548.12025,592.41481 C1548.12025,592.41481 1553.55688,583.69745 1567.29062,570.51339 C1575.5843,560.74159 1589.27448,546.31852 1594.45476,526.08319 C1605.23917,483.95686 1588.99662,466.29051 1461.09021,476.40034 C1394.68295,481.64922 1251.45099,491.84544 1459.66157,349.2874 C1683.67969,194.7564 1433.08929,267.60731 1131.75568,337.81125 C612.97554,459.12451 427.22579,195.39549 445.35807,14.89371" id="Shape" stroke="#2B76BC" stroke-width="0.98148"></path>
            <path d="M1547.51675,598.56312 C1547.51675,598.56312 1550.71275,590.11664 1564.27041,577.1016 C1571.12895,568.10415 1584.6929,554.17022 1588.55941,531.96974 C1596.26428,487.73001 1577.08084,474.56201 1447.77117,482.353 C1381.74375,486.3312 1240.64902,497.0559 1445.86631,355.3906 C1667.38777,202.47023 1419.91721,273.14145 1120.50524,341.934 C605.34083,460.89261 421.60863,199.34614 439.69008,19.84175" id="Shape" stroke="#2F77BC" stroke-width="0.97531"></path>
            <path d="M1546.91325,604.71142 C1546.91325,604.71142 1547.8686,596.53583 1561.25019,583.68982 C1566.67359,575.46671 1580.16411,562.07194 1582.66398,537.85629 C1587.43925,491.59957 1565.22571,482.84922 1434.45205,488.30567 C1368.82412,491.04396 1229.59827,501.90284 1432.07098,361.49379 C1650.8272,209.79259 1406.74504,278.6756 1109.25472,346.05679 C597.70613,462.66079 415.99147,203.29679 434.02209,24.78979" id="Shape" stroke="#3378BD" stroke-width="0.96914"></path>
            <path d="M1546.30975,610.85973 C1546.30975,610.85973 1545.02446,602.95503 1558.22998,590.27804 C1562.21824,582.82927 1575.69058,570.00404 1576.76859,543.74284 C1578.74791,495.52541 1553.42859,491.1546 1421.13297,494.25834 C1355.92279,495.78821 1218.54767,506.74894 1418.27569,367.59698 C1634.26713,217.11418 1393.57292,284.20974 1098.00424,350.17952 C590.07142,464.42882 410.37432,207.24743 428.3541,29.73783" id="Shape" stroke="#3779BE" stroke-width="0.96296"></path>
            <path d="M1545.70626,617.008 C1545.70626,617.008 1542.18032,609.37418 1555.20977,596.86622 C1557.76289,590.19179 1571.27039,577.9516 1570.87321,549.62935 C1570.16991,499.47881 1541.68643,499.48047 1407.81389,500.21096 C1343.03832,500.56442 1207.49718,511.59413 1404.48039,373.70014 C1617.70752,224.43493 1380.40079,289.74385 1086.75377,354.30224 C582.43677,466.19689 404.75716,211.19804 422.68611,34.68584" id="Shape" stroke="#3A7ABE" stroke-width="0.95679"></path>
            <path d="M1545.10276,623.15635 C1545.10276,623.15635 1539.33618,615.79341 1552.18955,603.45448 C1553.30755,597.5544 1566.89923,585.9041 1564.97782,555.51594 C1561.68515,503.44057 1529.99629,507.82919 1394.49482,506.16367 C1330.16929,505.37301 1196.44682,516.4385 1390.68511,379.80337 C1601.14841,231.75492 1367.22868,295.27803 1075.5033,358.42504 C574.802,467.965 399.14,215.14873 417.01812,39.63392" id="Shape" stroke="#3D7BBF" stroke-width="0.95062"></path>
            <path d="M1544.49926,629.30466 C1544.49926,629.30466 1536.49204,622.21266 1549.16934,610.04266 C1548.85219,604.91692 1562.57176,593.85412 1559.08243,561.40245 C1553.27568,507.39816 1518.35504,516.20274 1381.17573,512.1163 C1317.31427,510.21393 1185.39651,521.28185 1376.8898,385.90653 C1584.5898,239.07396 1354.05654,300.81213 1064.2528,362.54775 C567.16731,469.73313 393.52284,219.09938 411.35013,44.582" id="Shape" stroke="#417DC0" stroke-width="0.94444"></path>
            <path d="M1543.89577,635.453 C1543.89577,635.453 1533.6479,628.63184 1546.14913,616.631 C1544.39684,612.2796 1558.28243,601.79718 1553.18704,567.28912 C1544.92635,511.34432 1506.75951,524.60336 1367.85665,518.06912 C1304.47189,515.08738 1174.34632,526.12443 1363.09451,392.00988 C1568.03165,246.39231 1340.88442,306.34644 1053.00233,366.67067 C559.5326,471.50124 387.90569,223.05 405.68213,49.53" id="Shape" stroke="#447EC0" stroke-width="0.93827"></path>
            <path d="M1543.29227,641.60127 C1543.29227,641.60127 1530.80376,635.05099 1543.12892,623.21914 C1539.94149,619.64208 1554.02592,609.73008 1547.29165,573.17559 C1536.62475,515.2745 1495.20648,533.03259 1354.53757,524.02167 C1291.64079,519.99267 1163.29623,530.96567 1349.29921,398.11295 C1551.47404,253.70944 1327.71229,311.88046 1041.75185,370.79331 C551.89785,473.26931 382.28853,227.00068 400.01414,54.47805" id="Shape" stroke="#477FC1" stroke-width="0.9321"></path>
            <path d="M1542.68877,647.74958 C1542.68877,647.74958 1527.95962,641.47018 1540.1087,629.80736 C1535.48613,627.00464 1549.79753,617.65155 1541.39627,579.06214 C1528.36089,519.18695 1483.69274,541.49246 1341.21849,529.97434 C1278.81962,524.92979 1152.24624,535.80607 1335.50392,404.21615 C1534.91692,261.02572 1314.54017,317.4146 1030.50137,374.91607 C544.26319,475.03745 376.67137,230.95133 394.34615,59.42607" id="Shape" stroke="#4A80C2" stroke-width="0.92593"></path>
            <path d="M1542.08527,653.89789 C1542.08527,653.89789 1525.11548,647.88938 1537.08849,636.39558 C1531.03078,634.36721 1545.59293,625.56082 1535.50088,584.9487 C1520.12683,523.08092 1472.21505,549.98457 1327.89941,535.92701 C1266.00713,529.89817 1141.19633,540.64534 1321.70862,410.31934 C1518.3604,268.34099 1301.36804,322.94875 1019.25089,379.03882 C536.62849,476.80555 371.05421,234.902 388.67816,64.37413" id="Shape" stroke="#4D81C2" stroke-width="0.91975"></path>
            <path d="M1541.48178,660.04619 C1541.48178,660.04619 1522.27134,654.30857 1534.06828,642.9838 C1526.57543,641.7298 1541.40849,633.4578 1529.60549,590.83525 C1511.91629,526.95661 1460.7702,558.51047 1314.58033,541.87967 C1253.2021,534.89718 1130.14651,545.48346 1307.91333,416.42254 C1501.8044,275.6552 1288.19592,328.48289 1008.00041,383.16154 C528.99378,478.57365 365.43706,238.85263 383.01017,69.32217" id="Shape" stroke="#5083C3" stroke-width="0.91358"></path>
            <path d="M1540.87828,666.1945 C1540.87828,666.1945 1519.4272,660.72776 1531.04806,649.57202 C1522.12006,649.09233 1537.24106,641.34284 1523.71006,596.7218 C1503.72426,530.81473 1449.35495,567.07158 1301.26121,547.83234 C1240.40331,539.92613 1119.09673,550.32041 1294.11799,422.52573 C1485.24892,282.96831 1274.91199,333.43661 996.74989,387.28434 C521.16589,479.34978 359.81989,242.80327 377.34214,74.27022" id="Shape" stroke="#5284C4" stroke-width="0.90741"></path>
            <path d="M1540.27478,672.34281 C1540.27478,672.34281 1516.58306,667.14696 1528.02785,656.16024 C1517.66473,656.45489 1533.08806,649.21639 1517.81471,602.60835 C1495.54696,534.65624 1437.96627,575.66923 1287.94217,553.78501 C1227.6098,544.98424 1108.04711,555.15612 1280.32274,428.62892 C1468.69409,290.28028 1261.73551,338.93592 985.49945,391.4071 C513.52357,481.0591 354.20274,246.75392 371.67419,79.21826" id="Shape" stroke="#5585C5" stroke-width="0.90123"></path>
            <path d="M1539.67128,678.49112 C1539.67128,678.49112 1513.73893,673.56612 1525.00764,662.74846 C1513.20938,663.81746 1528.9472,657.0791 1511.91933,608.4949 C1487.38118,538.48225 1426.60091,584.30465 1274.62309,559.73767 C1214.82041,550.07067 1096.99751,559.99055 1266.52745,434.73212 C1452.13981,297.59106 1248.55937,344.43585 974.24897,395.52986 C505.88185,482.76953 348.58558,250.70457 366.0062,84.1663" id="Shape" stroke="#5887C5" stroke-width="0.89506"></path>
            <path d="M1539.06779,684.63943 C1539.06779,684.63943 1510.89479,679.98534 1521.98742,669.33668 C1508.75402,671.18002 1524.81662,664.93168 1506.02394,614.38145 C1479.2245,542.29391 1415.25586,592.97898 1261.30401,565.69034 C1202.03421,555.18451 1085.94801,564.82364 1252.73215,440.83534 C1435.58615,304.90063 1235.38362,349.9364 962.9985,399.65264 C498.24081,484.48106 342.96843,254.65522 360.33821,89.11434" id="Shape" stroke="#5A88C6" stroke-width="0.88889"></path>
            <path d="M1538.46429,690.78773 C1538.46429,690.78773 1508.05065,686.40453 1518.96721,675.92489 C1504.29867,678.54258 1520.69474,672.77489 1500.12855,620.268 C1471.075,546.09235 1403.9281,601.69324 1247.98493,571.643 C1189.25028,560.32484 1074.89849,569.65533 1238.93686,446.9385 C1419.03305,312.20882 1222.20828,355.4375 951.74802,403.77536 C490.60047,486.19373 337.35127,258.60586 354.67022,94.06236" id="Shape" stroke="#5D89C7" stroke-width="0.88272"></path>
            <path d="M1537.86079,696.936 C1537.86079,696.936 1505.20651,692.82369 1515.947,682.51307 C1499.84332,685.90507 1516.58025,680.60929 1494.23316,626.15451 C1462.93116,549.8786 1392.61469,610.44834 1234.66585,577.59563 C1176.46779,565.49063 1063.84905,574.48555 1225.14156,453.04163 C1402.48056,319.51563 1209.03335,360.93919 940.49756,407.89806 C482.96082,487.9076 331.73411,262.55652 349.00223,99.01043" id="Shape" stroke="#5F8BC8" stroke-width="0.87654"></path>
            <path d="M1537.25729,703.08435 C1537.25729,703.08435 1502.36237,699.24292 1512.92679,689.10135 C1495.38797,693.26772 1512.47204,688.4358 1488.33779,632.04112 C1454.79173,553.65382 1381.31279,619.24529 1221.34679,583.54836 C1163.68596,570.68116 1052.79965,579.31436 1211.34629,459.14491 C1385.92879,326.82121 1195.85885,366.4417 929.24708,412.02091 C475.32187,489.62267 326.11695,266.50717 343.33424,103.95847" id="Shape" stroke="#628CC8" stroke-width="0.87037"></path>
            <path d="M1536.6538,709.23266 C1536.6538,709.23266 1499.51823,705.66211 1509.90657,695.68955 C1490.93257,700.63027 1508.36917,696.25483 1482.44239,637.92765 C1446.65571,557.41877 1370.01946,628.0847 1208.02769,589.50101 C1150.904,575.89512 1041.75024,584.14146 1197.55097,465.24809 C1369.37759,334.12517 1182.68473,371.94478 917.99658,416.14364 C467.68362,491.339 320.4998,270.45782 337.66625,108.90651" id="Shape" stroke="#648DC9" stroke-width="0.8642"></path>
            <path d="M1536.0503,715.381 C1536.0503,715.381 1496.67409,712.08134 1506.88636,702.2778 C1486.47727,707.99286 1504.27086,704.06712 1476.547,643.81423 C1438.52237,561.17445 1358.73209,636.96739 1194.70861,595.4537 C1138.12131,581.1317 1030.70085,588.96698 1183.75568,471.35131 C1352.82707,341.42765 1169.51104,377.44862 906.7461,420.26643 C460.0461,493.05665 314.88264,274.4085 331.99826,113.85459" id="Shape" stroke="#678FCA" stroke-width="0.85802"></path>
            <path d="M1535.4468,721.52927 C1535.4468,721.52927 1493.83,718.5005 1503.86615,708.866 C1482.02192,715.3554 1500.17644,711.87311 1470.65161,649.70076 C1430.39107,564.92154 1347.44795,645.89389 1181.38953,601.40635 C1125.33725,586.38978 1019.65146,593.79071 1169.96038,477.45449 C1336.27721,348.72849 1156.33776,382.95313 895.49562,424.38917 C452.40924,494.77559 309.26548,278.35917 326.33027,118.80261" id="Shape" stroke="#6990CB" stroke-width="0.85185"></path>
            <path d="M1534.8433,727.67758 C1534.8433,727.67758 1490.98581,724.91969 1500.84593,715.45421 C1477.56656,722.71795 1496.08537,719.67338 1464.75622,655.5873 C1422.26131,568.66082 1336.16444,654.86483 1168.07045,607.35901 C1112.55123,591.66847 1008.60203,598.61266 1156.16509,483.55767 C1319.72802,356.02757 1143.16491,388.4584 884.24514,428.51192 C444.77314,496.49592 303.64832,282.30976 320.66228,123.75064" id="Shape" stroke="#6B92CB" stroke-width="0.84568"></path>
            <path d="M1534.23981,733.82589 C1534.23981,733.82589 1488.14167,731.33889 1497.82572,722.04243 C1473.11121,730.08051 1491.99716,727.46843 1458.86083,661.47385 C1414.13268,572.39295 1324.87903,663.88069 1154.75137,613.31167 C1099.76275,596.96677 997.55257,603.43267 1142.36979,489.66086 C1303.17952,363.32493 1129.99247,393.96446 872.99466,432.63468 C437.13766,498.21768 298.03117,286.26041 314.99429,128.69868" id="Shape" stroke="#6E93CC" stroke-width="0.83951"></path>
            <path d="M1533.63631,739.9742 C1533.63631,739.9742 1485.29753,737.75808 1494.80551,728.63065 C1468.65586,737.44308 1487.9114,735.25854 1452.96545,667.3604 C1406.00486,576.11849 1313.58926,672.94189 1141.43229,619.26434 C1086.97129,602.28373 986.50303,608.2508 1128.5745,495.76406 C1286.63171,370.62042 1116.8205,399.47132 861.74418,436.75743 C429.503,499.94086 292.414,290.21106 309.3263,133.64673" id="Shape" stroke="#7094CD" stroke-width="0.83333"></path>
            <path d="M1533.03281,746.1225 C1533.03281,746.1225 1482.45339,744.17727 1491.7853,735.21887 C1464.20051,744.80564 1483.82777,743.04422 1447.07006,673.24695 C1397.87759,579.838 1302.29274,682.04878 1128.11321,625.21701 C1074.17649,607.61839 975.45341,613.0668 1114.77921,501.86725 C1270.08461,377.91396 1103.64886,404.97902 850.4937,440.88019 C421.869,501.66556 286.79685,294.16171 303.6583,138.59477" id="Shape" stroke="#7396CE" stroke-width="0.82716"></path>
            <path d="M1532.42932,752.27081 C1532.42932,752.27081 1479.60925,750.59646 1488.76508,741.80709 C1459.74516,752.1682 1479.74597,750.82579 1441.17467,679.1335 C1389.75067,583.55195 1290.98714,691.20166 1114.79412,631.16967 C1061.37787,612.96984 964.40366,617.88067 1100.98391,507.97045 C1253.53821,385.20545 1090.47769,410.48757 839.24323,445.00295 C414.23571,503.39182 281.1797,298.11236 297.99031,143.54281" id="Shape" stroke="#7597CF" stroke-width="0.82099"></path>
            <path d="M1531.82582,758.41912 C1531.82582,758.41912 1476.76511,757.01566 1485.74482,748.39531 C1455.28976,759.53076 1475.66569,758.60357 1435.27923,685.02005 C1381.62386,587.26079 1279.67016,700.40076 1101.47499,637.12234 C1048.57505,618.33718 953.35373,622.6922 1087.18857,514.07364 C1236.99247,392.49481 1077.30689,415.997 827.9927,449.12571 C406.60309,505.11971 275.56249,302.06301 292.32227,148.49085" id="Shape" stroke="#7799CF" stroke-width="0.81481"></path>
            <path d="M1531.22232,764.56743 C1531.22232,764.56743 1473.92098,763.43485 1482.72466,754.98353 C1450.83445,766.89333 1471.58688,766.37785 1429.38389,690.90661 C1373.4972,590.9649 1268.33977,709.64626 1088.15596,643.07501 C1035.76784,623.71953 942.30371,627.50137 1073.39332,520.17683 C1220.44754,399.7819 1064.1366,421.50736 816.74232,453.24846 C398.97132,506.84918 269.94543,306.01366 286.65438,153.4389" id="Shape" stroke="#7A9BD0" stroke-width="0.80864"></path>
            <path d="M1530.61882,770.71574 C1530.61882,770.71574 1471.07682,769.85404 1479.70444,761.57174 C1446.3791,774.25588 1467.50919,774.14888 1423.48851,696.79315 C1365.37043,594.66465 1256.9937,718.93825 1074.83688,649.02766 C1022.95579,629.11605 931.25343,632.308 1059.598,526.28 C1203.90325,407.06658 1050.96665,427.01863 805.49176,457.37119 C391.3401,508.58039 264.32822,309.96431 280.98634,158.38694" id="Shape" stroke="#7C9CD1" stroke-width="0.80247"></path>
            <path d="M1530.01533,776.864 C1530.01533,776.864 1468.2327,776.2732 1476.68423,768.15993 C1441.92375,781.61841 1463.43253,781.91693 1417.59312,702.67967 C1357.2435,598.36038 1245.63,728.27682 1061.5178,654.98034 C1010.13867,634.52591 920.20289,637.11207 1045.80273,532.38322 C1187.35973,414.34883 1037.79718,432.53094 794.24131,461.49398 C383.70963,510.31335 258.71107,313.91498 275.31831,163.33498" id="Shape" stroke="#7E9ED2" stroke-width="0.7963"></path>
            <path d="M1529.41183,783.01235 C1529.41183,783.01235 1465.38856,782.69243 1473.66402,774.74819 C1437.4684,788.98101 1459.35675,789.68219 1411.69773,708.56626 C1349.11635,602.05237 1234.24655,737.66193 1048.19873,660.93301 C997.31625,639.94831 909.15206,641.91335 1032.00745,538.48642 C1170.81689,421.62842 1024.62809,438.04424 782.99084,465.61674 C376.07986,512.04812 253.09391,317.86561 269.65036,168.283" id="Shape" stroke="#819FD3" stroke-width="0.79012"></path>
            <path d="M1528.80833,789.16066 C1528.80833,789.16066 1462.54442,789.11166 1470.64381,781.3364 C1433.01305,796.34357 1455.28174,797.44488 1405.80234,714.45281 C1340.98893,605.7409 1222.84157,747.09352 1034.87964,666.88568 C984.48828,645.38248 898.10086,646.71168 1018.21214,544.58961 C1154.27474,428.90523 1011.45939,443.55861 771.74035,469.73949 C368.45076,513.78475 247.47675,321.81625 263.98235,173.23107" id="Shape" stroke="#83A1D3" stroke-width="0.78395"></path>
            <path d="M1528.20483,795.309 C1528.20483,795.309 1459.70028,795.53084 1467.62359,787.92465 C1428.5577,803.70617 1451.20739,805.2052 1399.90695,720.33939 C1332.86119,609.42624 1211.41316,756.57151 1021.56056,672.83839 C971.65456,650.82772 887.04926,651.50709 1004.41685,550.69285 C1137.73328,436.17918 998.29111,449.07408 760.48985,473.8623 C360.82235,515.5233 241.85959,325.7669 258.31438,178.17911" id="Shape" stroke="#85A2D4" stroke-width="0.77778"></path>
            <path d="M1527.60134,801.45727 C1527.60134,801.45727 1456.85614,801.95001 1464.60334,794.51284 C1424.10234,811.0687 1447.13358,812.96324 1394.01153,726.22591 C1324.73308,613.10853 1199.95953,766.09563 1008.24144,678.79101 C958.81494,656.28316 875.99715,656.29915 990.62152,556.79601 C1121.19245,443.44995 985.12318,454.5906 749.23935,477.98501 C353.19455,517.26384 236.2424,329.71755 252.64635,183.12715" id="Shape" stroke="#88A4D5" stroke-width="0.7716"></path>
            <path d="M1526.99784,807.60558 C1526.99784,807.60558 1454.012,808.3692 1461.58317,801.10106 C1419.64699,818.43126 1443.06035,820.71923 1388.11617,732.11246 C1316.60467,616.78807 1188.479,775.66573 994.92239,684.74368 C945.96929,661.74825 864.94457,661.08788 976.82625,562.89919 C1104.65233,450.71751 971.95571,460.10831 737.9889,482.10777 C345.56749,519.00642 230.62528,333.6682 246.9784,188.07519" id="Shape" stroke="#8AA6D6" stroke-width="0.76543"></path>
            <path d="M1526.39434,813.75389 C1526.39434,813.75389 1451.16786,814.78839 1458.56295,807.68928 C1415.19164,825.79382 1438.98751,828.47328 1382.22079,737.99901 C1308.47585,620.46501 1176.9699,785.28149 981.60332,690.69634 C933.11739,667.22227 853.89132,665.87305 963.03097,569.00239 C1088.11282,457.98163 958.7886,465.62723 726.73843,486.23053 C337.94103,520.75111 225.00812,337.61885 241.31043,193.02324" id="Shape" stroke="#8CA7D7" stroke-width="0.75926"></path>
            <path d="M1525.79084,819.9022 C1525.79084,819.9022 1448.32372,821.20759 1455.54274,814.2775 C1410.73629,833.15638 1434.91505,836.2255 1376.3254,743.88556 C1300.34664,624.13956 1165.43062,794.94256 968.28424,696.64901 C920.25915,672.70458 842.83742,670.65446 949.23567,575.10558 C1071.57387,465.24213 945.62186,471.1474 715.48796,490.35328 C330.3152,522.498 219.391,341.5695 235.64242,197.97128" id="Shape" stroke="#8FA9D8" stroke-width="0.75309"></path>
            <path d="M1525.18735,826.05051 C1525.18735,826.05051 1445.47958,827.62678 1452.52253,820.86572 C1406.28094,840.51895 1430.84292,843.97613 1370.43001,749.77211 C1292.21701,627.81177 1153.85967,804.64853 954.96516,702.60168 C907.39444,678.19456 831.78269,675.43193 935.44038,581.20877 C1055.03546,472.49877 932.45548,476.66886 704.23748,494.47604 C322.68997,524.24704 213.77381,345.52015 229.97448,202.91932" id="Shape" stroke="#91ABD9" stroke-width="0.74691"></path>
            <path d="M1524.58385,832.19881 C1524.58385,832.19881 1442.63544,834.04597 1449.50231,827.45394 C1401.82559,847.88151 1426.77106,851.72512 1364.53463,755.65866 C1284.087,631.4819 1142.2556,814.399 941.64608,708.55434 C894.52319,683.69159 820.72708,680.20522 921.64508,587.31197 C1038.49752,479.75138 919.28945,482.19165 692.987,498.5988 C315.06532,525.99849 208.15665,349.4708 224.30644,207.86736" id="Shape" stroke="#93ACD9" stroke-width="0.74074"></path>
            <path d="M1523.98035,838.34712 C1523.98035,838.34712 1439.79135,840.46512 1446.4821,834.04212 C1397.37024,855.24403 1422.69944,859.4726 1358.63924,761.54517 C1275.95657,635.15 1130.617,824.19331 928.327,714.507 C881.6453,689.19511 809.67037,684.97411 907.84979,593.41515 C1021.96,486.99965 906.12379,487.71581 681.73652,502.72155 C307.44125,527.75228 202.53952,353.42144 218.63845,212.8154" id="Shape" stroke="#96AEDA" stroke-width="0.73457"></path>
            <path d="M1523.37685,844.49543 C1523.37685,844.49543 1436.94716,846.88436 1443.46185,840.63038 C1392.91485,862.60663 1418.62799,867.21877 1352.74385,767.43176 C1267.82574,638.81631 1118.9426,834.03102 915.00792,720.45968 C868.76071,694.70458 798.61252,689.73837 894.05449,599.51836 C1005.42281,494.24336 892.95839,493.24142 670.48604,506.84431 C299.81771,529.50854 196.92233,357.3721 212.97046,217.76345" id="Shape" stroke="#98B0DB" stroke-width="0.7284"></path>
            <path d="M1522.77336,850.64374 C1522.77336,850.64374 1434.10303,853.30355 1440.44168,847.2186 C1388.45953,869.9692 1414.5568,874.9636 1346.84846,773.31831 C1259.69451,642.48084 1107.23113,843.91148 901.68884,726.41231 C855.86936,700.21941 787.55336,694.49769 880.2592,605.62152 C988.88585,501.48223 879.79333,498.76846 659.23556,510.96704 C292.19468,531.2673 191.30518,361.32271 207.30246,222.71146" id="Shape" stroke="#9BB2DC" stroke-width="0.72222"></path>
            <path d="M1522.16986,856.79205 C1522.16986,856.79205 1431.25886,859.72274 1437.42146,853.80682 C1384.00418,877.33176 1410.48572,882.70721 1340.95307,779.20482 C1251.56289,646.14371 1095.48141,853.834 888.36976,732.365 C842.97119,705.73918 776.49271,699.25188 866.4639,611.72473 C972.34901,508.71598 866.62856,504.29707 647.98508,515.08982 C284.57214,533.02873 185.688,365.27339 201.63447,227.65953" id="Shape" stroke="#9DB3DD" stroke-width="0.71605"></path>
            <path d="M1521.56636,862.94035 C1521.56636,862.94035 1428.41475,866.14194 1434.40125,860.39504 C1379.54883,884.69432 1406.41476,890.44967 1335.05769,785.09141 C1243.43088,649.80504 1083.69236,863.79787 875.05069,738.31768 C830.06619,711.26333 765.43039,704.00058 852.66862,617.82794 C955.81216,515.94427 853.46407,509.82726 636.73462,519.21259 C276.95,534.79282 180.07086,369.224 195.96648,232.60758" id="Shape" stroke="#A0B5DE" stroke-width="0.70988"></path>
            <path d="M1520.96287,869.08866 C1520.96287,869.08866 1425.57061,872.56113 1431.38104,866.98326 C1375.09348,892.05688 1402.34392,898.19105 1329.1623,790.97796 C1235.29848,653.4649 1071.86294,873.8023 861.7316,744.27034 C817.1543,716.79141 754.36616,708.74349 838.87332,623.93113 C939.2751,523.16674 840.29981,515.35907 625.48412,523.33535 C269.32837,536.55968 174.4537,373.17469 190.29849,237.55562" id="Shape" stroke="#A2B7DF" stroke-width="0.7037"></path>
            <path d="M1520.35937,875.237 C1520.35937,875.237 1422.72647,878.98035 1428.36082,873.57151 C1370.63813,899.41951 1398.27316,905.93143 1323.26691,796.86451 C1227.16571,657.12338 1059.99218,883.84651 848.41252,750.223 C804.23552,722.32295 743.29981,713.48027 825.07802,630.03432 C922.73768,530.38303 827.13579,520.89257 614.23364,527.45809 C261.70706,538.3294 168.83655,377.12534 184.6305,242.50366" id="Shape" stroke="#A5B9E0" stroke-width="0.69753"></path>
            <path d="M1519.75587,881.38528 C1519.75587,881.38528 1419.88233,885.39952 1425.34061,880.15969 C1366.18278,906.78201 1394.20247,913.67079 1317.37152,802.75107 C1219.03258,660.78057 1048.07921,893.92954 835.09344,756.17568 C791.30984,727.85754 732.23106,718.2106 811.28273,636.13752 C906.19967,537.59278 813.97197,526.42783 602.98316,531.58086 C254.08608,540.10207 163.21939,381.076 178.96251,247.4517" id="Shape" stroke="#A7BBE0" stroke-width="0.69136"></path>
            <path d="M1519.15237,887.53358 C1519.15237,887.53358 1417.03819,891.81871 1422.32037,886.74791 C1361.72737,914.14457 1390.13182,921.40927 1311.4761,808.63762 C1210.8991,664.43653 1036.12318,904.05055 821.77433,762.12834 C778.37723,733.39476 721.15959,722.93408 797.4874,642.24071 C889.66075,544.79552 800.80828,531.96488 591.73266,535.70362 C246.46535,541.87776 157.6022,385.02662 173.29449,252.39975" id="Shape" stroke="#AABCE1" stroke-width="0.68519"></path>
            <path d="M1518.54888,893.68189 C1518.54888,893.68189 1414.19405,898.23789 1419.30019,893.33613 C1357.27207,921.50713 1386.06127,929.1469 1305.58074,814.52413 C1202.76525,668.09128 1024.12345,914.20853 808.45528,768.08097 C765.43779,738.93415 710.08515,727.6503 783.69214,648.34387 C873.12072,551.99077 787.64479,537.50377 580.48221,539.82634 C238.84491,543.65654 151.98507,388.97725 167.62653,257.34775" id="Shape" stroke="#ADBEE2" stroke-width="0.67901"></path>
            <path d="M1517.94538,899.8302 C1517.94538,899.8302 1411.34991,904.65709 1416.27997,899.92435 C1352.81672,928.86969 1381.99073,936.8837 1299.68536,820.41072 C1194.63106,671.74501 1012.07927,924.4026 795.1362,774.03372 C752.49144,744.47552 699.00726,732.35899 769.89684,654.44714 C856.57911,559.1782 774.48138,543.04471 569.23173,543.94914 C231.22461,545.43862 146.36792,392.92795 161.95854,262.29584" id="Shape" stroke="#AFC0E3" stroke-width="0.67284"></path>
            <path d="M1517.34188,905.97851 C1517.34188,905.97851 1408.50577,911.07629 1413.25976,906.51257 C1348.36137,936.23225 1377.92022,944.61974 1293.78997,826.29727 C1186.49655,675.39766 999.99007,934.6316 781.81712,779.98634 C739.53824,750.01825 687.92554,737.05948 756.10155,660.55034 C840.03555,566.3571 761.31803,548.58757 557.98125,548.07193 C223.60441,547.22399 140.75076,396.87863 156.29055,267.24393" id="Shape" stroke="#B2C2E4" stroke-width="0.66667"></path>
            <path d="M1516.73838,912.12682 C1516.73838,912.12682 1405.66163,917.49548 1410.23955,913.10082 C1343.90602,943.59482 1373.84973,952.35508 1287.89455,832.18382 C1178.36172,679.04931 987.85534,944.8945 768.498,785.939 C726.57817,755.56214 676.83945,741.75147 742.30621,666.65348 C823.4894,573.52692 748.15467,554.13248 546.73073,552.19464 C215.98422,549.01264 135.13356,400.82922 150.62252,272.19191" id="Shape" stroke="#B4C4E5" stroke-width="0.66049"></path>
            <path d="M1516.13489,918.27512 C1516.13489,918.27512 1402.81749,923.91467 1407.21933,919.68901 C1339.45067,950.95738 1369.77925,960.08966 1281.99919,838.07037 C1170.22657,682.7 975.67466,955.1902 755.179,791.89168 C713.61143,761.10685 665.74863,746.43447 728.511,672.75668 C806.94032,580.68719 734.9914,559.6795 535.48033,556.31741 C208.36408,550.805 129.51644,404.77988 144.95457,277.14" id="Shape" stroke="#B7C6E6" stroke-width="0.65432"></path>
            <path d="M1515.53139,924.42343 C1515.53139,924.42343 1399.97339,930.33387 1404.19912,926.27723 C1334.99531,958.31994 1365.70878,967.82362 1276.1038,843.95692 C1162.09111,686.34986 963.44765,965.51756 741.85988,797.84435 C700.63782,766.652 654.65223,751.108 714.71566,678.85988 C790.38735,587.83719 721.82795,565.22876 524.22981,560.44017 C200.74378,552.6008 123.89929,408.73053 139.28658,282.088" id="Shape" stroke="#BAC8E7" stroke-width="0.64815"></path>
            <path d="M1514.92789,930.57174 C1514.92789,930.57174 1397.12921,936.75306 1401.17889,932.86545 C1330.53989,965.68245 1361.63828,975.55695 1270.2084,849.84345 C1153.95536,689.99884 951.174,975.87542 728.5408,803.797 C687.65755,772.19739 643.54972,755.77146 700.92037,684.96306 C773.82982,594.97625 708.66437,570.78028 512.97937,564.56291 C193.12337,554.40034 118.28217,412.68117 133.61863,287.03603" id="Shape" stroke="#BCCAE8" stroke-width="0.64198"></path>
            <path d="M1514.32439,936.72005 C1514.32439,936.72005 1394.28508,943.17225 1398.1587,939.45367 C1326.08461,973.04507 1357.56782,983.28967 1264.31303,855.73002 C1145.81933,693.64702 938.85359,986.2626 715.22172,809.74968 C674.67063,777.74268 632.44029,760.42446 687.12508,691.06627 C757.26673,602.1037 695.50071,576.33417 501.72885,568.68568 C185.5025,556.20371 112.665,416.63183 127.9506,291.98409" id="Shape" stroke="#BFCCE9" stroke-width="0.6358"></path>
            <path d="M1513.7209,942.86835 C1513.7209,942.86835 1391.4409,949.59144 1395.13848,946.04189 C1321.62926,980.40763 1353.49733,991.02189 1258.41764,861.61657 C1137.68301,697.29441 926.48618,996.67788 701.90264,815.70235 C661.67713,783.28754 621.32309,765.06642 673.32978,697.16946 C740.69695,609.21875 682.33678,581.89046 490.47837,572.80846 C177.88137,558.01099 107.04782,420.58246 122.28261,296.93215" id="Shape" stroke="#C1CEE9" stroke-width="0.62963"></path>
            <path d="M1513.1174,949.01666 C1513.1174,949.01666 1388.5968,956.01066 1392.11827,952.63011 C1317.17391,987.77019 1349.42683,998.7535 1252.52227,867.50311 C1129.54644,700.94111 914.07176,1007.12005 688.58358,821.655 C648.67712,788.83177 610.19714,769.69683 659.53451,703.27264 C724.11917,616.32064 669.17251,587.44927 479.22791,576.93119 C170.25967,559.82219 101.43068,424.53312 116.61464,301.88019" id="Shape" stroke="#C4D0EA" stroke-width="0.62346"></path>
            <path d="M1512.5139,955.165 C1512.5139,955.165 1385.75266,962.42986 1389.09806,959.21836 C1312.71856,995.13278 1345.35631,1006.48465 1246.62686,873.3897 C1121.40957,704.58708 901.61027,1017.58791 675.26448,827.6077 C635.67062,794.37515 599.0613,774.31524 645.73919,709.37587 C707.53178,623.40858 656.00787,593.01068 467.97742,581.05397 C162.63742,561.63765 95.8135,428.4838 110.94663,306.82823" id="Shape" stroke="#C7D2EB" stroke-width="0.61728"></path>
            <path d="M1511.9104,961.31328 C1511.9104,961.31328 1382.90852,968.84902 1386.07784,965.80655 C1308.26321,1002.49531 1341.28577,1014.21526 1240.73148,879.27622 C1113.27248,708.23236 889.10185,1028.0801 661.9454,833.56035 C622.65776,799.91735 587.9144,778.92111 631.9439,715.47904 C690.933,630.4817 642.84279,598.5747 456.7269,585.17671 C155.01435,563.45723 90.19634,432.43443 105.27863,311.77626" id="Shape" stroke="#C9D4EC" stroke-width="0.61111"></path>
            <path d="M1511.30691,967.46159 C1511.30691,967.46159 1380.06438,975.26822 1383.05763,972.39477 C1303.80785,1009.85788 1337.21521,1021.94542 1234.83609,885.16277 C1105.13511,711.877 876.54661,1038.59546 648.62632,839.513 C609.6386,805.45826 576.755,783.5141 618.1486,721.58224 C674.32066,637.53924 629.67717,604.14147 445.47646,589.29947 C147.39047,565.28115 84.57919,436.38508 99.61064,316.7243" id="Shape" stroke="#CCD6ED" stroke-width="0.60494"></path>
            <path d="M1510.70341,973.60989 C1510.70341,973.60989 1377.22024,981.68741 1380.03741,978.98299 C1299.35249,1017.22044 1333.14462,1029.67515 1228.94069,891.04932 C1096.99751,715.52109 863.94475,1049.13271 635.30723,845.46568 C596.61323,810.9976 565.58162,788.09386 604.3533,727.68543 C657.69222,644.58043 616.51091,609.71105 434.22597,593.42223 C139.76557,567.1095 78.962,440.33572 93.94265,321.67234" id="Shape" stroke="#CFD8EE" stroke-width="0.59877"></path>
            <path d="M1510.09991,979.7582 C1510.09991,979.7582 1374.3761,988.1066 1377.0172,985.5712 C1294.8972,1024.583 1329.07402,1037.40444 1223.04531,896.93587 C1088.85969,719.16457 851.29658,1059.69057 621.98816,851.41835 C583.5817,816.5352 554.39249,792.66017 590.558,733.78862 C641.04472,651.60452 603.34394,615.28354 422.97549,597.54499 C132.1395,568.94237 73.34487,444.28637 88.27466,326.62038" id="Shape" stroke="#D1DAEF" stroke-width="0.59259"></path>
            <path d="M1509.49642,985.90651 C1509.49642,985.90651 1371.53196,994.52579 1373.99699,992.15942 C1290.4418,1031.94556 1325.00338,1045.13333 1217.14992,902.82242 C1080.72164,722.80749 838.60239,1070.26779 608.66908,857.371 C570.54408,822.07086 543.18569,797.213 576.76272,739.89181 C624.37472,658.61088 590.17616,620.85899 411.72502,601.66773 C124.51211,570.77987 67.72771,448.237 82.60667,331.56843" id="Shape" stroke="#D4DCF0" stroke-width="0.58642"></path>
            <path d="M1508.89292,992.05482 C1508.89292,992.05482 1368.68782,1000.94499 1370.97678,998.74764 C1285.98645,1039.30812 1320.93272,1052.86183 1211.25454,908.70898 C1072.58337,726.44988 825.86259,1080.86312 595.35,863.32368 C557.50061,827.60444 531.95909,801.75242 562.96743,745.99501 C607.67796,665.5991 577.00743,626.43752 400.47454,605.7905 C116.88322,572.62209 62.11054,452.18767 76.93868,336.5165" id="Shape" stroke="#D7DEF1" stroke-width="0.58025"></path>
            <path d="M1508.28942,998.20313 C1508.28942,998.20313 1365.84368,1007.36418 1367.95657,1005.33586 C1281.5311,1046.67069 1316.86202,1060.58996 1205.35915,914.59553 C1064.44488,730.09177 813.07764,1091.47531 582.03091,869.27635 C544.45123,833.13575 520.71034,806.27893 549.17213,752.09821 C590.94982,672.56894 563.83766,632.01921 389.22406,609.91326 C109.25265,574.46913 56.4934,456.13832 71.27069,341.46451" id="Shape" stroke="#DAE0F2" stroke-width="0.57407"></path>
            <path d="M1507.68592,1004.35143 C1507.68592,1004.35143 1362.99954,1013.78337 1364.93635,1011.92408 C1277.07574,1054.03325 1312.79129,1068.31774 1199.46376,920.48208 C1056.30619,733.73316 800.248,1102.10311 568.71183,875.229 C531.39609,838.66463 509.43683,810.79328 535.37683,758.20139 C574.18468,679.52057 550.6667,637.60406 377.97358,614.036 C101.62018,576.32108 50.87624,460.089 65.6027,346.41255" id="Shape" stroke="#DCE2F3" stroke-width="0.5679"></path>
            <path d="M1507.08243,1010.49974 C1507.08243,1010.49974 1360.15543,1020.20257 1361.91614,1018.5123 C1272.62039,1061.39581 1308.72053,1076.04517 1193.56837,926.36863 C1048.1673,737.37409 787.37431,1112.74533 555.39275,881.18163 C518.33528,844.19092 498.1359,815.29672 521.58154,764.30454 C557.37608,686.45461 537.49444,643.19219 366.7231,618.15872 C93.98563,578.178 45.25908,464.03962 59.93471,351.3606" id="Shape" stroke="#DFE5F4" stroke-width="0.56173"></path>
            <path d="M1506.47893,1016.64805 C1506.47893,1016.64805 1357.31126,1026.62176 1358.89593,1025.10052 C1268.16504,1068.75837 1304.64974,1083.77227 1187.67298,932.25518 C1040.02821,741.01456 774.45711,1123.40074 542.07367,887.13435 C505.26892,849.71462 486.80447,819.79119 507.78625,770.40779 C540.51658,693.37259 524.32072,648.78379 355.47262,622.28153 C86.34875,580.04007 39.64193,467.99027 54.26672,356.30864" id="Shape" stroke="#E2E7F5" stroke-width="0.55556"></path>
            <path d="M1505.87543,1022.79636 C1505.87543,1022.79636 1354.46713,1033.04095 1355.87571,1031.68874 C1263.70971,1076.12094 1300.57892,1091.49906 1181.7776,938.14174 C1031.88893,744.65462 761.49706,1134.06817 528.7546,893.08702 C492.19712,855.23546 475.43948,824.27918 493.99096,776.51102 C523.59768,700.2767 511.1454,654.37883 344.22216,626.40433 C78.70932,581.90726 34.02477,471.94092 48.59873,361.25668" id="Shape" stroke="#E5E9F6" stroke-width="0.54938"></path>
            <path d="M1505.27193,1028.94466 C1505.27193,1028.94466 1351.62299,1039.46014 1352.8555,1038.27696 C1259.25434,1083.4835 1296.50806,1099.22555 1175.88221,944.02828 C1023.74947,748.29428 748.49486,1144.74645 515.43551,899.03968 C479.11994,860.75337 464.03773,828.76421 480.19566,782.61418 C506.60981,707.17048 497.9683,659.97731 332.97166,630.52705 C71.06707,583.77967 28.40761,475.89157 42.93074,366.20472" id="Shape" stroke="#E8EBF7" stroke-width="0.54321"></path>
            <path d="M1504.66844,1035.093 C1504.66844,1035.093 1348.77885,1045.87937 1349.83529,1044.86521 C1254.79899,1090.84609 1292.43717,1106.95177 1169.98682,949.91486 C1015.60982,751.9335 735.45125,1155.43447 502.11643,904.99238 C466.03753,866.2683 452.59611,833.25097 466.40036,788.71738 C489.54244,714.0593 484.78927,665.57943 321.72119,634.64982 C63.42176,585.65737 22.79045,479.84221 37.26275,371.15277" id="Shape" stroke="#EAEDF7" stroke-width="0.53704"></path>
            <path d="M1504.06494,1041.24128 C1504.06494,1041.24128 1345.93471,1052.29853 1346.81508,1051.4534 C1250.34363,1098.20862 1288.36624,1114.67766 1164.09143,955.8014 C1007.47,755.57232 722.367,1166.13105 488.79735,910.945 C452.95,871.78 441.11172,837.74534 452.60507,794.82054 C472.3842,720.95042 471.60813,671.18516 310.47071,638.77254 C55.77309,587.54041 17.1733,483.79286 31.59476,376.10081" id="Shape" stroke="#EDF0F8" stroke-width="0.53086"></path>
            <path d="M1503.46144,1047.38959 C1503.46144,1047.38959 1343.09057,1058.71772 1343.79486,1058.04159 C1245.88828,1105.57115 1284.5632,1122.19272 1158.19604,961.6879 C999.66804,758.94605 709.24288,1176.83514 475.47827,916.89765 C439.85743,877.28865 429.58214,842.25494 438.80977,800.92373 C455.12338,727.85393 458.42467,676.79462 299.22023,642.89529 C48.12078,589.42883 11.55614,487.74351 25.92677,381.04885" id="Shape" stroke="#F0F2F9" stroke-width="0.52469"></path>
            <path d="M1502.85794,1053.5379 C1502.85794,1053.5379 1340.24643,1065.1369 1340.77465,1064.62984 C1241.43293,1112.93375 1280.42517,1129.97042 1152.30065,967.57448 C991.44313,762.64989 696.07975,1187.54577 462.15918,922.85035 C426.76,882.794 418.00575,846.78907 425.01448,807.027 C437.74867,734.78307 445.17992,682.66814 287.96975,647.01813 C40.37267,591.73232 5.939,491.69416 20.25878,385.99689" id="Shape" stroke="#F3F5FB" stroke-width="0.51852"></path>
            <path d="M1502.25445,1059.6862 C1502.25445,1059.6862 1337.40229,1071.55611 1337.75445,1071.21806 C1236.97759,1120.29631 1276.28716,1137.74806 1146.40528,973.46106 C983.21828,766.35373 682.8785,1198.26185 448.84012,928.80306 C413.6577,888.29596 406.38218,851.35879 411.2192,813.13019 C420.25027,741.75442 432.00781,688.20227 276.71928,651.14088 C32.738,593.50042 0.32182,495.64481 14.59079,390.94494" id="Shape" stroke="#F6F8FC" stroke-width="0.51235"></path>
            <path d="M1501.651,1065.83451 C1501.651,1065.83451 1334.5582,1077.9753 1334.73427,1077.80628 C1232.52227,1127.65887 1272.14918,1145.52577 1140.50993,979.34758 C974.99339,770.05751 669.64,1208.98232 435.521,934.75568 C400.55069,893.79449 394.71275,855.97696 397.42386,819.23334 C402.62159,748.78865 418.83564,693.73634 265.46876,655.26359 C25.10326,595.26853 -5.29533,499.59546 8.92279,395.893" id="Shape" stroke="#FAFBFD" stroke-width="0.50617"></path>
            <path d="M1501.04745,1071.98282 L1331.714,1084.3945 C1228.06687,1135.02143 1268.0111,1153.3035 1134.61448,985.23413 C966.76852,773.76132 656.365,1219.70634 422.202,940.70835 C319.111,817.87866 482.71312,719.56206 254.21836,659.38635 C17.46855,597.03663 -10.91249,503.54611 3.2548,400.841" id="Shape" stroke="#FFFFFF" stroke-width="0.5"></path>
        </g>
    </g>
</svg>