<?xml version="1.0" encoding="utf-8"?>
<!-- Generator: Adobe Illustrator 23.0.6, SVG Export Plug-In . SVG Version: 6.00 Build 0)  -->
<svg version="1.1" id="Слой_1" xmlns="http://www.w3.org/2000/svg" xmlns:xlink="http://www.w3.org/1999/xlink" x="0px" y="0px"
	 viewBox="0 0 180 180" style="enable-background:new 0 0 180 180;" xml:space="preserve">
<style type="text/css">
	.st0{opacity:0;fill:#FFFFFF;}
	.st1{opacity:4.975124e-03;fill:#FEFFFF;}
	.st2{opacity:9.950249e-03;fill:#FDFEFF;}
	.st3{opacity:1.492537e-02;fill:#FDFEFF;}
	.st4{opacity:1.990050e-02;fill:#FCFEFF;}
	.st5{opacity:2.487562e-02;fill:#FBFDFF;}
	.st6{opacity:2.985075e-02;fill:#FAFDFF;}
	.st7{opacity:3.482587e-02;fill:#FAFDFF;}
	.st8{opacity:3.980099e-02;fill:#F9FDFF;}
	.st9{opacity:4.477612e-02;fill:#F8FCFF;}
	.st10{opacity:4.975124e-02;fill:#F7FCFF;}
	.st11{opacity:5.472637e-02;fill:#F6FCFF;}
	.st12{opacity:5.970149e-02;fill:#F6FBFF;}
	.st13{opacity:6.467662e-02;fill:#F5FBFF;}
	.st14{opacity:6.965174e-02;fill:#F4FBFF;}
	.st15{opacity:7.462686e-02;fill:#F3FAFF;}
	.st16{opacity:7.960199e-02;fill:#F3FAFF;}
	.st17{opacity:8.457711e-02;fill:#F2FAFF;}
	.st18{opacity:8.955224e-02;fill:#F1FAFF;}
	.st19{opacity:9.452736e-02;fill:#F0F9FF;}
	.st20{opacity:9.950249e-02;fill:#EFF9FF;}
	.st21{opacity:0.1045;fill:#EFF9FF;}
	.st22{opacity:0.1095;fill:#EEF8FF;}
	.st23{opacity:0.1144;fill:#EDF8FF;}
	.st24{opacity:0.1194;fill:#ECF8FF;}
	.st25{opacity:0.1244;fill:#ECF7FF;}
	.st26{opacity:0.1294;fill:#EBF7FF;}
	.st27{opacity:0.1343;fill:#EAF7FF;}
	.st28{opacity:0.1393;fill:#E9F7FF;}
	.st29{opacity:0.1443;fill:#E8F6FF;}
	.st30{opacity:0.1493;fill:#E8F6FF;}
	.st31{opacity:0.1542;fill:#E7F6FF;}
	.st32{opacity:0.1592;fill:#E6F5FF;}
	.st33{opacity:0.1642;fill:#E5F5FF;}
	.st34{opacity:0.1692;fill:#E5F5FF;}
	.st35{opacity:0.1741;fill:#E4F4FF;}
	.st36{opacity:0.1791;fill:#E3F4FF;}
	.st37{opacity:0.1841;fill:#E2F4FF;}
	.st38{opacity:0.1891;fill:#E2F3FF;}
	.st39{opacity:0.194;fill:#E1F3FF;}
	.st40{opacity:0.199;fill:#E0F3FF;}
	.st41{opacity:0.204;fill:#DFF3FF;}
	.st42{opacity:0.209;fill:#DEF2FF;}
	.st43{opacity:0.2139;fill:#DEF2FF;}
	.st44{opacity:0.2189;fill:#DDF2FF;}
	.st45{opacity:0.2239;fill:#DCF1FF;}
	.st46{opacity:0.2289;fill:#DBF1FF;}
	.st47{opacity:0.2338;fill:#DBF1FF;}
	.st48{opacity:0.2388;fill:#DAF0FF;}
	.st49{opacity:0.2438;fill:#D9F0FF;}
	.st50{opacity:0.2488;fill:#D8F0FF;}
	.st51{opacity:0.2537;fill:#D7F0FF;}
	.st52{opacity:0.2587;fill:#D7EFFF;}
	.st53{opacity:0.2637;fill:#D6EFFF;}
	.st54{opacity:0.2687;fill:#D5EFFF;}
	.st55{opacity:0.2736;fill:#D4EEFF;}
	.st56{opacity:0.2786;fill:#D4EEFF;}
	.st57{opacity:0.2836;fill:#D3EEFF;}
	.st58{opacity:0.2886;fill:#D2EDFF;}
	.st59{opacity:0.2935;fill:#D1EDFF;}
	.st60{opacity:0.2985;fill:#D0EDFF;}
	.st61{opacity:0.3035;fill:#D0ECFF;}
	.st62{opacity:0.3085;fill:#CFECFF;}
	.st63{opacity:0.3134;fill:#CEECFF;}
	.st64{opacity:0.3184;fill:#CDECFF;}
	.st65{opacity:0.3234;fill:#CDEBFF;}
	.st66{opacity:0.3284;fill:#CCEBFF;}
	.st67{opacity:0.3333;fill:#CBEBFF;}
	.st68{opacity:0.3383;fill:#CAEAFF;}
	.st69{opacity:0.3433;fill:#C9EAFF;}
	.st70{opacity:0.3483;fill:#C9EAFF;}
	.st71{opacity:0.3532;fill:#C8E9FF;}
	.st72{opacity:0.3582;fill:#C7E9FF;}
	.st73{opacity:0.3632;fill:#C6E9FF;}
	.st74{opacity:0.3682;fill:#C6E9FF;}
	.st75{opacity:0.3731;fill:#C5E8FF;}
	.st76{opacity:0.3781;fill:#C4E8FF;}
	.st77{opacity:0.3831;fill:#C3E8FF;}
	.st78{opacity:0.3881;fill:#C2E7FF;}
	.st79{opacity:0.393;fill:#C2E7FF;}
	.st80{opacity:0.398;fill:#C1E7FF;}
	.st81{opacity:0.403;fill:#C0E6FF;}
	.st82{opacity:0.408;fill:#BFE6FF;}
	.st83{opacity:0.4129;fill:#BFE6FF;}
	.st84{opacity:0.4179;fill:#BEE6FF;}
	.st85{opacity:0.4229;fill:#BDE5FF;}
	.st86{opacity:0.4279;fill:#BCE5FF;}
	.st87{opacity:0.4328;fill:#BBE5FF;}
	.st88{opacity:0.4378;fill:#BBE4FF;}
	.st89{opacity:0.4428;fill:#BAE4FF;}
	.st90{opacity:0.4478;fill:#B9E4FF;}
	.st91{opacity:0.4527;fill:#B8E3FF;}
	.st92{opacity:0.4577;fill:#B8E3FF;}
	.st93{opacity:0.4627;fill:#B7E3FF;}
	.st94{opacity:0.4677;fill:#B6E2FF;}
	.st95{opacity:0.4726;fill:#B5E2FF;}
	.st96{opacity:0.4776;fill:#B4E2FF;}
	.st97{opacity:0.4826;fill:#B4E2FF;}
	.st98{opacity:0.4876;fill:#B3E1FF;}
	.st99{opacity:0.4925;fill:#B2E1FF;}
	.st100{opacity:0.4975;fill:#B1E1FF;}
	.st101{opacity:0.5025;fill:#B1E0FF;}
	.st102{opacity:0.5075;fill:#B0E0FF;}
	.st103{opacity:0.5124;fill:#AFE0FF;}
	.st104{opacity:0.5174;fill:#AEDFFF;}
	.st105{opacity:0.5224;fill:#AEDFFF;}
	.st106{opacity:0.5274;fill:#ADDFFF;}
	.st107{opacity:0.5323;fill:#ACDFFF;}
	.st108{opacity:0.5373;fill:#ABDEFF;}
	.st109{opacity:0.5423;fill:#AADEFF;}
	.st110{opacity:0.5473;fill:#AADEFF;}
	.st111{opacity:0.5522;fill:#A9DDFF;}
	.st112{opacity:0.5572;fill:#A8DDFF;}
	.st113{opacity:0.5622;fill:#A7DDFF;}
	.st114{opacity:0.5672;fill:#A7DCFF;}
	.st115{opacity:0.5721;fill:#A6DCFF;}
	.st116{opacity:0.5771;fill:#A5DCFF;}
	.st117{opacity:0.5821;fill:#A4DBFF;}
	.st118{opacity:0.5871;fill:#A3DBFF;}
	.st119{opacity:0.592;fill:#A3DBFF;}
	.st120{opacity:0.597;fill:#A2DBFF;}
	.st121{opacity:0.602;fill:#A1DAFF;}
	.st122{opacity:0.607;fill:#A0DAFF;}
	.st123{opacity:0.6119;fill:#A0DAFF;}
	.st124{opacity:0.6169;fill:#9FD9FF;}
	.st125{opacity:0.6219;fill:#9ED9FF;}
	.st126{opacity:0.6269;fill:#9DD9FF;}
	.st127{opacity:0.6318;fill:#9CD8FF;}
	.st128{opacity:0.6368;fill:#9CD8FF;}
	.st129{opacity:0.6418;fill:#9BD8FF;}
	.st130{opacity:0.6468;fill:#9AD8FF;}
	.st131{opacity:0.6517;fill:#99D7FF;}
	.st132{opacity:0.6567;fill:#99D7FF;}
	.st133{opacity:0.6617;fill:#98D7FF;}
	.st134{opacity:0.6667;fill:#97D6FF;}
	.st135{opacity:0.6716;fill:#96D6FF;}
	.st136{opacity:0.6766;fill:#95D6FF;}
	.st137{opacity:0.6816;fill:#95D5FF;}
	.st138{opacity:0.6866;fill:#94D5FF;}
	.st139{opacity:0.6915;fill:#93D5FF;}
	.st140{opacity:0.6965;fill:#92D5FF;}
	.st141{opacity:0.7015;fill:#92D4FF;}
	.st142{opacity:0.7065;fill:#91D4FF;}
	.st143{opacity:0.7114;fill:#90D4FF;}
	.st144{opacity:0.7164;fill:#8FD3FF;}
	.st145{opacity:0.7214;fill:#8ED3FF;}
	.st146{opacity:0.7264;fill:#8ED3FF;}
	.st147{opacity:0.7313;fill:#8DD2FF;}
	.st148{opacity:0.7363;fill:#8CD2FF;}
	.st149{opacity:0.7413;fill:#8BD2FF;}
	.st150{opacity:0.7463;fill:#8BD1FF;}
	.st151{opacity:0.7512;fill:#8AD1FF;}
	.st152{opacity:0.7562;fill:#89D1FF;}
	.st153{opacity:0.7612;fill:#88D1FF;}
	.st154{opacity:0.7662;fill:#87D0FF;}
	.st155{opacity:0.7711;fill:#87D0FF;}
	.st156{opacity:0.7761;fill:#86D0FF;}
	.st157{opacity:0.7811;fill:#85CFFF;}
	.st158{opacity:0.7861;fill:#84CFFF;}
	.st159{opacity:0.791;fill:#84CFFF;}
	.st160{opacity:0.796;fill:#83CEFF;}
	.st161{opacity:0.801;fill:#82CEFF;}
	.st162{opacity:0.806;fill:#81CEFF;}
	.st163{opacity:0.8109;fill:#80CEFF;}
	.st164{opacity:0.8159;fill:#80CDFF;}
	.st165{opacity:0.8209;fill:#7FCDFF;}
	.st166{opacity:0.8259;fill:#7ECDFF;}
	.st167{opacity:0.8308;fill:#7DCCFF;}
	.st168{opacity:0.8358;fill:#7DCCFF;}
	.st169{opacity:0.8408;fill:#7CCCFF;}
	.st170{opacity:0.8458;fill:#7BCBFF;}
	.st171{opacity:0.8507;fill:#7ACBFF;}
	.st172{opacity:0.8557;fill:#7ACBFF;}
	.st173{opacity:0.8607;fill:#79CAFF;}
	.st174{opacity:0.8657;fill:#78CAFF;}
	.st175{opacity:0.8706;fill:#77CAFF;}
	.st176{opacity:0.8756;fill:#76CAFF;}
	.st177{opacity:0.8806;fill:#76C9FF;}
	.st178{opacity:0.8856;fill:#75C9FF;}
	.st179{opacity:0.8905;fill:#74C9FF;}
	.st180{opacity:0.8955;fill:#73C8FF;}
	.st181{opacity:0.9005;fill:#73C8FF;}
	.st182{opacity:0.9055;fill:#72C8FF;}
	.st183{opacity:0.9104;fill:#71C7FF;}
	.st184{opacity:0.9154;fill:#70C7FF;}
	.st185{opacity:0.9204;fill:#6FC7FF;}
	.st186{opacity:0.9254;fill:#6FC7FF;}
	.st187{opacity:0.9303;fill:#6EC6FF;}
	.st188{opacity:0.9353;fill:#6DC6FF;}
	.st189{opacity:0.9403;fill:#6CC6FF;}
	.st190{opacity:0.9453;fill:#6CC5FF;}
	.st191{opacity:0.9502;fill:#6BC5FF;}
	.st192{opacity:0.9552;fill:#6AC5FF;}
	.st193{opacity:0.9602;fill:#69C4FF;}
	.st194{opacity:0.9652;fill:#68C4FF;}
	.st195{opacity:0.9701;fill:#68C4FF;}
	.st196{opacity:0.9751;fill:#67C4FF;}
	.st197{opacity:0.9801;fill:#66C3FF;}
	.st198{opacity:0.9851;fill:#65C3FF;}
	.st199{opacity:0.99;fill:#65C3FF;}
	.st200{opacity:0.995;fill:#64C2FF;}
	.st201{fill:#63C2FF;}
	.st202{fill:url(#SVGID_1_);}
	.st203{fill:url(#SVGID_2_);}
	.st204{fill:#FFFFFF;}
	.st205{fill:#FFFFFF;stroke:#000000;stroke-linecap:round;stroke-miterlimit:10;}
	.st206{fill:#FFFFFF;stroke:#000000;stroke-linecap:round;stroke-linejoin:round;stroke-miterlimit:10;}
	.st207{fill:none;stroke:#000000;stroke-linecap:round;stroke-linejoin:round;stroke-miterlimit:10;}
	.st208{fill:none;stroke:#000000;stroke-width:4;stroke-linecap:round;stroke-linejoin:round;stroke-miterlimit:10;}
</style>
<g>
	<g>
		<circle class="st0" cx="97.1" cy="89.2" r="70.1"/>
		<circle class="st1" cx="97.1" cy="89.2" r="70.1"/>
		<circle class="st2" cx="97" cy="89.2" r="70"/>
		<circle class="st3" cx="97" cy="89.1" r="70"/>
		<circle class="st4" cx="97" cy="89.1" r="70"/>
		<circle class="st5" cx="96.9" cy="89.1" r="69.9"/>
		<circle class="st6" cx="96.9" cy="89.1" r="69.9"/>
		<circle class="st7" cx="96.9" cy="89.1" r="69.9"/>
		<circle class="st8" cx="96.9" cy="89.1" r="69.8"/>
		<circle class="st9" cx="96.8" cy="89" r="69.8"/>
		<circle class="st10" cx="96.8" cy="89" r="69.8"/>
		<circle class="st11" cx="96.8" cy="89" r="69.8"/>
		<circle class="st12" cx="96.7" cy="89" r="69.7"/>
		<circle class="st13" cx="96.7" cy="89" r="69.7"/>
		<circle class="st14" cx="96.7" cy="89" r="69.7"/>
		<circle class="st15" cx="96.6" cy="88.9" r="69.6"/>
		<circle class="st16" cx="96.6" cy="88.9" r="69.6"/>
		<circle class="st17" cx="96.6" cy="88.9" r="69.6"/>
		<circle class="st18" cx="96.6" cy="88.9" r="69.5"/>
		<circle class="st19" cx="96.5" cy="88.9" r="69.5"/>
		<circle class="st20" cx="96.5" cy="88.9" r="69.5"/>
		<circle class="st21" cx="96.5" cy="88.8" r="69.4"/>
		<circle class="st22" cx="96.4" cy="88.8" r="69.4"/>
		<circle class="st23" cx="96.4" cy="88.8" r="69.4"/>
		<circle class="st24" cx="96.4" cy="88.8" r="69.3"/>
		<circle class="st25" cx="96.4" cy="88.8" r="69.3"/>
		<circle class="st26" cx="96.3" cy="88.7" r="69.3"/>
		<circle class="st27" cx="96.3" cy="88.7" r="69.3"/>
		<circle class="st28" cx="96.3" cy="88.7" r="69.2"/>
		<circle class="st29" cx="96.2" cy="88.7" r="69.2"/>
		<circle class="st30" cx="96.2" cy="88.7" r="69.2"/>
		<circle class="st31" cx="96.2" cy="88.7" r="69.1"/>
		<circle class="st32" cx="96.1" cy="88.6" r="69.1"/>
		<circle class="st33" cx="96.1" cy="88.6" r="69.1"/>
		<circle class="st34" cx="96.1" cy="88.6" r="69"/>
		<circle class="st35" cx="96.1" cy="88.6" r="69"/>
		<circle class="st36" cx="96" cy="88.6" r="69"/>
		<circle class="st37" cx="96" cy="88.6" r="68.9"/>
		<circle class="st38" cx="96" cy="88.5" r="68.9"/>
		<circle class="st39" cx="95.9" cy="88.5" r="68.9"/>
		<circle class="st40" cx="95.9" cy="88.5" r="68.8"/>
		<circle class="st41" cx="95.9" cy="88.5" r="68.8"/>
		<circle class="st42" cx="95.9" cy="88.5" r="68.8"/>
		<circle class="st43" cx="95.8" cy="88.5" r="68.8"/>
		<circle class="st44" cx="95.8" cy="88.4" r="68.7"/>
		<circle class="st45" cx="95.8" cy="88.4" r="68.7"/>
		<circle class="st46" cx="95.7" cy="88.4" r="68.7"/>
		<circle class="st47" cx="95.7" cy="88.4" r="68.6"/>
		<circle class="st48" cx="95.7" cy="88.4" r="68.6"/>
		<circle class="st49" cx="95.6" cy="88.4" r="68.6"/>
		<circle class="st50" cx="95.6" cy="88.3" r="68.5"/>
		<circle class="st51" cx="95.6" cy="88.3" r="68.5"/>
		<circle class="st52" cx="95.6" cy="88.3" r="68.5"/>
		<circle class="st53" cx="95.5" cy="88.3" r="68.4"/>
		<circle class="st54" cx="95.5" cy="88.3" r="68.4"/>
		<circle class="st55" cx="95.5" cy="88.3" r="68.4"/>
		<circle class="st56" cx="95.4" cy="88.2" r="68.3"/>
		<circle class="st57" cx="95.4" cy="88.2" r="68.3"/>
		<circle class="st58" cx="95.4" cy="88.2" r="68.3"/>
		<circle class="st59" cx="95.4" cy="88.2" r="68.3"/>
		<circle class="st60" cx="95.3" cy="88.2" r="68.2"/>
		<circle class="st61" cx="95.3" cy="88.2" r="68.2"/>
		<circle class="st62" cx="95.3" cy="88.1" r="68.2"/>
		<circle class="st63" cx="95.2" cy="88.1" r="68.1"/>
		<circle class="st64" cx="95.2" cy="88.1" r="68.1"/>
		<circle class="st65" cx="95.2" cy="88.1" r="68.1"/>
		<circle class="st66" cx="95.2" cy="88.1" r="68"/>
		<circle class="st67" cx="95.1" cy="88.1" r="68"/>
		<circle class="st68" cx="95.1" cy="88" r="68"/>
		<circle class="st69" cx="95.1" cy="88" r="67.9"/>
		<circle class="st70" cx="95" cy="88" r="67.9"/>
		<circle class="st71" cx="95" cy="88" r="67.9"/>
		<circle class="st72" cx="95" cy="88" r="67.8"/>
		<circle class="st73" cx="94.9" cy="87.9" r="67.8"/>
		<circle class="st74" cx="94.9" cy="87.9" r="67.8"/>
		<circle class="st75" cx="94.9" cy="87.9" r="67.7"/>
		<circle class="st76" cx="94.9" cy="87.9" r="67.7"/>
		<circle class="st77" cx="94.8" cy="87.9" r="67.7"/>
		<circle class="st78" cx="94.8" cy="87.9" r="67.7"/>
		<circle class="st79" cx="94.8" cy="87.8" r="67.6"/>
		<circle class="st80" cx="94.7" cy="87.8" r="67.6"/>
		<circle class="st81" cx="94.7" cy="87.8" r="67.6"/>
		<circle class="st82" cx="94.7" cy="87.8" r="67.5"/>
		<circle class="st83" cx="94.7" cy="87.8" r="67.5"/>
		<circle class="st84" cx="94.6" cy="87.8" r="67.5"/>
		<circle class="st85" cx="94.6" cy="87.7" r="67.4"/>
		<circle class="st86" cx="94.6" cy="87.7" r="67.4"/>
		<circle class="st87" cx="94.5" cy="87.7" r="67.4"/>
		<circle class="st88" cx="94.5" cy="87.7" r="67.3"/>
		<circle class="st89" cx="94.5" cy="87.7" r="67.3"/>
		<circle class="st90" cx="94.4" cy="87.7" r="67.3"/>
		<circle class="st91" cx="94.4" cy="87.6" r="67.2"/>
		<circle class="st92" cx="94.4" cy="87.6" r="67.2"/>
		<circle class="st93" cx="94.4" cy="87.6" r="67.2"/>
		<circle class="st94" cx="94.3" cy="87.6" r="67.2"/>
		<circle class="st95" cx="94.3" cy="87.6" r="67.1"/>
		<circle class="st96" cx="94.3" cy="87.6" r="67.1"/>
		<circle class="st97" cx="94.2" cy="87.5" r="67.1"/>
		<circle class="st98" cx="94.2" cy="87.5" r="67"/>
		<circle class="st99" cx="94.2" cy="87.5" r="67"/>
		<circle class="st100" cx="94.2" cy="87.5" r="67"/>
		<circle class="st101" cx="94.1" cy="87.5" r="66.9"/>
		<circle class="st102" cx="94.1" cy="87.5" r="66.9"/>
		<circle class="st103" cx="94.1" cy="87.4" r="66.9"/>
		<circle class="st104" cx="94" cy="87.4" r="66.8"/>
		<circle class="st105" cx="94" cy="87.4" r="66.8"/>
		<circle class="st106" cx="94" cy="87.4" r="66.8"/>
		<circle class="st107" cx="93.9" cy="87.4" r="66.7"/>
		<circle class="st108" cx="93.9" cy="87.4" r="66.7"/>
		<circle class="st109" cx="93.9" cy="87.3" r="66.7"/>
		<circle class="st110" cx="93.9" cy="87.3" r="66.7"/>
		<circle class="st111" cx="93.8" cy="87.3" r="66.6"/>
		<circle class="st112" cx="93.8" cy="87.3" r="66.6"/>
		<circle class="st113" cx="93.8" cy="87.3" r="66.6"/>
		<circle class="st114" cx="93.7" cy="87.3" r="66.5"/>
		<circle class="st115" cx="93.7" cy="87.2" r="66.5"/>
		<circle class="st116" cx="93.7" cy="87.2" r="66.5"/>
		<circle class="st117" cx="93.7" cy="87.2" r="66.4"/>
		<circle class="st118" cx="93.6" cy="87.2" r="66.4"/>
		<circle class="st119" cx="93.6" cy="87.2" r="66.4"/>
		<circle class="st120" cx="93.6" cy="87.1" r="66.3"/>
		<circle class="st121" cx="93.5" cy="87.1" r="66.3"/>
		<circle class="st122" cx="93.5" cy="87.1" r="66.3"/>
		<circle class="st123" cx="93.5" cy="87.1" r="66.2"/>
		<circle class="st124" cx="93.5" cy="87.1" r="66.2"/>
		<circle class="st125" cx="93.4" cy="87.1" r="66.2"/>
		<circle class="st126" cx="93.4" cy="87" r="66.2"/>
		<circle class="st127" cx="93.4" cy="87" r="66.1"/>
		<circle class="st128" cx="93.3" cy="87" r="66.1"/>
		<circle class="st129" cx="93.3" cy="87" r="66.1"/>
		<circle class="st130" cx="93.3" cy="87" r="66"/>
		<circle class="st131" cx="93.2" cy="87" r="66"/>
		<circle class="st132" cx="93.2" cy="86.9" r="66"/>
		<circle class="st133" cx="93.2" cy="86.9" r="65.9"/>
		<circle class="st134" cx="93.2" cy="86.9" r="65.9"/>
		<circle class="st135" cx="93.1" cy="86.9" r="65.9"/>
		<circle class="st136" cx="93.1" cy="86.9" r="65.8"/>
		<circle class="st137" cx="93.1" cy="86.9" r="65.8"/>
		<circle class="st138" cx="93" cy="86.8" r="65.8"/>
		<circle class="st139" cx="93" cy="86.8" r="65.7"/>
		<circle class="st140" cx="93" cy="86.8" r="65.7"/>
		<circle class="st141" cx="93" cy="86.8" r="65.7"/>
		<circle class="st142" cx="92.9" cy="86.8" r="65.7"/>
		<circle class="st143" cx="92.9" cy="86.8" r="65.6"/>
		<circle class="st144" cx="92.9" cy="86.7" r="65.6"/>
		<circle class="st145" cx="92.8" cy="86.7" r="65.6"/>
		<circle class="st146" cx="92.8" cy="86.7" r="65.5"/>
		<circle class="st147" cx="92.8" cy="86.7" r="65.5"/>
		<circle class="st148" cx="92.7" cy="86.7" r="65.5"/>
		<circle class="st149" cx="92.7" cy="86.7" r="65.4"/>
		<circle class="st150" cx="92.7" cy="86.6" r="65.4"/>
		<circle class="st151" cx="92.7" cy="86.6" r="65.4"/>
		<circle class="st152" cx="92.6" cy="86.6" r="65.3"/>
		<circle class="st153" cx="92.6" cy="86.6" r="65.3"/>
		<circle class="st154" cx="92.6" cy="86.6" r="65.3"/>
		<circle class="st155" cx="92.5" cy="86.6" r="65.2"/>
		<circle class="st156" cx="92.5" cy="86.5" r="65.2"/>
		<circle class="st157" cx="92.5" cy="86.5" r="65.2"/>
		<circle class="st158" cx="92.5" cy="86.5" r="65.2"/>
		<circle class="st159" cx="92.4" cy="86.5" r="65.1"/>
		<circle class="st160" cx="92.4" cy="86.5" r="65.1"/>
		<circle class="st161" cx="92.4" cy="86.4" r="65.1"/>
		<circle class="st162" cx="92.3" cy="86.4" r="65"/>
		<circle class="st163" cx="92.3" cy="86.4" r="65"/>
		<circle class="st164" cx="92.3" cy="86.4" r="65"/>
		<circle class="st165" cx="92.2" cy="86.4" r="64.9"/>
		<circle class="st166" cx="92.2" cy="86.4" r="64.9"/>
		<circle class="st167" cx="92.2" cy="86.3" r="64.9"/>
		<circle class="st168" cx="92.2" cy="86.3" r="64.8"/>
		<circle class="st169" cx="92.1" cy="86.3" r="64.8"/>
		<circle class="st170" cx="92.1" cy="86.3" r="64.8"/>
		<circle class="st171" cx="92.1" cy="86.3" r="64.7"/>
		<circle class="st172" cx="92" cy="86.3" r="64.7"/>
		<circle class="st173" cx="92" cy="86.2" r="64.7"/>
		<circle class="st174" cx="92" cy="86.2" r="64.7"/>
		<circle class="st175" cx="92" cy="86.2" r="64.6"/>
		<circle class="st176" cx="91.9" cy="86.2" r="64.6"/>
		<circle class="st177" cx="91.9" cy="86.2" r="64.6"/>
		<circle class="st178" cx="91.9" cy="86.2" r="64.5"/>
		<circle class="st179" cx="91.8" cy="86.1" r="64.5"/>
		<circle class="st180" cx="91.8" cy="86.1" r="64.5"/>
		<circle class="st181" cx="91.8" cy="86.1" r="64.4"/>
		<circle class="st182" cx="91.8" cy="86.1" r="64.4"/>
		<circle class="st183" cx="91.7" cy="86.1" r="64.4"/>
		<circle class="st184" cx="91.7" cy="86.1" r="64.3"/>
		<circle class="st185" cx="91.7" cy="86" r="64.3"/>
		<circle class="st186" cx="91.6" cy="86" r="64.3"/>
		<circle class="st187" cx="91.6" cy="86" r="64.2"/>
		<circle class="st188" cx="91.6" cy="86" r="64.2"/>
		<circle class="st189" cx="91.5" cy="86" r="64.2"/>
		<circle class="st190" cx="91.5" cy="86" r="64.2"/>
		<circle class="st191" cx="91.5" cy="85.9" r="64.1"/>
		<circle class="st192" cx="91.5" cy="85.9" r="64.1"/>
		<circle class="st193" cx="91.4" cy="85.9" r="64.1"/>
		<circle class="st194" cx="91.4" cy="85.9" r="64"/>
		<circle class="st195" cx="91.4" cy="85.9" r="64"/>
		<circle class="st196" cx="91.3" cy="85.9" r="64"/>
		<circle class="st197" cx="91.3" cy="85.8" r="63.9"/>
		<circle class="st198" cx="91.3" cy="85.8" r="63.9"/>
		<circle class="st199" cx="91.3" cy="85.8" r="63.9"/>
		<circle class="st200" cx="91.2" cy="85.8" r="63.8"/>
		<circle class="st201" cx="91.2" cy="85.8" r="63.8"/>
	</g>
	
		<linearGradient id="SVGID_1_" gradientUnits="userSpaceOnUse" x1="-615.8888" y1="-310.3494" x2="-615.8888" y2="-148.9839" gradientTransform="matrix(0.9114 0.4116 -0.4116 0.9114 522.8724 628.3299)">
		<stop  offset="0" style="stop-color:#63C2FF"/>
		<stop  offset="8.611090e-02" style="stop-color:#6CB3FE"/>
		<stop  offset="0.2506" style="stop-color:#838DFA"/>
		<stop  offset="0.4534" style="stop-color:#A456F4"/>
		<stop  offset="0.6854" style="stop-color:#7448EE"/>
		<stop  offset="1" style="stop-color:#2E34E6"/>
	</linearGradient>
	<path class="st202" d="M149.6,115.6C135,147.8,98.1,160,65.9,145.4c-32.2-14.6-48.2-52-33.6-84.2s53-45,85.3-30.4
		S164.1,83.3,149.6,115.6z"/>
</g>
<linearGradient id="SVGID_2_" gradientUnits="userSpaceOnUse" x1="97.752" y1="174.8454" x2="22.6792" y2="98.286">
	<stop  offset="0.2104" style="stop-color:#15DD69"/>
	<stop  offset="0.2947" style="stop-color:#1FD178"/>
	<stop  offset="0.4559" style="stop-color:#3AB29E"/>
	<stop  offset="0.6754" style="stop-color:#6480DB"/>
	<stop  offset="0.7509" style="stop-color:#746DF2"/>
	<stop  offset="1" style="stop-color:#B81DF5"/>
</linearGradient>
<path class="st203" d="M9.7,157v-27.7c-1.3-19.2,13.8-35.4,33-35.4h32.2c19.2,0,34.4,16.3,33,35.4V157"/>
<polygon class="st204" points="5.8,107.1 16.1,106.1 35.2,107.1 35.2,159.3 5.8,159.3 "/>
<g>
	<g>
		<path class="st205" d="M67.3,66.1c0.4,0,0.8,0.1,1.2,0.2c1.9-3.8,5.9-6.5,10.4-6.5c4.5,0,8.5,2.6,10.4,6.4c0.3-0.1,0.6-0.1,1-0.1
			c1.9,0,3.5,1.6,3.5,3.5c0,1.9-1.5,3.4-3.4,3.5c-0.8,5.7-5.7,10-11.5,10c-5.9,0-10.7-4.4-11.5-10c0,0-0.1,0-0.1,0
			c-1.9,0-3.5-1.6-3.5-3.5C63.7,67.7,65.3,66.1,67.3,66.1z"/>
		<g>
			<path d="M85,72.8l0,1.7c0,0.4,0.4,0.8,0.8,0.8l0,0c0.4,0,0.8-0.4,0.8-0.8l0-1.7c0-0.4-0.4-0.8-0.8-0.8l0,0
				C85.3,72,85,72.4,85,72.8z"/>
			<path d="M77.9,72.8l0,1.7c0,0.4,0.4,0.8,0.8,0.8l0,0c0.4,0,0.8-0.4,0.8-0.8l0-1.7c0-0.4-0.4-0.8-0.8-0.8l0,0
				C78.3,72,77.9,72.4,77.9,72.8z"/>
		</g>
	</g>
	<path d="M33,9.8c0.7,2.6,3.6,10.5,13.8,13.2c10.6,2.8,14,14,14,14s1.7,10.6,14,14c11.7,3.2,14.7,14.8,14.7,14.8l-1.1-0.5
		c-2.1-3.1-5.6-5.1-9.6-5.1c-4.6,0-8.5,2.6-10.4,6.5c-0.4-0.1-0.8-0.2-1.2-0.2c-1.4,0-2.6,0.8-3.2,2c-1.5-0.9-3.4-1.7-5.6-2.3
		c-12.4-3.3-14-14-14-14s-3.4-11.2-14-14c-9.2-2.4-12.5-9-13.5-12.2L33,9.8z"/>
</g>
<g>
	
		<rect x="67.1" y="104.7" transform="matrix(-1 -4.491308e-11 4.491308e-11 -1 179.5304 261.6898)" class="st204" width="45.3" height="52.3"/>
	<g>
		<path class="st206" d="M67.3,157V93.2c0-5.6,4.5-10.1,10.1-10.1h8.8c0-3.3,2.7-6,6-6c6.3,0,6,6,6,6c0-3.3,2.7-6,6-6c5.6,0,6,6,6,6
			c0-3.3,2.7-6,6-6c3.3,0,6,2.7,6,6l0,0c0,23.5-19,42.3-42.5,42.3c-0.2,0-0.4,0-0.5,0"/>
		<path class="st207" d="M105.2,98.6c2.9-4.5,4.7-9.8,5-15.5c0-0.6,0.1-1.2,0.1-1.8"/>
		<path class="st207" d="M98.3,82.9c0,4.8-1.8,9.2-4.8,12.5"/>
	</g>
</g>
<g>
	<polygon class="st206" points="167.1,157 88.2,157 87.8,102.5 166.7,102.5 	"/>
	<circle cx="127.4" cy="129.7" r="2.7"/>
</g>
<line class="st208" x1="167.1" y1="157" x2="39.3" y2="157"/>
<g>
	<g>
		<path class="st206" d="M17.4,106.5c18.1-2.7,37.2,2.9,51.1,16.8l-0.2-0.2L81,135.8c2.3,2.3,2.3,6.1,0,8.4h0
			c-2.3,2.3-6.1,2.3-8.4,0l-11.3-11.3l-1.5-1.5c2.3,2.3,2.3,6.1,0,8.4c-2,2-5.2,2.3-7.5,0.8l-1-0.7c2.3,2.3,2.3,6.1,0,8.4
			s-6.1,2.3-8.4,0l0.9,1.2c1.4,2.3,1.1,5.3-0.9,7.3c-2.3,2.3-6.1,2.3-8.4,0"/>
		<path class="st206" d="M16.9,143.5c8.7-3.7,19.1-2,26.2,5.1l0,0"/>
		<path class="st206" d="M16.9,130.9c12-3.2,25.3-0.2,34.7,9.2l0,0"/>
		<path class="st206" d="M17.1,118.6c15.1-2.9,31.2,1.5,42.9,13.1l0,0"/>
	</g>
</g>
</svg>
