<?xml version="1.0" encoding="utf-8"?>
<!-- Generator: Adobe Illustrator 23.0.6, SVG Export Plug-In . SVG Version: 6.00 Build 0)  -->
<svg version="1.1" id="Слой_1" xmlns="http://www.w3.org/2000/svg" xmlns:xlink="http://www.w3.org/1999/xlink" x="0px" y="0px"
	 viewBox="0 0 180 180" style="enable-background:new 0 0 180 180;" xml:space="preserve">
<style type="text/css">
	.st0{opacity:0;fill:#FFFFFF;}
	.st1{opacity:4.975124e-03;fill:#FEFFFF;}
	.st2{opacity:9.950249e-03;fill:#FDFEFF;}
	.st3{opacity:1.492537e-02;fill:#FDFEFF;}
	.st4{opacity:1.990050e-02;fill:#FCFEFF;}
	.st5{opacity:2.487562e-02;fill:#FBFDFF;}
	.st6{opacity:2.985075e-02;fill:#FAFDFF;}
	.st7{opacity:3.482587e-02;fill:#FAFDFF;}
	.st8{opacity:3.980099e-02;fill:#F9FDFF;}
	.st9{opacity:4.477612e-02;fill:#F8FCFF;}
	.st10{opacity:4.975124e-02;fill:#F7FCFF;}
	.st11{opacity:5.472637e-02;fill:#F6FCFF;}
	.st12{opacity:5.970149e-02;fill:#F6FBFF;}
	.st13{opacity:6.467662e-02;fill:#F5FBFF;}
	.st14{opacity:6.965174e-02;fill:#F4FBFF;}
	.st15{opacity:7.462686e-02;fill:#F3FAFF;}
	.st16{opacity:7.960199e-02;fill:#F3FAFF;}
	.st17{opacity:8.457711e-02;fill:#F2FAFF;}
	.st18{opacity:8.955224e-02;fill:#F1FAFF;}
	.st19{opacity:9.452736e-02;fill:#F0F9FF;}
	.st20{opacity:9.950249e-02;fill:#EFF9FF;}
	.st21{opacity:0.1045;fill:#EFF9FF;}
	.st22{opacity:0.1095;fill:#EEF8FF;}
	.st23{opacity:0.1144;fill:#EDF8FF;}
	.st24{opacity:0.1194;fill:#ECF8FF;}
	.st25{opacity:0.1244;fill:#ECF7FF;}
	.st26{opacity:0.1294;fill:#EBF7FF;}
	.st27{opacity:0.1343;fill:#EAF7FF;}
	.st28{opacity:0.1393;fill:#E9F7FF;}
	.st29{opacity:0.1443;fill:#E8F6FF;}
	.st30{opacity:0.1493;fill:#E8F6FF;}
	.st31{opacity:0.1542;fill:#E7F6FF;}
	.st32{opacity:0.1592;fill:#E6F5FF;}
	.st33{opacity:0.1642;fill:#E5F5FF;}
	.st34{opacity:0.1692;fill:#E5F5FF;}
	.st35{opacity:0.1741;fill:#E4F4FF;}
	.st36{opacity:0.1791;fill:#E3F4FF;}
	.st37{opacity:0.1841;fill:#E2F4FF;}
	.st38{opacity:0.1891;fill:#E2F3FF;}
	.st39{opacity:0.194;fill:#E1F3FF;}
	.st40{opacity:0.199;fill:#E0F3FF;}
	.st41{opacity:0.204;fill:#DFF3FF;}
	.st42{opacity:0.209;fill:#DEF2FF;}
	.st43{opacity:0.2139;fill:#DEF2FF;}
	.st44{opacity:0.2189;fill:#DDF2FF;}
	.st45{opacity:0.2239;fill:#DCF1FF;}
	.st46{opacity:0.2289;fill:#DBF1FF;}
	.st47{opacity:0.2338;fill:#DBF1FF;}
	.st48{opacity:0.2388;fill:#DAF0FF;}
	.st49{opacity:0.2438;fill:#D9F0FF;}
	.st50{opacity:0.2488;fill:#D8F0FF;}
	.st51{opacity:0.2537;fill:#D7F0FF;}
	.st52{opacity:0.2587;fill:#D7EFFF;}
	.st53{opacity:0.2637;fill:#D6EFFF;}
	.st54{opacity:0.2687;fill:#D5EFFF;}
	.st55{opacity:0.2736;fill:#D4EEFF;}
	.st56{opacity:0.2786;fill:#D4EEFF;}
	.st57{opacity:0.2836;fill:#D3EEFF;}
	.st58{opacity:0.2886;fill:#D2EDFF;}
	.st59{opacity:0.2935;fill:#D1EDFF;}
	.st60{opacity:0.2985;fill:#D0EDFF;}
	.st61{opacity:0.3035;fill:#D0ECFF;}
	.st62{opacity:0.3085;fill:#CFECFF;}
	.st63{opacity:0.3134;fill:#CEECFF;}
	.st64{opacity:0.3184;fill:#CDECFF;}
	.st65{opacity:0.3234;fill:#CDEBFF;}
	.st66{opacity:0.3284;fill:#CCEBFF;}
	.st67{opacity:0.3333;fill:#CBEBFF;}
	.st68{opacity:0.3383;fill:#CAEAFF;}
	.st69{opacity:0.3433;fill:#C9EAFF;}
	.st70{opacity:0.3483;fill:#C9EAFF;}
	.st71{opacity:0.3532;fill:#C8E9FF;}
	.st72{opacity:0.3582;fill:#C7E9FF;}
	.st73{opacity:0.3632;fill:#C6E9FF;}
	.st74{opacity:0.3682;fill:#C6E9FF;}
	.st75{opacity:0.3731;fill:#C5E8FF;}
	.st76{opacity:0.3781;fill:#C4E8FF;}
	.st77{opacity:0.3831;fill:#C3E8FF;}
	.st78{opacity:0.3881;fill:#C2E7FF;}
	.st79{opacity:0.393;fill:#C2E7FF;}
	.st80{opacity:0.398;fill:#C1E7FF;}
	.st81{opacity:0.403;fill:#C0E6FF;}
	.st82{opacity:0.408;fill:#BFE6FF;}
	.st83{opacity:0.4129;fill:#BFE6FF;}
	.st84{opacity:0.4179;fill:#BEE6FF;}
	.st85{opacity:0.4229;fill:#BDE5FF;}
	.st86{opacity:0.4279;fill:#BCE5FF;}
	.st87{opacity:0.4328;fill:#BBE5FF;}
	.st88{opacity:0.4378;fill:#BBE4FF;}
	.st89{opacity:0.4428;fill:#BAE4FF;}
	.st90{opacity:0.4478;fill:#B9E4FF;}
	.st91{opacity:0.4527;fill:#B8E3FF;}
	.st92{opacity:0.4577;fill:#B8E3FF;}
	.st93{opacity:0.4627;fill:#B7E3FF;}
	.st94{opacity:0.4677;fill:#B6E2FF;}
	.st95{opacity:0.4726;fill:#B5E2FF;}
	.st96{opacity:0.4776;fill:#B4E2FF;}
	.st97{opacity:0.4826;fill:#B4E2FF;}
	.st98{opacity:0.4876;fill:#B3E1FF;}
	.st99{opacity:0.4925;fill:#B2E1FF;}
	.st100{opacity:0.4975;fill:#B1E1FF;}
	.st101{opacity:0.5025;fill:#B1E0FF;}
	.st102{opacity:0.5075;fill:#B0E0FF;}
	.st103{opacity:0.5124;fill:#AFE0FF;}
	.st104{opacity:0.5174;fill:#AEDFFF;}
	.st105{opacity:0.5224;fill:#AEDFFF;}
	.st106{opacity:0.5274;fill:#ADDFFF;}
	.st107{opacity:0.5323;fill:#ACDFFF;}
	.st108{opacity:0.5373;fill:#ABDEFF;}
	.st109{opacity:0.5423;fill:#AADEFF;}
	.st110{opacity:0.5473;fill:#AADEFF;}
	.st111{opacity:0.5522;fill:#A9DDFF;}
	.st112{opacity:0.5572;fill:#A8DDFF;}
	.st113{opacity:0.5622;fill:#A7DDFF;}
	.st114{opacity:0.5672;fill:#A7DCFF;}
	.st115{opacity:0.5721;fill:#A6DCFF;}
	.st116{opacity:0.5771;fill:#A5DCFF;}
	.st117{opacity:0.5821;fill:#A4DBFF;}
	.st118{opacity:0.5871;fill:#A3DBFF;}
	.st119{opacity:0.592;fill:#A3DBFF;}
	.st120{opacity:0.597;fill:#A2DBFF;}
	.st121{opacity:0.602;fill:#A1DAFF;}
	.st122{opacity:0.607;fill:#A0DAFF;}
	.st123{opacity:0.6119;fill:#A0DAFF;}
	.st124{opacity:0.6169;fill:#9FD9FF;}
	.st125{opacity:0.6219;fill:#9ED9FF;}
	.st126{opacity:0.6269;fill:#9DD9FF;}
	.st127{opacity:0.6318;fill:#9CD8FF;}
	.st128{opacity:0.6368;fill:#9CD8FF;}
	.st129{opacity:0.6418;fill:#9BD8FF;}
	.st130{opacity:0.6468;fill:#9AD8FF;}
	.st131{opacity:0.6517;fill:#99D7FF;}
	.st132{opacity:0.6567;fill:#99D7FF;}
	.st133{opacity:0.6617;fill:#98D7FF;}
	.st134{opacity:0.6667;fill:#97D6FF;}
	.st135{opacity:0.6716;fill:#96D6FF;}
	.st136{opacity:0.6766;fill:#95D6FF;}
	.st137{opacity:0.6816;fill:#95D5FF;}
	.st138{opacity:0.6866;fill:#94D5FF;}
	.st139{opacity:0.6915;fill:#93D5FF;}
	.st140{opacity:0.6965;fill:#92D5FF;}
	.st141{opacity:0.7015;fill:#92D4FF;}
	.st142{opacity:0.7065;fill:#91D4FF;}
	.st143{opacity:0.7114;fill:#90D4FF;}
	.st144{opacity:0.7164;fill:#8FD3FF;}
	.st145{opacity:0.7214;fill:#8ED3FF;}
	.st146{opacity:0.7264;fill:#8ED3FF;}
	.st147{opacity:0.7313;fill:#8DD2FF;}
	.st148{opacity:0.7363;fill:#8CD2FF;}
	.st149{opacity:0.7413;fill:#8BD2FF;}
	.st150{opacity:0.7463;fill:#8BD1FF;}
	.st151{opacity:0.7512;fill:#8AD1FF;}
	.st152{opacity:0.7562;fill:#89D1FF;}
	.st153{opacity:0.7612;fill:#88D1FF;}
	.st154{opacity:0.7662;fill:#87D0FF;}
	.st155{opacity:0.7711;fill:#87D0FF;}
	.st156{opacity:0.7761;fill:#86D0FF;}
	.st157{opacity:0.7811;fill:#85CFFF;}
	.st158{opacity:0.7861;fill:#84CFFF;}
	.st159{opacity:0.791;fill:#84CFFF;}
	.st160{opacity:0.796;fill:#83CEFF;}
	.st161{opacity:0.801;fill:#82CEFF;}
	.st162{opacity:0.806;fill:#81CEFF;}
	.st163{opacity:0.8109;fill:#80CEFF;}
	.st164{opacity:0.8159;fill:#80CDFF;}
	.st165{opacity:0.8209;fill:#7FCDFF;}
	.st166{opacity:0.8259;fill:#7ECDFF;}
	.st167{opacity:0.8308;fill:#7DCCFF;}
	.st168{opacity:0.8358;fill:#7DCCFF;}
	.st169{opacity:0.8408;fill:#7CCCFF;}
	.st170{opacity:0.8458;fill:#7BCBFF;}
	.st171{opacity:0.8507;fill:#7ACBFF;}
	.st172{opacity:0.8557;fill:#7ACBFF;}
	.st173{opacity:0.8607;fill:#79CAFF;}
	.st174{opacity:0.8657;fill:#78CAFF;}
	.st175{opacity:0.8706;fill:#77CAFF;}
	.st176{opacity:0.8756;fill:#76CAFF;}
	.st177{opacity:0.8806;fill:#76C9FF;}
	.st178{opacity:0.8856;fill:#75C9FF;}
	.st179{opacity:0.8905;fill:#74C9FF;}
	.st180{opacity:0.8955;fill:#73C8FF;}
	.st181{opacity:0.9005;fill:#73C8FF;}
	.st182{opacity:0.9055;fill:#72C8FF;}
	.st183{opacity:0.9104;fill:#71C7FF;}
	.st184{opacity:0.9154;fill:#70C7FF;}
	.st185{opacity:0.9204;fill:#6FC7FF;}
	.st186{opacity:0.9254;fill:#6FC7FF;}
	.st187{opacity:0.9303;fill:#6EC6FF;}
	.st188{opacity:0.9353;fill:#6DC6FF;}
	.st189{opacity:0.9403;fill:#6CC6FF;}
	.st190{opacity:0.9453;fill:#6CC5FF;}
	.st191{opacity:0.9502;fill:#6BC5FF;}
	.st192{opacity:0.9552;fill:#6AC5FF;}
	.st193{opacity:0.9602;fill:#69C4FF;}
	.st194{opacity:0.9652;fill:#68C4FF;}
	.st195{opacity:0.9701;fill:#68C4FF;}
	.st196{opacity:0.9751;fill:#67C4FF;}
	.st197{opacity:0.9801;fill:#66C3FF;}
	.st198{opacity:0.9851;fill:#65C3FF;}
	.st199{opacity:0.99;fill:#65C3FF;}
	.st200{opacity:0.995;fill:#64C2FF;}
	.st201{fill:#63C2FF;}
	.st202{fill:url(#SVGID_1_);}
	.st203{fill:url(#SVGID_2_);}
	.st204{fill:#FFFFFF;}
	.st205{fill:none;stroke:#000000;stroke-linecap:round;stroke-miterlimit:10;}
	.st206{fill:#FFFFFF;stroke:#000000;stroke-miterlimit:10;}
	.st207{fill-rule:evenodd;clip-rule:evenodd;}
	.st208{fill:#FFFFFF;stroke:#000000;stroke-linecap:round;stroke-linejoin:round;stroke-miterlimit:10;}
	.st209{fill:none;stroke:#000000;stroke-width:0.9157;stroke-linecap:round;stroke-miterlimit:10;}
</style>
<g>
	<g>
		<circle class="st0" cx="98.1" cy="89.2" r="70.1"/>
		<circle class="st1" cx="98.1" cy="89.2" r="70.1"/>
		<circle class="st2" cx="98" cy="89.2" r="70"/>
		<circle class="st3" cx="98" cy="89.1" r="70"/>
		<circle class="st4" cx="98" cy="89.1" r="70"/>
		<circle class="st5" cx="97.9" cy="89.1" r="69.9"/>
		<circle class="st6" cx="97.9" cy="89.1" r="69.9"/>
		<circle class="st7" cx="97.9" cy="89.1" r="69.9"/>
		<circle class="st8" cx="97.9" cy="89.1" r="69.8"/>
		<circle class="st9" cx="97.8" cy="89" r="69.8"/>
		<circle class="st10" cx="97.8" cy="89" r="69.8"/>
		<circle class="st11" cx="97.8" cy="89" r="69.8"/>
		<circle class="st12" cx="97.7" cy="89" r="69.7"/>
		<circle class="st13" cx="97.7" cy="89" r="69.7"/>
		<circle class="st14" cx="97.7" cy="89" r="69.7"/>
		<circle class="st15" cx="97.6" cy="88.9" r="69.6"/>
		<circle class="st16" cx="97.6" cy="88.9" r="69.6"/>
		<circle class="st17" cx="97.6" cy="88.9" r="69.6"/>
		<circle class="st18" cx="97.6" cy="88.9" r="69.5"/>
		<circle class="st19" cx="97.5" cy="88.9" r="69.5"/>
		<circle class="st20" cx="97.5" cy="88.9" r="69.5"/>
		<circle class="st21" cx="97.5" cy="88.8" r="69.4"/>
		<circle class="st22" cx="97.4" cy="88.8" r="69.4"/>
		<circle class="st23" cx="97.4" cy="88.8" r="69.4"/>
		<circle class="st24" cx="97.4" cy="88.8" r="69.3"/>
		<circle class="st25" cx="97.4" cy="88.8" r="69.3"/>
		<circle class="st26" cx="97.3" cy="88.7" r="69.3"/>
		<circle class="st27" cx="97.3" cy="88.7" r="69.3"/>
		<circle class="st28" cx="97.3" cy="88.7" r="69.2"/>
		<circle class="st29" cx="97.2" cy="88.7" r="69.2"/>
		<circle class="st30" cx="97.2" cy="88.7" r="69.2"/>
		<circle class="st31" cx="97.2" cy="88.7" r="69.1"/>
		<circle class="st32" cx="97.1" cy="88.6" r="69.1"/>
		<circle class="st33" cx="97.1" cy="88.6" r="69.1"/>
		<circle class="st34" cx="97.1" cy="88.6" r="69"/>
		<circle class="st35" cx="97.1" cy="88.6" r="69"/>
		<circle class="st36" cx="97" cy="88.6" r="69"/>
		<circle class="st37" cx="97" cy="88.6" r="68.9"/>
		<circle class="st38" cx="97" cy="88.5" r="68.9"/>
		<circle class="st39" cx="96.9" cy="88.5" r="68.9"/>
		<circle class="st40" cx="96.9" cy="88.5" r="68.8"/>
		<circle class="st41" cx="96.9" cy="88.5" r="68.8"/>
		<circle class="st42" cx="96.9" cy="88.5" r="68.8"/>
		<circle class="st43" cx="96.8" cy="88.5" r="68.8"/>
		<circle class="st44" cx="96.8" cy="88.4" r="68.7"/>
		<circle class="st45" cx="96.8" cy="88.4" r="68.7"/>
		<circle class="st46" cx="96.7" cy="88.4" r="68.7"/>
		<circle class="st47" cx="96.7" cy="88.4" r="68.6"/>
		<circle class="st48" cx="96.7" cy="88.4" r="68.6"/>
		<circle class="st49" cx="96.6" cy="88.4" r="68.6"/>
		<circle class="st50" cx="96.6" cy="88.3" r="68.5"/>
		<circle class="st51" cx="96.6" cy="88.3" r="68.5"/>
		<circle class="st52" cx="96.6" cy="88.3" r="68.5"/>
		<circle class="st53" cx="96.5" cy="88.3" r="68.4"/>
		<circle class="st54" cx="96.5" cy="88.3" r="68.4"/>
		<circle class="st55" cx="96.5" cy="88.3" r="68.4"/>
		<circle class="st56" cx="96.4" cy="88.2" r="68.3"/>
		<circle class="st57" cx="96.4" cy="88.2" r="68.3"/>
		<circle class="st58" cx="96.4" cy="88.2" r="68.3"/>
		<circle class="st59" cx="96.4" cy="88.2" r="68.3"/>
		<circle class="st60" cx="96.3" cy="88.2" r="68.2"/>
		<circle class="st61" cx="96.3" cy="88.2" r="68.2"/>
		<circle class="st62" cx="96.3" cy="88.1" r="68.2"/>
		<circle class="st63" cx="96.2" cy="88.1" r="68.1"/>
		<circle class="st64" cx="96.2" cy="88.1" r="68.1"/>
		<circle class="st65" cx="96.2" cy="88.1" r="68.1"/>
		<circle class="st66" cx="96.2" cy="88.1" r="68"/>
		<circle class="st67" cx="96.1" cy="88.1" r="68"/>
		<circle class="st68" cx="96.1" cy="88" r="68"/>
		<circle class="st69" cx="96.1" cy="88" r="67.9"/>
		<circle class="st70" cx="96" cy="88" r="67.9"/>
		<circle class="st71" cx="96" cy="88" r="67.9"/>
		<circle class="st72" cx="96" cy="88" r="67.8"/>
		<circle class="st73" cx="95.9" cy="87.9" r="67.8"/>
		<circle class="st74" cx="95.9" cy="87.9" r="67.8"/>
		<circle class="st75" cx="95.9" cy="87.9" r="67.7"/>
		<circle class="st76" cx="95.9" cy="87.9" r="67.7"/>
		<circle class="st77" cx="95.8" cy="87.9" r="67.7"/>
		<circle class="st78" cx="95.8" cy="87.9" r="67.7"/>
		<circle class="st79" cx="95.8" cy="87.8" r="67.6"/>
		<circle class="st80" cx="95.7" cy="87.8" r="67.6"/>
		<circle class="st81" cx="95.7" cy="87.8" r="67.6"/>
		<circle class="st82" cx="95.7" cy="87.8" r="67.5"/>
		<circle class="st83" cx="95.7" cy="87.8" r="67.5"/>
		<circle class="st84" cx="95.6" cy="87.8" r="67.5"/>
		<circle class="st85" cx="95.6" cy="87.7" r="67.4"/>
		<circle class="st86" cx="95.6" cy="87.7" r="67.4"/>
		<circle class="st87" cx="95.5" cy="87.7" r="67.4"/>
		<circle class="st88" cx="95.5" cy="87.7" r="67.3"/>
		<circle class="st89" cx="95.5" cy="87.7" r="67.3"/>
		<circle class="st90" cx="95.4" cy="87.7" r="67.3"/>
		<circle class="st91" cx="95.4" cy="87.6" r="67.2"/>
		<circle class="st92" cx="95.4" cy="87.6" r="67.2"/>
		<circle class="st93" cx="95.4" cy="87.6" r="67.2"/>
		<circle class="st94" cx="95.3" cy="87.6" r="67.2"/>
		<circle class="st95" cx="95.3" cy="87.6" r="67.1"/>
		<circle class="st96" cx="95.3" cy="87.6" r="67.1"/>
		<circle class="st97" cx="95.2" cy="87.5" r="67.1"/>
		<circle class="st98" cx="95.2" cy="87.5" r="67"/>
		<circle class="st99" cx="95.2" cy="87.5" r="67"/>
		<circle class="st100" cx="95.2" cy="87.5" r="67"/>
		<circle class="st101" cx="95.1" cy="87.5" r="66.9"/>
		<circle class="st102" cx="95.1" cy="87.5" r="66.9"/>
		<circle class="st103" cx="95.1" cy="87.4" r="66.9"/>
		<circle class="st104" cx="95" cy="87.4" r="66.8"/>
		<circle class="st105" cx="95" cy="87.4" r="66.8"/>
		<circle class="st106" cx="95" cy="87.4" r="66.8"/>
		<circle class="st107" cx="94.9" cy="87.4" r="66.7"/>
		<circle class="st108" cx="94.9" cy="87.4" r="66.7"/>
		<circle class="st109" cx="94.9" cy="87.3" r="66.7"/>
		<circle class="st110" cx="94.9" cy="87.3" r="66.7"/>
		<circle class="st111" cx="94.8" cy="87.3" r="66.6"/>
		<circle class="st112" cx="94.8" cy="87.3" r="66.6"/>
		<circle class="st113" cx="94.8" cy="87.3" r="66.6"/>
		<circle class="st114" cx="94.7" cy="87.3" r="66.5"/>
		<circle class="st115" cx="94.7" cy="87.2" r="66.5"/>
		<circle class="st116" cx="94.7" cy="87.2" r="66.5"/>
		<circle class="st117" cx="94.7" cy="87.2" r="66.4"/>
		<circle class="st118" cx="94.6" cy="87.2" r="66.4"/>
		<circle class="st119" cx="94.6" cy="87.2" r="66.4"/>
		<circle class="st120" cx="94.6" cy="87.1" r="66.3"/>
		<circle class="st121" cx="94.5" cy="87.1" r="66.3"/>
		<circle class="st122" cx="94.5" cy="87.1" r="66.3"/>
		<circle class="st123" cx="94.5" cy="87.1" r="66.2"/>
		<circle class="st124" cx="94.5" cy="87.1" r="66.2"/>
		<circle class="st125" cx="94.4" cy="87.1" r="66.2"/>
		<circle class="st126" cx="94.4" cy="87" r="66.2"/>
		<circle class="st127" cx="94.4" cy="87" r="66.1"/>
		<circle class="st128" cx="94.3" cy="87" r="66.1"/>
		<circle class="st129" cx="94.3" cy="87" r="66.1"/>
		<circle class="st130" cx="94.3" cy="87" r="66"/>
		<circle class="st131" cx="94.2" cy="87" r="66"/>
		<circle class="st132" cx="94.2" cy="86.9" r="66"/>
		<circle class="st133" cx="94.2" cy="86.9" r="65.9"/>
		<circle class="st134" cx="94.2" cy="86.9" r="65.9"/>
		<circle class="st135" cx="94.1" cy="86.9" r="65.9"/>
		<circle class="st136" cx="94.1" cy="86.9" r="65.8"/>
		<circle class="st137" cx="94.1" cy="86.9" r="65.8"/>
		<circle class="st138" cx="94" cy="86.8" r="65.8"/>
		<circle class="st139" cx="94" cy="86.8" r="65.7"/>
		<circle class="st140" cx="94" cy="86.8" r="65.7"/>
		<circle class="st141" cx="94" cy="86.8" r="65.7"/>
		<circle class="st142" cx="93.9" cy="86.8" r="65.7"/>
		<circle class="st143" cx="93.9" cy="86.8" r="65.6"/>
		<circle class="st144" cx="93.9" cy="86.7" r="65.6"/>
		<circle class="st145" cx="93.8" cy="86.7" r="65.6"/>
		<circle class="st146" cx="93.8" cy="86.7" r="65.5"/>
		<circle class="st147" cx="93.8" cy="86.7" r="65.5"/>
		<circle class="st148" cx="93.7" cy="86.7" r="65.5"/>
		<circle class="st149" cx="93.7" cy="86.7" r="65.4"/>
		<circle class="st150" cx="93.7" cy="86.6" r="65.4"/>
		<circle class="st151" cx="93.7" cy="86.6" r="65.4"/>
		<circle class="st152" cx="93.6" cy="86.6" r="65.3"/>
		<circle class="st153" cx="93.6" cy="86.6" r="65.3"/>
		<circle class="st154" cx="93.6" cy="86.6" r="65.3"/>
		<circle class="st155" cx="93.5" cy="86.6" r="65.2"/>
		<circle class="st156" cx="93.5" cy="86.5" r="65.2"/>
		<circle class="st157" cx="93.5" cy="86.5" r="65.2"/>
		<circle class="st158" cx="93.5" cy="86.5" r="65.2"/>
		<circle class="st159" cx="93.4" cy="86.5" r="65.1"/>
		<circle class="st160" cx="93.4" cy="86.5" r="65.1"/>
		<circle class="st161" cx="93.4" cy="86.4" r="65.1"/>
		<circle class="st162" cx="93.3" cy="86.4" r="65"/>
		<circle class="st163" cx="93.3" cy="86.4" r="65"/>
		<circle class="st164" cx="93.3" cy="86.4" r="65"/>
		<circle class="st165" cx="93.2" cy="86.4" r="64.9"/>
		<circle class="st166" cx="93.2" cy="86.4" r="64.9"/>
		<circle class="st167" cx="93.2" cy="86.3" r="64.9"/>
		<circle class="st168" cx="93.2" cy="86.3" r="64.8"/>
		<circle class="st169" cx="93.1" cy="86.3" r="64.8"/>
		<circle class="st170" cx="93.1" cy="86.3" r="64.8"/>
		<circle class="st171" cx="93.1" cy="86.3" r="64.7"/>
		<circle class="st172" cx="93" cy="86.3" r="64.7"/>
		<circle class="st173" cx="93" cy="86.2" r="64.7"/>
		<circle class="st174" cx="93" cy="86.2" r="64.7"/>
		<circle class="st175" cx="93" cy="86.2" r="64.6"/>
		<circle class="st176" cx="92.9" cy="86.2" r="64.6"/>
		<circle class="st177" cx="92.9" cy="86.2" r="64.6"/>
		<circle class="st178" cx="92.9" cy="86.2" r="64.5"/>
		<circle class="st179" cx="92.8" cy="86.1" r="64.5"/>
		<circle class="st180" cx="92.8" cy="86.1" r="64.5"/>
		<circle class="st181" cx="92.8" cy="86.1" r="64.4"/>
		<circle class="st182" cx="92.8" cy="86.1" r="64.4"/>
		<circle class="st183" cx="92.7" cy="86.1" r="64.4"/>
		<circle class="st184" cx="92.7" cy="86.1" r="64.3"/>
		<circle class="st185" cx="92.7" cy="86" r="64.3"/>
		<circle class="st186" cx="92.6" cy="86" r="64.3"/>
		<circle class="st187" cx="92.6" cy="86" r="64.2"/>
		<circle class="st188" cx="92.6" cy="86" r="64.2"/>
		<circle class="st189" cx="92.5" cy="86" r="64.2"/>
		<circle class="st190" cx="92.5" cy="86" r="64.2"/>
		<circle class="st191" cx="92.5" cy="85.9" r="64.1"/>
		<circle class="st192" cx="92.5" cy="85.9" r="64.1"/>
		<circle class="st193" cx="92.4" cy="85.9" r="64.1"/>
		<circle class="st194" cx="92.4" cy="85.9" r="64"/>
		<circle class="st195" cx="92.4" cy="85.9" r="64"/>
		<circle class="st196" cx="92.3" cy="85.9" r="64"/>
		<circle class="st197" cx="92.3" cy="85.8" r="63.9"/>
		<circle class="st198" cx="92.3" cy="85.8" r="63.9"/>
		<circle class="st199" cx="92.3" cy="85.8" r="63.9"/>
		<circle class="st200" cx="92.2" cy="85.8" r="63.8"/>
		<circle class="st201" cx="92.2" cy="85.8" r="63.8"/>
	</g>
	
		<linearGradient id="SVGID_1_" gradientUnits="userSpaceOnUse" x1="-633.547" y1="-394.4226" x2="-633.547" y2="-233.0571" gradientTransform="matrix(0.3534 0.9355 -0.9355 0.3534 -58.1443 821.5268)">
		<stop  offset="0" style="stop-color:#63C2FF"/>
		<stop  offset="8.611090e-02" style="stop-color:#6CB3FE"/>
		<stop  offset="0.2506" style="stop-color:#838DFA"/>
		<stop  offset="0.4534" style="stop-color:#A456F4"/>
		<stop  offset="0.6854" style="stop-color:#7448EE"/>
		<stop  offset="1" style="stop-color:#2E34E6"/>
	</linearGradient>
	<path class="st202" d="M112.9,148.7c-33.1,12.5-67.8-4.9-80.3-38s2.7-70.8,35.8-83.3s69.3,5.7,81.8,38.8
		C162.7,99.3,146,136.2,112.9,148.7z"/>
</g>
<linearGradient id="SVGID_2_" gradientUnits="userSpaceOnUse" x1="26.9435" y1="84.2127" x2="101.1519" y2="124.2617">
	<stop  offset="0.2104" style="stop-color:#15DD69"/>
	<stop  offset="0.2947" style="stop-color:#1FD178"/>
	<stop  offset="0.4559" style="stop-color:#3AB29E"/>
	<stop  offset="0.6754" style="stop-color:#6480DB"/>
	<stop  offset="0.7509" style="stop-color:#746DF2"/>
	<stop  offset="1" style="stop-color:#B81DF5"/>
</linearGradient>
<path class="st203" d="M27.1,131.4h98.1v-18.8c1.4-19.4-14-35.9-33.4-35.9H59.3c-19.4,0-33.5,16.5-32.1,35.9V131.4z"/>
<rect x="26.5" y="112.5" class="st204" width="4.7" height="22.3"/>
<polygon class="st204" points="109,159.5 78.5,159.5 78.5,95.6 126.8,95.6 126.8,159.2 "/>
<path class="st204" d="M169,162.8h-47.6V85.2h4.4c23.9,0,43.2,19.4,43.2,43.2V162.8z"/>
<g>
	<g>
		<g>
			<g>
				<path class="st204" d="M169,129.7L169,129.7c-0.1-25-20.5-45.1-45.4-45"/>
				<path class="st204" d="M146.5,129c-0.3-12.4-10.4-22.3-22.8-22.2"/>
				<path class="st204" d="M146.5,129c-0.3-12.4-10.4-22.3-22.8-22.2"/>
				<path class="st204" d="M123.7,106.8c-3,0-5.5,2.5-5.5,5.5c0,3,2.5,5.5,5.5,5.5"/>
				<path class="st204" d="M123.7,95.8c-3,0-5.5,2.5-5.5,5.5c0,3,2.5,5.5,5.5,5.5"/>
				<path class="st204" d="M123.6,84.8c-3,0-5.5,2.5-5.5,5.5c0,3,2.5,5.5,5.5,5.5"/>
				<path class="st204" d="M158,129.8L158,129.8c-0.1-18.9-15.5-34.1-34.3-34"/>
			</g>
		</g>
		<g>
			<g>
				<path class="st205" d="M169,129.7L169,129.7c-0.1-25-20.5-45.1-45.4-45"/>
				<path class="st206" d="M146.5,129c-0.3-12.4-10.4-22.3-22.8-22.2"/>
				<path class="st205" d="M146.5,129c-0.3-12.4-10.4-22.3-22.8-22.2"/>
				<path class="st205" d="M123.7,106.8c-3,0-5.5,2.5-5.5,5.5c0,3,2.5,5.5,5.5,5.5"/>
				<path class="st205" d="M123.7,95.8c-3,0-5.5,2.5-5.5,5.5c0,3,2.5,5.5,5.5,5.5"/>
				<path class="st205" d="M123.6,84.8c-3,0-5.5,2.5-5.5,5.5c0,3,2.5,5.5,5.5,5.5"/>
				<path class="st205" d="M78.2,159.9V96l45.4-0.2c18.9-0.1,34.2,15.1,34.3,34v0"/>
			</g>
		</g>
	</g>
	<line class="st205" x1="169" y1="129.7" x2="169" y2="141.4"/>
</g>
<g>
	<g>
		<path class="st204" d="M76.9,65c-5.6,0-10.4-4.2-11.2-9.7l-0.1-0.4l-0.4,0c-1.6-0.1-2.9-1.4-2.9-3.1c0-1.7,1.4-3.1,3.1-3.1
			c0.3,0,0.6,0,0.9,0.1l0.4,0.1l0.2-0.4c1.9-3.8,5.8-6.2,10.1-6.2c4.3,0,8.2,2.4,10.1,6.3l0.2,0.4l0.4-0.2c0.3-0.1,0.7-0.2,1.1-0.2
			c1.7,0,3.1,1.4,3.1,3.1c0,1.7-1.4,3.1-3.1,3.1h-0.4l-0.2,0.4C87.4,60.8,82.5,65,76.9,65z"/>
		<g>
			<path d="M76.9,42.9c4.1,0,7.8,2.3,9.7,6l0.4,0.8l0.8-0.3c0.3-0.1,0.6-0.2,0.9-0.2c1.4,0,2.6,1.2,2.6,2.6c0,1.4-1.2,2.6-2.6,2.6
				c0,0,0,0,0,0l-0.1,0l0,0l-0.9,0l-0.1,0.9c-0.7,5.3-5.3,9.3-10.7,9.3c-5.4,0-10-4-10.7-9.3l-0.1-0.8l-0.8,0
				c-1.4-0.1-2.5-1.2-2.5-2.6c0-1.4,1.2-2.6,2.6-2.6c0.2,0,0.5,0,0.7,0.1l0.8,0.2l0.4-0.7C69.2,45.2,72.9,42.9,76.9,42.9 M76.9,41.9
				c-4.6,0-8.6,2.6-10.5,6.5c-0.3-0.1-0.7-0.1-1-0.1c-2,0-3.6,1.6-3.6,3.6c0,1.9,1.5,3.5,3.4,3.6c0.8,5.7,5.7,10.2,11.7,10.2
				c6,0,10.9-4.4,11.7-10.2c0,0,0.1,0,0.1,0c2,0,3.6-1.6,3.6-3.6c0-2-1.6-3.6-3.6-3.6c-0.4,0-0.9,0.1-1.2,0.2
				C85.6,44.6,81.6,41.9,76.9,41.9L76.9,41.9z"/>
		</g>
	</g>
	<path d="M80.8,52.1l0,1.8c0,0.5,0.4,0.8,0.8,0.8l0,0c0.5,0,0.8-0.4,0.8-0.8l0-1.8c0-0.5-0.4-0.8-0.8-0.8l0,0
		C81.2,51.2,80.8,51.6,80.8,52.1z"/>
	<path d="M72.1,52.1l0,1.8c0,0.5,0.4,0.8,0.8,0.8l0,0c0.5,0,0.8-0.4,0.8-0.8l0-1.8c0-0.5-0.4-0.8-0.8-0.8l0,0
		C72.5,51.2,72.1,51.6,72.1,52.1z"/>
	<g>
		<g>
			<path d="M83.1,49c2.1,0,3.8,1.7,3.8,3.8c0,2.1-1.7,3.8-3.8,3.8s-3.8-1.7-3.8-3.8C79.3,50.7,81,49,83.1,49 M83.1,48
				c-2.6,0-4.8,2.1-4.8,4.8c0,2.6,2.1,4.8,4.8,4.8s4.8-2.1,4.8-4.8C87.9,50.1,85.8,48,83.1,48L83.1,48z"/>
		</g>
	</g>
	<g>
		<g>
			<path d="M71.5,49c2.1,0,3.8,1.7,3.8,3.8c0,2.1-1.7,3.8-3.8,3.8s-3.8-1.7-3.8-3.8C67.7,50.7,69.4,49,71.5,49 M71.5,48
				c-2.6,0-4.8,2.1-4.8,4.8c0,2.6,2.1,4.8,4.8,4.8s4.8-2.1,4.8-4.8C76.3,50.1,74.1,48,71.5,48L71.5,48z"/>
		</g>
	</g>
	<circle class="st207" cx="77.5" cy="30.3" r="11.8"/>
	<g>
		<path d="M85.2,45.3c-2.1-2.1-5.1-3.4-8.3-3.4c-3.2,0-6.2,1.3-8.3,3.4H85.2z"/>
	</g>
	<line class="st205" x1="78.3" y1="52.7" x2="76.3" y2="52.7"/>
</g>
<g>
	<path class="st208" d="M27.7,112.6h15.5l6,0h0c23.4,0,42.5,18.6,43.2,41.8l0,1c0,3-2.4,5.4-5.4,5.4s-5.4-2.4-5.4-5.4
		c0,0,0,5.4-5.5,5.4c-5.5,0-5.5-5.4-5.5-5.4c0,3-1.9,5.4-5.4,5.4c-3,0-5.4-2.4-5.4-5.4l-32.1,0"/>
	<path class="st209" d="M49.1,134.2L49.1,134.2c11.9,0,21.5,9.3,21.5,21.2"/>
	<path class="st209" d="M49.1,123.3L49.1,123.3c17.9,0,32.5,14.1,32.5,32"/>
</g>
<path d="M124.3,161.5l-6.4-5.5l-6.4,5.5v-25.7c0-3.5,2.9-6.4,6.4-6.4h0c3.5,0,6.4,2.9,6.4,6.4V161.5z"/>
</svg>
